<?xml version="1.0" encoding="utf-8" standalone="no"?>
<!DOCTYPE svg PUBLIC "-//W3C//DTD SVG 1.1//EN"
  "http://www.w3.org/Graphics/SVG/1.1/DTD/svg11.dtd">
<svg xmlns:xlink="http://www.w3.org/1999/xlink" width="460.8pt" height="345.6pt" viewBox="0 0 460.8 345.6" xmlns="http://www.w3.org/2000/svg" version="1.1">
 <metadata>
  <rdf:RDF xmlns:dc="http://purl.org/dc/elements/1.1/" xmlns:cc="http://creativecommons.org/ns#" xmlns:rdf="http://www.w3.org/1999/02/22-rdf-syntax-ns#">
   <cc:Work>
    <dc:type rdf:resource="http://purl.org/dc/dcmitype/StillImage"/>
    <dc:date>2024-02-02T17:09:20.248154</dc:date>
    <dc:format>image/svg+xml</dc:format>
    <dc:creator>
     <cc:Agent>
      <dc:title>Matplotlib v3.5.1, https://matplotlib.org/</dc:title>
     </cc:Agent>
    </dc:creator>
   </cc:Work>
  </rdf:RDF>
 </metadata>
 <defs>
  <style type="text/css">*{stroke-linejoin: round; stroke-linecap: butt}</style>
 </defs>
 <g id="figure_1">
  <g id="patch_1">
   <path d="M 0 345.6 
L 460.8 345.6 
L 460.8 0 
L 0 0 
L 0 345.6 
z
" style="fill: none"/>
  </g>
  <g id="axes_1">
   <g id="patch_2">
    <path d="M 57.17 303.64 
L 450 303.64 
L 450 10.8 
L 57.17 10.8 
L 57.17 303.64 
z
" style="fill: none"/>
   </g>
   <g id="matplotlib.axis_1">
    <g id="xtick_1">
     <g id="line2d_1">
      <defs>
       <path id="m99870c1b36" d="M 0 0 
L 0 3.5 
" style="stroke: #000000; stroke-width: 0.8"/>
      </defs>
      <g>
       <use xlink:href="#m99870c1b36" x="94.921588" y="303.64" style="stroke: #000000; stroke-width: 0.8"/>
      </g>
     </g>
     <g id="text_1">
      <!-- 50 -->
      <g transform="translate(88.559088 318.238437)scale(0.1 -0.1)">
       <defs>
        <path id="DejaVuSans-35" d="M 691 4666 
L 3169 4666 
L 3169 4134 
L 1269 4134 
L 1269 2991 
Q 1406 3038 1543 3061 
Q 1681 3084 1819 3084 
Q 2600 3084 3056 2656 
Q 3513 2228 3513 1497 
Q 3513 744 3044 326 
Q 2575 -91 1722 -91 
Q 1428 -91 1123 -41 
Q 819 9 494 109 
L 494 744 
Q 775 591 1075 516 
Q 1375 441 1709 441 
Q 2250 441 2565 725 
Q 2881 1009 2881 1497 
Q 2881 1984 2565 2268 
Q 2250 2553 1709 2553 
Q 1456 2553 1204 2497 
Q 953 2441 691 2322 
L 691 4666 
z
" transform="scale(0.015625)"/>
        <path id="DejaVuSans-30" d="M 2034 4250 
Q 1547 4250 1301 3770 
Q 1056 3291 1056 2328 
Q 1056 1369 1301 889 
Q 1547 409 2034 409 
Q 2525 409 2770 889 
Q 3016 1369 3016 2328 
Q 3016 3291 2770 3770 
Q 2525 4250 2034 4250 
z
M 2034 4750 
Q 2819 4750 3233 4129 
Q 3647 3509 3647 2328 
Q 3647 1150 3233 529 
Q 2819 -91 2034 -91 
Q 1250 -91 836 529 
Q 422 1150 422 2328 
Q 422 3509 836 4129 
Q 1250 4750 2034 4750 
z
" transform="scale(0.015625)"/>
       </defs>
       <use xlink:href="#DejaVuSans-35"/>
       <use xlink:href="#DejaVuSans-30" x="63.623047"/>
      </g>
     </g>
    </g>
    <g id="xtick_2">
     <g id="line2d_2">
      <g>
       <use xlink:href="#m99870c1b36" x="149.381467" y="303.64" style="stroke: #000000; stroke-width: 0.8"/>
      </g>
     </g>
     <g id="text_2">
      <!-- 75 -->
      <g transform="translate(143.018967 318.238437)scale(0.1 -0.1)">
       <defs>
        <path id="DejaVuSans-37" d="M 525 4666 
L 3525 4666 
L 3525 4397 
L 1831 0 
L 1172 0 
L 2766 4134 
L 525 4134 
L 525 4666 
z
" transform="scale(0.015625)"/>
       </defs>
       <use xlink:href="#DejaVuSans-37"/>
       <use xlink:href="#DejaVuSans-35" x="63.623047"/>
      </g>
     </g>
    </g>
    <g id="xtick_3">
     <g id="line2d_3">
      <g>
       <use xlink:href="#m99870c1b36" x="203.841346" y="303.64" style="stroke: #000000; stroke-width: 0.8"/>
      </g>
     </g>
     <g id="text_3">
      <!-- 100 -->
      <g transform="translate(194.297596 318.238437)scale(0.1 -0.1)">
       <defs>
        <path id="DejaVuSans-31" d="M 794 531 
L 1825 531 
L 1825 4091 
L 703 3866 
L 703 4441 
L 1819 4666 
L 2450 4666 
L 2450 531 
L 3481 531 
L 3481 0 
L 794 0 
L 794 531 
z
" transform="scale(0.015625)"/>
       </defs>
       <use xlink:href="#DejaVuSans-31"/>
       <use xlink:href="#DejaVuSans-30" x="63.623047"/>
       <use xlink:href="#DejaVuSans-30" x="127.246094"/>
      </g>
     </g>
    </g>
    <g id="xtick_4">
     <g id="line2d_4">
      <g>
       <use xlink:href="#m99870c1b36" x="258.301226" y="303.64" style="stroke: #000000; stroke-width: 0.8"/>
      </g>
     </g>
     <g id="text_4">
      <!-- 125 -->
      <g transform="translate(248.757476 318.238437)scale(0.1 -0.1)">
       <defs>
        <path id="DejaVuSans-32" d="M 1228 531 
L 3431 531 
L 3431 0 
L 469 0 
L 469 531 
Q 828 903 1448 1529 
Q 2069 2156 2228 2338 
Q 2531 2678 2651 2914 
Q 2772 3150 2772 3378 
Q 2772 3750 2511 3984 
Q 2250 4219 1831 4219 
Q 1534 4219 1204 4116 
Q 875 4013 500 3803 
L 500 4441 
Q 881 4594 1212 4672 
Q 1544 4750 1819 4750 
Q 2544 4750 2975 4387 
Q 3406 4025 3406 3419 
Q 3406 3131 3298 2873 
Q 3191 2616 2906 2266 
Q 2828 2175 2409 1742 
Q 1991 1309 1228 531 
z
" transform="scale(0.015625)"/>
       </defs>
       <use xlink:href="#DejaVuSans-31"/>
       <use xlink:href="#DejaVuSans-32" x="63.623047"/>
       <use xlink:href="#DejaVuSans-35" x="127.246094"/>
      </g>
     </g>
    </g>
    <g id="xtick_5">
     <g id="line2d_5">
      <g>
       <use xlink:href="#m99870c1b36" x="312.761105" y="303.64" style="stroke: #000000; stroke-width: 0.8"/>
      </g>
     </g>
     <g id="text_5">
      <!-- 150 -->
      <g transform="translate(303.217355 318.238437)scale(0.1 -0.1)">
       <use xlink:href="#DejaVuSans-31"/>
       <use xlink:href="#DejaVuSans-35" x="63.623047"/>
       <use xlink:href="#DejaVuSans-30" x="127.246094"/>
      </g>
     </g>
    </g>
    <g id="xtick_6">
     <g id="line2d_6">
      <g>
       <use xlink:href="#m99870c1b36" x="367.220984" y="303.64" style="stroke: #000000; stroke-width: 0.8"/>
      </g>
     </g>
     <g id="text_6">
      <!-- 175 -->
      <g transform="translate(357.677234 318.238437)scale(0.1 -0.1)">
       <use xlink:href="#DejaVuSans-31"/>
       <use xlink:href="#DejaVuSans-37" x="63.623047"/>
       <use xlink:href="#DejaVuSans-35" x="127.246094"/>
      </g>
     </g>
    </g>
    <g id="xtick_7">
     <g id="line2d_7">
      <g>
       <use xlink:href="#m99870c1b36" x="421.680863" y="303.64" style="stroke: #000000; stroke-width: 0.8"/>
      </g>
     </g>
     <g id="text_7">
      <!-- 200 -->
      <g transform="translate(412.137113 318.238437)scale(0.1 -0.1)">
       <use xlink:href="#DejaVuSans-32"/>
       <use xlink:href="#DejaVuSans-30" x="63.623047"/>
       <use xlink:href="#DejaVuSans-30" x="127.246094"/>
      </g>
     </g>
    </g>
    <g id="text_8">
     <!-- GDP (Purchasing Power Standard, % EU average) -->
     <g transform="translate(130.561562 331.916562)scale(0.1 -0.1)">
      <defs>
       <path id="DejaVuSans-47" d="M 3809 666 
L 3809 1919 
L 2778 1919 
L 2778 2438 
L 4434 2438 
L 4434 434 
Q 4069 175 3628 42 
Q 3188 -91 2688 -91 
Q 1594 -91 976 548 
Q 359 1188 359 2328 
Q 359 3472 976 4111 
Q 1594 4750 2688 4750 
Q 3144 4750 3555 4637 
Q 3966 4525 4313 4306 
L 4313 3634 
Q 3963 3931 3569 4081 
Q 3175 4231 2741 4231 
Q 1884 4231 1454 3753 
Q 1025 3275 1025 2328 
Q 1025 1384 1454 906 
Q 1884 428 2741 428 
Q 3075 428 3337 486 
Q 3600 544 3809 666 
z
" transform="scale(0.015625)"/>
       <path id="DejaVuSans-44" d="M 1259 4147 
L 1259 519 
L 2022 519 
Q 2988 519 3436 956 
Q 3884 1394 3884 2338 
Q 3884 3275 3436 3711 
Q 2988 4147 2022 4147 
L 1259 4147 
z
M 628 4666 
L 1925 4666 
Q 3281 4666 3915 4102 
Q 4550 3538 4550 2338 
Q 4550 1131 3912 565 
Q 3275 0 1925 0 
L 628 0 
L 628 4666 
z
" transform="scale(0.015625)"/>
       <path id="DejaVuSans-50" d="M 1259 4147 
L 1259 2394 
L 2053 2394 
Q 2494 2394 2734 2622 
Q 2975 2850 2975 3272 
Q 2975 3691 2734 3919 
Q 2494 4147 2053 4147 
L 1259 4147 
z
M 628 4666 
L 2053 4666 
Q 2838 4666 3239 4311 
Q 3641 3956 3641 3272 
Q 3641 2581 3239 2228 
Q 2838 1875 2053 1875 
L 1259 1875 
L 1259 0 
L 628 0 
L 628 4666 
z
" transform="scale(0.015625)"/>
       <path id="DejaVuSans-20" transform="scale(0.015625)"/>
       <path id="DejaVuSans-28" d="M 1984 4856 
Q 1566 4138 1362 3434 
Q 1159 2731 1159 2009 
Q 1159 1288 1364 580 
Q 1569 -128 1984 -844 
L 1484 -844 
Q 1016 -109 783 600 
Q 550 1309 550 2009 
Q 550 2706 781 3412 
Q 1013 4119 1484 4856 
L 1984 4856 
z
" transform="scale(0.015625)"/>
       <path id="DejaVuSans-75" d="M 544 1381 
L 544 3500 
L 1119 3500 
L 1119 1403 
Q 1119 906 1312 657 
Q 1506 409 1894 409 
Q 2359 409 2629 706 
Q 2900 1003 2900 1516 
L 2900 3500 
L 3475 3500 
L 3475 0 
L 2900 0 
L 2900 538 
Q 2691 219 2414 64 
Q 2138 -91 1772 -91 
Q 1169 -91 856 284 
Q 544 659 544 1381 
z
M 1991 3584 
L 1991 3584 
z
" transform="scale(0.015625)"/>
       <path id="DejaVuSans-72" d="M 2631 2963 
Q 2534 3019 2420 3045 
Q 2306 3072 2169 3072 
Q 1681 3072 1420 2755 
Q 1159 2438 1159 1844 
L 1159 0 
L 581 0 
L 581 3500 
L 1159 3500 
L 1159 2956 
Q 1341 3275 1631 3429 
Q 1922 3584 2338 3584 
Q 2397 3584 2469 3576 
Q 2541 3569 2628 3553 
L 2631 2963 
z
" transform="scale(0.015625)"/>
       <path id="DejaVuSans-63" d="M 3122 3366 
L 3122 2828 
Q 2878 2963 2633 3030 
Q 2388 3097 2138 3097 
Q 1578 3097 1268 2742 
Q 959 2388 959 1747 
Q 959 1106 1268 751 
Q 1578 397 2138 397 
Q 2388 397 2633 464 
Q 2878 531 3122 666 
L 3122 134 
Q 2881 22 2623 -34 
Q 2366 -91 2075 -91 
Q 1284 -91 818 406 
Q 353 903 353 1747 
Q 353 2603 823 3093 
Q 1294 3584 2113 3584 
Q 2378 3584 2631 3529 
Q 2884 3475 3122 3366 
z
" transform="scale(0.015625)"/>
       <path id="DejaVuSans-68" d="M 3513 2113 
L 3513 0 
L 2938 0 
L 2938 2094 
Q 2938 2591 2744 2837 
Q 2550 3084 2163 3084 
Q 1697 3084 1428 2787 
Q 1159 2491 1159 1978 
L 1159 0 
L 581 0 
L 581 4863 
L 1159 4863 
L 1159 2956 
Q 1366 3272 1645 3428 
Q 1925 3584 2291 3584 
Q 2894 3584 3203 3211 
Q 3513 2838 3513 2113 
z
" transform="scale(0.015625)"/>
       <path id="DejaVuSans-61" d="M 2194 1759 
Q 1497 1759 1228 1600 
Q 959 1441 959 1056 
Q 959 750 1161 570 
Q 1363 391 1709 391 
Q 2188 391 2477 730 
Q 2766 1069 2766 1631 
L 2766 1759 
L 2194 1759 
z
M 3341 1997 
L 3341 0 
L 2766 0 
L 2766 531 
Q 2569 213 2275 61 
Q 1981 -91 1556 -91 
Q 1019 -91 701 211 
Q 384 513 384 1019 
Q 384 1609 779 1909 
Q 1175 2209 1959 2209 
L 2766 2209 
L 2766 2266 
Q 2766 2663 2505 2880 
Q 2244 3097 1772 3097 
Q 1472 3097 1187 3025 
Q 903 2953 641 2809 
L 641 3341 
Q 956 3463 1253 3523 
Q 1550 3584 1831 3584 
Q 2591 3584 2966 3190 
Q 3341 2797 3341 1997 
z
" transform="scale(0.015625)"/>
       <path id="DejaVuSans-73" d="M 2834 3397 
L 2834 2853 
Q 2591 2978 2328 3040 
Q 2066 3103 1784 3103 
Q 1356 3103 1142 2972 
Q 928 2841 928 2578 
Q 928 2378 1081 2264 
Q 1234 2150 1697 2047 
L 1894 2003 
Q 2506 1872 2764 1633 
Q 3022 1394 3022 966 
Q 3022 478 2636 193 
Q 2250 -91 1575 -91 
Q 1294 -91 989 -36 
Q 684 19 347 128 
L 347 722 
Q 666 556 975 473 
Q 1284 391 1588 391 
Q 1994 391 2212 530 
Q 2431 669 2431 922 
Q 2431 1156 2273 1281 
Q 2116 1406 1581 1522 
L 1381 1569 
Q 847 1681 609 1914 
Q 372 2147 372 2553 
Q 372 3047 722 3315 
Q 1072 3584 1716 3584 
Q 2034 3584 2315 3537 
Q 2597 3491 2834 3397 
z
" transform="scale(0.015625)"/>
       <path id="DejaVuSans-69" d="M 603 3500 
L 1178 3500 
L 1178 0 
L 603 0 
L 603 3500 
z
M 603 4863 
L 1178 4863 
L 1178 4134 
L 603 4134 
L 603 4863 
z
" transform="scale(0.015625)"/>
       <path id="DejaVuSans-6e" d="M 3513 2113 
L 3513 0 
L 2938 0 
L 2938 2094 
Q 2938 2591 2744 2837 
Q 2550 3084 2163 3084 
Q 1697 3084 1428 2787 
Q 1159 2491 1159 1978 
L 1159 0 
L 581 0 
L 581 3500 
L 1159 3500 
L 1159 2956 
Q 1366 3272 1645 3428 
Q 1925 3584 2291 3584 
Q 2894 3584 3203 3211 
Q 3513 2838 3513 2113 
z
" transform="scale(0.015625)"/>
       <path id="DejaVuSans-67" d="M 2906 1791 
Q 2906 2416 2648 2759 
Q 2391 3103 1925 3103 
Q 1463 3103 1205 2759 
Q 947 2416 947 1791 
Q 947 1169 1205 825 
Q 1463 481 1925 481 
Q 2391 481 2648 825 
Q 2906 1169 2906 1791 
z
M 3481 434 
Q 3481 -459 3084 -895 
Q 2688 -1331 1869 -1331 
Q 1566 -1331 1297 -1286 
Q 1028 -1241 775 -1147 
L 775 -588 
Q 1028 -725 1275 -790 
Q 1522 -856 1778 -856 
Q 2344 -856 2625 -561 
Q 2906 -266 2906 331 
L 2906 616 
Q 2728 306 2450 153 
Q 2172 0 1784 0 
Q 1141 0 747 490 
Q 353 981 353 1791 
Q 353 2603 747 3093 
Q 1141 3584 1784 3584 
Q 2172 3584 2450 3431 
Q 2728 3278 2906 2969 
L 2906 3500 
L 3481 3500 
L 3481 434 
z
" transform="scale(0.015625)"/>
       <path id="DejaVuSans-6f" d="M 1959 3097 
Q 1497 3097 1228 2736 
Q 959 2375 959 1747 
Q 959 1119 1226 758 
Q 1494 397 1959 397 
Q 2419 397 2687 759 
Q 2956 1122 2956 1747 
Q 2956 2369 2687 2733 
Q 2419 3097 1959 3097 
z
M 1959 3584 
Q 2709 3584 3137 3096 
Q 3566 2609 3566 1747 
Q 3566 888 3137 398 
Q 2709 -91 1959 -91 
Q 1206 -91 779 398 
Q 353 888 353 1747 
Q 353 2609 779 3096 
Q 1206 3584 1959 3584 
z
" transform="scale(0.015625)"/>
       <path id="DejaVuSans-77" d="M 269 3500 
L 844 3500 
L 1563 769 
L 2278 3500 
L 2956 3500 
L 3675 769 
L 4391 3500 
L 4966 3500 
L 4050 0 
L 3372 0 
L 2619 2869 
L 1863 0 
L 1184 0 
L 269 3500 
z
" transform="scale(0.015625)"/>
       <path id="DejaVuSans-65" d="M 3597 1894 
L 3597 1613 
L 953 1613 
Q 991 1019 1311 708 
Q 1631 397 2203 397 
Q 2534 397 2845 478 
Q 3156 559 3463 722 
L 3463 178 
Q 3153 47 2828 -22 
Q 2503 -91 2169 -91 
Q 1331 -91 842 396 
Q 353 884 353 1716 
Q 353 2575 817 3079 
Q 1281 3584 2069 3584 
Q 2775 3584 3186 3129 
Q 3597 2675 3597 1894 
z
M 3022 2063 
Q 3016 2534 2758 2815 
Q 2500 3097 2075 3097 
Q 1594 3097 1305 2825 
Q 1016 2553 972 2059 
L 3022 2063 
z
" transform="scale(0.015625)"/>
       <path id="DejaVuSans-53" d="M 3425 4513 
L 3425 3897 
Q 3066 4069 2747 4153 
Q 2428 4238 2131 4238 
Q 1616 4238 1336 4038 
Q 1056 3838 1056 3469 
Q 1056 3159 1242 3001 
Q 1428 2844 1947 2747 
L 2328 2669 
Q 3034 2534 3370 2195 
Q 3706 1856 3706 1288 
Q 3706 609 3251 259 
Q 2797 -91 1919 -91 
Q 1588 -91 1214 -16 
Q 841 59 441 206 
L 441 856 
Q 825 641 1194 531 
Q 1563 422 1919 422 
Q 2459 422 2753 634 
Q 3047 847 3047 1241 
Q 3047 1584 2836 1778 
Q 2625 1972 2144 2069 
L 1759 2144 
Q 1053 2284 737 2584 
Q 422 2884 422 3419 
Q 422 4038 858 4394 
Q 1294 4750 2059 4750 
Q 2388 4750 2728 4690 
Q 3069 4631 3425 4513 
z
" transform="scale(0.015625)"/>
       <path id="DejaVuSans-74" d="M 1172 4494 
L 1172 3500 
L 2356 3500 
L 2356 3053 
L 1172 3053 
L 1172 1153 
Q 1172 725 1289 603 
Q 1406 481 1766 481 
L 2356 481 
L 2356 0 
L 1766 0 
Q 1100 0 847 248 
Q 594 497 594 1153 
L 594 3053 
L 172 3053 
L 172 3500 
L 594 3500 
L 594 4494 
L 1172 4494 
z
" transform="scale(0.015625)"/>
       <path id="DejaVuSans-64" d="M 2906 2969 
L 2906 4863 
L 3481 4863 
L 3481 0 
L 2906 0 
L 2906 525 
Q 2725 213 2448 61 
Q 2172 -91 1784 -91 
Q 1150 -91 751 415 
Q 353 922 353 1747 
Q 353 2572 751 3078 
Q 1150 3584 1784 3584 
Q 2172 3584 2448 3432 
Q 2725 3281 2906 2969 
z
M 947 1747 
Q 947 1113 1208 752 
Q 1469 391 1925 391 
Q 2381 391 2643 752 
Q 2906 1113 2906 1747 
Q 2906 2381 2643 2742 
Q 2381 3103 1925 3103 
Q 1469 3103 1208 2742 
Q 947 2381 947 1747 
z
" transform="scale(0.015625)"/>
       <path id="DejaVuSans-2c" d="M 750 794 
L 1409 794 
L 1409 256 
L 897 -744 
L 494 -744 
L 750 256 
L 750 794 
z
" transform="scale(0.015625)"/>
       <path id="DejaVuSans-25" d="M 4653 2053 
Q 4381 2053 4226 1822 
Q 4072 1591 4072 1178 
Q 4072 772 4226 539 
Q 4381 306 4653 306 
Q 4919 306 5073 539 
Q 5228 772 5228 1178 
Q 5228 1588 5073 1820 
Q 4919 2053 4653 2053 
z
M 4653 2450 
Q 5147 2450 5437 2106 
Q 5728 1763 5728 1178 
Q 5728 594 5436 251 
Q 5144 -91 4653 -91 
Q 4153 -91 3862 251 
Q 3572 594 3572 1178 
Q 3572 1766 3864 2108 
Q 4156 2450 4653 2450 
z
M 1428 4353 
Q 1159 4353 1004 4120 
Q 850 3888 850 3481 
Q 850 3069 1003 2837 
Q 1156 2606 1428 2606 
Q 1700 2606 1854 2837 
Q 2009 3069 2009 3481 
Q 2009 3884 1853 4118 
Q 1697 4353 1428 4353 
z
M 4250 4750 
L 4750 4750 
L 1831 -91 
L 1331 -91 
L 4250 4750 
z
M 1428 4750 
Q 1922 4750 2215 4408 
Q 2509 4066 2509 3481 
Q 2509 2891 2217 2550 
Q 1925 2209 1428 2209 
Q 931 2209 642 2551 
Q 353 2894 353 3481 
Q 353 4063 643 4406 
Q 934 4750 1428 4750 
z
" transform="scale(0.015625)"/>
       <path id="DejaVuSans-45" d="M 628 4666 
L 3578 4666 
L 3578 4134 
L 1259 4134 
L 1259 2753 
L 3481 2753 
L 3481 2222 
L 1259 2222 
L 1259 531 
L 3634 531 
L 3634 0 
L 628 0 
L 628 4666 
z
" transform="scale(0.015625)"/>
       <path id="DejaVuSans-55" d="M 556 4666 
L 1191 4666 
L 1191 1831 
Q 1191 1081 1462 751 
Q 1734 422 2344 422 
Q 2950 422 3222 751 
Q 3494 1081 3494 1831 
L 3494 4666 
L 4128 4666 
L 4128 1753 
Q 4128 841 3676 375 
Q 3225 -91 2344 -91 
Q 1459 -91 1007 375 
Q 556 841 556 1753 
L 556 4666 
z
" transform="scale(0.015625)"/>
       <path id="DejaVuSans-76" d="M 191 3500 
L 800 3500 
L 1894 563 
L 2988 3500 
L 3597 3500 
L 2284 0 
L 1503 0 
L 191 3500 
z
" transform="scale(0.015625)"/>
       <path id="DejaVuSans-29" d="M 513 4856 
L 1013 4856 
Q 1481 4119 1714 3412 
Q 1947 2706 1947 2009 
Q 1947 1309 1714 600 
Q 1481 -109 1013 -844 
L 513 -844 
Q 928 -128 1133 580 
Q 1338 1288 1338 2009 
Q 1338 2731 1133 3434 
Q 928 4138 513 4856 
z
" transform="scale(0.015625)"/>
      </defs>
      <use xlink:href="#DejaVuSans-47"/>
      <use xlink:href="#DejaVuSans-44" x="77.490234"/>
      <use xlink:href="#DejaVuSans-50" x="154.492188"/>
      <use xlink:href="#DejaVuSans-20" x="214.794922"/>
      <use xlink:href="#DejaVuSans-28" x="246.582031"/>
      <use xlink:href="#DejaVuSans-50" x="285.595703"/>
      <use xlink:href="#DejaVuSans-75" x="344.148438"/>
      <use xlink:href="#DejaVuSans-72" x="407.527344"/>
      <use xlink:href="#DejaVuSans-63" x="446.390625"/>
      <use xlink:href="#DejaVuSans-68" x="501.371094"/>
      <use xlink:href="#DejaVuSans-61" x="564.75"/>
      <use xlink:href="#DejaVuSans-73" x="626.029297"/>
      <use xlink:href="#DejaVuSans-69" x="678.128906"/>
      <use xlink:href="#DejaVuSans-6e" x="705.912109"/>
      <use xlink:href="#DejaVuSans-67" x="769.291016"/>
      <use xlink:href="#DejaVuSans-20" x="832.767578"/>
      <use xlink:href="#DejaVuSans-50" x="864.554688"/>
      <use xlink:href="#DejaVuSans-6f" x="921.232422"/>
      <use xlink:href="#DejaVuSans-77" x="982.414062"/>
      <use xlink:href="#DejaVuSans-65" x="1064.201172"/>
      <use xlink:href="#DejaVuSans-72" x="1125.724609"/>
      <use xlink:href="#DejaVuSans-20" x="1166.837891"/>
      <use xlink:href="#DejaVuSans-53" x="1198.625"/>
      <use xlink:href="#DejaVuSans-74" x="1262.101562"/>
      <use xlink:href="#DejaVuSans-61" x="1301.310547"/>
      <use xlink:href="#DejaVuSans-6e" x="1362.589844"/>
      <use xlink:href="#DejaVuSans-64" x="1425.96875"/>
      <use xlink:href="#DejaVuSans-61" x="1489.445312"/>
      <use xlink:href="#DejaVuSans-72" x="1550.724609"/>
      <use xlink:href="#DejaVuSans-64" x="1590.087891"/>
      <use xlink:href="#DejaVuSans-2c" x="1653.564453"/>
      <use xlink:href="#DejaVuSans-20" x="1685.351562"/>
      <use xlink:href="#DejaVuSans-25" x="1717.138672"/>
      <use xlink:href="#DejaVuSans-20" x="1812.158203"/>
      <use xlink:href="#DejaVuSans-45" x="1843.945312"/>
      <use xlink:href="#DejaVuSans-55" x="1907.128906"/>
      <use xlink:href="#DejaVuSans-20" x="1980.322266"/>
      <use xlink:href="#DejaVuSans-61" x="2012.109375"/>
      <use xlink:href="#DejaVuSans-76" x="2073.388672"/>
      <use xlink:href="#DejaVuSans-65" x="2132.568359"/>
      <use xlink:href="#DejaVuSans-72" x="2194.091797"/>
      <use xlink:href="#DejaVuSans-61" x="2235.205078"/>
      <use xlink:href="#DejaVuSans-67" x="2296.484375"/>
      <use xlink:href="#DejaVuSans-65" x="2359.960938"/>
      <use xlink:href="#DejaVuSans-29" x="2421.484375"/>
     </g>
    </g>
   </g>
   <g id="matplotlib.axis_2">
    <g id="ytick_1">
     <g id="line2d_8">
      <defs>
       <path id="md93f46eb7b" d="M 0 0 
L -3.5 0 
" style="stroke: #000000; stroke-width: 0.8"/>
      </defs>
      <g>
       <use xlink:href="#md93f46eb7b" x="57.17" y="303.64" style="stroke: #000000; stroke-width: 0.8"/>
      </g>
     </g>
     <g id="text_9">
      <!-- 0 -->
      <g transform="translate(43.8075 307.439219)scale(0.1 -0.1)">
       <use xlink:href="#DejaVuSans-30"/>
      </g>
     </g>
    </g>
    <g id="ytick_2">
     <g id="line2d_9">
      <g>
       <use xlink:href="#md93f46eb7b" x="57.17" y="243.876735" style="stroke: #000000; stroke-width: 0.8"/>
      </g>
     </g>
     <g id="text_10">
      <!-- 1000 -->
      <g transform="translate(24.72 247.675953)scale(0.1 -0.1)">
       <use xlink:href="#DejaVuSans-31"/>
       <use xlink:href="#DejaVuSans-30" x="63.623047"/>
       <use xlink:href="#DejaVuSans-30" x="127.246094"/>
       <use xlink:href="#DejaVuSans-30" x="190.869141"/>
      </g>
     </g>
    </g>
    <g id="ytick_3">
     <g id="line2d_10">
      <g>
       <use xlink:href="#md93f46eb7b" x="57.17" y="184.113469" style="stroke: #000000; stroke-width: 0.8"/>
      </g>
     </g>
     <g id="text_11">
      <!-- 2000 -->
      <g transform="translate(24.72 187.912688)scale(0.1 -0.1)">
       <use xlink:href="#DejaVuSans-32"/>
       <use xlink:href="#DejaVuSans-30" x="63.623047"/>
       <use xlink:href="#DejaVuSans-30" x="127.246094"/>
       <use xlink:href="#DejaVuSans-30" x="190.869141"/>
      </g>
     </g>
    </g>
    <g id="ytick_4">
     <g id="line2d_11">
      <g>
       <use xlink:href="#md93f46eb7b" x="57.17" y="124.350204" style="stroke: #000000; stroke-width: 0.8"/>
      </g>
     </g>
     <g id="text_12">
      <!-- 3000 -->
      <g transform="translate(24.72 128.149423)scale(0.1 -0.1)">
       <defs>
        <path id="DejaVuSans-33" d="M 2597 2516 
Q 3050 2419 3304 2112 
Q 3559 1806 3559 1356 
Q 3559 666 3084 287 
Q 2609 -91 1734 -91 
Q 1441 -91 1130 -33 
Q 819 25 488 141 
L 488 750 
Q 750 597 1062 519 
Q 1375 441 1716 441 
Q 2309 441 2620 675 
Q 2931 909 2931 1356 
Q 2931 1769 2642 2001 
Q 2353 2234 1838 2234 
L 1294 2234 
L 1294 2753 
L 1863 2753 
Q 2328 2753 2575 2939 
Q 2822 3125 2822 3475 
Q 2822 3834 2567 4026 
Q 2313 4219 1838 4219 
Q 1578 4219 1281 4162 
Q 984 4106 628 3988 
L 628 4550 
Q 988 4650 1302 4700 
Q 1616 4750 1894 4750 
Q 2613 4750 3031 4423 
Q 3450 4097 3450 3541 
Q 3450 3153 3228 2886 
Q 3006 2619 2597 2516 
z
" transform="scale(0.015625)"/>
       </defs>
       <use xlink:href="#DejaVuSans-33"/>
       <use xlink:href="#DejaVuSans-30" x="63.623047"/>
       <use xlink:href="#DejaVuSans-30" x="127.246094"/>
       <use xlink:href="#DejaVuSans-30" x="190.869141"/>
      </g>
     </g>
    </g>
    <g id="ytick_5">
     <g id="line2d_12">
      <g>
       <use xlink:href="#md93f46eb7b" x="57.17" y="64.586939" style="stroke: #000000; stroke-width: 0.8"/>
      </g>
     </g>
     <g id="text_13">
      <!-- 4000 -->
      <g transform="translate(24.72 68.386158)scale(0.1 -0.1)">
       <defs>
        <path id="DejaVuSans-34" d="M 2419 4116 
L 825 1625 
L 2419 1625 
L 2419 4116 
z
M 2253 4666 
L 3047 4666 
L 3047 1625 
L 3713 1625 
L 3713 1100 
L 3047 1100 
L 3047 0 
L 2419 0 
L 2419 1100 
L 313 1100 
L 313 1709 
L 2253 4666 
z
" transform="scale(0.015625)"/>
       </defs>
       <use xlink:href="#DejaVuSans-34"/>
       <use xlink:href="#DejaVuSans-30" x="63.623047"/>
       <use xlink:href="#DejaVuSans-30" x="127.246094"/>
       <use xlink:href="#DejaVuSans-30" x="190.869141"/>
      </g>
     </g>
    </g>
    <g id="text_14">
     <!-- Number of Thefts -->
     <g transform="translate(18.640313 200.840313)rotate(-90)scale(0.1 -0.1)">
      <defs>
       <path id="DejaVuSans-4e" d="M 628 4666 
L 1478 4666 
L 3547 763 
L 3547 4666 
L 4159 4666 
L 4159 0 
L 3309 0 
L 1241 3903 
L 1241 0 
L 628 0 
L 628 4666 
z
" transform="scale(0.015625)"/>
       <path id="DejaVuSans-6d" d="M 3328 2828 
Q 3544 3216 3844 3400 
Q 4144 3584 4550 3584 
Q 5097 3584 5394 3201 
Q 5691 2819 5691 2113 
L 5691 0 
L 5113 0 
L 5113 2094 
Q 5113 2597 4934 2840 
Q 4756 3084 4391 3084 
Q 3944 3084 3684 2787 
Q 3425 2491 3425 1978 
L 3425 0 
L 2847 0 
L 2847 2094 
Q 2847 2600 2669 2842 
Q 2491 3084 2119 3084 
Q 1678 3084 1418 2786 
Q 1159 2488 1159 1978 
L 1159 0 
L 581 0 
L 581 3500 
L 1159 3500 
L 1159 2956 
Q 1356 3278 1631 3431 
Q 1906 3584 2284 3584 
Q 2666 3584 2933 3390 
Q 3200 3197 3328 2828 
z
" transform="scale(0.015625)"/>
       <path id="DejaVuSans-62" d="M 3116 1747 
Q 3116 2381 2855 2742 
Q 2594 3103 2138 3103 
Q 1681 3103 1420 2742 
Q 1159 2381 1159 1747 
Q 1159 1113 1420 752 
Q 1681 391 2138 391 
Q 2594 391 2855 752 
Q 3116 1113 3116 1747 
z
M 1159 2969 
Q 1341 3281 1617 3432 
Q 1894 3584 2278 3584 
Q 2916 3584 3314 3078 
Q 3713 2572 3713 1747 
Q 3713 922 3314 415 
Q 2916 -91 2278 -91 
Q 1894 -91 1617 61 
Q 1341 213 1159 525 
L 1159 0 
L 581 0 
L 581 4863 
L 1159 4863 
L 1159 2969 
z
" transform="scale(0.015625)"/>
       <path id="DejaVuSans-66" d="M 2375 4863 
L 2375 4384 
L 1825 4384 
Q 1516 4384 1395 4259 
Q 1275 4134 1275 3809 
L 1275 3500 
L 2222 3500 
L 2222 3053 
L 1275 3053 
L 1275 0 
L 697 0 
L 697 3053 
L 147 3053 
L 147 3500 
L 697 3500 
L 697 3744 
Q 697 4328 969 4595 
Q 1241 4863 1831 4863 
L 2375 4863 
z
" transform="scale(0.015625)"/>
       <path id="DejaVuSans-54" d="M -19 4666 
L 3928 4666 
L 3928 4134 
L 2272 4134 
L 2272 0 
L 1638 0 
L 1638 4134 
L -19 4134 
L -19 4666 
z
" transform="scale(0.015625)"/>
      </defs>
      <use xlink:href="#DejaVuSans-4e"/>
      <use xlink:href="#DejaVuSans-75" x="74.804688"/>
      <use xlink:href="#DejaVuSans-6d" x="138.183594"/>
      <use xlink:href="#DejaVuSans-62" x="235.595703"/>
      <use xlink:href="#DejaVuSans-65" x="299.072266"/>
      <use xlink:href="#DejaVuSans-72" x="360.595703"/>
      <use xlink:href="#DejaVuSans-20" x="401.708984"/>
      <use xlink:href="#DejaVuSans-6f" x="433.496094"/>
      <use xlink:href="#DejaVuSans-66" x="494.677734"/>
      <use xlink:href="#DejaVuSans-20" x="529.882812"/>
      <use xlink:href="#DejaVuSans-54" x="561.669922"/>
      <use xlink:href="#DejaVuSans-68" x="622.753906"/>
      <use xlink:href="#DejaVuSans-65" x="686.132812"/>
      <use xlink:href="#DejaVuSans-66" x="747.65625"/>
      <use xlink:href="#DejaVuSans-74" x="781.111328"/>
      <use xlink:href="#DejaVuSans-73" x="820.320312"/>
     </g>
    </g>
   </g>
   <g id="line2d_13">
    <path d="M 57.17 288.583719 
L 65.186939 288.916671 
L 73.203878 289.249624 
L 81.220816 289.582576 
L 89.237755 289.915529 
L 97.254694 290.248481 
L 105.271633 290.581434 
L 113.288571 290.914387 
L 121.30551 291.247339 
L 129.322449 291.580292 
L 137.339388 291.913244 
L 145.356327 292.246197 
L 153.373265 292.579149 
L 161.390204 292.912102 
L 169.407143 293.245054 
L 177.424082 293.578007 
L 185.44102 293.910959 
L 193.457959 294.243912 
L 201.474898 294.576864 
L 209.491837 294.909817 
L 217.508776 295.242769 
L 225.525714 295.575722 
L 233.542653 295.908675 
L 241.559592 296.241627 
L 249.576531 296.57458 
L 257.593469 296.907532 
L 265.610408 297.240485 
L 273.627347 297.573437 
L 281.644286 297.90639 
L 289.661224 298.239342 
L 297.678163 298.572295 
L 305.695102 298.905247 
L 313.712041 299.2382 
L 321.72898 299.571152 
L 329.745918 299.904105 
L 337.762857 300.237057 
L 345.779796 300.57001 
L 353.796735 300.902963 
L 361.813673 301.235915 
L 369.830612 301.568868 
L 377.847551 301.90182 
L 385.86449 302.234773 
L 393.881429 302.567725 
L 401.898367 302.900678 
L 409.915306 303.23363 
L 417.932245 303.566583 
L 425.949184 303.899535 
L 433.966122 304.232488 
L 441.983061 304.56544 
L 450 304.898393 
" clip-path="url(#p123df8dcc0)" style="fill: none; stroke: #d70000; stroke-width: 1.5; stroke-linecap: square"/>
   </g>
   <g id="line2d_14">
    <path d="M 57.17 270.221116 
L 65.186939 272.904904 
L 73.203878 275.588692 
L 81.220816 278.27248 
L 89.237755 280.956268 
L 97.254694 283.640056 
L 105.271633 286.323844 
L 113.288571 289.007632 
L 121.30551 291.69142 
L 129.322449 294.375208 
L 137.339388 297.058996 
L 145.356327 299.742784 
L 153.373265 302.426572 
L 161.390204 305.11036 
L 169.407143 307.794148 
L 177.424082 310.477936 
L 185.44102 313.161724 
L 193.457959 315.845512 
L 201.474898 318.5293 
L 209.491837 321.213088 
L 217.508776 323.896877 
L 225.525714 326.580665 
L 233.542653 329.264453 
L 241.559592 331.948241 
L 249.576531 334.632029 
L 257.593469 337.315817 
L 265.610408 339.999605 
L 273.627347 342.683393 
L 281.644286 345.367181 
L 285.32693 346.6 
" clip-path="url(#p123df8dcc0)" style="fill: none; stroke: #8c3cff; stroke-width: 1.5; stroke-linecap: square"/>
   </g>
   <g id="line2d_15">
    <path d="M 57.17 283.643677 
L 65.186939 282.936245 
L 73.203878 282.228813 
L 81.220816 281.521381 
L 89.237755 280.813949 
L 97.254694 280.106518 
L 105.271633 279.399086 
L 113.288571 278.691654 
L 121.30551 277.984222 
L 129.322449 277.27679 
L 137.339388 276.569358 
L 145.356327 275.861927 
L 153.373265 275.154495 
L 161.390204 274.447063 
L 169.407143 273.739631 
L 177.424082 273.032199 
L 185.44102 272.324768 
L 193.457959 271.617336 
L 201.474898 270.909904 
L 209.491837 270.202472 
L 217.508776 269.49504 
L 225.525714 268.787609 
L 233.542653 268.080177 
L 241.559592 267.372745 
L 249.576531 266.665313 
L 257.593469 265.957881 
L 265.610408 265.250449 
L 273.627347 264.543018 
L 281.644286 263.835586 
L 289.661224 263.128154 
L 297.678163 262.420722 
L 305.695102 261.71329 
L 313.712041 261.005859 
L 321.72898 260.298427 
L 329.745918 259.590995 
L 337.762857 258.883563 
L 345.779796 258.176131 
L 353.796735 257.468699 
L 361.813673 256.761268 
L 369.830612 256.053836 
L 377.847551 255.346404 
L 385.86449 254.638972 
L 393.881429 253.93154 
L 401.898367 253.224109 
L 409.915306 252.516677 
L 417.932245 251.809245 
L 425.949184 251.101813 
L 433.966122 250.394381 
L 441.983061 249.686949 
L 450 248.979518 
" clip-path="url(#p123df8dcc0)" style="fill: none; stroke: #028800; stroke-width: 1.5; stroke-linecap: square"/>
   </g>
   <g id="line2d_16">
    <path d="M 57.17 271.491459 
L 65.186939 270.038506 
L 73.203878 268.585552 
L 81.220816 267.132599 
L 89.237755 265.679646 
L 97.254694 264.226692 
L 105.271633 262.773739 
L 113.288571 261.320786 
L 121.30551 259.867833 
L 129.322449 258.414879 
L 137.339388 256.961926 
L 145.356327 255.508973 
L 153.373265 254.056019 
L 161.390204 252.603066 
L 169.407143 251.150113 
L 177.424082 249.697159 
L 185.44102 248.244206 
L 193.457959 246.791253 
L 201.474898 245.338299 
L 209.491837 243.885346 
L 217.508776 242.432393 
L 225.525714 240.97944 
L 233.542653 239.526486 
L 241.559592 238.073533 
L 249.576531 236.62058 
L 257.593469 235.167626 
L 265.610408 233.714673 
L 273.627347 232.26172 
L 281.644286 230.808766 
L 289.661224 229.355813 
L 297.678163 227.90286 
L 305.695102 226.449906 
L 313.712041 224.996953 
L 321.72898 223.544 
L 329.745918 222.091047 
L 337.762857 220.638093 
L 345.779796 219.18514 
L 353.796735 217.732187 
L 361.813673 216.279233 
L 369.830612 214.82628 
L 377.847551 213.373327 
L 385.86449 211.920373 
L 393.881429 210.46742 
L 401.898367 209.014467 
L 409.915306 207.561513 
L 417.932245 206.10856 
L 425.949184 204.655607 
L 433.966122 203.202654 
L 441.983061 201.7497 
L 450 200.296747 
" clip-path="url(#p123df8dcc0)" style="fill: none; stroke: #98ff00; stroke-width: 1.5; stroke-linecap: square"/>
   </g>
   <g id="line2d_17">
    <path d="M 57.17 261.285139 
L 65.186939 262.103855 
L 73.203878 262.922571 
L 81.220816 263.741287 
L 89.237755 264.560003 
L 97.254694 265.378719 
L 105.271633 266.197436 
L 113.288571 267.016152 
L 121.30551 267.834868 
L 129.322449 268.653584 
L 137.339388 269.4723 
L 145.356327 270.291017 
L 153.373265 271.109733 
L 161.390204 271.928449 
L 169.407143 272.747165 
L 177.424082 273.565881 
L 185.44102 274.384597 
L 193.457959 275.203314 
L 201.474898 276.02203 
L 209.491837 276.840746 
L 217.508776 277.659462 
L 225.525714 278.478178 
L 233.542653 279.296894 
L 241.559592 280.115611 
L 249.576531 280.934327 
L 257.593469 281.753043 
L 265.610408 282.571759 
L 273.627347 283.390475 
L 281.644286 284.209191 
L 289.661224 285.027908 
L 297.678163 285.846624 
L 305.695102 286.66534 
L 313.712041 287.484056 
L 321.72898 288.302772 
L 329.745918 289.121488 
L 337.762857 289.940205 
L 345.779796 290.758921 
L 353.796735 291.577637 
L 361.813673 292.396353 
L 369.830612 293.215069 
L 377.847551 294.033786 
L 385.86449 294.852502 
L 393.881429 295.671218 
L 401.898367 296.489934 
L 409.915306 297.30865 
L 417.932245 298.127366 
L 425.949184 298.946083 
L 433.966122 299.764799 
L 441.983061 300.583515 
L 450 301.402231 
" clip-path="url(#p123df8dcc0)" style="fill: none; stroke: #ff7fd1; stroke-width: 1.5; stroke-linecap: square"/>
   </g>
   <g id="line2d_18">
    <path d="M 57.17 303.589265 
L 65.186939 304.246285 
L 73.203878 304.903306 
L 81.220816 305.560327 
L 89.237755 306.217348 
L 97.254694 306.874369 
L 105.271633 307.531389 
L 113.288571 308.18841 
L 121.30551 308.845431 
L 129.322449 309.502452 
L 137.339388 310.159473 
L 145.356327 310.816494 
L 153.373265 311.473514 
L 161.390204 312.130535 
L 169.407143 312.787556 
L 177.424082 313.444577 
L 185.44102 314.101598 
L 193.457959 314.758619 
L 201.474898 315.415639 
L 209.491837 316.07266 
L 217.508776 316.729681 
L 225.525714 317.386702 
L 233.542653 318.043723 
L 241.559592 318.700743 
L 249.576531 319.357764 
L 257.593469 320.014785 
L 265.610408 320.671806 
L 273.627347 321.328827 
L 281.644286 321.985848 
L 289.661224 322.642868 
L 297.678163 323.299889 
L 305.695102 323.95691 
L 313.712041 324.613931 
L 321.72898 325.270952 
L 329.745918 325.927973 
L 337.762857 326.584993 
L 345.779796 327.242014 
L 353.796735 327.899035 
L 361.813673 328.556056 
L 369.830612 329.213077 
L 377.847551 329.870097 
L 385.86449 330.527118 
L 393.881429 331.184139 
L 401.898367 331.84116 
L 409.915306 332.498181 
L 417.932245 333.155202 
L 425.949184 333.812222 
L 433.966122 334.469243 
L 441.983061 335.126264 
L 450 335.783285 
" clip-path="url(#p123df8dcc0)" style="fill: none; stroke: #6c004f; stroke-width: 1.5; stroke-linecap: square"/>
   </g>
   <g id="line2d_19">
    <path d="M 57.17 218.666937 
L 65.186939 220.875085 
L 73.203878 223.083233 
L 81.220816 225.291381 
L 89.237755 227.499529 
L 97.254694 229.707676 
L 105.271633 231.915824 
L 113.288571 234.123972 
L 121.30551 236.33212 
L 129.322449 238.540267 
L 137.339388 240.748415 
L 145.356327 242.956563 
L 153.373265 245.164711 
L 161.390204 247.372859 
L 169.407143 249.581006 
L 177.424082 251.789154 
L 185.44102 253.997302 
L 193.457959 256.20545 
L 201.474898 258.413598 
L 209.491837 260.621745 
L 217.508776 262.829893 
L 225.525714 265.038041 
L 233.542653 267.246189 
L 241.559592 269.454337 
L 249.576531 271.662484 
L 257.593469 273.870632 
L 265.610408 276.07878 
L 273.627347 278.286928 
L 281.644286 280.495075 
L 289.661224 282.703223 
L 297.678163 284.911371 
L 305.695102 287.119519 
L 313.712041 289.327667 
L 321.72898 291.535814 
L 329.745918 293.743962 
L 337.762857 295.95211 
L 345.779796 298.160258 
L 353.796735 300.368406 
L 361.813673 302.576553 
L 369.830612 304.784701 
L 377.847551 306.992849 
L 385.86449 309.200997 
L 393.881429 311.409144 
L 401.898367 313.617292 
L 409.915306 315.82544 
L 417.932245 318.033588 
L 425.949184 320.241736 
L 433.966122 322.449883 
L 441.983061 324.658031 
L 450 326.866179 
" clip-path="url(#p123df8dcc0)" style="fill: none; stroke: #583b00; stroke-width: 1.5; stroke-linecap: square"/>
   </g>
   <g id="line2d_20">
    <path d="M 57.17 307.645464 
L 65.186939 308.175605 
L 73.203878 308.705746 
L 81.220816 309.235888 
L 89.237755 309.766029 
L 97.254694 310.296171 
L 105.271633 310.826312 
L 113.288571 311.356454 
L 121.30551 311.886595 
L 129.322449 312.416736 
L 137.339388 312.946878 
L 145.356327 313.477019 
L 153.373265 314.007161 
L 161.390204 314.537302 
L 169.407143 315.067444 
L 177.424082 315.597585 
L 185.44102 316.127726 
L 193.457959 316.657868 
L 201.474898 317.188009 
L 209.491837 317.718151 
L 217.508776 318.248292 
L 225.525714 318.778434 
L 233.542653 319.308575 
L 241.559592 319.838716 
L 249.576531 320.368858 
L 257.593469 320.898999 
L 265.610408 321.429141 
L 273.627347 321.959282 
L 281.644286 322.489423 
L 289.661224 323.019565 
L 297.678163 323.549706 
L 305.695102 324.079848 
L 313.712041 324.609989 
L 321.72898 325.140131 
L 329.745918 325.670272 
L 337.762857 326.200413 
L 345.779796 326.730555 
L 353.796735 327.260696 
L 361.813673 327.790838 
L 369.830612 328.320979 
L 377.847551 328.851121 
L 385.86449 329.381262 
L 393.881429 329.911403 
L 401.898367 330.441545 
L 409.915306 330.971686 
L 417.932245 331.501828 
L 425.949184 332.031969 
L 433.966122 332.56211 
L 441.983061 333.092252 
L 450 333.622393 
" clip-path="url(#p123df8dcc0)" style="fill: none; stroke: #005759; stroke-width: 1.5; stroke-linecap: square"/>
   </g>
   <g id="line2d_21">
    <path d="M 57.17 277.264201 
L 65.186939 277.358433 
L 73.203878 277.452666 
L 81.220816 277.546898 
L 89.237755 277.641131 
L 97.254694 277.735363 
L 105.271633 277.829596 
L 113.288571 277.923828 
L 121.30551 278.018061 
L 129.322449 278.112293 
L 137.339388 278.206526 
L 145.356327 278.300758 
L 153.373265 278.394991 
L 161.390204 278.489223 
L 169.407143 278.583456 
L 177.424082 278.677688 
L 185.44102 278.771921 
L 193.457959 278.866153 
L 201.474898 278.960386 
L 209.491837 279.054618 
L 217.508776 279.148851 
L 225.525714 279.243083 
L 233.542653 279.337315 
L 241.559592 279.431548 
L 249.576531 279.52578 
L 257.593469 279.620013 
L 265.610408 279.714245 
L 273.627347 279.808478 
L 281.644286 279.90271 
L 289.661224 279.996943 
L 297.678163 280.091175 
L 305.695102 280.185408 
L 313.712041 280.27964 
L 321.72898 280.373873 
L 329.745918 280.468105 
L 337.762857 280.562338 
L 345.779796 280.65657 
L 353.796735 280.750803 
L 361.813673 280.845035 
L 369.830612 280.939268 
L 377.847551 281.0335 
L 385.86449 281.127733 
L 393.881429 281.221965 
L 401.898367 281.316198 
L 409.915306 281.41043 
L 417.932245 281.504663 
L 425.949184 281.598895 
L 433.966122 281.693128 
L 441.983061 281.78736 
L 450 281.881593 
" clip-path="url(#p123df8dcc0)" style="fill: none; stroke: #0000dd; stroke-width: 1.5; stroke-linecap: square"/>
   </g>
   <g id="line2d_22">
    <path d="M 57.17 279.244485 
L 65.186939 277.782951 
L 73.203878 276.321418 
L 81.220816 274.859884 
L 89.237755 273.39835 
L 97.254694 271.936817 
L 105.271633 270.475283 
L 113.288571 269.013749 
L 121.30551 267.552216 
L 129.322449 266.090682 
L 137.339388 264.629149 
L 145.356327 263.167615 
L 153.373265 261.706081 
L 161.390204 260.244548 
L 169.407143 258.783014 
L 177.424082 257.32148 
L 185.44102 255.859947 
L 193.457959 254.398413 
L 201.474898 252.936879 
L 209.491837 251.475346 
L 217.508776 250.013812 
L 225.525714 248.552278 
L 233.542653 247.090745 
L 241.559592 245.629211 
L 249.576531 244.167677 
L 257.593469 242.706144 
L 265.610408 241.24461 
L 273.627347 239.783076 
L 281.644286 238.321543 
L 289.661224 236.860009 
L 297.678163 235.398476 
L 305.695102 233.936942 
L 313.712041 232.475408 
L 321.72898 231.013875 
L 329.745918 229.552341 
L 337.762857 228.090807 
L 345.779796 226.629274 
L 353.796735 225.16774 
L 361.813673 223.706206 
L 369.830612 222.244673 
L 377.847551 220.783139 
L 385.86449 219.321605 
L 393.881429 217.860072 
L 401.898367 216.398538 
L 409.915306 214.937004 
L 417.932245 213.475471 
L 425.949184 212.013937 
L 433.966122 210.552404 
L 441.983061 209.09087 
L 450 207.629336 
" clip-path="url(#p123df8dcc0)" style="fill: none; stroke: #bcb7ff; stroke-width: 1.5; stroke-linecap: square"/>
   </g>
   <g id="line2d_23">
    <path d="M 57.17 303.600922 
L 65.186939 307.427545 
L 73.203878 311.254169 
L 81.220816 315.080792 
L 89.237755 318.907416 
L 97.254694 322.734039 
L 105.271633 326.560663 
L 113.288571 330.387286 
L 121.30551 334.21391 
L 129.322449 338.040533 
L 137.339388 341.867157 
L 145.356327 345.69378 
L 147.254895 346.6 
" clip-path="url(#p123df8dcc0)" style="fill: none; stroke: #95b578; stroke-width: 1.5; stroke-linecap: square"/>
   </g>
   <g id="line2d_24">
    <path d="M 57.17 285.211051 
L 65.186939 285.3089 
L 73.203878 285.40675 
L 81.220816 285.504599 
L 89.237755 285.602449 
L 97.254694 285.700298 
L 105.271633 285.798148 
L 113.288571 285.895998 
L 121.30551 285.993847 
L 129.322449 286.091697 
L 137.339388 286.189546 
L 145.356327 286.287396 
L 153.373265 286.385245 
L 161.390204 286.483095 
L 169.407143 286.580944 
L 177.424082 286.678794 
L 185.44102 286.776643 
L 193.457959 286.874493 
L 201.474898 286.972342 
L 209.491837 287.070192 
L 217.508776 287.168041 
L 225.525714 287.265891 
L 233.542653 287.36374 
L 241.559592 287.46159 
L 249.576531 287.55944 
L 257.593469 287.657289 
L 265.610408 287.755139 
L 273.627347 287.852988 
L 281.644286 287.950838 
L 289.661224 288.048687 
L 297.678163 288.146537 
L 305.695102 288.244386 
L 313.712041 288.342236 
L 321.72898 288.440085 
L 329.745918 288.537935 
L 337.762857 288.635784 
L 345.779796 288.733634 
L 353.796735 288.831483 
L 361.813673 288.929333 
L 369.830612 289.027182 
L 377.847551 289.125032 
L 385.86449 289.222881 
L 393.881429 289.320731 
L 401.898367 289.418581 
L 409.915306 289.51643 
L 417.932245 289.61428 
L 425.949184 289.712129 
L 433.966122 289.809979 
L 441.983061 289.907828 
L 450 290.005678 
" clip-path="url(#p123df8dcc0)" style="fill: none; stroke: #c004b9; stroke-width: 1.5; stroke-linecap: square"/>
   </g>
   <g id="line2d_25">
    <path d="M 57.17 272.574958 
L 65.186939 271.996732 
L 73.203878 271.418506 
L 81.220816 270.840281 
L 89.237755 270.262055 
L 97.254694 269.683829 
L 105.271633 269.105604 
L 113.288571 268.527378 
L 121.30551 267.949153 
L 129.322449 267.370927 
L 137.339388 266.792701 
L 145.356327 266.214476 
L 153.373265 265.63625 
L 161.390204 265.058024 
L 169.407143 264.479799 
L 177.424082 263.901573 
L 185.44102 263.323347 
L 193.457959 262.745122 
L 201.474898 262.166896 
L 209.491837 261.58867 
L 217.508776 261.010445 
L 225.525714 260.432219 
L 233.542653 259.853994 
L 241.559592 259.275768 
L 249.576531 258.697542 
L 257.593469 258.119317 
L 265.610408 257.541091 
L 273.627347 256.962865 
L 281.644286 256.38464 
L 289.661224 255.806414 
L 297.678163 255.228188 
L 305.695102 254.649963 
L 313.712041 254.071737 
L 321.72898 253.493511 
L 329.745918 252.915286 
L 337.762857 252.33706 
L 345.779796 251.758835 
L 353.796735 251.180609 
L 361.813673 250.602383 
L 369.830612 250.024158 
L 377.847551 249.445932 
L 385.86449 248.867706 
L 393.881429 248.289481 
L 401.898367 247.711255 
L 409.915306 247.133029 
L 417.932245 246.554804 
L 425.949184 245.976578 
L 433.966122 245.398352 
L 441.983061 244.820127 
L 450 244.241901 
" clip-path="url(#p123df8dcc0)" style="fill: none; stroke: #790000; stroke-width: 1.5; stroke-linecap: square"/>
   </g>
   <g id="line2d_26">
    <path d="M 57.17 281.669651 
L 65.186939 281.49888 
L 73.203878 281.328109 
L 81.220816 281.157337 
L 89.237755 280.986566 
L 97.254694 280.815795 
L 105.271633 280.645024 
L 113.288571 280.474253 
L 121.30551 280.303482 
L 129.322449 280.132711 
L 137.339388 279.96194 
L 145.356327 279.791169 
L 153.373265 279.620398 
L 161.390204 279.449627 
L 169.407143 279.278856 
L 177.424082 279.108085 
L 185.44102 278.937314 
L 193.457959 278.766543 
L 201.474898 278.595772 
L 209.491837 278.425001 
L 217.508776 278.25423 
L 225.525714 278.083459 
L 233.542653 277.912688 
L 241.559592 277.741917 
L 249.576531 277.571146 
L 257.593469 277.400375 
L 265.610408 277.229604 
L 273.627347 277.058833 
L 281.644286 276.888062 
L 289.661224 276.717291 
L 297.678163 276.54652 
L 305.695102 276.375749 
L 313.712041 276.204978 
L 321.72898 276.034207 
L 329.745918 275.863436 
L 337.762857 275.692665 
L 345.779796 275.521894 
L 353.796735 275.351123 
L 361.813673 275.180351 
L 369.830612 275.00958 
L 377.847551 274.838809 
L 385.86449 274.668038 
L 393.881429 274.497267 
L 401.898367 274.326496 
L 409.915306 274.155725 
L 417.932245 273.984954 
L 425.949184 273.814183 
L 433.966122 273.643412 
L 441.983061 273.472641 
L 450 273.30187 
" clip-path="url(#p123df8dcc0)" style="fill: none; stroke: #0774d8; stroke-width: 1.5; stroke-linecap: square"/>
   </g>
   <g id="line2d_27">
    <path d="M 57.17 235.106874 
L 65.186939 233.438563 
L 73.203878 231.770252 
L 81.220816 230.101941 
L 89.237755 228.43363 
L 97.254694 226.765319 
L 105.271633 225.097008 
L 113.288571 223.428696 
L 121.30551 221.760385 
L 129.322449 220.092074 
L 137.339388 218.423763 
L 145.356327 216.755452 
L 153.373265 215.087141 
L 161.390204 213.41883 
L 169.407143 211.750519 
L 177.424082 210.082208 
L 185.44102 208.413897 
L 193.457959 206.745585 
L 201.474898 205.077274 
L 209.491837 203.408963 
L 217.508776 201.740652 
L 225.525714 200.072341 
L 233.542653 198.40403 
L 241.559592 196.735719 
L 249.576531 195.067408 
L 257.593469 193.399097 
L 265.610408 191.730786 
L 273.627347 190.062474 
L 281.644286 188.394163 
L 289.661224 186.725852 
L 297.678163 185.057541 
L 305.695102 183.38923 
L 313.712041 181.720919 
L 321.72898 180.052608 
L 329.745918 178.384297 
L 337.762857 176.715986 
L 345.779796 175.047675 
L 353.796735 173.379363 
L 361.813673 171.711052 
L 369.830612 170.042741 
L 377.847551 168.37443 
L 385.86449 166.706119 
L 393.881429 165.037808 
L 401.898367 163.369497 
L 409.915306 161.701186 
L 417.932245 160.032875 
L 425.949184 158.364564 
L 433.966122 156.696252 
L 441.983061 155.027941 
L 450 153.35963 
" clip-path="url(#p123df8dcc0)" style="fill: none; stroke: #fef590; stroke-width: 1.5; stroke-linecap: square"/>
   </g>
   <g id="line2d_28">
    <path d="M 57.17 246.539312 
L 65.186939 244.774789 
L 73.203878 243.010267 
L 81.220816 241.245744 
L 89.237755 239.481222 
L 97.254694 237.716699 
L 105.271633 235.952176 
L 113.288571 234.187654 
L 121.30551 232.423131 
L 129.322449 230.658609 
L 137.339388 228.894086 
L 145.356327 227.129564 
L 153.373265 225.365041 
L 161.390204 223.600518 
L 169.407143 221.835996 
L 177.424082 220.071473 
L 185.44102 218.306951 
L 193.457959 216.542428 
L 201.474898 214.777906 
L 209.491837 213.013383 
L 217.508776 211.24886 
L 225.525714 209.484338 
L 233.542653 207.719815 
L 241.559592 205.955293 
L 249.576531 204.19077 
L 257.593469 202.426247 
L 265.610408 200.661725 
L 273.627347 198.897202 
L 281.644286 197.13268 
L 289.661224 195.368157 
L 297.678163 193.603635 
L 305.695102 191.839112 
L 313.712041 190.074589 
L 321.72898 188.310067 
L 329.745918 186.545544 
L 337.762857 184.781022 
L 345.779796 183.016499 
L 353.796735 181.251976 
L 361.813673 179.487454 
L 369.830612 177.722931 
L 377.847551 175.958409 
L 385.86449 174.193886 
L 393.881429 172.429364 
L 401.898367 170.664841 
L 409.915306 168.900318 
L 417.932245 167.135796 
L 425.949184 165.371273 
L 433.966122 163.606751 
L 441.983061 161.842228 
L 450 160.077706 
" clip-path="url(#p123df8dcc0)" style="fill: none; stroke: #004b00; stroke-width: 1.5; stroke-linecap: square"/>
   </g>
   <g id="line2d_29">
    <path d="M 57.17 295.256581 
L 65.186939 298.094199 
L 73.203878 300.931818 
L 81.220816 303.769436 
L 89.237755 306.607054 
L 97.254694 309.444672 
L 105.271633 312.28229 
L 113.288571 315.119908 
L 121.30551 317.957526 
L 129.322449 320.795144 
L 137.339388 323.632762 
L 145.356327 326.47038 
L 153.373265 329.307998 
L 161.390204 332.145616 
L 169.407143 334.983234 
L 177.424082 337.820852 
L 185.44102 340.658471 
L 193.457959 343.496089 
L 201.474898 346.333707 
L 202.227239 346.6 
" clip-path="url(#p123df8dcc0)" style="fill: none; stroke: #8f7a00; stroke-width: 1.5; stroke-linecap: square"/>
   </g>
   <g id="line2d_30">
    <path d="M 57.17 291.743077 
L 65.186939 291.689495 
L 73.203878 291.635913 
L 81.220816 291.582331 
L 89.237755 291.528749 
L 97.254694 291.475167 
L 105.271633 291.421585 
L 113.288571 291.368003 
L 121.30551 291.314422 
L 129.322449 291.26084 
L 137.339388 291.207258 
L 145.356327 291.153676 
L 153.373265 291.100094 
L 161.390204 291.046512 
L 169.407143 290.99293 
L 177.424082 290.939348 
L 185.44102 290.885767 
L 193.457959 290.832185 
L 201.474898 290.778603 
L 209.491837 290.725021 
L 217.508776 290.671439 
L 225.525714 290.617857 
L 233.542653 290.564275 
L 241.559592 290.510693 
L 249.576531 290.457112 
L 257.593469 290.40353 
L 265.610408 290.349948 
L 273.627347 290.296366 
L 281.644286 290.242784 
L 289.661224 290.189202 
L 297.678163 290.13562 
L 305.695102 290.082038 
L 313.712041 290.028457 
L 321.72898 289.974875 
L 329.745918 289.921293 
L 337.762857 289.867711 
L 345.779796 289.814129 
L 353.796735 289.760547 
L 361.813673 289.706965 
L 369.830612 289.653383 
L 377.847551 289.599802 
L 385.86449 289.54622 
L 393.881429 289.492638 
L 401.898367 289.439056 
L 409.915306 289.385474 
L 417.932245 289.331892 
L 425.949184 289.27831 
L 433.966122 289.224728 
L 441.983061 289.171146 
L 450 289.117565 
" clip-path="url(#p123df8dcc0)" style="fill: none; stroke: #ff7266; stroke-width: 1.5; stroke-linecap: square"/>
   </g>
   <g id="line2d_31">
    <path d="M 57.17 137.193831 
L 65.186939 134.861212 
L 73.203878 132.528593 
L 81.220816 130.195974 
L 89.237755 127.863355 
L 97.254694 125.530736 
L 105.271633 123.198117 
L 113.288571 120.865498 
L 121.30551 118.532879 
L 129.322449 116.20026 
L 137.339388 113.867641 
L 145.356327 111.535022 
L 153.373265 109.202403 
L 161.390204 106.869784 
L 169.407143 104.537165 
L 177.424082 102.204546 
L 185.44102 99.871927 
L 193.457959 97.539308 
L 201.474898 95.206689 
L 209.491837 92.87407 
L 217.508776 90.541451 
L 225.525714 88.208832 
L 233.542653 85.876213 
L 241.559592 83.543594 
L 249.576531 81.210975 
L 257.593469 78.878356 
L 265.610408 76.545737 
L 273.627347 74.213118 
L 281.644286 71.880499 
L 289.661224 69.54788 
L 297.678163 67.215261 
L 305.695102 64.882642 
L 313.712041 62.550023 
L 321.72898 60.217404 
L 329.745918 57.884785 
L 337.762857 55.552166 
L 345.779796 53.219547 
L 353.796735 50.886928 
L 361.813673 48.554309 
L 369.830612 46.22169 
L 377.847551 43.889071 
L 385.86449 41.556452 
L 393.881429 39.223833 
L 401.898367 36.891214 
L 409.915306 34.558595 
L 417.932245 32.225976 
L 425.949184 29.893357 
L 433.966122 27.560738 
L 441.983061 25.228119 
L 450 22.8955 
" clip-path="url(#p123df8dcc0)" style="fill: none; stroke: #eeb9b9; stroke-width: 1.5; stroke-linecap: square"/>
   </g>
   <g id="line2d_32">
    <path d="M 57.17 284.363561 
L 65.186939 283.295795 
L 73.203878 282.228028 
L 81.220816 281.160262 
L 89.237755 280.092495 
L 97.254694 279.024729 
L 105.271633 277.956962 
L 113.288571 276.889196 
L 121.30551 275.821429 
L 129.322449 274.753663 
L 137.339388 273.685896 
L 145.356327 272.61813 
L 153.373265 271.550363 
L 161.390204 270.482597 
L 169.407143 269.41483 
L 177.424082 268.347064 
L 185.44102 267.279297 
L 193.457959 266.211531 
L 201.474898 265.143764 
L 209.491837 264.075998 
L 217.508776 263.008232 
L 225.525714 261.940465 
L 233.542653 260.872699 
L 241.559592 259.804932 
L 249.576531 258.737166 
L 257.593469 257.669399 
L 265.610408 256.601633 
L 273.627347 255.533866 
L 281.644286 254.4661 
L 289.661224 253.398333 
L 297.678163 252.330567 
L 305.695102 251.2628 
L 313.712041 250.195034 
L 321.72898 249.127267 
L 329.745918 248.059501 
L 337.762857 246.991734 
L 345.779796 245.923968 
L 353.796735 244.856201 
L 361.813673 243.788435 
L 369.830612 242.720668 
L 377.847551 241.652902 
L 385.86449 240.585135 
L 393.881429 239.517369 
L 401.898367 238.449602 
L 409.915306 237.381836 
L 417.932245 236.31407 
L 425.949184 235.246303 
L 433.966122 234.178537 
L 441.983061 233.11077 
L 450 232.043004 
" clip-path="url(#p123df8dcc0)" style="fill: none; stroke: #5e7e66; stroke-width: 1.5; stroke-linecap: square"/>
   </g>
   <g id="line2d_33">
    <path d="M 57.17 276.906635 
L 65.186939 275.855762 
L 73.203878 274.804888 
L 81.220816 273.754014 
L 89.237755 272.70314 
L 97.254694 271.652267 
L 105.271633 270.601393 
L 113.288571 269.550519 
L 121.30551 268.499646 
L 129.322449 267.448772 
L 137.339388 266.397898 
L 145.356327 265.347024 
L 153.373265 264.296151 
L 161.390204 263.245277 
L 169.407143 262.194403 
L 177.424082 261.143529 
L 185.44102 260.092656 
L 193.457959 259.041782 
L 201.474898 257.990908 
L 209.491837 256.940034 
L 217.508776 255.889161 
L 225.525714 254.838287 
L 233.542653 253.787413 
L 241.559592 252.736539 
L 249.576531 251.685666 
L 257.593469 250.634792 
L 265.610408 249.583918 
L 273.627347 248.533045 
L 281.644286 247.482171 
L 289.661224 246.431297 
L 297.678163 245.380423 
L 305.695102 244.32955 
L 313.712041 243.278676 
L 321.72898 242.227802 
L 329.745918 241.176928 
L 337.762857 240.126055 
L 345.779796 239.075181 
L 353.796735 238.024307 
L 361.813673 236.973433 
L 369.830612 235.92256 
L 377.847551 234.871686 
L 385.86449 233.820812 
L 393.881429 232.769939 
L 401.898367 231.719065 
L 409.915306 230.668191 
L 417.932245 229.617317 
L 425.949184 228.566444 
L 433.966122 227.51557 
L 441.983061 226.464696 
L 450 225.413822 
" clip-path="url(#p123df8dcc0)" style="fill: none; stroke: #9be4ff; stroke-width: 1.5; stroke-linecap: square"/>
   </g>
   <g id="patch_3">
    <path d="M 57.17 303.64 
L 57.17 10.8 
" style="fill: none; stroke: #000000; stroke-width: 0.8; stroke-linejoin: miter; stroke-linecap: square"/>
   </g>
   <g id="patch_4">
    <path d="M 450 303.64 
L 450 10.8 
" style="fill: none; stroke: #000000; stroke-width: 0.8; stroke-linejoin: miter; stroke-linecap: square"/>
   </g>
   <g id="patch_5">
    <path d="M 57.17 303.64 
L 450 303.64 
" style="fill: none; stroke: #000000; stroke-width: 0.8; stroke-linejoin: miter; stroke-linecap: square"/>
   </g>
   <g id="patch_6">
    <path d="M 57.17 10.8 
L 450 10.8 
" style="fill: none; stroke: #000000; stroke-width: 0.8; stroke-linejoin: miter; stroke-linecap: square"/>
   </g>
   <g id="legend_1">
    <g id="patch_7">
     <path d="M 64.17 180.259375 
L 173.424688 180.259375 
Q 175.424688 180.259375 175.424688 178.259375 
L 175.424688 17.8 
Q 175.424688 15.8 173.424688 15.8 
L 64.17 15.8 
Q 62.17 15.8 62.17 17.8 
L 62.17 178.259375 
Q 62.17 180.259375 64.17 180.259375 
z
" style="fill: #ffffff; opacity: 0.8; stroke: #cccccc; stroke-linejoin: miter"/>
    </g>
    <g id="line2d_34">
     <path d="M 66.17 23.898438 
L 76.17 23.898438 
L 86.17 23.898438 
" style="fill: none; stroke: #d70000; stroke-width: 1.5; stroke-linecap: square"/>
    </g>
    <g id="text_15">
     <!-- AT -->
     <g transform="translate(94.17 27.398438)scale(0.1 -0.1)">
      <defs>
       <path id="DejaVuSans-41" d="M 2188 4044 
L 1331 1722 
L 3047 1722 
L 2188 4044 
z
M 1831 4666 
L 2547 4666 
L 4325 0 
L 3669 0 
L 3244 1197 
L 1141 1197 
L 716 0 
L 50 0 
L 1831 4666 
z
" transform="scale(0.015625)"/>
      </defs>
      <use xlink:href="#DejaVuSans-41"/>
      <use xlink:href="#DejaVuSans-54" x="60.658203"/>
     </g>
    </g>
    <g id="line2d_35">
     <path d="M 66.17 38.576563 
L 76.17 38.576563 
L 86.17 38.576563 
" style="fill: none; stroke: #8c3cff; stroke-width: 1.5; stroke-linecap: square"/>
    </g>
    <g id="text_16">
     <!-- BE -->
     <g transform="translate(94.17 42.076563)scale(0.1 -0.1)">
      <defs>
       <path id="DejaVuSans-42" d="M 1259 2228 
L 1259 519 
L 2272 519 
Q 2781 519 3026 730 
Q 3272 941 3272 1375 
Q 3272 1813 3026 2020 
Q 2781 2228 2272 2228 
L 1259 2228 
z
M 1259 4147 
L 1259 2741 
L 2194 2741 
Q 2656 2741 2882 2914 
Q 3109 3088 3109 3444 
Q 3109 3797 2882 3972 
Q 2656 4147 2194 4147 
L 1259 4147 
z
M 628 4666 
L 2241 4666 
Q 2963 4666 3353 4366 
Q 3744 4066 3744 3513 
Q 3744 3084 3544 2831 
Q 3344 2578 2956 2516 
Q 3422 2416 3680 2098 
Q 3938 1781 3938 1306 
Q 3938 681 3513 340 
Q 3088 0 2303 0 
L 628 0 
L 628 4666 
z
" transform="scale(0.015625)"/>
      </defs>
      <use xlink:href="#DejaVuSans-42"/>
      <use xlink:href="#DejaVuSans-45" x="68.603516"/>
     </g>
    </g>
    <g id="line2d_36">
     <path d="M 66.17 53.254688 
L 76.17 53.254688 
L 86.17 53.254688 
" style="fill: none; stroke: #028800; stroke-width: 1.5; stroke-linecap: square"/>
    </g>
    <g id="text_17">
     <!-- BG -->
     <g transform="translate(94.17 56.754688)scale(0.1 -0.1)">
      <use xlink:href="#DejaVuSans-42"/>
      <use xlink:href="#DejaVuSans-47" x="66.853516"/>
     </g>
    </g>
    <g id="line2d_37">
     <path d="M 66.17 67.932813 
L 76.17 67.932813 
L 86.17 67.932813 
" style="fill: none; stroke: #98ff00; stroke-width: 1.5; stroke-linecap: square"/>
    </g>
    <g id="text_18">
     <!-- CZ -->
     <g transform="translate(94.17 71.432813)scale(0.1 -0.1)">
      <defs>
       <path id="DejaVuSans-43" d="M 4122 4306 
L 4122 3641 
Q 3803 3938 3442 4084 
Q 3081 4231 2675 4231 
Q 1875 4231 1450 3742 
Q 1025 3253 1025 2328 
Q 1025 1406 1450 917 
Q 1875 428 2675 428 
Q 3081 428 3442 575 
Q 3803 722 4122 1019 
L 4122 359 
Q 3791 134 3420 21 
Q 3050 -91 2638 -91 
Q 1578 -91 968 557 
Q 359 1206 359 2328 
Q 359 3453 968 4101 
Q 1578 4750 2638 4750 
Q 3056 4750 3426 4639 
Q 3797 4528 4122 4306 
z
" transform="scale(0.015625)"/>
       <path id="DejaVuSans-5a" d="M 359 4666 
L 4025 4666 
L 4025 4184 
L 1075 531 
L 4097 531 
L 4097 0 
L 288 0 
L 288 481 
L 3238 4134 
L 359 4134 
L 359 4666 
z
" transform="scale(0.015625)"/>
      </defs>
      <use xlink:href="#DejaVuSans-43"/>
      <use xlink:href="#DejaVuSans-5a" x="69.824219"/>
     </g>
    </g>
    <g id="line2d_38">
     <path d="M 66.17 82.610938 
L 76.17 82.610938 
L 86.17 82.610938 
" style="fill: none; stroke: #ff7fd1; stroke-width: 1.5; stroke-linecap: square"/>
    </g>
    <g id="text_19">
     <!-- DE -->
     <g transform="translate(94.17 86.110938)scale(0.1 -0.1)">
      <use xlink:href="#DejaVuSans-44"/>
      <use xlink:href="#DejaVuSans-45" x="77.001953"/>
     </g>
    </g>
    <g id="line2d_39">
     <path d="M 66.17 97.289063 
L 76.17 97.289063 
L 86.17 97.289063 
" style="fill: none; stroke: #6c004f; stroke-width: 1.5; stroke-linecap: square"/>
    </g>
    <g id="text_20">
     <!-- DK -->
     <g transform="translate(94.17 100.789063)scale(0.1 -0.1)">
      <defs>
       <path id="DejaVuSans-4b" d="M 628 4666 
L 1259 4666 
L 1259 2694 
L 3353 4666 
L 4166 4666 
L 1850 2491 
L 4331 0 
L 3500 0 
L 1259 2247 
L 1259 0 
L 628 0 
L 628 4666 
z
" transform="scale(0.015625)"/>
      </defs>
      <use xlink:href="#DejaVuSans-44"/>
      <use xlink:href="#DejaVuSans-4b" x="77.001953"/>
     </g>
    </g>
    <g id="line2d_40">
     <path d="M 66.17 111.967188 
L 76.17 111.967188 
L 86.17 111.967188 
" style="fill: none; stroke: #583b00; stroke-width: 1.5; stroke-linecap: square"/>
    </g>
    <g id="text_21">
     <!-- EL -->
     <g transform="translate(94.17 115.467188)scale(0.1 -0.1)">
      <defs>
       <path id="DejaVuSans-4c" d="M 628 4666 
L 1259 4666 
L 1259 531 
L 3531 531 
L 3531 0 
L 628 0 
L 628 4666 
z
" transform="scale(0.015625)"/>
      </defs>
      <use xlink:href="#DejaVuSans-45"/>
      <use xlink:href="#DejaVuSans-4c" x="63.183594"/>
     </g>
    </g>
    <g id="line2d_41">
     <path d="M 66.17 126.645313 
L 76.17 126.645313 
L 86.17 126.645313 
" style="fill: none; stroke: #005759; stroke-width: 1.5; stroke-linecap: square"/>
    </g>
    <g id="text_22">
     <!-- ES -->
     <g transform="translate(94.17 130.145313)scale(0.1 -0.1)">
      <use xlink:href="#DejaVuSans-45"/>
      <use xlink:href="#DejaVuSans-53" x="63.183594"/>
     </g>
    </g>
    <g id="line2d_42">
     <path d="M 66.17 141.323438 
L 76.17 141.323438 
L 86.17 141.323438 
" style="fill: none; stroke: #0000dd; stroke-width: 1.5; stroke-linecap: square"/>
    </g>
    <g id="text_23">
     <!-- FI -->
     <g transform="translate(94.17 144.823438)scale(0.1 -0.1)">
      <defs>
       <path id="DejaVuSans-46" d="M 628 4666 
L 3309 4666 
L 3309 4134 
L 1259 4134 
L 1259 2759 
L 3109 2759 
L 3109 2228 
L 1259 2228 
L 1259 0 
L 628 0 
L 628 4666 
z
" transform="scale(0.015625)"/>
       <path id="DejaVuSans-49" d="M 628 4666 
L 1259 4666 
L 1259 0 
L 628 0 
L 628 4666 
z
" transform="scale(0.015625)"/>
      </defs>
      <use xlink:href="#DejaVuSans-46"/>
      <use xlink:href="#DejaVuSans-49" x="57.519531"/>
     </g>
    </g>
    <g id="line2d_43">
     <path d="M 66.17 156.001563 
L 76.17 156.001563 
L 86.17 156.001563 
" style="fill: none; stroke: #bcb7ff; stroke-width: 1.5; stroke-linecap: square"/>
    </g>
    <g id="text_24">
     <!-- IE -->
     <g transform="translate(94.17 159.501563)scale(0.1 -0.1)">
      <use xlink:href="#DejaVuSans-49"/>
      <use xlink:href="#DejaVuSans-45" x="29.492188"/>
     </g>
    </g>
    <g id="line2d_44">
     <path d="M 66.17 170.679688 
L 76.17 170.679688 
L 86.17 170.679688 
" style="fill: none; stroke: #95b578; stroke-width: 1.5; stroke-linecap: square"/>
    </g>
    <g id="text_25">
     <!-- IT -->
     <g transform="translate(94.17 174.179688)scale(0.1 -0.1)">
      <use xlink:href="#DejaVuSans-49"/>
      <use xlink:href="#DejaVuSans-54" x="29.492188"/>
     </g>
    </g>
    <g id="line2d_45">
     <path d="M 128.604375 23.898438 
L 138.604375 23.898438 
L 148.604375 23.898438 
" style="fill: none; stroke: #c004b9; stroke-width: 1.5; stroke-linecap: square"/>
    </g>
    <g id="text_26">
     <!-- LT -->
     <g transform="translate(156.604375 27.398438)scale(0.1 -0.1)">
      <use xlink:href="#DejaVuSans-4c"/>
      <use xlink:href="#DejaVuSans-54" x="41.962891"/>
     </g>
    </g>
    <g id="line2d_46">
     <path d="M 128.604375 38.576563 
L 138.604375 38.576563 
L 148.604375 38.576563 
" style="fill: none; stroke: #790000; stroke-width: 1.5; stroke-linecap: square"/>
    </g>
    <g id="text_27">
     <!-- LV -->
     <g transform="translate(156.604375 42.076563)scale(0.1 -0.1)">
      <defs>
       <path id="DejaVuSans-56" d="M 1831 0 
L 50 4666 
L 709 4666 
L 2188 738 
L 3669 4666 
L 4325 4666 
L 2547 0 
L 1831 0 
z
" transform="scale(0.015625)"/>
      </defs>
      <use xlink:href="#DejaVuSans-4c"/>
      <use xlink:href="#DejaVuSans-56" x="44.712891"/>
     </g>
    </g>
    <g id="line2d_47">
     <path d="M 128.604375 53.254688 
L 138.604375 53.254688 
L 148.604375 53.254688 
" style="fill: none; stroke: #0774d8; stroke-width: 1.5; stroke-linecap: square"/>
    </g>
    <g id="text_28">
     <!-- MT -->
     <g transform="translate(156.604375 56.754688)scale(0.1 -0.1)">
      <defs>
       <path id="DejaVuSans-4d" d="M 628 4666 
L 1569 4666 
L 2759 1491 
L 3956 4666 
L 4897 4666 
L 4897 0 
L 4281 0 
L 4281 4097 
L 3078 897 
L 2444 897 
L 1241 4097 
L 1241 0 
L 628 0 
L 628 4666 
z
" transform="scale(0.015625)"/>
      </defs>
      <use xlink:href="#DejaVuSans-4d"/>
      <use xlink:href="#DejaVuSans-54" x="86.279297"/>
     </g>
    </g>
    <g id="line2d_48">
     <path d="M 128.604375 67.932813 
L 138.604375 67.932813 
L 148.604375 67.932813 
" style="fill: none; stroke: #fef590; stroke-width: 1.5; stroke-linecap: square"/>
    </g>
    <g id="text_29">
     <!-- NL -->
     <g transform="translate(156.604375 71.432813)scale(0.1 -0.1)">
      <use xlink:href="#DejaVuSans-4e"/>
      <use xlink:href="#DejaVuSans-4c" x="74.804688"/>
     </g>
    </g>
    <g id="line2d_49">
     <path d="M 128.604375 82.610938 
L 138.604375 82.610938 
L 148.604375 82.610938 
" style="fill: none; stroke: #004b00; stroke-width: 1.5; stroke-linecap: square"/>
    </g>
    <g id="text_30">
     <!-- PL -->
     <g transform="translate(156.604375 86.110938)scale(0.1 -0.1)">
      <use xlink:href="#DejaVuSans-50"/>
      <use xlink:href="#DejaVuSans-4c" x="60.302734"/>
     </g>
    </g>
    <g id="line2d_50">
     <path d="M 128.604375 97.289063 
L 138.604375 97.289063 
L 148.604375 97.289063 
" style="fill: none; stroke: #8f7a00; stroke-width: 1.5; stroke-linecap: square"/>
    </g>
    <g id="text_31">
     <!-- PT -->
     <g transform="translate(156.604375 100.789063)scale(0.1 -0.1)">
      <use xlink:href="#DejaVuSans-50"/>
      <use xlink:href="#DejaVuSans-54" x="60.302734"/>
     </g>
    </g>
    <g id="line2d_51">
     <path d="M 128.604375 111.967188 
L 138.604375 111.967188 
L 148.604375 111.967188 
" style="fill: none; stroke: #ff7266; stroke-width: 1.5; stroke-linecap: square"/>
    </g>
    <g id="text_32">
     <!-- RO -->
     <g transform="translate(156.604375 115.467188)scale(0.1 -0.1)">
      <defs>
       <path id="DejaVuSans-52" d="M 2841 2188 
Q 3044 2119 3236 1894 
Q 3428 1669 3622 1275 
L 4263 0 
L 3584 0 
L 2988 1197 
Q 2756 1666 2539 1819 
Q 2322 1972 1947 1972 
L 1259 1972 
L 1259 0 
L 628 0 
L 628 4666 
L 2053 4666 
Q 2853 4666 3247 4331 
Q 3641 3997 3641 3322 
Q 3641 2881 3436 2590 
Q 3231 2300 2841 2188 
z
M 1259 4147 
L 1259 2491 
L 2053 2491 
Q 2509 2491 2742 2702 
Q 2975 2913 2975 3322 
Q 2975 3731 2742 3939 
Q 2509 4147 2053 4147 
L 1259 4147 
z
" transform="scale(0.015625)"/>
       <path id="DejaVuSans-4f" d="M 2522 4238 
Q 1834 4238 1429 3725 
Q 1025 3213 1025 2328 
Q 1025 1447 1429 934 
Q 1834 422 2522 422 
Q 3209 422 3611 934 
Q 4013 1447 4013 2328 
Q 4013 3213 3611 3725 
Q 3209 4238 2522 4238 
z
M 2522 4750 
Q 3503 4750 4090 4092 
Q 4678 3434 4678 2328 
Q 4678 1225 4090 567 
Q 3503 -91 2522 -91 
Q 1538 -91 948 565 
Q 359 1222 359 2328 
Q 359 3434 948 4092 
Q 1538 4750 2522 4750 
z
" transform="scale(0.015625)"/>
      </defs>
      <use xlink:href="#DejaVuSans-52"/>
      <use xlink:href="#DejaVuSans-4f" x="69.482422"/>
     </g>
    </g>
    <g id="line2d_52">
     <path d="M 128.604375 126.645313 
L 138.604375 126.645313 
L 148.604375 126.645313 
" style="fill: none; stroke: #eeb9b9; stroke-width: 1.5; stroke-linecap: square"/>
    </g>
    <g id="text_33">
     <!-- SE -->
     <g transform="translate(156.604375 130.145313)scale(0.1 -0.1)">
      <use xlink:href="#DejaVuSans-53"/>
      <use xlink:href="#DejaVuSans-45" x="63.476562"/>
     </g>
    </g>
    <g id="line2d_53">
     <path d="M 128.604375 141.323438 
L 138.604375 141.323438 
L 148.604375 141.323438 
" style="fill: none; stroke: #5e7e66; stroke-width: 1.5; stroke-linecap: square"/>
    </g>
    <g id="text_34">
     <!-- SI -->
     <g transform="translate(156.604375 144.823438)scale(0.1 -0.1)">
      <use xlink:href="#DejaVuSans-53"/>
      <use xlink:href="#DejaVuSans-49" x="63.476562"/>
     </g>
    </g>
    <g id="line2d_54">
     <path d="M 128.604375 156.001563 
L 138.604375 156.001563 
L 148.604375 156.001563 
" style="fill: none; stroke: #9be4ff; stroke-width: 1.5; stroke-linecap: square"/>
    </g>
    <g id="text_35">
     <!-- SK -->
     <g transform="translate(156.604375 159.501563)scale(0.1 -0.1)">
      <use xlink:href="#DejaVuSans-53"/>
      <use xlink:href="#DejaVuSans-4b" x="63.476562"/>
     </g>
    </g>
   </g>
  </g>
 </g>
 <defs>
  <clipPath id="p123df8dcc0">
   <rect x="57.17" y="10.8" width="392.83" height="292.84"/>
  </clipPath>
 </defs>
</svg>
