<?xml version="1.0" encoding="utf-8" standalone="no"?>
<!DOCTYPE svg PUBLIC "-//W3C//DTD SVG 1.1//EN"
  "http://www.w3.org/Graphics/SVG/1.1/DTD/svg11.dtd">
<svg xmlns:xlink="http://www.w3.org/1999/xlink" width="576pt" height="432pt" viewBox="0 0 576 432" xmlns="http://www.w3.org/2000/svg" version="1.1">
 <metadata>
  <rdf:RDF xmlns:dc="http://purl.org/dc/elements/1.1/" xmlns:cc="http://creativecommons.org/ns#" xmlns:rdf="http://www.w3.org/1999/02/22-rdf-syntax-ns#">
   <cc:Work>
    <dc:type rdf:resource="http://purl.org/dc/dcmitype/StillImage"/>
    <dc:date>2024-01-28T14:26:55.034457</dc:date>
    <dc:format>image/svg+xml</dc:format>
    <dc:creator>
     <cc:Agent>
      <dc:title>Matplotlib v3.5.1, https://matplotlib.org/</dc:title>
     </cc:Agent>
    </dc:creator>
   </cc:Work>
  </rdf:RDF>
 </metadata>
 <defs>
  <style type="text/css">*{stroke-linejoin: round; stroke-linecap: butt}</style>
 </defs>
 <g id="figure_1">
  <g id="patch_1">
   <path d="M 0 432 
L 576 432 
L 576 0 
L 0 0 
L 0 432 
z
" style="fill: none"/>
  </g>
  <g id="axes_1">
   <g id="patch_2">
    <path d="M 72 384.48 
L 518.4 384.48 
L 518.4 51.84 
L 72 51.84 
L 72 384.48 
z
" style="fill: none"/>
   </g>
   <g id="matplotlib.axis_1">
    <g id="xtick_1">
     <g id="line2d_1">
      <defs>
       <path id="m082be15d8f" d="M 0 0 
L 0 3.5 
" style="stroke: #000000; stroke-width: 0.8"/>
      </defs>
      <g>
       <use xlink:href="#m082be15d8f" x="72.330422" y="384.48" style="stroke: #000000; stroke-width: 0.8"/>
      </g>
     </g>
     <g id="text_1">
      <!-- 0 -->
      <g transform="translate(69.149172 399.078438)scale(0.1 -0.1)">
       <defs>
        <path id="DejaVuSans-30" d="M 2034 4250 
Q 1547 4250 1301 3770 
Q 1056 3291 1056 2328 
Q 1056 1369 1301 889 
Q 1547 409 2034 409 
Q 2525 409 2770 889 
Q 3016 1369 3016 2328 
Q 3016 3291 2770 3770 
Q 2525 4250 2034 4250 
z
M 2034 4750 
Q 2819 4750 3233 4129 
Q 3647 3509 3647 2328 
Q 3647 1150 3233 529 
Q 2819 -91 2034 -91 
Q 1250 -91 836 529 
Q 422 1150 422 2328 
Q 422 3509 836 4129 
Q 1250 4750 2034 4750 
z
" transform="scale(0.015625)"/>
       </defs>
       <use xlink:href="#DejaVuSans-30"/>
      </g>
     </g>
    </g>
    <g id="xtick_2">
     <g id="line2d_2">
      <g>
       <use xlink:href="#m082be15d8f" x="154.935899" y="384.48" style="stroke: #000000; stroke-width: 0.8"/>
      </g>
     </g>
     <g id="text_2">
      <!-- 50 -->
      <g transform="translate(148.573399 399.078438)scale(0.1 -0.1)">
       <defs>
        <path id="DejaVuSans-35" d="M 691 4666 
L 3169 4666 
L 3169 4134 
L 1269 4134 
L 1269 2991 
Q 1406 3038 1543 3061 
Q 1681 3084 1819 3084 
Q 2600 3084 3056 2656 
Q 3513 2228 3513 1497 
Q 3513 744 3044 326 
Q 2575 -91 1722 -91 
Q 1428 -91 1123 -41 
Q 819 9 494 109 
L 494 744 
Q 775 591 1075 516 
Q 1375 441 1709 441 
Q 2250 441 2565 725 
Q 2881 1009 2881 1497 
Q 2881 1984 2565 2268 
Q 2250 2553 1709 2553 
Q 1456 2553 1204 2497 
Q 953 2441 691 2322 
L 691 4666 
z
" transform="scale(0.015625)"/>
       </defs>
       <use xlink:href="#DejaVuSans-35"/>
       <use xlink:href="#DejaVuSans-30" x="63.623047"/>
      </g>
     </g>
    </g>
    <g id="xtick_3">
     <g id="line2d_3">
      <g>
       <use xlink:href="#m082be15d8f" x="237.541377" y="384.48" style="stroke: #000000; stroke-width: 0.8"/>
      </g>
     </g>
     <g id="text_3">
      <!-- 100 -->
      <g transform="translate(227.997627 399.078438)scale(0.1 -0.1)">
       <defs>
        <path id="DejaVuSans-31" d="M 794 531 
L 1825 531 
L 1825 4091 
L 703 3866 
L 703 4441 
L 1819 4666 
L 2450 4666 
L 2450 531 
L 3481 531 
L 3481 0 
L 794 0 
L 794 531 
z
" transform="scale(0.015625)"/>
       </defs>
       <use xlink:href="#DejaVuSans-31"/>
       <use xlink:href="#DejaVuSans-30" x="63.623047"/>
       <use xlink:href="#DejaVuSans-30" x="127.246094"/>
      </g>
     </g>
    </g>
    <g id="xtick_4">
     <g id="line2d_4">
      <g>
       <use xlink:href="#m082be15d8f" x="320.146854" y="384.48" style="stroke: #000000; stroke-width: 0.8"/>
      </g>
     </g>
     <g id="text_4">
      <!-- 150 -->
      <g transform="translate(310.603104 399.078438)scale(0.1 -0.1)">
       <use xlink:href="#DejaVuSans-31"/>
       <use xlink:href="#DejaVuSans-35" x="63.623047"/>
       <use xlink:href="#DejaVuSans-30" x="127.246094"/>
      </g>
     </g>
    </g>
    <g id="xtick_5">
     <g id="line2d_5">
      <g>
       <use xlink:href="#m082be15d8f" x="402.752332" y="384.48" style="stroke: #000000; stroke-width: 0.8"/>
      </g>
     </g>
     <g id="text_5">
      <!-- 200 -->
      <g transform="translate(393.208582 399.078438)scale(0.1 -0.1)">
       <defs>
        <path id="DejaVuSans-32" d="M 1228 531 
L 3431 531 
L 3431 0 
L 469 0 
L 469 531 
Q 828 903 1448 1529 
Q 2069 2156 2228 2338 
Q 2531 2678 2651 2914 
Q 2772 3150 2772 3378 
Q 2772 3750 2511 3984 
Q 2250 4219 1831 4219 
Q 1534 4219 1204 4116 
Q 875 4013 500 3803 
L 500 4441 
Q 881 4594 1212 4672 
Q 1544 4750 1819 4750 
Q 2544 4750 2975 4387 
Q 3406 4025 3406 3419 
Q 3406 3131 3298 2873 
Q 3191 2616 2906 2266 
Q 2828 2175 2409 1742 
Q 1991 1309 1228 531 
z
" transform="scale(0.015625)"/>
       </defs>
       <use xlink:href="#DejaVuSans-32"/>
       <use xlink:href="#DejaVuSans-30" x="63.623047"/>
       <use xlink:href="#DejaVuSans-30" x="127.246094"/>
      </g>
     </g>
    </g>
    <g id="xtick_6">
     <g id="line2d_6">
      <g>
       <use xlink:href="#m082be15d8f" x="485.357809" y="384.48" style="stroke: #000000; stroke-width: 0.8"/>
      </g>
     </g>
     <g id="text_6">
      <!-- 250 -->
      <g transform="translate(475.814059 399.078438)scale(0.1 -0.1)">
       <use xlink:href="#DejaVuSans-32"/>
       <use xlink:href="#DejaVuSans-35" x="63.623047"/>
       <use xlink:href="#DejaVuSans-30" x="127.246094"/>
      </g>
     </g>
    </g>
    <g id="text_7">
     <!-- density -->
     <g transform="translate(276.867188 412.756563)scale(0.1 -0.1)">
      <defs>
       <path id="DejaVuSans-64" d="M 2906 2969 
L 2906 4863 
L 3481 4863 
L 3481 0 
L 2906 0 
L 2906 525 
Q 2725 213 2448 61 
Q 2172 -91 1784 -91 
Q 1150 -91 751 415 
Q 353 922 353 1747 
Q 353 2572 751 3078 
Q 1150 3584 1784 3584 
Q 2172 3584 2448 3432 
Q 2725 3281 2906 2969 
z
M 947 1747 
Q 947 1113 1208 752 
Q 1469 391 1925 391 
Q 2381 391 2643 752 
Q 2906 1113 2906 1747 
Q 2906 2381 2643 2742 
Q 2381 3103 1925 3103 
Q 1469 3103 1208 2742 
Q 947 2381 947 1747 
z
" transform="scale(0.015625)"/>
       <path id="DejaVuSans-65" d="M 3597 1894 
L 3597 1613 
L 953 1613 
Q 991 1019 1311 708 
Q 1631 397 2203 397 
Q 2534 397 2845 478 
Q 3156 559 3463 722 
L 3463 178 
Q 3153 47 2828 -22 
Q 2503 -91 2169 -91 
Q 1331 -91 842 396 
Q 353 884 353 1716 
Q 353 2575 817 3079 
Q 1281 3584 2069 3584 
Q 2775 3584 3186 3129 
Q 3597 2675 3597 1894 
z
M 3022 2063 
Q 3016 2534 2758 2815 
Q 2500 3097 2075 3097 
Q 1594 3097 1305 2825 
Q 1016 2553 972 2059 
L 3022 2063 
z
" transform="scale(0.015625)"/>
       <path id="DejaVuSans-6e" d="M 3513 2113 
L 3513 0 
L 2938 0 
L 2938 2094 
Q 2938 2591 2744 2837 
Q 2550 3084 2163 3084 
Q 1697 3084 1428 2787 
Q 1159 2491 1159 1978 
L 1159 0 
L 581 0 
L 581 3500 
L 1159 3500 
L 1159 2956 
Q 1366 3272 1645 3428 
Q 1925 3584 2291 3584 
Q 2894 3584 3203 3211 
Q 3513 2838 3513 2113 
z
" transform="scale(0.015625)"/>
       <path id="DejaVuSans-73" d="M 2834 3397 
L 2834 2853 
Q 2591 2978 2328 3040 
Q 2066 3103 1784 3103 
Q 1356 3103 1142 2972 
Q 928 2841 928 2578 
Q 928 2378 1081 2264 
Q 1234 2150 1697 2047 
L 1894 2003 
Q 2506 1872 2764 1633 
Q 3022 1394 3022 966 
Q 3022 478 2636 193 
Q 2250 -91 1575 -91 
Q 1294 -91 989 -36 
Q 684 19 347 128 
L 347 722 
Q 666 556 975 473 
Q 1284 391 1588 391 
Q 1994 391 2212 530 
Q 2431 669 2431 922 
Q 2431 1156 2273 1281 
Q 2116 1406 1581 1522 
L 1381 1569 
Q 847 1681 609 1914 
Q 372 2147 372 2553 
Q 372 3047 722 3315 
Q 1072 3584 1716 3584 
Q 2034 3584 2315 3537 
Q 2597 3491 2834 3397 
z
" transform="scale(0.015625)"/>
       <path id="DejaVuSans-69" d="M 603 3500 
L 1178 3500 
L 1178 0 
L 603 0 
L 603 3500 
z
M 603 4863 
L 1178 4863 
L 1178 4134 
L 603 4134 
L 603 4863 
z
" transform="scale(0.015625)"/>
       <path id="DejaVuSans-74" d="M 1172 4494 
L 1172 3500 
L 2356 3500 
L 2356 3053 
L 1172 3053 
L 1172 1153 
Q 1172 725 1289 603 
Q 1406 481 1766 481 
L 2356 481 
L 2356 0 
L 1766 0 
Q 1100 0 847 248 
Q 594 497 594 1153 
L 594 3053 
L 172 3053 
L 172 3500 
L 594 3500 
L 594 4494 
L 1172 4494 
z
" transform="scale(0.015625)"/>
       <path id="DejaVuSans-79" d="M 2059 -325 
Q 1816 -950 1584 -1140 
Q 1353 -1331 966 -1331 
L 506 -1331 
L 506 -850 
L 844 -850 
Q 1081 -850 1212 -737 
Q 1344 -625 1503 -206 
L 1606 56 
L 191 3500 
L 800 3500 
L 1894 763 
L 2988 3500 
L 3597 3500 
L 2059 -325 
z
" transform="scale(0.015625)"/>
      </defs>
      <use xlink:href="#DejaVuSans-64"/>
      <use xlink:href="#DejaVuSans-65" x="63.476562"/>
      <use xlink:href="#DejaVuSans-6e" x="125"/>
      <use xlink:href="#DejaVuSans-73" x="188.378906"/>
      <use xlink:href="#DejaVuSans-69" x="240.478516"/>
      <use xlink:href="#DejaVuSans-74" x="268.261719"/>
      <use xlink:href="#DejaVuSans-79" x="307.470703"/>
     </g>
    </g>
   </g>
   <g id="matplotlib.axis_2">
    <g id="ytick_1">
     <g id="line2d_7">
      <defs>
       <path id="m0961d2a350" d="M 0 0 
L -3.5 0 
" style="stroke: #000000; stroke-width: 0.8"/>
      </defs>
      <g>
       <use xlink:href="#m0961d2a350" x="72" y="368.64" style="stroke: #000000; stroke-width: 0.8"/>
      </g>
     </g>
     <g id="text_8">
      <!-- 0 -->
      <g transform="translate(58.6375 372.439219)scale(0.1 -0.1)">
       <use xlink:href="#DejaVuSans-30"/>
      </g>
     </g>
    </g>
    <g id="ytick_2">
     <g id="line2d_8">
      <g>
       <use xlink:href="#m0961d2a350" x="72" y="329.04" style="stroke: #000000; stroke-width: 0.8"/>
      </g>
     </g>
     <g id="text_9">
      <!-- 5 -->
      <g transform="translate(58.6375 332.839219)scale(0.1 -0.1)">
       <use xlink:href="#DejaVuSans-35"/>
      </g>
     </g>
    </g>
    <g id="ytick_3">
     <g id="line2d_9">
      <g>
       <use xlink:href="#m0961d2a350" x="72" y="289.44" style="stroke: #000000; stroke-width: 0.8"/>
      </g>
     </g>
     <g id="text_10">
      <!-- 10 -->
      <g transform="translate(52.275 293.239219)scale(0.1 -0.1)">
       <use xlink:href="#DejaVuSans-31"/>
       <use xlink:href="#DejaVuSans-30" x="63.623047"/>
      </g>
     </g>
    </g>
    <g id="ytick_4">
     <g id="line2d_10">
      <g>
       <use xlink:href="#m0961d2a350" x="72" y="249.84" style="stroke: #000000; stroke-width: 0.8"/>
      </g>
     </g>
     <g id="text_11">
      <!-- 15 -->
      <g transform="translate(52.275 253.639219)scale(0.1 -0.1)">
       <use xlink:href="#DejaVuSans-31"/>
       <use xlink:href="#DejaVuSans-35" x="63.623047"/>
      </g>
     </g>
    </g>
    <g id="ytick_5">
     <g id="line2d_11">
      <g>
       <use xlink:href="#m0961d2a350" x="72" y="210.24" style="stroke: #000000; stroke-width: 0.8"/>
      </g>
     </g>
     <g id="text_12">
      <!-- 20 -->
      <g transform="translate(52.275 214.039219)scale(0.1 -0.1)">
       <use xlink:href="#DejaVuSans-32"/>
       <use xlink:href="#DejaVuSans-30" x="63.623047"/>
      </g>
     </g>
    </g>
    <g id="ytick_6">
     <g id="line2d_12">
      <g>
       <use xlink:href="#m0961d2a350" x="72" y="170.64" style="stroke: #000000; stroke-width: 0.8"/>
      </g>
     </g>
     <g id="text_13">
      <!-- 25 -->
      <g transform="translate(52.275 174.439219)scale(0.1 -0.1)">
       <use xlink:href="#DejaVuSans-32"/>
       <use xlink:href="#DejaVuSans-35" x="63.623047"/>
      </g>
     </g>
    </g>
    <g id="ytick_7">
     <g id="line2d_13">
      <g>
       <use xlink:href="#m0961d2a350" x="72" y="131.04" style="stroke: #000000; stroke-width: 0.8"/>
      </g>
     </g>
     <g id="text_14">
      <!-- 30 -->
      <g transform="translate(52.275 134.839219)scale(0.1 -0.1)">
       <defs>
        <path id="DejaVuSans-33" d="M 2597 2516 
Q 3050 2419 3304 2112 
Q 3559 1806 3559 1356 
Q 3559 666 3084 287 
Q 2609 -91 1734 -91 
Q 1441 -91 1130 -33 
Q 819 25 488 141 
L 488 750 
Q 750 597 1062 519 
Q 1375 441 1716 441 
Q 2309 441 2620 675 
Q 2931 909 2931 1356 
Q 2931 1769 2642 2001 
Q 2353 2234 1838 2234 
L 1294 2234 
L 1294 2753 
L 1863 2753 
Q 2328 2753 2575 2939 
Q 2822 3125 2822 3475 
Q 2822 3834 2567 4026 
Q 2313 4219 1838 4219 
Q 1578 4219 1281 4162 
Q 984 4106 628 3988 
L 628 4550 
Q 988 4650 1302 4700 
Q 1616 4750 1894 4750 
Q 2613 4750 3031 4423 
Q 3450 4097 3450 3541 
Q 3450 3153 3228 2886 
Q 3006 2619 2597 2516 
z
" transform="scale(0.015625)"/>
       </defs>
       <use xlink:href="#DejaVuSans-33"/>
       <use xlink:href="#DejaVuSans-30" x="63.623047"/>
      </g>
     </g>
    </g>
    <g id="ytick_8">
     <g id="line2d_14">
      <g>
       <use xlink:href="#m0961d2a350" x="72" y="91.44" style="stroke: #000000; stroke-width: 0.8"/>
      </g>
     </g>
     <g id="text_15">
      <!-- 35 -->
      <g transform="translate(52.275 95.239219)scale(0.1 -0.1)">
       <use xlink:href="#DejaVuSans-33"/>
       <use xlink:href="#DejaVuSans-35" x="63.623047"/>
      </g>
     </g>
    </g>
    <g id="ytick_9">
     <g id="line2d_15">
      <g>
       <use xlink:href="#m0961d2a350" x="72" y="51.84" style="stroke: #000000; stroke-width: 0.8"/>
      </g>
     </g>
     <g id="text_16">
      <!-- 40 -->
      <g transform="translate(52.275 55.639219)scale(0.1 -0.1)">
       <defs>
        <path id="DejaVuSans-34" d="M 2419 4116 
L 825 1625 
L 2419 1625 
L 2419 4116 
z
M 2253 4666 
L 3047 4666 
L 3047 1625 
L 3713 1625 
L 3713 1100 
L 3047 1100 
L 3047 0 
L 2419 0 
L 2419 1100 
L 313 1100 
L 313 1709 
L 2253 4666 
z
" transform="scale(0.015625)"/>
       </defs>
       <use xlink:href="#DejaVuSans-34"/>
       <use xlink:href="#DejaVuSans-30" x="63.623047"/>
      </g>
     </g>
    </g>
    <g id="text_17">
     <!-- crimes -->
     <g transform="translate(46.195312 234.905312)rotate(-90)scale(0.1 -0.1)">
      <defs>
       <path id="DejaVuSans-63" d="M 3122 3366 
L 3122 2828 
Q 2878 2963 2633 3030 
Q 2388 3097 2138 3097 
Q 1578 3097 1268 2742 
Q 959 2388 959 1747 
Q 959 1106 1268 751 
Q 1578 397 2138 397 
Q 2388 397 2633 464 
Q 2878 531 3122 666 
L 3122 134 
Q 2881 22 2623 -34 
Q 2366 -91 2075 -91 
Q 1284 -91 818 406 
Q 353 903 353 1747 
Q 353 2603 823 3093 
Q 1294 3584 2113 3584 
Q 2378 3584 2631 3529 
Q 2884 3475 3122 3366 
z
" transform="scale(0.015625)"/>
       <path id="DejaVuSans-72" d="M 2631 2963 
Q 2534 3019 2420 3045 
Q 2306 3072 2169 3072 
Q 1681 3072 1420 2755 
Q 1159 2438 1159 1844 
L 1159 0 
L 581 0 
L 581 3500 
L 1159 3500 
L 1159 2956 
Q 1341 3275 1631 3429 
Q 1922 3584 2338 3584 
Q 2397 3584 2469 3576 
Q 2541 3569 2628 3553 
L 2631 2963 
z
" transform="scale(0.015625)"/>
       <path id="DejaVuSans-6d" d="M 3328 2828 
Q 3544 3216 3844 3400 
Q 4144 3584 4550 3584 
Q 5097 3584 5394 3201 
Q 5691 2819 5691 2113 
L 5691 0 
L 5113 0 
L 5113 2094 
Q 5113 2597 4934 2840 
Q 4756 3084 4391 3084 
Q 3944 3084 3684 2787 
Q 3425 2491 3425 1978 
L 3425 0 
L 2847 0 
L 2847 2094 
Q 2847 2600 2669 2842 
Q 2491 3084 2119 3084 
Q 1678 3084 1418 2786 
Q 1159 2488 1159 1978 
L 1159 0 
L 581 0 
L 581 3500 
L 1159 3500 
L 1159 2956 
Q 1356 3278 1631 3431 
Q 1906 3584 2284 3584 
Q 2666 3584 2933 3390 
Q 3200 3197 3328 2828 
z
" transform="scale(0.015625)"/>
      </defs>
      <use xlink:href="#DejaVuSans-63"/>
      <use xlink:href="#DejaVuSans-72" x="54.980469"/>
      <use xlink:href="#DejaVuSans-69" x="96.09375"/>
      <use xlink:href="#DejaVuSans-6d" x="123.876953"/>
      <use xlink:href="#DejaVuSans-65" x="221.289062"/>
      <use xlink:href="#DejaVuSans-73" x="282.8125"/>
     </g>
    </g>
   </g>
   <g id="line2d_16">
    <path d="M 77.75501 367.906603 
L 510.565441 158.303462 
L 510.565441 158.303462 
" clip-path="url(#p6cc137dbe2)" style="fill: none; stroke: #d70000; stroke-width: 2; stroke-linecap: square"/>
   </g>
   <g id="line2d_17">
    <path d="M 77.75501 348.894432 
L 510.565441 158.684176 
L 510.565441 158.684176 
" clip-path="url(#p6cc137dbe2)" style="fill: none; stroke: #8c3cff; stroke-width: 2; stroke-linecap: square"/>
   </g>
   <g id="line2d_18">
    <path d="M 77.75501 196.439372 
L 510.565441 162.648965 
L 510.565441 162.648965 
" clip-path="url(#p6cc137dbe2)" style="fill: none; stroke: #028800; stroke-width: 2; stroke-linecap: square"/>
   </g>
   <g id="line2d_19">
    <path d="M 77.75501 244.754822 
L 510.565441 161.403363 
L 510.565441 161.403363 
" clip-path="url(#p6cc137dbe2)" style="fill: none; stroke: #00acc7; stroke-width: 2; stroke-linecap: square"/>
   </g>
   <g id="line2d_20">
    <path d="M 77.75501 138.470485 
L 510.565441 164.187265 
L 510.565441 164.187265 
" clip-path="url(#p6cc137dbe2)" style="fill: none; stroke: #98ff00; stroke-width: 2; stroke-linecap: square"/>
   </g>
   <g id="line2d_21">
    <path d="M 77.75501 321.803045 
L 510.565441 159.531844 
L 510.565441 159.531844 
" clip-path="url(#p6cc137dbe2)" style="fill: none; stroke: #ff7fd1; stroke-width: 2; stroke-linecap: square"/>
   </g>
   <g id="line2d_22">
    <path d="M 77.75501 220.172694 
L 510.565441 162.114242 
L 510.565441 162.114242 
" clip-path="url(#p6cc137dbe2)" style="fill: none; stroke: #6c004f; stroke-width: 2; stroke-linecap: square"/>
   </g>
   <g id="line2d_23">
    <path d="M 193.584509 433 
L 510.565441 154.05403 
L 510.565441 154.05403 
" clip-path="url(#p6cc137dbe2)" style="fill: none; stroke: #ffa530; stroke-width: 2; stroke-linecap: square"/>
   </g>
   <g id="line2d_24">
    <path d="M 77.75501 209.553877 
L 510.565441 162.406515 
L 510.565441 162.406515 
" clip-path="url(#p6cc137dbe2)" style="fill: none; stroke: #583b00; stroke-width: 2; stroke-linecap: square"/>
   </g>
   <g id="line2d_25">
    <path d="M 77.75501 295.338987 
L 510.565441 160.19006 
L 510.565441 160.19006 
" clip-path="url(#p6cc137dbe2)" style="fill: none; stroke: #005759; stroke-width: 2; stroke-linecap: square"/>
   </g>
   <g id="line2d_26">
    <path d="M 77.75501 257.047152 
L 510.565441 161.179414 
L 510.565441 161.179414 
" clip-path="url(#p6cc137dbe2)" style="fill: none; stroke: #0000dd; stroke-width: 2; stroke-linecap: square"/>
   </g>
   <g id="line2d_27">
    <path d="M 77.75501 127.777118 
L 510.565441 164.419946 
L 510.565441 164.419946 
" clip-path="url(#p6cc137dbe2)" style="fill: none; stroke: #00fdcf; stroke-width: 2; stroke-linecap: square"/>
   </g>
   <g id="line2d_28">
    <path d="M 77.75501 360.649471 
L 510.565441 158.505786 
L 510.565441 158.505786 
" clip-path="url(#p6cc137dbe2)" style="fill: none; stroke: #a1756a; stroke-width: 2; stroke-linecap: square"/>
   </g>
   <g id="line2d_29">
    <path d="M 77.75501 429.838172 
L 510.565441 156.739621 
L 510.565441 156.739621 
" clip-path="url(#p6cc137dbe2)" style="fill: none; stroke: #bcb7ff; stroke-width: 2; stroke-linecap: square"/>
   </g>
   <g id="line2d_30">
    <path d="M 77.75501 274.368094 
L 510.565441 160.649558 
L 510.565441 160.649558 
" clip-path="url(#p6cc137dbe2)" style="fill: none; stroke: #95b578; stroke-width: 2; stroke-linecap: square"/>
   </g>
   <g id="patch_3">
    <path d="M 72 384.48 
L 72 51.84 
" style="fill: none; stroke: #000000; stroke-width: 0.8; stroke-linejoin: miter; stroke-linecap: square"/>
   </g>
   <g id="patch_4">
    <path d="M 518.4 384.48 
L 518.4 51.84 
" style="fill: none; stroke: #000000; stroke-width: 0.8; stroke-linejoin: miter; stroke-linecap: square"/>
   </g>
   <g id="patch_5">
    <path d="M 72 384.48 
L 518.4 384.48 
" style="fill: none; stroke: #000000; stroke-width: 0.8; stroke-linejoin: miter; stroke-linecap: square"/>
   </g>
   <g id="patch_6">
    <path d="M 72 51.84 
L 518.4 51.84 
" style="fill: none; stroke: #000000; stroke-width: 0.8; stroke-linejoin: miter; stroke-linecap: square"/>
   </g>
   <g id="legend_1">
    <g id="patch_7">
     <path d="M 402.145312 379.48 
L 511.4 379.48 
Q 513.4 379.48 513.4 377.48 
L 513.4 261.055 
Q 513.4 259.055 511.4 259.055 
L 402.145312 259.055 
Q 400.145312 259.055 400.145312 261.055 
L 400.145312 377.48 
Q 400.145312 379.48 402.145312 379.48 
z
" style="fill: #ffffff; opacity: 0.8; stroke: #cccccc; stroke-linejoin: miter"/>
    </g>
    <g id="line2d_31">
     <path d="M 404.145312 267.153437 
L 414.145312 267.153437 
L 424.145312 267.153437 
" style="fill: none; stroke: #d70000; stroke-width: 2; stroke-linecap: square"/>
    </g>
    <g id="text_18">
     <!-- AT -->
     <g transform="translate(432.145312 270.653437)scale(0.1 -0.1)">
      <defs>
       <path id="DejaVuSans-41" d="M 2188 4044 
L 1331 1722 
L 3047 1722 
L 2188 4044 
z
M 1831 4666 
L 2547 4666 
L 4325 0 
L 3669 0 
L 3244 1197 
L 1141 1197 
L 716 0 
L 50 0 
L 1831 4666 
z
" transform="scale(0.015625)"/>
       <path id="DejaVuSans-54" d="M -19 4666 
L 3928 4666 
L 3928 4134 
L 2272 4134 
L 2272 0 
L 1638 0 
L 1638 4134 
L -19 4134 
L -19 4666 
z
" transform="scale(0.015625)"/>
      </defs>
      <use xlink:href="#DejaVuSans-41"/>
      <use xlink:href="#DejaVuSans-54" x="60.658203"/>
     </g>
    </g>
    <g id="line2d_32">
     <path d="M 404.145312 281.831563 
L 414.145312 281.831563 
L 424.145312 281.831563 
" style="fill: none; stroke: #8c3cff; stroke-width: 2; stroke-linecap: square"/>
    </g>
    <g id="text_19">
     <!-- BE -->
     <g transform="translate(432.145312 285.331563)scale(0.1 -0.1)">
      <defs>
       <path id="DejaVuSans-42" d="M 1259 2228 
L 1259 519 
L 2272 519 
Q 2781 519 3026 730 
Q 3272 941 3272 1375 
Q 3272 1813 3026 2020 
Q 2781 2228 2272 2228 
L 1259 2228 
z
M 1259 4147 
L 1259 2741 
L 2194 2741 
Q 2656 2741 2882 2914 
Q 3109 3088 3109 3444 
Q 3109 3797 2882 3972 
Q 2656 4147 2194 4147 
L 1259 4147 
z
M 628 4666 
L 2241 4666 
Q 2963 4666 3353 4366 
Q 3744 4066 3744 3513 
Q 3744 3084 3544 2831 
Q 3344 2578 2956 2516 
Q 3422 2416 3680 2098 
Q 3938 1781 3938 1306 
Q 3938 681 3513 340 
Q 3088 0 2303 0 
L 628 0 
L 628 4666 
z
" transform="scale(0.015625)"/>
       <path id="DejaVuSans-45" d="M 628 4666 
L 3578 4666 
L 3578 4134 
L 1259 4134 
L 1259 2753 
L 3481 2753 
L 3481 2222 
L 1259 2222 
L 1259 531 
L 3634 531 
L 3634 0 
L 628 0 
L 628 4666 
z
" transform="scale(0.015625)"/>
      </defs>
      <use xlink:href="#DejaVuSans-42"/>
      <use xlink:href="#DejaVuSans-45" x="68.603516"/>
     </g>
    </g>
    <g id="line2d_33">
     <path d="M 404.145312 296.509688 
L 414.145312 296.509688 
L 424.145312 296.509688 
" style="fill: none; stroke: #028800; stroke-width: 2; stroke-linecap: square"/>
    </g>
    <g id="text_20">
     <!-- BG -->
     <g transform="translate(432.145312 300.009688)scale(0.1 -0.1)">
      <defs>
       <path id="DejaVuSans-47" d="M 3809 666 
L 3809 1919 
L 2778 1919 
L 2778 2438 
L 4434 2438 
L 4434 434 
Q 4069 175 3628 42 
Q 3188 -91 2688 -91 
Q 1594 -91 976 548 
Q 359 1188 359 2328 
Q 359 3472 976 4111 
Q 1594 4750 2688 4750 
Q 3144 4750 3555 4637 
Q 3966 4525 4313 4306 
L 4313 3634 
Q 3963 3931 3569 4081 
Q 3175 4231 2741 4231 
Q 1884 4231 1454 3753 
Q 1025 3275 1025 2328 
Q 1025 1384 1454 906 
Q 1884 428 2741 428 
Q 3075 428 3337 486 
Q 3600 544 3809 666 
z
" transform="scale(0.015625)"/>
      </defs>
      <use xlink:href="#DejaVuSans-42"/>
      <use xlink:href="#DejaVuSans-47" x="66.853516"/>
     </g>
    </g>
    <g id="line2d_34">
     <path d="M 404.145312 311.187813 
L 414.145312 311.187813 
L 424.145312 311.187813 
" style="fill: none; stroke: #00acc7; stroke-width: 2; stroke-linecap: square"/>
    </g>
    <g id="text_21">
     <!-- CY -->
     <g transform="translate(432.145312 314.687813)scale(0.1 -0.1)">
      <defs>
       <path id="DejaVuSans-43" d="M 4122 4306 
L 4122 3641 
Q 3803 3938 3442 4084 
Q 3081 4231 2675 4231 
Q 1875 4231 1450 3742 
Q 1025 3253 1025 2328 
Q 1025 1406 1450 917 
Q 1875 428 2675 428 
Q 3081 428 3442 575 
Q 3803 722 4122 1019 
L 4122 359 
Q 3791 134 3420 21 
Q 3050 -91 2638 -91 
Q 1578 -91 968 557 
Q 359 1206 359 2328 
Q 359 3453 968 4101 
Q 1578 4750 2638 4750 
Q 3056 4750 3426 4639 
Q 3797 4528 4122 4306 
z
" transform="scale(0.015625)"/>
       <path id="DejaVuSans-59" d="M -13 4666 
L 666 4666 
L 1959 2747 
L 3244 4666 
L 3922 4666 
L 2272 2222 
L 2272 0 
L 1638 0 
L 1638 2222 
L -13 4666 
z
" transform="scale(0.015625)"/>
      </defs>
      <use xlink:href="#DejaVuSans-43"/>
      <use xlink:href="#DejaVuSans-59" x="68.074219"/>
     </g>
    </g>
    <g id="line2d_35">
     <path d="M 404.145312 325.865938 
L 414.145312 325.865938 
L 424.145312 325.865938 
" style="fill: none; stroke: #98ff00; stroke-width: 2; stroke-linecap: square"/>
    </g>
    <g id="text_22">
     <!-- DK -->
     <g transform="translate(432.145312 329.365938)scale(0.1 -0.1)">
      <defs>
       <path id="DejaVuSans-44" d="M 1259 4147 
L 1259 519 
L 2022 519 
Q 2988 519 3436 956 
Q 3884 1394 3884 2338 
Q 3884 3275 3436 3711 
Q 2988 4147 2022 4147 
L 1259 4147 
z
M 628 4666 
L 1925 4666 
Q 3281 4666 3915 4102 
Q 4550 3538 4550 2338 
Q 4550 1131 3912 565 
Q 3275 0 1925 0 
L 628 0 
L 628 4666 
z
" transform="scale(0.015625)"/>
       <path id="DejaVuSans-4b" d="M 628 4666 
L 1259 4666 
L 1259 2694 
L 3353 4666 
L 4166 4666 
L 1850 2491 
L 4331 0 
L 3500 0 
L 1259 2247 
L 1259 0 
L 628 0 
L 628 4666 
z
" transform="scale(0.015625)"/>
      </defs>
      <use xlink:href="#DejaVuSans-44"/>
      <use xlink:href="#DejaVuSans-4b" x="77.001953"/>
     </g>
    </g>
    <g id="line2d_36">
     <path d="M 404.145312 340.544062 
L 414.145312 340.544062 
L 424.145312 340.544062 
" style="fill: none; stroke: #ff7fd1; stroke-width: 2; stroke-linecap: square"/>
    </g>
    <g id="text_23">
     <!-- EL -->
     <g transform="translate(432.145312 344.044062)scale(0.1 -0.1)">
      <defs>
       <path id="DejaVuSans-4c" d="M 628 4666 
L 1259 4666 
L 1259 531 
L 3531 531 
L 3531 0 
L 628 0 
L 628 4666 
z
" transform="scale(0.015625)"/>
      </defs>
      <use xlink:href="#DejaVuSans-45"/>
      <use xlink:href="#DejaVuSans-4c" x="63.183594"/>
     </g>
    </g>
    <g id="line2d_37">
     <path d="M 404.145312 355.222188 
L 414.145312 355.222188 
L 424.145312 355.222188 
" style="fill: none; stroke: #6c004f; stroke-width: 2; stroke-linecap: square"/>
    </g>
    <g id="text_24">
     <!-- ES -->
     <g transform="translate(432.145312 358.722188)scale(0.1 -0.1)">
      <defs>
       <path id="DejaVuSans-53" d="M 3425 4513 
L 3425 3897 
Q 3066 4069 2747 4153 
Q 2428 4238 2131 4238 
Q 1616 4238 1336 4038 
Q 1056 3838 1056 3469 
Q 1056 3159 1242 3001 
Q 1428 2844 1947 2747 
L 2328 2669 
Q 3034 2534 3370 2195 
Q 3706 1856 3706 1288 
Q 3706 609 3251 259 
Q 2797 -91 1919 -91 
Q 1588 -91 1214 -16 
Q 841 59 441 206 
L 441 856 
Q 825 641 1194 531 
Q 1563 422 1919 422 
Q 2459 422 2753 634 
Q 3047 847 3047 1241 
Q 3047 1584 2836 1778 
Q 2625 1972 2144 2069 
L 1759 2144 
Q 1053 2284 737 2584 
Q 422 2884 422 3419 
Q 422 4038 858 4394 
Q 1294 4750 2059 4750 
Q 2388 4750 2728 4690 
Q 3069 4631 3425 4513 
z
" transform="scale(0.015625)"/>
      </defs>
      <use xlink:href="#DejaVuSans-45"/>
      <use xlink:href="#DejaVuSans-53" x="63.183594"/>
     </g>
    </g>
    <g id="line2d_38">
     <path d="M 404.145312 369.900313 
L 414.145312 369.900313 
L 424.145312 369.900313 
" style="fill: none; stroke: #ffa530; stroke-width: 2; stroke-linecap: square"/>
    </g>
    <g id="text_25">
     <!-- IE -->
     <g transform="translate(432.145312 373.400313)scale(0.1 -0.1)">
      <defs>
       <path id="DejaVuSans-49" d="M 628 4666 
L 1259 4666 
L 1259 0 
L 628 0 
L 628 4666 
z
" transform="scale(0.015625)"/>
      </defs>
      <use xlink:href="#DejaVuSans-49"/>
      <use xlink:href="#DejaVuSans-45" x="29.492188"/>
     </g>
    </g>
    <g id="line2d_39">
     <path d="M 466.579687 267.153437 
L 476.579687 267.153437 
L 486.579687 267.153437 
" style="fill: none; stroke: #583b00; stroke-width: 2; stroke-linecap: square"/>
    </g>
    <g id="text_26">
     <!-- IT -->
     <g transform="translate(494.579687 270.653437)scale(0.1 -0.1)">
      <use xlink:href="#DejaVuSans-49"/>
      <use xlink:href="#DejaVuSans-54" x="29.492188"/>
     </g>
    </g>
    <g id="line2d_40">
     <path d="M 466.579687 281.831563 
L 476.579687 281.831563 
L 486.579687 281.831563 
" style="fill: none; stroke: #005759; stroke-width: 2; stroke-linecap: square"/>
    </g>
    <g id="text_27">
     <!-- LU -->
     <g transform="translate(494.579687 285.331563)scale(0.1 -0.1)">
      <defs>
       <path id="DejaVuSans-55" d="M 556 4666 
L 1191 4666 
L 1191 1831 
Q 1191 1081 1462 751 
Q 1734 422 2344 422 
Q 2950 422 3222 751 
Q 3494 1081 3494 1831 
L 3494 4666 
L 4128 4666 
L 4128 1753 
Q 4128 841 3676 375 
Q 3225 -91 2344 -91 
Q 1459 -91 1007 375 
Q 556 841 556 1753 
L 556 4666 
z
" transform="scale(0.015625)"/>
      </defs>
      <use xlink:href="#DejaVuSans-4c"/>
      <use xlink:href="#DejaVuSans-55" x="50.712891"/>
     </g>
    </g>
    <g id="line2d_41">
     <path d="M 466.579687 296.509688 
L 476.579687 296.509688 
L 486.579687 296.509688 
" style="fill: none; stroke: #0000dd; stroke-width: 2; stroke-linecap: square"/>
    </g>
    <g id="text_28">
     <!-- MT -->
     <g transform="translate(494.579687 300.009688)scale(0.1 -0.1)">
      <defs>
       <path id="DejaVuSans-4d" d="M 628 4666 
L 1569 4666 
L 2759 1491 
L 3956 4666 
L 4897 4666 
L 4897 0 
L 4281 0 
L 4281 4097 
L 3078 897 
L 2444 897 
L 1241 4097 
L 1241 0 
L 628 0 
L 628 4666 
z
" transform="scale(0.015625)"/>
      </defs>
      <use xlink:href="#DejaVuSans-4d"/>
      <use xlink:href="#DejaVuSans-54" x="86.279297"/>
     </g>
    </g>
    <g id="line2d_42">
     <path d="M 466.579687 311.187813 
L 476.579687 311.187813 
L 486.579687 311.187813 
" style="fill: none; stroke: #00fdcf; stroke-width: 2; stroke-linecap: square"/>
    </g>
    <g id="text_29">
     <!-- PT -->
     <g transform="translate(494.579687 314.687813)scale(0.1 -0.1)">
      <defs>
       <path id="DejaVuSans-50" d="M 1259 4147 
L 1259 2394 
L 2053 2394 
Q 2494 2394 2734 2622 
Q 2975 2850 2975 3272 
Q 2975 3691 2734 3919 
Q 2494 4147 2053 4147 
L 1259 4147 
z
M 628 4666 
L 2053 4666 
Q 2838 4666 3239 4311 
Q 3641 3956 3641 3272 
Q 3641 2581 3239 2228 
Q 2838 1875 2053 1875 
L 1259 1875 
L 1259 0 
L 628 0 
L 628 4666 
z
" transform="scale(0.015625)"/>
      </defs>
      <use xlink:href="#DejaVuSans-50"/>
      <use xlink:href="#DejaVuSans-54" x="60.302734"/>
     </g>
    </g>
    <g id="line2d_43">
     <path d="M 466.579687 325.865938 
L 476.579687 325.865938 
L 486.579687 325.865938 
" style="fill: none; stroke: #a1756a; stroke-width: 2; stroke-linecap: square"/>
    </g>
    <g id="text_30">
     <!-- RO -->
     <g transform="translate(494.579687 329.365938)scale(0.1 -0.1)">
      <defs>
       <path id="DejaVuSans-52" d="M 2841 2188 
Q 3044 2119 3236 1894 
Q 3428 1669 3622 1275 
L 4263 0 
L 3584 0 
L 2988 1197 
Q 2756 1666 2539 1819 
Q 2322 1972 1947 1972 
L 1259 1972 
L 1259 0 
L 628 0 
L 628 4666 
L 2053 4666 
Q 2853 4666 3247 4331 
Q 3641 3997 3641 3322 
Q 3641 2881 3436 2590 
Q 3231 2300 2841 2188 
z
M 1259 4147 
L 1259 2491 
L 2053 2491 
Q 2509 2491 2742 2702 
Q 2975 2913 2975 3322 
Q 2975 3731 2742 3939 
Q 2509 4147 2053 4147 
L 1259 4147 
z
" transform="scale(0.015625)"/>
       <path id="DejaVuSans-4f" d="M 2522 4238 
Q 1834 4238 1429 3725 
Q 1025 3213 1025 2328 
Q 1025 1447 1429 934 
Q 1834 422 2522 422 
Q 3209 422 3611 934 
Q 4013 1447 4013 2328 
Q 4013 3213 3611 3725 
Q 3209 4238 2522 4238 
z
M 2522 4750 
Q 3503 4750 4090 4092 
Q 4678 3434 4678 2328 
Q 4678 1225 4090 567 
Q 3503 -91 2522 -91 
Q 1538 -91 948 565 
Q 359 1222 359 2328 
Q 359 3434 948 4092 
Q 1538 4750 2522 4750 
z
" transform="scale(0.015625)"/>
      </defs>
      <use xlink:href="#DejaVuSans-52"/>
      <use xlink:href="#DejaVuSans-4f" x="69.482422"/>
     </g>
    </g>
    <g id="line2d_44">
     <path d="M 466.579687 340.544062 
L 476.579687 340.544062 
L 486.579687 340.544062 
" style="fill: none; stroke: #bcb7ff; stroke-width: 2; stroke-linecap: square"/>
    </g>
    <g id="text_31">
     <!-- SI -->
     <g transform="translate(494.579687 344.044062)scale(0.1 -0.1)">
      <use xlink:href="#DejaVuSans-53"/>
      <use xlink:href="#DejaVuSans-49" x="63.476562"/>
     </g>
    </g>
    <g id="line2d_45">
     <path d="M 466.579687 355.222188 
L 476.579687 355.222188 
L 486.579687 355.222188 
" style="fill: none; stroke: #95b578; stroke-width: 2; stroke-linecap: square"/>
    </g>
    <g id="text_32">
     <!-- SK -->
     <g transform="translate(494.579687 358.722188)scale(0.1 -0.1)">
      <use xlink:href="#DejaVuSans-53"/>
      <use xlink:href="#DejaVuSans-4b" x="63.476562"/>
     </g>
    </g>
   </g>
   <g id="PolyCollection_1">
    <path d="M 77.75501 234.589149 
L 77.75501 342.470223 
L 77.76775 342.470145 
L 77.791967 342.469995 
L 77.814839 342.469853 
L 78.126802 342.467923 
L 78.136259 342.467865 
L 78.162961 342.467699 
L 79.170137 342.461468 
L 79.254784 342.460945 
L 79.321629 342.460531 
L 79.786809 342.457653 
L 79.869152 342.457144 
L 79.959177 342.456587 
L 80.05157 342.456015 
L 80.147491 342.455422 
L 80.23864 342.454858 
L 80.324086 342.454329 
L 81.05382 342.449814 
L 81.076542 342.449674 
L 81.103143 342.449509 
L 81.126696 342.449363 
L 81.512526 342.446976 
L 81.525982 342.446893 
L 81.530018 342.446868 
L 81.574623 342.446592 
L 81.588442 342.446507 
L 81.593262 342.446477 
L 81.668556 342.446011 
L 81.715086 342.445723 
L 81.733807 342.445607 
L 81.738905 342.445576 
L 81.76568 342.44541 
L 81.848962 342.444895 
L 81.943588 342.44431 
L 82.270519 342.442287 
L 82.306269 342.442066 
L 82.384168 342.441584 
L 82.430016 342.4413 
L 82.44885 342.441184 
L 82.449295 342.441181 
L 82.449613 342.441179 
L 82.466085 342.441077 
L 82.470666 342.441049 
L 82.49532 342.440896 
L 82.511668 342.440795 
L 82.567523 342.440449 
L 82.664191 342.439851 
L 82.71914 342.439511 
L 82.768539 342.439206 
L 82.791006 342.439067 
L 82.842191 342.43875 
L 82.848988 342.438708 
L 82.895808 342.438418 
L 82.902443 342.438377 
L 82.931322 342.438199 
L 82.938513 342.438154 
L 82.94051 342.438142 
L 82.960278 342.43802 
L 82.988993 342.437842 
L 82.997073 342.437792 
L 83.021649 342.43764 
L 83.027035 342.437607 
L 83.074125 342.437315 
L 83.081123 342.437272 
L 83.08487 342.437249 
L 83.100221 342.437154 
L 83.16204 342.436771 
L 83.172034 342.436709 
L 84.309222 342.429674 
L 84.31429 342.429643 
L 84.31493 342.429639 
L 84.336417 342.429506 
L 84.343745 342.42946 
L 84.353986 342.429397 
L 84.415065 342.429019 
L 84.514326 342.428405 
L 84.547352 342.428201 
L 84.607468 342.427829 
L 84.645967 342.427591 
L 84.683982 342.427355 
L 84.69671 342.427277 
L 84.700506 342.427253 
L 84.929117 342.425839 
L 84.94655 342.425731 
L 84.955141 342.425678 
L 84.970825 342.425581 
L 84.982727 342.425507 
L 84.999408 342.425404 
L 85.012476 342.425323 
L 85.055647 342.425056 
L 85.077449 342.424921 
L 85.13255 342.42458 
L 85.146763 342.424492 
L 85.158765 342.424418 
L 85.16094 342.424405 
L 86.251664 342.417656 
L 86.37115 342.416917 
L 86.473614 342.416283 
L 86.593968 342.415539 
L 87.453625 342.41022 
L 87.477033 342.410075 
L 87.592786 342.409359 
L 87.649886 342.409006 
L 87.761229 342.408317 
L 87.961788 342.407076 
L 87.96947 342.407029 
L 87.99823 342.406851 
L 88.053719 342.406508 
L 88.104673 342.406192 
L 88.169045 342.405794 
L 88.185621 342.405692 
L 88.209422 342.405544 
L 88.222186 342.405465 
L 88.260944 342.405226 
L 88.345396 342.404703 
L 88.449469 342.404059 
L 88.552685 342.403421 
L 88.692166 342.402558 
L 88.703757 342.402486 
L 88.718492 342.402395 
L 88.7294 342.402327 
L 88.738776 342.402269 
L 88.742743 342.402245 
L 88.760415 342.402135 
L 88.769433 342.40208 
L 88.833985 342.40168 
L 88.863824 342.401496 
L 88.86733 342.401474 
L 88.979083 342.400783 
L 89.076587 342.400179 
L 89.166508 342.399623 
L 89.248313 342.399117 
L 89.388353 342.398251 
L 89.39775 342.398192 
L 89.694856 342.396354 
L 89.732321 342.396122 
L 89.732516 342.396121 
L 89.774294 342.395863 
L 89.836364 342.395479 
L 89.945924 342.394801 
L 90.050426 342.394154 
L 90.156124 342.3935 
L 90.275313 342.392763 
L 90.361991 342.392227 
L 90.368071 342.392189 
L 90.372755 342.39216 
L 90.395927 342.392017 
L 90.399525 342.391995 
L 90.488086 342.391447 
L 90.560145 342.391001 
L 90.811017 342.389449 
L 90.83897 342.389276 
L 90.853505 342.389186 
L 90.894025 342.388935 
L 90.943275 342.388631 
L 90.98124 342.388396 
L 90.990668 342.388337 
L 91.054496 342.387942 
L 91.126861 342.387495 
L 91.233108 342.386837 
L 91.396543 342.385826 
L 91.573261 342.384733 
L 91.771109 342.383509 
L 91.790898 342.383387 
L 91.817438 342.383222 
L 91.85298 342.383002 
L 91.88023 342.382834 
L 91.90951 342.382653 
L 91.935096 342.382494 
L 92.641816 342.378122 
L 92.700907 342.377756 
L 92.738427 342.377524 
L 92.76151 342.377382 
L 93.565204 342.372409 
L 93.67148 342.371752 
L 93.676177 342.371723 
L 93.704943 342.371545 
L 93.744384 342.371301 
L 93.785757 342.371045 
L 93.839422 342.370713 
L 93.839548 342.370712 
L 93.877193 342.370479 
L 93.904443 342.37031 
L 94.012204 342.369644 
L 94.053793 342.369386 
L 94.125666 342.368942 
L 94.305041 342.367832 
L 95.128827 342.362736 
L 95.158301 342.362553 
L 95.173708 342.362458 
L 95.202782 342.362278 
L 95.226852 342.362129 
L 95.27869 342.361808 
L 95.371441 342.361235 
L 95.443287 342.36079 
L 95.532042 342.360241 
L 95.637803 342.359587 
L 95.645161 342.359541 
L 95.650045 342.359511 
L 95.669568 342.35939 
L 95.682135 342.359312 
L 95.693857 342.35924 
L 95.789047 342.358651 
L 95.79185 342.358634 
L 95.885401 342.358055 
L 95.896038 342.357989 
L 96.002317 342.357331 
L 96.003504 342.357324 
L 96.119925 342.356604 
L 96.157751 342.35637 
L 96.241578 342.355851 
L 96.418332 342.354758 
L 96.567112 342.353837 
L 96.642062 342.353373 
L 96.800333 342.352394 
L 96.815975 342.352298 
L 96.84887 342.352094 
L 96.850012 342.352087 
L 96.889523 342.351842 
L 96.946702 342.351489 
L 96.948834 342.351476 
L 96.967279 342.351361 
L 97.005782 342.351123 
L 97.077677 342.350678 
L 97.149675 342.350233 
L 97.294165 342.349339 
L 97.311834 342.34923 
L 97.487758 342.348141 
L 97.515534 342.347969 
L 97.701106 342.346821 
L 97.755004 342.346488 
L 97.955196 342.345249 
L 98.007069 342.344928 
L 98.008479 342.34492 
L 98.02491 342.344818 
L 98.028062 342.344799 
L 98.061405 342.344592 
L 98.062537 342.344585 
L 98.07285 342.344522 
L 98.276531 342.343261 
L 98.52468 342.341726 
L 100.085796 342.332068 
L 100.096771 342.332 
L 100.207615 342.331314 
L 101.039577 342.326167 
L 101.084251 342.325891 
L 101.322956 342.324414 
L 101.481394 342.323434 
L 101.700983 342.322075 
L 101.911256 342.320774 
L 101.959266 342.320477 
L 102.173132 342.319154 
L 102.208056 342.318938 
L 102.382197 342.317861 
L 102.406319 342.317711 
L 102.557949 342.316773 
L 102.605579 342.316479 
L 102.824119 342.315126 
L 103.383961 342.311663 
L 103.628084 342.310153 
L 104.264647 342.306214 
L 104.535581 342.304538 
L 104.739034 342.303279 
L 104.972788 342.301833 
L 104.992476 342.301711 
L 105.10564 342.301011 
L 105.128337 342.300871 
L 105.242031 342.300167 
L 105.425591 342.299032 
L 106.745442 342.290866 
L 106.921273 342.289778 
L 106.92425 342.28976 
L 107.006966 342.289248 
L 107.007327 342.289246 
L 107.034317 342.289079 
L 107.077991 342.288809 
L 107.192433 342.288101 
L 107.204002 342.288029 
L 107.264892 342.287652 
L 107.325858 342.287275 
L 107.438891 342.286576 
L 108.171204 342.282045 
L 108.942065 342.277276 
L 109.017377 342.27681 
L 109.20524 342.275648 
L 109.413534 342.274359 
L 109.55379 342.273492 
L 109.660684 342.27283 
L 109.874945 342.271505 
L 109.9353 342.271131 
L 109.93538 342.271131 
L 110.100245 342.270111 
L 110.165996 342.269704 
L 110.383982 342.268355 
L 110.385731 342.268345 
L 110.522132 342.267501 
L 110.530819 342.267447 
L 110.545425 342.267357 
L 110.657135 342.266665 
L 110.717265 342.266293 
L 110.729385 342.266218 
L 110.73602 342.266177 
L 110.757437 342.266045 
L 110.784552 342.265877 
L 110.838029 342.265546 
L 110.857386 342.265427 
L 110.894674 342.265196 
L 110.904718 342.265134 
L 110.974282 342.264703 
L 111.029276 342.264363 
L 111.173007 342.263474 
L 111.193436 342.263347 
L 111.203201 342.263287 
L 111.405056 342.262038 
L 111.41405 342.261983 
L 111.577968 342.260968 
L 111.605038 342.260801 
L 111.635198 342.260614 
L 111.732398 342.260013 
L 111.777306 342.259735 
L 111.860575 342.25922 
L 112.080041 342.257862 
L 112.191655 342.257172 
L 112.422219 342.255745 
L 112.668017 342.254225 
L 112.947671 342.252494 
L 112.952131 342.252467 
L 113.505939 342.249041 
L 113.895143 342.246633 
L 114.159797 342.244995 
L 114.250795 342.244432 
L 114.26498 342.244344 
L 114.403244 342.243489 
L 114.433819 342.2433 
L 115.055563 342.239453 
L 115.632503 342.235884 
L 115.667644 342.235667 
L 115.90438 342.234202 
L 115.908073 342.234179 
L 115.917601 342.23412 
L 115.96686 342.233815 
L 116.000413 342.233608 
L 116.077733 342.233129 
L 116.888736 342.228112 
L 116.998057 342.227436 
L 117.138729 342.226565 
L 117.206009 342.226149 
L 117.356765 342.225216 
L 117.44961 342.224642 
L 117.586385 342.223796 
L 117.728902 342.222914 
L 117.905133 342.221824 
L 119.134723 342.214217 
L 119.275748 342.213344 
L 119.297348 342.21321 
L 119.686445 342.210803 
L 119.918135 342.20937 
L 119.968911 342.209056 
L 119.973049 342.20903 
L 120.02359 342.208717 
L 120.061399 342.208483 
L 120.741676 342.204275 
L 121.507202 342.199539 
L 121.51574 342.199486 
L 121.55128 342.199266 
L 121.574653 342.199121 
L 121.576574 342.199109 
L 121.619637 342.198843 
L 121.677162 342.198487 
L 121.854368 342.197391 
L 121.884288 342.197206 
L 121.91377 342.197023 
L 121.927935 342.196936 
L 122.03658 342.196263 
L 122.093281 342.195913 
L 122.121092 342.195741 
L 122.128073 342.195697 
L 122.440703 342.193763 
L 122.57151 342.192954 
L 122.639451 342.192534 
L 122.735957 342.191936 
L 123.292972 342.18849 
L 123.307605 342.1884 
L 123.635866 342.186369 
L 123.793727 342.185392 
L 123.896903 342.184754 
L 123.904715 342.184706 
L 123.960787 342.184359 
L 123.985361 342.184207 
L 124.334641 342.182046 
L 124.650746 342.18009 
L 124.658471 342.180042 
L 124.663299 342.180012 
L 124.705272 342.179753 
L 124.744357 342.179511 
L 124.890738 342.178605 
L 124.943247 342.17828 
L 125.00579 342.177894 
L 125.148189 342.177013 
L 125.235985 342.176469 
L 125.410215 342.175391 
L 125.518681 342.17472 
L 125.806212 342.172942 
L 125.882941 342.172467 
L 126.111442 342.171053 
L 126.182691 342.170612 
L 126.214462 342.170416 
L 126.223578 342.170359 
L 126.301501 342.169877 
L 126.318516 342.169772 
L 126.380877 342.169386 
L 126.490319 342.168709 
L 126.505265 342.168617 
L 127.242313 342.164057 
L 127.453745 342.162749 
L 127.558772 342.162099 
L 127.789201 342.160673 
L 127.93919 342.159745 
L 129.037195 342.152952 
L 129.186038 342.152031 
L 129.352719 342.151 
L 129.40102 342.150701 
L 129.495951 342.150114 
L 129.63925 342.149227 
L 129.663099 342.14908 
L 131.596181 342.13712 
L 131.823638 342.135713 
L 132.119432 342.133883 
L 138.941782 342.091675 
L 138.958749 342.09157 
L 138.999961 342.091315 
L 139.010309 342.091251 
L 139.0437 342.091044 
L 139.108678 342.090642 
L 139.174979 342.090232 
L 144.278868 342.058655 
L 144.291737 342.058576 
L 144.474054 342.057448 
L 144.477214 342.057428 
L 144.513122 342.057206 
L 144.52445 342.057136 
L 144.633024 342.056464 
L 145.30964 342.052278 
L 145.815426 342.049149 
L 146.187841 342.046845 
L 146.755885 342.043331 
L 147.077657 342.04134 
L 147.204315 342.040556 
L 147.647462 342.037815 
L 148.14568 342.034732 
L 148.310701 342.033711 
L 148.4461 342.032874 
L 148.770418 342.030867 
L 148.90678 342.030024 
L 149.269632 342.027779 
L 149.443234 342.026705 
L 149.450879 342.026657 
L 149.997137 342.023278 
L 150.52601 342.020006 
L 150.808387 342.018259 
L 152.675104 342.00671 
L 153.87282 341.9993 
L 154.414444 341.995949 
L 154.779424 341.993691 
L 155.33017 341.990284 
L 155.815911 341.987278 
L 157.054812 341.979614 
L 157.065567 341.979547 
L 157.090513 341.979393 
L 157.26028 341.978342 
L 157.265508 341.97831 
L 157.496594 341.97688 
L 157.677938 341.975758 
L 162.682175 341.944798 
L 162.85194 341.943748 
L 162.927238 341.943282 
L 163.164888 341.941812 
L 163.390782 341.940414 
L 164.017842 341.936535 
L 164.511251 341.933482 
L 185.187335 341.805564 
L 185.545059 341.803351 
L 186.018126 341.800424 
L 186.339493 341.798436 
L 186.527755 341.797271 
L 186.589145 341.796891 
L 186.606812 341.796782 
L 186.644215 341.796551 
L 186.787485 341.795664 
L 187.170702 341.793293 
L 187.259468 341.792744 
L 187.91986 341.788659 
L 188.128857 341.787366 
L 188.145501 341.787263 
L 188.372159 341.78586 
L 188.459081 341.785323 
L 188.732986 341.783628 
L 188.739142 341.78359 
L 189.35001 341.779811 
L 189.451018 341.779186 
L 190.213558 341.774468 
L 190.874781 341.770377 
L 191.50299 341.766491 
L 192.075667 341.762948 
L 192.783294 341.75857 
L 193.056172 341.756881 
L 193.920631 341.751533 
L 194.627073 341.747163 
L 203.356726 341.693154 
L 203.542542 341.692005 
L 203.671806 341.691205 
L 203.686564 341.691114 
L 204.488386 341.686153 
L 205.449357 341.680208 
L 205.569694 341.679463 
L 206.04175 341.676543 
L 206.090177 341.676243 
L 206.450357 341.674015 
L 206.511568 341.673636 
L 207.064882 341.670213 
L 208.960128 341.658487 
L 211.128772 341.64507 
L 211.478438 341.642907 
L 211.533562 341.642566 
L 211.74985 341.641228 
L 211.850547 341.640605 
L 212.223547 341.638297 
L 212.476746 341.636731 
L 213.256176 341.631909 
L 226.172507 341.551998 
L 226.262537 341.551441 
L 226.454872 341.550251 
L 226.930011 341.547312 
L 227.60565 341.543132 
L 228.298988 341.538842 
L 229.227238 341.533099 
L 236.557204 341.48775 
L 236.5575 341.487749 
L 236.683107 341.486971 
L 236.988703 341.485081 
L 240.994845 341.460296 
L 241.828798 341.455136 
L 242.812166 341.449052 
L 243.763281 341.443168 
L 244.622081 341.437855 
L 245.609891 341.431744 
L 246.747445 341.424706 
L 272.406619 341.265958 
L 273.581336 341.258691 
L 275.072548 341.249465 
L 276.567027 341.240219 
L 281.518262 341.209587 
L 281.793735 341.207882 
L 281.884858 341.207319 
L 283.175042 341.199337 
L 284.35478 341.192038 
L 284.980182 341.188169 
L 327.435861 340.925505 
L 328.811344 340.916995 
L 329.590776 340.912173 
L 330.331954 340.907587 
L 331.510845 340.900294 
L 332.006359 340.897228 
L 333.113404 340.890379 
L 338.519383 340.856934 
L 345.201396 340.815594 
L 352.245938 340.772011 
L 358.667761 340.73228 
L 368.625233 340.670676 
L 380.125119 340.599529 
L 393.477777 340.516919 
L 497.536337 339.873132 
L 499.467862 339.861182 
L 506.867743 339.815401 
L 507.709072 339.810196 
L 508.674834 339.804221 
L 509.270518 339.800535 
L 510.565441 339.792524 
L 510.565441 -19.123425 
L 510.565441 -19.123425 
L 509.270518 -18.364343 
L 508.674834 -18.015154 
L 507.709072 -17.449026 
L 506.867743 -16.955841 
L 499.467862 -12.618046 
L 497.536337 -11.48579 
L 393.477777 49.513121 
L 380.125119 57.34042 
L 368.625233 64.08163 
L 358.667761 69.918679 
L 352.245938 73.683138 
L 345.201396 77.812634 
L 338.519383 81.729617 
L 333.113404 84.89859 
L 332.006359 85.547538 
L 331.510845 85.838006 
L 330.331954 86.52907 
L 329.590776 86.963547 
L 328.811344 87.420449 
L 327.435861 88.226754 
L 284.980182 113.114184 
L 284.35478 113.480794 
L 283.175042 114.172354 
L 281.884858 114.928657 
L 281.793735 114.982073 
L 281.518262 115.143555 
L 276.567027 118.045959 
L 275.072548 118.922019 
L 273.581336 119.796164 
L 272.406619 120.484781 
L 246.747445 135.526135 
L 245.609891 136.192967 
L 244.622081 136.772019 
L 243.763281 137.275446 
L 242.812166 137.832988 
L 241.828798 138.409435 
L 240.994845 138.898297 
L 236.988703 141.246689 
L 236.683107 141.425829 
L 236.5575 141.49946 
L 236.557204 141.499633 
L 229.227238 145.796444 
L 228.298988 146.340582 
L 227.60565 146.747015 
L 226.930011 147.143073 
L 226.454872 147.421599 
L 226.262537 147.534345 
L 226.172507 147.587121 
L 213.256176 155.158647 
L 212.476746 155.615547 
L 212.223547 155.763972 
L 211.850547 155.982624 
L 211.74985 156.041652 
L 211.533562 156.16844 
L 211.478438 156.200754 
L 211.128772 156.405727 
L 208.960128 157.676981 
L 207.064882 158.787971 
L 206.511568 159.112322 
L 206.450357 159.148204 
L 206.090177 159.359341 
L 206.04175 159.387729 
L 205.569694 159.664447 
L 205.449357 159.734988 
L 204.488386 160.298308 
L 203.686564 160.768334 
L 203.671806 160.776985 
L 203.542542 160.852759 
L 203.356726 160.961684 
L 194.627073 166.078988 
L 193.920631 166.493103 
L 193.056172 166.999847 
L 192.783294 167.159808 
L 192.075667 167.574618 
L 191.50299 167.91032 
L 190.874781 168.278574 
L 190.213558 168.666182 
L 189.451018 169.113181 
L 189.35001 169.172392 
L 188.739142 169.530481 
L 188.732986 169.53409 
L 188.459081 169.694653 
L 188.372159 169.745606 
L 188.145501 169.878473 
L 188.128857 169.88823 
L 187.91986 170.010743 
L 187.259468 170.397863 
L 187.170702 170.449898 
L 186.787485 170.674539 
L 186.644215 170.758523 
L 186.606812 170.780449 
L 186.589145 170.790805 
L 186.527755 170.826792 
L 186.339493 170.937151 
L 186.018126 171.125536 
L 185.545059 171.402846 
L 185.187335 171.612544 
L 164.511251 183.732821 
L 164.017842 184.022056 
L 163.390782 184.389637 
L 163.164888 184.522056 
L 162.927238 184.661366 
L 162.85194 184.705505 
L 162.682175 184.805021 
L 157.677938 187.738494 
L 157.496594 187.844798 
L 157.265508 187.98026 
L 157.26028 187.983325 
L 157.090513 188.082842 
L 157.065567 188.097465 
L 157.054812 188.10377 
L 155.815911 188.830011 
L 155.33017 189.114751 
L 154.779424 189.437597 
L 154.414444 189.651548 
L 153.87282 189.969047 
L 152.675104 190.671145 
L 150.808387 191.765411 
L 150.52601 191.93094 
L 149.997137 192.240964 
L 149.450879 192.561179 
L 149.443234 192.565661 
L 149.269632 192.667426 
L 148.90678 192.880129 
L 148.770418 192.960064 
L 148.4461 193.150179 
L 148.310701 193.22955 
L 148.14568 193.326284 
L 147.647462 193.618338 
L 147.204315 193.878111 
L 147.077657 193.952357 
L 146.755885 194.140979 
L 146.187841 194.473965 
L 145.815426 194.692274 
L 145.30964 194.988765 
L 144.633024 195.385396 
L 144.52445 195.449042 
L 144.513122 195.455682 
L 144.477214 195.476732 
L 144.474054 195.478584 
L 144.291737 195.585458 
L 144.278868 195.593001 
L 139.174979 198.584891 
L 139.108678 198.623756 
L 139.0437 198.661846 
L 139.010309 198.68142 
L 138.999961 198.687486 
L 138.958749 198.711644 
L 138.941782 198.72159 
L 132.119432 202.720837 
L 131.823638 202.894231 
L 131.596181 203.027566 
L 129.663099 204.160735 
L 129.63925 204.174715 
L 129.495951 204.258717 
L 129.40102 204.314365 
L 129.352719 204.342679 
L 129.186038 204.440387 
L 129.037195 204.527638 
L 127.93919 205.171286 
L 127.789201 205.25921 
L 127.558772 205.394287 
L 127.453745 205.455853 
L 127.242313 205.579794 
L 126.505265 206.011851 
L 126.490319 206.020612 
L 126.380877 206.084766 
L 126.318516 206.121322 
L 126.301501 206.131297 
L 126.223578 206.176975 
L 126.214462 206.182319 
L 126.182691 206.200943 
L 126.111442 206.242709 
L 125.882941 206.376656 
L 125.806212 206.421634 
L 125.518681 206.590184 
L 125.410215 206.653766 
L 125.235985 206.7559 
L 125.148189 206.807366 
L 125.00579 206.890839 
L 124.943247 206.927502 
L 124.890738 206.958283 
L 124.744357 207.044091 
L 124.705272 207.067003 
L 124.663299 207.091607 
L 124.658471 207.094437 
L 124.650746 207.098966 
L 124.334641 207.284266 
L 123.985361 207.489013 
L 123.960787 207.503418 
L 123.904715 207.536288 
L 123.896903 207.540867 
L 123.793727 207.601349 
L 123.635866 207.693886 
L 123.307605 207.886312 
L 123.292972 207.89489 
L 122.735957 208.221411 
L 122.639451 208.277983 
L 122.57151 208.31781 
L 122.440703 208.394488 
L 122.128073 208.577751 
L 122.121092 208.581843 
L 122.093281 208.598146 
L 122.03658 208.631384 
L 121.927935 208.695072 
L 121.91377 208.703375 
L 121.884288 208.720657 
L 121.854368 208.738197 
L 121.677162 208.842074 
L 121.619637 208.875795 
L 121.576574 208.901039 
L 121.574653 208.902165 
L 121.55128 208.915866 
L 121.51574 208.936699 
L 121.507202 208.941704 
L 120.741676 209.390454 
L 120.061399 209.789231 
L 120.02359 209.811395 
L 119.973049 209.841022 
L 119.968911 209.843447 
L 119.918135 209.873212 
L 119.686445 210.009029 
L 119.297348 210.237116 
L 119.275748 210.249778 
L 119.134723 210.332447 
L 117.905133 211.05323 
L 117.728902 211.156536 
L 117.586385 211.240079 
L 117.44961 211.320257 
L 117.356765 211.374682 
L 117.206009 211.463055 
L 117.138729 211.502494 
L 116.998057 211.584956 
L 116.888736 211.64904 
L 116.077733 212.124448 
L 116.000413 212.169773 
L 115.96686 212.189441 
L 115.917601 212.218317 
L 115.908073 212.223902 
L 115.90438 212.226067 
L 115.667644 212.364841 
L 115.632503 212.385441 
L 115.055563 212.723642 
L 114.433819 213.088107 
L 114.403244 213.10603 
L 114.26498 213.18708 
L 114.250795 213.195395 
L 114.159797 213.248738 
L 113.895143 213.403878 
L 113.505939 213.632028 
L 112.952131 213.956669 
L 112.947671 213.959284 
L 112.668017 214.123216 
L 112.422219 214.267303 
L 112.191655 214.402459 
L 112.080041 214.467886 
L 111.860575 214.596537 
L 111.777306 214.645349 
L 111.732398 214.671675 
L 111.635198 214.728653 
L 111.605038 214.746333 
L 111.577968 214.762201 
L 111.41405 214.858289 
L 111.405056 214.863561 
L 111.203201 214.981889 
L 111.193436 214.987613 
L 111.173007 214.999588 
L 111.029276 215.083843 
L 110.974282 215.11608 
L 110.904718 215.156858 
L 110.894674 215.162747 
L 110.857386 215.184605 
L 110.838029 215.195952 
L 110.784552 215.2273 
L 110.757437 215.243194 
L 110.73602 215.255749 
L 110.729385 215.259638 
L 110.717265 215.266743 
L 110.657135 215.301991 
L 110.545425 215.367476 
L 110.530819 215.376038 
L 110.522132 215.38113 
L 110.385731 215.461088 
L 110.383982 215.462113 
L 110.165996 215.589896 
L 110.100245 215.628439 
L 109.93538 215.725083 
L 109.9353 215.725129 
L 109.874945 215.76051 
L 109.660684 215.886109 
L 109.55379 215.94877 
L 109.413534 216.030988 
L 109.20524 216.153089 
L 109.017377 216.263214 
L 108.942065 216.307362 
L 108.171204 216.759239 
L 107.438891 217.188519 
L 107.325858 217.254779 
L 107.264892 217.290517 
L 107.204002 217.326211 
L 107.192433 217.332992 
L 107.077991 217.400078 
L 107.034317 217.425679 
L 107.007327 217.441501 
L 107.006966 217.441713 
L 106.92425 217.4902 
L 106.921273 217.491946 
L 106.745442 217.595018 
L 105.425591 218.368712 
L 105.242031 218.476314 
L 105.128337 218.542961 
L 105.10564 218.556266 
L 104.992476 218.622603 
L 104.972788 218.634144 
L 104.739034 218.771169 
L 104.535581 218.890433 
L 104.264647 219.049254 
L 103.628084 219.422406 
L 103.383961 219.565511 
L 102.824119 219.893689 
L 102.605579 220.021797 
L 102.557949 220.049717 
L 102.406319 220.138603 
L 102.382197 220.152743 
L 102.208056 220.254824 
L 102.173132 220.275296 
L 101.959266 220.400664 
L 101.911256 220.428807 
L 101.700983 220.552069 
L 101.481394 220.680792 
L 101.322956 220.773667 
L 101.084251 220.913596 
L 101.039577 220.939784 
L 100.207615 221.427478 
L 100.096771 221.492454 
L 100.085796 221.498888 
L 98.52468 222.414011 
L 98.276531 222.559476 
L 98.07285 222.678873 
L 98.062537 222.684918 
L 98.061405 222.685582 
L 98.028062 222.705127 
L 98.02491 222.706975 
L 98.008479 222.716607 
L 98.007069 222.717434 
L 97.955196 222.747841 
L 97.755004 222.865194 
L 97.701106 222.896788 
L 97.515534 223.00557 
L 97.487758 223.021853 
L 97.311834 223.124979 
L 97.294165 223.135336 
L 97.149675 223.220036 
L 97.077677 223.262241 
L 97.005782 223.304386 
L 96.967279 223.326956 
L 96.948834 223.337769 
L 96.946702 223.339019 
L 96.889523 223.372537 
L 96.850012 223.395698 
L 96.84887 223.396368 
L 96.815975 223.41565 
L 96.800333 223.42482 
L 96.642062 223.517598 
L 96.567112 223.561533 
L 96.418332 223.648748 
L 96.241578 223.752361 
L 96.157751 223.8015 
L 96.119925 223.823674 
L 96.003504 223.891919 
L 96.002317 223.892615 
L 95.896038 223.954915 
L 95.885401 223.961151 
L 95.79185 224.015991 
L 95.789047 224.017633 
L 95.693857 224.073434 
L 95.682135 224.080305 
L 95.669568 224.087672 
L 95.650045 224.099116 
L 95.645161 224.101979 
L 95.637803 224.106292 
L 95.532042 224.168289 
L 95.443287 224.220317 
L 95.371441 224.262433 
L 95.27869 224.316804 
L 95.226852 224.347191 
L 95.202782 224.361301 
L 95.173708 224.378344 
L 95.158301 224.387376 
L 95.128827 224.404653 
L 94.305041 224.887554 
L 94.125666 224.992704 
L 94.053793 225.034836 
L 94.012204 225.059215 
L 93.904443 225.122385 
L 93.877193 225.138359 
L 93.839548 225.160426 
L 93.839422 225.1605 
L 93.785757 225.191958 
L 93.744384 225.216211 
L 93.704943 225.239331 
L 93.676177 225.256194 
L 93.67148 225.258947 
L 93.565204 225.321245 
L 92.76151 225.792369 
L 92.738427 225.8059 
L 92.700907 225.827895 
L 92.641816 225.862534 
L 91.935096 226.276811 
L 91.90951 226.29181 
L 91.88023 226.308974 
L 91.85298 226.324948 
L 91.817438 226.345782 
L 91.790898 226.36134 
L 91.771109 226.372941 
L 91.573261 226.488918 
L 91.396543 226.59251 
L 91.233108 226.688315 
L 91.126861 226.750597 
L 91.054496 226.793017 
L 90.990668 226.830433 
L 90.98124 226.83596 
L 90.943275 226.858215 
L 90.894025 226.887085 
L 90.853505 226.910838 
L 90.83897 226.919358 
L 90.811017 226.935744 
L 90.560145 227.082805 
L 90.488086 227.125046 
L 90.399525 227.17696 
L 90.395927 227.179069 
L 90.372755 227.192653 
L 90.368071 227.195398 
L 90.361991 227.198962 
L 90.275313 227.249773 
L 90.156124 227.319641 
L 90.050426 227.381601 
L 89.945924 227.44286 
L 89.836364 227.507084 
L 89.774294 227.543469 
L 89.732516 227.56796 
L 89.732321 227.568074 
L 89.694856 227.590036 
L 89.39775 227.764198 
L 89.388353 227.769707 
L 89.248313 227.851798 
L 89.166508 227.899752 
L 89.076587 227.952464 
L 88.979083 228.00962 
L 88.86733 228.07513 
L 88.863824 228.077185 
L 88.833985 228.094676 
L 88.769433 228.132516 
L 88.760415 228.137803 
L 88.742743 228.148162 
L 88.738776 228.150488 
L 88.7294 228.155984 
L 88.718492 228.162378 
L 88.703757 228.171016 
L 88.692166 228.17781 
L 88.552685 228.259574 
L 88.449469 228.320079 
L 88.345396 228.381086 
L 88.260944 228.430592 
L 88.222186 228.453312 
L 88.209422 228.460794 
L 88.185621 228.474746 
L 88.169045 228.484462 
L 88.104673 228.522198 
L 88.053719 228.552067 
L 87.99823 228.584594 
L 87.96947 228.601453 
L 87.961788 228.605957 
L 87.761229 228.723524 
L 87.649886 228.788793 
L 87.592786 228.822265 
L 87.477033 228.890119 
L 87.453625 228.90384 
L 86.593968 229.40777 
L 86.473614 229.478321 
L 86.37115 229.538385 
L 86.251664 229.608427 
L 85.16094 230.247808 
L 85.158765 230.249082 
L 85.146763 230.256118 
L 85.13255 230.26445 
L 85.077449 230.29675 
L 85.055647 230.30953 
L 85.012476 230.334837 
L 84.999408 230.342497 
L 84.982727 230.352276 
L 84.970825 230.359252 
L 84.955141 230.368446 
L 84.94655 230.373482 
L 84.929117 230.383702 
L 84.700506 230.517713 
L 84.69671 230.519938 
L 84.683982 230.527399 
L 84.645967 230.549684 
L 84.607468 230.572252 
L 84.547352 230.607492 
L 84.514326 230.626851 
L 84.415065 230.685038 
L 84.353986 230.720842 
L 84.343745 230.726845 
L 84.336417 230.731141 
L 84.31493 230.743737 
L 84.31429 230.744112 
L 84.309222 230.747083 
L 83.172034 231.4137 
L 83.16204 231.419559 
L 83.100221 231.455797 
L 83.08487 231.464796 
L 83.081123 231.466992 
L 83.074125 231.471094 
L 83.027035 231.498698 
L 83.021649 231.501856 
L 82.997073 231.516262 
L 82.988993 231.520998 
L 82.960278 231.537831 
L 82.94051 231.549419 
L 82.938513 231.550589 
L 82.931322 231.554805 
L 82.902443 231.571734 
L 82.895808 231.575623 
L 82.848988 231.603069 
L 82.842191 231.607054 
L 82.791006 231.637058 
L 82.768539 231.650228 
L 82.71914 231.679186 
L 82.664191 231.711396 
L 82.567523 231.768063 
L 82.511668 231.800805 
L 82.49532 231.810388 
L 82.470666 231.824841 
L 82.466085 231.827526 
L 82.449613 231.837182 
L 82.449295 231.837368 
L 82.44885 231.837629 
L 82.430016 231.84867 
L 82.384168 231.875546 
L 82.306269 231.92121 
L 82.270519 231.942166 
L 81.943588 232.133813 
L 81.848962 232.189282 
L 81.76568 232.238102 
L 81.738905 232.253797 
L 81.733807 232.256786 
L 81.715086 232.26776 
L 81.668556 232.295036 
L 81.593262 232.339173 
L 81.588442 232.341998 
L 81.574623 232.350099 
L 81.530018 232.376246 
L 81.525982 232.378612 
L 81.512526 232.3865 
L 81.126696 232.612673 
L 81.103143 232.62648 
L 81.076542 232.642073 
L 81.05382 232.655393 
L 80.324086 233.083161 
L 80.23864 233.13325 
L 80.147491 233.186681 
L 80.05157 233.242909 
L 79.959177 233.29707 
L 79.869152 233.349843 
L 79.786809 233.398112 
L 79.321629 233.6708 
L 79.254784 233.709984 
L 79.170137 233.759604 
L 78.162961 234.350009 
L 78.136259 234.365661 
L 78.126802 234.371205 
L 77.814839 234.554077 
L 77.791967 234.567484 
L 77.76775 234.58168 
L 77.75501 234.589149 
z
" clip-path="url(#p6cc137dbe2)" style="fill-opacity: 0.25"/>
   </g>
   <g id="line2d_46">
    <path d="M 77.75501 288.529686 
L 510.565441 160.33455 
L 510.565441 160.33455 
" clip-path="url(#p6cc137dbe2)" style="fill: none; stroke-dasharray: 11.1,4.8; stroke-dashoffset: 0; stroke: #000000; stroke-width: 3"/>
   </g>
  </g>
  <g id="text_33">
   <!-- Intentional homicide -->
   <g transform="translate(226.385625 17.758125)scale(0.12 -0.12)">
    <defs>
     <path id="DejaVuSans-6f" d="M 1959 3097 
Q 1497 3097 1228 2736 
Q 959 2375 959 1747 
Q 959 1119 1226 758 
Q 1494 397 1959 397 
Q 2419 397 2687 759 
Q 2956 1122 2956 1747 
Q 2956 2369 2687 2733 
Q 2419 3097 1959 3097 
z
M 1959 3584 
Q 2709 3584 3137 3096 
Q 3566 2609 3566 1747 
Q 3566 888 3137 398 
Q 2709 -91 1959 -91 
Q 1206 -91 779 398 
Q 353 888 353 1747 
Q 353 2609 779 3096 
Q 1206 3584 1959 3584 
z
" transform="scale(0.015625)"/>
     <path id="DejaVuSans-61" d="M 2194 1759 
Q 1497 1759 1228 1600 
Q 959 1441 959 1056 
Q 959 750 1161 570 
Q 1363 391 1709 391 
Q 2188 391 2477 730 
Q 2766 1069 2766 1631 
L 2766 1759 
L 2194 1759 
z
M 3341 1997 
L 3341 0 
L 2766 0 
L 2766 531 
Q 2569 213 2275 61 
Q 1981 -91 1556 -91 
Q 1019 -91 701 211 
Q 384 513 384 1019 
Q 384 1609 779 1909 
Q 1175 2209 1959 2209 
L 2766 2209 
L 2766 2266 
Q 2766 2663 2505 2880 
Q 2244 3097 1772 3097 
Q 1472 3097 1187 3025 
Q 903 2953 641 2809 
L 641 3341 
Q 956 3463 1253 3523 
Q 1550 3584 1831 3584 
Q 2591 3584 2966 3190 
Q 3341 2797 3341 1997 
z
" transform="scale(0.015625)"/>
     <path id="DejaVuSans-6c" d="M 603 4863 
L 1178 4863 
L 1178 0 
L 603 0 
L 603 4863 
z
" transform="scale(0.015625)"/>
     <path id="DejaVuSans-20" transform="scale(0.015625)"/>
     <path id="DejaVuSans-68" d="M 3513 2113 
L 3513 0 
L 2938 0 
L 2938 2094 
Q 2938 2591 2744 2837 
Q 2550 3084 2163 3084 
Q 1697 3084 1428 2787 
Q 1159 2491 1159 1978 
L 1159 0 
L 581 0 
L 581 4863 
L 1159 4863 
L 1159 2956 
Q 1366 3272 1645 3428 
Q 1925 3584 2291 3584 
Q 2894 3584 3203 3211 
Q 3513 2838 3513 2113 
z
" transform="scale(0.015625)"/>
    </defs>
    <use xlink:href="#DejaVuSans-49"/>
    <use xlink:href="#DejaVuSans-6e" x="29.492188"/>
    <use xlink:href="#DejaVuSans-74" x="92.871094"/>
    <use xlink:href="#DejaVuSans-65" x="132.080078"/>
    <use xlink:href="#DejaVuSans-6e" x="193.603516"/>
    <use xlink:href="#DejaVuSans-74" x="256.982422"/>
    <use xlink:href="#DejaVuSans-69" x="296.191406"/>
    <use xlink:href="#DejaVuSans-6f" x="323.974609"/>
    <use xlink:href="#DejaVuSans-6e" x="385.15625"/>
    <use xlink:href="#DejaVuSans-61" x="448.535156"/>
    <use xlink:href="#DejaVuSans-6c" x="509.814453"/>
    <use xlink:href="#DejaVuSans-20" x="537.597656"/>
    <use xlink:href="#DejaVuSans-68" x="569.384766"/>
    <use xlink:href="#DejaVuSans-6f" x="632.763672"/>
    <use xlink:href="#DejaVuSans-6d" x="693.945312"/>
    <use xlink:href="#DejaVuSans-69" x="791.357422"/>
    <use xlink:href="#DejaVuSans-63" x="819.140625"/>
    <use xlink:href="#DejaVuSans-69" x="874.121094"/>
    <use xlink:href="#DejaVuSans-64" x="901.904297"/>
    <use xlink:href="#DejaVuSans-65" x="965.380859"/>
   </g>
  </g>
 </g>
 <defs>
  <clipPath id="p6cc137dbe2">
   <rect x="72" y="51.84" width="446.4" height="332.64"/>
  </clipPath>
 </defs>
</svg>
