<?xml version="1.0" encoding="utf-8" standalone="no"?>
<!DOCTYPE svg PUBLIC "-//W3C//DTD SVG 1.1//EN"
  "http://www.w3.org/Graphics/SVG/1.1/DTD/svg11.dtd">
<svg xmlns:xlink="http://www.w3.org/1999/xlink" width="460.8pt" height="345.6pt" viewBox="0 0 460.8 345.6" xmlns="http://www.w3.org/2000/svg" version="1.1">
 <metadata>
  <rdf:RDF xmlns:dc="http://purl.org/dc/elements/1.1/" xmlns:cc="http://creativecommons.org/ns#" xmlns:rdf="http://www.w3.org/1999/02/22-rdf-syntax-ns#">
   <cc:Work>
    <dc:type rdf:resource="http://purl.org/dc/dcmitype/StillImage"/>
    <dc:date>2024-01-29T18:46:58.992202</dc:date>
    <dc:format>image/svg+xml</dc:format>
    <dc:creator>
     <cc:Agent>
      <dc:title>Matplotlib v3.5.1, https://matplotlib.org/</dc:title>
     </cc:Agent>
    </dc:creator>
   </cc:Work>
  </rdf:RDF>
 </metadata>
 <defs>
  <style type="text/css">*{stroke-linejoin: round; stroke-linecap: butt}</style>
 </defs>
 <g id="figure_1">
  <g id="patch_1">
   <path d="M 0 345.6 
L 460.8 345.6 
L 460.8 0 
L 0 0 
L 0 345.6 
z
" style="fill: none"/>
  </g>
  <g id="axes_1">
   <g id="patch_2">
    <path d="M 50.87 303.64 
L 448.659881 303.64 
L 448.659881 10.8 
L 50.87 10.8 
L 50.87 303.64 
z
" style="fill: none"/>
   </g>
   <g id="matplotlib.axis_1">
    <g id="xtick_1">
     <g id="line2d_1">
      <defs>
       <path id="mdec63697fd" d="M 0 0 
L 0 3.5 
" style="stroke: #000000; stroke-width: 0.8"/>
      </defs>
      <g>
       <use xlink:href="#mdec63697fd" x="128.127871" y="303.64" style="stroke: #000000; stroke-width: 0.8"/>
      </g>
     </g>
     <g id="text_1">
      <!-- 50 -->
      <g transform="translate(121.765371 318.238437)scale(0.1 -0.1)">
       <defs>
        <path id="DejaVuSans-35" d="M 691 4666 
L 3169 4666 
L 3169 4134 
L 1269 4134 
L 1269 2991 
Q 1406 3038 1543 3061 
Q 1681 3084 1819 3084 
Q 2600 3084 3056 2656 
Q 3513 2228 3513 1497 
Q 3513 744 3044 326 
Q 2575 -91 1722 -91 
Q 1428 -91 1123 -41 
Q 819 9 494 109 
L 494 744 
Q 775 591 1075 516 
Q 1375 441 1709 441 
Q 2250 441 2565 725 
Q 2881 1009 2881 1497 
Q 2881 1984 2565 2268 
Q 2250 2553 1709 2553 
Q 1456 2553 1204 2497 
Q 953 2441 691 2322 
L 691 4666 
z
" transform="scale(0.015625)"/>
        <path id="DejaVuSans-30" d="M 2034 4250 
Q 1547 4250 1301 3770 
Q 1056 3291 1056 2328 
Q 1056 1369 1301 889 
Q 1547 409 2034 409 
Q 2525 409 2770 889 
Q 3016 1369 3016 2328 
Q 3016 3291 2770 3770 
Q 2525 4250 2034 4250 
z
M 2034 4750 
Q 2819 4750 3233 4129 
Q 3647 3509 3647 2328 
Q 3647 1150 3233 529 
Q 2819 -91 2034 -91 
Q 1250 -91 836 529 
Q 422 1150 422 2328 
Q 422 3509 836 4129 
Q 1250 4750 2034 4750 
z
" transform="scale(0.015625)"/>
       </defs>
       <use xlink:href="#DejaVuSans-35"/>
       <use xlink:href="#DejaVuSans-30" x="63.623047"/>
      </g>
     </g>
    </g>
    <g id="xtick_2">
     <g id="line2d_2">
      <g>
       <use xlink:href="#mdec63697fd" x="206.002509" y="303.64" style="stroke: #000000; stroke-width: 0.8"/>
      </g>
     </g>
     <g id="text_2">
      <!-- 100 -->
      <g transform="translate(196.458759 318.238437)scale(0.1 -0.1)">
       <defs>
        <path id="DejaVuSans-31" d="M 794 531 
L 1825 531 
L 1825 4091 
L 703 3866 
L 703 4441 
L 1819 4666 
L 2450 4666 
L 2450 531 
L 3481 531 
L 3481 0 
L 794 0 
L 794 531 
z
" transform="scale(0.015625)"/>
       </defs>
       <use xlink:href="#DejaVuSans-31"/>
       <use xlink:href="#DejaVuSans-30" x="63.623047"/>
       <use xlink:href="#DejaVuSans-30" x="127.246094"/>
      </g>
     </g>
    </g>
    <g id="xtick_3">
     <g id="line2d_3">
      <g>
       <use xlink:href="#mdec63697fd" x="283.877147" y="303.64" style="stroke: #000000; stroke-width: 0.8"/>
      </g>
     </g>
     <g id="text_3">
      <!-- 150 -->
      <g transform="translate(274.333397 318.238437)scale(0.1 -0.1)">
       <use xlink:href="#DejaVuSans-31"/>
       <use xlink:href="#DejaVuSans-35" x="63.623047"/>
       <use xlink:href="#DejaVuSans-30" x="127.246094"/>
      </g>
     </g>
    </g>
    <g id="xtick_4">
     <g id="line2d_4">
      <g>
       <use xlink:href="#mdec63697fd" x="361.751785" y="303.64" style="stroke: #000000; stroke-width: 0.8"/>
      </g>
     </g>
     <g id="text_4">
      <!-- 200 -->
      <g transform="translate(352.208035 318.238437)scale(0.1 -0.1)">
       <defs>
        <path id="DejaVuSans-32" d="M 1228 531 
L 3431 531 
L 3431 0 
L 469 0 
L 469 531 
Q 828 903 1448 1529 
Q 2069 2156 2228 2338 
Q 2531 2678 2651 2914 
Q 2772 3150 2772 3378 
Q 2772 3750 2511 3984 
Q 2250 4219 1831 4219 
Q 1534 4219 1204 4116 
Q 875 4013 500 3803 
L 500 4441 
Q 881 4594 1212 4672 
Q 1544 4750 1819 4750 
Q 2544 4750 2975 4387 
Q 3406 4025 3406 3419 
Q 3406 3131 3298 2873 
Q 3191 2616 2906 2266 
Q 2828 2175 2409 1742 
Q 1991 1309 1228 531 
z
" transform="scale(0.015625)"/>
       </defs>
       <use xlink:href="#DejaVuSans-32"/>
       <use xlink:href="#DejaVuSans-30" x="63.623047"/>
       <use xlink:href="#DejaVuSans-30" x="127.246094"/>
      </g>
     </g>
    </g>
    <g id="xtick_5">
     <g id="line2d_5">
      <g>
       <use xlink:href="#mdec63697fd" x="439.626423" y="303.64" style="stroke: #000000; stroke-width: 0.8"/>
      </g>
     </g>
     <g id="text_5">
      <!-- 250 -->
      <g transform="translate(430.082673 318.238437)scale(0.1 -0.1)">
       <use xlink:href="#DejaVuSans-32"/>
       <use xlink:href="#DejaVuSans-35" x="63.623047"/>
       <use xlink:href="#DejaVuSans-30" x="127.246094"/>
      </g>
     </g>
    </g>
    <g id="text_6">
     <!-- Unemployment Rate (per 1000 citizens) -->
     <g transform="translate(149.618847 331.916562)scale(0.1 -0.1)">
      <defs>
       <path id="DejaVuSans-55" d="M 556 4666 
L 1191 4666 
L 1191 1831 
Q 1191 1081 1462 751 
Q 1734 422 2344 422 
Q 2950 422 3222 751 
Q 3494 1081 3494 1831 
L 3494 4666 
L 4128 4666 
L 4128 1753 
Q 4128 841 3676 375 
Q 3225 -91 2344 -91 
Q 1459 -91 1007 375 
Q 556 841 556 1753 
L 556 4666 
z
" transform="scale(0.015625)"/>
       <path id="DejaVuSans-6e" d="M 3513 2113 
L 3513 0 
L 2938 0 
L 2938 2094 
Q 2938 2591 2744 2837 
Q 2550 3084 2163 3084 
Q 1697 3084 1428 2787 
Q 1159 2491 1159 1978 
L 1159 0 
L 581 0 
L 581 3500 
L 1159 3500 
L 1159 2956 
Q 1366 3272 1645 3428 
Q 1925 3584 2291 3584 
Q 2894 3584 3203 3211 
Q 3513 2838 3513 2113 
z
" transform="scale(0.015625)"/>
       <path id="DejaVuSans-65" d="M 3597 1894 
L 3597 1613 
L 953 1613 
Q 991 1019 1311 708 
Q 1631 397 2203 397 
Q 2534 397 2845 478 
Q 3156 559 3463 722 
L 3463 178 
Q 3153 47 2828 -22 
Q 2503 -91 2169 -91 
Q 1331 -91 842 396 
Q 353 884 353 1716 
Q 353 2575 817 3079 
Q 1281 3584 2069 3584 
Q 2775 3584 3186 3129 
Q 3597 2675 3597 1894 
z
M 3022 2063 
Q 3016 2534 2758 2815 
Q 2500 3097 2075 3097 
Q 1594 3097 1305 2825 
Q 1016 2553 972 2059 
L 3022 2063 
z
" transform="scale(0.015625)"/>
       <path id="DejaVuSans-6d" d="M 3328 2828 
Q 3544 3216 3844 3400 
Q 4144 3584 4550 3584 
Q 5097 3584 5394 3201 
Q 5691 2819 5691 2113 
L 5691 0 
L 5113 0 
L 5113 2094 
Q 5113 2597 4934 2840 
Q 4756 3084 4391 3084 
Q 3944 3084 3684 2787 
Q 3425 2491 3425 1978 
L 3425 0 
L 2847 0 
L 2847 2094 
Q 2847 2600 2669 2842 
Q 2491 3084 2119 3084 
Q 1678 3084 1418 2786 
Q 1159 2488 1159 1978 
L 1159 0 
L 581 0 
L 581 3500 
L 1159 3500 
L 1159 2956 
Q 1356 3278 1631 3431 
Q 1906 3584 2284 3584 
Q 2666 3584 2933 3390 
Q 3200 3197 3328 2828 
z
" transform="scale(0.015625)"/>
       <path id="DejaVuSans-70" d="M 1159 525 
L 1159 -1331 
L 581 -1331 
L 581 3500 
L 1159 3500 
L 1159 2969 
Q 1341 3281 1617 3432 
Q 1894 3584 2278 3584 
Q 2916 3584 3314 3078 
Q 3713 2572 3713 1747 
Q 3713 922 3314 415 
Q 2916 -91 2278 -91 
Q 1894 -91 1617 61 
Q 1341 213 1159 525 
z
M 3116 1747 
Q 3116 2381 2855 2742 
Q 2594 3103 2138 3103 
Q 1681 3103 1420 2742 
Q 1159 2381 1159 1747 
Q 1159 1113 1420 752 
Q 1681 391 2138 391 
Q 2594 391 2855 752 
Q 3116 1113 3116 1747 
z
" transform="scale(0.015625)"/>
       <path id="DejaVuSans-6c" d="M 603 4863 
L 1178 4863 
L 1178 0 
L 603 0 
L 603 4863 
z
" transform="scale(0.015625)"/>
       <path id="DejaVuSans-6f" d="M 1959 3097 
Q 1497 3097 1228 2736 
Q 959 2375 959 1747 
Q 959 1119 1226 758 
Q 1494 397 1959 397 
Q 2419 397 2687 759 
Q 2956 1122 2956 1747 
Q 2956 2369 2687 2733 
Q 2419 3097 1959 3097 
z
M 1959 3584 
Q 2709 3584 3137 3096 
Q 3566 2609 3566 1747 
Q 3566 888 3137 398 
Q 2709 -91 1959 -91 
Q 1206 -91 779 398 
Q 353 888 353 1747 
Q 353 2609 779 3096 
Q 1206 3584 1959 3584 
z
" transform="scale(0.015625)"/>
       <path id="DejaVuSans-79" d="M 2059 -325 
Q 1816 -950 1584 -1140 
Q 1353 -1331 966 -1331 
L 506 -1331 
L 506 -850 
L 844 -850 
Q 1081 -850 1212 -737 
Q 1344 -625 1503 -206 
L 1606 56 
L 191 3500 
L 800 3500 
L 1894 763 
L 2988 3500 
L 3597 3500 
L 2059 -325 
z
" transform="scale(0.015625)"/>
       <path id="DejaVuSans-74" d="M 1172 4494 
L 1172 3500 
L 2356 3500 
L 2356 3053 
L 1172 3053 
L 1172 1153 
Q 1172 725 1289 603 
Q 1406 481 1766 481 
L 2356 481 
L 2356 0 
L 1766 0 
Q 1100 0 847 248 
Q 594 497 594 1153 
L 594 3053 
L 172 3053 
L 172 3500 
L 594 3500 
L 594 4494 
L 1172 4494 
z
" transform="scale(0.015625)"/>
       <path id="DejaVuSans-20" transform="scale(0.015625)"/>
       <path id="DejaVuSans-52" d="M 2841 2188 
Q 3044 2119 3236 1894 
Q 3428 1669 3622 1275 
L 4263 0 
L 3584 0 
L 2988 1197 
Q 2756 1666 2539 1819 
Q 2322 1972 1947 1972 
L 1259 1972 
L 1259 0 
L 628 0 
L 628 4666 
L 2053 4666 
Q 2853 4666 3247 4331 
Q 3641 3997 3641 3322 
Q 3641 2881 3436 2590 
Q 3231 2300 2841 2188 
z
M 1259 4147 
L 1259 2491 
L 2053 2491 
Q 2509 2491 2742 2702 
Q 2975 2913 2975 3322 
Q 2975 3731 2742 3939 
Q 2509 4147 2053 4147 
L 1259 4147 
z
" transform="scale(0.015625)"/>
       <path id="DejaVuSans-61" d="M 2194 1759 
Q 1497 1759 1228 1600 
Q 959 1441 959 1056 
Q 959 750 1161 570 
Q 1363 391 1709 391 
Q 2188 391 2477 730 
Q 2766 1069 2766 1631 
L 2766 1759 
L 2194 1759 
z
M 3341 1997 
L 3341 0 
L 2766 0 
L 2766 531 
Q 2569 213 2275 61 
Q 1981 -91 1556 -91 
Q 1019 -91 701 211 
Q 384 513 384 1019 
Q 384 1609 779 1909 
Q 1175 2209 1959 2209 
L 2766 2209 
L 2766 2266 
Q 2766 2663 2505 2880 
Q 2244 3097 1772 3097 
Q 1472 3097 1187 3025 
Q 903 2953 641 2809 
L 641 3341 
Q 956 3463 1253 3523 
Q 1550 3584 1831 3584 
Q 2591 3584 2966 3190 
Q 3341 2797 3341 1997 
z
" transform="scale(0.015625)"/>
       <path id="DejaVuSans-28" d="M 1984 4856 
Q 1566 4138 1362 3434 
Q 1159 2731 1159 2009 
Q 1159 1288 1364 580 
Q 1569 -128 1984 -844 
L 1484 -844 
Q 1016 -109 783 600 
Q 550 1309 550 2009 
Q 550 2706 781 3412 
Q 1013 4119 1484 4856 
L 1984 4856 
z
" transform="scale(0.015625)"/>
       <path id="DejaVuSans-72" d="M 2631 2963 
Q 2534 3019 2420 3045 
Q 2306 3072 2169 3072 
Q 1681 3072 1420 2755 
Q 1159 2438 1159 1844 
L 1159 0 
L 581 0 
L 581 3500 
L 1159 3500 
L 1159 2956 
Q 1341 3275 1631 3429 
Q 1922 3584 2338 3584 
Q 2397 3584 2469 3576 
Q 2541 3569 2628 3553 
L 2631 2963 
z
" transform="scale(0.015625)"/>
       <path id="DejaVuSans-63" d="M 3122 3366 
L 3122 2828 
Q 2878 2963 2633 3030 
Q 2388 3097 2138 3097 
Q 1578 3097 1268 2742 
Q 959 2388 959 1747 
Q 959 1106 1268 751 
Q 1578 397 2138 397 
Q 2388 397 2633 464 
Q 2878 531 3122 666 
L 3122 134 
Q 2881 22 2623 -34 
Q 2366 -91 2075 -91 
Q 1284 -91 818 406 
Q 353 903 353 1747 
Q 353 2603 823 3093 
Q 1294 3584 2113 3584 
Q 2378 3584 2631 3529 
Q 2884 3475 3122 3366 
z
" transform="scale(0.015625)"/>
       <path id="DejaVuSans-69" d="M 603 3500 
L 1178 3500 
L 1178 0 
L 603 0 
L 603 3500 
z
M 603 4863 
L 1178 4863 
L 1178 4134 
L 603 4134 
L 603 4863 
z
" transform="scale(0.015625)"/>
       <path id="DejaVuSans-7a" d="M 353 3500 
L 3084 3500 
L 3084 2975 
L 922 459 
L 3084 459 
L 3084 0 
L 275 0 
L 275 525 
L 2438 3041 
L 353 3041 
L 353 3500 
z
" transform="scale(0.015625)"/>
       <path id="DejaVuSans-73" d="M 2834 3397 
L 2834 2853 
Q 2591 2978 2328 3040 
Q 2066 3103 1784 3103 
Q 1356 3103 1142 2972 
Q 928 2841 928 2578 
Q 928 2378 1081 2264 
Q 1234 2150 1697 2047 
L 1894 2003 
Q 2506 1872 2764 1633 
Q 3022 1394 3022 966 
Q 3022 478 2636 193 
Q 2250 -91 1575 -91 
Q 1294 -91 989 -36 
Q 684 19 347 128 
L 347 722 
Q 666 556 975 473 
Q 1284 391 1588 391 
Q 1994 391 2212 530 
Q 2431 669 2431 922 
Q 2431 1156 2273 1281 
Q 2116 1406 1581 1522 
L 1381 1569 
Q 847 1681 609 1914 
Q 372 2147 372 2553 
Q 372 3047 722 3315 
Q 1072 3584 1716 3584 
Q 2034 3584 2315 3537 
Q 2597 3491 2834 3397 
z
" transform="scale(0.015625)"/>
       <path id="DejaVuSans-29" d="M 513 4856 
L 1013 4856 
Q 1481 4119 1714 3412 
Q 1947 2706 1947 2009 
Q 1947 1309 1714 600 
Q 1481 -109 1013 -844 
L 513 -844 
Q 928 -128 1133 580 
Q 1338 1288 1338 2009 
Q 1338 2731 1133 3434 
Q 928 4138 513 4856 
z
" transform="scale(0.015625)"/>
      </defs>
      <use xlink:href="#DejaVuSans-55"/>
      <use xlink:href="#DejaVuSans-6e" x="73.193359"/>
      <use xlink:href="#DejaVuSans-65" x="136.572266"/>
      <use xlink:href="#DejaVuSans-6d" x="198.095703"/>
      <use xlink:href="#DejaVuSans-70" x="295.507812"/>
      <use xlink:href="#DejaVuSans-6c" x="358.984375"/>
      <use xlink:href="#DejaVuSans-6f" x="386.767578"/>
      <use xlink:href="#DejaVuSans-79" x="447.949219"/>
      <use xlink:href="#DejaVuSans-6d" x="507.128906"/>
      <use xlink:href="#DejaVuSans-65" x="604.541016"/>
      <use xlink:href="#DejaVuSans-6e" x="666.064453"/>
      <use xlink:href="#DejaVuSans-74" x="729.443359"/>
      <use xlink:href="#DejaVuSans-20" x="768.652344"/>
      <use xlink:href="#DejaVuSans-52" x="800.439453"/>
      <use xlink:href="#DejaVuSans-61" x="867.671875"/>
      <use xlink:href="#DejaVuSans-74" x="928.951172"/>
      <use xlink:href="#DejaVuSans-65" x="968.160156"/>
      <use xlink:href="#DejaVuSans-20" x="1029.683594"/>
      <use xlink:href="#DejaVuSans-28" x="1061.470703"/>
      <use xlink:href="#DejaVuSans-70" x="1100.484375"/>
      <use xlink:href="#DejaVuSans-65" x="1163.960938"/>
      <use xlink:href="#DejaVuSans-72" x="1225.484375"/>
      <use xlink:href="#DejaVuSans-20" x="1266.597656"/>
      <use xlink:href="#DejaVuSans-31" x="1298.384766"/>
      <use xlink:href="#DejaVuSans-30" x="1362.007812"/>
      <use xlink:href="#DejaVuSans-30" x="1425.630859"/>
      <use xlink:href="#DejaVuSans-30" x="1489.253906"/>
      <use xlink:href="#DejaVuSans-20" x="1552.876953"/>
      <use xlink:href="#DejaVuSans-63" x="1584.664062"/>
      <use xlink:href="#DejaVuSans-69" x="1639.644531"/>
      <use xlink:href="#DejaVuSans-74" x="1667.427734"/>
      <use xlink:href="#DejaVuSans-69" x="1706.636719"/>
      <use xlink:href="#DejaVuSans-7a" x="1734.419922"/>
      <use xlink:href="#DejaVuSans-65" x="1786.910156"/>
      <use xlink:href="#DejaVuSans-6e" x="1848.433594"/>
      <use xlink:href="#DejaVuSans-73" x="1911.8125"/>
      <use xlink:href="#DejaVuSans-29" x="1963.912109"/>
     </g>
    </g>
   </g>
   <g id="matplotlib.axis_2">
    <g id="ytick_1">
     <g id="line2d_6">
      <defs>
       <path id="m6e9881eedf" d="M 0 0 
L -3.5 0 
" style="stroke: #000000; stroke-width: 0.8"/>
      </defs>
      <g>
       <use xlink:href="#m6e9881eedf" x="50.87" y="303.64" style="stroke: #000000; stroke-width: 0.8"/>
      </g>
     </g>
     <g id="text_7">
      <!-- 0 -->
      <g transform="translate(37.5075 307.439219)scale(0.1 -0.1)">
       <use xlink:href="#DejaVuSans-30"/>
      </g>
     </g>
    </g>
    <g id="ytick_2">
     <g id="line2d_7">
      <g>
       <use xlink:href="#m6e9881eedf" x="50.87" y="241.684867" style="stroke: #000000; stroke-width: 0.8"/>
      </g>
     </g>
     <g id="text_8">
      <!-- 50 -->
      <g transform="translate(31.145 245.484086)scale(0.1 -0.1)">
       <use xlink:href="#DejaVuSans-35"/>
       <use xlink:href="#DejaVuSans-30" x="63.623047"/>
      </g>
     </g>
    </g>
    <g id="ytick_3">
     <g id="line2d_8">
      <g>
       <use xlink:href="#m6e9881eedf" x="50.87" y="179.729735" style="stroke: #000000; stroke-width: 0.8"/>
      </g>
     </g>
     <g id="text_9">
      <!-- 100 -->
      <g transform="translate(24.7825 183.528953)scale(0.1 -0.1)">
       <use xlink:href="#DejaVuSans-31"/>
       <use xlink:href="#DejaVuSans-30" x="63.623047"/>
       <use xlink:href="#DejaVuSans-30" x="127.246094"/>
      </g>
     </g>
    </g>
    <g id="ytick_4">
     <g id="line2d_9">
      <g>
       <use xlink:href="#m6e9881eedf" x="50.87" y="117.774602" style="stroke: #000000; stroke-width: 0.8"/>
      </g>
     </g>
     <g id="text_10">
      <!-- 150 -->
      <g transform="translate(24.7825 121.573821)scale(0.1 -0.1)">
       <use xlink:href="#DejaVuSans-31"/>
       <use xlink:href="#DejaVuSans-35" x="63.623047"/>
       <use xlink:href="#DejaVuSans-30" x="127.246094"/>
      </g>
     </g>
    </g>
    <g id="ytick_5">
     <g id="line2d_10">
      <g>
       <use xlink:href="#m6e9881eedf" x="50.87" y="55.819469" style="stroke: #000000; stroke-width: 0.8"/>
      </g>
     </g>
     <g id="text_11">
      <!-- 200 -->
      <g transform="translate(24.7825 59.618688)scale(0.1 -0.1)">
       <use xlink:href="#DejaVuSans-32"/>
       <use xlink:href="#DejaVuSans-30" x="63.623047"/>
       <use xlink:href="#DejaVuSans-30" x="127.246094"/>
      </g>
     </g>
    </g>
    <g id="text_12">
     <!-- Number of Homicides -->
     <g transform="translate(18.702813 211.37625)rotate(-90)scale(0.1 -0.1)">
      <defs>
       <path id="DejaVuSans-4e" d="M 628 4666 
L 1478 4666 
L 3547 763 
L 3547 4666 
L 4159 4666 
L 4159 0 
L 3309 0 
L 1241 3903 
L 1241 0 
L 628 0 
L 628 4666 
z
" transform="scale(0.015625)"/>
       <path id="DejaVuSans-75" d="M 544 1381 
L 544 3500 
L 1119 3500 
L 1119 1403 
Q 1119 906 1312 657 
Q 1506 409 1894 409 
Q 2359 409 2629 706 
Q 2900 1003 2900 1516 
L 2900 3500 
L 3475 3500 
L 3475 0 
L 2900 0 
L 2900 538 
Q 2691 219 2414 64 
Q 2138 -91 1772 -91 
Q 1169 -91 856 284 
Q 544 659 544 1381 
z
M 1991 3584 
L 1991 3584 
z
" transform="scale(0.015625)"/>
       <path id="DejaVuSans-62" d="M 3116 1747 
Q 3116 2381 2855 2742 
Q 2594 3103 2138 3103 
Q 1681 3103 1420 2742 
Q 1159 2381 1159 1747 
Q 1159 1113 1420 752 
Q 1681 391 2138 391 
Q 2594 391 2855 752 
Q 3116 1113 3116 1747 
z
M 1159 2969 
Q 1341 3281 1617 3432 
Q 1894 3584 2278 3584 
Q 2916 3584 3314 3078 
Q 3713 2572 3713 1747 
Q 3713 922 3314 415 
Q 2916 -91 2278 -91 
Q 1894 -91 1617 61 
Q 1341 213 1159 525 
L 1159 0 
L 581 0 
L 581 4863 
L 1159 4863 
L 1159 2969 
z
" transform="scale(0.015625)"/>
       <path id="DejaVuSans-66" d="M 2375 4863 
L 2375 4384 
L 1825 4384 
Q 1516 4384 1395 4259 
Q 1275 4134 1275 3809 
L 1275 3500 
L 2222 3500 
L 2222 3053 
L 1275 3053 
L 1275 0 
L 697 0 
L 697 3053 
L 147 3053 
L 147 3500 
L 697 3500 
L 697 3744 
Q 697 4328 969 4595 
Q 1241 4863 1831 4863 
L 2375 4863 
z
" transform="scale(0.015625)"/>
       <path id="DejaVuSans-48" d="M 628 4666 
L 1259 4666 
L 1259 2753 
L 3553 2753 
L 3553 4666 
L 4184 4666 
L 4184 0 
L 3553 0 
L 3553 2222 
L 1259 2222 
L 1259 0 
L 628 0 
L 628 4666 
z
" transform="scale(0.015625)"/>
       <path id="DejaVuSans-64" d="M 2906 2969 
L 2906 4863 
L 3481 4863 
L 3481 0 
L 2906 0 
L 2906 525 
Q 2725 213 2448 61 
Q 2172 -91 1784 -91 
Q 1150 -91 751 415 
Q 353 922 353 1747 
Q 353 2572 751 3078 
Q 1150 3584 1784 3584 
Q 2172 3584 2448 3432 
Q 2725 3281 2906 2969 
z
M 947 1747 
Q 947 1113 1208 752 
Q 1469 391 1925 391 
Q 2381 391 2643 752 
Q 2906 1113 2906 1747 
Q 2906 2381 2643 2742 
Q 2381 3103 1925 3103 
Q 1469 3103 1208 2742 
Q 947 2381 947 1747 
z
" transform="scale(0.015625)"/>
      </defs>
      <use xlink:href="#DejaVuSans-4e"/>
      <use xlink:href="#DejaVuSans-75" x="74.804688"/>
      <use xlink:href="#DejaVuSans-6d" x="138.183594"/>
      <use xlink:href="#DejaVuSans-62" x="235.595703"/>
      <use xlink:href="#DejaVuSans-65" x="299.072266"/>
      <use xlink:href="#DejaVuSans-72" x="360.595703"/>
      <use xlink:href="#DejaVuSans-20" x="401.708984"/>
      <use xlink:href="#DejaVuSans-6f" x="433.496094"/>
      <use xlink:href="#DejaVuSans-66" x="494.677734"/>
      <use xlink:href="#DejaVuSans-20" x="529.882812"/>
      <use xlink:href="#DejaVuSans-48" x="561.669922"/>
      <use xlink:href="#DejaVuSans-6f" x="636.865234"/>
      <use xlink:href="#DejaVuSans-6d" x="698.046875"/>
      <use xlink:href="#DejaVuSans-69" x="795.458984"/>
      <use xlink:href="#DejaVuSans-63" x="823.242188"/>
      <use xlink:href="#DejaVuSans-69" x="878.222656"/>
      <use xlink:href="#DejaVuSans-64" x="906.005859"/>
      <use xlink:href="#DejaVuSans-65" x="969.482422"/>
      <use xlink:href="#DejaVuSans-73" x="1031.005859"/>
     </g>
    </g>
   </g>
   <g id="line2d_11">
    <path d="M 50.87 122.65596 
L 58.988161 122.637009 
L 67.106322 122.618058 
L 75.224482 122.599107 
L 83.342643 122.580157 
L 91.460804 122.561206 
L 99.578965 122.542255 
L 107.697126 122.523304 
L 115.815287 122.504353 
L 123.933447 122.485402 
L 132.051608 122.466451 
L 140.169769 122.4475 
L 148.28793 122.42855 
L 156.406091 122.409599 
L 164.524252 122.390648 
L 172.642412 122.371697 
L 180.760573 122.352746 
L 188.878734 122.333795 
L 196.996895 122.314844 
L 205.115056 122.295893 
L 213.233217 122.276942 
L 221.351377 122.257992 
L 229.469538 122.239041 
L 237.587699 122.22009 
L 245.70586 122.201139 
L 253.824021 122.182188 
L 261.942182 122.163237 
L 270.060342 122.144286 
L 278.178503 122.125335 
L 286.296664 122.106385 
L 294.414825 122.087434 
L 302.532986 122.068483 
L 310.651147 122.049532 
L 318.769307 122.030581 
L 326.887468 122.01163 
L 335.005629 121.992679 
L 343.12379 121.973728 
L 351.241951 121.954778 
L 359.360112 121.935827 
L 367.478272 121.916876 
L 375.596433 121.897925 
L 383.714594 121.878974 
L 391.832755 121.860023 
L 399.950916 121.841072 
L 408.069077 121.822121 
L 416.187237 121.803171 
L 424.305398 121.78422 
L 432.423559 121.765269 
L 440.54172 121.746318 
L 448.659881 121.727367 
" clip-path="url(#p8d180abb23)" style="fill: none; stroke: #d70000; stroke-width: 1.5; stroke-linecap: square"/>
   </g>
   <g id="line2d_12">
    <path d="M 50.87 20.914229 
L 58.988161 20.897958 
L 67.106322 20.881687 
L 75.224482 20.865417 
L 83.342643 20.849146 
L 91.460804 20.832875 
L 99.578965 20.816605 
L 107.697126 20.800334 
L 115.815287 20.784063 
L 123.933447 20.767793 
L 132.051608 20.751522 
L 140.169769 20.735251 
L 148.28793 20.718981 
L 156.406091 20.70271 
L 164.524252 20.686439 
L 172.642412 20.670169 
L 180.760573 20.653898 
L 188.878734 20.637627 
L 196.996895 20.621357 
L 205.115056 20.605086 
L 213.233217 20.588815 
L 221.351377 20.572545 
L 229.469538 20.556274 
L 237.587699 20.540003 
L 245.70586 20.523733 
L 253.824021 20.507462 
L 261.942182 20.491191 
L 270.060342 20.474921 
L 278.178503 20.45865 
L 286.296664 20.442379 
L 294.414825 20.426109 
L 302.532986 20.409838 
L 310.651147 20.393567 
L 318.769307 20.377297 
L 326.887468 20.361026 
L 335.005629 20.344755 
L 343.12379 20.328485 
L 351.241951 20.312214 
L 359.360112 20.295943 
L 367.478272 20.279673 
L 375.596433 20.263402 
L 383.714594 20.247131 
L 391.832755 20.230861 
L 399.950916 20.21459 
L 408.069077 20.198319 
L 416.187237 20.182049 
L 424.305398 20.165778 
L 432.423559 20.149507 
L 440.54172 20.133237 
L 448.659881 20.116966 
" clip-path="url(#p8d180abb23)" style="fill: none; stroke: #8c3cff; stroke-width: 1.5; stroke-linecap: square"/>
   </g>
   <g id="line2d_13">
    <path d="M 50.87 206.456284 
L 58.988161 206.438853 
L 67.106322 206.421422 
L 75.224482 206.403991 
L 83.342643 206.38656 
L 91.460804 206.369129 
L 99.578965 206.351697 
L 107.697126 206.334266 
L 115.815287 206.316835 
L 123.933447 206.299404 
L 132.051608 206.281973 
L 140.169769 206.264542 
L 148.28793 206.247111 
L 156.406091 206.22968 
L 164.524252 206.212248 
L 172.642412 206.194817 
L 180.760573 206.177386 
L 188.878734 206.159955 
L 196.996895 206.142524 
L 205.115056 206.125093 
L 213.233217 206.107662 
L 221.351377 206.090231 
L 229.469538 206.072799 
L 237.587699 206.055368 
L 245.70586 206.037937 
L 253.824021 206.020506 
L 261.942182 206.003075 
L 270.060342 205.985644 
L 278.178503 205.968213 
L 286.296664 205.950782 
L 294.414825 205.933351 
L 302.532986 205.915919 
L 310.651147 205.898488 
L 318.769307 205.881057 
L 326.887468 205.863626 
L 335.005629 205.846195 
L 343.12379 205.828764 
L 351.241951 205.811333 
L 359.360112 205.793902 
L 367.478272 205.77647 
L 375.596433 205.759039 
L 383.714594 205.741608 
L 391.832755 205.724177 
L 399.950916 205.706746 
L 408.069077 205.689315 
L 416.187237 205.671884 
L 424.305398 205.654453 
L 432.423559 205.637021 
L 440.54172 205.61959 
L 448.659881 205.602159 
" clip-path="url(#p8d180abb23)" style="fill: none; stroke: #028800; stroke-width: 1.5; stroke-linecap: square"/>
   </g>
   <g id="line2d_14">
    <path d="M 50.87 158.696846 
L 58.988161 158.679648 
L 67.106322 158.662451 
L 75.224482 158.645254 
L 83.342643 158.628057 
L 91.460804 158.61086 
L 99.578965 158.593662 
L 107.697126 158.576465 
L 115.815287 158.559268 
L 123.933447 158.542071 
L 132.051608 158.524873 
L 140.169769 158.507676 
L 148.28793 158.490479 
L 156.406091 158.473282 
L 164.524252 158.456084 
L 172.642412 158.438887 
L 180.760573 158.42169 
L 188.878734 158.404493 
L 196.996895 158.387296 
L 205.115056 158.370098 
L 213.233217 158.352901 
L 221.351377 158.335704 
L 229.469538 158.318507 
L 237.587699 158.301309 
L 245.70586 158.284112 
L 253.824021 158.266915 
L 261.942182 158.249718 
L 270.060342 158.232521 
L 278.178503 158.215323 
L 286.296664 158.198126 
L 294.414825 158.180929 
L 302.532986 158.163732 
L 310.651147 158.146534 
L 318.769307 158.129337 
L 326.887468 158.11214 
L 335.005629 158.094943 
L 343.12379 158.077746 
L 351.241951 158.060548 
L 359.360112 158.043351 
L 367.478272 158.026154 
L 375.596433 158.008957 
L 383.714594 157.991759 
L 391.832755 157.974562 
L 399.950916 157.957365 
L 408.069077 157.940168 
L 416.187237 157.922971 
L 424.305398 157.905773 
L 432.423559 157.888576 
L 440.54172 157.871379 
L 448.659881 157.854182 
" clip-path="url(#p8d180abb23)" style="fill: none; stroke: #00acc7; stroke-width: 1.5; stroke-linecap: square"/>
   </g>
   <g id="line2d_15">
    <path d="M 50.87 69.413295 
L 58.988161 69.396102 
L 67.106322 69.378909 
L 75.224482 69.361716 
L 83.342643 69.344523 
L 91.460804 69.327331 
L 99.578965 69.310138 
L 107.697126 69.292945 
L 115.815287 69.275752 
L 123.933447 69.258559 
L 132.051608 69.241366 
L 140.169769 69.224174 
L 148.28793 69.206981 
L 156.406091 69.189788 
L 164.524252 69.172595 
L 172.642412 69.155402 
L 180.760573 69.138209 
L 188.878734 69.121016 
L 196.996895 69.103824 
L 205.115056 69.086631 
L 213.233217 69.069438 
L 221.351377 69.052245 
L 229.469538 69.035052 
L 237.587699 69.017859 
L 245.70586 69.000667 
L 253.824021 68.983474 
L 261.942182 68.966281 
L 270.060342 68.949088 
L 278.178503 68.931895 
L 286.296664 68.914702 
L 294.414825 68.897509 
L 302.532986 68.880317 
L 310.651147 68.863124 
L 318.769307 68.845931 
L 326.887468 68.828738 
L 335.005629 68.811545 
L 343.12379 68.794352 
L 351.241951 68.77716 
L 359.360112 68.759967 
L 367.478272 68.742774 
L 375.596433 68.725581 
L 383.714594 68.708388 
L 391.832755 68.691195 
L 399.950916 68.674002 
L 408.069077 68.65681 
L 416.187237 68.639617 
L 424.305398 68.622424 
L 432.423559 68.605231 
L 440.54172 68.588038 
L 448.659881 68.570845 
" clip-path="url(#p8d180abb23)" style="fill: none; stroke: #ff7fd1; stroke-width: 1.5; stroke-linecap: square"/>
   </g>
   <g id="line2d_16">
    <path d="M 50.87 113.976211 
L 58.988161 113.9585 
L 67.106322 113.940789 
L 75.224482 113.923077 
L 83.342643 113.905366 
L 91.460804 113.887654 
L 99.578965 113.869943 
L 107.697126 113.852231 
L 115.815287 113.83452 
L 123.933447 113.816809 
L 132.051608 113.799097 
L 140.169769 113.781386 
L 148.28793 113.763674 
L 156.406091 113.745963 
L 164.524252 113.728251 
L 172.642412 113.71054 
L 180.760573 113.692829 
L 188.878734 113.675117 
L 196.996895 113.657406 
L 205.115056 113.639694 
L 213.233217 113.621983 
L 221.351377 113.604271 
L 229.469538 113.58656 
L 237.587699 113.568849 
L 245.70586 113.551137 
L 253.824021 113.533426 
L 261.942182 113.515714 
L 270.060342 113.498003 
L 278.178503 113.480291 
L 286.296664 113.46258 
L 294.414825 113.444869 
L 302.532986 113.427157 
L 310.651147 113.409446 
L 318.769307 113.391734 
L 326.887468 113.374023 
L 335.005629 113.356311 
L 343.12379 113.3386 
L 351.241951 113.320889 
L 359.360112 113.303177 
L 367.478272 113.285466 
L 375.596433 113.267754 
L 383.714594 113.250043 
L 391.832755 113.232331 
L 399.950916 113.21462 
L 408.069077 113.196909 
L 416.187237 113.179197 
L 424.305398 113.161486 
L 432.423559 113.143774 
L 440.54172 113.126063 
L 448.659881 113.108351 
" clip-path="url(#p8d180abb23)" style="fill: none; stroke: #6c004f; stroke-width: 1.5; stroke-linecap: square"/>
   </g>
   <g id="line2d_17">
    <path d="M 50.87 195.772557 
L 58.988161 195.75428 
L 67.106322 195.736003 
L 75.224482 195.717726 
L 83.342643 195.699449 
L 91.460804 195.681172 
L 99.578965 195.662895 
L 107.697126 195.644618 
L 115.815287 195.626341 
L 123.933447 195.608064 
L 132.051608 195.589787 
L 140.169769 195.571511 
L 148.28793 195.553234 
L 156.406091 195.534957 
L 164.524252 195.51668 
L 172.642412 195.498403 
L 180.760573 195.480126 
L 188.878734 195.461849 
L 196.996895 195.443572 
L 205.115056 195.425295 
L 213.233217 195.407018 
L 221.351377 195.388741 
L 229.469538 195.370464 
L 237.587699 195.352188 
L 245.70586 195.333911 
L 253.824021 195.315634 
L 261.942182 195.297357 
L 270.060342 195.27908 
L 278.178503 195.260803 
L 286.296664 195.242526 
L 294.414825 195.224249 
L 302.532986 195.205972 
L 310.651147 195.187695 
L 318.769307 195.169418 
L 326.887468 195.151141 
L 335.005629 195.132864 
L 343.12379 195.114588 
L 351.241951 195.096311 
L 359.360112 195.078034 
L 367.478272 195.059757 
L 375.596433 195.04148 
L 383.714594 195.023203 
L 391.832755 195.004926 
L 399.950916 194.986649 
L 408.069077 194.968372 
L 416.187237 194.950095 
L 424.305398 194.931818 
L 432.423559 194.913541 
L 440.54172 194.895264 
L 448.659881 194.876988 
" clip-path="url(#p8d180abb23)" style="fill: none; stroke: #583b00; stroke-width: 1.5; stroke-linecap: square"/>
   </g>
   <g id="line2d_18">
    <path d="M 50.87 161.041938 
L 58.988161 161.023932 
L 67.106322 161.005926 
L 75.224482 160.98792 
L 83.342643 160.969915 
L 91.460804 160.951909 
L 99.578965 160.933903 
L 107.697126 160.915897 
L 115.815287 160.897892 
L 123.933447 160.879886 
L 132.051608 160.86188 
L 140.169769 160.843874 
L 148.28793 160.825868 
L 156.406091 160.807863 
L 164.524252 160.789857 
L 172.642412 160.771851 
L 180.760573 160.753845 
L 188.878734 160.73584 
L 196.996895 160.717834 
L 205.115056 160.699828 
L 213.233217 160.681822 
L 221.351377 160.663817 
L 229.469538 160.645811 
L 237.587699 160.627805 
L 245.70586 160.609799 
L 253.824021 160.591794 
L 261.942182 160.573788 
L 270.060342 160.555782 
L 278.178503 160.537776 
L 286.296664 160.51977 
L 294.414825 160.501765 
L 302.532986 160.483759 
L 310.651147 160.465753 
L 318.769307 160.447747 
L 326.887468 160.429742 
L 335.005629 160.411736 
L 343.12379 160.39373 
L 351.241951 160.375724 
L 359.360112 160.357719 
L 367.478272 160.339713 
L 375.596433 160.321707 
L 383.714594 160.303701 
L 391.832755 160.285695 
L 399.950916 160.26769 
L 408.069077 160.249684 
L 416.187237 160.231678 
L 424.305398 160.213672 
L 432.423559 160.195667 
L 440.54172 160.177661 
L 448.659881 160.159655 
" clip-path="url(#p8d180abb23)" style="fill: none; stroke: #005759; stroke-width: 1.5; stroke-linecap: square"/>
   </g>
   <g id="line2d_19">
    <path d="M 50.87 100.409716 
L 58.988161 100.394224 
L 67.106322 100.378731 
L 75.224482 100.363239 
L 83.342643 100.347747 
L 91.460804 100.332254 
L 99.578965 100.316762 
L 107.697126 100.30127 
L 115.815287 100.285777 
L 123.933447 100.270285 
L 132.051608 100.254793 
L 140.169769 100.2393 
L 148.28793 100.223808 
L 156.406091 100.208316 
L 164.524252 100.192823 
L 172.642412 100.177331 
L 180.760573 100.161839 
L 188.878734 100.146346 
L 196.996895 100.130854 
L 205.115056 100.115362 
L 213.233217 100.099869 
L 221.351377 100.084377 
L 229.469538 100.068885 
L 237.587699 100.053392 
L 245.70586 100.0379 
L 253.824021 100.022407 
L 261.942182 100.006915 
L 270.060342 99.991423 
L 278.178503 99.97593 
L 286.296664 99.960438 
L 294.414825 99.944946 
L 302.532986 99.929453 
L 310.651147 99.913961 
L 318.769307 99.898469 
L 326.887468 99.882976 
L 335.005629 99.867484 
L 343.12379 99.851992 
L 351.241951 99.836499 
L 359.360112 99.821007 
L 367.478272 99.805515 
L 375.596433 99.790022 
L 383.714594 99.77453 
L 391.832755 99.759038 
L 399.950916 99.743545 
L 408.069077 99.728053 
L 416.187237 99.712561 
L 424.305398 99.697068 
L 432.423559 99.681576 
L 440.54172 99.666084 
L 448.659881 99.650591 
" clip-path="url(#p8d180abb23)" style="fill: none; stroke: #0000dd; stroke-width: 1.5; stroke-linecap: square"/>
   </g>
   <g id="line2d_20">
    <path d="M 50.87 197.627174 
L 58.988161 197.609173 
L 67.106322 197.591172 
L 75.224482 197.573171 
L 83.342643 197.55517 
L 91.460804 197.537169 
L 99.578965 197.519167 
L 107.697126 197.501166 
L 115.815287 197.483165 
L 123.933447 197.465164 
L 132.051608 197.447163 
L 140.169769 197.429161 
L 148.28793 197.41116 
L 156.406091 197.393159 
L 164.524252 197.375158 
L 172.642412 197.357157 
L 180.760573 197.339156 
L 188.878734 197.321154 
L 196.996895 197.303153 
L 205.115056 197.285152 
L 213.233217 197.267151 
L 221.351377 197.24915 
L 229.469538 197.231148 
L 237.587699 197.213147 
L 245.70586 197.195146 
L 253.824021 197.177145 
L 261.942182 197.159144 
L 270.060342 197.141143 
L 278.178503 197.123141 
L 286.296664 197.10514 
L 294.414825 197.087139 
L 302.532986 197.069138 
L 310.651147 197.051137 
L 318.769307 197.033135 
L 326.887468 197.015134 
L 335.005629 196.997133 
L 343.12379 196.979132 
L 351.241951 196.961131 
L 359.360112 196.94313 
L 367.478272 196.925128 
L 375.596433 196.907127 
L 383.714594 196.889126 
L 391.832755 196.871125 
L 399.950916 196.853124 
L 408.069077 196.835122 
L 416.187237 196.817121 
L 424.305398 196.79912 
L 432.423559 196.781119 
L 440.54172 196.763118 
L 448.659881 196.745117 
" clip-path="url(#p8d180abb23)" style="fill: none; stroke: #a1756a; stroke-width: 1.5; stroke-linecap: square"/>
   </g>
   <g id="line2d_21">
    <path d="M 50.87 80.740221 
L 58.988161 80.721102 
L 67.106322 80.701983 
L 75.224482 80.682864 
L 83.342643 80.663745 
L 91.460804 80.644626 
L 99.578965 80.625508 
L 107.697126 80.606389 
L 115.815287 80.58727 
L 123.933447 80.568151 
L 132.051608 80.549032 
L 140.169769 80.529913 
L 148.28793 80.510794 
L 156.406091 80.491676 
L 164.524252 80.472557 
L 172.642412 80.453438 
L 180.760573 80.434319 
L 188.878734 80.4152 
L 196.996895 80.396081 
L 205.115056 80.376962 
L 213.233217 80.357843 
L 221.351377 80.338725 
L 229.469538 80.319606 
L 237.587699 80.300487 
L 245.70586 80.281368 
L 253.824021 80.262249 
L 261.942182 80.24313 
L 270.060342 80.224011 
L 278.178503 80.204892 
L 286.296664 80.185774 
L 294.414825 80.166655 
L 302.532986 80.147536 
L 310.651147 80.128417 
L 318.769307 80.109298 
L 326.887468 80.090179 
L 335.005629 80.07106 
L 343.12379 80.051941 
L 351.241951 80.032823 
L 359.360112 80.013704 
L 367.478272 79.994585 
L 375.596433 79.975466 
L 383.714594 79.956347 
L 391.832755 79.937228 
L 399.950916 79.918109 
L 408.069077 79.898991 
L 416.187237 79.879872 
L 424.305398 79.860753 
L 432.423559 79.841634 
L 440.54172 79.822515 
L 448.659881 79.803396 
" clip-path="url(#p8d180abb23)" style="fill: none; stroke: #bcb7ff; stroke-width: 1.5; stroke-linecap: square"/>
   </g>
   <g id="line2d_22">
    <path d="M 50.87 126.914519 
L 58.988161 126.896147 
L 67.106322 126.877775 
L 75.224482 126.859402 
L 83.342643 126.84103 
L 91.460804 126.822657 
L 99.578965 126.804285 
L 107.697126 126.785912 
L 115.815287 126.76754 
L 123.933447 126.749167 
L 132.051608 126.730795 
L 140.169769 126.712422 
L 148.28793 126.69405 
L 156.406091 126.675677 
L 164.524252 126.657305 
L 172.642412 126.638933 
L 180.760573 126.62056 
L 188.878734 126.602188 
L 196.996895 126.583815 
L 205.115056 126.565443 
L 213.233217 126.54707 
L 221.351377 126.528698 
L 229.469538 126.510325 
L 237.587699 126.491953 
L 245.70586 126.47358 
L 253.824021 126.455208 
L 261.942182 126.436835 
L 270.060342 126.418463 
L 278.178503 126.400091 
L 286.296664 126.381718 
L 294.414825 126.363346 
L 302.532986 126.344973 
L 310.651147 126.326601 
L 318.769307 126.308228 
L 326.887468 126.289856 
L 335.005629 126.271483 
L 343.12379 126.253111 
L 351.241951 126.234738 
L 359.360112 126.216366 
L 367.478272 126.197994 
L 375.596433 126.179621 
L 383.714594 126.161249 
L 391.832755 126.142876 
L 399.950916 126.124504 
L 408.069077 126.106131 
L 416.187237 126.087759 
L 424.305398 126.069386 
L 432.423559 126.051014 
L 440.54172 126.032641 
L 448.659881 126.014269 
" clip-path="url(#p8d180abb23)" style="fill: none; stroke: #95b578; stroke-width: 1.5; stroke-linecap: square"/>
   </g>
   <g id="line2d_23">
    <path d="M 50.87 103.163421 
L 58.988161 103.149184 
L 67.106322 103.134948 
L 75.224482 103.120712 
L 83.342643 103.106476 
L 91.460804 103.092239 
L 99.578965 103.078003 
L 107.697126 103.063767 
L 115.815287 103.049531 
L 123.933447 103.035295 
L 132.051608 103.021058 
L 140.169769 103.006822 
L 148.28793 102.992586 
L 156.406091 102.97835 
L 164.524252 102.964113 
L 172.642412 102.949877 
L 180.760573 102.935641 
L 188.878734 102.921405 
L 196.996895 102.907168 
L 205.115056 102.892932 
L 213.233217 102.878696 
L 221.351377 102.86446 
L 229.469538 102.850223 
L 237.587699 102.835987 
L 245.70586 102.821751 
L 253.824021 102.807515 
L 261.942182 102.793278 
L 270.060342 102.779042 
L 278.178503 102.764806 
L 286.296664 102.75057 
L 294.414825 102.736333 
L 302.532986 102.722097 
L 310.651147 102.707861 
L 318.769307 102.693625 
L 326.887468 102.679388 
L 335.005629 102.665152 
L 343.12379 102.650916 
L 351.241951 102.63668 
L 359.360112 102.622444 
L 367.478272 102.608207 
L 375.596433 102.593971 
L 383.714594 102.579735 
L 391.832755 102.565499 
L 399.950916 102.551262 
L 408.069077 102.537026 
L 416.187237 102.52279 
L 424.305398 102.508554 
L 432.423559 102.494317 
L 440.54172 102.480081 
L 448.659881 102.465845 
" clip-path="url(#p8d180abb23)" style="fill: none; stroke: #c004b9; stroke-width: 1.5; stroke-linecap: square"/>
   </g>
   <g id="line2d_24">
    <path d="M 50.87 176.475849 
L 58.988161 176.457486 
L 67.106322 176.439122 
L 75.224482 176.420758 
L 83.342643 176.402394 
L 91.460804 176.38403 
L 99.578965 176.365667 
L 107.697126 176.347303 
L 115.815287 176.328939 
L 123.933447 176.310575 
L 132.051608 176.292212 
L 140.169769 176.273848 
L 148.28793 176.255484 
L 156.406091 176.23712 
L 164.524252 176.218756 
L 172.642412 176.200393 
L 180.760573 176.182029 
L 188.878734 176.163665 
L 196.996895 176.145301 
L 205.115056 176.126937 
L 213.233217 176.108574 
L 221.351377 176.09021 
L 229.469538 176.071846 
L 237.587699 176.053482 
L 245.70586 176.035118 
L 253.824021 176.016755 
L 261.942182 175.998391 
L 270.060342 175.980027 
L 278.178503 175.961663 
L 286.296664 175.9433 
L 294.414825 175.924936 
L 302.532986 175.906572 
L 310.651147 175.888208 
L 318.769307 175.869844 
L 326.887468 175.851481 
L 335.005629 175.833117 
L 343.12379 175.814753 
L 351.241951 175.796389 
L 359.360112 175.778025 
L 367.478272 175.759662 
L 375.596433 175.741298 
L 383.714594 175.722934 
L 391.832755 175.70457 
L 399.950916 175.686206 
L 408.069077 175.667843 
L 416.187237 175.649479 
L 424.305398 175.631115 
L 432.423559 175.612751 
L 440.54172 175.594388 
L 448.659881 175.576024 
" clip-path="url(#p8d180abb23)" style="fill: none; stroke: #0774d8; stroke-width: 1.5; stroke-linecap: square"/>
   </g>
   <g id="line2d_25">
    <path d="M 50.87 127.018325 
L 58.988161 127.000161 
L 67.106322 126.981996 
L 75.224482 126.963832 
L 83.342643 126.945668 
L 91.460804 126.927504 
L 99.578965 126.90934 
L 107.697126 126.891175 
L 115.815287 126.873011 
L 123.933447 126.854847 
L 132.051608 126.836683 
L 140.169769 126.818518 
L 148.28793 126.800354 
L 156.406091 126.78219 
L 164.524252 126.764026 
L 172.642412 126.745861 
L 180.760573 126.727697 
L 188.878734 126.709533 
L 196.996895 126.691369 
L 205.115056 126.673204 
L 213.233217 126.65504 
L 221.351377 126.636876 
L 229.469538 126.618712 
L 237.587699 126.600548 
L 245.70586 126.582383 
L 253.824021 126.564219 
L 261.942182 126.546055 
L 270.060342 126.527891 
L 278.178503 126.509726 
L 286.296664 126.491562 
L 294.414825 126.473398 
L 302.532986 126.455234 
L 310.651147 126.437069 
L 318.769307 126.418905 
L 326.887468 126.400741 
L 335.005629 126.382577 
L 343.12379 126.364412 
L 351.241951 126.346248 
L 359.360112 126.328084 
L 367.478272 126.30992 
L 375.596433 126.291756 
L 383.714594 126.273591 
L 391.832755 126.255427 
L 399.950916 126.237263 
L 408.069077 126.219099 
L 416.187237 126.200934 
L 424.305398 126.18277 
L 432.423559 126.164606 
L 440.54172 126.146442 
L 448.659881 126.128277 
" clip-path="url(#p8d180abb23)" style="fill: none; stroke: #8f7a00; stroke-width: 1.5; stroke-linecap: square"/>
   </g>
   <g id="line2d_26">
    <path d="M 50.87 152.47276 
L 58.988161 152.455187 
L 67.106322 152.437613 
L 75.224482 152.42004 
L 83.342643 152.402466 
L 91.460804 152.384893 
L 99.578965 152.367319 
L 107.697126 152.349746 
L 115.815287 152.332172 
L 123.933447 152.314599 
L 132.051608 152.297025 
L 140.169769 152.279452 
L 148.28793 152.261878 
L 156.406091 152.244305 
L 164.524252 152.226731 
L 172.642412 152.209158 
L 180.760573 152.191584 
L 188.878734 152.174011 
L 196.996895 152.156437 
L 205.115056 152.138864 
L 213.233217 152.12129 
L 221.351377 152.103717 
L 229.469538 152.086143 
L 237.587699 152.06857 
L 245.70586 152.050996 
L 253.824021 152.033423 
L 261.942182 152.015849 
L 270.060342 151.998276 
L 278.178503 151.980702 
L 286.296664 151.963129 
L 294.414825 151.945555 
L 302.532986 151.927982 
L 310.651147 151.910408 
L 318.769307 151.892835 
L 326.887468 151.875261 
L 335.005629 151.857688 
L 343.12379 151.840114 
L 351.241951 151.822541 
L 359.360112 151.804967 
L 367.478272 151.787394 
L 375.596433 151.76982 
L 383.714594 151.752247 
L 391.832755 151.734673 
L 399.950916 151.7171 
L 408.069077 151.699526 
L 416.187237 151.681953 
L 424.305398 151.664379 
L 432.423559 151.646806 
L 440.54172 151.629232 
L 448.659881 151.611659 
" clip-path="url(#p8d180abb23)" style="fill: none; stroke: #ff7266; stroke-width: 1.5; stroke-linecap: square"/>
   </g>
   <g id="line2d_27">
    <path d="M 50.87 175.473432 
L 58.988161 175.455002 
L 67.106322 175.436572 
L 75.224482 175.418142 
L 83.342643 175.399711 
L 91.460804 175.381281 
L 99.578965 175.362851 
L 107.697126 175.344421 
L 115.815287 175.325991 
L 123.933447 175.30756 
L 132.051608 175.28913 
L 140.169769 175.2707 
L 148.28793 175.25227 
L 156.406091 175.233839 
L 164.524252 175.215409 
L 172.642412 175.196979 
L 180.760573 175.178549 
L 188.878734 175.160119 
L 196.996895 175.141688 
L 205.115056 175.123258 
L 213.233217 175.104828 
L 221.351377 175.086398 
L 229.469538 175.067967 
L 237.587699 175.049537 
L 245.70586 175.031107 
L 253.824021 175.012677 
L 261.942182 174.994247 
L 270.060342 174.975816 
L 278.178503 174.957386 
L 286.296664 174.938956 
L 294.414825 174.920526 
L 302.532986 174.902095 
L 310.651147 174.883665 
L 318.769307 174.865235 
L 326.887468 174.846805 
L 335.005629 174.828375 
L 343.12379 174.809944 
L 351.241951 174.791514 
L 359.360112 174.773084 
L 367.478272 174.754654 
L 375.596433 174.736223 
L 383.714594 174.717793 
L 391.832755 174.699363 
L 399.950916 174.680933 
L 408.069077 174.662503 
L 416.187237 174.644072 
L 424.305398 174.625642 
L 432.423559 174.607212 
L 440.54172 174.588782 
L 448.659881 174.570351 
" clip-path="url(#p8d180abb23)" style="fill: none; stroke: #5e7e66; stroke-width: 1.5; stroke-linecap: square"/>
   </g>
   <g id="line2d_28">
    <path d="M 50.87 160.43162 
L 58.988161 160.413827 
L 67.106322 160.396033 
L 75.224482 160.378239 
L 83.342643 160.360445 
L 91.460804 160.342651 
L 99.578965 160.324857 
L 107.697126 160.307064 
L 115.815287 160.28927 
L 123.933447 160.271476 
L 132.051608 160.253682 
L 140.169769 160.235888 
L 148.28793 160.218095 
L 156.406091 160.200301 
L 164.524252 160.182507 
L 172.642412 160.164713 
L 180.760573 160.146919 
L 188.878734 160.129126 
L 196.996895 160.111332 
L 205.115056 160.093538 
L 213.233217 160.075744 
L 221.351377 160.05795 
L 229.469538 160.040156 
L 237.587699 160.022363 
L 245.70586 160.004569 
L 253.824021 159.986775 
L 261.942182 159.968981 
L 270.060342 159.951187 
L 278.178503 159.933394 
L 286.296664 159.9156 
L 294.414825 159.897806 
L 302.532986 159.880012 
L 310.651147 159.862218 
L 318.769307 159.844425 
L 326.887468 159.826631 
L 335.005629 159.808837 
L 343.12379 159.791043 
L 351.241951 159.773249 
L 359.360112 159.755455 
L 367.478272 159.737662 
L 375.596433 159.719868 
L 383.714594 159.702074 
L 391.832755 159.68428 
L 399.950916 159.666486 
L 408.069077 159.648693 
L 416.187237 159.630899 
L 424.305398 159.613105 
L 432.423559 159.595311 
L 440.54172 159.577517 
L 448.659881 159.559724 
" clip-path="url(#p8d180abb23)" style="fill: none; stroke: #9be4ff; stroke-width: 1.5; stroke-linecap: square"/>
   </g>
   <g id="patch_3">
    <path d="M 50.87 303.64 
L 50.87 10.8 
" style="fill: none; stroke: #000000; stroke-width: 0.8; stroke-linejoin: miter; stroke-linecap: square"/>
   </g>
   <g id="patch_4">
    <path d="M 448.659881 303.64 
L 448.659881 10.8 
" style="fill: none; stroke: #000000; stroke-width: 0.8; stroke-linejoin: miter; stroke-linecap: square"/>
   </g>
   <g id="patch_5">
    <path d="M 50.87 303.64 
L 448.659881 303.64 
" style="fill: none; stroke: #000000; stroke-width: 0.8; stroke-linejoin: miter; stroke-linecap: square"/>
   </g>
   <g id="patch_6">
    <path d="M 50.87 10.8 
L 448.659881 10.8 
" style="fill: none; stroke: #000000; stroke-width: 0.8; stroke-linejoin: miter; stroke-linecap: square"/>
   </g>
   <g id="legend_1">
    <g id="patch_7">
     <path d="M 57.87 298.64 
L 167.143438 298.64 
Q 169.143438 298.64 169.143438 296.64 
L 169.143438 165.536875 
Q 169.143438 163.536875 167.143438 163.536875 
L 57.87 163.536875 
Q 55.87 163.536875 55.87 165.536875 
L 55.87 296.64 
Q 55.87 298.64 57.87 298.64 
z
" style="fill: #ffffff; opacity: 0.8; stroke: #cccccc; stroke-linejoin: miter"/>
    </g>
    <g id="line2d_29">
     <path d="M 59.87 171.635312 
L 69.87 171.635312 
L 79.87 171.635312 
" style="fill: none; stroke: #d70000; stroke-width: 1.5; stroke-linecap: square"/>
    </g>
    <g id="text_13">
     <!-- AT -->
     <g transform="translate(87.87 175.135312)scale(0.1 -0.1)">
      <defs>
       <path id="DejaVuSans-41" d="M 2188 4044 
L 1331 1722 
L 3047 1722 
L 2188 4044 
z
M 1831 4666 
L 2547 4666 
L 4325 0 
L 3669 0 
L 3244 1197 
L 1141 1197 
L 716 0 
L 50 0 
L 1831 4666 
z
" transform="scale(0.015625)"/>
       <path id="DejaVuSans-54" d="M -19 4666 
L 3928 4666 
L 3928 4134 
L 2272 4134 
L 2272 0 
L 1638 0 
L 1638 4134 
L -19 4134 
L -19 4666 
z
" transform="scale(0.015625)"/>
      </defs>
      <use xlink:href="#DejaVuSans-41"/>
      <use xlink:href="#DejaVuSans-54" x="60.658203"/>
     </g>
    </g>
    <g id="line2d_30">
     <path d="M 59.87 186.313438 
L 69.87 186.313438 
L 79.87 186.313438 
" style="fill: none; stroke: #8c3cff; stroke-width: 1.5; stroke-linecap: square"/>
    </g>
    <g id="text_14">
     <!-- BE -->
     <g transform="translate(87.87 189.813438)scale(0.1 -0.1)">
      <defs>
       <path id="DejaVuSans-42" d="M 1259 2228 
L 1259 519 
L 2272 519 
Q 2781 519 3026 730 
Q 3272 941 3272 1375 
Q 3272 1813 3026 2020 
Q 2781 2228 2272 2228 
L 1259 2228 
z
M 1259 4147 
L 1259 2741 
L 2194 2741 
Q 2656 2741 2882 2914 
Q 3109 3088 3109 3444 
Q 3109 3797 2882 3972 
Q 2656 4147 2194 4147 
L 1259 4147 
z
M 628 4666 
L 2241 4666 
Q 2963 4666 3353 4366 
Q 3744 4066 3744 3513 
Q 3744 3084 3544 2831 
Q 3344 2578 2956 2516 
Q 3422 2416 3680 2098 
Q 3938 1781 3938 1306 
Q 3938 681 3513 340 
Q 3088 0 2303 0 
L 628 0 
L 628 4666 
z
" transform="scale(0.015625)"/>
       <path id="DejaVuSans-45" d="M 628 4666 
L 3578 4666 
L 3578 4134 
L 1259 4134 
L 1259 2753 
L 3481 2753 
L 3481 2222 
L 1259 2222 
L 1259 531 
L 3634 531 
L 3634 0 
L 628 0 
L 628 4666 
z
" transform="scale(0.015625)"/>
      </defs>
      <use xlink:href="#DejaVuSans-42"/>
      <use xlink:href="#DejaVuSans-45" x="68.603516"/>
     </g>
    </g>
    <g id="line2d_31">
     <path d="M 59.87 200.991562 
L 69.87 200.991562 
L 79.87 200.991562 
" style="fill: none; stroke: #028800; stroke-width: 1.5; stroke-linecap: square"/>
    </g>
    <g id="text_15">
     <!-- BG -->
     <g transform="translate(87.87 204.491562)scale(0.1 -0.1)">
      <defs>
       <path id="DejaVuSans-47" d="M 3809 666 
L 3809 1919 
L 2778 1919 
L 2778 2438 
L 4434 2438 
L 4434 434 
Q 4069 175 3628 42 
Q 3188 -91 2688 -91 
Q 1594 -91 976 548 
Q 359 1188 359 2328 
Q 359 3472 976 4111 
Q 1594 4750 2688 4750 
Q 3144 4750 3555 4637 
Q 3966 4525 4313 4306 
L 4313 3634 
Q 3963 3931 3569 4081 
Q 3175 4231 2741 4231 
Q 1884 4231 1454 3753 
Q 1025 3275 1025 2328 
Q 1025 1384 1454 906 
Q 1884 428 2741 428 
Q 3075 428 3337 486 
Q 3600 544 3809 666 
z
" transform="scale(0.015625)"/>
      </defs>
      <use xlink:href="#DejaVuSans-42"/>
      <use xlink:href="#DejaVuSans-47" x="66.853516"/>
     </g>
    </g>
    <g id="line2d_32">
     <path d="M 59.87 215.669688 
L 69.87 215.669688 
L 79.87 215.669688 
" style="fill: none; stroke: #00acc7; stroke-width: 1.5; stroke-linecap: square"/>
    </g>
    <g id="text_16">
     <!-- CY -->
     <g transform="translate(87.87 219.169688)scale(0.1 -0.1)">
      <defs>
       <path id="DejaVuSans-43" d="M 4122 4306 
L 4122 3641 
Q 3803 3938 3442 4084 
Q 3081 4231 2675 4231 
Q 1875 4231 1450 3742 
Q 1025 3253 1025 2328 
Q 1025 1406 1450 917 
Q 1875 428 2675 428 
Q 3081 428 3442 575 
Q 3803 722 4122 1019 
L 4122 359 
Q 3791 134 3420 21 
Q 3050 -91 2638 -91 
Q 1578 -91 968 557 
Q 359 1206 359 2328 
Q 359 3453 968 4101 
Q 1578 4750 2638 4750 
Q 3056 4750 3426 4639 
Q 3797 4528 4122 4306 
z
" transform="scale(0.015625)"/>
       <path id="DejaVuSans-59" d="M -13 4666 
L 666 4666 
L 1959 2747 
L 3244 4666 
L 3922 4666 
L 2272 2222 
L 2272 0 
L 1638 0 
L 1638 2222 
L -13 4666 
z
" transform="scale(0.015625)"/>
      </defs>
      <use xlink:href="#DejaVuSans-43"/>
      <use xlink:href="#DejaVuSans-59" x="68.074219"/>
     </g>
    </g>
    <g id="line2d_33">
     <path d="M 59.87 230.347813 
L 69.87 230.347813 
L 79.87 230.347813 
" style="fill: none; stroke: #ff7fd1; stroke-width: 1.5; stroke-linecap: square"/>
    </g>
    <g id="text_17">
     <!-- DE -->
     <g transform="translate(87.87 233.847813)scale(0.1 -0.1)">
      <defs>
       <path id="DejaVuSans-44" d="M 1259 4147 
L 1259 519 
L 2022 519 
Q 2988 519 3436 956 
Q 3884 1394 3884 2338 
Q 3884 3275 3436 3711 
Q 2988 4147 2022 4147 
L 1259 4147 
z
M 628 4666 
L 1925 4666 
Q 3281 4666 3915 4102 
Q 4550 3538 4550 2338 
Q 4550 1131 3912 565 
Q 3275 0 1925 0 
L 628 0 
L 628 4666 
z
" transform="scale(0.015625)"/>
      </defs>
      <use xlink:href="#DejaVuSans-44"/>
      <use xlink:href="#DejaVuSans-45" x="77.001953"/>
     </g>
    </g>
    <g id="line2d_34">
     <path d="M 59.87 245.025937 
L 69.87 245.025937 
L 79.87 245.025937 
" style="fill: none; stroke: #6c004f; stroke-width: 1.5; stroke-linecap: square"/>
    </g>
    <g id="text_18">
     <!-- DK -->
     <g transform="translate(87.87 248.525937)scale(0.1 -0.1)">
      <defs>
       <path id="DejaVuSans-4b" d="M 628 4666 
L 1259 4666 
L 1259 2694 
L 3353 4666 
L 4166 4666 
L 1850 2491 
L 4331 0 
L 3500 0 
L 1259 2247 
L 1259 0 
L 628 0 
L 628 4666 
z
" transform="scale(0.015625)"/>
      </defs>
      <use xlink:href="#DejaVuSans-44"/>
      <use xlink:href="#DejaVuSans-4b" x="77.001953"/>
     </g>
    </g>
    <g id="line2d_35">
     <path d="M 59.87 259.704062 
L 69.87 259.704062 
L 79.87 259.704062 
" style="fill: none; stroke: #583b00; stroke-width: 1.5; stroke-linecap: square"/>
    </g>
    <g id="text_19">
     <!-- EL -->
     <g transform="translate(87.87 263.204062)scale(0.1 -0.1)">
      <defs>
       <path id="DejaVuSans-4c" d="M 628 4666 
L 1259 4666 
L 1259 531 
L 3531 531 
L 3531 0 
L 628 0 
L 628 4666 
z
" transform="scale(0.015625)"/>
      </defs>
      <use xlink:href="#DejaVuSans-45"/>
      <use xlink:href="#DejaVuSans-4c" x="63.183594"/>
     </g>
    </g>
    <g id="line2d_36">
     <path d="M 59.87 274.382187 
L 69.87 274.382187 
L 79.87 274.382187 
" style="fill: none; stroke: #005759; stroke-width: 1.5; stroke-linecap: square"/>
    </g>
    <g id="text_20">
     <!-- ES -->
     <g transform="translate(87.87 277.882187)scale(0.1 -0.1)">
      <defs>
       <path id="DejaVuSans-53" d="M 3425 4513 
L 3425 3897 
Q 3066 4069 2747 4153 
Q 2428 4238 2131 4238 
Q 1616 4238 1336 4038 
Q 1056 3838 1056 3469 
Q 1056 3159 1242 3001 
Q 1428 2844 1947 2747 
L 2328 2669 
Q 3034 2534 3370 2195 
Q 3706 1856 3706 1288 
Q 3706 609 3251 259 
Q 2797 -91 1919 -91 
Q 1588 -91 1214 -16 
Q 841 59 441 206 
L 441 856 
Q 825 641 1194 531 
Q 1563 422 1919 422 
Q 2459 422 2753 634 
Q 3047 847 3047 1241 
Q 3047 1584 2836 1778 
Q 2625 1972 2144 2069 
L 1759 2144 
Q 1053 2284 737 2584 
Q 422 2884 422 3419 
Q 422 4038 858 4394 
Q 1294 4750 2059 4750 
Q 2388 4750 2728 4690 
Q 3069 4631 3425 4513 
z
" transform="scale(0.015625)"/>
      </defs>
      <use xlink:href="#DejaVuSans-45"/>
      <use xlink:href="#DejaVuSans-53" x="63.183594"/>
     </g>
    </g>
    <g id="line2d_37">
     <path d="M 59.87 289.060313 
L 69.87 289.060313 
L 79.87 289.060313 
" style="fill: none; stroke: #0000dd; stroke-width: 1.5; stroke-linecap: square"/>
    </g>
    <g id="text_21">
     <!-- FI -->
     <g transform="translate(87.87 292.560313)scale(0.1 -0.1)">
      <defs>
       <path id="DejaVuSans-46" d="M 628 4666 
L 3309 4666 
L 3309 4134 
L 1259 4134 
L 1259 2759 
L 3109 2759 
L 3109 2228 
L 1259 2228 
L 1259 0 
L 628 0 
L 628 4666 
z
" transform="scale(0.015625)"/>
       <path id="DejaVuSans-49" d="M 628 4666 
L 1259 4666 
L 1259 0 
L 628 0 
L 628 4666 
z
" transform="scale(0.015625)"/>
      </defs>
      <use xlink:href="#DejaVuSans-46"/>
      <use xlink:href="#DejaVuSans-49" x="57.519531"/>
     </g>
    </g>
    <g id="line2d_38">
     <path d="M 122.304375 171.635312 
L 132.304375 171.635312 
L 142.304375 171.635312 
" style="fill: none; stroke: #a1756a; stroke-width: 1.5; stroke-linecap: square"/>
    </g>
    <g id="text_22">
     <!-- HU -->
     <g transform="translate(150.304375 175.135312)scale(0.1 -0.1)">
      <use xlink:href="#DejaVuSans-48"/>
      <use xlink:href="#DejaVuSans-55" x="75.195312"/>
     </g>
    </g>
    <g id="line2d_39">
     <path d="M 122.304375 186.313438 
L 132.304375 186.313438 
L 142.304375 186.313438 
" style="fill: none; stroke: #bcb7ff; stroke-width: 1.5; stroke-linecap: square"/>
    </g>
    <g id="text_23">
     <!-- IE -->
     <g transform="translate(150.304375 189.813438)scale(0.1 -0.1)">
      <use xlink:href="#DejaVuSans-49"/>
      <use xlink:href="#DejaVuSans-45" x="29.492188"/>
     </g>
    </g>
    <g id="line2d_40">
     <path d="M 122.304375 200.991562 
L 132.304375 200.991562 
L 142.304375 200.991562 
" style="fill: none; stroke: #95b578; stroke-width: 1.5; stroke-linecap: square"/>
    </g>
    <g id="text_24">
     <!-- IT -->
     <g transform="translate(150.304375 204.491562)scale(0.1 -0.1)">
      <use xlink:href="#DejaVuSans-49"/>
      <use xlink:href="#DejaVuSans-54" x="29.492188"/>
     </g>
    </g>
    <g id="line2d_41">
     <path d="M 122.304375 215.669688 
L 132.304375 215.669688 
L 142.304375 215.669688 
" style="fill: none; stroke: #c004b9; stroke-width: 1.5; stroke-linecap: square"/>
    </g>
    <g id="text_25">
     <!-- LT -->
     <g transform="translate(150.304375 219.169688)scale(0.1 -0.1)">
      <use xlink:href="#DejaVuSans-4c"/>
      <use xlink:href="#DejaVuSans-54" x="41.962891"/>
     </g>
    </g>
    <g id="line2d_42">
     <path d="M 122.304375 230.347813 
L 132.304375 230.347813 
L 142.304375 230.347813 
" style="fill: none; stroke: #0774d8; stroke-width: 1.5; stroke-linecap: square"/>
    </g>
    <g id="text_26">
     <!-- MT -->
     <g transform="translate(150.304375 233.847813)scale(0.1 -0.1)">
      <defs>
       <path id="DejaVuSans-4d" d="M 628 4666 
L 1569 4666 
L 2759 1491 
L 3956 4666 
L 4897 4666 
L 4897 0 
L 4281 0 
L 4281 4097 
L 3078 897 
L 2444 897 
L 1241 4097 
L 1241 0 
L 628 0 
L 628 4666 
z
" transform="scale(0.015625)"/>
      </defs>
      <use xlink:href="#DejaVuSans-4d"/>
      <use xlink:href="#DejaVuSans-54" x="86.279297"/>
     </g>
    </g>
    <g id="line2d_43">
     <path d="M 122.304375 245.025937 
L 132.304375 245.025937 
L 142.304375 245.025937 
" style="fill: none; stroke: #8f7a00; stroke-width: 1.5; stroke-linecap: square"/>
    </g>
    <g id="text_27">
     <!-- PT -->
     <g transform="translate(150.304375 248.525937)scale(0.1 -0.1)">
      <defs>
       <path id="DejaVuSans-50" d="M 1259 4147 
L 1259 2394 
L 2053 2394 
Q 2494 2394 2734 2622 
Q 2975 2850 2975 3272 
Q 2975 3691 2734 3919 
Q 2494 4147 2053 4147 
L 1259 4147 
z
M 628 4666 
L 2053 4666 
Q 2838 4666 3239 4311 
Q 3641 3956 3641 3272 
Q 3641 2581 3239 2228 
Q 2838 1875 2053 1875 
L 1259 1875 
L 1259 0 
L 628 0 
L 628 4666 
z
" transform="scale(0.015625)"/>
      </defs>
      <use xlink:href="#DejaVuSans-50"/>
      <use xlink:href="#DejaVuSans-54" x="60.302734"/>
     </g>
    </g>
    <g id="line2d_44">
     <path d="M 122.304375 259.704062 
L 132.304375 259.704062 
L 142.304375 259.704062 
" style="fill: none; stroke: #ff7266; stroke-width: 1.5; stroke-linecap: square"/>
    </g>
    <g id="text_28">
     <!-- RO -->
     <g transform="translate(150.304375 263.204062)scale(0.1 -0.1)">
      <defs>
       <path id="DejaVuSans-4f" d="M 2522 4238 
Q 1834 4238 1429 3725 
Q 1025 3213 1025 2328 
Q 1025 1447 1429 934 
Q 1834 422 2522 422 
Q 3209 422 3611 934 
Q 4013 1447 4013 2328 
Q 4013 3213 3611 3725 
Q 3209 4238 2522 4238 
z
M 2522 4750 
Q 3503 4750 4090 4092 
Q 4678 3434 4678 2328 
Q 4678 1225 4090 567 
Q 3503 -91 2522 -91 
Q 1538 -91 948 565 
Q 359 1222 359 2328 
Q 359 3434 948 4092 
Q 1538 4750 2522 4750 
z
" transform="scale(0.015625)"/>
      </defs>
      <use xlink:href="#DejaVuSans-52"/>
      <use xlink:href="#DejaVuSans-4f" x="69.482422"/>
     </g>
    </g>
    <g id="line2d_45">
     <path d="M 122.304375 274.382187 
L 132.304375 274.382187 
L 142.304375 274.382187 
" style="fill: none; stroke: #5e7e66; stroke-width: 1.5; stroke-linecap: square"/>
    </g>
    <g id="text_29">
     <!-- SI -->
     <g transform="translate(150.304375 277.882187)scale(0.1 -0.1)">
      <use xlink:href="#DejaVuSans-53"/>
      <use xlink:href="#DejaVuSans-49" x="63.476562"/>
     </g>
    </g>
    <g id="line2d_46">
     <path d="M 122.304375 289.060313 
L 132.304375 289.060313 
L 142.304375 289.060313 
" style="fill: none; stroke: #9be4ff; stroke-width: 1.5; stroke-linecap: square"/>
    </g>
    <g id="text_30">
     <!-- SK -->
     <g transform="translate(150.304375 292.560313)scale(0.1 -0.1)">
      <use xlink:href="#DejaVuSans-53"/>
      <use xlink:href="#DejaVuSans-4b" x="63.476562"/>
     </g>
    </g>
   </g>
  </g>
 </g>
 <defs>
  <clipPath id="p8d180abb23">
   <rect x="50.87" y="10.8" width="397.789881" height="292.84"/>
  </clipPath>
 </defs>
</svg>
