<?xml version="1.0" encoding="utf-8" standalone="no"?>
<!DOCTYPE svg PUBLIC "-//W3C//DTD SVG 1.1//EN"
  "http://www.w3.org/Graphics/SVG/1.1/DTD/svg11.dtd">
<svg xmlns:xlink="http://www.w3.org/1999/xlink" width="360pt" height="288pt" viewBox="0 0 360 288" xmlns="http://www.w3.org/2000/svg" version="1.1">
 <metadata>
  <rdf:RDF xmlns:dc="http://purl.org/dc/elements/1.1/" xmlns:cc="http://creativecommons.org/ns#" xmlns:rdf="http://www.w3.org/1999/02/22-rdf-syntax-ns#">
   <cc:Work>
    <dc:type rdf:resource="http://purl.org/dc/dcmitype/StillImage"/>
    <dc:date>2024-01-29T16:48:39.990798</dc:date>
    <dc:format>image/svg+xml</dc:format>
    <dc:creator>
     <cc:Agent>
      <dc:title>Matplotlib v3.5.1, https://matplotlib.org/</dc:title>
     </cc:Agent>
    </dc:creator>
   </cc:Work>
  </rdf:RDF>
 </metadata>
 <defs>
  <style type="text/css">*{stroke-linejoin: round; stroke-linecap: butt}</style>
 </defs>
 <g id="figure_1">
  <g id="patch_1">
   <path d="M 0 288 
L 360 288 
L 360 0 
L 0 0 
L 0 288 
z
" style="fill: none"/>
  </g>
  <g id="axes_1">
   <g id="patch_2">
    <path d="M 57.17 246.04 
L 349.2 246.04 
L 349.2 10.8 
L 57.17 10.8 
L 57.17 246.04 
z
" style="fill: none"/>
   </g>
   <g id="matplotlib.axis_1">
    <g id="xtick_1">
     <g id="line2d_1">
      <defs>
       <path id="m20d93315ab" d="M 0 0 
L 0 3.5 
" style="stroke: #000000; stroke-width: 0.8"/>
      </defs>
      <g>
       <use xlink:href="#m20d93315ab" x="90.226106" y="246.04" style="stroke: #000000; stroke-width: 0.8"/>
      </g>
     </g>
     <g id="text_1">
      <!-- 20 -->
      <g transform="translate(83.863606 260.638438)scale(0.1 -0.1)">
       <defs>
        <path id="DejaVuSans-32" d="M 1228 531 
L 3431 531 
L 3431 0 
L 469 0 
L 469 531 
Q 828 903 1448 1529 
Q 2069 2156 2228 2338 
Q 2531 2678 2651 2914 
Q 2772 3150 2772 3378 
Q 2772 3750 2511 3984 
Q 2250 4219 1831 4219 
Q 1534 4219 1204 4116 
Q 875 4013 500 3803 
L 500 4441 
Q 881 4594 1212 4672 
Q 1544 4750 1819 4750 
Q 2544 4750 2975 4387 
Q 3406 4025 3406 3419 
Q 3406 3131 3298 2873 
Q 3191 2616 2906 2266 
Q 2828 2175 2409 1742 
Q 1991 1309 1228 531 
z
" transform="scale(0.015625)"/>
        <path id="DejaVuSans-30" d="M 2034 4250 
Q 1547 4250 1301 3770 
Q 1056 3291 1056 2328 
Q 1056 1369 1301 889 
Q 1547 409 2034 409 
Q 2525 409 2770 889 
Q 3016 1369 3016 2328 
Q 3016 3291 2770 3770 
Q 2525 4250 2034 4250 
z
M 2034 4750 
Q 2819 4750 3233 4129 
Q 3647 3509 3647 2328 
Q 3647 1150 3233 529 
Q 2819 -91 2034 -91 
Q 1250 -91 836 529 
Q 422 1150 422 2328 
Q 422 3509 836 4129 
Q 1250 4750 2034 4750 
z
" transform="scale(0.015625)"/>
       </defs>
       <use xlink:href="#DejaVuSans-32"/>
       <use xlink:href="#DejaVuSans-30" x="63.623047"/>
      </g>
     </g>
    </g>
    <g id="xtick_2">
     <g id="line2d_2">
      <g>
       <use xlink:href="#m20d93315ab" x="124.88787" y="246.04" style="stroke: #000000; stroke-width: 0.8"/>
      </g>
     </g>
     <g id="text_2">
      <!-- 40 -->
      <g transform="translate(118.52537 260.638438)scale(0.1 -0.1)">
       <defs>
        <path id="DejaVuSans-34" d="M 2419 4116 
L 825 1625 
L 2419 1625 
L 2419 4116 
z
M 2253 4666 
L 3047 4666 
L 3047 1625 
L 3713 1625 
L 3713 1100 
L 3047 1100 
L 3047 0 
L 2419 0 
L 2419 1100 
L 313 1100 
L 313 1709 
L 2253 4666 
z
" transform="scale(0.015625)"/>
       </defs>
       <use xlink:href="#DejaVuSans-34"/>
       <use xlink:href="#DejaVuSans-30" x="63.623047"/>
      </g>
     </g>
    </g>
    <g id="xtick_3">
     <g id="line2d_3">
      <g>
       <use xlink:href="#m20d93315ab" x="159.549634" y="246.04" style="stroke: #000000; stroke-width: 0.8"/>
      </g>
     </g>
     <g id="text_3">
      <!-- 60 -->
      <g transform="translate(153.187134 260.638438)scale(0.1 -0.1)">
       <defs>
        <path id="DejaVuSans-36" d="M 2113 2584 
Q 1688 2584 1439 2293 
Q 1191 2003 1191 1497 
Q 1191 994 1439 701 
Q 1688 409 2113 409 
Q 2538 409 2786 701 
Q 3034 994 3034 1497 
Q 3034 2003 2786 2293 
Q 2538 2584 2113 2584 
z
M 3366 4563 
L 3366 3988 
Q 3128 4100 2886 4159 
Q 2644 4219 2406 4219 
Q 1781 4219 1451 3797 
Q 1122 3375 1075 2522 
Q 1259 2794 1537 2939 
Q 1816 3084 2150 3084 
Q 2853 3084 3261 2657 
Q 3669 2231 3669 1497 
Q 3669 778 3244 343 
Q 2819 -91 2113 -91 
Q 1303 -91 875 529 
Q 447 1150 447 2328 
Q 447 3434 972 4092 
Q 1497 4750 2381 4750 
Q 2619 4750 2861 4703 
Q 3103 4656 3366 4563 
z
" transform="scale(0.015625)"/>
       </defs>
       <use xlink:href="#DejaVuSans-36"/>
       <use xlink:href="#DejaVuSans-30" x="63.623047"/>
      </g>
     </g>
    </g>
    <g id="xtick_4">
     <g id="line2d_4">
      <g>
       <use xlink:href="#m20d93315ab" x="194.211397" y="246.04" style="stroke: #000000; stroke-width: 0.8"/>
      </g>
     </g>
     <g id="text_4">
      <!-- 80 -->
      <g transform="translate(187.848897 260.638438)scale(0.1 -0.1)">
       <defs>
        <path id="DejaVuSans-38" d="M 2034 2216 
Q 1584 2216 1326 1975 
Q 1069 1734 1069 1313 
Q 1069 891 1326 650 
Q 1584 409 2034 409 
Q 2484 409 2743 651 
Q 3003 894 3003 1313 
Q 3003 1734 2745 1975 
Q 2488 2216 2034 2216 
z
M 1403 2484 
Q 997 2584 770 2862 
Q 544 3141 544 3541 
Q 544 4100 942 4425 
Q 1341 4750 2034 4750 
Q 2731 4750 3128 4425 
Q 3525 4100 3525 3541 
Q 3525 3141 3298 2862 
Q 3072 2584 2669 2484 
Q 3125 2378 3379 2068 
Q 3634 1759 3634 1313 
Q 3634 634 3220 271 
Q 2806 -91 2034 -91 
Q 1263 -91 848 271 
Q 434 634 434 1313 
Q 434 1759 690 2068 
Q 947 2378 1403 2484 
z
M 1172 3481 
Q 1172 3119 1398 2916 
Q 1625 2713 2034 2713 
Q 2441 2713 2670 2916 
Q 2900 3119 2900 3481 
Q 2900 3844 2670 4047 
Q 2441 4250 2034 4250 
Q 1625 4250 1398 4047 
Q 1172 3844 1172 3481 
z
" transform="scale(0.015625)"/>
       </defs>
       <use xlink:href="#DejaVuSans-38"/>
       <use xlink:href="#DejaVuSans-30" x="63.623047"/>
      </g>
     </g>
    </g>
    <g id="xtick_5">
     <g id="line2d_5">
      <g>
       <use xlink:href="#m20d93315ab" x="228.873161" y="246.04" style="stroke: #000000; stroke-width: 0.8"/>
      </g>
     </g>
     <g id="text_5">
      <!-- 100 -->
      <g transform="translate(219.329411 260.638438)scale(0.1 -0.1)">
       <defs>
        <path id="DejaVuSans-31" d="M 794 531 
L 1825 531 
L 1825 4091 
L 703 3866 
L 703 4441 
L 1819 4666 
L 2450 4666 
L 2450 531 
L 3481 531 
L 3481 0 
L 794 0 
L 794 531 
z
" transform="scale(0.015625)"/>
       </defs>
       <use xlink:href="#DejaVuSans-31"/>
       <use xlink:href="#DejaVuSans-30" x="63.623047"/>
       <use xlink:href="#DejaVuSans-30" x="127.246094"/>
      </g>
     </g>
    </g>
    <g id="xtick_6">
     <g id="line2d_6">
      <g>
       <use xlink:href="#m20d93315ab" x="263.534925" y="246.04" style="stroke: #000000; stroke-width: 0.8"/>
      </g>
     </g>
     <g id="text_6">
      <!-- 120 -->
      <g transform="translate(253.991175 260.638438)scale(0.1 -0.1)">
       <use xlink:href="#DejaVuSans-31"/>
       <use xlink:href="#DejaVuSans-32" x="63.623047"/>
       <use xlink:href="#DejaVuSans-30" x="127.246094"/>
      </g>
     </g>
    </g>
    <g id="xtick_7">
     <g id="line2d_7">
      <g>
       <use xlink:href="#m20d93315ab" x="298.196688" y="246.04" style="stroke: #000000; stroke-width: 0.8"/>
      </g>
     </g>
     <g id="text_7">
      <!-- 140 -->
      <g transform="translate(288.652938 260.638438)scale(0.1 -0.1)">
       <use xlink:href="#DejaVuSans-31"/>
       <use xlink:href="#DejaVuSans-34" x="63.623047"/>
       <use xlink:href="#DejaVuSans-30" x="127.246094"/>
      </g>
     </g>
    </g>
    <g id="xtick_8">
     <g id="line2d_8">
      <g>
       <use xlink:href="#m20d93315ab" x="332.858452" y="246.04" style="stroke: #000000; stroke-width: 0.8"/>
      </g>
     </g>
     <g id="text_8">
      <!-- 160 -->
      <g transform="translate(323.314702 260.638438)scale(0.1 -0.1)">
       <use xlink:href="#DejaVuSans-31"/>
       <use xlink:href="#DejaVuSans-36" x="63.623047"/>
       <use xlink:href="#DejaVuSans-30" x="127.246094"/>
      </g>
     </g>
    </g>
    <g id="text_9">
     <!-- Urban Density -->
     <g transform="translate(167.465469 274.316562)scale(0.1 -0.1)">
      <defs>
       <path id="DejaVuSans-55" d="M 556 4666 
L 1191 4666 
L 1191 1831 
Q 1191 1081 1462 751 
Q 1734 422 2344 422 
Q 2950 422 3222 751 
Q 3494 1081 3494 1831 
L 3494 4666 
L 4128 4666 
L 4128 1753 
Q 4128 841 3676 375 
Q 3225 -91 2344 -91 
Q 1459 -91 1007 375 
Q 556 841 556 1753 
L 556 4666 
z
" transform="scale(0.015625)"/>
       <path id="DejaVuSans-72" d="M 2631 2963 
Q 2534 3019 2420 3045 
Q 2306 3072 2169 3072 
Q 1681 3072 1420 2755 
Q 1159 2438 1159 1844 
L 1159 0 
L 581 0 
L 581 3500 
L 1159 3500 
L 1159 2956 
Q 1341 3275 1631 3429 
Q 1922 3584 2338 3584 
Q 2397 3584 2469 3576 
Q 2541 3569 2628 3553 
L 2631 2963 
z
" transform="scale(0.015625)"/>
       <path id="DejaVuSans-62" d="M 3116 1747 
Q 3116 2381 2855 2742 
Q 2594 3103 2138 3103 
Q 1681 3103 1420 2742 
Q 1159 2381 1159 1747 
Q 1159 1113 1420 752 
Q 1681 391 2138 391 
Q 2594 391 2855 752 
Q 3116 1113 3116 1747 
z
M 1159 2969 
Q 1341 3281 1617 3432 
Q 1894 3584 2278 3584 
Q 2916 3584 3314 3078 
Q 3713 2572 3713 1747 
Q 3713 922 3314 415 
Q 2916 -91 2278 -91 
Q 1894 -91 1617 61 
Q 1341 213 1159 525 
L 1159 0 
L 581 0 
L 581 4863 
L 1159 4863 
L 1159 2969 
z
" transform="scale(0.015625)"/>
       <path id="DejaVuSans-61" d="M 2194 1759 
Q 1497 1759 1228 1600 
Q 959 1441 959 1056 
Q 959 750 1161 570 
Q 1363 391 1709 391 
Q 2188 391 2477 730 
Q 2766 1069 2766 1631 
L 2766 1759 
L 2194 1759 
z
M 3341 1997 
L 3341 0 
L 2766 0 
L 2766 531 
Q 2569 213 2275 61 
Q 1981 -91 1556 -91 
Q 1019 -91 701 211 
Q 384 513 384 1019 
Q 384 1609 779 1909 
Q 1175 2209 1959 2209 
L 2766 2209 
L 2766 2266 
Q 2766 2663 2505 2880 
Q 2244 3097 1772 3097 
Q 1472 3097 1187 3025 
Q 903 2953 641 2809 
L 641 3341 
Q 956 3463 1253 3523 
Q 1550 3584 1831 3584 
Q 2591 3584 2966 3190 
Q 3341 2797 3341 1997 
z
" transform="scale(0.015625)"/>
       <path id="DejaVuSans-6e" d="M 3513 2113 
L 3513 0 
L 2938 0 
L 2938 2094 
Q 2938 2591 2744 2837 
Q 2550 3084 2163 3084 
Q 1697 3084 1428 2787 
Q 1159 2491 1159 1978 
L 1159 0 
L 581 0 
L 581 3500 
L 1159 3500 
L 1159 2956 
Q 1366 3272 1645 3428 
Q 1925 3584 2291 3584 
Q 2894 3584 3203 3211 
Q 3513 2838 3513 2113 
z
" transform="scale(0.015625)"/>
       <path id="DejaVuSans-20" transform="scale(0.015625)"/>
       <path id="DejaVuSans-44" d="M 1259 4147 
L 1259 519 
L 2022 519 
Q 2988 519 3436 956 
Q 3884 1394 3884 2338 
Q 3884 3275 3436 3711 
Q 2988 4147 2022 4147 
L 1259 4147 
z
M 628 4666 
L 1925 4666 
Q 3281 4666 3915 4102 
Q 4550 3538 4550 2338 
Q 4550 1131 3912 565 
Q 3275 0 1925 0 
L 628 0 
L 628 4666 
z
" transform="scale(0.015625)"/>
       <path id="DejaVuSans-65" d="M 3597 1894 
L 3597 1613 
L 953 1613 
Q 991 1019 1311 708 
Q 1631 397 2203 397 
Q 2534 397 2845 478 
Q 3156 559 3463 722 
L 3463 178 
Q 3153 47 2828 -22 
Q 2503 -91 2169 -91 
Q 1331 -91 842 396 
Q 353 884 353 1716 
Q 353 2575 817 3079 
Q 1281 3584 2069 3584 
Q 2775 3584 3186 3129 
Q 3597 2675 3597 1894 
z
M 3022 2063 
Q 3016 2534 2758 2815 
Q 2500 3097 2075 3097 
Q 1594 3097 1305 2825 
Q 1016 2553 972 2059 
L 3022 2063 
z
" transform="scale(0.015625)"/>
       <path id="DejaVuSans-73" d="M 2834 3397 
L 2834 2853 
Q 2591 2978 2328 3040 
Q 2066 3103 1784 3103 
Q 1356 3103 1142 2972 
Q 928 2841 928 2578 
Q 928 2378 1081 2264 
Q 1234 2150 1697 2047 
L 1894 2003 
Q 2506 1872 2764 1633 
Q 3022 1394 3022 966 
Q 3022 478 2636 193 
Q 2250 -91 1575 -91 
Q 1294 -91 989 -36 
Q 684 19 347 128 
L 347 722 
Q 666 556 975 473 
Q 1284 391 1588 391 
Q 1994 391 2212 530 
Q 2431 669 2431 922 
Q 2431 1156 2273 1281 
Q 2116 1406 1581 1522 
L 1381 1569 
Q 847 1681 609 1914 
Q 372 2147 372 2553 
Q 372 3047 722 3315 
Q 1072 3584 1716 3584 
Q 2034 3584 2315 3537 
Q 2597 3491 2834 3397 
z
" transform="scale(0.015625)"/>
       <path id="DejaVuSans-69" d="M 603 3500 
L 1178 3500 
L 1178 0 
L 603 0 
L 603 3500 
z
M 603 4863 
L 1178 4863 
L 1178 4134 
L 603 4134 
L 603 4863 
z
" transform="scale(0.015625)"/>
       <path id="DejaVuSans-74" d="M 1172 4494 
L 1172 3500 
L 2356 3500 
L 2356 3053 
L 1172 3053 
L 1172 1153 
Q 1172 725 1289 603 
Q 1406 481 1766 481 
L 2356 481 
L 2356 0 
L 1766 0 
Q 1100 0 847 248 
Q 594 497 594 1153 
L 594 3053 
L 172 3053 
L 172 3500 
L 594 3500 
L 594 4494 
L 1172 4494 
z
" transform="scale(0.015625)"/>
       <path id="DejaVuSans-79" d="M 2059 -325 
Q 1816 -950 1584 -1140 
Q 1353 -1331 966 -1331 
L 506 -1331 
L 506 -850 
L 844 -850 
Q 1081 -850 1212 -737 
Q 1344 -625 1503 -206 
L 1606 56 
L 191 3500 
L 800 3500 
L 1894 763 
L 2988 3500 
L 3597 3500 
L 2059 -325 
z
" transform="scale(0.015625)"/>
      </defs>
      <use xlink:href="#DejaVuSans-55"/>
      <use xlink:href="#DejaVuSans-72" x="73.193359"/>
      <use xlink:href="#DejaVuSans-62" x="114.306641"/>
      <use xlink:href="#DejaVuSans-61" x="177.783203"/>
      <use xlink:href="#DejaVuSans-6e" x="239.0625"/>
      <use xlink:href="#DejaVuSans-20" x="302.441406"/>
      <use xlink:href="#DejaVuSans-44" x="334.228516"/>
      <use xlink:href="#DejaVuSans-65" x="411.230469"/>
      <use xlink:href="#DejaVuSans-6e" x="472.753906"/>
      <use xlink:href="#DejaVuSans-73" x="536.132812"/>
      <use xlink:href="#DejaVuSans-69" x="588.232422"/>
      <use xlink:href="#DejaVuSans-74" x="616.015625"/>
      <use xlink:href="#DejaVuSans-79" x="655.224609"/>
     </g>
    </g>
   </g>
   <g id="matplotlib.axis_2">
    <g id="ytick_1">
     <g id="line2d_9">
      <defs>
       <path id="mb2352b9209" d="M 0 0 
L -3.5 0 
" style="stroke: #000000; stroke-width: 0.8"/>
      </defs>
      <g>
       <use xlink:href="#mb2352b9209" x="57.17" y="246.04" style="stroke: #000000; stroke-width: 0.8"/>
      </g>
     </g>
     <g id="text_10">
      <!-- 0 -->
      <g transform="translate(43.8075 249.839219)scale(0.1 -0.1)">
       <use xlink:href="#DejaVuSans-30"/>
      </g>
     </g>
    </g>
    <g id="ytick_2">
     <g id="line2d_10">
      <g>
       <use xlink:href="#mb2352b9209" x="57.17" y="198.031837" style="stroke: #000000; stroke-width: 0.8"/>
      </g>
     </g>
     <g id="text_11">
      <!-- 1000 -->
      <g transform="translate(24.72 201.831055)scale(0.1 -0.1)">
       <use xlink:href="#DejaVuSans-31"/>
       <use xlink:href="#DejaVuSans-30" x="63.623047"/>
       <use xlink:href="#DejaVuSans-30" x="127.246094"/>
       <use xlink:href="#DejaVuSans-30" x="190.869141"/>
      </g>
     </g>
    </g>
    <g id="ytick_3">
     <g id="line2d_11">
      <g>
       <use xlink:href="#mb2352b9209" x="57.17" y="150.023673" style="stroke: #000000; stroke-width: 0.8"/>
      </g>
     </g>
     <g id="text_12">
      <!-- 2000 -->
      <g transform="translate(24.72 153.822892)scale(0.1 -0.1)">
       <use xlink:href="#DejaVuSans-32"/>
       <use xlink:href="#DejaVuSans-30" x="63.623047"/>
       <use xlink:href="#DejaVuSans-30" x="127.246094"/>
       <use xlink:href="#DejaVuSans-30" x="190.869141"/>
      </g>
     </g>
    </g>
    <g id="ytick_4">
     <g id="line2d_12">
      <g>
       <use xlink:href="#mb2352b9209" x="57.17" y="102.01551" style="stroke: #000000; stroke-width: 0.8"/>
      </g>
     </g>
     <g id="text_13">
      <!-- 3000 -->
      <g transform="translate(24.72 105.814729)scale(0.1 -0.1)">
       <defs>
        <path id="DejaVuSans-33" d="M 2597 2516 
Q 3050 2419 3304 2112 
Q 3559 1806 3559 1356 
Q 3559 666 3084 287 
Q 2609 -91 1734 -91 
Q 1441 -91 1130 -33 
Q 819 25 488 141 
L 488 750 
Q 750 597 1062 519 
Q 1375 441 1716 441 
Q 2309 441 2620 675 
Q 2931 909 2931 1356 
Q 2931 1769 2642 2001 
Q 2353 2234 1838 2234 
L 1294 2234 
L 1294 2753 
L 1863 2753 
Q 2328 2753 2575 2939 
Q 2822 3125 2822 3475 
Q 2822 3834 2567 4026 
Q 2313 4219 1838 4219 
Q 1578 4219 1281 4162 
Q 984 4106 628 3988 
L 628 4550 
Q 988 4650 1302 4700 
Q 1616 4750 1894 4750 
Q 2613 4750 3031 4423 
Q 3450 4097 3450 3541 
Q 3450 3153 3228 2886 
Q 3006 2619 2597 2516 
z
" transform="scale(0.015625)"/>
       </defs>
       <use xlink:href="#DejaVuSans-33"/>
       <use xlink:href="#DejaVuSans-30" x="63.623047"/>
       <use xlink:href="#DejaVuSans-30" x="127.246094"/>
       <use xlink:href="#DejaVuSans-30" x="190.869141"/>
      </g>
     </g>
    </g>
    <g id="ytick_5">
     <g id="line2d_13">
      <g>
       <use xlink:href="#mb2352b9209" x="57.17" y="54.007347" style="stroke: #000000; stroke-width: 0.8"/>
      </g>
     </g>
     <g id="text_14">
      <!-- 4000 -->
      <g transform="translate(24.72 57.806566)scale(0.1 -0.1)">
       <use xlink:href="#DejaVuSans-34"/>
       <use xlink:href="#DejaVuSans-30" x="63.623047"/>
       <use xlink:href="#DejaVuSans-30" x="127.246094"/>
       <use xlink:href="#DejaVuSans-30" x="190.869141"/>
      </g>
     </g>
    </g>
    <g id="text_15">
     <!-- Number of Thefts -->
     <g transform="translate(18.640312 172.040313)rotate(-90)scale(0.1 -0.1)">
      <defs>
       <path id="DejaVuSans-4e" d="M 628 4666 
L 1478 4666 
L 3547 763 
L 3547 4666 
L 4159 4666 
L 4159 0 
L 3309 0 
L 1241 3903 
L 1241 0 
L 628 0 
L 628 4666 
z
" transform="scale(0.015625)"/>
       <path id="DejaVuSans-75" d="M 544 1381 
L 544 3500 
L 1119 3500 
L 1119 1403 
Q 1119 906 1312 657 
Q 1506 409 1894 409 
Q 2359 409 2629 706 
Q 2900 1003 2900 1516 
L 2900 3500 
L 3475 3500 
L 3475 0 
L 2900 0 
L 2900 538 
Q 2691 219 2414 64 
Q 2138 -91 1772 -91 
Q 1169 -91 856 284 
Q 544 659 544 1381 
z
M 1991 3584 
L 1991 3584 
z
" transform="scale(0.015625)"/>
       <path id="DejaVuSans-6d" d="M 3328 2828 
Q 3544 3216 3844 3400 
Q 4144 3584 4550 3584 
Q 5097 3584 5394 3201 
Q 5691 2819 5691 2113 
L 5691 0 
L 5113 0 
L 5113 2094 
Q 5113 2597 4934 2840 
Q 4756 3084 4391 3084 
Q 3944 3084 3684 2787 
Q 3425 2491 3425 1978 
L 3425 0 
L 2847 0 
L 2847 2094 
Q 2847 2600 2669 2842 
Q 2491 3084 2119 3084 
Q 1678 3084 1418 2786 
Q 1159 2488 1159 1978 
L 1159 0 
L 581 0 
L 581 3500 
L 1159 3500 
L 1159 2956 
Q 1356 3278 1631 3431 
Q 1906 3584 2284 3584 
Q 2666 3584 2933 3390 
Q 3200 3197 3328 2828 
z
" transform="scale(0.015625)"/>
       <path id="DejaVuSans-6f" d="M 1959 3097 
Q 1497 3097 1228 2736 
Q 959 2375 959 1747 
Q 959 1119 1226 758 
Q 1494 397 1959 397 
Q 2419 397 2687 759 
Q 2956 1122 2956 1747 
Q 2956 2369 2687 2733 
Q 2419 3097 1959 3097 
z
M 1959 3584 
Q 2709 3584 3137 3096 
Q 3566 2609 3566 1747 
Q 3566 888 3137 398 
Q 2709 -91 1959 -91 
Q 1206 -91 779 398 
Q 353 888 353 1747 
Q 353 2609 779 3096 
Q 1206 3584 1959 3584 
z
" transform="scale(0.015625)"/>
       <path id="DejaVuSans-66" d="M 2375 4863 
L 2375 4384 
L 1825 4384 
Q 1516 4384 1395 4259 
Q 1275 4134 1275 3809 
L 1275 3500 
L 2222 3500 
L 2222 3053 
L 1275 3053 
L 1275 0 
L 697 0 
L 697 3053 
L 147 3053 
L 147 3500 
L 697 3500 
L 697 3744 
Q 697 4328 969 4595 
Q 1241 4863 1831 4863 
L 2375 4863 
z
" transform="scale(0.015625)"/>
       <path id="DejaVuSans-54" d="M -19 4666 
L 3928 4666 
L 3928 4134 
L 2272 4134 
L 2272 0 
L 1638 0 
L 1638 4134 
L -19 4134 
L -19 4666 
z
" transform="scale(0.015625)"/>
       <path id="DejaVuSans-68" d="M 3513 2113 
L 3513 0 
L 2938 0 
L 2938 2094 
Q 2938 2591 2744 2837 
Q 2550 3084 2163 3084 
Q 1697 3084 1428 2787 
Q 1159 2491 1159 1978 
L 1159 0 
L 581 0 
L 581 4863 
L 1159 4863 
L 1159 2956 
Q 1366 3272 1645 3428 
Q 1925 3584 2291 3584 
Q 2894 3584 3203 3211 
Q 3513 2838 3513 2113 
z
" transform="scale(0.015625)"/>
      </defs>
      <use xlink:href="#DejaVuSans-4e"/>
      <use xlink:href="#DejaVuSans-75" x="74.804688"/>
      <use xlink:href="#DejaVuSans-6d" x="138.183594"/>
      <use xlink:href="#DejaVuSans-62" x="235.595703"/>
      <use xlink:href="#DejaVuSans-65" x="299.072266"/>
      <use xlink:href="#DejaVuSans-72" x="360.595703"/>
      <use xlink:href="#DejaVuSans-20" x="401.708984"/>
      <use xlink:href="#DejaVuSans-6f" x="433.496094"/>
      <use xlink:href="#DejaVuSans-66" x="494.677734"/>
      <use xlink:href="#DejaVuSans-20" x="529.882812"/>
      <use xlink:href="#DejaVuSans-54" x="561.669922"/>
      <use xlink:href="#DejaVuSans-68" x="622.753906"/>
      <use xlink:href="#DejaVuSans-65" x="686.132812"/>
      <use xlink:href="#DejaVuSans-66" x="747.65625"/>
      <use xlink:href="#DejaVuSans-74" x="781.111328"/>
      <use xlink:href="#DejaVuSans-73" x="820.320312"/>
     </g>
    </g>
   </g>
   <g id="line2d_14">
    <path d="M 57.17 219.336243 
L 63.129796 218.891475 
L 69.089592 218.446708 
L 75.049388 218.001941 
L 81.009184 217.557174 
L 86.96898 217.112406 
L 92.928776 216.667639 
L 98.888571 216.222872 
L 104.848367 215.778105 
L 110.808163 215.333337 
L 116.767959 214.88857 
L 122.727755 214.443803 
L 128.687551 213.999035 
L 134.647347 213.554268 
L 140.607143 213.109501 
L 146.566939 212.664734 
L 152.526735 212.219966 
L 158.486531 211.775199 
L 164.446327 211.330432 
L 170.406122 210.885665 
L 176.365918 210.440897 
L 182.325714 209.99613 
L 188.28551 209.551363 
L 194.245306 209.106596 
L 200.205102 208.661828 
L 206.164898 208.217061 
L 212.124694 207.772294 
L 218.08449 207.327526 
L 224.044286 206.882759 
L 230.004082 206.437992 
L 235.963878 205.993225 
L 241.923673 205.548457 
L 247.883469 205.10369 
L 253.843265 204.658923 
L 259.803061 204.214156 
L 265.762857 203.769388 
L 271.722653 203.324621 
L 277.682449 202.879854 
L 283.642245 202.435087 
L 289.602041 201.990319 
L 295.561837 201.545552 
L 301.521633 201.100785 
L 307.481429 200.656017 
L 313.441224 200.21125 
L 319.40102 199.766483 
L 325.360816 199.321716 
L 331.320612 198.876948 
L 337.280408 198.432181 
L 343.240204 197.987414 
L 349.2 197.542647 
" clip-path="url(#pa553656cac)" style="fill: none; stroke: #d70000; stroke-width: 1.5; stroke-linecap: square"/>
   </g>
   <g id="line2d_15">
    <path d="M 57.17 190.225755 
L 63.129796 188.6707 
L 69.089592 187.115645 
L 75.049388 185.560591 
L 81.009184 184.005536 
L 86.96898 182.450481 
L 92.928776 180.895427 
L 98.888571 179.340372 
L 104.848367 177.785317 
L 110.808163 176.230262 
L 116.767959 174.675208 
L 122.727755 173.120153 
L 128.687551 171.565098 
L 134.647347 170.010043 
L 140.607143 168.454989 
L 146.566939 166.899934 
L 152.526735 165.344879 
L 158.486531 163.789824 
L 164.446327 162.23477 
L 170.406122 160.679715 
L 176.365918 159.12466 
L 182.325714 157.569605 
L 188.28551 156.014551 
L 194.245306 154.459496 
L 200.205102 152.904441 
L 206.164898 151.349387 
L 212.124694 149.794332 
L 218.08449 148.239277 
L 224.044286 146.684222 
L 230.004082 145.129168 
L 235.963878 143.574113 
L 241.923673 142.019058 
L 247.883469 140.464003 
L 253.843265 138.908949 
L 259.803061 137.353894 
L 265.762857 135.798839 
L 271.722653 134.243784 
L 277.682449 132.68873 
L 283.642245 131.133675 
L 289.602041 129.57862 
L 295.561837 128.023566 
L 301.521633 126.468511 
L 307.481429 124.913456 
L 313.441224 123.358401 
L 319.40102 121.803347 
L 325.360816 120.248292 
L 331.320612 118.693237 
L 337.280408 117.138182 
L 343.240204 115.583128 
L 349.2 114.028073 
" clip-path="url(#pa553656cac)" style="fill: none; stroke: #8c3cff; stroke-width: 1.5; stroke-linecap: square"/>
   </g>
   <g id="line2d_16">
    <path d="M 57.17 228.198901 
L 63.129796 227.78181 
L 69.089592 227.364718 
L 75.049388 226.947627 
L 81.009184 226.530535 
L 86.96898 226.113443 
L 92.928776 225.696352 
L 98.888571 225.27926 
L 104.848367 224.862169 
L 110.808163 224.445077 
L 116.767959 224.027985 
L 122.727755 223.610894 
L 128.687551 223.193802 
L 134.647347 222.776711 
L 140.607143 222.359619 
L 146.566939 221.942527 
L 152.526735 221.525436 
L 158.486531 221.108344 
L 164.446327 220.691253 
L 170.406122 220.274161 
L 176.365918 219.857069 
L 182.325714 219.439978 
L 188.28551 219.022886 
L 194.245306 218.605795 
L 200.205102 218.188703 
L 206.164898 217.771611 
L 212.124694 217.35452 
L 218.08449 216.937428 
L 224.044286 216.520337 
L 230.004082 216.103245 
L 235.963878 215.686153 
L 241.923673 215.269062 
L 247.883469 214.85197 
L 253.843265 214.434879 
L 259.803061 214.017787 
L 265.762857 213.600695 
L 271.722653 213.183604 
L 277.682449 212.766512 
L 283.642245 212.349421 
L 289.602041 211.932329 
L 295.561837 211.515237 
L 301.521633 211.098146 
L 307.481429 210.681054 
L 313.441224 210.263962 
L 319.40102 209.846871 
L 325.360816 209.429779 
L 331.320612 209.012688 
L 337.280408 208.595596 
L 343.240204 208.178504 
L 349.2 207.761413 
" clip-path="url(#pa553656cac)" style="fill: none; stroke: #028800; stroke-width: 1.5; stroke-linecap: square"/>
   </g>
   <g id="line2d_17">
    <path d="M 57.17 227.143924 
L 63.129796 226.826377 
L 69.089592 226.50883 
L 75.049388 226.191283 
L 81.009184 225.873736 
L 86.96898 225.556188 
L 92.928776 225.238641 
L 98.888571 224.921094 
L 104.848367 224.603547 
L 110.808163 224.286 
L 116.767959 223.968453 
L 122.727755 223.650906 
L 128.687551 223.333359 
L 134.647347 223.015811 
L 140.607143 222.698264 
L 146.566939 222.380717 
L 152.526735 222.06317 
L 158.486531 221.745623 
L 164.446327 221.428076 
L 170.406122 221.110529 
L 176.365918 220.792982 
L 182.325714 220.475434 
L 188.28551 220.157887 
L 194.245306 219.84034 
L 200.205102 219.522793 
L 206.164898 219.205246 
L 212.124694 218.887699 
L 218.08449 218.570152 
L 224.044286 218.252604 
L 230.004082 217.935057 
L 235.963878 217.61751 
L 241.923673 217.299963 
L 247.883469 216.982416 
L 253.843265 216.664869 
L 259.803061 216.347322 
L 265.762857 216.029775 
L 271.722653 215.712227 
L 277.682449 215.39468 
L 283.642245 215.077133 
L 289.602041 214.759586 
L 295.561837 214.442039 
L 301.521633 214.124492 
L 307.481429 213.806945 
L 313.441224 213.489398 
L 319.40102 213.17185 
L 325.360816 212.854303 
L 331.320612 212.536756 
L 337.280408 212.219209 
L 343.240204 211.901662 
L 349.2 211.584115 
" clip-path="url(#pa553656cac)" style="fill: none; stroke: #98ff00; stroke-width: 1.5; stroke-linecap: square"/>
   </g>
   <g id="line2d_18">
    <path d="M 57.17 179.339708 
L 63.129796 178.887629 
L 69.089592 178.43555 
L 75.049388 177.98347 
L 81.009184 177.531391 
L 86.96898 177.079312 
L 92.928776 176.627233 
L 98.888571 176.175154 
L 104.848367 175.723075 
L 110.808163 175.270996 
L 116.767959 174.818916 
L 122.727755 174.366837 
L 128.687551 173.914758 
L 134.647347 173.462679 
L 140.607143 173.0106 
L 146.566939 172.558521 
L 152.526735 172.106442 
L 158.486531 171.654363 
L 164.446327 171.202283 
L 170.406122 170.750204 
L 176.365918 170.298125 
L 182.325714 169.846046 
L 188.28551 169.393967 
L 194.245306 168.941888 
L 200.205102 168.489809 
L 206.164898 168.037729 
L 212.124694 167.58565 
L 218.08449 167.133571 
L 224.044286 166.681492 
L 230.004082 166.229413 
L 235.963878 165.777334 
L 241.923673 165.325255 
L 247.883469 164.873175 
L 253.843265 164.421096 
L 259.803061 163.969017 
L 265.762857 163.516938 
L 271.722653 163.064859 
L 277.682449 162.61278 
L 283.642245 162.160701 
L 289.602041 161.708621 
L 295.561837 161.256542 
L 301.521633 160.804463 
L 307.481429 160.352384 
L 313.441224 159.900305 
L 319.40102 159.448226 
L 325.360816 158.996147 
L 331.320612 158.544068 
L 337.280408 158.091988 
L 343.240204 157.639909 
L 349.2 157.18783 
" clip-path="url(#pa553656cac)" style="fill: none; stroke: #ff7fd1; stroke-width: 1.5; stroke-linecap: square"/>
   </g>
   <g id="line2d_19">
    <path d="M 57.17 224.998925 
L 63.129796 224.709074 
L 69.089592 224.419223 
L 75.049388 224.129371 
L 81.009184 223.83952 
L 86.96898 223.549669 
L 92.928776 223.259817 
L 98.888571 222.969966 
L 104.848367 222.680115 
L 110.808163 222.390264 
L 116.767959 222.100412 
L 122.727755 221.810561 
L 128.687551 221.52071 
L 134.647347 221.230858 
L 140.607143 220.941007 
L 146.566939 220.651156 
L 152.526735 220.361305 
L 158.486531 220.071453 
L 164.446327 219.781602 
L 170.406122 219.491751 
L 176.365918 219.2019 
L 182.325714 218.912048 
L 188.28551 218.622197 
L 194.245306 218.332346 
L 200.205102 218.042494 
L 206.164898 217.752643 
L 212.124694 217.462792 
L 218.08449 217.172941 
L 224.044286 216.883089 
L 230.004082 216.593238 
L 235.963878 216.303387 
L 241.923673 216.013535 
L 247.883469 215.723684 
L 253.843265 215.433833 
L 259.803061 215.143982 
L 265.762857 214.85413 
L 271.722653 214.564279 
L 277.682449 214.274428 
L 283.642245 213.984576 
L 289.602041 213.694725 
L 295.561837 213.404874 
L 301.521633 213.115023 
L 307.481429 212.825171 
L 313.441224 212.53532 
L 319.40102 212.245469 
L 325.360816 211.955617 
L 331.320612 211.665766 
L 337.280408 211.375915 
L 343.240204 211.086064 
L 349.2 210.796212 
" clip-path="url(#pa553656cac)" style="fill: none; stroke: #6c004f; stroke-width: 1.5; stroke-linecap: square"/>
   </g>
   <g id="line2d_20">
    <path d="M 57.17 189.201649 
L 63.129796 186.373975 
L 69.089592 183.546301 
L 75.049388 180.718628 
L 81.009184 177.890954 
L 86.96898 175.06328 
L 92.928776 172.235607 
L 98.888571 169.407933 
L 104.848367 166.580259 
L 110.808163 163.752586 
L 116.767959 160.924912 
L 122.727755 158.097239 
L 128.687551 155.269565 
L 134.647347 152.441891 
L 140.607143 149.614218 
L 146.566939 146.786544 
L 152.526735 143.95887 
L 158.486531 141.131197 
L 164.446327 138.303523 
L 170.406122 135.475849 
L 176.365918 132.648176 
L 182.325714 129.820502 
L 188.28551 126.992828 
L 194.245306 124.165155 
L 200.205102 121.337481 
L 206.164898 118.509808 
L 212.124694 115.682134 
L 218.08449 112.85446 
L 224.044286 110.026787 
L 230.004082 107.199113 
L 235.963878 104.371439 
L 241.923673 101.543766 
L 247.883469 98.716092 
L 253.843265 95.888418 
L 259.803061 93.060745 
L 265.762857 90.233071 
L 271.722653 87.405397 
L 277.682449 84.577724 
L 283.642245 81.75005 
L 289.602041 78.922377 
L 295.561837 76.094703 
L 301.521633 73.267029 
L 307.481429 70.439356 
L 313.441224 67.611682 
L 319.40102 64.784008 
L 325.360816 61.956335 
L 331.320612 59.128661 
L 337.280408 56.300987 
L 343.240204 53.473314 
L 349.2 50.64564 
" clip-path="url(#pa553656cac)" style="fill: none; stroke: #583b00; stroke-width: 1.5; stroke-linecap: square"/>
   </g>
   <g id="line2d_21">
    <path d="M 57.17 255.726346 
L 63.129796 254.623928 
L 69.089592 253.521511 
L 75.049388 252.419094 
L 81.009184 251.316676 
L 86.96898 250.214259 
L 92.928776 249.111842 
L 98.888571 248.009424 
L 104.848367 246.907007 
L 110.808163 245.804589 
L 116.767959 244.702172 
L 122.727755 243.599755 
L 128.687551 242.497337 
L 134.647347 241.39492 
L 140.607143 240.292502 
L 146.566939 239.190085 
L 152.526735 238.087668 
L 158.486531 236.98525 
L 164.446327 235.882833 
L 170.406122 234.780415 
L 176.365918 233.677998 
L 182.325714 232.575581 
L 188.28551 231.473163 
L 194.245306 230.370746 
L 200.205102 229.268328 
L 206.164898 228.165911 
L 212.124694 227.063494 
L 218.08449 225.961076 
L 224.044286 224.858659 
L 230.004082 223.756241 
L 235.963878 222.653824 
L 241.923673 221.551407 
L 247.883469 220.448989 
L 253.843265 219.346572 
L 259.803061 218.244154 
L 265.762857 217.141737 
L 271.722653 216.03932 
L 277.682449 214.936902 
L 283.642245 213.834485 
L 289.602041 212.732067 
L 295.561837 211.62965 
L 301.521633 210.527233 
L 307.481429 209.424815 
L 313.441224 208.322398 
L 319.40102 207.21998 
L 325.360816 206.117563 
L 331.320612 205.015146 
L 337.280408 203.912728 
L 343.240204 202.810311 
L 349.2 201.707893 
" clip-path="url(#pa553656cac)" style="fill: none; stroke: #005759; stroke-width: 1.5; stroke-linecap: square"/>
   </g>
   <g id="line2d_22">
    <path d="M 57.17 218.218748 
L 63.129796 217.437182 
L 69.089592 216.655616 
L 75.049388 215.87405 
L 81.009184 215.092484 
L 86.96898 214.310918 
L 92.928776 213.529352 
L 98.888571 212.747786 
L 104.848367 211.96622 
L 110.808163 211.184654 
L 116.767959 210.403089 
L 122.727755 209.621523 
L 128.687551 208.839957 
L 134.647347 208.058391 
L 140.607143 207.276825 
L 146.566939 206.495259 
L 152.526735 205.713693 
L 158.486531 204.932127 
L 164.446327 204.150561 
L 170.406122 203.368995 
L 176.365918 202.587429 
L 182.325714 201.805863 
L 188.28551 201.024297 
L 194.245306 200.242732 
L 200.205102 199.461166 
L 206.164898 198.6796 
L 212.124694 197.898034 
L 218.08449 197.116468 
L 224.044286 196.334902 
L 230.004082 195.553336 
L 235.963878 194.77177 
L 241.923673 193.990204 
L 247.883469 193.208638 
L 253.843265 192.427072 
L 259.803061 191.645506 
L 265.762857 190.863941 
L 271.722653 190.082375 
L 277.682449 189.300809 
L 283.642245 188.519243 
L 289.602041 187.737677 
L 295.561837 186.956111 
L 301.521633 186.174545 
L 307.481429 185.392979 
L 313.441224 184.611413 
L 319.40102 183.829847 
L 325.360816 183.048281 
L 331.320612 182.266715 
L 337.280408 181.485149 
L 343.240204 180.703584 
L 349.2 179.922018 
" clip-path="url(#pa553656cac)" style="fill: none; stroke: #0000dd; stroke-width: 1.5; stroke-linecap: square"/>
   </g>
   <g id="line2d_23">
    <path d="M 57.17 228.190569 
L 63.129796 227.741056 
L 69.089592 227.291544 
L 75.049388 226.842032 
L 81.009184 226.392519 
L 86.96898 225.943007 
L 92.928776 225.493495 
L 98.888571 225.043982 
L 104.848367 224.59447 
L 110.808163 224.144958 
L 116.767959 223.695445 
L 122.727755 223.245933 
L 128.687551 222.796421 
L 134.647347 222.346908 
L 140.607143 221.897396 
L 146.566939 221.447884 
L 152.526735 220.998371 
L 158.486531 220.548859 
L 164.446327 220.099346 
L 170.406122 219.649834 
L 176.365918 219.200322 
L 182.325714 218.750809 
L 188.28551 218.301297 
L 194.245306 217.851785 
L 200.205102 217.402272 
L 206.164898 216.95276 
L 212.124694 216.503248 
L 218.08449 216.053735 
L 224.044286 215.604223 
L 230.004082 215.154711 
L 235.963878 214.705198 
L 241.923673 214.255686 
L 247.883469 213.806174 
L 253.843265 213.356661 
L 259.803061 212.907149 
L 265.762857 212.457636 
L 271.722653 212.008124 
L 277.682449 211.558612 
L 283.642245 211.109099 
L 289.602041 210.659587 
L 295.561837 210.210075 
L 301.521633 209.760562 
L 307.481429 209.31105 
L 313.441224 208.861538 
L 319.40102 208.412025 
L 325.360816 207.962513 
L 331.320612 207.513001 
L 337.280408 207.063488 
L 343.240204 206.613976 
L 349.2 206.164463 
" clip-path="url(#pa553656cac)" style="fill: none; stroke: #bcb7ff; stroke-width: 1.5; stroke-linecap: square"/>
   </g>
   <g id="line2d_24">
    <path d="M 57.17 218.631877 
L 63.129796 216.156424 
L 69.089592 213.680971 
L 75.049388 211.205517 
L 81.009184 208.730064 
L 86.96898 206.254611 
L 92.928776 203.779158 
L 98.888571 201.303705 
L 104.848367 198.828251 
L 110.808163 196.352798 
L 116.767959 193.877345 
L 122.727755 191.401892 
L 128.687551 188.926439 
L 134.647347 186.450986 
L 140.607143 183.975532 
L 146.566939 181.500079 
L 152.526735 179.024626 
L 158.486531 176.549173 
L 164.446327 174.07372 
L 170.406122 171.598266 
L 176.365918 169.122813 
L 182.325714 166.64736 
L 188.28551 164.171907 
L 194.245306 161.696454 
L 200.205102 159.221 
L 206.164898 156.745547 
L 212.124694 154.270094 
L 218.08449 151.794641 
L 224.044286 149.319188 
L 230.004082 146.843735 
L 235.963878 144.368281 
L 241.923673 141.892828 
L 247.883469 139.417375 
L 253.843265 136.941922 
L 259.803061 134.466469 
L 265.762857 131.991015 
L 271.722653 129.515562 
L 277.682449 127.040109 
L 283.642245 124.564656 
L 289.602041 122.089203 
L 295.561837 119.61375 
L 301.521633 117.138296 
L 307.481429 114.662843 
L 313.441224 112.18739 
L 319.40102 109.711937 
L 325.360816 107.236484 
L 331.320612 104.76103 
L 337.280408 102.285577 
L 343.240204 99.810124 
L 349.2 97.334671 
" clip-path="url(#pa553656cac)" style="fill: none; stroke: #95b578; stroke-width: 1.5; stroke-linecap: square"/>
   </g>
   <g id="line2d_25">
    <path d="M 57.17 222.833864 
L 63.129796 222.12238 
L 69.089592 221.410896 
L 75.049388 220.699412 
L 81.009184 219.987928 
L 86.96898 219.276444 
L 92.928776 218.56496 
L 98.888571 217.853476 
L 104.848367 217.141992 
L 110.808163 216.430508 
L 116.767959 215.719024 
L 122.727755 215.007541 
L 128.687551 214.296057 
L 134.647347 213.584573 
L 140.607143 212.873089 
L 146.566939 212.161605 
L 152.526735 211.450121 
L 158.486531 210.738637 
L 164.446327 210.027153 
L 170.406122 209.315669 
L 176.365918 208.604185 
L 182.325714 207.892701 
L 188.28551 207.181217 
L 194.245306 206.469734 
L 200.205102 205.75825 
L 206.164898 205.046766 
L 212.124694 204.335282 
L 218.08449 203.623798 
L 224.044286 202.912314 
L 230.004082 202.20083 
L 235.963878 201.489346 
L 241.923673 200.777862 
L 247.883469 200.066378 
L 253.843265 199.354894 
L 259.803061 198.64341 
L 265.762857 197.931927 
L 271.722653 197.220443 
L 277.682449 196.508959 
L 283.642245 195.797475 
L 289.602041 195.085991 
L 295.561837 194.374507 
L 301.521633 193.663023 
L 307.481429 192.951539 
L 313.441224 192.240055 
L 319.40102 191.528571 
L 325.360816 190.817087 
L 331.320612 190.105603 
L 337.280408 189.394119 
L 343.240204 188.682636 
L 349.2 187.971152 
" clip-path="url(#pa553656cac)" style="fill: none; stroke: #c004b9; stroke-width: 1.5; stroke-linecap: square"/>
   </g>
   <g id="line2d_26">
    <path d="M 57.17 223.145003 
L 63.129796 222.457493 
L 69.089592 221.769982 
L 75.049388 221.082471 
L 81.009184 220.39496 
L 86.96898 219.707449 
L 92.928776 219.019938 
L 98.888571 218.332427 
L 104.848367 217.644916 
L 110.808163 216.957405 
L 116.767959 216.269894 
L 122.727755 215.582383 
L 128.687551 214.894872 
L 134.647347 214.207361 
L 140.607143 213.51985 
L 146.566939 212.832339 
L 152.526735 212.144828 
L 158.486531 211.457317 
L 164.446327 210.769806 
L 170.406122 210.082295 
L 176.365918 209.394784 
L 182.325714 208.707273 
L 188.28551 208.019762 
L 194.245306 207.332251 
L 200.205102 206.64474 
L 206.164898 205.95723 
L 212.124694 205.269719 
L 218.08449 204.582208 
L 224.044286 203.894697 
L 230.004082 203.207186 
L 235.963878 202.519675 
L 241.923673 201.832164 
L 247.883469 201.144653 
L 253.843265 200.457142 
L 259.803061 199.769631 
L 265.762857 199.08212 
L 271.722653 198.394609 
L 277.682449 197.707098 
L 283.642245 197.019587 
L 289.602041 196.332076 
L 295.561837 195.644565 
L 301.521633 194.957054 
L 307.481429 194.269543 
L 313.441224 193.582032 
L 319.40102 192.894521 
L 325.360816 192.20701 
L 331.320612 191.519499 
L 337.280408 190.831988 
L 343.240204 190.144477 
L 349.2 189.456966 
" clip-path="url(#pa553656cac)" style="fill: none; stroke: #790000; stroke-width: 1.5; stroke-linecap: square"/>
   </g>
   <g id="line2d_27">
    <path d="M 57.17 225.837743 
L 63.129796 225.482089 
L 69.089592 225.126435 
L 75.049388 224.770781 
L 81.009184 224.415126 
L 86.96898 224.059472 
L 92.928776 223.703818 
L 98.888571 223.348163 
L 104.848367 222.992509 
L 110.808163 222.636855 
L 116.767959 222.2812 
L 122.727755 221.925546 
L 128.687551 221.569892 
L 134.647347 221.214237 
L 140.607143 220.858583 
L 146.566939 220.502929 
L 152.526735 220.147275 
L 158.486531 219.79162 
L 164.446327 219.435966 
L 170.406122 219.080312 
L 176.365918 218.724657 
L 182.325714 218.369003 
L 188.28551 218.013349 
L 194.245306 217.657694 
L 200.205102 217.30204 
L 206.164898 216.946386 
L 212.124694 216.590731 
L 218.08449 216.235077 
L 224.044286 215.879423 
L 230.004082 215.523769 
L 235.963878 215.168114 
L 241.923673 214.81246 
L 247.883469 214.456806 
L 253.843265 214.101151 
L 259.803061 213.745497 
L 265.762857 213.389843 
L 271.722653 213.034188 
L 277.682449 212.678534 
L 283.642245 212.32288 
L 289.602041 211.967226 
L 295.561837 211.611571 
L 301.521633 211.255917 
L 307.481429 210.900263 
L 313.441224 210.544608 
L 319.40102 210.188954 
L 325.360816 209.8333 
L 331.320612 209.477645 
L 337.280408 209.121991 
L 343.240204 208.766337 
L 349.2 208.410682 
" clip-path="url(#pa553656cac)" style="fill: none; stroke: #0774d8; stroke-width: 1.5; stroke-linecap: square"/>
   </g>
   <g id="line2d_28">
    <path d="M 57.17 214.917198 
L 63.129796 214.137137 
L 69.089592 213.357075 
L 75.049388 212.577013 
L 81.009184 211.796952 
L 86.96898 211.01689 
L 92.928776 210.236828 
L 98.888571 209.456766 
L 104.848367 208.676705 
L 110.808163 207.896643 
L 116.767959 207.116581 
L 122.727755 206.33652 
L 128.687551 205.556458 
L 134.647347 204.776396 
L 140.607143 203.996335 
L 146.566939 203.216273 
L 152.526735 202.436211 
L 158.486531 201.65615 
L 164.446327 200.876088 
L 170.406122 200.096026 
L 176.365918 199.315965 
L 182.325714 198.535903 
L 188.28551 197.755841 
L 194.245306 196.97578 
L 200.205102 196.195718 
L 206.164898 195.415656 
L 212.124694 194.635595 
L 218.08449 193.855533 
L 224.044286 193.075471 
L 230.004082 192.29541 
L 235.963878 191.515348 
L 241.923673 190.735286 
L 247.883469 189.955225 
L 253.843265 189.175163 
L 259.803061 188.395101 
L 265.762857 187.61504 
L 271.722653 186.834978 
L 277.682449 186.054916 
L 283.642245 185.274855 
L 289.602041 184.494793 
L 295.561837 183.714731 
L 301.521633 182.93467 
L 307.481429 182.154608 
L 313.441224 181.374546 
L 319.40102 180.594485 
L 325.360816 179.814423 
L 331.320612 179.034361 
L 337.280408 178.2543 
L 343.240204 177.474238 
L 349.2 176.694176 
" clip-path="url(#pa553656cac)" style="fill: none; stroke: #fef590; stroke-width: 1.5; stroke-linecap: square"/>
   </g>
   <g id="line2d_29">
    <path d="M 57.17 213.602305 
L 63.129796 213.508188 
L 69.089592 213.41407 
L 75.049388 213.319952 
L 81.009184 213.225835 
L 86.96898 213.131717 
L 92.928776 213.037599 
L 98.888571 212.943482 
L 104.848367 212.849364 
L 110.808163 212.755246 
L 116.767959 212.661129 
L 122.727755 212.567011 
L 128.687551 212.472894 
L 134.647347 212.378776 
L 140.607143 212.284658 
L 146.566939 212.190541 
L 152.526735 212.096423 
L 158.486531 212.002305 
L 164.446327 211.908188 
L 170.406122 211.81407 
L 176.365918 211.719952 
L 182.325714 211.625835 
L 188.28551 211.531717 
L 194.245306 211.4376 
L 200.205102 211.343482 
L 206.164898 211.249364 
L 212.124694 211.155247 
L 218.08449 211.061129 
L 224.044286 210.967011 
L 230.004082 210.872894 
L 235.963878 210.778776 
L 241.923673 210.684658 
L 247.883469 210.590541 
L 253.843265 210.496423 
L 259.803061 210.402306 
L 265.762857 210.308188 
L 271.722653 210.21407 
L 277.682449 210.119953 
L 283.642245 210.025835 
L 289.602041 209.931717 
L 295.561837 209.8376 
L 301.521633 209.743482 
L 307.481429 209.649364 
L 313.441224 209.555247 
L 319.40102 209.461129 
L 325.360816 209.367012 
L 331.320612 209.272894 
L 337.280408 209.178776 
L 343.240204 209.084659 
L 349.2 208.990541 
" clip-path="url(#pa553656cac)" style="fill: none; stroke: #004b00; stroke-width: 1.5; stroke-linecap: square"/>
   </g>
   <g id="line2d_30">
    <path d="M 57.17 212.591518 
L 63.129796 210.782346 
L 69.089592 208.973174 
L 75.049388 207.164003 
L 81.009184 205.354831 
L 86.96898 203.545659 
L 92.928776 201.736488 
L 98.888571 199.927316 
L 104.848367 198.118144 
L 110.808163 196.308973 
L 116.767959 194.499801 
L 122.727755 192.69063 
L 128.687551 190.881458 
L 134.647347 189.072286 
L 140.607143 187.263115 
L 146.566939 185.453943 
L 152.526735 183.644771 
L 158.486531 181.8356 
L 164.446327 180.026428 
L 170.406122 178.217256 
L 176.365918 176.408085 
L 182.325714 174.598913 
L 188.28551 172.789741 
L 194.245306 170.98057 
L 200.205102 169.171398 
L 206.164898 167.362227 
L 212.124694 165.553055 
L 218.08449 163.743883 
L 224.044286 161.934712 
L 230.004082 160.12554 
L 235.963878 158.316368 
L 241.923673 156.507197 
L 247.883469 154.698025 
L 253.843265 152.888853 
L 259.803061 151.079682 
L 265.762857 149.27051 
L 271.722653 147.461338 
L 277.682449 145.652167 
L 283.642245 143.842995 
L 289.602041 142.033823 
L 295.561837 140.224652 
L 301.521633 138.41548 
L 307.481429 136.606309 
L 313.441224 134.797137 
L 319.40102 132.987965 
L 325.360816 131.178794 
L 331.320612 129.369622 
L 337.280408 127.56045 
L 343.240204 125.751279 
L 349.2 123.942107 
" clip-path="url(#pa553656cac)" style="fill: none; stroke: #8f7a00; stroke-width: 1.5; stroke-linecap: square"/>
   </g>
   <g id="line2d_31">
    <path d="M 57.17 228.627734 
L 63.129796 228.286548 
L 69.089592 227.945362 
L 75.049388 227.604177 
L 81.009184 227.262991 
L 86.96898 226.921806 
L 92.928776 226.58062 
L 98.888571 226.239434 
L 104.848367 225.898249 
L 110.808163 225.557063 
L 116.767959 225.215878 
L 122.727755 224.874692 
L 128.687551 224.533507 
L 134.647347 224.192321 
L 140.607143 223.851135 
L 146.566939 223.50995 
L 152.526735 223.168764 
L 158.486531 222.827579 
L 164.446327 222.486393 
L 170.406122 222.145207 
L 176.365918 221.804022 
L 182.325714 221.462836 
L 188.28551 221.121651 
L 194.245306 220.780465 
L 200.205102 220.43928 
L 206.164898 220.098094 
L 212.124694 219.756908 
L 218.08449 219.415723 
L 224.044286 219.074537 
L 230.004082 218.733352 
L 235.963878 218.392166 
L 241.923673 218.05098 
L 247.883469 217.709795 
L 253.843265 217.368609 
L 259.803061 217.027424 
L 265.762857 216.686238 
L 271.722653 216.345053 
L 277.682449 216.003867 
L 283.642245 215.662681 
L 289.602041 215.321496 
L 295.561837 214.98031 
L 301.521633 214.639125 
L 307.481429 214.297939 
L 313.441224 213.956753 
L 319.40102 213.615568 
L 325.360816 213.274382 
L 331.320612 212.933197 
L 337.280408 212.592011 
L 343.240204 212.250825 
L 349.2 211.90964 
" clip-path="url(#pa553656cac)" style="fill: none; stroke: #ff7266; stroke-width: 1.5; stroke-linecap: square"/>
   </g>
   <g id="line2d_32">
    <path d="M 57.17 169.970384 
L 63.129796 167.799866 
L 69.089592 165.629348 
L 75.049388 163.458829 
L 81.009184 161.288311 
L 86.96898 159.117792 
L 92.928776 156.947274 
L 98.888571 154.776755 
L 104.848367 152.606237 
L 110.808163 150.435718 
L 116.767959 148.2652 
L 122.727755 146.094682 
L 128.687551 143.924163 
L 134.647347 141.753645 
L 140.607143 139.583126 
L 146.566939 137.412608 
L 152.526735 135.242089 
L 158.486531 133.071571 
L 164.446327 130.901052 
L 170.406122 128.730534 
L 176.365918 126.560016 
L 182.325714 124.389497 
L 188.28551 122.218979 
L 194.245306 120.04846 
L 200.205102 117.877942 
L 206.164898 115.707423 
L 212.124694 113.536905 
L 218.08449 111.366386 
L 224.044286 109.195868 
L 230.004082 107.025349 
L 235.963878 104.854831 
L 241.923673 102.684313 
L 247.883469 100.513794 
L 253.843265 98.343276 
L 259.803061 96.172757 
L 265.762857 94.002239 
L 271.722653 91.83172 
L 277.682449 89.661202 
L 283.642245 87.490683 
L 289.602041 85.320165 
L 295.561837 83.149647 
L 301.521633 80.979128 
L 307.481429 78.80861 
L 313.441224 76.638091 
L 319.40102 74.467573 
L 325.360816 72.297054 
L 331.320612 70.126536 
L 337.280408 67.956017 
L 343.240204 65.785499 
L 349.2 63.614981 
" clip-path="url(#pa553656cac)" style="fill: none; stroke: #eeb9b9; stroke-width: 1.5; stroke-linecap: square"/>
   </g>
   <g id="line2d_33">
    <path d="M 57.17 229.804875 
L 63.129796 229.461112 
L 69.089592 229.117349 
L 75.049388 228.773586 
L 81.009184 228.429823 
L 86.96898 228.08606 
L 92.928776 227.742297 
L 98.888571 227.398534 
L 104.848367 227.054771 
L 110.808163 226.711009 
L 116.767959 226.367246 
L 122.727755 226.023483 
L 128.687551 225.67972 
L 134.647347 225.335957 
L 140.607143 224.992194 
L 146.566939 224.648431 
L 152.526735 224.304668 
L 158.486531 223.960906 
L 164.446327 223.617143 
L 170.406122 223.27338 
L 176.365918 222.929617 
L 182.325714 222.585854 
L 188.28551 222.242091 
L 194.245306 221.898328 
L 200.205102 221.554565 
L 206.164898 221.210802 
L 212.124694 220.86704 
L 218.08449 220.523277 
L 224.044286 220.179514 
L 230.004082 219.835751 
L 235.963878 219.491988 
L 241.923673 219.148225 
L 247.883469 218.804462 
L 253.843265 218.460699 
L 259.803061 218.116936 
L 265.762857 217.773174 
L 271.722653 217.429411 
L 277.682449 217.085648 
L 283.642245 216.741885 
L 289.602041 216.398122 
L 295.561837 216.054359 
L 301.521633 215.710596 
L 307.481429 215.366833 
L 313.441224 215.023071 
L 319.40102 214.679308 
L 325.360816 214.335545 
L 331.320612 213.991782 
L 337.280408 213.648019 
L 343.240204 213.304256 
L 349.2 212.960493 
" clip-path="url(#pa553656cac)" style="fill: none; stroke: #5e7e66; stroke-width: 1.5; stroke-linecap: square"/>
   </g>
   <g id="line2d_34">
    <path d="M 57.17 225.175728 
L 63.129796 224.835496 
L 69.089592 224.495265 
L 75.049388 224.155033 
L 81.009184 223.814802 
L 86.96898 223.47457 
L 92.928776 223.134339 
L 98.888571 222.794108 
L 104.848367 222.453876 
L 110.808163 222.113645 
L 116.767959 221.773413 
L 122.727755 221.433182 
L 128.687551 221.09295 
L 134.647347 220.752719 
L 140.607143 220.412487 
L 146.566939 220.072256 
L 152.526735 219.732024 
L 158.486531 219.391793 
L 164.446327 219.051561 
L 170.406122 218.71133 
L 176.365918 218.371098 
L 182.325714 218.030867 
L 188.28551 217.690635 
L 194.245306 217.350404 
L 200.205102 217.010172 
L 206.164898 216.669941 
L 212.124694 216.32971 
L 218.08449 215.989478 
L 224.044286 215.649247 
L 230.004082 215.309015 
L 235.963878 214.968784 
L 241.923673 214.628552 
L 247.883469 214.288321 
L 253.843265 213.948089 
L 259.803061 213.607858 
L 265.762857 213.267626 
L 271.722653 212.927395 
L 277.682449 212.587163 
L 283.642245 212.246932 
L 289.602041 211.9067 
L 295.561837 211.566469 
L 301.521633 211.226237 
L 307.481429 210.886006 
L 313.441224 210.545775 
L 319.40102 210.205543 
L 325.360816 209.865312 
L 331.320612 209.52508 
L 337.280408 209.184849 
L 343.240204 208.844617 
L 349.2 208.504386 
" clip-path="url(#pa553656cac)" style="fill: none; stroke: #9be4ff; stroke-width: 1.5; stroke-linecap: square"/>
   </g>
   <g id="patch_3">
    <path d="M 57.17 246.04 
L 57.17 10.8 
" style="fill: none; stroke: #000000; stroke-width: 0.8; stroke-linejoin: miter; stroke-linecap: square"/>
   </g>
   <g id="patch_4">
    <path d="M 349.2 246.04 
L 349.2 10.8 
" style="fill: none; stroke: #000000; stroke-width: 0.8; stroke-linejoin: miter; stroke-linecap: square"/>
   </g>
   <g id="patch_5">
    <path d="M 57.17 246.04 
L 349.2 246.04 
" style="fill: none; stroke: #000000; stroke-width: 0.8; stroke-linejoin: miter; stroke-linecap: square"/>
   </g>
   <g id="patch_6">
    <path d="M 57.17 10.8 
L 349.2 10.8 
" style="fill: none; stroke: #000000; stroke-width: 0.8; stroke-linejoin: miter; stroke-linecap: square"/>
   </g>
   <g id="legend_1">
    <g id="patch_7">
     <path d="M 64.17 180.259375 
L 173.424688 180.259375 
Q 175.424688 180.259375 175.424688 178.259375 
L 175.424688 17.8 
Q 175.424688 15.8 173.424688 15.8 
L 64.17 15.8 
Q 62.17 15.8 62.17 17.8 
L 62.17 178.259375 
Q 62.17 180.259375 64.17 180.259375 
z
" style="fill: #ffffff; opacity: 0.8; stroke: #cccccc; stroke-linejoin: miter"/>
    </g>
    <g id="line2d_35">
     <path d="M 66.17 23.898438 
L 76.17 23.898438 
L 86.17 23.898438 
" style="fill: none; stroke: #d70000; stroke-width: 1.5; stroke-linecap: square"/>
    </g>
    <g id="text_16">
     <!-- AT -->
     <g transform="translate(94.17 27.398438)scale(0.1 -0.1)">
      <defs>
       <path id="DejaVuSans-41" d="M 2188 4044 
L 1331 1722 
L 3047 1722 
L 2188 4044 
z
M 1831 4666 
L 2547 4666 
L 4325 0 
L 3669 0 
L 3244 1197 
L 1141 1197 
L 716 0 
L 50 0 
L 1831 4666 
z
" transform="scale(0.015625)"/>
      </defs>
      <use xlink:href="#DejaVuSans-41"/>
      <use xlink:href="#DejaVuSans-54" x="60.658203"/>
     </g>
    </g>
    <g id="line2d_36">
     <path d="M 66.17 38.576563 
L 76.17 38.576563 
L 86.17 38.576563 
" style="fill: none; stroke: #8c3cff; stroke-width: 1.5; stroke-linecap: square"/>
    </g>
    <g id="text_17">
     <!-- BE -->
     <g transform="translate(94.17 42.076563)scale(0.1 -0.1)">
      <defs>
       <path id="DejaVuSans-42" d="M 1259 2228 
L 1259 519 
L 2272 519 
Q 2781 519 3026 730 
Q 3272 941 3272 1375 
Q 3272 1813 3026 2020 
Q 2781 2228 2272 2228 
L 1259 2228 
z
M 1259 4147 
L 1259 2741 
L 2194 2741 
Q 2656 2741 2882 2914 
Q 3109 3088 3109 3444 
Q 3109 3797 2882 3972 
Q 2656 4147 2194 4147 
L 1259 4147 
z
M 628 4666 
L 2241 4666 
Q 2963 4666 3353 4366 
Q 3744 4066 3744 3513 
Q 3744 3084 3544 2831 
Q 3344 2578 2956 2516 
Q 3422 2416 3680 2098 
Q 3938 1781 3938 1306 
Q 3938 681 3513 340 
Q 3088 0 2303 0 
L 628 0 
L 628 4666 
z
" transform="scale(0.015625)"/>
       <path id="DejaVuSans-45" d="M 628 4666 
L 3578 4666 
L 3578 4134 
L 1259 4134 
L 1259 2753 
L 3481 2753 
L 3481 2222 
L 1259 2222 
L 1259 531 
L 3634 531 
L 3634 0 
L 628 0 
L 628 4666 
z
" transform="scale(0.015625)"/>
      </defs>
      <use xlink:href="#DejaVuSans-42"/>
      <use xlink:href="#DejaVuSans-45" x="68.603516"/>
     </g>
    </g>
    <g id="line2d_37">
     <path d="M 66.17 53.254688 
L 76.17 53.254688 
L 86.17 53.254688 
" style="fill: none; stroke: #028800; stroke-width: 1.5; stroke-linecap: square"/>
    </g>
    <g id="text_18">
     <!-- BG -->
     <g transform="translate(94.17 56.754688)scale(0.1 -0.1)">
      <defs>
       <path id="DejaVuSans-47" d="M 3809 666 
L 3809 1919 
L 2778 1919 
L 2778 2438 
L 4434 2438 
L 4434 434 
Q 4069 175 3628 42 
Q 3188 -91 2688 -91 
Q 1594 -91 976 548 
Q 359 1188 359 2328 
Q 359 3472 976 4111 
Q 1594 4750 2688 4750 
Q 3144 4750 3555 4637 
Q 3966 4525 4313 4306 
L 4313 3634 
Q 3963 3931 3569 4081 
Q 3175 4231 2741 4231 
Q 1884 4231 1454 3753 
Q 1025 3275 1025 2328 
Q 1025 1384 1454 906 
Q 1884 428 2741 428 
Q 3075 428 3337 486 
Q 3600 544 3809 666 
z
" transform="scale(0.015625)"/>
      </defs>
      <use xlink:href="#DejaVuSans-42"/>
      <use xlink:href="#DejaVuSans-47" x="66.853516"/>
     </g>
    </g>
    <g id="line2d_38">
     <path d="M 66.17 67.932813 
L 76.17 67.932813 
L 86.17 67.932813 
" style="fill: none; stroke: #98ff00; stroke-width: 1.5; stroke-linecap: square"/>
    </g>
    <g id="text_19">
     <!-- CZ -->
     <g transform="translate(94.17 71.432813)scale(0.1 -0.1)">
      <defs>
       <path id="DejaVuSans-43" d="M 4122 4306 
L 4122 3641 
Q 3803 3938 3442 4084 
Q 3081 4231 2675 4231 
Q 1875 4231 1450 3742 
Q 1025 3253 1025 2328 
Q 1025 1406 1450 917 
Q 1875 428 2675 428 
Q 3081 428 3442 575 
Q 3803 722 4122 1019 
L 4122 359 
Q 3791 134 3420 21 
Q 3050 -91 2638 -91 
Q 1578 -91 968 557 
Q 359 1206 359 2328 
Q 359 3453 968 4101 
Q 1578 4750 2638 4750 
Q 3056 4750 3426 4639 
Q 3797 4528 4122 4306 
z
" transform="scale(0.015625)"/>
       <path id="DejaVuSans-5a" d="M 359 4666 
L 4025 4666 
L 4025 4184 
L 1075 531 
L 4097 531 
L 4097 0 
L 288 0 
L 288 481 
L 3238 4134 
L 359 4134 
L 359 4666 
z
" transform="scale(0.015625)"/>
      </defs>
      <use xlink:href="#DejaVuSans-43"/>
      <use xlink:href="#DejaVuSans-5a" x="69.824219"/>
     </g>
    </g>
    <g id="line2d_39">
     <path d="M 66.17 82.610938 
L 76.17 82.610938 
L 86.17 82.610938 
" style="fill: none; stroke: #ff7fd1; stroke-width: 1.5; stroke-linecap: square"/>
    </g>
    <g id="text_20">
     <!-- DE -->
     <g transform="translate(94.17 86.110938)scale(0.1 -0.1)">
      <use xlink:href="#DejaVuSans-44"/>
      <use xlink:href="#DejaVuSans-45" x="77.001953"/>
     </g>
    </g>
    <g id="line2d_40">
     <path d="M 66.17 97.289062 
L 76.17 97.289062 
L 86.17 97.289062 
" style="fill: none; stroke: #6c004f; stroke-width: 1.5; stroke-linecap: square"/>
    </g>
    <g id="text_21">
     <!-- DK -->
     <g transform="translate(94.17 100.789062)scale(0.1 -0.1)">
      <defs>
       <path id="DejaVuSans-4b" d="M 628 4666 
L 1259 4666 
L 1259 2694 
L 3353 4666 
L 4166 4666 
L 1850 2491 
L 4331 0 
L 3500 0 
L 1259 2247 
L 1259 0 
L 628 0 
L 628 4666 
z
" transform="scale(0.015625)"/>
      </defs>
      <use xlink:href="#DejaVuSans-44"/>
      <use xlink:href="#DejaVuSans-4b" x="77.001953"/>
     </g>
    </g>
    <g id="line2d_41">
     <path d="M 66.17 111.967188 
L 76.17 111.967188 
L 86.17 111.967188 
" style="fill: none; stroke: #583b00; stroke-width: 1.5; stroke-linecap: square"/>
    </g>
    <g id="text_22">
     <!-- EL -->
     <g transform="translate(94.17 115.467188)scale(0.1 -0.1)">
      <defs>
       <path id="DejaVuSans-4c" d="M 628 4666 
L 1259 4666 
L 1259 531 
L 3531 531 
L 3531 0 
L 628 0 
L 628 4666 
z
" transform="scale(0.015625)"/>
      </defs>
      <use xlink:href="#DejaVuSans-45"/>
      <use xlink:href="#DejaVuSans-4c" x="63.183594"/>
     </g>
    </g>
    <g id="line2d_42">
     <path d="M 66.17 126.645312 
L 76.17 126.645312 
L 86.17 126.645312 
" style="fill: none; stroke: #005759; stroke-width: 1.5; stroke-linecap: square"/>
    </g>
    <g id="text_23">
     <!-- ES -->
     <g transform="translate(94.17 130.145312)scale(0.1 -0.1)">
      <defs>
       <path id="DejaVuSans-53" d="M 3425 4513 
L 3425 3897 
Q 3066 4069 2747 4153 
Q 2428 4238 2131 4238 
Q 1616 4238 1336 4038 
Q 1056 3838 1056 3469 
Q 1056 3159 1242 3001 
Q 1428 2844 1947 2747 
L 2328 2669 
Q 3034 2534 3370 2195 
Q 3706 1856 3706 1288 
Q 3706 609 3251 259 
Q 2797 -91 1919 -91 
Q 1588 -91 1214 -16 
Q 841 59 441 206 
L 441 856 
Q 825 641 1194 531 
Q 1563 422 1919 422 
Q 2459 422 2753 634 
Q 3047 847 3047 1241 
Q 3047 1584 2836 1778 
Q 2625 1972 2144 2069 
L 1759 2144 
Q 1053 2284 737 2584 
Q 422 2884 422 3419 
Q 422 4038 858 4394 
Q 1294 4750 2059 4750 
Q 2388 4750 2728 4690 
Q 3069 4631 3425 4513 
z
" transform="scale(0.015625)"/>
      </defs>
      <use xlink:href="#DejaVuSans-45"/>
      <use xlink:href="#DejaVuSans-53" x="63.183594"/>
     </g>
    </g>
    <g id="line2d_43">
     <path d="M 66.17 141.323438 
L 76.17 141.323438 
L 86.17 141.323438 
" style="fill: none; stroke: #0000dd; stroke-width: 1.5; stroke-linecap: square"/>
    </g>
    <g id="text_24">
     <!-- FI -->
     <g transform="translate(94.17 144.823438)scale(0.1 -0.1)">
      <defs>
       <path id="DejaVuSans-46" d="M 628 4666 
L 3309 4666 
L 3309 4134 
L 1259 4134 
L 1259 2759 
L 3109 2759 
L 3109 2228 
L 1259 2228 
L 1259 0 
L 628 0 
L 628 4666 
z
" transform="scale(0.015625)"/>
       <path id="DejaVuSans-49" d="M 628 4666 
L 1259 4666 
L 1259 0 
L 628 0 
L 628 4666 
z
" transform="scale(0.015625)"/>
      </defs>
      <use xlink:href="#DejaVuSans-46"/>
      <use xlink:href="#DejaVuSans-49" x="57.519531"/>
     </g>
    </g>
    <g id="line2d_44">
     <path d="M 66.17 156.001562 
L 76.17 156.001562 
L 86.17 156.001562 
" style="fill: none; stroke: #bcb7ff; stroke-width: 1.5; stroke-linecap: square"/>
    </g>
    <g id="text_25">
     <!-- IE -->
     <g transform="translate(94.17 159.501562)scale(0.1 -0.1)">
      <use xlink:href="#DejaVuSans-49"/>
      <use xlink:href="#DejaVuSans-45" x="29.492188"/>
     </g>
    </g>
    <g id="line2d_45">
     <path d="M 66.17 170.679687 
L 76.17 170.679687 
L 86.17 170.679687 
" style="fill: none; stroke: #95b578; stroke-width: 1.5; stroke-linecap: square"/>
    </g>
    <g id="text_26">
     <!-- IT -->
     <g transform="translate(94.17 174.179687)scale(0.1 -0.1)">
      <use xlink:href="#DejaVuSans-49"/>
      <use xlink:href="#DejaVuSans-54" x="29.492188"/>
     </g>
    </g>
    <g id="line2d_46">
     <path d="M 128.604375 23.898438 
L 138.604375 23.898438 
L 148.604375 23.898438 
" style="fill: none; stroke: #c004b9; stroke-width: 1.5; stroke-linecap: square"/>
    </g>
    <g id="text_27">
     <!-- LT -->
     <g transform="translate(156.604375 27.398438)scale(0.1 -0.1)">
      <use xlink:href="#DejaVuSans-4c"/>
      <use xlink:href="#DejaVuSans-54" x="41.962891"/>
     </g>
    </g>
    <g id="line2d_47">
     <path d="M 128.604375 38.576563 
L 138.604375 38.576563 
L 148.604375 38.576563 
" style="fill: none; stroke: #790000; stroke-width: 1.5; stroke-linecap: square"/>
    </g>
    <g id="text_28">
     <!-- LV -->
     <g transform="translate(156.604375 42.076563)scale(0.1 -0.1)">
      <defs>
       <path id="DejaVuSans-56" d="M 1831 0 
L 50 4666 
L 709 4666 
L 2188 738 
L 3669 4666 
L 4325 4666 
L 2547 0 
L 1831 0 
z
" transform="scale(0.015625)"/>
      </defs>
      <use xlink:href="#DejaVuSans-4c"/>
      <use xlink:href="#DejaVuSans-56" x="44.712891"/>
     </g>
    </g>
    <g id="line2d_48">
     <path d="M 128.604375 53.254688 
L 138.604375 53.254688 
L 148.604375 53.254688 
" style="fill: none; stroke: #0774d8; stroke-width: 1.5; stroke-linecap: square"/>
    </g>
    <g id="text_29">
     <!-- MT -->
     <g transform="translate(156.604375 56.754688)scale(0.1 -0.1)">
      <defs>
       <path id="DejaVuSans-4d" d="M 628 4666 
L 1569 4666 
L 2759 1491 
L 3956 4666 
L 4897 4666 
L 4897 0 
L 4281 0 
L 4281 4097 
L 3078 897 
L 2444 897 
L 1241 4097 
L 1241 0 
L 628 0 
L 628 4666 
z
" transform="scale(0.015625)"/>
      </defs>
      <use xlink:href="#DejaVuSans-4d"/>
      <use xlink:href="#DejaVuSans-54" x="86.279297"/>
     </g>
    </g>
    <g id="line2d_49">
     <path d="M 128.604375 67.932813 
L 138.604375 67.932813 
L 148.604375 67.932813 
" style="fill: none; stroke: #fef590; stroke-width: 1.5; stroke-linecap: square"/>
    </g>
    <g id="text_30">
     <!-- NL -->
     <g transform="translate(156.604375 71.432813)scale(0.1 -0.1)">
      <use xlink:href="#DejaVuSans-4e"/>
      <use xlink:href="#DejaVuSans-4c" x="74.804688"/>
     </g>
    </g>
    <g id="line2d_50">
     <path d="M 128.604375 82.610938 
L 138.604375 82.610938 
L 148.604375 82.610938 
" style="fill: none; stroke: #004b00; stroke-width: 1.5; stroke-linecap: square"/>
    </g>
    <g id="text_31">
     <!-- PL -->
     <g transform="translate(156.604375 86.110938)scale(0.1 -0.1)">
      <defs>
       <path id="DejaVuSans-50" d="M 1259 4147 
L 1259 2394 
L 2053 2394 
Q 2494 2394 2734 2622 
Q 2975 2850 2975 3272 
Q 2975 3691 2734 3919 
Q 2494 4147 2053 4147 
L 1259 4147 
z
M 628 4666 
L 2053 4666 
Q 2838 4666 3239 4311 
Q 3641 3956 3641 3272 
Q 3641 2581 3239 2228 
Q 2838 1875 2053 1875 
L 1259 1875 
L 1259 0 
L 628 0 
L 628 4666 
z
" transform="scale(0.015625)"/>
      </defs>
      <use xlink:href="#DejaVuSans-50"/>
      <use xlink:href="#DejaVuSans-4c" x="60.302734"/>
     </g>
    </g>
    <g id="line2d_51">
     <path d="M 128.604375 97.289062 
L 138.604375 97.289062 
L 148.604375 97.289062 
" style="fill: none; stroke: #8f7a00; stroke-width: 1.5; stroke-linecap: square"/>
    </g>
    <g id="text_32">
     <!-- PT -->
     <g transform="translate(156.604375 100.789062)scale(0.1 -0.1)">
      <use xlink:href="#DejaVuSans-50"/>
      <use xlink:href="#DejaVuSans-54" x="60.302734"/>
     </g>
    </g>
    <g id="line2d_52">
     <path d="M 128.604375 111.967188 
L 138.604375 111.967188 
L 148.604375 111.967188 
" style="fill: none; stroke: #ff7266; stroke-width: 1.5; stroke-linecap: square"/>
    </g>
    <g id="text_33">
     <!-- RO -->
     <g transform="translate(156.604375 115.467188)scale(0.1 -0.1)">
      <defs>
       <path id="DejaVuSans-52" d="M 2841 2188 
Q 3044 2119 3236 1894 
Q 3428 1669 3622 1275 
L 4263 0 
L 3584 0 
L 2988 1197 
Q 2756 1666 2539 1819 
Q 2322 1972 1947 1972 
L 1259 1972 
L 1259 0 
L 628 0 
L 628 4666 
L 2053 4666 
Q 2853 4666 3247 4331 
Q 3641 3997 3641 3322 
Q 3641 2881 3436 2590 
Q 3231 2300 2841 2188 
z
M 1259 4147 
L 1259 2491 
L 2053 2491 
Q 2509 2491 2742 2702 
Q 2975 2913 2975 3322 
Q 2975 3731 2742 3939 
Q 2509 4147 2053 4147 
L 1259 4147 
z
" transform="scale(0.015625)"/>
       <path id="DejaVuSans-4f" d="M 2522 4238 
Q 1834 4238 1429 3725 
Q 1025 3213 1025 2328 
Q 1025 1447 1429 934 
Q 1834 422 2522 422 
Q 3209 422 3611 934 
Q 4013 1447 4013 2328 
Q 4013 3213 3611 3725 
Q 3209 4238 2522 4238 
z
M 2522 4750 
Q 3503 4750 4090 4092 
Q 4678 3434 4678 2328 
Q 4678 1225 4090 567 
Q 3503 -91 2522 -91 
Q 1538 -91 948 565 
Q 359 1222 359 2328 
Q 359 3434 948 4092 
Q 1538 4750 2522 4750 
z
" transform="scale(0.015625)"/>
      </defs>
      <use xlink:href="#DejaVuSans-52"/>
      <use xlink:href="#DejaVuSans-4f" x="69.482422"/>
     </g>
    </g>
    <g id="line2d_53">
     <path d="M 128.604375 126.645312 
L 138.604375 126.645312 
L 148.604375 126.645312 
" style="fill: none; stroke: #eeb9b9; stroke-width: 1.5; stroke-linecap: square"/>
    </g>
    <g id="text_34">
     <!-- SE -->
     <g transform="translate(156.604375 130.145312)scale(0.1 -0.1)">
      <use xlink:href="#DejaVuSans-53"/>
      <use xlink:href="#DejaVuSans-45" x="63.476562"/>
     </g>
    </g>
    <g id="line2d_54">
     <path d="M 128.604375 141.323438 
L 138.604375 141.323438 
L 148.604375 141.323438 
" style="fill: none; stroke: #5e7e66; stroke-width: 1.5; stroke-linecap: square"/>
    </g>
    <g id="text_35">
     <!-- SI -->
     <g transform="translate(156.604375 144.823438)scale(0.1 -0.1)">
      <use xlink:href="#DejaVuSans-53"/>
      <use xlink:href="#DejaVuSans-49" x="63.476562"/>
     </g>
    </g>
    <g id="line2d_55">
     <path d="M 128.604375 156.001562 
L 138.604375 156.001562 
L 148.604375 156.001562 
" style="fill: none; stroke: #9be4ff; stroke-width: 1.5; stroke-linecap: square"/>
    </g>
    <g id="text_36">
     <!-- SK -->
     <g transform="translate(156.604375 159.501562)scale(0.1 -0.1)">
      <use xlink:href="#DejaVuSans-53"/>
      <use xlink:href="#DejaVuSans-4b" x="63.476562"/>
     </g>
    </g>
   </g>
  </g>
 </g>
 <defs>
  <clipPath id="pa553656cac">
   <rect x="57.17" y="10.8" width="292.03" height="235.24"/>
  </clipPath>
 </defs>
</svg>
