<?xml version="1.0" encoding="utf-8" standalone="no"?>
<!DOCTYPE svg PUBLIC "-//W3C//DTD SVG 1.1//EN"
  "http://www.w3.org/Graphics/SVG/1.1/DTD/svg11.dtd">
<svg xmlns:xlink="http://www.w3.org/1999/xlink" width="360pt" height="288pt" viewBox="0 0 360 288" xmlns="http://www.w3.org/2000/svg" version="1.1">
 <metadata>
  <rdf:RDF xmlns:dc="http://purl.org/dc/elements/1.1/" xmlns:cc="http://creativecommons.org/ns#" xmlns:rdf="http://www.w3.org/1999/02/22-rdf-syntax-ns#">
   <cc:Work>
    <dc:type rdf:resource="http://purl.org/dc/dcmitype/StillImage"/>
    <dc:date>2024-01-29T16:59:01.806322</dc:date>
    <dc:format>image/svg+xml</dc:format>
    <dc:creator>
     <cc:Agent>
      <dc:title>Matplotlib v3.5.1, https://matplotlib.org/</dc:title>
     </cc:Agent>
    </dc:creator>
   </cc:Work>
  </rdf:RDF>
 </metadata>
 <defs>
  <style type="text/css">*{stroke-linejoin: round; stroke-linecap: butt}</style>
 </defs>
 <g id="figure_1">
  <g id="patch_1">
   <path d="M 0 288 
L 360 288 
L 360 0 
L 0 0 
L 0 288 
z
" style="fill: none"/>
  </g>
  <g id="axes_1">
   <g id="patch_2">
    <path d="M 57.17 246.04 
L 349.2 246.04 
L 349.2 10.8 
L 57.17 10.8 
L 57.17 246.04 
z
" style="fill: none"/>
   </g>
   <g id="matplotlib.axis_1">
    <g id="xtick_1">
     <g id="line2d_1">
      <defs>
       <path id="md2924b3e9a" d="M 0 0 
L 0 3.5 
" style="stroke: #000000; stroke-width: 0.8"/>
      </defs>
      <g>
       <use xlink:href="#md2924b3e9a" x="116.126534" y="246.04" style="stroke: #000000; stroke-width: 0.8"/>
      </g>
     </g>
     <g id="text_1">
      <!-- 50 -->
      <g transform="translate(109.764034 260.638438)scale(0.1 -0.1)">
       <defs>
        <path id="DejaVuSans-35" d="M 691 4666 
L 3169 4666 
L 3169 4134 
L 1269 4134 
L 1269 2991 
Q 1406 3038 1543 3061 
Q 1681 3084 1819 3084 
Q 2600 3084 3056 2656 
Q 3513 2228 3513 1497 
Q 3513 744 3044 326 
Q 2575 -91 1722 -91 
Q 1428 -91 1123 -41 
Q 819 9 494 109 
L 494 744 
Q 775 591 1075 516 
Q 1375 441 1709 441 
Q 2250 441 2565 725 
Q 2881 1009 2881 1497 
Q 2881 1984 2565 2268 
Q 2250 2553 1709 2553 
Q 1456 2553 1204 2497 
Q 953 2441 691 2322 
L 691 4666 
z
" transform="scale(0.015625)"/>
        <path id="DejaVuSans-30" d="M 2034 4250 
Q 1547 4250 1301 3770 
Q 1056 3291 1056 2328 
Q 1056 1369 1301 889 
Q 1547 409 2034 409 
Q 2525 409 2770 889 
Q 3016 1369 3016 2328 
Q 3016 3291 2770 3770 
Q 2525 4250 2034 4250 
z
M 2034 4750 
Q 2819 4750 3233 4129 
Q 3647 3509 3647 2328 
Q 3647 1150 3233 529 
Q 2819 -91 2034 -91 
Q 1250 -91 836 529 
Q 422 1150 422 2328 
Q 422 3509 836 4129 
Q 1250 4750 2034 4750 
z
" transform="scale(0.015625)"/>
       </defs>
       <use xlink:href="#DejaVuSans-35"/>
       <use xlink:href="#DejaVuSans-30" x="63.623047"/>
      </g>
     </g>
    </g>
    <g id="xtick_2">
     <g id="line2d_2">
      <g>
       <use xlink:href="#md2924b3e9a" x="175.553731" y="246.04" style="stroke: #000000; stroke-width: 0.8"/>
      </g>
     </g>
     <g id="text_2">
      <!-- 100 -->
      <g transform="translate(166.009981 260.638438)scale(0.1 -0.1)">
       <defs>
        <path id="DejaVuSans-31" d="M 794 531 
L 1825 531 
L 1825 4091 
L 703 3866 
L 703 4441 
L 1819 4666 
L 2450 4666 
L 2450 531 
L 3481 531 
L 3481 0 
L 794 0 
L 794 531 
z
" transform="scale(0.015625)"/>
       </defs>
       <use xlink:href="#DejaVuSans-31"/>
       <use xlink:href="#DejaVuSans-30" x="63.623047"/>
       <use xlink:href="#DejaVuSans-30" x="127.246094"/>
      </g>
     </g>
    </g>
    <g id="xtick_3">
     <g id="line2d_3">
      <g>
       <use xlink:href="#md2924b3e9a" x="234.980927" y="246.04" style="stroke: #000000; stroke-width: 0.8"/>
      </g>
     </g>
     <g id="text_3">
      <!-- 150 -->
      <g transform="translate(225.437177 260.638438)scale(0.1 -0.1)">
       <use xlink:href="#DejaVuSans-31"/>
       <use xlink:href="#DejaVuSans-35" x="63.623047"/>
       <use xlink:href="#DejaVuSans-30" x="127.246094"/>
      </g>
     </g>
    </g>
    <g id="xtick_4">
     <g id="line2d_4">
      <g>
       <use xlink:href="#md2924b3e9a" x="294.408124" y="246.04" style="stroke: #000000; stroke-width: 0.8"/>
      </g>
     </g>
     <g id="text_4">
      <!-- 200 -->
      <g transform="translate(284.864374 260.638438)scale(0.1 -0.1)">
       <defs>
        <path id="DejaVuSans-32" d="M 1228 531 
L 3431 531 
L 3431 0 
L 469 0 
L 469 531 
Q 828 903 1448 1529 
Q 2069 2156 2228 2338 
Q 2531 2678 2651 2914 
Q 2772 3150 2772 3378 
Q 2772 3750 2511 3984 
Q 2250 4219 1831 4219 
Q 1534 4219 1204 4116 
Q 875 4013 500 3803 
L 500 4441 
Q 881 4594 1212 4672 
Q 1544 4750 1819 4750 
Q 2544 4750 2975 4387 
Q 3406 4025 3406 3419 
Q 3406 3131 3298 2873 
Q 3191 2616 2906 2266 
Q 2828 2175 2409 1742 
Q 1991 1309 1228 531 
z
" transform="scale(0.015625)"/>
       </defs>
       <use xlink:href="#DejaVuSans-32"/>
       <use xlink:href="#DejaVuSans-30" x="63.623047"/>
       <use xlink:href="#DejaVuSans-30" x="127.246094"/>
      </g>
     </g>
    </g>
    <g id="text_5">
     <!-- Unemployment Rate (per 1000 citizens) -->
     <g transform="translate(103.038906 274.316562)scale(0.1 -0.1)">
      <defs>
       <path id="DejaVuSans-55" d="M 556 4666 
L 1191 4666 
L 1191 1831 
Q 1191 1081 1462 751 
Q 1734 422 2344 422 
Q 2950 422 3222 751 
Q 3494 1081 3494 1831 
L 3494 4666 
L 4128 4666 
L 4128 1753 
Q 4128 841 3676 375 
Q 3225 -91 2344 -91 
Q 1459 -91 1007 375 
Q 556 841 556 1753 
L 556 4666 
z
" transform="scale(0.015625)"/>
       <path id="DejaVuSans-6e" d="M 3513 2113 
L 3513 0 
L 2938 0 
L 2938 2094 
Q 2938 2591 2744 2837 
Q 2550 3084 2163 3084 
Q 1697 3084 1428 2787 
Q 1159 2491 1159 1978 
L 1159 0 
L 581 0 
L 581 3500 
L 1159 3500 
L 1159 2956 
Q 1366 3272 1645 3428 
Q 1925 3584 2291 3584 
Q 2894 3584 3203 3211 
Q 3513 2838 3513 2113 
z
" transform="scale(0.015625)"/>
       <path id="DejaVuSans-65" d="M 3597 1894 
L 3597 1613 
L 953 1613 
Q 991 1019 1311 708 
Q 1631 397 2203 397 
Q 2534 397 2845 478 
Q 3156 559 3463 722 
L 3463 178 
Q 3153 47 2828 -22 
Q 2503 -91 2169 -91 
Q 1331 -91 842 396 
Q 353 884 353 1716 
Q 353 2575 817 3079 
Q 1281 3584 2069 3584 
Q 2775 3584 3186 3129 
Q 3597 2675 3597 1894 
z
M 3022 2063 
Q 3016 2534 2758 2815 
Q 2500 3097 2075 3097 
Q 1594 3097 1305 2825 
Q 1016 2553 972 2059 
L 3022 2063 
z
" transform="scale(0.015625)"/>
       <path id="DejaVuSans-6d" d="M 3328 2828 
Q 3544 3216 3844 3400 
Q 4144 3584 4550 3584 
Q 5097 3584 5394 3201 
Q 5691 2819 5691 2113 
L 5691 0 
L 5113 0 
L 5113 2094 
Q 5113 2597 4934 2840 
Q 4756 3084 4391 3084 
Q 3944 3084 3684 2787 
Q 3425 2491 3425 1978 
L 3425 0 
L 2847 0 
L 2847 2094 
Q 2847 2600 2669 2842 
Q 2491 3084 2119 3084 
Q 1678 3084 1418 2786 
Q 1159 2488 1159 1978 
L 1159 0 
L 581 0 
L 581 3500 
L 1159 3500 
L 1159 2956 
Q 1356 3278 1631 3431 
Q 1906 3584 2284 3584 
Q 2666 3584 2933 3390 
Q 3200 3197 3328 2828 
z
" transform="scale(0.015625)"/>
       <path id="DejaVuSans-70" d="M 1159 525 
L 1159 -1331 
L 581 -1331 
L 581 3500 
L 1159 3500 
L 1159 2969 
Q 1341 3281 1617 3432 
Q 1894 3584 2278 3584 
Q 2916 3584 3314 3078 
Q 3713 2572 3713 1747 
Q 3713 922 3314 415 
Q 2916 -91 2278 -91 
Q 1894 -91 1617 61 
Q 1341 213 1159 525 
z
M 3116 1747 
Q 3116 2381 2855 2742 
Q 2594 3103 2138 3103 
Q 1681 3103 1420 2742 
Q 1159 2381 1159 1747 
Q 1159 1113 1420 752 
Q 1681 391 2138 391 
Q 2594 391 2855 752 
Q 3116 1113 3116 1747 
z
" transform="scale(0.015625)"/>
       <path id="DejaVuSans-6c" d="M 603 4863 
L 1178 4863 
L 1178 0 
L 603 0 
L 603 4863 
z
" transform="scale(0.015625)"/>
       <path id="DejaVuSans-6f" d="M 1959 3097 
Q 1497 3097 1228 2736 
Q 959 2375 959 1747 
Q 959 1119 1226 758 
Q 1494 397 1959 397 
Q 2419 397 2687 759 
Q 2956 1122 2956 1747 
Q 2956 2369 2687 2733 
Q 2419 3097 1959 3097 
z
M 1959 3584 
Q 2709 3584 3137 3096 
Q 3566 2609 3566 1747 
Q 3566 888 3137 398 
Q 2709 -91 1959 -91 
Q 1206 -91 779 398 
Q 353 888 353 1747 
Q 353 2609 779 3096 
Q 1206 3584 1959 3584 
z
" transform="scale(0.015625)"/>
       <path id="DejaVuSans-79" d="M 2059 -325 
Q 1816 -950 1584 -1140 
Q 1353 -1331 966 -1331 
L 506 -1331 
L 506 -850 
L 844 -850 
Q 1081 -850 1212 -737 
Q 1344 -625 1503 -206 
L 1606 56 
L 191 3500 
L 800 3500 
L 1894 763 
L 2988 3500 
L 3597 3500 
L 2059 -325 
z
" transform="scale(0.015625)"/>
       <path id="DejaVuSans-74" d="M 1172 4494 
L 1172 3500 
L 2356 3500 
L 2356 3053 
L 1172 3053 
L 1172 1153 
Q 1172 725 1289 603 
Q 1406 481 1766 481 
L 2356 481 
L 2356 0 
L 1766 0 
Q 1100 0 847 248 
Q 594 497 594 1153 
L 594 3053 
L 172 3053 
L 172 3500 
L 594 3500 
L 594 4494 
L 1172 4494 
z
" transform="scale(0.015625)"/>
       <path id="DejaVuSans-20" transform="scale(0.015625)"/>
       <path id="DejaVuSans-52" d="M 2841 2188 
Q 3044 2119 3236 1894 
Q 3428 1669 3622 1275 
L 4263 0 
L 3584 0 
L 2988 1197 
Q 2756 1666 2539 1819 
Q 2322 1972 1947 1972 
L 1259 1972 
L 1259 0 
L 628 0 
L 628 4666 
L 2053 4666 
Q 2853 4666 3247 4331 
Q 3641 3997 3641 3322 
Q 3641 2881 3436 2590 
Q 3231 2300 2841 2188 
z
M 1259 4147 
L 1259 2491 
L 2053 2491 
Q 2509 2491 2742 2702 
Q 2975 2913 2975 3322 
Q 2975 3731 2742 3939 
Q 2509 4147 2053 4147 
L 1259 4147 
z
" transform="scale(0.015625)"/>
       <path id="DejaVuSans-61" d="M 2194 1759 
Q 1497 1759 1228 1600 
Q 959 1441 959 1056 
Q 959 750 1161 570 
Q 1363 391 1709 391 
Q 2188 391 2477 730 
Q 2766 1069 2766 1631 
L 2766 1759 
L 2194 1759 
z
M 3341 1997 
L 3341 0 
L 2766 0 
L 2766 531 
Q 2569 213 2275 61 
Q 1981 -91 1556 -91 
Q 1019 -91 701 211 
Q 384 513 384 1019 
Q 384 1609 779 1909 
Q 1175 2209 1959 2209 
L 2766 2209 
L 2766 2266 
Q 2766 2663 2505 2880 
Q 2244 3097 1772 3097 
Q 1472 3097 1187 3025 
Q 903 2953 641 2809 
L 641 3341 
Q 956 3463 1253 3523 
Q 1550 3584 1831 3584 
Q 2591 3584 2966 3190 
Q 3341 2797 3341 1997 
z
" transform="scale(0.015625)"/>
       <path id="DejaVuSans-28" d="M 1984 4856 
Q 1566 4138 1362 3434 
Q 1159 2731 1159 2009 
Q 1159 1288 1364 580 
Q 1569 -128 1984 -844 
L 1484 -844 
Q 1016 -109 783 600 
Q 550 1309 550 2009 
Q 550 2706 781 3412 
Q 1013 4119 1484 4856 
L 1984 4856 
z
" transform="scale(0.015625)"/>
       <path id="DejaVuSans-72" d="M 2631 2963 
Q 2534 3019 2420 3045 
Q 2306 3072 2169 3072 
Q 1681 3072 1420 2755 
Q 1159 2438 1159 1844 
L 1159 0 
L 581 0 
L 581 3500 
L 1159 3500 
L 1159 2956 
Q 1341 3275 1631 3429 
Q 1922 3584 2338 3584 
Q 2397 3584 2469 3576 
Q 2541 3569 2628 3553 
L 2631 2963 
z
" transform="scale(0.015625)"/>
       <path id="DejaVuSans-63" d="M 3122 3366 
L 3122 2828 
Q 2878 2963 2633 3030 
Q 2388 3097 2138 3097 
Q 1578 3097 1268 2742 
Q 959 2388 959 1747 
Q 959 1106 1268 751 
Q 1578 397 2138 397 
Q 2388 397 2633 464 
Q 2878 531 3122 666 
L 3122 134 
Q 2881 22 2623 -34 
Q 2366 -91 2075 -91 
Q 1284 -91 818 406 
Q 353 903 353 1747 
Q 353 2603 823 3093 
Q 1294 3584 2113 3584 
Q 2378 3584 2631 3529 
Q 2884 3475 3122 3366 
z
" transform="scale(0.015625)"/>
       <path id="DejaVuSans-69" d="M 603 3500 
L 1178 3500 
L 1178 0 
L 603 0 
L 603 3500 
z
M 603 4863 
L 1178 4863 
L 1178 4134 
L 603 4134 
L 603 4863 
z
" transform="scale(0.015625)"/>
       <path id="DejaVuSans-7a" d="M 353 3500 
L 3084 3500 
L 3084 2975 
L 922 459 
L 3084 459 
L 3084 0 
L 275 0 
L 275 525 
L 2438 3041 
L 353 3041 
L 353 3500 
z
" transform="scale(0.015625)"/>
       <path id="DejaVuSans-73" d="M 2834 3397 
L 2834 2853 
Q 2591 2978 2328 3040 
Q 2066 3103 1784 3103 
Q 1356 3103 1142 2972 
Q 928 2841 928 2578 
Q 928 2378 1081 2264 
Q 1234 2150 1697 2047 
L 1894 2003 
Q 2506 1872 2764 1633 
Q 3022 1394 3022 966 
Q 3022 478 2636 193 
Q 2250 -91 1575 -91 
Q 1294 -91 989 -36 
Q 684 19 347 128 
L 347 722 
Q 666 556 975 473 
Q 1284 391 1588 391 
Q 1994 391 2212 530 
Q 2431 669 2431 922 
Q 2431 1156 2273 1281 
Q 2116 1406 1581 1522 
L 1381 1569 
Q 847 1681 609 1914 
Q 372 2147 372 2553 
Q 372 3047 722 3315 
Q 1072 3584 1716 3584 
Q 2034 3584 2315 3537 
Q 2597 3491 2834 3397 
z
" transform="scale(0.015625)"/>
       <path id="DejaVuSans-29" d="M 513 4856 
L 1013 4856 
Q 1481 4119 1714 3412 
Q 1947 2706 1947 2009 
Q 1947 1309 1714 600 
Q 1481 -109 1013 -844 
L 513 -844 
Q 928 -128 1133 580 
Q 1338 1288 1338 2009 
Q 1338 2731 1133 3434 
Q 928 4138 513 4856 
z
" transform="scale(0.015625)"/>
      </defs>
      <use xlink:href="#DejaVuSans-55"/>
      <use xlink:href="#DejaVuSans-6e" x="73.193359"/>
      <use xlink:href="#DejaVuSans-65" x="136.572266"/>
      <use xlink:href="#DejaVuSans-6d" x="198.095703"/>
      <use xlink:href="#DejaVuSans-70" x="295.507812"/>
      <use xlink:href="#DejaVuSans-6c" x="358.984375"/>
      <use xlink:href="#DejaVuSans-6f" x="386.767578"/>
      <use xlink:href="#DejaVuSans-79" x="447.949219"/>
      <use xlink:href="#DejaVuSans-6d" x="507.128906"/>
      <use xlink:href="#DejaVuSans-65" x="604.541016"/>
      <use xlink:href="#DejaVuSans-6e" x="666.064453"/>
      <use xlink:href="#DejaVuSans-74" x="729.443359"/>
      <use xlink:href="#DejaVuSans-20" x="768.652344"/>
      <use xlink:href="#DejaVuSans-52" x="800.439453"/>
      <use xlink:href="#DejaVuSans-61" x="867.671875"/>
      <use xlink:href="#DejaVuSans-74" x="928.951172"/>
      <use xlink:href="#DejaVuSans-65" x="968.160156"/>
      <use xlink:href="#DejaVuSans-20" x="1029.683594"/>
      <use xlink:href="#DejaVuSans-28" x="1061.470703"/>
      <use xlink:href="#DejaVuSans-70" x="1100.484375"/>
      <use xlink:href="#DejaVuSans-65" x="1163.960938"/>
      <use xlink:href="#DejaVuSans-72" x="1225.484375"/>
      <use xlink:href="#DejaVuSans-20" x="1266.597656"/>
      <use xlink:href="#DejaVuSans-31" x="1298.384766"/>
      <use xlink:href="#DejaVuSans-30" x="1362.007812"/>
      <use xlink:href="#DejaVuSans-30" x="1425.630859"/>
      <use xlink:href="#DejaVuSans-30" x="1489.253906"/>
      <use xlink:href="#DejaVuSans-20" x="1552.876953"/>
      <use xlink:href="#DejaVuSans-63" x="1584.664062"/>
      <use xlink:href="#DejaVuSans-69" x="1639.644531"/>
      <use xlink:href="#DejaVuSans-74" x="1667.427734"/>
      <use xlink:href="#DejaVuSans-69" x="1706.636719"/>
      <use xlink:href="#DejaVuSans-7a" x="1734.419922"/>
      <use xlink:href="#DejaVuSans-65" x="1786.910156"/>
      <use xlink:href="#DejaVuSans-6e" x="1848.433594"/>
      <use xlink:href="#DejaVuSans-73" x="1911.8125"/>
      <use xlink:href="#DejaVuSans-29" x="1963.912109"/>
     </g>
    </g>
   </g>
   <g id="matplotlib.axis_2">
    <g id="ytick_1">
     <g id="line2d_5">
      <defs>
       <path id="m1414dbf007" d="M 0 0 
L -3.5 0 
" style="stroke: #000000; stroke-width: 0.8"/>
      </defs>
      <g>
       <use xlink:href="#m1414dbf007" x="57.17" y="246.04" style="stroke: #000000; stroke-width: 0.8"/>
      </g>
     </g>
     <g id="text_6">
      <!-- 0 -->
      <g transform="translate(43.8075 249.839219)scale(0.1 -0.1)">
       <use xlink:href="#DejaVuSans-30"/>
      </g>
     </g>
    </g>
    <g id="ytick_2">
     <g id="line2d_6">
      <g>
       <use xlink:href="#m1414dbf007" x="57.17" y="213.367778" style="stroke: #000000; stroke-width: 0.8"/>
      </g>
     </g>
     <g id="text_7">
      <!-- 1000 -->
      <g transform="translate(24.72 217.166997)scale(0.1 -0.1)">
       <use xlink:href="#DejaVuSans-31"/>
       <use xlink:href="#DejaVuSans-30" x="63.623047"/>
       <use xlink:href="#DejaVuSans-30" x="127.246094"/>
       <use xlink:href="#DejaVuSans-30" x="190.869141"/>
      </g>
     </g>
    </g>
    <g id="ytick_3">
     <g id="line2d_7">
      <g>
       <use xlink:href="#m1414dbf007" x="57.17" y="180.695556" style="stroke: #000000; stroke-width: 0.8"/>
      </g>
     </g>
     <g id="text_8">
      <!-- 2000 -->
      <g transform="translate(24.72 184.494774)scale(0.1 -0.1)">
       <use xlink:href="#DejaVuSans-32"/>
       <use xlink:href="#DejaVuSans-30" x="63.623047"/>
       <use xlink:href="#DejaVuSans-30" x="127.246094"/>
       <use xlink:href="#DejaVuSans-30" x="190.869141"/>
      </g>
     </g>
    </g>
    <g id="ytick_4">
     <g id="line2d_8">
      <g>
       <use xlink:href="#m1414dbf007" x="57.17" y="148.023333" style="stroke: #000000; stroke-width: 0.8"/>
      </g>
     </g>
     <g id="text_9">
      <!-- 3000 -->
      <g transform="translate(24.72 151.822552)scale(0.1 -0.1)">
       <defs>
        <path id="DejaVuSans-33" d="M 2597 2516 
Q 3050 2419 3304 2112 
Q 3559 1806 3559 1356 
Q 3559 666 3084 287 
Q 2609 -91 1734 -91 
Q 1441 -91 1130 -33 
Q 819 25 488 141 
L 488 750 
Q 750 597 1062 519 
Q 1375 441 1716 441 
Q 2309 441 2620 675 
Q 2931 909 2931 1356 
Q 2931 1769 2642 2001 
Q 2353 2234 1838 2234 
L 1294 2234 
L 1294 2753 
L 1863 2753 
Q 2328 2753 2575 2939 
Q 2822 3125 2822 3475 
Q 2822 3834 2567 4026 
Q 2313 4219 1838 4219 
Q 1578 4219 1281 4162 
Q 984 4106 628 3988 
L 628 4550 
Q 988 4650 1302 4700 
Q 1616 4750 1894 4750 
Q 2613 4750 3031 4423 
Q 3450 4097 3450 3541 
Q 3450 3153 3228 2886 
Q 3006 2619 2597 2516 
z
" transform="scale(0.015625)"/>
       </defs>
       <use xlink:href="#DejaVuSans-33"/>
       <use xlink:href="#DejaVuSans-30" x="63.623047"/>
       <use xlink:href="#DejaVuSans-30" x="127.246094"/>
       <use xlink:href="#DejaVuSans-30" x="190.869141"/>
      </g>
     </g>
    </g>
    <g id="ytick_5">
     <g id="line2d_9">
      <g>
       <use xlink:href="#m1414dbf007" x="57.17" y="115.351111" style="stroke: #000000; stroke-width: 0.8"/>
      </g>
     </g>
     <g id="text_10">
      <!-- 4000 -->
      <g transform="translate(24.72 119.15033)scale(0.1 -0.1)">
       <defs>
        <path id="DejaVuSans-34" d="M 2419 4116 
L 825 1625 
L 2419 1625 
L 2419 4116 
z
M 2253 4666 
L 3047 4666 
L 3047 1625 
L 3713 1625 
L 3713 1100 
L 3047 1100 
L 3047 0 
L 2419 0 
L 2419 1100 
L 313 1100 
L 313 1709 
L 2253 4666 
z
" transform="scale(0.015625)"/>
       </defs>
       <use xlink:href="#DejaVuSans-34"/>
       <use xlink:href="#DejaVuSans-30" x="63.623047"/>
       <use xlink:href="#DejaVuSans-30" x="127.246094"/>
       <use xlink:href="#DejaVuSans-30" x="190.869141"/>
      </g>
     </g>
    </g>
    <g id="ytick_6">
     <g id="line2d_10">
      <g>
       <use xlink:href="#m1414dbf007" x="57.17" y="82.678889" style="stroke: #000000; stroke-width: 0.8"/>
      </g>
     </g>
     <g id="text_11">
      <!-- 5000 -->
      <g transform="translate(24.72 86.478108)scale(0.1 -0.1)">
       <use xlink:href="#DejaVuSans-35"/>
       <use xlink:href="#DejaVuSans-30" x="63.623047"/>
       <use xlink:href="#DejaVuSans-30" x="127.246094"/>
       <use xlink:href="#DejaVuSans-30" x="190.869141"/>
      </g>
     </g>
    </g>
    <g id="ytick_7">
     <g id="line2d_11">
      <g>
       <use xlink:href="#m1414dbf007" x="57.17" y="50.006667" style="stroke: #000000; stroke-width: 0.8"/>
      </g>
     </g>
     <g id="text_12">
      <!-- 6000 -->
      <g transform="translate(24.72 53.805885)scale(0.1 -0.1)">
       <defs>
        <path id="DejaVuSans-36" d="M 2113 2584 
Q 1688 2584 1439 2293 
Q 1191 2003 1191 1497 
Q 1191 994 1439 701 
Q 1688 409 2113 409 
Q 2538 409 2786 701 
Q 3034 994 3034 1497 
Q 3034 2003 2786 2293 
Q 2538 2584 2113 2584 
z
M 3366 4563 
L 3366 3988 
Q 3128 4100 2886 4159 
Q 2644 4219 2406 4219 
Q 1781 4219 1451 3797 
Q 1122 3375 1075 2522 
Q 1259 2794 1537 2939 
Q 1816 3084 2150 3084 
Q 2853 3084 3261 2657 
Q 3669 2231 3669 1497 
Q 3669 778 3244 343 
Q 2819 -91 2113 -91 
Q 1303 -91 875 529 
Q 447 1150 447 2328 
Q 447 3434 972 4092 
Q 1497 4750 2381 4750 
Q 2619 4750 2861 4703 
Q 3103 4656 3366 4563 
z
" transform="scale(0.015625)"/>
       </defs>
       <use xlink:href="#DejaVuSans-36"/>
       <use xlink:href="#DejaVuSans-30" x="63.623047"/>
       <use xlink:href="#DejaVuSans-30" x="127.246094"/>
       <use xlink:href="#DejaVuSans-30" x="190.869141"/>
      </g>
     </g>
    </g>
    <g id="ytick_8">
     <g id="line2d_12">
      <g>
       <use xlink:href="#m1414dbf007" x="57.17" y="17.334444" style="stroke: #000000; stroke-width: 0.8"/>
      </g>
     </g>
     <g id="text_13">
      <!-- 7000 -->
      <g transform="translate(24.72 21.133663)scale(0.1 -0.1)">
       <defs>
        <path id="DejaVuSans-37" d="M 525 4666 
L 3525 4666 
L 3525 4397 
L 1831 0 
L 1172 0 
L 2766 4134 
L 525 4134 
L 525 4666 
z
" transform="scale(0.015625)"/>
       </defs>
       <use xlink:href="#DejaVuSans-37"/>
       <use xlink:href="#DejaVuSans-30" x="63.623047"/>
       <use xlink:href="#DejaVuSans-30" x="127.246094"/>
       <use xlink:href="#DejaVuSans-30" x="190.869141"/>
      </g>
     </g>
    </g>
    <g id="text_14">
     <!-- Number of Burglaries -->
     <g transform="translate(18.640312 181.823906)rotate(-90)scale(0.1 -0.1)">
      <defs>
       <path id="DejaVuSans-4e" d="M 628 4666 
L 1478 4666 
L 3547 763 
L 3547 4666 
L 4159 4666 
L 4159 0 
L 3309 0 
L 1241 3903 
L 1241 0 
L 628 0 
L 628 4666 
z
" transform="scale(0.015625)"/>
       <path id="DejaVuSans-75" d="M 544 1381 
L 544 3500 
L 1119 3500 
L 1119 1403 
Q 1119 906 1312 657 
Q 1506 409 1894 409 
Q 2359 409 2629 706 
Q 2900 1003 2900 1516 
L 2900 3500 
L 3475 3500 
L 3475 0 
L 2900 0 
L 2900 538 
Q 2691 219 2414 64 
Q 2138 -91 1772 -91 
Q 1169 -91 856 284 
Q 544 659 544 1381 
z
M 1991 3584 
L 1991 3584 
z
" transform="scale(0.015625)"/>
       <path id="DejaVuSans-62" d="M 3116 1747 
Q 3116 2381 2855 2742 
Q 2594 3103 2138 3103 
Q 1681 3103 1420 2742 
Q 1159 2381 1159 1747 
Q 1159 1113 1420 752 
Q 1681 391 2138 391 
Q 2594 391 2855 752 
Q 3116 1113 3116 1747 
z
M 1159 2969 
Q 1341 3281 1617 3432 
Q 1894 3584 2278 3584 
Q 2916 3584 3314 3078 
Q 3713 2572 3713 1747 
Q 3713 922 3314 415 
Q 2916 -91 2278 -91 
Q 1894 -91 1617 61 
Q 1341 213 1159 525 
L 1159 0 
L 581 0 
L 581 4863 
L 1159 4863 
L 1159 2969 
z
" transform="scale(0.015625)"/>
       <path id="DejaVuSans-66" d="M 2375 4863 
L 2375 4384 
L 1825 4384 
Q 1516 4384 1395 4259 
Q 1275 4134 1275 3809 
L 1275 3500 
L 2222 3500 
L 2222 3053 
L 1275 3053 
L 1275 0 
L 697 0 
L 697 3053 
L 147 3053 
L 147 3500 
L 697 3500 
L 697 3744 
Q 697 4328 969 4595 
Q 1241 4863 1831 4863 
L 2375 4863 
z
" transform="scale(0.015625)"/>
       <path id="DejaVuSans-42" d="M 1259 2228 
L 1259 519 
L 2272 519 
Q 2781 519 3026 730 
Q 3272 941 3272 1375 
Q 3272 1813 3026 2020 
Q 2781 2228 2272 2228 
L 1259 2228 
z
M 1259 4147 
L 1259 2741 
L 2194 2741 
Q 2656 2741 2882 2914 
Q 3109 3088 3109 3444 
Q 3109 3797 2882 3972 
Q 2656 4147 2194 4147 
L 1259 4147 
z
M 628 4666 
L 2241 4666 
Q 2963 4666 3353 4366 
Q 3744 4066 3744 3513 
Q 3744 3084 3544 2831 
Q 3344 2578 2956 2516 
Q 3422 2416 3680 2098 
Q 3938 1781 3938 1306 
Q 3938 681 3513 340 
Q 3088 0 2303 0 
L 628 0 
L 628 4666 
z
" transform="scale(0.015625)"/>
       <path id="DejaVuSans-67" d="M 2906 1791 
Q 2906 2416 2648 2759 
Q 2391 3103 1925 3103 
Q 1463 3103 1205 2759 
Q 947 2416 947 1791 
Q 947 1169 1205 825 
Q 1463 481 1925 481 
Q 2391 481 2648 825 
Q 2906 1169 2906 1791 
z
M 3481 434 
Q 3481 -459 3084 -895 
Q 2688 -1331 1869 -1331 
Q 1566 -1331 1297 -1286 
Q 1028 -1241 775 -1147 
L 775 -588 
Q 1028 -725 1275 -790 
Q 1522 -856 1778 -856 
Q 2344 -856 2625 -561 
Q 2906 -266 2906 331 
L 2906 616 
Q 2728 306 2450 153 
Q 2172 0 1784 0 
Q 1141 0 747 490 
Q 353 981 353 1791 
Q 353 2603 747 3093 
Q 1141 3584 1784 3584 
Q 2172 3584 2450 3431 
Q 2728 3278 2906 2969 
L 2906 3500 
L 3481 3500 
L 3481 434 
z
" transform="scale(0.015625)"/>
      </defs>
      <use xlink:href="#DejaVuSans-4e"/>
      <use xlink:href="#DejaVuSans-75" x="74.804688"/>
      <use xlink:href="#DejaVuSans-6d" x="138.183594"/>
      <use xlink:href="#DejaVuSans-62" x="235.595703"/>
      <use xlink:href="#DejaVuSans-65" x="299.072266"/>
      <use xlink:href="#DejaVuSans-72" x="360.595703"/>
      <use xlink:href="#DejaVuSans-20" x="401.708984"/>
      <use xlink:href="#DejaVuSans-6f" x="433.496094"/>
      <use xlink:href="#DejaVuSans-66" x="494.677734"/>
      <use xlink:href="#DejaVuSans-20" x="529.882812"/>
      <use xlink:href="#DejaVuSans-42" x="561.669922"/>
      <use xlink:href="#DejaVuSans-75" x="630.273438"/>
      <use xlink:href="#DejaVuSans-72" x="693.652344"/>
      <use xlink:href="#DejaVuSans-67" x="733.015625"/>
      <use xlink:href="#DejaVuSans-6c" x="796.492188"/>
      <use xlink:href="#DejaVuSans-61" x="824.275391"/>
      <use xlink:href="#DejaVuSans-72" x="885.554688"/>
      <use xlink:href="#DejaVuSans-69" x="926.667969"/>
      <use xlink:href="#DejaVuSans-65" x="954.451172"/>
      <use xlink:href="#DejaVuSans-73" x="1015.974609"/>
     </g>
    </g>
   </g>
   <g id="line2d_13">
    <path clip-path="url(#p8b6911be3f)" style="fill: none; stroke: #d70000; stroke-width: 1.5; stroke-linecap: square"/>
   </g>
   <g id="line2d_14">
    <path d="M 57.17 161.916157 
L 63.129796 162.518056 
L 69.089592 163.119955 
L 75.049388 163.721855 
L 81.009184 164.323754 
L 86.96898 164.925653 
L 92.928776 165.527552 
L 98.888571 166.129451 
L 104.848367 166.731351 
L 110.808163 167.33325 
L 116.767959 167.935149 
L 122.727755 168.537048 
L 128.687551 169.138947 
L 134.647347 169.740847 
L 140.607143 170.342746 
L 146.566939 170.944645 
L 152.526735 171.546544 
L 158.486531 172.148444 
L 164.446327 172.750343 
L 170.406122 173.352242 
L 176.365918 173.954141 
L 182.325714 174.55604 
L 188.28551 175.15794 
L 194.245306 175.759839 
L 200.205102 176.361738 
L 206.164898 176.963637 
L 212.124694 177.565536 
L 218.08449 178.167436 
L 224.044286 178.769335 
L 230.004082 179.371234 
L 235.963878 179.973133 
L 241.923673 180.575032 
L 247.883469 181.176932 
L 253.843265 181.778831 
L 259.803061 182.38073 
L 265.762857 182.982629 
L 271.722653 183.584528 
L 277.682449 184.186428 
L 283.642245 184.788327 
L 289.602041 185.390226 
L 295.561837 185.992125 
L 301.521633 186.594025 
L 307.481429 187.195924 
L 313.441224 187.797823 
L 319.40102 188.399722 
L 325.360816 189.001621 
L 331.320612 189.603521 
L 337.280408 190.20542 
L 343.240204 190.807319 
L 349.2 191.409218 
" clip-path="url(#p8b6911be3f)" style="fill: none; stroke: #8c3cff; stroke-width: 1.5; stroke-linecap: square"/>
   </g>
   <g id="line2d_15">
    <path d="M 57.17 224.982489 
L 63.129796 224.998967 
L 69.089592 225.015446 
L 75.049388 225.031924 
L 81.009184 225.048402 
L 86.96898 225.064881 
L 92.928776 225.081359 
L 98.888571 225.097838 
L 104.848367 225.114316 
L 110.808163 225.130795 
L 116.767959 225.147273 
L 122.727755 225.163751 
L 128.687551 225.18023 
L 134.647347 225.196708 
L 140.607143 225.213187 
L 146.566939 225.229665 
L 152.526735 225.246143 
L 158.486531 225.262622 
L 164.446327 225.2791 
L 170.406122 225.295579 
L 176.365918 225.312057 
L 182.325714 225.328535 
L 188.28551 225.345014 
L 194.245306 225.361492 
L 200.205102 225.377971 
L 206.164898 225.394449 
L 212.124694 225.410927 
L 218.08449 225.427406 
L 224.044286 225.443884 
L 230.004082 225.460363 
L 235.963878 225.476841 
L 241.923673 225.49332 
L 247.883469 225.509798 
L 253.843265 225.526276 
L 259.803061 225.542755 
L 265.762857 225.559233 
L 271.722653 225.575712 
L 277.682449 225.59219 
L 283.642245 225.608668 
L 289.602041 225.625147 
L 295.561837 225.641625 
L 301.521633 225.658104 
L 307.481429 225.674582 
L 313.441224 225.69106 
L 319.40102 225.707539 
L 325.360816 225.724017 
L 331.320612 225.740496 
L 337.280408 225.756974 
L 343.240204 225.773453 
L 349.2 225.789931 
" clip-path="url(#p8b6911be3f)" style="fill: none; stroke: #028800; stroke-width: 1.5; stroke-linecap: square"/>
   </g>
   <g id="line2d_16">
    <path d="M 57.17 211.007535 
L 63.129796 211.072447 
L 69.089592 211.137359 
L 75.049388 211.202271 
L 81.009184 211.267183 
L 86.96898 211.332096 
L 92.928776 211.397008 
L 98.888571 211.46192 
L 104.848367 211.526832 
L 110.808163 211.591744 
L 116.767959 211.656656 
L 122.727755 211.721569 
L 128.687551 211.786481 
L 134.647347 211.851393 
L 140.607143 211.916305 
L 146.566939 211.981217 
L 152.526735 212.04613 
L 158.486531 212.111042 
L 164.446327 212.175954 
L 170.406122 212.240866 
L 176.365918 212.305778 
L 182.325714 212.37069 
L 188.28551 212.435603 
L 194.245306 212.500515 
L 200.205102 212.565427 
L 206.164898 212.630339 
L 212.124694 212.695251 
L 218.08449 212.760163 
L 224.044286 212.825076 
L 230.004082 212.889988 
L 235.963878 212.9549 
L 241.923673 213.019812 
L 247.883469 213.084724 
L 253.843265 213.149637 
L 259.803061 213.214549 
L 265.762857 213.279461 
L 271.722653 213.344373 
L 277.682449 213.409285 
L 283.642245 213.474197 
L 289.602041 213.53911 
L 295.561837 213.604022 
L 301.521633 213.668934 
L 307.481429 213.733846 
L 313.441224 213.798758 
L 319.40102 213.86367 
L 325.360816 213.928583 
L 331.320612 213.993495 
L 337.280408 214.058407 
L 343.240204 214.123319 
L 349.2 214.188231 
" clip-path="url(#p8b6911be3f)" style="fill: none; stroke: #00acc7; stroke-width: 1.5; stroke-linecap: square"/>
   </g>
   <g id="line2d_17">
    <path d="M 57.17 221.153781 
L 63.129796 221.092196 
L 69.089592 221.030611 
L 75.049388 220.969026 
L 81.009184 220.907441 
L 86.96898 220.845856 
L 92.928776 220.784271 
L 98.888571 220.722686 
L 104.848367 220.661101 
L 110.808163 220.599516 
L 116.767959 220.537931 
L 122.727755 220.476346 
L 128.687551 220.414761 
L 134.647347 220.353176 
L 140.607143 220.291591 
L 146.566939 220.230006 
L 152.526735 220.168421 
L 158.486531 220.106836 
L 164.446327 220.045251 
L 170.406122 219.983666 
L 176.365918 219.922081 
L 182.325714 219.860496 
L 188.28551 219.798911 
L 194.245306 219.737326 
L 200.205102 219.675741 
L 206.164898 219.614156 
L 212.124694 219.552571 
L 218.08449 219.490986 
L 224.044286 219.429401 
L 230.004082 219.367816 
L 235.963878 219.306231 
L 241.923673 219.244646 
L 247.883469 219.183061 
L 253.843265 219.121476 
L 259.803061 219.059891 
L 265.762857 218.998306 
L 271.722653 218.936721 
L 277.682449 218.875136 
L 283.642245 218.813551 
L 289.602041 218.751966 
L 295.561837 218.690381 
L 301.521633 218.628796 
L 307.481429 218.567211 
L 313.441224 218.505626 
L 319.40102 218.444041 
L 325.360816 218.382456 
L 331.320612 218.320871 
L 337.280408 218.259286 
L 343.240204 218.197701 
L 349.2 218.136116 
" clip-path="url(#p8b6911be3f)" style="fill: none; stroke: #98ff00; stroke-width: 1.5; stroke-linecap: square"/>
   </g>
   <g id="line2d_18">
    <path d="M 57.17 175.215818 
L 63.129796 174.749126 
L 69.089592 174.282435 
L 75.049388 173.815744 
L 81.009184 173.349053 
L 86.96898 172.882362 
L 92.928776 172.415671 
L 98.888571 171.94898 
L 104.848367 171.482289 
L 110.808163 171.015598 
L 116.767959 170.548907 
L 122.727755 170.082215 
L 128.687551 169.615524 
L 134.647347 169.148833 
L 140.607143 168.682142 
L 146.566939 168.215451 
L 152.526735 167.74876 
L 158.486531 167.282069 
L 164.446327 166.815378 
L 170.406122 166.348687 
L 176.365918 165.881996 
L 182.325714 165.415304 
L 188.28551 164.948613 
L 194.245306 164.481922 
L 200.205102 164.015231 
L 206.164898 163.54854 
L 212.124694 163.081849 
L 218.08449 162.615158 
L 224.044286 162.148467 
L 230.004082 161.681776 
L 235.963878 161.215085 
L 241.923673 160.748393 
L 247.883469 160.281702 
L 253.843265 159.815011 
L 259.803061 159.34832 
L 265.762857 158.881629 
L 271.722653 158.414938 
L 277.682449 157.948247 
L 283.642245 157.481556 
L 289.602041 157.014865 
L 295.561837 156.548174 
L 301.521633 156.081482 
L 307.481429 155.614791 
L 313.441224 155.1481 
L 319.40102 154.681409 
L 325.360816 154.214718 
L 331.320612 153.748027 
L 337.280408 153.281336 
L 343.240204 152.814645 
L 349.2 152.347954 
" clip-path="url(#p8b6911be3f)" style="fill: none; stroke: #ff7fd1; stroke-width: 1.5; stroke-linecap: square"/>
   </g>
   <g id="line2d_19">
    <path d="M 140.112744 -1 
L 140.607143 -0.943471 
L 146.566939 -0.262031 
L 152.526735 0.41941 
L 158.486531 1.10085 
L 164.446327 1.78229 
L 170.406122 2.46373 
L 176.365918 3.14517 
L 182.325714 3.82661 
L 188.28551 4.50805 
L 194.245306 5.18949 
L 200.205102 5.87093 
L 206.164898 6.55237 
L 212.124694 7.233811 
L 218.08449 7.915251 
L 224.044286 8.596691 
L 230.004082 9.278131 
L 235.963878 9.959571 
L 241.923673 10.641011 
L 247.883469 11.322451 
L 253.843265 12.003891 
L 259.803061 12.685331 
L 265.762857 13.366771 
L 271.722653 14.048211 
L 277.682449 14.729652 
L 283.642245 15.411092 
L 289.602041 16.092532 
L 295.561837 16.773972 
L 301.521633 17.455412 
L 307.481429 18.136852 
L 313.441224 18.818292 
L 319.40102 19.499732 
L 325.360816 20.181172 
L 331.320612 20.862612 
L 337.280408 21.544053 
L 343.240204 22.225493 
L 349.2 22.906933 
" clip-path="url(#p8b6911be3f)" style="fill: none; stroke: #6c004f; stroke-width: 1.5; stroke-linecap: square"/>
   </g>
   <g id="line2d_20">
    <path d="M 57.17 210.569077 
L 63.129796 210.787178 
L 69.089592 211.005279 
L 75.049388 211.22338 
L 81.009184 211.441481 
L 86.96898 211.659582 
L 92.928776 211.877682 
L 98.888571 212.095783 
L 104.848367 212.313884 
L 110.808163 212.531985 
L 116.767959 212.750086 
L 122.727755 212.968187 
L 128.687551 213.186288 
L 134.647347 213.404388 
L 140.607143 213.622489 
L 146.566939 213.84059 
L 152.526735 214.058691 
L 158.486531 214.276792 
L 164.446327 214.494893 
L 170.406122 214.712993 
L 176.365918 214.931094 
L 182.325714 215.149195 
L 188.28551 215.367296 
L 194.245306 215.585397 
L 200.205102 215.803498 
L 206.164898 216.021599 
L 212.124694 216.239699 
L 218.08449 216.4578 
L 224.044286 216.675901 
L 230.004082 216.894002 
L 235.963878 217.112103 
L 241.923673 217.330204 
L 247.883469 217.548305 
L 253.843265 217.766405 
L 259.803061 217.984506 
L 265.762857 218.202607 
L 271.722653 218.420708 
L 277.682449 218.638809 
L 283.642245 218.85691 
L 289.602041 219.07501 
L 295.561837 219.293111 
L 301.521633 219.511212 
L 307.481429 219.729313 
L 313.441224 219.947414 
L 319.40102 220.165515 
L 325.360816 220.383616 
L 331.320612 220.601716 
L 337.280408 220.819817 
L 343.240204 221.037918 
L 349.2 221.256019 
" clip-path="url(#p8b6911be3f)" style="fill: none; stroke: #583b00; stroke-width: 1.5; stroke-linecap: square"/>
   </g>
   <g id="line2d_21">
    <path d="M 57.17 147.770137 
L 63.129796 147.222451 
L 69.089592 146.674765 
L 75.049388 146.127079 
L 81.009184 145.579393 
L 86.96898 145.031708 
L 92.928776 144.484022 
L 98.888571 143.936336 
L 104.848367 143.38865 
L 110.808163 142.840964 
L 116.767959 142.293278 
L 122.727755 141.745593 
L 128.687551 141.197907 
L 134.647347 140.650221 
L 140.607143 140.102535 
L 146.566939 139.554849 
L 152.526735 139.007164 
L 158.486531 138.459478 
L 164.446327 137.911792 
L 170.406122 137.364106 
L 176.365918 136.81642 
L 182.325714 136.268734 
L 188.28551 135.721049 
L 194.245306 135.173363 
L 200.205102 134.625677 
L 206.164898 134.077991 
L 212.124694 133.530305 
L 218.08449 132.98262 
L 224.044286 132.434934 
L 230.004082 131.887248 
L 235.963878 131.339562 
L 241.923673 130.791876 
L 247.883469 130.244191 
L 253.843265 129.696505 
L 259.803061 129.148819 
L 265.762857 128.601133 
L 271.722653 128.053447 
L 277.682449 127.505761 
L 283.642245 126.958076 
L 289.602041 126.41039 
L 295.561837 125.862704 
L 301.521633 125.315018 
L 307.481429 124.767332 
L 313.441224 124.219647 
L 319.40102 123.671961 
L 325.360816 123.124275 
L 331.320612 122.576589 
L 337.280408 122.028903 
L 343.240204 121.481217 
L 349.2 120.933532 
" clip-path="url(#p8b6911be3f)" style="fill: none; stroke: #005759; stroke-width: 1.5; stroke-linecap: square"/>
   </g>
   <g id="line2d_22">
    <path d="M 57.17 224.877707 
L 63.129796 224.944115 
L 69.089592 225.010522 
L 75.049388 225.07693 
L 81.009184 225.143338 
L 86.96898 225.209746 
L 92.928776 225.276154 
L 98.888571 225.342561 
L 104.848367 225.408969 
L 110.808163 225.475377 
L 116.767959 225.541785 
L 122.727755 225.608193 
L 128.687551 225.674601 
L 134.647347 225.741008 
L 140.607143 225.807416 
L 146.566939 225.873824 
L 152.526735 225.940232 
L 158.486531 226.00664 
L 164.446327 226.073047 
L 170.406122 226.139455 
L 176.365918 226.205863 
L 182.325714 226.272271 
L 188.28551 226.338679 
L 194.245306 226.405086 
L 200.205102 226.471494 
L 206.164898 226.537902 
L 212.124694 226.60431 
L 218.08449 226.670718 
L 224.044286 226.737126 
L 230.004082 226.803533 
L 235.963878 226.869941 
L 241.923673 226.936349 
L 247.883469 227.002757 
L 253.843265 227.069165 
L 259.803061 227.135572 
L 265.762857 227.20198 
L 271.722653 227.268388 
L 277.682449 227.334796 
L 283.642245 227.401204 
L 289.602041 227.467611 
L 295.561837 227.534019 
L 301.521633 227.600427 
L 307.481429 227.666835 
L 313.441224 227.733243 
L 319.40102 227.799651 
L 325.360816 227.866058 
L 331.320612 227.932466 
L 337.280408 227.998874 
L 343.240204 228.065282 
L 349.2 228.13169 
" clip-path="url(#p8b6911be3f)" style="fill: none; stroke: #0000dd; stroke-width: 1.5; stroke-linecap: square"/>
   </g>
   <g id="line2d_23">
    <path d="M 57.17 160.15928 
L 63.129796 160.891903 
L 69.089592 161.624526 
L 75.049388 162.357148 
L 81.009184 163.089771 
L 86.96898 163.822394 
L 92.928776 164.555016 
L 98.888571 165.287639 
L 104.848367 166.020261 
L 110.808163 166.752884 
L 116.767959 167.485507 
L 122.727755 168.218129 
L 128.687551 168.950752 
L 134.647347 169.683375 
L 140.607143 170.415997 
L 146.566939 171.14862 
L 152.526735 171.881243 
L 158.486531 172.613865 
L 164.446327 173.346488 
L 170.406122 174.07911 
L 176.365918 174.811733 
L 182.325714 175.544356 
L 188.28551 176.276978 
L 194.245306 177.009601 
L 200.205102 177.742224 
L 206.164898 178.474846 
L 212.124694 179.207469 
L 218.08449 179.940092 
L 224.044286 180.672714 
L 230.004082 181.405337 
L 235.963878 182.13796 
L 241.923673 182.870582 
L 247.883469 183.603205 
L 253.843265 184.335827 
L 259.803061 185.06845 
L 265.762857 185.801073 
L 271.722653 186.533695 
L 277.682449 187.266318 
L 283.642245 187.998941 
L 289.602041 188.731563 
L 295.561837 189.464186 
L 301.521633 190.196809 
L 307.481429 190.929431 
L 313.441224 191.662054 
L 319.40102 192.394676 
L 325.360816 193.127299 
L 331.320612 193.859922 
L 337.280408 194.592544 
L 343.240204 195.325167 
L 349.2 196.05779 
" clip-path="url(#p8b6911be3f)" style="fill: none; stroke: #95b578; stroke-width: 1.5; stroke-linecap: square"/>
   </g>
   <g id="line2d_24">
    <path d="M 57.17 234.638414 
L 63.129796 234.645331 
L 69.089592 234.652247 
L 75.049388 234.659164 
L 81.009184 234.666081 
L 86.96898 234.672998 
L 92.928776 234.679914 
L 98.888571 234.686831 
L 104.848367 234.693748 
L 110.808163 234.700665 
L 116.767959 234.707581 
L 122.727755 234.714498 
L 128.687551 234.721415 
L 134.647347 234.728331 
L 140.607143 234.735248 
L 146.566939 234.742165 
L 152.526735 234.749082 
L 158.486531 234.755998 
L 164.446327 234.762915 
L 170.406122 234.769832 
L 176.365918 234.776749 
L 182.325714 234.783665 
L 188.28551 234.790582 
L 194.245306 234.797499 
L 200.205102 234.804416 
L 206.164898 234.811332 
L 212.124694 234.818249 
L 218.08449 234.825166 
L 224.044286 234.832083 
L 230.004082 234.838999 
L 235.963878 234.845916 
L 241.923673 234.852833 
L 247.883469 234.85975 
L 253.843265 234.866666 
L 259.803061 234.873583 
L 265.762857 234.8805 
L 271.722653 234.887416 
L 277.682449 234.894333 
L 283.642245 234.90125 
L 289.602041 234.908167 
L 295.561837 234.915083 
L 301.521633 234.922 
L 307.481429 234.928917 
L 313.441224 234.935834 
L 319.40102 234.94275 
L 325.360816 234.949667 
L 331.320612 234.956584 
L 337.280408 234.963501 
L 343.240204 234.970417 
L 349.2 234.977334 
" clip-path="url(#p8b6911be3f)" style="fill: none; stroke: #c004b9; stroke-width: 1.5; stroke-linecap: square"/>
   </g>
   <g id="line2d_25">
    <path d="M 57.17 224.055337 
L 63.129796 224.043454 
L 69.089592 224.031571 
L 75.049388 224.019688 
L 81.009184 224.007805 
L 86.96898 223.995922 
L 92.928776 223.984039 
L 98.888571 223.972156 
L 104.848367 223.960273 
L 110.808163 223.94839 
L 116.767959 223.936507 
L 122.727755 223.924624 
L 128.687551 223.912741 
L 134.647347 223.900858 
L 140.607143 223.888975 
L 146.566939 223.877092 
L 152.526735 223.865209 
L 158.486531 223.853326 
L 164.446327 223.841443 
L 170.406122 223.82956 
L 176.365918 223.817677 
L 182.325714 223.805794 
L 188.28551 223.793911 
L 194.245306 223.782028 
L 200.205102 223.770145 
L 206.164898 223.758262 
L 212.124694 223.746379 
L 218.08449 223.734496 
L 224.044286 223.722613 
L 230.004082 223.71073 
L 235.963878 223.698847 
L 241.923673 223.686964 
L 247.883469 223.675081 
L 253.843265 223.663198 
L 259.803061 223.651315 
L 265.762857 223.639432 
L 271.722653 223.627549 
L 277.682449 223.615667 
L 283.642245 223.603784 
L 289.602041 223.591901 
L 295.561837 223.580018 
L 301.521633 223.568135 
L 307.481429 223.556252 
L 313.441224 223.544369 
L 319.40102 223.532486 
L 325.360816 223.520603 
L 331.320612 223.50872 
L 337.280408 223.496837 
L 343.240204 223.484954 
L 349.2 223.473071 
" clip-path="url(#p8b6911be3f)" style="fill: none; stroke: #0774d8; stroke-width: 1.5; stroke-linecap: square"/>
   </g>
   <g id="line2d_26">
    <path d="M 57.17 199.341164 
L 63.129796 199.614408 
L 69.089592 199.887653 
L 75.049388 200.160897 
L 81.009184 200.434142 
L 86.96898 200.707386 
L 92.928776 200.980631 
L 98.888571 201.253875 
L 104.848367 201.52712 
L 110.808163 201.800364 
L 116.767959 202.073609 
L 122.727755 202.346854 
L 128.687551 202.620098 
L 134.647347 202.893343 
L 140.607143 203.166587 
L 146.566939 203.439832 
L 152.526735 203.713076 
L 158.486531 203.986321 
L 164.446327 204.259565 
L 170.406122 204.53281 
L 176.365918 204.806054 
L 182.325714 205.079299 
L 188.28551 205.352543 
L 194.245306 205.625788 
L 200.205102 205.899033 
L 206.164898 206.172277 
L 212.124694 206.445522 
L 218.08449 206.718766 
L 224.044286 206.992011 
L 230.004082 207.265255 
L 235.963878 207.5385 
L 241.923673 207.811744 
L 247.883469 208.084989 
L 253.843265 208.358233 
L 259.803061 208.631478 
L 265.762857 208.904723 
L 271.722653 209.177967 
L 277.682449 209.451212 
L 283.642245 209.724456 
L 289.602041 209.997701 
L 295.561837 210.270945 
L 301.521633 210.54419 
L 307.481429 210.817434 
L 313.441224 211.090679 
L 319.40102 211.363923 
L 325.360816 211.637168 
L 331.320612 211.910412 
L 337.280408 212.183657 
L 343.240204 212.456902 
L 349.2 212.730146 
" clip-path="url(#p8b6911be3f)" style="fill: none; stroke: #fef590; stroke-width: 1.5; stroke-linecap: square"/>
   </g>
   <g id="line2d_27">
    <path d="M 57.17 185.472014 
L 63.129796 185.436002 
L 69.089592 185.399991 
L 75.049388 185.363979 
L 81.009184 185.327968 
L 86.96898 185.291956 
L 92.928776 185.255945 
L 98.888571 185.219933 
L 104.848367 185.183922 
L 110.808163 185.14791 
L 116.767959 185.111899 
L 122.727755 185.075887 
L 128.687551 185.039876 
L 134.647347 185.003864 
L 140.607143 184.967853 
L 146.566939 184.931841 
L 152.526735 184.89583 
L 158.486531 184.859818 
L 164.446327 184.823807 
L 170.406122 184.787795 
L 176.365918 184.751784 
L 182.325714 184.715772 
L 188.28551 184.67976 
L 194.245306 184.643749 
L 200.205102 184.607737 
L 206.164898 184.571726 
L 212.124694 184.535714 
L 218.08449 184.499703 
L 224.044286 184.463691 
L 230.004082 184.42768 
L 235.963878 184.391668 
L 241.923673 184.355657 
L 247.883469 184.319645 
L 253.843265 184.283634 
L 259.803061 184.247622 
L 265.762857 184.211611 
L 271.722653 184.175599 
L 277.682449 184.139588 
L 283.642245 184.103576 
L 289.602041 184.067565 
L 295.561837 184.031553 
L 301.521633 183.995542 
L 307.481429 183.95953 
L 313.441224 183.923519 
L 319.40102 183.887507 
L 325.360816 183.851496 
L 331.320612 183.815484 
L 337.280408 183.779473 
L 343.240204 183.743461 
L 349.2 183.70745 
" clip-path="url(#p8b6911be3f)" style="fill: none; stroke: #8f7a00; stroke-width: 1.5; stroke-linecap: square"/>
   </g>
   <g id="line2d_28">
    <path d="M 57.17 191.624522 
L 63.129796 191.643878 
L 69.089592 191.663234 
L 75.049388 191.68259 
L 81.009184 191.701946 
L 86.96898 191.721302 
L 92.928776 191.740657 
L 98.888571 191.760013 
L 104.848367 191.779369 
L 110.808163 191.798725 
L 116.767959 191.818081 
L 122.727755 191.837437 
L 128.687551 191.856792 
L 134.647347 191.876148 
L 140.607143 191.895504 
L 146.566939 191.91486 
L 152.526735 191.934216 
L 158.486531 191.953572 
L 164.446327 191.972927 
L 170.406122 191.992283 
L 176.365918 192.011639 
L 182.325714 192.030995 
L 188.28551 192.050351 
L 194.245306 192.069707 
L 200.205102 192.089062 
L 206.164898 192.108418 
L 212.124694 192.127774 
L 218.08449 192.14713 
L 224.044286 192.166486 
L 230.004082 192.185842 
L 235.963878 192.205197 
L 241.923673 192.224553 
L 247.883469 192.243909 
L 253.843265 192.263265 
L 259.803061 192.282621 
L 265.762857 192.301977 
L 271.722653 192.321332 
L 277.682449 192.340688 
L 283.642245 192.360044 
L 289.602041 192.3794 
L 295.561837 192.398756 
L 301.521633 192.418112 
L 307.481429 192.437467 
L 313.441224 192.456823 
L 319.40102 192.476179 
L 325.360816 192.495535 
L 331.320612 192.514891 
L 337.280408 192.534247 
L 343.240204 192.553602 
L 349.2 192.572958 
" clip-path="url(#p8b6911be3f)" style="fill: none; stroke: #ff7266; stroke-width: 1.5; stroke-linecap: square"/>
   </g>
   <g id="line2d_29">
    <path d="M 57.17 181.246672 
L 63.129796 181.604397 
L 69.089592 181.962123 
L 75.049388 182.319848 
L 81.009184 182.677574 
L 86.96898 183.035299 
L 92.928776 183.393024 
L 98.888571 183.75075 
L 104.848367 184.108475 
L 110.808163 184.466201 
L 116.767959 184.823926 
L 122.727755 185.181651 
L 128.687551 185.539377 
L 134.647347 185.897102 
L 140.607143 186.254828 
L 146.566939 186.612553 
L 152.526735 186.970278 
L 158.486531 187.328004 
L 164.446327 187.685729 
L 170.406122 188.043455 
L 176.365918 188.40118 
L 182.325714 188.758905 
L 188.28551 189.116631 
L 194.245306 189.474356 
L 200.205102 189.832082 
L 206.164898 190.189807 
L 212.124694 190.547532 
L 218.08449 190.905258 
L 224.044286 191.262983 
L 230.004082 191.620708 
L 235.963878 191.978434 
L 241.923673 192.336159 
L 247.883469 192.693885 
L 253.843265 193.05161 
L 259.803061 193.409335 
L 265.762857 193.767061 
L 271.722653 194.124786 
L 277.682449 194.482512 
L 283.642245 194.840237 
L 289.602041 195.197962 
L 295.561837 195.555688 
L 301.521633 195.913413 
L 307.481429 196.271139 
L 313.441224 196.628864 
L 319.40102 196.986589 
L 325.360816 197.344315 
L 331.320612 197.70204 
L 337.280408 198.059766 
L 343.240204 198.417491 
L 349.2 198.775216 
" clip-path="url(#p8b6911be3f)" style="fill: none; stroke: #eeb9b9; stroke-width: 1.5; stroke-linecap: square"/>
   </g>
   <g id="line2d_30">
    <path d="M 57.17 235.124667 
L 63.129796 235.133583 
L 69.089592 235.142499 
L 75.049388 235.151415 
L 81.009184 235.160331 
L 86.96898 235.169247 
L 92.928776 235.178163 
L 98.888571 235.18708 
L 104.848367 235.195996 
L 110.808163 235.204912 
L 116.767959 235.213828 
L 122.727755 235.222744 
L 128.687551 235.23166 
L 134.647347 235.240576 
L 140.607143 235.249492 
L 146.566939 235.258408 
L 152.526735 235.267324 
L 158.486531 235.27624 
L 164.446327 235.285156 
L 170.406122 235.294072 
L 176.365918 235.302988 
L 182.325714 235.311904 
L 188.28551 235.32082 
L 194.245306 235.329736 
L 200.205102 235.338652 
L 206.164898 235.347568 
L 212.124694 235.356484 
L 218.08449 235.3654 
L 224.044286 235.374316 
L 230.004082 235.383232 
L 235.963878 235.392148 
L 241.923673 235.401064 
L 247.883469 235.40998 
L 253.843265 235.418896 
L 259.803061 235.427812 
L 265.762857 235.436728 
L 271.722653 235.445644 
L 277.682449 235.45456 
L 283.642245 235.463476 
L 289.602041 235.472392 
L 295.561837 235.481309 
L 301.521633 235.490225 
L 307.481429 235.499141 
L 313.441224 235.508057 
L 319.40102 235.516973 
L 325.360816 235.525889 
L 331.320612 235.534805 
L 337.280408 235.543721 
L 343.240204 235.552637 
L 349.2 235.561553 
" clip-path="url(#p8b6911be3f)" style="fill: none; stroke: #5e7e66; stroke-width: 1.5; stroke-linecap: square"/>
   </g>
   <g id="line2d_31">
    <path d="M 57.17 249.968828 
L 63.129796 249.976975 
L 69.089592 249.985122 
L 75.049388 249.993269 
L 81.009184 250.001416 
L 86.96898 250.009563 
L 92.928776 250.017709 
L 98.888571 250.025856 
L 104.848367 250.034003 
L 110.808163 250.04215 
L 116.767959 250.050297 
L 122.727755 250.058443 
L 128.687551 250.06659 
L 134.647347 250.074737 
L 140.607143 250.082884 
L 146.566939 250.091031 
L 152.526735 250.099178 
L 158.486531 250.107324 
L 164.446327 250.115471 
L 170.406122 250.123618 
L 176.365918 250.131765 
L 182.325714 250.139912 
L 188.28551 250.148059 
L 194.245306 250.156205 
L 200.205102 250.164352 
L 206.164898 250.172499 
L 212.124694 250.180646 
L 218.08449 250.188793 
L 224.044286 250.19694 
L 230.004082 250.205086 
L 235.963878 250.213233 
L 241.923673 250.22138 
L 247.883469 250.229527 
L 253.843265 250.237674 
L 259.803061 250.245821 
L 265.762857 250.253967 
L 271.722653 250.262114 
L 277.682449 250.270261 
L 283.642245 250.278408 
L 289.602041 250.286555 
L 295.561837 250.294702 
L 301.521633 250.302848 
L 307.481429 250.310995 
L 313.441224 250.319142 
L 319.40102 250.327289 
L 325.360816 250.335436 
L 331.320612 250.343583 
L 337.280408 250.351729 
L 343.240204 250.359876 
L 349.2 250.368023 
" clip-path="url(#p8b6911be3f)" style="fill: none; stroke: #9be4ff; stroke-width: 1.5; stroke-linecap: square"/>
   </g>
   <g id="patch_3">
    <path d="M 57.17 246.04 
L 57.17 10.8 
" style="fill: none; stroke: #000000; stroke-width: 0.8; stroke-linejoin: miter; stroke-linecap: square"/>
   </g>
   <g id="patch_4">
    <path d="M 349.2 246.04 
L 349.2 10.8 
" style="fill: none; stroke: #000000; stroke-width: 0.8; stroke-linejoin: miter; stroke-linecap: square"/>
   </g>
   <g id="patch_5">
    <path d="M 57.17 246.04 
L 349.2 246.04 
" style="fill: none; stroke: #000000; stroke-width: 0.8; stroke-linejoin: miter; stroke-linecap: square"/>
   </g>
   <g id="patch_6">
    <path d="M 57.17 10.8 
L 349.2 10.8 
" style="fill: none; stroke: #000000; stroke-width: 0.8; stroke-linejoin: miter; stroke-linecap: square"/>
   </g>
   <g id="legend_1">
    <g id="patch_7">
     <path d="M 64.17 165.58125 
L 173.424688 165.58125 
Q 175.424688 165.58125 175.424688 163.58125 
L 175.424688 17.8 
Q 175.424688 15.8 173.424688 15.8 
L 64.17 15.8 
Q 62.17 15.8 62.17 17.8 
L 62.17 163.58125 
Q 62.17 165.58125 64.17 165.58125 
z
" style="fill: #ffffff; opacity: 0.8; stroke: #cccccc; stroke-linejoin: miter"/>
    </g>
    <g id="line2d_32">
     <path d="M 66.17 23.898438 
L 76.17 23.898438 
L 86.17 23.898438 
" style="fill: none; stroke: #d70000; stroke-width: 1.5; stroke-linecap: square"/>
    </g>
    <g id="text_15">
     <!-- AT -->
     <g transform="translate(94.17 27.398438)scale(0.1 -0.1)">
      <defs>
       <path id="DejaVuSans-41" d="M 2188 4044 
L 1331 1722 
L 3047 1722 
L 2188 4044 
z
M 1831 4666 
L 2547 4666 
L 4325 0 
L 3669 0 
L 3244 1197 
L 1141 1197 
L 716 0 
L 50 0 
L 1831 4666 
z
" transform="scale(0.015625)"/>
       <path id="DejaVuSans-54" d="M -19 4666 
L 3928 4666 
L 3928 4134 
L 2272 4134 
L 2272 0 
L 1638 0 
L 1638 4134 
L -19 4134 
L -19 4666 
z
" transform="scale(0.015625)"/>
      </defs>
      <use xlink:href="#DejaVuSans-41"/>
      <use xlink:href="#DejaVuSans-54" x="60.658203"/>
     </g>
    </g>
    <g id="line2d_33">
     <path d="M 66.17 38.576563 
L 76.17 38.576563 
L 86.17 38.576563 
" style="fill: none; stroke: #8c3cff; stroke-width: 1.5; stroke-linecap: square"/>
    </g>
    <g id="text_16">
     <!-- BE -->
     <g transform="translate(94.17 42.076563)scale(0.1 -0.1)">
      <defs>
       <path id="DejaVuSans-45" d="M 628 4666 
L 3578 4666 
L 3578 4134 
L 1259 4134 
L 1259 2753 
L 3481 2753 
L 3481 2222 
L 1259 2222 
L 1259 531 
L 3634 531 
L 3634 0 
L 628 0 
L 628 4666 
z
" transform="scale(0.015625)"/>
      </defs>
      <use xlink:href="#DejaVuSans-42"/>
      <use xlink:href="#DejaVuSans-45" x="68.603516"/>
     </g>
    </g>
    <g id="line2d_34">
     <path d="M 66.17 53.254688 
L 76.17 53.254688 
L 86.17 53.254688 
" style="fill: none; stroke: #028800; stroke-width: 1.5; stroke-linecap: square"/>
    </g>
    <g id="text_17">
     <!-- BG -->
     <g transform="translate(94.17 56.754688)scale(0.1 -0.1)">
      <defs>
       <path id="DejaVuSans-47" d="M 3809 666 
L 3809 1919 
L 2778 1919 
L 2778 2438 
L 4434 2438 
L 4434 434 
Q 4069 175 3628 42 
Q 3188 -91 2688 -91 
Q 1594 -91 976 548 
Q 359 1188 359 2328 
Q 359 3472 976 4111 
Q 1594 4750 2688 4750 
Q 3144 4750 3555 4637 
Q 3966 4525 4313 4306 
L 4313 3634 
Q 3963 3931 3569 4081 
Q 3175 4231 2741 4231 
Q 1884 4231 1454 3753 
Q 1025 3275 1025 2328 
Q 1025 1384 1454 906 
Q 1884 428 2741 428 
Q 3075 428 3337 486 
Q 3600 544 3809 666 
z
" transform="scale(0.015625)"/>
      </defs>
      <use xlink:href="#DejaVuSans-42"/>
      <use xlink:href="#DejaVuSans-47" x="66.853516"/>
     </g>
    </g>
    <g id="line2d_35">
     <path d="M 66.17 67.932813 
L 76.17 67.932813 
L 86.17 67.932813 
" style="fill: none; stroke: #00acc7; stroke-width: 1.5; stroke-linecap: square"/>
    </g>
    <g id="text_18">
     <!-- CY -->
     <g transform="translate(94.17 71.432813)scale(0.1 -0.1)">
      <defs>
       <path id="DejaVuSans-43" d="M 4122 4306 
L 4122 3641 
Q 3803 3938 3442 4084 
Q 3081 4231 2675 4231 
Q 1875 4231 1450 3742 
Q 1025 3253 1025 2328 
Q 1025 1406 1450 917 
Q 1875 428 2675 428 
Q 3081 428 3442 575 
Q 3803 722 4122 1019 
L 4122 359 
Q 3791 134 3420 21 
Q 3050 -91 2638 -91 
Q 1578 -91 968 557 
Q 359 1206 359 2328 
Q 359 3453 968 4101 
Q 1578 4750 2638 4750 
Q 3056 4750 3426 4639 
Q 3797 4528 4122 4306 
z
" transform="scale(0.015625)"/>
       <path id="DejaVuSans-59" d="M -13 4666 
L 666 4666 
L 1959 2747 
L 3244 4666 
L 3922 4666 
L 2272 2222 
L 2272 0 
L 1638 0 
L 1638 2222 
L -13 4666 
z
" transform="scale(0.015625)"/>
      </defs>
      <use xlink:href="#DejaVuSans-43"/>
      <use xlink:href="#DejaVuSans-59" x="68.074219"/>
     </g>
    </g>
    <g id="line2d_36">
     <path d="M 66.17 82.610938 
L 76.17 82.610938 
L 86.17 82.610938 
" style="fill: none; stroke: #98ff00; stroke-width: 1.5; stroke-linecap: square"/>
    </g>
    <g id="text_19">
     <!-- CZ -->
     <g transform="translate(94.17 86.110938)scale(0.1 -0.1)">
      <defs>
       <path id="DejaVuSans-5a" d="M 359 4666 
L 4025 4666 
L 4025 4184 
L 1075 531 
L 4097 531 
L 4097 0 
L 288 0 
L 288 481 
L 3238 4134 
L 359 4134 
L 359 4666 
z
" transform="scale(0.015625)"/>
      </defs>
      <use xlink:href="#DejaVuSans-43"/>
      <use xlink:href="#DejaVuSans-5a" x="69.824219"/>
     </g>
    </g>
    <g id="line2d_37">
     <path d="M 66.17 97.289062 
L 76.17 97.289062 
L 86.17 97.289062 
" style="fill: none; stroke: #ff7fd1; stroke-width: 1.5; stroke-linecap: square"/>
    </g>
    <g id="text_20">
     <!-- DE -->
     <g transform="translate(94.17 100.789062)scale(0.1 -0.1)">
      <defs>
       <path id="DejaVuSans-44" d="M 1259 4147 
L 1259 519 
L 2022 519 
Q 2988 519 3436 956 
Q 3884 1394 3884 2338 
Q 3884 3275 3436 3711 
Q 2988 4147 2022 4147 
L 1259 4147 
z
M 628 4666 
L 1925 4666 
Q 3281 4666 3915 4102 
Q 4550 3538 4550 2338 
Q 4550 1131 3912 565 
Q 3275 0 1925 0 
L 628 0 
L 628 4666 
z
" transform="scale(0.015625)"/>
      </defs>
      <use xlink:href="#DejaVuSans-44"/>
      <use xlink:href="#DejaVuSans-45" x="77.001953"/>
     </g>
    </g>
    <g id="line2d_38">
     <path d="M 66.17 111.967188 
L 76.17 111.967188 
L 86.17 111.967188 
" style="fill: none; stroke: #6c004f; stroke-width: 1.5; stroke-linecap: square"/>
    </g>
    <g id="text_21">
     <!-- DK -->
     <g transform="translate(94.17 115.467188)scale(0.1 -0.1)">
      <defs>
       <path id="DejaVuSans-4b" d="M 628 4666 
L 1259 4666 
L 1259 2694 
L 3353 4666 
L 4166 4666 
L 1850 2491 
L 4331 0 
L 3500 0 
L 1259 2247 
L 1259 0 
L 628 0 
L 628 4666 
z
" transform="scale(0.015625)"/>
      </defs>
      <use xlink:href="#DejaVuSans-44"/>
      <use xlink:href="#DejaVuSans-4b" x="77.001953"/>
     </g>
    </g>
    <g id="line2d_39">
     <path d="M 66.17 126.645312 
L 76.17 126.645312 
L 86.17 126.645312 
" style="fill: none; stroke: #583b00; stroke-width: 1.5; stroke-linecap: square"/>
    </g>
    <g id="text_22">
     <!-- EL -->
     <g transform="translate(94.17 130.145312)scale(0.1 -0.1)">
      <defs>
       <path id="DejaVuSans-4c" d="M 628 4666 
L 1259 4666 
L 1259 531 
L 3531 531 
L 3531 0 
L 628 0 
L 628 4666 
z
" transform="scale(0.015625)"/>
      </defs>
      <use xlink:href="#DejaVuSans-45"/>
      <use xlink:href="#DejaVuSans-4c" x="63.183594"/>
     </g>
    </g>
    <g id="line2d_40">
     <path d="M 66.17 141.323438 
L 76.17 141.323438 
L 86.17 141.323438 
" style="fill: none; stroke: #005759; stroke-width: 1.5; stroke-linecap: square"/>
    </g>
    <g id="text_23">
     <!-- ES -->
     <g transform="translate(94.17 144.823438)scale(0.1 -0.1)">
      <defs>
       <path id="DejaVuSans-53" d="M 3425 4513 
L 3425 3897 
Q 3066 4069 2747 4153 
Q 2428 4238 2131 4238 
Q 1616 4238 1336 4038 
Q 1056 3838 1056 3469 
Q 1056 3159 1242 3001 
Q 1428 2844 1947 2747 
L 2328 2669 
Q 3034 2534 3370 2195 
Q 3706 1856 3706 1288 
Q 3706 609 3251 259 
Q 2797 -91 1919 -91 
Q 1588 -91 1214 -16 
Q 841 59 441 206 
L 441 856 
Q 825 641 1194 531 
Q 1563 422 1919 422 
Q 2459 422 2753 634 
Q 3047 847 3047 1241 
Q 3047 1584 2836 1778 
Q 2625 1972 2144 2069 
L 1759 2144 
Q 1053 2284 737 2584 
Q 422 2884 422 3419 
Q 422 4038 858 4394 
Q 1294 4750 2059 4750 
Q 2388 4750 2728 4690 
Q 3069 4631 3425 4513 
z
" transform="scale(0.015625)"/>
      </defs>
      <use xlink:href="#DejaVuSans-45"/>
      <use xlink:href="#DejaVuSans-53" x="63.183594"/>
     </g>
    </g>
    <g id="line2d_41">
     <path d="M 66.17 156.001562 
L 76.17 156.001562 
L 86.17 156.001562 
" style="fill: none; stroke: #0000dd; stroke-width: 1.5; stroke-linecap: square"/>
    </g>
    <g id="text_24">
     <!-- FI -->
     <g transform="translate(94.17 159.501562)scale(0.1 -0.1)">
      <defs>
       <path id="DejaVuSans-46" d="M 628 4666 
L 3309 4666 
L 3309 4134 
L 1259 4134 
L 1259 2759 
L 3109 2759 
L 3109 2228 
L 1259 2228 
L 1259 0 
L 628 0 
L 628 4666 
z
" transform="scale(0.015625)"/>
       <path id="DejaVuSans-49" d="M 628 4666 
L 1259 4666 
L 1259 0 
L 628 0 
L 628 4666 
z
" transform="scale(0.015625)"/>
      </defs>
      <use xlink:href="#DejaVuSans-46"/>
      <use xlink:href="#DejaVuSans-49" x="57.519531"/>
     </g>
    </g>
    <g id="line2d_42">
     <path d="M 128.604375 23.898438 
L 138.604375 23.898438 
L 148.604375 23.898438 
" style="fill: none; stroke: #95b578; stroke-width: 1.5; stroke-linecap: square"/>
    </g>
    <g id="text_25">
     <!-- IT -->
     <g transform="translate(156.604375 27.398438)scale(0.1 -0.1)">
      <use xlink:href="#DejaVuSans-49"/>
      <use xlink:href="#DejaVuSans-54" x="29.492188"/>
     </g>
    </g>
    <g id="line2d_43">
     <path d="M 128.604375 38.576563 
L 138.604375 38.576563 
L 148.604375 38.576563 
" style="fill: none; stroke: #c004b9; stroke-width: 1.5; stroke-linecap: square"/>
    </g>
    <g id="text_26">
     <!-- LT -->
     <g transform="translate(156.604375 42.076563)scale(0.1 -0.1)">
      <use xlink:href="#DejaVuSans-4c"/>
      <use xlink:href="#DejaVuSans-54" x="41.962891"/>
     </g>
    </g>
    <g id="line2d_44">
     <path d="M 128.604375 53.254687 
L 138.604375 53.254687 
L 148.604375 53.254687 
" style="fill: none; stroke: #0774d8; stroke-width: 1.5; stroke-linecap: square"/>
    </g>
    <g id="text_27">
     <!-- MT -->
     <g transform="translate(156.604375 56.754687)scale(0.1 -0.1)">
      <defs>
       <path id="DejaVuSans-4d" d="M 628 4666 
L 1569 4666 
L 2759 1491 
L 3956 4666 
L 4897 4666 
L 4897 0 
L 4281 0 
L 4281 4097 
L 3078 897 
L 2444 897 
L 1241 4097 
L 1241 0 
L 628 0 
L 628 4666 
z
" transform="scale(0.015625)"/>
      </defs>
      <use xlink:href="#DejaVuSans-4d"/>
      <use xlink:href="#DejaVuSans-54" x="86.279297"/>
     </g>
    </g>
    <g id="line2d_45">
     <path d="M 128.604375 67.932813 
L 138.604375 67.932813 
L 148.604375 67.932813 
" style="fill: none; stroke: #fef590; stroke-width: 1.5; stroke-linecap: square"/>
    </g>
    <g id="text_28">
     <!-- NL -->
     <g transform="translate(156.604375 71.432813)scale(0.1 -0.1)">
      <use xlink:href="#DejaVuSans-4e"/>
      <use xlink:href="#DejaVuSans-4c" x="74.804688"/>
     </g>
    </g>
    <g id="line2d_46">
     <path d="M 128.604375 82.610938 
L 138.604375 82.610938 
L 148.604375 82.610938 
" style="fill: none; stroke: #8f7a00; stroke-width: 1.5; stroke-linecap: square"/>
    </g>
    <g id="text_29">
     <!-- PT -->
     <g transform="translate(156.604375 86.110938)scale(0.1 -0.1)">
      <defs>
       <path id="DejaVuSans-50" d="M 1259 4147 
L 1259 2394 
L 2053 2394 
Q 2494 2394 2734 2622 
Q 2975 2850 2975 3272 
Q 2975 3691 2734 3919 
Q 2494 4147 2053 4147 
L 1259 4147 
z
M 628 4666 
L 2053 4666 
Q 2838 4666 3239 4311 
Q 3641 3956 3641 3272 
Q 3641 2581 3239 2228 
Q 2838 1875 2053 1875 
L 1259 1875 
L 1259 0 
L 628 0 
L 628 4666 
z
" transform="scale(0.015625)"/>
      </defs>
      <use xlink:href="#DejaVuSans-50"/>
      <use xlink:href="#DejaVuSans-54" x="60.302734"/>
     </g>
    </g>
    <g id="line2d_47">
     <path d="M 128.604375 97.289062 
L 138.604375 97.289062 
L 148.604375 97.289062 
" style="fill: none; stroke: #ff7266; stroke-width: 1.5; stroke-linecap: square"/>
    </g>
    <g id="text_30">
     <!-- RO -->
     <g transform="translate(156.604375 100.789062)scale(0.1 -0.1)">
      <defs>
       <path id="DejaVuSans-4f" d="M 2522 4238 
Q 1834 4238 1429 3725 
Q 1025 3213 1025 2328 
Q 1025 1447 1429 934 
Q 1834 422 2522 422 
Q 3209 422 3611 934 
Q 4013 1447 4013 2328 
Q 4013 3213 3611 3725 
Q 3209 4238 2522 4238 
z
M 2522 4750 
Q 3503 4750 4090 4092 
Q 4678 3434 4678 2328 
Q 4678 1225 4090 567 
Q 3503 -91 2522 -91 
Q 1538 -91 948 565 
Q 359 1222 359 2328 
Q 359 3434 948 4092 
Q 1538 4750 2522 4750 
z
" transform="scale(0.015625)"/>
      </defs>
      <use xlink:href="#DejaVuSans-52"/>
      <use xlink:href="#DejaVuSans-4f" x="69.482422"/>
     </g>
    </g>
    <g id="line2d_48">
     <path d="M 128.604375 111.967187 
L 138.604375 111.967187 
L 148.604375 111.967187 
" style="fill: none; stroke: #eeb9b9; stroke-width: 1.5; stroke-linecap: square"/>
    </g>
    <g id="text_31">
     <!-- SE -->
     <g transform="translate(156.604375 115.467187)scale(0.1 -0.1)">
      <use xlink:href="#DejaVuSans-53"/>
      <use xlink:href="#DejaVuSans-45" x="63.476562"/>
     </g>
    </g>
    <g id="line2d_49">
     <path d="M 128.604375 126.645312 
L 138.604375 126.645312 
L 148.604375 126.645312 
" style="fill: none; stroke: #5e7e66; stroke-width: 1.5; stroke-linecap: square"/>
    </g>
    <g id="text_32">
     <!-- SI -->
     <g transform="translate(156.604375 130.145312)scale(0.1 -0.1)">
      <use xlink:href="#DejaVuSans-53"/>
      <use xlink:href="#DejaVuSans-49" x="63.476562"/>
     </g>
    </g>
    <g id="line2d_50">
     <path d="M 128.604375 141.323437 
L 138.604375 141.323437 
L 148.604375 141.323437 
" style="fill: none; stroke: #9be4ff; stroke-width: 1.5; stroke-linecap: square"/>
    </g>
    <g id="text_33">
     <!-- SK -->
     <g transform="translate(156.604375 144.823437)scale(0.1 -0.1)">
      <use xlink:href="#DejaVuSans-53"/>
      <use xlink:href="#DejaVuSans-4b" x="63.476562"/>
     </g>
    </g>
   </g>
  </g>
 </g>
 <defs>
  <clipPath id="p8b6911be3f">
   <rect x="57.17" y="10.8" width="292.03" height="235.24"/>
  </clipPath>
 </defs>
</svg>
