<?xml version="1.0" encoding="utf-8" standalone="no"?>
<!DOCTYPE svg PUBLIC "-//W3C//DTD SVG 1.1//EN"
  "http://www.w3.org/Graphics/SVG/1.1/DTD/svg11.dtd">
<svg xmlns:xlink="http://www.w3.org/1999/xlink" width="460.8pt" height="345.6pt" viewBox="0 0 460.8 345.6" xmlns="http://www.w3.org/2000/svg" version="1.1">
 <metadata>
  <rdf:RDF xmlns:dc="http://purl.org/dc/elements/1.1/" xmlns:cc="http://creativecommons.org/ns#" xmlns:rdf="http://www.w3.org/1999/02/22-rdf-syntax-ns#">
   <cc:Work>
    <dc:type rdf:resource="http://purl.org/dc/dcmitype/StillImage"/>
    <dc:date>2024-02-02T17:08:00.875904</dc:date>
    <dc:format>image/svg+xml</dc:format>
    <dc:creator>
     <cc:Agent>
      <dc:title>Matplotlib v3.5.1, https://matplotlib.org/</dc:title>
     </cc:Agent>
    </dc:creator>
   </cc:Work>
  </rdf:RDF>
 </metadata>
 <defs>
  <style type="text/css">*{stroke-linejoin: round; stroke-linecap: butt}</style>
 </defs>
 <g id="figure_1">
  <g id="patch_1">
   <path d="M 0 345.6 
L 460.8 345.6 
L 460.8 0 
L 0 0 
L 0 345.6 
z
" style="fill: none"/>
  </g>
  <g id="axes_1">
   <g id="patch_2">
    <path d="M 57.17 303.64 
L 450 303.64 
L 450 14.76 
L 57.17 14.76 
L 57.17 303.64 
z
" style="fill: none"/>
   </g>
   <g id="matplotlib.axis_1">
    <g id="xtick_1">
     <g id="line2d_1">
      <defs>
       <path id="m76b80e33ab" d="M 0 0 
L 0 3.5 
" style="stroke: #000000; stroke-width: 0.8"/>
      </defs>
      <g>
       <use xlink:href="#m76b80e33ab" x="140.799205" y="303.64" style="stroke: #000000; stroke-width: 0.8"/>
      </g>
     </g>
     <g id="text_1">
      <!-- 50 -->
      <g transform="translate(134.436705 318.238437)scale(0.1 -0.1)">
       <defs>
        <path id="DejaVuSans-35" d="M 691 4666 
L 3169 4666 
L 3169 4134 
L 1269 4134 
L 1269 2991 
Q 1406 3038 1543 3061 
Q 1681 3084 1819 3084 
Q 2600 3084 3056 2656 
Q 3513 2228 3513 1497 
Q 3513 744 3044 326 
Q 2575 -91 1722 -91 
Q 1428 -91 1123 -41 
Q 819 9 494 109 
L 494 744 
Q 775 591 1075 516 
Q 1375 441 1709 441 
Q 2250 441 2565 725 
Q 2881 1009 2881 1497 
Q 2881 1984 2565 2268 
Q 2250 2553 1709 2553 
Q 1456 2553 1204 2497 
Q 953 2441 691 2322 
L 691 4666 
z
" transform="scale(0.015625)"/>
        <path id="DejaVuSans-30" d="M 2034 4250 
Q 1547 4250 1301 3770 
Q 1056 3291 1056 2328 
Q 1056 1369 1301 889 
Q 1547 409 2034 409 
Q 2525 409 2770 889 
Q 3016 1369 3016 2328 
Q 3016 3291 2770 3770 
Q 2525 4250 2034 4250 
z
M 2034 4750 
Q 2819 4750 3233 4129 
Q 3647 3509 3647 2328 
Q 3647 1150 3233 529 
Q 2819 -91 2034 -91 
Q 1250 -91 836 529 
Q 422 1150 422 2328 
Q 422 3509 836 4129 
Q 1250 4750 2034 4750 
z
" transform="scale(0.015625)"/>
       </defs>
       <use xlink:href="#DejaVuSans-35"/>
       <use xlink:href="#DejaVuSans-30" x="63.623047"/>
      </g>
     </g>
    </g>
    <g id="xtick_2">
     <g id="line2d_2">
      <g>
       <use xlink:href="#m76b80e33ab" x="225.096041" y="303.64" style="stroke: #000000; stroke-width: 0.8"/>
      </g>
     </g>
     <g id="text_2">
      <!-- 100 -->
      <g transform="translate(215.552291 318.238437)scale(0.1 -0.1)">
       <defs>
        <path id="DejaVuSans-31" d="M 794 531 
L 1825 531 
L 1825 4091 
L 703 3866 
L 703 4441 
L 1819 4666 
L 2450 4666 
L 2450 531 
L 3481 531 
L 3481 0 
L 794 0 
L 794 531 
z
" transform="scale(0.015625)"/>
       </defs>
       <use xlink:href="#DejaVuSans-31"/>
       <use xlink:href="#DejaVuSans-30" x="63.623047"/>
       <use xlink:href="#DejaVuSans-30" x="127.246094"/>
      </g>
     </g>
    </g>
    <g id="xtick_3">
     <g id="line2d_3">
      <g>
       <use xlink:href="#m76b80e33ab" x="309.392877" y="303.64" style="stroke: #000000; stroke-width: 0.8"/>
      </g>
     </g>
     <g id="text_3">
      <!-- 150 -->
      <g transform="translate(299.849127 318.238437)scale(0.1 -0.1)">
       <use xlink:href="#DejaVuSans-31"/>
       <use xlink:href="#DejaVuSans-35" x="63.623047"/>
       <use xlink:href="#DejaVuSans-30" x="127.246094"/>
      </g>
     </g>
    </g>
    <g id="xtick_4">
     <g id="line2d_4">
      <g>
       <use xlink:href="#m76b80e33ab" x="393.689713" y="303.64" style="stroke: #000000; stroke-width: 0.8"/>
      </g>
     </g>
     <g id="text_4">
      <!-- 200 -->
      <g transform="translate(384.145963 318.238437)scale(0.1 -0.1)">
       <defs>
        <path id="DejaVuSans-32" d="M 1228 531 
L 3431 531 
L 3431 0 
L 469 0 
L 469 531 
Q 828 903 1448 1529 
Q 2069 2156 2228 2338 
Q 2531 2678 2651 2914 
Q 2772 3150 2772 3378 
Q 2772 3750 2511 3984 
Q 2250 4219 1831 4219 
Q 1534 4219 1204 4116 
Q 875 4013 500 3803 
L 500 4441 
Q 881 4594 1212 4672 
Q 1544 4750 1819 4750 
Q 2544 4750 2975 4387 
Q 3406 4025 3406 3419 
Q 3406 3131 3298 2873 
Q 3191 2616 2906 2266 
Q 2828 2175 2409 1742 
Q 1991 1309 1228 531 
z
" transform="scale(0.015625)"/>
       </defs>
       <use xlink:href="#DejaVuSans-32"/>
       <use xlink:href="#DejaVuSans-30" x="63.623047"/>
       <use xlink:href="#DejaVuSans-30" x="127.246094"/>
      </g>
     </g>
    </g>
    <g id="text_5">
     <!-- Unemployment Rate (per 1000 citizens) -->
     <g transform="translate(153.438906 331.916562)scale(0.1 -0.1)">
      <defs>
       <path id="DejaVuSans-55" d="M 556 4666 
L 1191 4666 
L 1191 1831 
Q 1191 1081 1462 751 
Q 1734 422 2344 422 
Q 2950 422 3222 751 
Q 3494 1081 3494 1831 
L 3494 4666 
L 4128 4666 
L 4128 1753 
Q 4128 841 3676 375 
Q 3225 -91 2344 -91 
Q 1459 -91 1007 375 
Q 556 841 556 1753 
L 556 4666 
z
" transform="scale(0.015625)"/>
       <path id="DejaVuSans-6e" d="M 3513 2113 
L 3513 0 
L 2938 0 
L 2938 2094 
Q 2938 2591 2744 2837 
Q 2550 3084 2163 3084 
Q 1697 3084 1428 2787 
Q 1159 2491 1159 1978 
L 1159 0 
L 581 0 
L 581 3500 
L 1159 3500 
L 1159 2956 
Q 1366 3272 1645 3428 
Q 1925 3584 2291 3584 
Q 2894 3584 3203 3211 
Q 3513 2838 3513 2113 
z
" transform="scale(0.015625)"/>
       <path id="DejaVuSans-65" d="M 3597 1894 
L 3597 1613 
L 953 1613 
Q 991 1019 1311 708 
Q 1631 397 2203 397 
Q 2534 397 2845 478 
Q 3156 559 3463 722 
L 3463 178 
Q 3153 47 2828 -22 
Q 2503 -91 2169 -91 
Q 1331 -91 842 396 
Q 353 884 353 1716 
Q 353 2575 817 3079 
Q 1281 3584 2069 3584 
Q 2775 3584 3186 3129 
Q 3597 2675 3597 1894 
z
M 3022 2063 
Q 3016 2534 2758 2815 
Q 2500 3097 2075 3097 
Q 1594 3097 1305 2825 
Q 1016 2553 972 2059 
L 3022 2063 
z
" transform="scale(0.015625)"/>
       <path id="DejaVuSans-6d" d="M 3328 2828 
Q 3544 3216 3844 3400 
Q 4144 3584 4550 3584 
Q 5097 3584 5394 3201 
Q 5691 2819 5691 2113 
L 5691 0 
L 5113 0 
L 5113 2094 
Q 5113 2597 4934 2840 
Q 4756 3084 4391 3084 
Q 3944 3084 3684 2787 
Q 3425 2491 3425 1978 
L 3425 0 
L 2847 0 
L 2847 2094 
Q 2847 2600 2669 2842 
Q 2491 3084 2119 3084 
Q 1678 3084 1418 2786 
Q 1159 2488 1159 1978 
L 1159 0 
L 581 0 
L 581 3500 
L 1159 3500 
L 1159 2956 
Q 1356 3278 1631 3431 
Q 1906 3584 2284 3584 
Q 2666 3584 2933 3390 
Q 3200 3197 3328 2828 
z
" transform="scale(0.015625)"/>
       <path id="DejaVuSans-70" d="M 1159 525 
L 1159 -1331 
L 581 -1331 
L 581 3500 
L 1159 3500 
L 1159 2969 
Q 1341 3281 1617 3432 
Q 1894 3584 2278 3584 
Q 2916 3584 3314 3078 
Q 3713 2572 3713 1747 
Q 3713 922 3314 415 
Q 2916 -91 2278 -91 
Q 1894 -91 1617 61 
Q 1341 213 1159 525 
z
M 3116 1747 
Q 3116 2381 2855 2742 
Q 2594 3103 2138 3103 
Q 1681 3103 1420 2742 
Q 1159 2381 1159 1747 
Q 1159 1113 1420 752 
Q 1681 391 2138 391 
Q 2594 391 2855 752 
Q 3116 1113 3116 1747 
z
" transform="scale(0.015625)"/>
       <path id="DejaVuSans-6c" d="M 603 4863 
L 1178 4863 
L 1178 0 
L 603 0 
L 603 4863 
z
" transform="scale(0.015625)"/>
       <path id="DejaVuSans-6f" d="M 1959 3097 
Q 1497 3097 1228 2736 
Q 959 2375 959 1747 
Q 959 1119 1226 758 
Q 1494 397 1959 397 
Q 2419 397 2687 759 
Q 2956 1122 2956 1747 
Q 2956 2369 2687 2733 
Q 2419 3097 1959 3097 
z
M 1959 3584 
Q 2709 3584 3137 3096 
Q 3566 2609 3566 1747 
Q 3566 888 3137 398 
Q 2709 -91 1959 -91 
Q 1206 -91 779 398 
Q 353 888 353 1747 
Q 353 2609 779 3096 
Q 1206 3584 1959 3584 
z
" transform="scale(0.015625)"/>
       <path id="DejaVuSans-79" d="M 2059 -325 
Q 1816 -950 1584 -1140 
Q 1353 -1331 966 -1331 
L 506 -1331 
L 506 -850 
L 844 -850 
Q 1081 -850 1212 -737 
Q 1344 -625 1503 -206 
L 1606 56 
L 191 3500 
L 800 3500 
L 1894 763 
L 2988 3500 
L 3597 3500 
L 2059 -325 
z
" transform="scale(0.015625)"/>
       <path id="DejaVuSans-74" d="M 1172 4494 
L 1172 3500 
L 2356 3500 
L 2356 3053 
L 1172 3053 
L 1172 1153 
Q 1172 725 1289 603 
Q 1406 481 1766 481 
L 2356 481 
L 2356 0 
L 1766 0 
Q 1100 0 847 248 
Q 594 497 594 1153 
L 594 3053 
L 172 3053 
L 172 3500 
L 594 3500 
L 594 4494 
L 1172 4494 
z
" transform="scale(0.015625)"/>
       <path id="DejaVuSans-20" transform="scale(0.015625)"/>
       <path id="DejaVuSans-52" d="M 2841 2188 
Q 3044 2119 3236 1894 
Q 3428 1669 3622 1275 
L 4263 0 
L 3584 0 
L 2988 1197 
Q 2756 1666 2539 1819 
Q 2322 1972 1947 1972 
L 1259 1972 
L 1259 0 
L 628 0 
L 628 4666 
L 2053 4666 
Q 2853 4666 3247 4331 
Q 3641 3997 3641 3322 
Q 3641 2881 3436 2590 
Q 3231 2300 2841 2188 
z
M 1259 4147 
L 1259 2491 
L 2053 2491 
Q 2509 2491 2742 2702 
Q 2975 2913 2975 3322 
Q 2975 3731 2742 3939 
Q 2509 4147 2053 4147 
L 1259 4147 
z
" transform="scale(0.015625)"/>
       <path id="DejaVuSans-61" d="M 2194 1759 
Q 1497 1759 1228 1600 
Q 959 1441 959 1056 
Q 959 750 1161 570 
Q 1363 391 1709 391 
Q 2188 391 2477 730 
Q 2766 1069 2766 1631 
L 2766 1759 
L 2194 1759 
z
M 3341 1997 
L 3341 0 
L 2766 0 
L 2766 531 
Q 2569 213 2275 61 
Q 1981 -91 1556 -91 
Q 1019 -91 701 211 
Q 384 513 384 1019 
Q 384 1609 779 1909 
Q 1175 2209 1959 2209 
L 2766 2209 
L 2766 2266 
Q 2766 2663 2505 2880 
Q 2244 3097 1772 3097 
Q 1472 3097 1187 3025 
Q 903 2953 641 2809 
L 641 3341 
Q 956 3463 1253 3523 
Q 1550 3584 1831 3584 
Q 2591 3584 2966 3190 
Q 3341 2797 3341 1997 
z
" transform="scale(0.015625)"/>
       <path id="DejaVuSans-28" d="M 1984 4856 
Q 1566 4138 1362 3434 
Q 1159 2731 1159 2009 
Q 1159 1288 1364 580 
Q 1569 -128 1984 -844 
L 1484 -844 
Q 1016 -109 783 600 
Q 550 1309 550 2009 
Q 550 2706 781 3412 
Q 1013 4119 1484 4856 
L 1984 4856 
z
" transform="scale(0.015625)"/>
       <path id="DejaVuSans-72" d="M 2631 2963 
Q 2534 3019 2420 3045 
Q 2306 3072 2169 3072 
Q 1681 3072 1420 2755 
Q 1159 2438 1159 1844 
L 1159 0 
L 581 0 
L 581 3500 
L 1159 3500 
L 1159 2956 
Q 1341 3275 1631 3429 
Q 1922 3584 2338 3584 
Q 2397 3584 2469 3576 
Q 2541 3569 2628 3553 
L 2631 2963 
z
" transform="scale(0.015625)"/>
       <path id="DejaVuSans-63" d="M 3122 3366 
L 3122 2828 
Q 2878 2963 2633 3030 
Q 2388 3097 2138 3097 
Q 1578 3097 1268 2742 
Q 959 2388 959 1747 
Q 959 1106 1268 751 
Q 1578 397 2138 397 
Q 2388 397 2633 464 
Q 2878 531 3122 666 
L 3122 134 
Q 2881 22 2623 -34 
Q 2366 -91 2075 -91 
Q 1284 -91 818 406 
Q 353 903 353 1747 
Q 353 2603 823 3093 
Q 1294 3584 2113 3584 
Q 2378 3584 2631 3529 
Q 2884 3475 3122 3366 
z
" transform="scale(0.015625)"/>
       <path id="DejaVuSans-69" d="M 603 3500 
L 1178 3500 
L 1178 0 
L 603 0 
L 603 3500 
z
M 603 4863 
L 1178 4863 
L 1178 4134 
L 603 4134 
L 603 4863 
z
" transform="scale(0.015625)"/>
       <path id="DejaVuSans-7a" d="M 353 3500 
L 3084 3500 
L 3084 2975 
L 922 459 
L 3084 459 
L 3084 0 
L 275 0 
L 275 525 
L 2438 3041 
L 353 3041 
L 353 3500 
z
" transform="scale(0.015625)"/>
       <path id="DejaVuSans-73" d="M 2834 3397 
L 2834 2853 
Q 2591 2978 2328 3040 
Q 2066 3103 1784 3103 
Q 1356 3103 1142 2972 
Q 928 2841 928 2578 
Q 928 2378 1081 2264 
Q 1234 2150 1697 2047 
L 1894 2003 
Q 2506 1872 2764 1633 
Q 3022 1394 3022 966 
Q 3022 478 2636 193 
Q 2250 -91 1575 -91 
Q 1294 -91 989 -36 
Q 684 19 347 128 
L 347 722 
Q 666 556 975 473 
Q 1284 391 1588 391 
Q 1994 391 2212 530 
Q 2431 669 2431 922 
Q 2431 1156 2273 1281 
Q 2116 1406 1581 1522 
L 1381 1569 
Q 847 1681 609 1914 
Q 372 2147 372 2553 
Q 372 3047 722 3315 
Q 1072 3584 1716 3584 
Q 2034 3584 2315 3537 
Q 2597 3491 2834 3397 
z
" transform="scale(0.015625)"/>
       <path id="DejaVuSans-29" d="M 513 4856 
L 1013 4856 
Q 1481 4119 1714 3412 
Q 1947 2706 1947 2009 
Q 1947 1309 1714 600 
Q 1481 -109 1013 -844 
L 513 -844 
Q 928 -128 1133 580 
Q 1338 1288 1338 2009 
Q 1338 2731 1133 3434 
Q 928 4138 513 4856 
z
" transform="scale(0.015625)"/>
      </defs>
      <use xlink:href="#DejaVuSans-55"/>
      <use xlink:href="#DejaVuSans-6e" x="73.193359"/>
      <use xlink:href="#DejaVuSans-65" x="136.572266"/>
      <use xlink:href="#DejaVuSans-6d" x="198.095703"/>
      <use xlink:href="#DejaVuSans-70" x="295.507812"/>
      <use xlink:href="#DejaVuSans-6c" x="358.984375"/>
      <use xlink:href="#DejaVuSans-6f" x="386.767578"/>
      <use xlink:href="#DejaVuSans-79" x="447.949219"/>
      <use xlink:href="#DejaVuSans-6d" x="507.128906"/>
      <use xlink:href="#DejaVuSans-65" x="604.541016"/>
      <use xlink:href="#DejaVuSans-6e" x="666.064453"/>
      <use xlink:href="#DejaVuSans-74" x="729.443359"/>
      <use xlink:href="#DejaVuSans-20" x="768.652344"/>
      <use xlink:href="#DejaVuSans-52" x="800.439453"/>
      <use xlink:href="#DejaVuSans-61" x="867.671875"/>
      <use xlink:href="#DejaVuSans-74" x="928.951172"/>
      <use xlink:href="#DejaVuSans-65" x="968.160156"/>
      <use xlink:href="#DejaVuSans-20" x="1029.683594"/>
      <use xlink:href="#DejaVuSans-28" x="1061.470703"/>
      <use xlink:href="#DejaVuSans-70" x="1100.484375"/>
      <use xlink:href="#DejaVuSans-65" x="1163.960938"/>
      <use xlink:href="#DejaVuSans-72" x="1225.484375"/>
      <use xlink:href="#DejaVuSans-20" x="1266.597656"/>
      <use xlink:href="#DejaVuSans-31" x="1298.384766"/>
      <use xlink:href="#DejaVuSans-30" x="1362.007812"/>
      <use xlink:href="#DejaVuSans-30" x="1425.630859"/>
      <use xlink:href="#DejaVuSans-30" x="1489.253906"/>
      <use xlink:href="#DejaVuSans-20" x="1552.876953"/>
      <use xlink:href="#DejaVuSans-63" x="1584.664062"/>
      <use xlink:href="#DejaVuSans-69" x="1639.644531"/>
      <use xlink:href="#DejaVuSans-74" x="1667.427734"/>
      <use xlink:href="#DejaVuSans-69" x="1706.636719"/>
      <use xlink:href="#DejaVuSans-7a" x="1734.419922"/>
      <use xlink:href="#DejaVuSans-65" x="1786.910156"/>
      <use xlink:href="#DejaVuSans-6e" x="1848.433594"/>
      <use xlink:href="#DejaVuSans-73" x="1911.8125"/>
      <use xlink:href="#DejaVuSans-29" x="1963.912109"/>
     </g>
    </g>
   </g>
   <g id="matplotlib.axis_2">
    <g id="ytick_1">
     <g id="line2d_5">
      <defs>
       <path id="m93ff4330a5" d="M 0 0 
L -3.5 0 
" style="stroke: #000000; stroke-width: 0.8"/>
      </defs>
      <g>
       <use xlink:href="#m93ff4330a5" x="57.17" y="303.64" style="stroke: #000000; stroke-width: 0.8"/>
      </g>
     </g>
     <g id="text_6">
      <!-- 0 -->
      <g transform="translate(43.8075 307.439219)scale(0.1 -0.1)">
       <use xlink:href="#DejaVuSans-30"/>
      </g>
     </g>
    </g>
    <g id="ytick_2">
     <g id="line2d_6">
      <g>
       <use xlink:href="#m93ff4330a5" x="57.17" y="245.864" style="stroke: #000000; stroke-width: 0.8"/>
      </g>
     </g>
     <g id="text_7">
      <!-- 500 -->
      <g transform="translate(31.0825 249.663219)scale(0.1 -0.1)">
       <use xlink:href="#DejaVuSans-35"/>
       <use xlink:href="#DejaVuSans-30" x="63.623047"/>
       <use xlink:href="#DejaVuSans-30" x="127.246094"/>
      </g>
     </g>
    </g>
    <g id="ytick_3">
     <g id="line2d_7">
      <g>
       <use xlink:href="#m93ff4330a5" x="57.17" y="188.088" style="stroke: #000000; stroke-width: 0.8"/>
      </g>
     </g>
     <g id="text_8">
      <!-- 1000 -->
      <g transform="translate(24.72 191.887219)scale(0.1 -0.1)">
       <use xlink:href="#DejaVuSans-31"/>
       <use xlink:href="#DejaVuSans-30" x="63.623047"/>
       <use xlink:href="#DejaVuSans-30" x="127.246094"/>
       <use xlink:href="#DejaVuSans-30" x="190.869141"/>
      </g>
     </g>
    </g>
    <g id="ytick_4">
     <g id="line2d_8">
      <g>
       <use xlink:href="#m93ff4330a5" x="57.17" y="130.312" style="stroke: #000000; stroke-width: 0.8"/>
      </g>
     </g>
     <g id="text_9">
      <!-- 1500 -->
      <g transform="translate(24.72 134.111219)scale(0.1 -0.1)">
       <use xlink:href="#DejaVuSans-31"/>
       <use xlink:href="#DejaVuSans-35" x="63.623047"/>
       <use xlink:href="#DejaVuSans-30" x="127.246094"/>
       <use xlink:href="#DejaVuSans-30" x="190.869141"/>
      </g>
     </g>
    </g>
    <g id="ytick_5">
     <g id="line2d_9">
      <g>
       <use xlink:href="#m93ff4330a5" x="57.17" y="72.536" style="stroke: #000000; stroke-width: 0.8"/>
      </g>
     </g>
     <g id="text_10">
      <!-- 2000 -->
      <g transform="translate(24.72 76.335219)scale(0.1 -0.1)">
       <use xlink:href="#DejaVuSans-32"/>
       <use xlink:href="#DejaVuSans-30" x="63.623047"/>
       <use xlink:href="#DejaVuSans-30" x="127.246094"/>
       <use xlink:href="#DejaVuSans-30" x="190.869141"/>
      </g>
     </g>
    </g>
    <g id="ytick_6">
     <g id="line2d_10">
      <g>
       <use xlink:href="#m93ff4330a5" x="57.17" y="14.76" style="stroke: #000000; stroke-width: 0.8"/>
      </g>
     </g>
     <g id="text_11">
      <!-- 2500 -->
      <g transform="translate(24.72 18.559219)scale(0.1 -0.1)">
       <use xlink:href="#DejaVuSans-32"/>
       <use xlink:href="#DejaVuSans-35" x="63.623047"/>
       <use xlink:href="#DejaVuSans-30" x="127.246094"/>
       <use xlink:href="#DejaVuSans-30" x="190.869141"/>
      </g>
     </g>
    </g>
    <g id="text_12">
     <!-- Number of Robberies -->
     <g transform="translate(18.640313 212.142969)rotate(-90)scale(0.1 -0.1)">
      <defs>
       <path id="DejaVuSans-4e" d="M 628 4666 
L 1478 4666 
L 3547 763 
L 3547 4666 
L 4159 4666 
L 4159 0 
L 3309 0 
L 1241 3903 
L 1241 0 
L 628 0 
L 628 4666 
z
" transform="scale(0.015625)"/>
       <path id="DejaVuSans-75" d="M 544 1381 
L 544 3500 
L 1119 3500 
L 1119 1403 
Q 1119 906 1312 657 
Q 1506 409 1894 409 
Q 2359 409 2629 706 
Q 2900 1003 2900 1516 
L 2900 3500 
L 3475 3500 
L 3475 0 
L 2900 0 
L 2900 538 
Q 2691 219 2414 64 
Q 2138 -91 1772 -91 
Q 1169 -91 856 284 
Q 544 659 544 1381 
z
M 1991 3584 
L 1991 3584 
z
" transform="scale(0.015625)"/>
       <path id="DejaVuSans-62" d="M 3116 1747 
Q 3116 2381 2855 2742 
Q 2594 3103 2138 3103 
Q 1681 3103 1420 2742 
Q 1159 2381 1159 1747 
Q 1159 1113 1420 752 
Q 1681 391 2138 391 
Q 2594 391 2855 752 
Q 3116 1113 3116 1747 
z
M 1159 2969 
Q 1341 3281 1617 3432 
Q 1894 3584 2278 3584 
Q 2916 3584 3314 3078 
Q 3713 2572 3713 1747 
Q 3713 922 3314 415 
Q 2916 -91 2278 -91 
Q 1894 -91 1617 61 
Q 1341 213 1159 525 
L 1159 0 
L 581 0 
L 581 4863 
L 1159 4863 
L 1159 2969 
z
" transform="scale(0.015625)"/>
       <path id="DejaVuSans-66" d="M 2375 4863 
L 2375 4384 
L 1825 4384 
Q 1516 4384 1395 4259 
Q 1275 4134 1275 3809 
L 1275 3500 
L 2222 3500 
L 2222 3053 
L 1275 3053 
L 1275 0 
L 697 0 
L 697 3053 
L 147 3053 
L 147 3500 
L 697 3500 
L 697 3744 
Q 697 4328 969 4595 
Q 1241 4863 1831 4863 
L 2375 4863 
z
" transform="scale(0.015625)"/>
      </defs>
      <use xlink:href="#DejaVuSans-4e"/>
      <use xlink:href="#DejaVuSans-75" x="74.804688"/>
      <use xlink:href="#DejaVuSans-6d" x="138.183594"/>
      <use xlink:href="#DejaVuSans-62" x="235.595703"/>
      <use xlink:href="#DejaVuSans-65" x="299.072266"/>
      <use xlink:href="#DejaVuSans-72" x="360.595703"/>
      <use xlink:href="#DejaVuSans-20" x="401.708984"/>
      <use xlink:href="#DejaVuSans-6f" x="433.496094"/>
      <use xlink:href="#DejaVuSans-66" x="494.677734"/>
      <use xlink:href="#DejaVuSans-20" x="529.882812"/>
      <use xlink:href="#DejaVuSans-52" x="561.669922"/>
      <use xlink:href="#DejaVuSans-6f" x="626.652344"/>
      <use xlink:href="#DejaVuSans-62" x="687.833984"/>
      <use xlink:href="#DejaVuSans-62" x="751.310547"/>
      <use xlink:href="#DejaVuSans-65" x="814.787109"/>
      <use xlink:href="#DejaVuSans-72" x="876.310547"/>
      <use xlink:href="#DejaVuSans-69" x="917.423828"/>
      <use xlink:href="#DejaVuSans-65" x="945.207031"/>
      <use xlink:href="#DejaVuSans-73" x="1006.730469"/>
     </g>
    </g>
   </g>
   <g id="line2d_11">
    <path d="M 57.17 316.106114 
L 65.186939 316.248106 
L 73.203878 316.390097 
L 81.220816 316.532088 
L 89.237755 316.67408 
L 97.254694 316.816071 
L 105.271633 316.958063 
L 113.288571 317.100054 
L 121.30551 317.242045 
L 129.322449 317.384037 
L 137.339388 317.526028 
L 145.356327 317.66802 
L 153.373265 317.810011 
L 161.390204 317.952002 
L 169.407143 318.093994 
L 177.424082 318.235985 
L 185.44102 318.377977 
L 193.457959 318.519968 
L 201.474898 318.661959 
L 209.491837 318.803951 
L 217.508776 318.945942 
L 225.525714 319.087934 
L 233.542653 319.229925 
L 241.559592 319.371916 
L 249.576531 319.513908 
L 257.593469 319.655899 
L 265.610408 319.797891 
L 273.627347 319.939882 
L 281.644286 320.081873 
L 289.661224 320.223865 
L 297.678163 320.365856 
L 305.695102 320.507847 
L 313.712041 320.649839 
L 321.72898 320.79183 
L 329.745918 320.933822 
L 337.762857 321.075813 
L 345.779796 321.217804 
L 353.796735 321.359796 
L 361.813673 321.501787 
L 369.830612 321.643779 
L 377.847551 321.78577 
L 385.86449 321.927761 
L 393.881429 322.069753 
L 401.898367 322.211744 
L 409.915306 322.353736 
L 417.932245 322.495727 
L 425.949184 322.637718 
L 433.966122 322.77971 
L 441.983061 322.921701 
L 450 323.063693 
" clip-path="url(#pebdfa0b277)" style="fill: none; stroke: #d70000; stroke-width: 1.5; stroke-linecap: square"/>
   </g>
   <g id="line2d_12">
    <path d="M 57.17 251.3659 
L 65.186939 251.078318 
L 73.203878 250.790736 
L 81.220816 250.503154 
L 89.237755 250.215571 
L 97.254694 249.927989 
L 105.271633 249.640407 
L 113.288571 249.352825 
L 121.30551 249.065243 
L 129.322449 248.777661 
L 137.339388 248.490079 
L 145.356327 248.202497 
L 153.373265 247.914915 
L 161.390204 247.627333 
L 169.407143 247.339751 
L 177.424082 247.052169 
L 185.44102 246.764587 
L 193.457959 246.477005 
L 201.474898 246.189423 
L 209.491837 245.901841 
L 217.508776 245.614259 
L 225.525714 245.326677 
L 233.542653 245.039095 
L 241.559592 244.751513 
L 249.576531 244.463931 
L 257.593469 244.176349 
L 265.610408 243.888767 
L 273.627347 243.601184 
L 281.644286 243.313602 
L 289.661224 243.02602 
L 297.678163 242.738438 
L 305.695102 242.450856 
L 313.712041 242.163274 
L 321.72898 241.875692 
L 329.745918 241.58811 
L 337.762857 241.300528 
L 345.779796 241.012946 
L 353.796735 240.725364 
L 361.813673 240.437782 
L 369.830612 240.1502 
L 377.847551 239.862618 
L 385.86449 239.575036 
L 393.881429 239.287454 
L 401.898367 238.999872 
L 409.915306 238.71229 
L 417.932245 238.424708 
L 425.949184 238.137126 
L 433.966122 237.849544 
L 441.983061 237.561962 
L 450 237.274379 
" clip-path="url(#pebdfa0b277)" style="fill: none; stroke: #8c3cff; stroke-width: 1.5; stroke-linecap: square"/>
   </g>
   <g id="line2d_13">
    <path d="M 57.17 274.843749 
L 65.186939 274.766923 
L 73.203878 274.690097 
L 81.220816 274.61327 
L 89.237755 274.536444 
L 97.254694 274.459617 
L 105.271633 274.382791 
L 113.288571 274.305965 
L 121.30551 274.229138 
L 129.322449 274.152312 
L 137.339388 274.075486 
L 145.356327 273.998659 
L 153.373265 273.921833 
L 161.390204 273.845006 
L 169.407143 273.76818 
L 177.424082 273.691354 
L 185.44102 273.614527 
L 193.457959 273.537701 
L 201.474898 273.460875 
L 209.491837 273.384048 
L 217.508776 273.307222 
L 225.525714 273.230396 
L 233.542653 273.153569 
L 241.559592 273.076743 
L 249.576531 272.999916 
L 257.593469 272.92309 
L 265.610408 272.846264 
L 273.627347 272.769437 
L 281.644286 272.692611 
L 289.661224 272.615785 
L 297.678163 272.538958 
L 305.695102 272.462132 
L 313.712041 272.385305 
L 321.72898 272.308479 
L 329.745918 272.231653 
L 337.762857 272.154826 
L 345.779796 272.078 
L 353.796735 272.001174 
L 361.813673 271.924347 
L 369.830612 271.847521 
L 377.847551 271.770694 
L 385.86449 271.693868 
L 393.881429 271.617042 
L 401.898367 271.540215 
L 409.915306 271.463389 
L 417.932245 271.386563 
L 425.949184 271.309736 
L 433.966122 271.23291 
L 441.983061 271.156084 
L 450 271.079257 
" clip-path="url(#pebdfa0b277)" style="fill: none; stroke: #028800; stroke-width: 1.5; stroke-linecap: square"/>
   </g>
   <g id="line2d_14">
    <path d="M 57.17 285.752094 
L 65.186939 285.716421 
L 73.203878 285.680748 
L 81.220816 285.645075 
L 89.237755 285.609402 
L 97.254694 285.573729 
L 105.271633 285.538057 
L 113.288571 285.502384 
L 121.30551 285.466711 
L 129.322449 285.431038 
L 137.339388 285.395365 
L 145.356327 285.359692 
L 153.373265 285.324019 
L 161.390204 285.288346 
L 169.407143 285.252673 
L 177.424082 285.217 
L 185.44102 285.181327 
L 193.457959 285.145654 
L 201.474898 285.109981 
L 209.491837 285.074308 
L 217.508776 285.038635 
L 225.525714 285.002962 
L 233.542653 284.967289 
L 241.559592 284.931616 
L 249.576531 284.895943 
L 257.593469 284.86027 
L 265.610408 284.824597 
L 273.627347 284.788924 
L 281.644286 284.753251 
L 289.661224 284.717578 
L 297.678163 284.681906 
L 305.695102 284.646233 
L 313.712041 284.61056 
L 321.72898 284.574887 
L 329.745918 284.539214 
L 337.762857 284.503541 
L 345.779796 284.467868 
L 353.796735 284.432195 
L 361.813673 284.396522 
L 369.830612 284.360849 
L 377.847551 284.325176 
L 385.86449 284.289503 
L 393.881429 284.25383 
L 401.898367 284.218157 
L 409.915306 284.182484 
L 417.932245 284.146811 
L 425.949184 284.111138 
L 433.966122 284.075465 
L 441.983061 284.039792 
L 450 284.004119 
" clip-path="url(#pebdfa0b277)" style="fill: none; stroke: #00acc7; stroke-width: 1.5; stroke-linecap: square"/>
   </g>
   <g id="line2d_15">
    <path d="M 57.17 283.208411 
L 65.186939 283.146638 
L 73.203878 283.084865 
L 81.220816 283.023091 
L 89.237755 282.961318 
L 97.254694 282.899545 
L 105.271633 282.837772 
L 113.288571 282.775999 
L 121.30551 282.714226 
L 129.322449 282.652453 
L 137.339388 282.59068 
L 145.356327 282.528907 
L 153.373265 282.467134 
L 161.390204 282.405361 
L 169.407143 282.343588 
L 177.424082 282.281815 
L 185.44102 282.220042 
L 193.457959 282.158269 
L 201.474898 282.096496 
L 209.491837 282.034723 
L 217.508776 281.972949 
L 225.525714 281.911176 
L 233.542653 281.849403 
L 241.559592 281.78763 
L 249.576531 281.725857 
L 257.593469 281.664084 
L 265.610408 281.602311 
L 273.627347 281.540538 
L 281.644286 281.478765 
L 289.661224 281.416992 
L 297.678163 281.355219 
L 305.695102 281.293446 
L 313.712041 281.231673 
L 321.72898 281.1699 
L 329.745918 281.108127 
L 337.762857 281.046354 
L 345.779796 280.984581 
L 353.796735 280.922807 
L 361.813673 280.861034 
L 369.830612 280.799261 
L 377.847551 280.737488 
L 385.86449 280.675715 
L 393.881429 280.613942 
L 401.898367 280.552169 
L 409.915306 280.490396 
L 417.932245 280.428623 
L 425.949184 280.36685 
L 433.966122 280.305077 
L 441.983061 280.243304 
L 450 280.181531 
" clip-path="url(#pebdfa0b277)" style="fill: none; stroke: #98ff00; stroke-width: 1.5; stroke-linecap: square"/>
   </g>
   <g id="line2d_16">
    <path d="M 57.17 255.9099 
L 65.186939 254.995349 
L 73.203878 254.080798 
L 81.220816 253.166247 
L 89.237755 252.251696 
L 97.254694 251.337145 
L 105.271633 250.422593 
L 113.288571 249.508042 
L 121.30551 248.593491 
L 129.322449 247.67894 
L 137.339388 246.764389 
L 145.356327 245.849838 
L 153.373265 244.935287 
L 161.390204 244.020735 
L 169.407143 243.106184 
L 177.424082 242.191633 
L 185.44102 241.277082 
L 193.457959 240.362531 
L 201.474898 239.44798 
L 209.491837 238.533429 
L 217.508776 237.618877 
L 225.525714 236.704326 
L 233.542653 235.789775 
L 241.559592 234.875224 
L 249.576531 233.960673 
L 257.593469 233.046122 
L 265.610408 232.131571 
L 273.627347 231.21702 
L 281.644286 230.302468 
L 289.661224 229.387917 
L 297.678163 228.473366 
L 305.695102 227.558815 
L 313.712041 226.644264 
L 321.72898 225.729713 
L 329.745918 224.815162 
L 337.762857 223.90061 
L 345.779796 222.986059 
L 353.796735 222.071508 
L 361.813673 221.156957 
L 369.830612 220.242406 
L 377.847551 219.327855 
L 385.86449 218.413304 
L 393.881429 217.498752 
L 401.898367 216.584201 
L 409.915306 215.66965 
L 417.932245 214.755099 
L 425.949184 213.840548 
L 433.966122 212.925997 
L 441.983061 212.011446 
L 450 211.096894 
" clip-path="url(#pebdfa0b277)" style="fill: none; stroke: #ff7fd1; stroke-width: 1.5; stroke-linecap: square"/>
   </g>
   <g id="line2d_17">
    <path d="M 57.17 267.098185 
L 65.186939 266.991414 
L 73.203878 266.884644 
L 81.220816 266.777873 
L 89.237755 266.671103 
L 97.254694 266.564332 
L 105.271633 266.457561 
L 113.288571 266.350791 
L 121.30551 266.24402 
L 129.322449 266.13725 
L 137.339388 266.030479 
L 145.356327 265.923708 
L 153.373265 265.816938 
L 161.390204 265.710167 
L 169.407143 265.603397 
L 177.424082 265.496626 
L 185.44102 265.389856 
L 193.457959 265.283085 
L 201.474898 265.176314 
L 209.491837 265.069544 
L 217.508776 264.962773 
L 225.525714 264.856003 
L 233.542653 264.749232 
L 241.559592 264.642461 
L 249.576531 264.535691 
L 257.593469 264.42892 
L 265.610408 264.32215 
L 273.627347 264.215379 
L 281.644286 264.108608 
L 289.661224 264.001838 
L 297.678163 263.895067 
L 305.695102 263.788297 
L 313.712041 263.681526 
L 321.72898 263.574755 
L 329.745918 263.467985 
L 337.762857 263.361214 
L 345.779796 263.254444 
L 353.796735 263.147673 
L 361.813673 263.040903 
L 369.830612 262.934132 
L 377.847551 262.827361 
L 385.86449 262.720591 
L 393.881429 262.61382 
L 401.898367 262.50705 
L 409.915306 262.400279 
L 417.932245 262.293508 
L 425.949184 262.186738 
L 433.966122 262.079967 
L 441.983061 261.973197 
L 450 261.866426 
" clip-path="url(#pebdfa0b277)" style="fill: none; stroke: #6c004f; stroke-width: 1.5; stroke-linecap: square"/>
   </g>
   <g id="line2d_18">
    <path d="M 57.17 273.320975 
L 65.186939 273.173083 
L 73.203878 273.025191 
L 81.220816 272.877299 
L 89.237755 272.729407 
L 97.254694 272.581515 
L 105.271633 272.433624 
L 113.288571 272.285732 
L 121.30551 272.13784 
L 129.322449 271.989948 
L 137.339388 271.842056 
L 145.356327 271.694164 
L 153.373265 271.546273 
L 161.390204 271.398381 
L 169.407143 271.250489 
L 177.424082 271.102597 
L 185.44102 270.954705 
L 193.457959 270.806813 
L 201.474898 270.658922 
L 209.491837 270.51103 
L 217.508776 270.363138 
L 225.525714 270.215246 
L 233.542653 270.067354 
L 241.559592 269.919463 
L 249.576531 269.771571 
L 257.593469 269.623679 
L 265.610408 269.475787 
L 273.627347 269.327895 
L 281.644286 269.180003 
L 289.661224 269.032112 
L 297.678163 268.88422 
L 305.695102 268.736328 
L 313.712041 268.588436 
L 321.72898 268.440544 
L 329.745918 268.292652 
L 337.762857 268.144761 
L 345.779796 267.996869 
L 353.796735 267.848977 
L 361.813673 267.701085 
L 369.830612 267.553193 
L 377.847551 267.405301 
L 385.86449 267.25741 
L 393.881429 267.109518 
L 401.898367 266.961626 
L 409.915306 266.813734 
L 417.932245 266.665842 
L 425.949184 266.517951 
L 433.966122 266.370059 
L 441.983061 266.222167 
L 450 266.074275 
" clip-path="url(#pebdfa0b277)" style="fill: none; stroke: #583b00; stroke-width: 1.5; stroke-linecap: square"/>
   </g>
   <g id="line2d_19">
    <path d="M 57.17 251.02449 
L 65.186939 250.207464 
L 73.203878 249.390438 
L 81.220816 248.573412 
L 89.237755 247.756386 
L 97.254694 246.93936 
L 105.271633 246.122334 
L 113.288571 245.305308 
L 121.30551 244.488282 
L 129.322449 243.671257 
L 137.339388 242.854231 
L 145.356327 242.037205 
L 153.373265 241.220179 
L 161.390204 240.403153 
L 169.407143 239.586127 
L 177.424082 238.769101 
L 185.44102 237.952075 
L 193.457959 237.135049 
L 201.474898 236.318024 
L 209.491837 235.500998 
L 217.508776 234.683972 
L 225.525714 233.866946 
L 233.542653 233.04992 
L 241.559592 232.232894 
L 249.576531 231.415868 
L 257.593469 230.598842 
L 265.610408 229.781816 
L 273.627347 228.964791 
L 281.644286 228.147765 
L 289.661224 227.330739 
L 297.678163 226.513713 
L 305.695102 225.696687 
L 313.712041 224.879661 
L 321.72898 224.062635 
L 329.745918 223.245609 
L 337.762857 222.428583 
L 345.779796 221.611557 
L 353.796735 220.794532 
L 361.813673 219.977506 
L 369.830612 219.16048 
L 377.847551 218.343454 
L 385.86449 217.526428 
L 393.881429 216.709402 
L 401.898367 215.892376 
L 409.915306 215.07535 
L 417.932245 214.258324 
L 425.949184 213.441299 
L 433.966122 212.624273 
L 441.983061 211.807247 
L 450 210.990221 
" clip-path="url(#pebdfa0b277)" style="fill: none; stroke: #005759; stroke-width: 1.5; stroke-linecap: square"/>
   </g>
   <g id="line2d_20">
    <path d="M 57.17 270.631136 
L 65.186939 270.481855 
L 73.203878 270.332575 
L 81.220816 270.183294 
L 89.237755 270.034013 
L 97.254694 269.884732 
L 105.271633 269.735452 
L 113.288571 269.586171 
L 121.30551 269.43689 
L 129.322449 269.28761 
L 137.339388 269.138329 
L 145.356327 268.989048 
L 153.373265 268.839767 
L 161.390204 268.690487 
L 169.407143 268.541206 
L 177.424082 268.391925 
L 185.44102 268.242645 
L 193.457959 268.093364 
L 201.474898 267.944083 
L 209.491837 267.794802 
L 217.508776 267.645522 
L 225.525714 267.496241 
L 233.542653 267.34696 
L 241.559592 267.19768 
L 249.576531 267.048399 
L 257.593469 266.899118 
L 265.610408 266.749838 
L 273.627347 266.600557 
L 281.644286 266.451276 
L 289.661224 266.301995 
L 297.678163 266.152715 
L 305.695102 266.003434 
L 313.712041 265.854153 
L 321.72898 265.704873 
L 329.745918 265.555592 
L 337.762857 265.406311 
L 345.779796 265.25703 
L 353.796735 265.10775 
L 361.813673 264.958469 
L 369.830612 264.809188 
L 377.847551 264.659908 
L 385.86449 264.510627 
L 393.881429 264.361346 
L 401.898367 264.212065 
L 409.915306 264.062785 
L 417.932245 263.913504 
L 425.949184 263.764223 
L 433.966122 263.614943 
L 441.983061 263.465662 
L 450 263.316381 
" clip-path="url(#pebdfa0b277)" style="fill: none; stroke: #0000dd; stroke-width: 1.5; stroke-linecap: square"/>
   </g>
   <g id="line2d_21">
    <path d="M 57.17 284.58178 
L 65.186939 284.552181 
L 73.203878 284.522583 
L 81.220816 284.492984 
L 89.237755 284.463385 
L 97.254694 284.433787 
L 105.271633 284.404188 
L 113.288571 284.37459 
L 121.30551 284.344991 
L 129.322449 284.315392 
L 137.339388 284.285794 
L 145.356327 284.256195 
L 153.373265 284.226596 
L 161.390204 284.196998 
L 169.407143 284.167399 
L 177.424082 284.1378 
L 185.44102 284.108202 
L 193.457959 284.078603 
L 201.474898 284.049005 
L 209.491837 284.019406 
L 217.508776 283.989807 
L 225.525714 283.960209 
L 233.542653 283.93061 
L 241.559592 283.901011 
L 249.576531 283.871413 
L 257.593469 283.841814 
L 265.610408 283.812215 
L 273.627347 283.782617 
L 281.644286 283.753018 
L 289.661224 283.72342 
L 297.678163 283.693821 
L 305.695102 283.664222 
L 313.712041 283.634624 
L 321.72898 283.605025 
L 329.745918 283.575426 
L 337.762857 283.545828 
L 345.779796 283.516229 
L 353.796735 283.486631 
L 361.813673 283.457032 
L 369.830612 283.427433 
L 377.847551 283.397835 
L 385.86449 283.368236 
L 393.881429 283.338637 
L 401.898367 283.309039 
L 409.915306 283.27944 
L 417.932245 283.249841 
L 425.949184 283.220243 
L 433.966122 283.190644 
L 441.983061 283.161046 
L 450 283.131447 
" clip-path="url(#pebdfa0b277)" style="fill: none; stroke: #a1756a; stroke-width: 1.5; stroke-linecap: square"/>
   </g>
   <g id="line2d_22">
    <path d="M 57.17 282.561971 
L 65.186939 282.589791 
L 73.203878 282.617612 
L 81.220816 282.645432 
L 89.237755 282.673253 
L 97.254694 282.701073 
L 105.271633 282.728893 
L 113.288571 282.756714 
L 121.30551 282.784534 
L 129.322449 282.812355 
L 137.339388 282.840175 
L 145.356327 282.867996 
L 153.373265 282.895816 
L 161.390204 282.923636 
L 169.407143 282.951457 
L 177.424082 282.979277 
L 185.44102 283.007098 
L 193.457959 283.034918 
L 201.474898 283.062739 
L 209.491837 283.090559 
L 217.508776 283.118379 
L 225.525714 283.1462 
L 233.542653 283.17402 
L 241.559592 283.201841 
L 249.576531 283.229661 
L 257.593469 283.257482 
L 265.610408 283.285302 
L 273.627347 283.313122 
L 281.644286 283.340943 
L 289.661224 283.368763 
L 297.678163 283.396584 
L 305.695102 283.424404 
L 313.712041 283.452225 
L 321.72898 283.480045 
L 329.745918 283.507865 
L 337.762857 283.535686 
L 345.779796 283.563506 
L 353.796735 283.591327 
L 361.813673 283.619147 
L 369.830612 283.646968 
L 377.847551 283.674788 
L 385.86449 283.702608 
L 393.881429 283.730429 
L 401.898367 283.758249 
L 409.915306 283.78607 
L 417.932245 283.81389 
L 425.949184 283.84171 
L 433.966122 283.869531 
L 441.983061 283.897351 
L 450 283.925172 
" clip-path="url(#pebdfa0b277)" style="fill: none; stroke: #bcb7ff; stroke-width: 1.5; stroke-linecap: square"/>
   </g>
   <g id="line2d_23">
    <path d="M 57.17 248.590357 
L 65.186939 248.073873 
L 73.203878 247.557389 
L 81.220816 247.040905 
L 89.237755 246.524421 
L 97.254694 246.007937 
L 105.271633 245.491453 
L 113.288571 244.974969 
L 121.30551 244.458485 
L 129.322449 243.942001 
L 137.339388 243.425517 
L 145.356327 242.909033 
L 153.373265 242.392549 
L 161.390204 241.876065 
L 169.407143 241.359581 
L 177.424082 240.843098 
L 185.44102 240.326614 
L 193.457959 239.81013 
L 201.474898 239.293646 
L 209.491837 238.777162 
L 217.508776 238.260678 
L 225.525714 237.744194 
L 233.542653 237.22771 
L 241.559592 236.711226 
L 249.576531 236.194742 
L 257.593469 235.678258 
L 265.610408 235.161774 
L 273.627347 234.64529 
L 281.644286 234.128806 
L 289.661224 233.612322 
L 297.678163 233.095838 
L 305.695102 232.579354 
L 313.712041 232.06287 
L 321.72898 231.546386 
L 329.745918 231.029902 
L 337.762857 230.513418 
L 345.779796 229.996934 
L 353.796735 229.48045 
L 361.813673 228.963966 
L 369.830612 228.447482 
L 377.847551 227.930998 
L 385.86449 227.414514 
L 393.881429 226.89803 
L 401.898367 226.381546 
L 409.915306 225.865062 
L 417.932245 225.348578 
L 425.949184 224.832094 
L 433.966122 224.31561 
L 441.983061 223.799126 
L 450 223.282642 
" clip-path="url(#pebdfa0b277)" style="fill: none; stroke: #95b578; stroke-width: 1.5; stroke-linecap: square"/>
   </g>
   <g id="line2d_24">
    <path d="M 57.17 267.907288 
L 65.186939 267.720759 
L 73.203878 267.534231 
L 81.220816 267.347702 
L 89.237755 267.161173 
L 97.254694 266.974644 
L 105.271633 266.788116 
L 113.288571 266.601587 
L 121.30551 266.415058 
L 129.322449 266.228529 
L 137.339388 266.042 
L 145.356327 265.855472 
L 153.373265 265.668943 
L 161.390204 265.482414 
L 169.407143 265.295885 
L 177.424082 265.109357 
L 185.44102 264.922828 
L 193.457959 264.736299 
L 201.474898 264.54977 
L 209.491837 264.363241 
L 217.508776 264.176713 
L 225.525714 263.990184 
L 233.542653 263.803655 
L 241.559592 263.617126 
L 249.576531 263.430598 
L 257.593469 263.244069 
L 265.610408 263.05754 
L 273.627347 262.871011 
L 281.644286 262.684482 
L 289.661224 262.497954 
L 297.678163 262.311425 
L 305.695102 262.124896 
L 313.712041 261.938367 
L 321.72898 261.751839 
L 329.745918 261.56531 
L 337.762857 261.378781 
L 345.779796 261.192252 
L 353.796735 261.005723 
L 361.813673 260.819195 
L 369.830612 260.632666 
L 377.847551 260.446137 
L 385.86449 260.259608 
L 393.881429 260.07308 
L 401.898367 259.886551 
L 409.915306 259.700022 
L 417.932245 259.513493 
L 425.949184 259.326964 
L 433.966122 259.140436 
L 441.983061 258.953907 
L 450 258.767378 
" clip-path="url(#pebdfa0b277)" style="fill: none; stroke: #c004b9; stroke-width: 1.5; stroke-linecap: square"/>
   </g>
   <g id="line2d_25">
    <path d="M 57.17 274.505886 
L 65.186939 274.3144 
L 73.203878 274.122914 
L 81.220816 273.931428 
L 89.237755 273.739942 
L 97.254694 273.548456 
L 105.271633 273.35697 
L 113.288571 273.165484 
L 121.30551 272.973998 
L 129.322449 272.782513 
L 137.339388 272.591027 
L 145.356327 272.399541 
L 153.373265 272.208055 
L 161.390204 272.016569 
L 169.407143 271.825083 
L 177.424082 271.633597 
L 185.44102 271.442111 
L 193.457959 271.250626 
L 201.474898 271.05914 
L 209.491837 270.867654 
L 217.508776 270.676168 
L 225.525714 270.484682 
L 233.542653 270.293196 
L 241.559592 270.10171 
L 249.576531 269.910224 
L 257.593469 269.718738 
L 265.610408 269.527253 
L 273.627347 269.335767 
L 281.644286 269.144281 
L 289.661224 268.952795 
L 297.678163 268.761309 
L 305.695102 268.569823 
L 313.712041 268.378337 
L 321.72898 268.186851 
L 329.745918 267.995365 
L 337.762857 267.80388 
L 345.779796 267.612394 
L 353.796735 267.420908 
L 361.813673 267.229422 
L 369.830612 267.037936 
L 377.847551 266.84645 
L 385.86449 266.654964 
L 393.881429 266.463478 
L 401.898367 266.271992 
L 409.915306 266.080507 
L 417.932245 265.889021 
L 425.949184 265.697535 
L 433.966122 265.506049 
L 441.983061 265.314563 
L 450 265.123077 
" clip-path="url(#pebdfa0b277)" style="fill: none; stroke: #790000; stroke-width: 1.5; stroke-linecap: square"/>
   </g>
   <g id="line2d_26">
    <path d="M 57.17 276.913928 
L 65.186939 276.897217 
L 73.203878 276.880506 
L 81.220816 276.863795 
L 89.237755 276.847083 
L 97.254694 276.830372 
L 105.271633 276.813661 
L 113.288571 276.79695 
L 121.30551 276.780239 
L 129.322449 276.763528 
L 137.339388 276.746817 
L 145.356327 276.730106 
L 153.373265 276.713395 
L 161.390204 276.696683 
L 169.407143 276.679972 
L 177.424082 276.663261 
L 185.44102 276.64655 
L 193.457959 276.629839 
L 201.474898 276.613128 
L 209.491837 276.596417 
L 217.508776 276.579706 
L 225.525714 276.562994 
L 233.542653 276.546283 
L 241.559592 276.529572 
L 249.576531 276.512861 
L 257.593469 276.49615 
L 265.610408 276.479439 
L 273.627347 276.462728 
L 281.644286 276.446017 
L 289.661224 276.429306 
L 297.678163 276.412594 
L 305.695102 276.395883 
L 313.712041 276.379172 
L 321.72898 276.362461 
L 329.745918 276.34575 
L 337.762857 276.329039 
L 345.779796 276.312328 
L 353.796735 276.295617 
L 361.813673 276.278905 
L 369.830612 276.262194 
L 377.847551 276.245483 
L 385.86449 276.228772 
L 393.881429 276.212061 
L 401.898367 276.19535 
L 409.915306 276.178639 
L 417.932245 276.161928 
L 425.949184 276.145217 
L 433.966122 276.128505 
L 441.983061 276.111794 
L 450 276.095083 
" clip-path="url(#pebdfa0b277)" style="fill: none; stroke: #0774d8; stroke-width: 1.5; stroke-linecap: square"/>
   </g>
   <g id="line2d_27">
    <path d="M 57.17 266.268984 
L 65.186939 265.75329 
L 73.203878 265.237597 
L 81.220816 264.721903 
L 89.237755 264.206209 
L 97.254694 263.690516 
L 105.271633 263.174822 
L 113.288571 262.659128 
L 121.30551 262.143434 
L 129.322449 261.627741 
L 137.339388 261.112047 
L 145.356327 260.596353 
L 153.373265 260.08066 
L 161.390204 259.564966 
L 169.407143 259.049272 
L 177.424082 258.533579 
L 185.44102 258.017885 
L 193.457959 257.502191 
L 201.474898 256.986497 
L 209.491837 256.470804 
L 217.508776 255.95511 
L 225.525714 255.439416 
L 233.542653 254.923723 
L 241.559592 254.408029 
L 249.576531 253.892335 
L 257.593469 253.376642 
L 265.610408 252.860948 
L 273.627347 252.345254 
L 281.644286 251.82956 
L 289.661224 251.313867 
L 297.678163 250.798173 
L 305.695102 250.282479 
L 313.712041 249.766786 
L 321.72898 249.251092 
L 329.745918 248.735398 
L 337.762857 248.219705 
L 345.779796 247.704011 
L 353.796735 247.188317 
L 361.813673 246.672624 
L 369.830612 246.15693 
L 377.847551 245.641236 
L 385.86449 245.125542 
L 393.881429 244.609849 
L 401.898367 244.094155 
L 409.915306 243.578461 
L 417.932245 243.062768 
L 425.949184 242.547074 
L 433.966122 242.03138 
L 441.983061 241.515687 
L 450 240.999993 
" clip-path="url(#pebdfa0b277)" style="fill: none; stroke: #fef590; stroke-width: 1.5; stroke-linecap: square"/>
   </g>
   <g id="line2d_28">
    <path d="M 57.17 244.301269 
L 65.186939 243.876422 
L 73.203878 243.451575 
L 81.220816 243.026729 
L 89.237755 242.601882 
L 97.254694 242.177035 
L 105.271633 241.752188 
L 113.288571 241.327342 
L 121.30551 240.902495 
L 129.322449 240.477648 
L 137.339388 240.052801 
L 145.356327 239.627955 
L 153.373265 239.203108 
L 161.390204 238.778261 
L 169.407143 238.353414 
L 177.424082 237.928568 
L 185.44102 237.503721 
L 193.457959 237.078874 
L 201.474898 236.654028 
L 209.491837 236.229181 
L 217.508776 235.804334 
L 225.525714 235.379487 
L 233.542653 234.954641 
L 241.559592 234.529794 
L 249.576531 234.104947 
L 257.593469 233.6801 
L 265.610408 233.255254 
L 273.627347 232.830407 
L 281.644286 232.40556 
L 289.661224 231.980713 
L 297.678163 231.555867 
L 305.695102 231.13102 
L 313.712041 230.706173 
L 321.72898 230.281327 
L 329.745918 229.85648 
L 337.762857 229.431633 
L 345.779796 229.006786 
L 353.796735 228.58194 
L 361.813673 228.157093 
L 369.830612 227.732246 
L 377.847551 227.307399 
L 385.86449 226.882553 
L 393.881429 226.457706 
L 401.898367 226.032859 
L 409.915306 225.608012 
L 417.932245 225.183166 
L 425.949184 224.758319 
L 433.966122 224.333472 
L 441.983061 223.908626 
L 450 223.483779 
" clip-path="url(#pebdfa0b277)" style="fill: none; stroke: #8f7a00; stroke-width: 1.5; stroke-linecap: square"/>
   </g>
   <g id="line2d_29">
    <path d="M 57.17 253.046754 
L 65.186939 252.727162 
L 73.203878 252.407569 
L 81.220816 252.087977 
L 89.237755 251.768384 
L 97.254694 251.448791 
L 105.271633 251.129199 
L 113.288571 250.809606 
L 121.30551 250.490013 
L 129.322449 250.170421 
L 137.339388 249.850828 
L 145.356327 249.531235 
L 153.373265 249.211643 
L 161.390204 248.89205 
L 169.407143 248.572457 
L 177.424082 248.252865 
L 185.44102 247.933272 
L 193.457959 247.613679 
L 201.474898 247.294087 
L 209.491837 246.974494 
L 217.508776 246.654901 
L 225.525714 246.335309 
L 233.542653 246.015716 
L 241.559592 245.696124 
L 249.576531 245.376531 
L 257.593469 245.056938 
L 265.610408 244.737346 
L 273.627347 244.417753 
L 281.644286 244.09816 
L 289.661224 243.778568 
L 297.678163 243.458975 
L 305.695102 243.139382 
L 313.712041 242.81979 
L 321.72898 242.500197 
L 329.745918 242.180604 
L 337.762857 241.861012 
L 345.779796 241.541419 
L 353.796735 241.221826 
L 361.813673 240.902234 
L 369.830612 240.582641 
L 377.847551 240.263048 
L 385.86449 239.943456 
L 393.881429 239.623863 
L 401.898367 239.304271 
L 409.915306 238.984678 
L 417.932245 238.665085 
L 425.949184 238.345493 
L 433.966122 238.0259 
L 441.983061 237.706307 
L 450 237.386715 
" clip-path="url(#pebdfa0b277)" style="fill: none; stroke: #ff7266; stroke-width: 1.5; stroke-linecap: square"/>
   </g>
   <g id="line2d_30">
    <path d="M 57.17 220.379124 
L 65.186939 220.360153 
L 73.203878 220.341183 
L 81.220816 220.322213 
L 89.237755 220.303242 
L 97.254694 220.284272 
L 105.271633 220.265301 
L 113.288571 220.246331 
L 121.30551 220.22736 
L 129.322449 220.20839 
L 137.339388 220.18942 
L 145.356327 220.170449 
L 153.373265 220.151479 
L 161.390204 220.132508 
L 169.407143 220.113538 
L 177.424082 220.094568 
L 185.44102 220.075597 
L 193.457959 220.056627 
L 201.474898 220.037656 
L 209.491837 220.018686 
L 217.508776 219.999715 
L 225.525714 219.980745 
L 233.542653 219.961775 
L 241.559592 219.942804 
L 249.576531 219.923834 
L 257.593469 219.904863 
L 265.610408 219.885893 
L 273.627347 219.866923 
L 281.644286 219.847952 
L 289.661224 219.828982 
L 297.678163 219.810011 
L 305.695102 219.791041 
L 313.712041 219.77207 
L 321.72898 219.7531 
L 329.745918 219.73413 
L 337.762857 219.715159 
L 345.779796 219.696189 
L 353.796735 219.677218 
L 361.813673 219.658248 
L 369.830612 219.639277 
L 377.847551 219.620307 
L 385.86449 219.601337 
L 393.881429 219.582366 
L 401.898367 219.563396 
L 409.915306 219.544425 
L 417.932245 219.525455 
L 425.949184 219.506485 
L 433.966122 219.487514 
L 441.983061 219.468544 
L 450 219.449573 
" clip-path="url(#pebdfa0b277)" style="fill: none; stroke: #eeb9b9; stroke-width: 1.5; stroke-linecap: square"/>
   </g>
   <g id="line2d_31">
    <path d="M 57.17 285.008603 
L 65.186939 284.971693 
L 73.203878 284.934783 
L 81.220816 284.897872 
L 89.237755 284.860962 
L 97.254694 284.824052 
L 105.271633 284.787141 
L 113.288571 284.750231 
L 121.30551 284.713321 
L 129.322449 284.676411 
L 137.339388 284.6395 
L 145.356327 284.60259 
L 153.373265 284.56568 
L 161.390204 284.528769 
L 169.407143 284.491859 
L 177.424082 284.454949 
L 185.44102 284.418038 
L 193.457959 284.381128 
L 201.474898 284.344218 
L 209.491837 284.307307 
L 217.508776 284.270397 
L 225.525714 284.233487 
L 233.542653 284.196576 
L 241.559592 284.159666 
L 249.576531 284.122756 
L 257.593469 284.085845 
L 265.610408 284.048935 
L 273.627347 284.012025 
L 281.644286 283.975114 
L 289.661224 283.938204 
L 297.678163 283.901294 
L 305.695102 283.864383 
L 313.712041 283.827473 
L 321.72898 283.790563 
L 329.745918 283.753653 
L 337.762857 283.716742 
L 345.779796 283.679832 
L 353.796735 283.642922 
L 361.813673 283.606011 
L 369.830612 283.569101 
L 377.847551 283.532191 
L 385.86449 283.49528 
L 393.881429 283.45837 
L 401.898367 283.42146 
L 409.915306 283.384549 
L 417.932245 283.347639 
L 425.949184 283.310729 
L 433.966122 283.273818 
L 441.983061 283.236908 
L 450 283.199998 
" clip-path="url(#pebdfa0b277)" style="fill: none; stroke: #5e7e66; stroke-width: 1.5; stroke-linecap: square"/>
   </g>
   <g id="line2d_32">
    <path d="M 57.17 280.721185 
L 65.186939 280.732121 
L 73.203878 280.743056 
L 81.220816 280.753991 
L 89.237755 280.764926 
L 97.254694 280.775861 
L 105.271633 280.786796 
L 113.288571 280.797731 
L 121.30551 280.808667 
L 129.322449 280.819602 
L 137.339388 280.830537 
L 145.356327 280.841472 
L 153.373265 280.852407 
L 161.390204 280.863342 
L 169.407143 280.874277 
L 177.424082 280.885212 
L 185.44102 280.896148 
L 193.457959 280.907083 
L 201.474898 280.918018 
L 209.491837 280.928953 
L 217.508776 280.939888 
L 225.525714 280.950823 
L 233.542653 280.961758 
L 241.559592 280.972694 
L 249.576531 280.983629 
L 257.593469 280.994564 
L 265.610408 281.005499 
L 273.627347 281.016434 
L 281.644286 281.027369 
L 289.661224 281.038304 
L 297.678163 281.049239 
L 305.695102 281.060175 
L 313.712041 281.07111 
L 321.72898 281.082045 
L 329.745918 281.09298 
L 337.762857 281.103915 
L 345.779796 281.11485 
L 353.796735 281.125785 
L 361.813673 281.136721 
L 369.830612 281.147656 
L 377.847551 281.158591 
L 385.86449 281.169526 
L 393.881429 281.180461 
L 401.898367 281.191396 
L 409.915306 281.202331 
L 417.932245 281.213266 
L 425.949184 281.224202 
L 433.966122 281.235137 
L 441.983061 281.246072 
L 450 281.257007 
" clip-path="url(#pebdfa0b277)" style="fill: none; stroke: #9be4ff; stroke-width: 1.5; stroke-linecap: square"/>
   </g>
   <g id="patch_3">
    <path d="M 57.17 303.64 
L 57.17 14.76 
" style="fill: none; stroke: #000000; stroke-width: 0.8; stroke-linejoin: miter; stroke-linecap: square"/>
   </g>
   <g id="patch_4">
    <path d="M 450 303.64 
L 450 14.76 
" style="fill: none; stroke: #000000; stroke-width: 0.8; stroke-linejoin: miter; stroke-linecap: square"/>
   </g>
   <g id="patch_5">
    <path d="M 57.17 303.64 
L 450 303.64 
" style="fill: none; stroke: #000000; stroke-width: 0.8; stroke-linejoin: miter; stroke-linecap: square"/>
   </g>
   <g id="patch_6">
    <path d="M 57.17 14.76 
L 450 14.76 
" style="fill: none; stroke: #000000; stroke-width: 0.8; stroke-linejoin: miter; stroke-linecap: square"/>
   </g>
   <g id="legend_1">
    <g id="patch_7">
     <path d="M 333.340625 184.219375 
L 443 184.219375 
Q 445 184.219375 445 182.219375 
L 445 21.76 
Q 445 19.76 443 19.76 
L 333.340625 19.76 
Q 331.340625 19.76 331.340625 21.76 
L 331.340625 182.219375 
Q 331.340625 184.219375 333.340625 184.219375 
z
" style="fill: #ffffff; opacity: 0.8; stroke: #cccccc; stroke-linejoin: miter"/>
    </g>
    <g id="line2d_33">
     <path d="M 335.340625 27.858437 
L 345.340625 27.858437 
L 355.340625 27.858437 
" style="fill: none; stroke: #d70000; stroke-width: 1.5; stroke-linecap: square"/>
    </g>
    <g id="text_13">
     <!-- AT -->
     <g transform="translate(363.340625 31.358437)scale(0.1 -0.1)">
      <defs>
       <path id="DejaVuSans-41" d="M 2188 4044 
L 1331 1722 
L 3047 1722 
L 2188 4044 
z
M 1831 4666 
L 2547 4666 
L 4325 0 
L 3669 0 
L 3244 1197 
L 1141 1197 
L 716 0 
L 50 0 
L 1831 4666 
z
" transform="scale(0.015625)"/>
       <path id="DejaVuSans-54" d="M -19 4666 
L 3928 4666 
L 3928 4134 
L 2272 4134 
L 2272 0 
L 1638 0 
L 1638 4134 
L -19 4134 
L -19 4666 
z
" transform="scale(0.015625)"/>
      </defs>
      <use xlink:href="#DejaVuSans-41"/>
      <use xlink:href="#DejaVuSans-54" x="60.658203"/>
     </g>
    </g>
    <g id="line2d_34">
     <path d="M 335.340625 42.536563 
L 345.340625 42.536563 
L 355.340625 42.536563 
" style="fill: none; stroke: #8c3cff; stroke-width: 1.5; stroke-linecap: square"/>
    </g>
    <g id="text_14">
     <!-- BE -->
     <g transform="translate(363.340625 46.036563)scale(0.1 -0.1)">
      <defs>
       <path id="DejaVuSans-42" d="M 1259 2228 
L 1259 519 
L 2272 519 
Q 2781 519 3026 730 
Q 3272 941 3272 1375 
Q 3272 1813 3026 2020 
Q 2781 2228 2272 2228 
L 1259 2228 
z
M 1259 4147 
L 1259 2741 
L 2194 2741 
Q 2656 2741 2882 2914 
Q 3109 3088 3109 3444 
Q 3109 3797 2882 3972 
Q 2656 4147 2194 4147 
L 1259 4147 
z
M 628 4666 
L 2241 4666 
Q 2963 4666 3353 4366 
Q 3744 4066 3744 3513 
Q 3744 3084 3544 2831 
Q 3344 2578 2956 2516 
Q 3422 2416 3680 2098 
Q 3938 1781 3938 1306 
Q 3938 681 3513 340 
Q 3088 0 2303 0 
L 628 0 
L 628 4666 
z
" transform="scale(0.015625)"/>
       <path id="DejaVuSans-45" d="M 628 4666 
L 3578 4666 
L 3578 4134 
L 1259 4134 
L 1259 2753 
L 3481 2753 
L 3481 2222 
L 1259 2222 
L 1259 531 
L 3634 531 
L 3634 0 
L 628 0 
L 628 4666 
z
" transform="scale(0.015625)"/>
      </defs>
      <use xlink:href="#DejaVuSans-42"/>
      <use xlink:href="#DejaVuSans-45" x="68.603516"/>
     </g>
    </g>
    <g id="line2d_35">
     <path d="M 335.340625 57.214688 
L 345.340625 57.214688 
L 355.340625 57.214688 
" style="fill: none; stroke: #028800; stroke-width: 1.5; stroke-linecap: square"/>
    </g>
    <g id="text_15">
     <!-- BG -->
     <g transform="translate(363.340625 60.714688)scale(0.1 -0.1)">
      <defs>
       <path id="DejaVuSans-47" d="M 3809 666 
L 3809 1919 
L 2778 1919 
L 2778 2438 
L 4434 2438 
L 4434 434 
Q 4069 175 3628 42 
Q 3188 -91 2688 -91 
Q 1594 -91 976 548 
Q 359 1188 359 2328 
Q 359 3472 976 4111 
Q 1594 4750 2688 4750 
Q 3144 4750 3555 4637 
Q 3966 4525 4313 4306 
L 4313 3634 
Q 3963 3931 3569 4081 
Q 3175 4231 2741 4231 
Q 1884 4231 1454 3753 
Q 1025 3275 1025 2328 
Q 1025 1384 1454 906 
Q 1884 428 2741 428 
Q 3075 428 3337 486 
Q 3600 544 3809 666 
z
" transform="scale(0.015625)"/>
      </defs>
      <use xlink:href="#DejaVuSans-42"/>
      <use xlink:href="#DejaVuSans-47" x="66.853516"/>
     </g>
    </g>
    <g id="line2d_36">
     <path d="M 335.340625 71.892812 
L 345.340625 71.892812 
L 355.340625 71.892812 
" style="fill: none; stroke: #00acc7; stroke-width: 1.5; stroke-linecap: square"/>
    </g>
    <g id="text_16">
     <!-- CY -->
     <g transform="translate(363.340625 75.392812)scale(0.1 -0.1)">
      <defs>
       <path id="DejaVuSans-43" d="M 4122 4306 
L 4122 3641 
Q 3803 3938 3442 4084 
Q 3081 4231 2675 4231 
Q 1875 4231 1450 3742 
Q 1025 3253 1025 2328 
Q 1025 1406 1450 917 
Q 1875 428 2675 428 
Q 3081 428 3442 575 
Q 3803 722 4122 1019 
L 4122 359 
Q 3791 134 3420 21 
Q 3050 -91 2638 -91 
Q 1578 -91 968 557 
Q 359 1206 359 2328 
Q 359 3453 968 4101 
Q 1578 4750 2638 4750 
Q 3056 4750 3426 4639 
Q 3797 4528 4122 4306 
z
" transform="scale(0.015625)"/>
       <path id="DejaVuSans-59" d="M -13 4666 
L 666 4666 
L 1959 2747 
L 3244 4666 
L 3922 4666 
L 2272 2222 
L 2272 0 
L 1638 0 
L 1638 2222 
L -13 4666 
z
" transform="scale(0.015625)"/>
      </defs>
      <use xlink:href="#DejaVuSans-43"/>
      <use xlink:href="#DejaVuSans-59" x="68.074219"/>
     </g>
    </g>
    <g id="line2d_37">
     <path d="M 335.340625 86.570938 
L 345.340625 86.570938 
L 355.340625 86.570938 
" style="fill: none; stroke: #98ff00; stroke-width: 1.5; stroke-linecap: square"/>
    </g>
    <g id="text_17">
     <!-- CZ -->
     <g transform="translate(363.340625 90.070938)scale(0.1 -0.1)">
      <defs>
       <path id="DejaVuSans-5a" d="M 359 4666 
L 4025 4666 
L 4025 4184 
L 1075 531 
L 4097 531 
L 4097 0 
L 288 0 
L 288 481 
L 3238 4134 
L 359 4134 
L 359 4666 
z
" transform="scale(0.015625)"/>
      </defs>
      <use xlink:href="#DejaVuSans-43"/>
      <use xlink:href="#DejaVuSans-5a" x="69.824219"/>
     </g>
    </g>
    <g id="line2d_38">
     <path d="M 335.340625 101.249062 
L 345.340625 101.249062 
L 355.340625 101.249062 
" style="fill: none; stroke: #ff7fd1; stroke-width: 1.5; stroke-linecap: square"/>
    </g>
    <g id="text_18">
     <!-- DE -->
     <g transform="translate(363.340625 104.749062)scale(0.1 -0.1)">
      <defs>
       <path id="DejaVuSans-44" d="M 1259 4147 
L 1259 519 
L 2022 519 
Q 2988 519 3436 956 
Q 3884 1394 3884 2338 
Q 3884 3275 3436 3711 
Q 2988 4147 2022 4147 
L 1259 4147 
z
M 628 4666 
L 1925 4666 
Q 3281 4666 3915 4102 
Q 4550 3538 4550 2338 
Q 4550 1131 3912 565 
Q 3275 0 1925 0 
L 628 0 
L 628 4666 
z
" transform="scale(0.015625)"/>
      </defs>
      <use xlink:href="#DejaVuSans-44"/>
      <use xlink:href="#DejaVuSans-45" x="77.001953"/>
     </g>
    </g>
    <g id="line2d_39">
     <path d="M 335.340625 115.927188 
L 345.340625 115.927188 
L 355.340625 115.927188 
" style="fill: none; stroke: #6c004f; stroke-width: 1.5; stroke-linecap: square"/>
    </g>
    <g id="text_19">
     <!-- DK -->
     <g transform="translate(363.340625 119.427188)scale(0.1 -0.1)">
      <defs>
       <path id="DejaVuSans-4b" d="M 628 4666 
L 1259 4666 
L 1259 2694 
L 3353 4666 
L 4166 4666 
L 1850 2491 
L 4331 0 
L 3500 0 
L 1259 2247 
L 1259 0 
L 628 0 
L 628 4666 
z
" transform="scale(0.015625)"/>
      </defs>
      <use xlink:href="#DejaVuSans-44"/>
      <use xlink:href="#DejaVuSans-4b" x="77.001953"/>
     </g>
    </g>
    <g id="line2d_40">
     <path d="M 335.340625 130.605312 
L 345.340625 130.605312 
L 355.340625 130.605312 
" style="fill: none; stroke: #583b00; stroke-width: 1.5; stroke-linecap: square"/>
    </g>
    <g id="text_20">
     <!-- EL -->
     <g transform="translate(363.340625 134.105312)scale(0.1 -0.1)">
      <defs>
       <path id="DejaVuSans-4c" d="M 628 4666 
L 1259 4666 
L 1259 531 
L 3531 531 
L 3531 0 
L 628 0 
L 628 4666 
z
" transform="scale(0.015625)"/>
      </defs>
      <use xlink:href="#DejaVuSans-45"/>
      <use xlink:href="#DejaVuSans-4c" x="63.183594"/>
     </g>
    </g>
    <g id="line2d_41">
     <path d="M 335.340625 145.283437 
L 345.340625 145.283437 
L 355.340625 145.283437 
" style="fill: none; stroke: #005759; stroke-width: 1.5; stroke-linecap: square"/>
    </g>
    <g id="text_21">
     <!-- ES -->
     <g transform="translate(363.340625 148.783437)scale(0.1 -0.1)">
      <defs>
       <path id="DejaVuSans-53" d="M 3425 4513 
L 3425 3897 
Q 3066 4069 2747 4153 
Q 2428 4238 2131 4238 
Q 1616 4238 1336 4038 
Q 1056 3838 1056 3469 
Q 1056 3159 1242 3001 
Q 1428 2844 1947 2747 
L 2328 2669 
Q 3034 2534 3370 2195 
Q 3706 1856 3706 1288 
Q 3706 609 3251 259 
Q 2797 -91 1919 -91 
Q 1588 -91 1214 -16 
Q 841 59 441 206 
L 441 856 
Q 825 641 1194 531 
Q 1563 422 1919 422 
Q 2459 422 2753 634 
Q 3047 847 3047 1241 
Q 3047 1584 2836 1778 
Q 2625 1972 2144 2069 
L 1759 2144 
Q 1053 2284 737 2584 
Q 422 2884 422 3419 
Q 422 4038 858 4394 
Q 1294 4750 2059 4750 
Q 2388 4750 2728 4690 
Q 3069 4631 3425 4513 
z
" transform="scale(0.015625)"/>
      </defs>
      <use xlink:href="#DejaVuSans-45"/>
      <use xlink:href="#DejaVuSans-53" x="63.183594"/>
     </g>
    </g>
    <g id="line2d_42">
     <path d="M 335.340625 159.961562 
L 345.340625 159.961562 
L 355.340625 159.961562 
" style="fill: none; stroke: #0000dd; stroke-width: 1.5; stroke-linecap: square"/>
    </g>
    <g id="text_22">
     <!-- FI -->
     <g transform="translate(363.340625 163.461562)scale(0.1 -0.1)">
      <defs>
       <path id="DejaVuSans-46" d="M 628 4666 
L 3309 4666 
L 3309 4134 
L 1259 4134 
L 1259 2759 
L 3109 2759 
L 3109 2228 
L 1259 2228 
L 1259 0 
L 628 0 
L 628 4666 
z
" transform="scale(0.015625)"/>
       <path id="DejaVuSans-49" d="M 628 4666 
L 1259 4666 
L 1259 0 
L 628 0 
L 628 4666 
z
" transform="scale(0.015625)"/>
      </defs>
      <use xlink:href="#DejaVuSans-46"/>
      <use xlink:href="#DejaVuSans-49" x="57.519531"/>
     </g>
    </g>
    <g id="line2d_43">
     <path d="M 335.340625 174.639687 
L 345.340625 174.639687 
L 355.340625 174.639687 
" style="fill: none; stroke: #a1756a; stroke-width: 1.5; stroke-linecap: square"/>
    </g>
    <g id="text_23">
     <!-- HU -->
     <g transform="translate(363.340625 178.139687)scale(0.1 -0.1)">
      <defs>
       <path id="DejaVuSans-48" d="M 628 4666 
L 1259 4666 
L 1259 2753 
L 3553 2753 
L 3553 4666 
L 4184 4666 
L 4184 0 
L 3553 0 
L 3553 2222 
L 1259 2222 
L 1259 0 
L 628 0 
L 628 4666 
z
" transform="scale(0.015625)"/>
      </defs>
      <use xlink:href="#DejaVuSans-48"/>
      <use xlink:href="#DejaVuSans-55" x="75.195312"/>
     </g>
    </g>
    <g id="line2d_44">
     <path d="M 398.179688 27.858437 
L 408.179688 27.858437 
L 418.179688 27.858437 
" style="fill: none; stroke: #bcb7ff; stroke-width: 1.5; stroke-linecap: square"/>
    </g>
    <g id="text_24">
     <!-- IE -->
     <g transform="translate(426.179688 31.358437)scale(0.1 -0.1)">
      <use xlink:href="#DejaVuSans-49"/>
      <use xlink:href="#DejaVuSans-45" x="29.492188"/>
     </g>
    </g>
    <g id="line2d_45">
     <path d="M 398.179688 42.536563 
L 408.179688 42.536563 
L 418.179688 42.536563 
" style="fill: none; stroke: #95b578; stroke-width: 1.5; stroke-linecap: square"/>
    </g>
    <g id="text_25">
     <!-- IT -->
     <g transform="translate(426.179688 46.036563)scale(0.1 -0.1)">
      <use xlink:href="#DejaVuSans-49"/>
      <use xlink:href="#DejaVuSans-54" x="29.492188"/>
     </g>
    </g>
    <g id="line2d_46">
     <path d="M 398.179688 57.214688 
L 408.179688 57.214688 
L 418.179688 57.214688 
" style="fill: none; stroke: #c004b9; stroke-width: 1.5; stroke-linecap: square"/>
    </g>
    <g id="text_26">
     <!-- LT -->
     <g transform="translate(426.179688 60.714688)scale(0.1 -0.1)">
      <use xlink:href="#DejaVuSans-4c"/>
      <use xlink:href="#DejaVuSans-54" x="41.962891"/>
     </g>
    </g>
    <g id="line2d_47">
     <path d="M 398.179688 71.892812 
L 408.179688 71.892812 
L 418.179688 71.892812 
" style="fill: none; stroke: #790000; stroke-width: 1.5; stroke-linecap: square"/>
    </g>
    <g id="text_27">
     <!-- LV -->
     <g transform="translate(426.179688 75.392812)scale(0.1 -0.1)">
      <defs>
       <path id="DejaVuSans-56" d="M 1831 0 
L 50 4666 
L 709 4666 
L 2188 738 
L 3669 4666 
L 4325 4666 
L 2547 0 
L 1831 0 
z
" transform="scale(0.015625)"/>
      </defs>
      <use xlink:href="#DejaVuSans-4c"/>
      <use xlink:href="#DejaVuSans-56" x="44.712891"/>
     </g>
    </g>
    <g id="line2d_48">
     <path d="M 398.179688 86.570938 
L 408.179688 86.570938 
L 418.179688 86.570938 
" style="fill: none; stroke: #0774d8; stroke-width: 1.5; stroke-linecap: square"/>
    </g>
    <g id="text_28">
     <!-- MT -->
     <g transform="translate(426.179688 90.070938)scale(0.1 -0.1)">
      <defs>
       <path id="DejaVuSans-4d" d="M 628 4666 
L 1569 4666 
L 2759 1491 
L 3956 4666 
L 4897 4666 
L 4897 0 
L 4281 0 
L 4281 4097 
L 3078 897 
L 2444 897 
L 1241 4097 
L 1241 0 
L 628 0 
L 628 4666 
z
" transform="scale(0.015625)"/>
      </defs>
      <use xlink:href="#DejaVuSans-4d"/>
      <use xlink:href="#DejaVuSans-54" x="86.279297"/>
     </g>
    </g>
    <g id="line2d_49">
     <path d="M 398.179688 101.249062 
L 408.179688 101.249062 
L 418.179688 101.249062 
" style="fill: none; stroke: #fef590; stroke-width: 1.5; stroke-linecap: square"/>
    </g>
    <g id="text_29">
     <!-- NL -->
     <g transform="translate(426.179688 104.749062)scale(0.1 -0.1)">
      <use xlink:href="#DejaVuSans-4e"/>
      <use xlink:href="#DejaVuSans-4c" x="74.804688"/>
     </g>
    </g>
    <g id="line2d_50">
     <path d="M 398.179688 115.927188 
L 408.179688 115.927188 
L 418.179688 115.927188 
" style="fill: none; stroke: #8f7a00; stroke-width: 1.5; stroke-linecap: square"/>
    </g>
    <g id="text_30">
     <!-- PT -->
     <g transform="translate(426.179688 119.427188)scale(0.1 -0.1)">
      <defs>
       <path id="DejaVuSans-50" d="M 1259 4147 
L 1259 2394 
L 2053 2394 
Q 2494 2394 2734 2622 
Q 2975 2850 2975 3272 
Q 2975 3691 2734 3919 
Q 2494 4147 2053 4147 
L 1259 4147 
z
M 628 4666 
L 2053 4666 
Q 2838 4666 3239 4311 
Q 3641 3956 3641 3272 
Q 3641 2581 3239 2228 
Q 2838 1875 2053 1875 
L 1259 1875 
L 1259 0 
L 628 0 
L 628 4666 
z
" transform="scale(0.015625)"/>
      </defs>
      <use xlink:href="#DejaVuSans-50"/>
      <use xlink:href="#DejaVuSans-54" x="60.302734"/>
     </g>
    </g>
    <g id="line2d_51">
     <path d="M 398.179688 130.605312 
L 408.179688 130.605312 
L 418.179688 130.605312 
" style="fill: none; stroke: #ff7266; stroke-width: 1.5; stroke-linecap: square"/>
    </g>
    <g id="text_31">
     <!-- RO -->
     <g transform="translate(426.179688 134.105312)scale(0.1 -0.1)">
      <defs>
       <path id="DejaVuSans-4f" d="M 2522 4238 
Q 1834 4238 1429 3725 
Q 1025 3213 1025 2328 
Q 1025 1447 1429 934 
Q 1834 422 2522 422 
Q 3209 422 3611 934 
Q 4013 1447 4013 2328 
Q 4013 3213 3611 3725 
Q 3209 4238 2522 4238 
z
M 2522 4750 
Q 3503 4750 4090 4092 
Q 4678 3434 4678 2328 
Q 4678 1225 4090 567 
Q 3503 -91 2522 -91 
Q 1538 -91 948 565 
Q 359 1222 359 2328 
Q 359 3434 948 4092 
Q 1538 4750 2522 4750 
z
" transform="scale(0.015625)"/>
      </defs>
      <use xlink:href="#DejaVuSans-52"/>
      <use xlink:href="#DejaVuSans-4f" x="69.482422"/>
     </g>
    </g>
    <g id="line2d_52">
     <path d="M 398.179688 145.283437 
L 408.179688 145.283437 
L 418.179688 145.283437 
" style="fill: none; stroke: #eeb9b9; stroke-width: 1.5; stroke-linecap: square"/>
    </g>
    <g id="text_32">
     <!-- SE -->
     <g transform="translate(426.179688 148.783437)scale(0.1 -0.1)">
      <use xlink:href="#DejaVuSans-53"/>
      <use xlink:href="#DejaVuSans-45" x="63.476562"/>
     </g>
    </g>
    <g id="line2d_53">
     <path d="M 398.179688 159.961562 
L 408.179688 159.961562 
L 418.179688 159.961562 
" style="fill: none; stroke: #5e7e66; stroke-width: 1.5; stroke-linecap: square"/>
    </g>
    <g id="text_33">
     <!-- SI -->
     <g transform="translate(426.179688 163.461562)scale(0.1 -0.1)">
      <use xlink:href="#DejaVuSans-53"/>
      <use xlink:href="#DejaVuSans-49" x="63.476562"/>
     </g>
    </g>
    <g id="line2d_54">
     <path d="M 398.179688 174.639687 
L 408.179688 174.639687 
L 418.179688 174.639687 
" style="fill: none; stroke: #9be4ff; stroke-width: 1.5; stroke-linecap: square"/>
    </g>
    <g id="text_34">
     <!-- SK -->
     <g transform="translate(426.179688 178.139687)scale(0.1 -0.1)">
      <use xlink:href="#DejaVuSans-53"/>
      <use xlink:href="#DejaVuSans-4b" x="63.476562"/>
     </g>
    </g>
   </g>
  </g>
 </g>
 <defs>
  <clipPath id="pebdfa0b277">
   <rect x="57.17" y="14.76" width="392.83" height="288.88"/>
  </clipPath>
 </defs>
</svg>
