<?xml version="1.0" encoding="utf-8" standalone="no"?>
<!DOCTYPE svg PUBLIC "-//W3C//DTD SVG 1.1//EN"
  "http://www.w3.org/Graphics/SVG/1.1/DTD/svg11.dtd">
<svg xmlns:xlink="http://www.w3.org/1999/xlink" width="460.8pt" height="345.6pt" viewBox="0 0 460.8 345.6" xmlns="http://www.w3.org/2000/svg" version="1.1">
 <metadata>
  <rdf:RDF xmlns:dc="http://purl.org/dc/elements/1.1/" xmlns:cc="http://creativecommons.org/ns#" xmlns:rdf="http://www.w3.org/1999/02/22-rdf-syntax-ns#">
   <cc:Work>
    <dc:type rdf:resource="http://purl.org/dc/dcmitype/StillImage"/>
    <dc:date>2024-02-02T17:08:08.233267</dc:date>
    <dc:format>image/svg+xml</dc:format>
    <dc:creator>
     <cc:Agent>
      <dc:title>Matplotlib v3.5.1, https://matplotlib.org/</dc:title>
     </cc:Agent>
    </dc:creator>
   </cc:Work>
  </rdf:RDF>
 </metadata>
 <defs>
  <style type="text/css">*{stroke-linejoin: round; stroke-linecap: butt}</style>
 </defs>
 <g id="figure_1">
  <g id="patch_1">
   <path d="M 0 345.6 
L 460.8 345.6 
L 460.8 0 
L 0 0 
L 0 345.6 
z
" style="fill: none"/>
  </g>
  <g id="axes_1">
   <g id="patch_2">
    <path d="M 57.17 303.64 
L 450 303.64 
L 450 14.76 
L 57.17 14.76 
L 57.17 303.64 
z
" style="fill: none"/>
   </g>
   <g id="matplotlib.axis_1">
    <g id="xtick_1">
     <g id="line2d_1">
      <defs>
       <path id="mc29247ad83" d="M 0 0 
L 0 3.5 
" style="stroke: #000000; stroke-width: 0.8"/>
      </defs>
      <g>
       <use xlink:href="#mc29247ad83" x="96.003615" y="303.64" style="stroke: #000000; stroke-width: 0.8"/>
      </g>
     </g>
     <g id="text_1">
      <!-- 50 -->
      <g transform="translate(89.641115 318.238437)scale(0.1 -0.1)">
       <defs>
        <path id="DejaVuSans-35" d="M 691 4666 
L 3169 4666 
L 3169 4134 
L 1269 4134 
L 1269 2991 
Q 1406 3038 1543 3061 
Q 1681 3084 1819 3084 
Q 2600 3084 3056 2656 
Q 3513 2228 3513 1497 
Q 3513 744 3044 326 
Q 2575 -91 1722 -91 
Q 1428 -91 1123 -41 
Q 819 9 494 109 
L 494 744 
Q 775 591 1075 516 
Q 1375 441 1709 441 
Q 2250 441 2565 725 
Q 2881 1009 2881 1497 
Q 2881 1984 2565 2268 
Q 2250 2553 1709 2553 
Q 1456 2553 1204 2497 
Q 953 2441 691 2322 
L 691 4666 
z
" transform="scale(0.015625)"/>
        <path id="DejaVuSans-30" d="M 2034 4250 
Q 1547 4250 1301 3770 
Q 1056 3291 1056 2328 
Q 1056 1369 1301 889 
Q 1547 409 2034 409 
Q 2525 409 2770 889 
Q 3016 1369 3016 2328 
Q 3016 3291 2770 3770 
Q 2525 4250 2034 4250 
z
M 2034 4750 
Q 2819 4750 3233 4129 
Q 3647 3509 3647 2328 
Q 3647 1150 3233 529 
Q 2819 -91 2034 -91 
Q 1250 -91 836 529 
Q 422 1150 422 2328 
Q 422 3509 836 4129 
Q 1250 4750 2034 4750 
z
" transform="scale(0.015625)"/>
       </defs>
       <use xlink:href="#DejaVuSans-35"/>
       <use xlink:href="#DejaVuSans-30" x="63.623047"/>
      </g>
     </g>
    </g>
    <g id="xtick_2">
     <g id="line2d_2">
      <g>
       <use xlink:href="#mc29247ad83" x="148.997086" y="303.64" style="stroke: #000000; stroke-width: 0.8"/>
      </g>
     </g>
     <g id="text_2">
      <!-- 75 -->
      <g transform="translate(142.634586 318.238437)scale(0.1 -0.1)">
       <defs>
        <path id="DejaVuSans-37" d="M 525 4666 
L 3525 4666 
L 3525 4397 
L 1831 0 
L 1172 0 
L 2766 4134 
L 525 4134 
L 525 4666 
z
" transform="scale(0.015625)"/>
       </defs>
       <use xlink:href="#DejaVuSans-37"/>
       <use xlink:href="#DejaVuSans-35" x="63.623047"/>
      </g>
     </g>
    </g>
    <g id="xtick_3">
     <g id="line2d_3">
      <g>
       <use xlink:href="#mc29247ad83" x="201.990557" y="303.64" style="stroke: #000000; stroke-width: 0.8"/>
      </g>
     </g>
     <g id="text_3">
      <!-- 100 -->
      <g transform="translate(192.446807 318.238437)scale(0.1 -0.1)">
       <defs>
        <path id="DejaVuSans-31" d="M 794 531 
L 1825 531 
L 1825 4091 
L 703 3866 
L 703 4441 
L 1819 4666 
L 2450 4666 
L 2450 531 
L 3481 531 
L 3481 0 
L 794 0 
L 794 531 
z
" transform="scale(0.015625)"/>
       </defs>
       <use xlink:href="#DejaVuSans-31"/>
       <use xlink:href="#DejaVuSans-30" x="63.623047"/>
       <use xlink:href="#DejaVuSans-30" x="127.246094"/>
      </g>
     </g>
    </g>
    <g id="xtick_4">
     <g id="line2d_4">
      <g>
       <use xlink:href="#mc29247ad83" x="254.984028" y="303.64" style="stroke: #000000; stroke-width: 0.8"/>
      </g>
     </g>
     <g id="text_4">
      <!-- 125 -->
      <g transform="translate(245.440278 318.238437)scale(0.1 -0.1)">
       <defs>
        <path id="DejaVuSans-32" d="M 1228 531 
L 3431 531 
L 3431 0 
L 469 0 
L 469 531 
Q 828 903 1448 1529 
Q 2069 2156 2228 2338 
Q 2531 2678 2651 2914 
Q 2772 3150 2772 3378 
Q 2772 3750 2511 3984 
Q 2250 4219 1831 4219 
Q 1534 4219 1204 4116 
Q 875 4013 500 3803 
L 500 4441 
Q 881 4594 1212 4672 
Q 1544 4750 1819 4750 
Q 2544 4750 2975 4387 
Q 3406 4025 3406 3419 
Q 3406 3131 3298 2873 
Q 3191 2616 2906 2266 
Q 2828 2175 2409 1742 
Q 1991 1309 1228 531 
z
" transform="scale(0.015625)"/>
       </defs>
       <use xlink:href="#DejaVuSans-31"/>
       <use xlink:href="#DejaVuSans-32" x="63.623047"/>
       <use xlink:href="#DejaVuSans-35" x="127.246094"/>
      </g>
     </g>
    </g>
    <g id="xtick_5">
     <g id="line2d_5">
      <g>
       <use xlink:href="#mc29247ad83" x="307.977498" y="303.64" style="stroke: #000000; stroke-width: 0.8"/>
      </g>
     </g>
     <g id="text_5">
      <!-- 150 -->
      <g transform="translate(298.433748 318.238437)scale(0.1 -0.1)">
       <use xlink:href="#DejaVuSans-31"/>
       <use xlink:href="#DejaVuSans-35" x="63.623047"/>
       <use xlink:href="#DejaVuSans-30" x="127.246094"/>
      </g>
     </g>
    </g>
    <g id="xtick_6">
     <g id="line2d_6">
      <g>
       <use xlink:href="#mc29247ad83" x="360.970969" y="303.64" style="stroke: #000000; stroke-width: 0.8"/>
      </g>
     </g>
     <g id="text_6">
      <!-- 175 -->
      <g transform="translate(351.427219 318.238437)scale(0.1 -0.1)">
       <use xlink:href="#DejaVuSans-31"/>
       <use xlink:href="#DejaVuSans-37" x="63.623047"/>
       <use xlink:href="#DejaVuSans-35" x="127.246094"/>
      </g>
     </g>
    </g>
    <g id="xtick_7">
     <g id="line2d_7">
      <g>
       <use xlink:href="#mc29247ad83" x="413.96444" y="303.64" style="stroke: #000000; stroke-width: 0.8"/>
      </g>
     </g>
     <g id="text_7">
      <!-- 200 -->
      <g transform="translate(404.42069 318.238437)scale(0.1 -0.1)">
       <use xlink:href="#DejaVuSans-32"/>
       <use xlink:href="#DejaVuSans-30" x="63.623047"/>
       <use xlink:href="#DejaVuSans-30" x="127.246094"/>
      </g>
     </g>
    </g>
    <g id="text_8">
     <!-- GDP (Purchasing Power Standard, % EU average) -->
     <g transform="translate(130.561562 331.916562)scale(0.1 -0.1)">
      <defs>
       <path id="DejaVuSans-47" d="M 3809 666 
L 3809 1919 
L 2778 1919 
L 2778 2438 
L 4434 2438 
L 4434 434 
Q 4069 175 3628 42 
Q 3188 -91 2688 -91 
Q 1594 -91 976 548 
Q 359 1188 359 2328 
Q 359 3472 976 4111 
Q 1594 4750 2688 4750 
Q 3144 4750 3555 4637 
Q 3966 4525 4313 4306 
L 4313 3634 
Q 3963 3931 3569 4081 
Q 3175 4231 2741 4231 
Q 1884 4231 1454 3753 
Q 1025 3275 1025 2328 
Q 1025 1384 1454 906 
Q 1884 428 2741 428 
Q 3075 428 3337 486 
Q 3600 544 3809 666 
z
" transform="scale(0.015625)"/>
       <path id="DejaVuSans-44" d="M 1259 4147 
L 1259 519 
L 2022 519 
Q 2988 519 3436 956 
Q 3884 1394 3884 2338 
Q 3884 3275 3436 3711 
Q 2988 4147 2022 4147 
L 1259 4147 
z
M 628 4666 
L 1925 4666 
Q 3281 4666 3915 4102 
Q 4550 3538 4550 2338 
Q 4550 1131 3912 565 
Q 3275 0 1925 0 
L 628 0 
L 628 4666 
z
" transform="scale(0.015625)"/>
       <path id="DejaVuSans-50" d="M 1259 4147 
L 1259 2394 
L 2053 2394 
Q 2494 2394 2734 2622 
Q 2975 2850 2975 3272 
Q 2975 3691 2734 3919 
Q 2494 4147 2053 4147 
L 1259 4147 
z
M 628 4666 
L 2053 4666 
Q 2838 4666 3239 4311 
Q 3641 3956 3641 3272 
Q 3641 2581 3239 2228 
Q 2838 1875 2053 1875 
L 1259 1875 
L 1259 0 
L 628 0 
L 628 4666 
z
" transform="scale(0.015625)"/>
       <path id="DejaVuSans-20" transform="scale(0.015625)"/>
       <path id="DejaVuSans-28" d="M 1984 4856 
Q 1566 4138 1362 3434 
Q 1159 2731 1159 2009 
Q 1159 1288 1364 580 
Q 1569 -128 1984 -844 
L 1484 -844 
Q 1016 -109 783 600 
Q 550 1309 550 2009 
Q 550 2706 781 3412 
Q 1013 4119 1484 4856 
L 1984 4856 
z
" transform="scale(0.015625)"/>
       <path id="DejaVuSans-75" d="M 544 1381 
L 544 3500 
L 1119 3500 
L 1119 1403 
Q 1119 906 1312 657 
Q 1506 409 1894 409 
Q 2359 409 2629 706 
Q 2900 1003 2900 1516 
L 2900 3500 
L 3475 3500 
L 3475 0 
L 2900 0 
L 2900 538 
Q 2691 219 2414 64 
Q 2138 -91 1772 -91 
Q 1169 -91 856 284 
Q 544 659 544 1381 
z
M 1991 3584 
L 1991 3584 
z
" transform="scale(0.015625)"/>
       <path id="DejaVuSans-72" d="M 2631 2963 
Q 2534 3019 2420 3045 
Q 2306 3072 2169 3072 
Q 1681 3072 1420 2755 
Q 1159 2438 1159 1844 
L 1159 0 
L 581 0 
L 581 3500 
L 1159 3500 
L 1159 2956 
Q 1341 3275 1631 3429 
Q 1922 3584 2338 3584 
Q 2397 3584 2469 3576 
Q 2541 3569 2628 3553 
L 2631 2963 
z
" transform="scale(0.015625)"/>
       <path id="DejaVuSans-63" d="M 3122 3366 
L 3122 2828 
Q 2878 2963 2633 3030 
Q 2388 3097 2138 3097 
Q 1578 3097 1268 2742 
Q 959 2388 959 1747 
Q 959 1106 1268 751 
Q 1578 397 2138 397 
Q 2388 397 2633 464 
Q 2878 531 3122 666 
L 3122 134 
Q 2881 22 2623 -34 
Q 2366 -91 2075 -91 
Q 1284 -91 818 406 
Q 353 903 353 1747 
Q 353 2603 823 3093 
Q 1294 3584 2113 3584 
Q 2378 3584 2631 3529 
Q 2884 3475 3122 3366 
z
" transform="scale(0.015625)"/>
       <path id="DejaVuSans-68" d="M 3513 2113 
L 3513 0 
L 2938 0 
L 2938 2094 
Q 2938 2591 2744 2837 
Q 2550 3084 2163 3084 
Q 1697 3084 1428 2787 
Q 1159 2491 1159 1978 
L 1159 0 
L 581 0 
L 581 4863 
L 1159 4863 
L 1159 2956 
Q 1366 3272 1645 3428 
Q 1925 3584 2291 3584 
Q 2894 3584 3203 3211 
Q 3513 2838 3513 2113 
z
" transform="scale(0.015625)"/>
       <path id="DejaVuSans-61" d="M 2194 1759 
Q 1497 1759 1228 1600 
Q 959 1441 959 1056 
Q 959 750 1161 570 
Q 1363 391 1709 391 
Q 2188 391 2477 730 
Q 2766 1069 2766 1631 
L 2766 1759 
L 2194 1759 
z
M 3341 1997 
L 3341 0 
L 2766 0 
L 2766 531 
Q 2569 213 2275 61 
Q 1981 -91 1556 -91 
Q 1019 -91 701 211 
Q 384 513 384 1019 
Q 384 1609 779 1909 
Q 1175 2209 1959 2209 
L 2766 2209 
L 2766 2266 
Q 2766 2663 2505 2880 
Q 2244 3097 1772 3097 
Q 1472 3097 1187 3025 
Q 903 2953 641 2809 
L 641 3341 
Q 956 3463 1253 3523 
Q 1550 3584 1831 3584 
Q 2591 3584 2966 3190 
Q 3341 2797 3341 1997 
z
" transform="scale(0.015625)"/>
       <path id="DejaVuSans-73" d="M 2834 3397 
L 2834 2853 
Q 2591 2978 2328 3040 
Q 2066 3103 1784 3103 
Q 1356 3103 1142 2972 
Q 928 2841 928 2578 
Q 928 2378 1081 2264 
Q 1234 2150 1697 2047 
L 1894 2003 
Q 2506 1872 2764 1633 
Q 3022 1394 3022 966 
Q 3022 478 2636 193 
Q 2250 -91 1575 -91 
Q 1294 -91 989 -36 
Q 684 19 347 128 
L 347 722 
Q 666 556 975 473 
Q 1284 391 1588 391 
Q 1994 391 2212 530 
Q 2431 669 2431 922 
Q 2431 1156 2273 1281 
Q 2116 1406 1581 1522 
L 1381 1569 
Q 847 1681 609 1914 
Q 372 2147 372 2553 
Q 372 3047 722 3315 
Q 1072 3584 1716 3584 
Q 2034 3584 2315 3537 
Q 2597 3491 2834 3397 
z
" transform="scale(0.015625)"/>
       <path id="DejaVuSans-69" d="M 603 3500 
L 1178 3500 
L 1178 0 
L 603 0 
L 603 3500 
z
M 603 4863 
L 1178 4863 
L 1178 4134 
L 603 4134 
L 603 4863 
z
" transform="scale(0.015625)"/>
       <path id="DejaVuSans-6e" d="M 3513 2113 
L 3513 0 
L 2938 0 
L 2938 2094 
Q 2938 2591 2744 2837 
Q 2550 3084 2163 3084 
Q 1697 3084 1428 2787 
Q 1159 2491 1159 1978 
L 1159 0 
L 581 0 
L 581 3500 
L 1159 3500 
L 1159 2956 
Q 1366 3272 1645 3428 
Q 1925 3584 2291 3584 
Q 2894 3584 3203 3211 
Q 3513 2838 3513 2113 
z
" transform="scale(0.015625)"/>
       <path id="DejaVuSans-67" d="M 2906 1791 
Q 2906 2416 2648 2759 
Q 2391 3103 1925 3103 
Q 1463 3103 1205 2759 
Q 947 2416 947 1791 
Q 947 1169 1205 825 
Q 1463 481 1925 481 
Q 2391 481 2648 825 
Q 2906 1169 2906 1791 
z
M 3481 434 
Q 3481 -459 3084 -895 
Q 2688 -1331 1869 -1331 
Q 1566 -1331 1297 -1286 
Q 1028 -1241 775 -1147 
L 775 -588 
Q 1028 -725 1275 -790 
Q 1522 -856 1778 -856 
Q 2344 -856 2625 -561 
Q 2906 -266 2906 331 
L 2906 616 
Q 2728 306 2450 153 
Q 2172 0 1784 0 
Q 1141 0 747 490 
Q 353 981 353 1791 
Q 353 2603 747 3093 
Q 1141 3584 1784 3584 
Q 2172 3584 2450 3431 
Q 2728 3278 2906 2969 
L 2906 3500 
L 3481 3500 
L 3481 434 
z
" transform="scale(0.015625)"/>
       <path id="DejaVuSans-6f" d="M 1959 3097 
Q 1497 3097 1228 2736 
Q 959 2375 959 1747 
Q 959 1119 1226 758 
Q 1494 397 1959 397 
Q 2419 397 2687 759 
Q 2956 1122 2956 1747 
Q 2956 2369 2687 2733 
Q 2419 3097 1959 3097 
z
M 1959 3584 
Q 2709 3584 3137 3096 
Q 3566 2609 3566 1747 
Q 3566 888 3137 398 
Q 2709 -91 1959 -91 
Q 1206 -91 779 398 
Q 353 888 353 1747 
Q 353 2609 779 3096 
Q 1206 3584 1959 3584 
z
" transform="scale(0.015625)"/>
       <path id="DejaVuSans-77" d="M 269 3500 
L 844 3500 
L 1563 769 
L 2278 3500 
L 2956 3500 
L 3675 769 
L 4391 3500 
L 4966 3500 
L 4050 0 
L 3372 0 
L 2619 2869 
L 1863 0 
L 1184 0 
L 269 3500 
z
" transform="scale(0.015625)"/>
       <path id="DejaVuSans-65" d="M 3597 1894 
L 3597 1613 
L 953 1613 
Q 991 1019 1311 708 
Q 1631 397 2203 397 
Q 2534 397 2845 478 
Q 3156 559 3463 722 
L 3463 178 
Q 3153 47 2828 -22 
Q 2503 -91 2169 -91 
Q 1331 -91 842 396 
Q 353 884 353 1716 
Q 353 2575 817 3079 
Q 1281 3584 2069 3584 
Q 2775 3584 3186 3129 
Q 3597 2675 3597 1894 
z
M 3022 2063 
Q 3016 2534 2758 2815 
Q 2500 3097 2075 3097 
Q 1594 3097 1305 2825 
Q 1016 2553 972 2059 
L 3022 2063 
z
" transform="scale(0.015625)"/>
       <path id="DejaVuSans-53" d="M 3425 4513 
L 3425 3897 
Q 3066 4069 2747 4153 
Q 2428 4238 2131 4238 
Q 1616 4238 1336 4038 
Q 1056 3838 1056 3469 
Q 1056 3159 1242 3001 
Q 1428 2844 1947 2747 
L 2328 2669 
Q 3034 2534 3370 2195 
Q 3706 1856 3706 1288 
Q 3706 609 3251 259 
Q 2797 -91 1919 -91 
Q 1588 -91 1214 -16 
Q 841 59 441 206 
L 441 856 
Q 825 641 1194 531 
Q 1563 422 1919 422 
Q 2459 422 2753 634 
Q 3047 847 3047 1241 
Q 3047 1584 2836 1778 
Q 2625 1972 2144 2069 
L 1759 2144 
Q 1053 2284 737 2584 
Q 422 2884 422 3419 
Q 422 4038 858 4394 
Q 1294 4750 2059 4750 
Q 2388 4750 2728 4690 
Q 3069 4631 3425 4513 
z
" transform="scale(0.015625)"/>
       <path id="DejaVuSans-74" d="M 1172 4494 
L 1172 3500 
L 2356 3500 
L 2356 3053 
L 1172 3053 
L 1172 1153 
Q 1172 725 1289 603 
Q 1406 481 1766 481 
L 2356 481 
L 2356 0 
L 1766 0 
Q 1100 0 847 248 
Q 594 497 594 1153 
L 594 3053 
L 172 3053 
L 172 3500 
L 594 3500 
L 594 4494 
L 1172 4494 
z
" transform="scale(0.015625)"/>
       <path id="DejaVuSans-64" d="M 2906 2969 
L 2906 4863 
L 3481 4863 
L 3481 0 
L 2906 0 
L 2906 525 
Q 2725 213 2448 61 
Q 2172 -91 1784 -91 
Q 1150 -91 751 415 
Q 353 922 353 1747 
Q 353 2572 751 3078 
Q 1150 3584 1784 3584 
Q 2172 3584 2448 3432 
Q 2725 3281 2906 2969 
z
M 947 1747 
Q 947 1113 1208 752 
Q 1469 391 1925 391 
Q 2381 391 2643 752 
Q 2906 1113 2906 1747 
Q 2906 2381 2643 2742 
Q 2381 3103 1925 3103 
Q 1469 3103 1208 2742 
Q 947 2381 947 1747 
z
" transform="scale(0.015625)"/>
       <path id="DejaVuSans-2c" d="M 750 794 
L 1409 794 
L 1409 256 
L 897 -744 
L 494 -744 
L 750 256 
L 750 794 
z
" transform="scale(0.015625)"/>
       <path id="DejaVuSans-25" d="M 4653 2053 
Q 4381 2053 4226 1822 
Q 4072 1591 4072 1178 
Q 4072 772 4226 539 
Q 4381 306 4653 306 
Q 4919 306 5073 539 
Q 5228 772 5228 1178 
Q 5228 1588 5073 1820 
Q 4919 2053 4653 2053 
z
M 4653 2450 
Q 5147 2450 5437 2106 
Q 5728 1763 5728 1178 
Q 5728 594 5436 251 
Q 5144 -91 4653 -91 
Q 4153 -91 3862 251 
Q 3572 594 3572 1178 
Q 3572 1766 3864 2108 
Q 4156 2450 4653 2450 
z
M 1428 4353 
Q 1159 4353 1004 4120 
Q 850 3888 850 3481 
Q 850 3069 1003 2837 
Q 1156 2606 1428 2606 
Q 1700 2606 1854 2837 
Q 2009 3069 2009 3481 
Q 2009 3884 1853 4118 
Q 1697 4353 1428 4353 
z
M 4250 4750 
L 4750 4750 
L 1831 -91 
L 1331 -91 
L 4250 4750 
z
M 1428 4750 
Q 1922 4750 2215 4408 
Q 2509 4066 2509 3481 
Q 2509 2891 2217 2550 
Q 1925 2209 1428 2209 
Q 931 2209 642 2551 
Q 353 2894 353 3481 
Q 353 4063 643 4406 
Q 934 4750 1428 4750 
z
" transform="scale(0.015625)"/>
       <path id="DejaVuSans-45" d="M 628 4666 
L 3578 4666 
L 3578 4134 
L 1259 4134 
L 1259 2753 
L 3481 2753 
L 3481 2222 
L 1259 2222 
L 1259 531 
L 3634 531 
L 3634 0 
L 628 0 
L 628 4666 
z
" transform="scale(0.015625)"/>
       <path id="DejaVuSans-55" d="M 556 4666 
L 1191 4666 
L 1191 1831 
Q 1191 1081 1462 751 
Q 1734 422 2344 422 
Q 2950 422 3222 751 
Q 3494 1081 3494 1831 
L 3494 4666 
L 4128 4666 
L 4128 1753 
Q 4128 841 3676 375 
Q 3225 -91 2344 -91 
Q 1459 -91 1007 375 
Q 556 841 556 1753 
L 556 4666 
z
" transform="scale(0.015625)"/>
       <path id="DejaVuSans-76" d="M 191 3500 
L 800 3500 
L 1894 563 
L 2988 3500 
L 3597 3500 
L 2284 0 
L 1503 0 
L 191 3500 
z
" transform="scale(0.015625)"/>
       <path id="DejaVuSans-29" d="M 513 4856 
L 1013 4856 
Q 1481 4119 1714 3412 
Q 1947 2706 1947 2009 
Q 1947 1309 1714 600 
Q 1481 -109 1013 -844 
L 513 -844 
Q 928 -128 1133 580 
Q 1338 1288 1338 2009 
Q 1338 2731 1133 3434 
Q 928 4138 513 4856 
z
" transform="scale(0.015625)"/>
      </defs>
      <use xlink:href="#DejaVuSans-47"/>
      <use xlink:href="#DejaVuSans-44" x="77.490234"/>
      <use xlink:href="#DejaVuSans-50" x="154.492188"/>
      <use xlink:href="#DejaVuSans-20" x="214.794922"/>
      <use xlink:href="#DejaVuSans-28" x="246.582031"/>
      <use xlink:href="#DejaVuSans-50" x="285.595703"/>
      <use xlink:href="#DejaVuSans-75" x="344.148438"/>
      <use xlink:href="#DejaVuSans-72" x="407.527344"/>
      <use xlink:href="#DejaVuSans-63" x="446.390625"/>
      <use xlink:href="#DejaVuSans-68" x="501.371094"/>
      <use xlink:href="#DejaVuSans-61" x="564.75"/>
      <use xlink:href="#DejaVuSans-73" x="626.029297"/>
      <use xlink:href="#DejaVuSans-69" x="678.128906"/>
      <use xlink:href="#DejaVuSans-6e" x="705.912109"/>
      <use xlink:href="#DejaVuSans-67" x="769.291016"/>
      <use xlink:href="#DejaVuSans-20" x="832.767578"/>
      <use xlink:href="#DejaVuSans-50" x="864.554688"/>
      <use xlink:href="#DejaVuSans-6f" x="921.232422"/>
      <use xlink:href="#DejaVuSans-77" x="982.414062"/>
      <use xlink:href="#DejaVuSans-65" x="1064.201172"/>
      <use xlink:href="#DejaVuSans-72" x="1125.724609"/>
      <use xlink:href="#DejaVuSans-20" x="1166.837891"/>
      <use xlink:href="#DejaVuSans-53" x="1198.625"/>
      <use xlink:href="#DejaVuSans-74" x="1262.101562"/>
      <use xlink:href="#DejaVuSans-61" x="1301.310547"/>
      <use xlink:href="#DejaVuSans-6e" x="1362.589844"/>
      <use xlink:href="#DejaVuSans-64" x="1425.96875"/>
      <use xlink:href="#DejaVuSans-61" x="1489.445312"/>
      <use xlink:href="#DejaVuSans-72" x="1550.724609"/>
      <use xlink:href="#DejaVuSans-64" x="1590.087891"/>
      <use xlink:href="#DejaVuSans-2c" x="1653.564453"/>
      <use xlink:href="#DejaVuSans-20" x="1685.351562"/>
      <use xlink:href="#DejaVuSans-25" x="1717.138672"/>
      <use xlink:href="#DejaVuSans-20" x="1812.158203"/>
      <use xlink:href="#DejaVuSans-45" x="1843.945312"/>
      <use xlink:href="#DejaVuSans-55" x="1907.128906"/>
      <use xlink:href="#DejaVuSans-20" x="1980.322266"/>
      <use xlink:href="#DejaVuSans-61" x="2012.109375"/>
      <use xlink:href="#DejaVuSans-76" x="2073.388672"/>
      <use xlink:href="#DejaVuSans-65" x="2132.568359"/>
      <use xlink:href="#DejaVuSans-72" x="2194.091797"/>
      <use xlink:href="#DejaVuSans-61" x="2235.205078"/>
      <use xlink:href="#DejaVuSans-67" x="2296.484375"/>
      <use xlink:href="#DejaVuSans-65" x="2359.960938"/>
      <use xlink:href="#DejaVuSans-29" x="2421.484375"/>
     </g>
    </g>
   </g>
   <g id="matplotlib.axis_2">
    <g id="ytick_1">
     <g id="line2d_8">
      <defs>
       <path id="m2b046b61d6" d="M 0 0 
L -3.5 0 
" style="stroke: #000000; stroke-width: 0.8"/>
      </defs>
      <g>
       <use xlink:href="#m2b046b61d6" x="57.17" y="303.64" style="stroke: #000000; stroke-width: 0.8"/>
      </g>
     </g>
     <g id="text_9">
      <!-- 0 -->
      <g transform="translate(43.8075 307.439219)scale(0.1 -0.1)">
       <use xlink:href="#DejaVuSans-30"/>
      </g>
     </g>
    </g>
    <g id="ytick_2">
     <g id="line2d_9">
      <g>
       <use xlink:href="#m2b046b61d6" x="57.17" y="245.864" style="stroke: #000000; stroke-width: 0.8"/>
      </g>
     </g>
     <g id="text_10">
      <!-- 500 -->
      <g transform="translate(31.0825 249.663219)scale(0.1 -0.1)">
       <use xlink:href="#DejaVuSans-35"/>
       <use xlink:href="#DejaVuSans-30" x="63.623047"/>
       <use xlink:href="#DejaVuSans-30" x="127.246094"/>
      </g>
     </g>
    </g>
    <g id="ytick_3">
     <g id="line2d_10">
      <g>
       <use xlink:href="#m2b046b61d6" x="57.17" y="188.088" style="stroke: #000000; stroke-width: 0.8"/>
      </g>
     </g>
     <g id="text_11">
      <!-- 1000 -->
      <g transform="translate(24.72 191.887219)scale(0.1 -0.1)">
       <use xlink:href="#DejaVuSans-31"/>
       <use xlink:href="#DejaVuSans-30" x="63.623047"/>
       <use xlink:href="#DejaVuSans-30" x="127.246094"/>
       <use xlink:href="#DejaVuSans-30" x="190.869141"/>
      </g>
     </g>
    </g>
    <g id="ytick_4">
     <g id="line2d_11">
      <g>
       <use xlink:href="#m2b046b61d6" x="57.17" y="130.312" style="stroke: #000000; stroke-width: 0.8"/>
      </g>
     </g>
     <g id="text_12">
      <!-- 1500 -->
      <g transform="translate(24.72 134.111219)scale(0.1 -0.1)">
       <use xlink:href="#DejaVuSans-31"/>
       <use xlink:href="#DejaVuSans-35" x="63.623047"/>
       <use xlink:href="#DejaVuSans-30" x="127.246094"/>
       <use xlink:href="#DejaVuSans-30" x="190.869141"/>
      </g>
     </g>
    </g>
    <g id="ytick_5">
     <g id="line2d_12">
      <g>
       <use xlink:href="#m2b046b61d6" x="57.17" y="72.536" style="stroke: #000000; stroke-width: 0.8"/>
      </g>
     </g>
     <g id="text_13">
      <!-- 2000 -->
      <g transform="translate(24.72 76.335219)scale(0.1 -0.1)">
       <use xlink:href="#DejaVuSans-32"/>
       <use xlink:href="#DejaVuSans-30" x="63.623047"/>
       <use xlink:href="#DejaVuSans-30" x="127.246094"/>
       <use xlink:href="#DejaVuSans-30" x="190.869141"/>
      </g>
     </g>
    </g>
    <g id="ytick_6">
     <g id="line2d_13">
      <g>
       <use xlink:href="#m2b046b61d6" x="57.17" y="14.76" style="stroke: #000000; stroke-width: 0.8"/>
      </g>
     </g>
     <g id="text_14">
      <!-- 2500 -->
      <g transform="translate(24.72 18.559219)scale(0.1 -0.1)">
       <use xlink:href="#DejaVuSans-32"/>
       <use xlink:href="#DejaVuSans-35" x="63.623047"/>
       <use xlink:href="#DejaVuSans-30" x="127.246094"/>
       <use xlink:href="#DejaVuSans-30" x="190.869141"/>
      </g>
     </g>
    </g>
    <g id="text_15">
     <!-- Number of Robberies -->
     <g transform="translate(18.640313 212.142969)rotate(-90)scale(0.1 -0.1)">
      <defs>
       <path id="DejaVuSans-4e" d="M 628 4666 
L 1478 4666 
L 3547 763 
L 3547 4666 
L 4159 4666 
L 4159 0 
L 3309 0 
L 1241 3903 
L 1241 0 
L 628 0 
L 628 4666 
z
" transform="scale(0.015625)"/>
       <path id="DejaVuSans-6d" d="M 3328 2828 
Q 3544 3216 3844 3400 
Q 4144 3584 4550 3584 
Q 5097 3584 5394 3201 
Q 5691 2819 5691 2113 
L 5691 0 
L 5113 0 
L 5113 2094 
Q 5113 2597 4934 2840 
Q 4756 3084 4391 3084 
Q 3944 3084 3684 2787 
Q 3425 2491 3425 1978 
L 3425 0 
L 2847 0 
L 2847 2094 
Q 2847 2600 2669 2842 
Q 2491 3084 2119 3084 
Q 1678 3084 1418 2786 
Q 1159 2488 1159 1978 
L 1159 0 
L 581 0 
L 581 3500 
L 1159 3500 
L 1159 2956 
Q 1356 3278 1631 3431 
Q 1906 3584 2284 3584 
Q 2666 3584 2933 3390 
Q 3200 3197 3328 2828 
z
" transform="scale(0.015625)"/>
       <path id="DejaVuSans-62" d="M 3116 1747 
Q 3116 2381 2855 2742 
Q 2594 3103 2138 3103 
Q 1681 3103 1420 2742 
Q 1159 2381 1159 1747 
Q 1159 1113 1420 752 
Q 1681 391 2138 391 
Q 2594 391 2855 752 
Q 3116 1113 3116 1747 
z
M 1159 2969 
Q 1341 3281 1617 3432 
Q 1894 3584 2278 3584 
Q 2916 3584 3314 3078 
Q 3713 2572 3713 1747 
Q 3713 922 3314 415 
Q 2916 -91 2278 -91 
Q 1894 -91 1617 61 
Q 1341 213 1159 525 
L 1159 0 
L 581 0 
L 581 4863 
L 1159 4863 
L 1159 2969 
z
" transform="scale(0.015625)"/>
       <path id="DejaVuSans-66" d="M 2375 4863 
L 2375 4384 
L 1825 4384 
Q 1516 4384 1395 4259 
Q 1275 4134 1275 3809 
L 1275 3500 
L 2222 3500 
L 2222 3053 
L 1275 3053 
L 1275 0 
L 697 0 
L 697 3053 
L 147 3053 
L 147 3500 
L 697 3500 
L 697 3744 
Q 697 4328 969 4595 
Q 1241 4863 1831 4863 
L 2375 4863 
z
" transform="scale(0.015625)"/>
       <path id="DejaVuSans-52" d="M 2841 2188 
Q 3044 2119 3236 1894 
Q 3428 1669 3622 1275 
L 4263 0 
L 3584 0 
L 2988 1197 
Q 2756 1666 2539 1819 
Q 2322 1972 1947 1972 
L 1259 1972 
L 1259 0 
L 628 0 
L 628 4666 
L 2053 4666 
Q 2853 4666 3247 4331 
Q 3641 3997 3641 3322 
Q 3641 2881 3436 2590 
Q 3231 2300 2841 2188 
z
M 1259 4147 
L 1259 2491 
L 2053 2491 
Q 2509 2491 2742 2702 
Q 2975 2913 2975 3322 
Q 2975 3731 2742 3939 
Q 2509 4147 2053 4147 
L 1259 4147 
z
" transform="scale(0.015625)"/>
      </defs>
      <use xlink:href="#DejaVuSans-4e"/>
      <use xlink:href="#DejaVuSans-75" x="74.804688"/>
      <use xlink:href="#DejaVuSans-6d" x="138.183594"/>
      <use xlink:href="#DejaVuSans-62" x="235.595703"/>
      <use xlink:href="#DejaVuSans-65" x="299.072266"/>
      <use xlink:href="#DejaVuSans-72" x="360.595703"/>
      <use xlink:href="#DejaVuSans-20" x="401.708984"/>
      <use xlink:href="#DejaVuSans-6f" x="433.496094"/>
      <use xlink:href="#DejaVuSans-66" x="494.677734"/>
      <use xlink:href="#DejaVuSans-20" x="529.882812"/>
      <use xlink:href="#DejaVuSans-52" x="561.669922"/>
      <use xlink:href="#DejaVuSans-6f" x="626.652344"/>
      <use xlink:href="#DejaVuSans-62" x="687.833984"/>
      <use xlink:href="#DejaVuSans-62" x="751.310547"/>
      <use xlink:href="#DejaVuSans-65" x="814.787109"/>
      <use xlink:href="#DejaVuSans-72" x="876.310547"/>
      <use xlink:href="#DejaVuSans-69" x="917.423828"/>
      <use xlink:href="#DejaVuSans-65" x="945.207031"/>
      <use xlink:href="#DejaVuSans-73" x="1006.730469"/>
     </g>
    </g>
   </g>
   <g id="line2d_14">
    <path d="M 57.17 326.838824 
L 65.186939 326.632415 
L 73.203878 326.426007 
L 81.220816 326.219599 
L 89.237755 326.01319 
L 97.254694 325.806782 
L 105.271633 325.600374 
L 113.288571 325.393965 
L 121.30551 325.187557 
L 129.322449 324.981149 
L 137.339388 324.774741 
L 145.356327 324.568332 
L 153.373265 324.361924 
L 161.390204 324.155516 
L 169.407143 323.949107 
L 177.424082 323.742699 
L 185.44102 323.536291 
L 193.457959 323.329883 
L 201.474898 323.123474 
L 209.491837 322.917066 
L 217.508776 322.710658 
L 225.525714 322.504249 
L 233.542653 322.297841 
L 241.559592 322.091433 
L 249.576531 321.885024 
L 257.593469 321.678616 
L 265.610408 321.472208 
L 273.627347 321.2658 
L 281.644286 321.059391 
L 289.661224 320.852983 
L 297.678163 320.646575 
L 305.695102 320.440166 
L 313.712041 320.233758 
L 321.72898 320.02735 
L 329.745918 319.820942 
L 337.762857 319.614533 
L 345.779796 319.408125 
L 353.796735 319.201717 
L 361.813673 318.995308 
L 369.830612 318.7889 
L 377.847551 318.582492 
L 385.86449 318.376083 
L 393.881429 318.169675 
L 401.898367 317.963267 
L 409.915306 317.756859 
L 417.932245 317.55045 
L 425.949184 317.344042 
L 433.966122 317.137634 
L 441.983061 316.931225 
L 450 316.724817 
" clip-path="url(#p850e8f5f78)" style="fill: none; stroke: #d70000; stroke-width: 1.5; stroke-linecap: square"/>
   </g>
   <g id="line2d_15">
    <path d="M 57.17 286.481252 
L 65.186939 289.297653 
L 73.203878 292.114054 
L 81.220816 294.930454 
L 89.237755 297.746855 
L 97.254694 300.563256 
L 105.271633 303.379657 
L 113.288571 306.196058 
L 121.30551 309.012459 
L 129.322449 311.82886 
L 137.339388 314.645261 
L 145.356327 317.461662 
L 153.373265 320.278063 
L 161.390204 323.094463 
L 169.407143 325.910864 
L 177.424082 328.727265 
L 185.44102 331.543666 
L 193.457959 334.360067 
L 201.474898 337.176468 
L 209.491837 339.992869 
L 217.508776 342.80927 
L 225.525714 345.625671 
L 228.299161 346.6 
" clip-path="url(#p850e8f5f78)" style="fill: none; stroke: #8c3cff; stroke-width: 1.5; stroke-linecap: square"/>
   </g>
   <g id="line2d_16">
    <path d="M 57.17 269.410108 
L 65.186939 268.398123 
L 73.203878 267.386138 
L 81.220816 266.374153 
L 89.237755 265.362168 
L 97.254694 264.350183 
L 105.271633 263.338198 
L 113.288571 262.326214 
L 121.30551 261.314229 
L 129.322449 260.302244 
L 137.339388 259.290259 
L 145.356327 258.278274 
L 153.373265 257.266289 
L 161.390204 256.254304 
L 169.407143 255.242319 
L 177.424082 254.230334 
L 185.44102 253.21835 
L 193.457959 252.206365 
L 201.474898 251.19438 
L 209.491837 250.182395 
L 217.508776 249.17041 
L 225.525714 248.158425 
L 233.542653 247.14644 
L 241.559592 246.134455 
L 249.576531 245.12247 
L 257.593469 244.110486 
L 265.610408 243.098501 
L 273.627347 242.086516 
L 281.644286 241.074531 
L 289.661224 240.062546 
L 297.678163 239.050561 
L 305.695102 238.038576 
L 313.712041 237.026591 
L 321.72898 236.014606 
L 329.745918 235.002621 
L 337.762857 233.990637 
L 345.779796 232.978652 
L 353.796735 231.966667 
L 361.813673 230.954682 
L 369.830612 229.942697 
L 377.847551 228.930712 
L 385.86449 227.918727 
L 393.881429 226.906742 
L 401.898367 225.894757 
L 409.915306 224.882773 
L 417.932245 223.870788 
L 425.949184 222.858803 
L 433.966122 221.846818 
L 441.983061 220.834833 
L 450 219.822848 
" clip-path="url(#p850e8f5f78)" style="fill: none; stroke: #028800; stroke-width: 1.5; stroke-linecap: square"/>
   </g>
   <g id="line2d_17">
    <path d="M 57.17 290.903422 
L 65.186939 290.560179 
L 73.203878 290.216936 
L 81.220816 289.873692 
L 89.237755 289.530449 
L 97.254694 289.187206 
L 105.271633 288.843962 
L 113.288571 288.500719 
L 121.30551 288.157476 
L 129.322449 287.814233 
L 137.339388 287.470989 
L 145.356327 287.127746 
L 153.373265 286.784503 
L 161.390204 286.441259 
L 169.407143 286.098016 
L 177.424082 285.754773 
L 185.44102 285.411529 
L 193.457959 285.068286 
L 201.474898 284.725043 
L 209.491837 284.381799 
L 217.508776 284.038556 
L 225.525714 283.695313 
L 233.542653 283.35207 
L 241.559592 283.008826 
L 249.576531 282.665583 
L 257.593469 282.32234 
L 265.610408 281.979096 
L 273.627347 281.635853 
L 281.644286 281.29261 
L 289.661224 280.949366 
L 297.678163 280.606123 
L 305.695102 280.26288 
L 313.712041 279.919637 
L 321.72898 279.576393 
L 329.745918 279.23315 
L 337.762857 278.889907 
L 345.779796 278.546663 
L 353.796735 278.20342 
L 361.813673 277.860177 
L 369.830612 277.516933 
L 377.847551 277.17369 
L 385.86449 276.830447 
L 393.881429 276.487204 
L 401.898367 276.14396 
L 409.915306 275.800717 
L 417.932245 275.457474 
L 425.949184 275.11423 
L 433.966122 274.770987 
L 441.983061 274.427744 
L 450 274.0845 
" clip-path="url(#p850e8f5f78)" style="fill: none; stroke: #00acc7; stroke-width: 1.5; stroke-linecap: square"/>
   </g>
   <g id="line2d_18">
    <path d="M 57.17 293.902327 
L 65.186939 294.23613 
L 73.203878 294.569933 
L 81.220816 294.903736 
L 89.237755 295.237539 
L 97.254694 295.571341 
L 105.271633 295.905144 
L 113.288571 296.238947 
L 121.30551 296.57275 
L 129.322449 296.906552 
L 137.339388 297.240355 
L 145.356327 297.574158 
L 153.373265 297.907961 
L 161.390204 298.241764 
L 169.407143 298.575566 
L 177.424082 298.909369 
L 185.44102 299.243172 
L 193.457959 299.576975 
L 201.474898 299.910778 
L 209.491837 300.24458 
L 217.508776 300.578383 
L 225.525714 300.912186 
L 233.542653 301.245989 
L 241.559592 301.579791 
L 249.576531 301.913594 
L 257.593469 302.247397 
L 265.610408 302.5812 
L 273.627347 302.915003 
L 281.644286 303.248805 
L 289.661224 303.582608 
L 297.678163 303.916411 
L 305.695102 304.250214 
L 313.712041 304.584016 
L 321.72898 304.917819 
L 329.745918 305.251622 
L 337.762857 305.585425 
L 345.779796 305.919228 
L 353.796735 306.25303 
L 361.813673 306.586833 
L 369.830612 306.920636 
L 377.847551 307.254439 
L 385.86449 307.588242 
L 393.881429 307.922044 
L 401.898367 308.255847 
L 409.915306 308.58965 
L 417.932245 308.923453 
L 425.949184 309.257255 
L 433.966122 309.591058 
L 441.983061 309.924861 
L 450 310.258664 
" clip-path="url(#p850e8f5f78)" style="fill: none; stroke: #98ff00; stroke-width: 1.5; stroke-linecap: square"/>
   </g>
   <g id="line2d_19">
    <path d="M 57.17 277.474081 
L 65.186939 278.601941 
L 73.203878 279.729802 
L 81.220816 280.857662 
L 89.237755 281.985523 
L 97.254694 283.113384 
L 105.271633 284.241244 
L 113.288571 285.369105 
L 121.30551 286.496965 
L 129.322449 287.624826 
L 137.339388 288.752686 
L 145.356327 289.880547 
L 153.373265 291.008408 
L 161.390204 292.136268 
L 169.407143 293.264129 
L 177.424082 294.391989 
L 185.44102 295.51985 
L 193.457959 296.64771 
L 201.474898 297.775571 
L 209.491837 298.903432 
L 217.508776 300.031292 
L 225.525714 301.159153 
L 233.542653 302.287013 
L 241.559592 303.414874 
L 249.576531 304.542734 
L 257.593469 305.670595 
L 265.610408 306.798456 
L 273.627347 307.926316 
L 281.644286 309.054177 
L 289.661224 310.182037 
L 297.678163 311.309898 
L 305.695102 312.437758 
L 313.712041 313.565619 
L 321.72898 314.69348 
L 329.745918 315.82134 
L 337.762857 316.949201 
L 345.779796 318.077061 
L 353.796735 319.204922 
L 361.813673 320.332782 
L 369.830612 321.460643 
L 377.847551 322.588504 
L 385.86449 323.716364 
L 393.881429 324.844225 
L 401.898367 325.972085 
L 409.915306 327.099946 
L 417.932245 328.227807 
L 425.949184 329.355667 
L 433.966122 330.483528 
L 441.983061 331.611388 
L 450 332.739249 
" clip-path="url(#p850e8f5f78)" style="fill: none; stroke: #ff7fd1; stroke-width: 1.5; stroke-linecap: square"/>
   </g>
   <g id="line2d_20">
    <path d="M 57.17 280.795492 
L 65.186939 281.043213 
L 73.203878 281.290933 
L 81.220816 281.538653 
L 89.237755 281.786373 
L 97.254694 282.034094 
L 105.271633 282.281814 
L 113.288571 282.529534 
L 121.30551 282.777255 
L 129.322449 283.024975 
L 137.339388 283.272695 
L 145.356327 283.520415 
L 153.373265 283.768136 
L 161.390204 284.015856 
L 169.407143 284.263576 
L 177.424082 284.511297 
L 185.44102 284.759017 
L 193.457959 285.006737 
L 201.474898 285.254457 
L 209.491837 285.502178 
L 217.508776 285.749898 
L 225.525714 285.997618 
L 233.542653 286.245339 
L 241.559592 286.493059 
L 249.576531 286.740779 
L 257.593469 286.9885 
L 265.610408 287.23622 
L 273.627347 287.48394 
L 281.644286 287.73166 
L 289.661224 287.979381 
L 297.678163 288.227101 
L 305.695102 288.474821 
L 313.712041 288.722542 
L 321.72898 288.970262 
L 329.745918 289.217982 
L 337.762857 289.465702 
L 345.779796 289.713423 
L 353.796735 289.961143 
L 361.813673 290.208863 
L 369.830612 290.456584 
L 377.847551 290.704304 
L 385.86449 290.952024 
L 393.881429 291.199744 
L 401.898367 291.447465 
L 409.915306 291.695185 
L 417.932245 291.942905 
L 425.949184 292.190626 
L 433.966122 292.438346 
L 441.983061 292.686066 
L 450 292.933787 
" clip-path="url(#p850e8f5f78)" style="fill: none; stroke: #6c004f; stroke-width: 1.5; stroke-linecap: square"/>
   </g>
   <g id="line2d_21">
    <path d="M 57.17 272.138528 
L 65.186939 271.805525 
L 73.203878 271.472522 
L 81.220816 271.139518 
L 89.237755 270.806515 
L 97.254694 270.473511 
L 105.271633 270.140508 
L 113.288571 269.807505 
L 121.30551 269.474501 
L 129.322449 269.141498 
L 137.339388 268.808494 
L 145.356327 268.475491 
L 153.373265 268.142488 
L 161.390204 267.809484 
L 169.407143 267.476481 
L 177.424082 267.143477 
L 185.44102 266.810474 
L 193.457959 266.47747 
L 201.474898 266.144467 
L 209.491837 265.811464 
L 217.508776 265.47846 
L 225.525714 265.145457 
L 233.542653 264.812453 
L 241.559592 264.47945 
L 249.576531 264.146447 
L 257.593469 263.813443 
L 265.610408 263.48044 
L 273.627347 263.147436 
L 281.644286 262.814433 
L 289.661224 262.48143 
L 297.678163 262.148426 
L 305.695102 261.815423 
L 313.712041 261.482419 
L 321.72898 261.149416 
L 329.745918 260.816413 
L 337.762857 260.483409 
L 345.779796 260.150406 
L 353.796735 259.817402 
L 361.813673 259.484399 
L 369.830612 259.151395 
L 377.847551 258.818392 
L 385.86449 258.485389 
L 393.881429 258.152385 
L 401.898367 257.819382 
L 409.915306 257.486378 
L 417.932245 257.153375 
L 425.949184 256.820372 
L 433.966122 256.487368 
L 441.983061 256.154365 
L 450 255.821361 
" clip-path="url(#p850e8f5f78)" style="fill: none; stroke: #583b00; stroke-width: 1.5; stroke-linecap: square"/>
   </g>
   <g id="line2d_22">
    <path d="M 57.17 255.060463 
L 65.186939 255.042831 
L 73.203878 255.025199 
L 81.220816 255.007567 
L 89.237755 254.989935 
L 97.254694 254.972304 
L 105.271633 254.954672 
L 113.288571 254.93704 
L 121.30551 254.919408 
L 129.322449 254.901776 
L 137.339388 254.884144 
L 145.356327 254.866513 
L 153.373265 254.848881 
L 161.390204 254.831249 
L 169.407143 254.813617 
L 177.424082 254.795985 
L 185.44102 254.778353 
L 193.457959 254.760722 
L 201.474898 254.74309 
L 209.491837 254.725458 
L 217.508776 254.707826 
L 225.525714 254.690194 
L 233.542653 254.672562 
L 241.559592 254.654931 
L 249.576531 254.637299 
L 257.593469 254.619667 
L 265.610408 254.602035 
L 273.627347 254.584403 
L 281.644286 254.566771 
L 289.661224 254.54914 
L 297.678163 254.531508 
L 305.695102 254.513876 
L 313.712041 254.496244 
L 321.72898 254.478612 
L 329.745918 254.46098 
L 337.762857 254.443348 
L 345.779796 254.425717 
L 353.796735 254.408085 
L 361.813673 254.390453 
L 369.830612 254.372821 
L 377.847551 254.355189 
L 385.86449 254.337557 
L 393.881429 254.319926 
L 401.898367 254.302294 
L 409.915306 254.284662 
L 417.932245 254.26703 
L 425.949184 254.249398 
L 433.966122 254.231766 
L 441.983061 254.214135 
L 450 254.196503 
" clip-path="url(#p850e8f5f78)" style="fill: none; stroke: #005759; stroke-width: 1.5; stroke-linecap: square"/>
   </g>
   <g id="line2d_23">
    <path d="M 57.17 274.218217 
L 65.186939 273.435969 
L 73.203878 272.65372 
L 81.220816 271.871472 
L 89.237755 271.089224 
L 97.254694 270.306976 
L 105.271633 269.524728 
L 113.288571 268.74248 
L 121.30551 267.960232 
L 129.322449 267.177984 
L 137.339388 266.395735 
L 145.356327 265.613487 
L 153.373265 264.831239 
L 161.390204 264.048991 
L 169.407143 263.266743 
L 177.424082 262.484495 
L 185.44102 261.702247 
L 193.457959 260.919998 
L 201.474898 260.13775 
L 209.491837 259.355502 
L 217.508776 258.573254 
L 225.525714 257.791006 
L 233.542653 257.008758 
L 241.559592 256.22651 
L 249.576531 255.444261 
L 257.593469 254.662013 
L 265.610408 253.879765 
L 273.627347 253.097517 
L 281.644286 252.315269 
L 289.661224 251.533021 
L 297.678163 250.750773 
L 305.695102 249.968525 
L 313.712041 249.186276 
L 321.72898 248.404028 
L 329.745918 247.62178 
L 337.762857 246.839532 
L 345.779796 246.057284 
L 353.796735 245.275036 
L 361.813673 244.492788 
L 369.830612 243.710539 
L 377.847551 242.928291 
L 385.86449 242.146043 
L 393.881429 241.363795 
L 401.898367 240.581547 
L 409.915306 239.799299 
L 417.932245 239.017051 
L 425.949184 238.234802 
L 433.966122 237.452554 
L 441.983061 236.670306 
L 450 235.888058 
" clip-path="url(#p850e8f5f78)" style="fill: none; stroke: #0000dd; stroke-width: 1.5; stroke-linecap: square"/>
   </g>
   <g id="line2d_24">
    <path d="M 57.17 290.248418 
L 65.186939 290.314921 
L 73.203878 290.381425 
L 81.220816 290.447929 
L 89.237755 290.514432 
L 97.254694 290.580936 
L 105.271633 290.64744 
L 113.288571 290.713944 
L 121.30551 290.780447 
L 129.322449 290.846951 
L 137.339388 290.913455 
L 145.356327 290.979958 
L 153.373265 291.046462 
L 161.390204 291.112966 
L 169.407143 291.179469 
L 177.424082 291.245973 
L 185.44102 291.312477 
L 193.457959 291.37898 
L 201.474898 291.445484 
L 209.491837 291.511988 
L 217.508776 291.578491 
L 225.525714 291.644995 
L 233.542653 291.711499 
L 241.559592 291.778002 
L 249.576531 291.844506 
L 257.593469 291.91101 
L 265.610408 291.977513 
L 273.627347 292.044017 
L 281.644286 292.110521 
L 289.661224 292.177024 
L 297.678163 292.243528 
L 305.695102 292.310032 
L 313.712041 292.376535 
L 321.72898 292.443039 
L 329.745918 292.509543 
L 337.762857 292.576046 
L 345.779796 292.64255 
L 353.796735 292.709054 
L 361.813673 292.775558 
L 369.830612 292.842061 
L 377.847551 292.908565 
L 385.86449 292.975069 
L 393.881429 293.041572 
L 401.898367 293.108076 
L 409.915306 293.17458 
L 417.932245 293.241083 
L 425.949184 293.307587 
L 433.966122 293.374091 
L 441.983061 293.440594 
L 450 293.507098 
" clip-path="url(#p850e8f5f78)" style="fill: none; stroke: #a1756a; stroke-width: 1.5; stroke-linecap: square"/>
   </g>
   <g id="line2d_25">
    <path d="M 57.17 283.633636 
L 65.186939 281.946011 
L 73.203878 280.258386 
L 81.220816 278.570761 
L 89.237755 276.883136 
L 97.254694 275.195511 
L 105.271633 273.507886 
L 113.288571 271.820261 
L 121.30551 270.132636 
L 129.322449 268.445011 
L 137.339388 266.757386 
L 145.356327 265.069761 
L 153.373265 263.382136 
L 161.390204 261.694511 
L 169.407143 260.006886 
L 177.424082 258.319261 
L 185.44102 256.631636 
L 193.457959 254.944011 
L 201.474898 253.256386 
L 209.491837 251.568761 
L 217.508776 249.881136 
L 225.525714 248.193511 
L 233.542653 246.505886 
L 241.559592 244.818261 
L 249.576531 243.130636 
L 257.593469 241.443011 
L 265.610408 239.755386 
L 273.627347 238.067761 
L 281.644286 236.380136 
L 289.661224 234.692511 
L 297.678163 233.004886 
L 305.695102 231.317261 
L 313.712041 229.629636 
L 321.72898 227.942011 
L 329.745918 226.254386 
L 337.762857 224.566761 
L 345.779796 222.879136 
L 353.796735 221.191511 
L 361.813673 219.503886 
L 369.830612 217.816261 
L 377.847551 216.128636 
L 385.86449 214.441011 
L 393.881429 212.753386 
L 401.898367 211.065761 
L 409.915306 209.378136 
L 417.932245 207.690511 
L 425.949184 206.002886 
L 433.966122 204.315261 
L 441.983061 202.627636 
L 450 200.940011 
" clip-path="url(#p850e8f5f78)" style="fill: none; stroke: #bcb7ff; stroke-width: 1.5; stroke-linecap: square"/>
   </g>
   <g id="line2d_26">
    <path d="M 57.17 258.416702 
L 65.186939 258.472228 
L 73.203878 258.527753 
L 81.220816 258.583278 
L 89.237755 258.638803 
L 97.254694 258.694329 
L 105.271633 258.749854 
L 113.288571 258.805379 
L 121.30551 258.860905 
L 129.322449 258.91643 
L 137.339388 258.971955 
L 145.356327 259.02748 
L 153.373265 259.083006 
L 161.390204 259.138531 
L 169.407143 259.194056 
L 177.424082 259.249582 
L 185.44102 259.305107 
L 193.457959 259.360632 
L 201.474898 259.416158 
L 209.491837 259.471683 
L 217.508776 259.527208 
L 225.525714 259.582733 
L 233.542653 259.638259 
L 241.559592 259.693784 
L 249.576531 259.749309 
L 257.593469 259.804835 
L 265.610408 259.86036 
L 273.627347 259.915885 
L 281.644286 259.97141 
L 289.661224 260.026936 
L 297.678163 260.082461 
L 305.695102 260.137986 
L 313.712041 260.193512 
L 321.72898 260.249037 
L 329.745918 260.304562 
L 337.762857 260.360088 
L 345.779796 260.415613 
L 353.796735 260.471138 
L 361.813673 260.526663 
L 369.830612 260.582189 
L 377.847551 260.637714 
L 385.86449 260.693239 
L 393.881429 260.748765 
L 401.898367 260.80429 
L 409.915306 260.859815 
L 417.932245 260.91534 
L 425.949184 260.970866 
L 433.966122 261.026391 
L 441.983061 261.081916 
L 450 261.137442 
" clip-path="url(#p850e8f5f78)" style="fill: none; stroke: #95b578; stroke-width: 1.5; stroke-linecap: square"/>
   </g>
   <g id="line2d_27">
    <path d="M 57.17 271.420263 
L 65.186939 270.968455 
L 73.203878 270.516647 
L 81.220816 270.06484 
L 89.237755 269.613032 
L 97.254694 269.161224 
L 105.271633 268.709416 
L 113.288571 268.257609 
L 121.30551 267.805801 
L 129.322449 267.353993 
L 137.339388 266.902185 
L 145.356327 266.450378 
L 153.373265 265.99857 
L 161.390204 265.546762 
L 169.407143 265.094954 
L 177.424082 264.643147 
L 185.44102 264.191339 
L 193.457959 263.739531 
L 201.474898 263.287723 
L 209.491837 262.835915 
L 217.508776 262.384108 
L 225.525714 261.9323 
L 233.542653 261.480492 
L 241.559592 261.028684 
L 249.576531 260.576877 
L 257.593469 260.125069 
L 265.610408 259.673261 
L 273.627347 259.221453 
L 281.644286 258.769646 
L 289.661224 258.317838 
L 297.678163 257.86603 
L 305.695102 257.414222 
L 313.712041 256.962415 
L 321.72898 256.510607 
L 329.745918 256.058799 
L 337.762857 255.606991 
L 345.779796 255.155184 
L 353.796735 254.703376 
L 361.813673 254.251568 
L 369.830612 253.79976 
L 377.847551 253.347953 
L 385.86449 252.896145 
L 393.881429 252.444337 
L 401.898367 251.992529 
L 409.915306 251.540722 
L 417.932245 251.088914 
L 425.949184 250.637106 
L 433.966122 250.185298 
L 441.983061 249.733491 
L 450 249.281683 
" clip-path="url(#p850e8f5f78)" style="fill: none; stroke: #c004b9; stroke-width: 1.5; stroke-linecap: square"/>
   </g>
   <g id="line2d_28">
    <path d="M 57.17 273.905749 
L 65.186939 273.249649 
L 73.203878 272.593549 
L 81.220816 271.937449 
L 89.237755 271.281349 
L 97.254694 270.625249 
L 105.271633 269.969149 
L 113.288571 269.313049 
L 121.30551 268.656949 
L 129.322449 268.000849 
L 137.339388 267.344749 
L 145.356327 266.688649 
L 153.373265 266.032549 
L 161.390204 265.376449 
L 169.407143 264.720349 
L 177.424082 264.064249 
L 185.44102 263.408149 
L 193.457959 262.752049 
L 201.474898 262.095949 
L 209.491837 261.439849 
L 217.508776 260.783749 
L 225.525714 260.127649 
L 233.542653 259.471549 
L 241.559592 258.815449 
L 249.576531 258.159349 
L 257.593469 257.503249 
L 265.610408 256.847149 
L 273.627347 256.191049 
L 281.644286 255.534949 
L 289.661224 254.878849 
L 297.678163 254.222749 
L 305.695102 253.566649 
L 313.712041 252.910549 
L 321.72898 252.254449 
L 329.745918 251.598349 
L 337.762857 250.942249 
L 345.779796 250.286148 
L 353.796735 249.630048 
L 361.813673 248.973948 
L 369.830612 248.317848 
L 377.847551 247.661748 
L 385.86449 247.005648 
L 393.881429 246.349548 
L 401.898367 245.693448 
L 409.915306 245.037348 
L 417.932245 244.381248 
L 425.949184 243.725148 
L 433.966122 243.069048 
L 441.983061 242.412948 
L 450 241.756848 
" clip-path="url(#p850e8f5f78)" style="fill: none; stroke: #790000; stroke-width: 1.5; stroke-linecap: square"/>
   </g>
   <g id="line2d_29">
    <path d="M 57.17 277.763542 
L 65.186939 276.771081 
L 73.203878 275.778621 
L 81.220816 274.786161 
L 89.237755 273.7937 
L 97.254694 272.80124 
L 105.271633 271.80878 
L 113.288571 270.81632 
L 121.30551 269.823859 
L 129.322449 268.831399 
L 137.339388 267.838939 
L 145.356327 266.846479 
L 153.373265 265.854018 
L 161.390204 264.861558 
L 169.407143 263.869098 
L 177.424082 262.876638 
L 185.44102 261.884177 
L 193.457959 260.891717 
L 201.474898 259.899257 
L 209.491837 258.906796 
L 217.508776 257.914336 
L 225.525714 256.921876 
L 233.542653 255.929416 
L 241.559592 254.936955 
L 249.576531 253.944495 
L 257.593469 252.952035 
L 265.610408 251.959575 
L 273.627347 250.967114 
L 281.644286 249.974654 
L 289.661224 248.982194 
L 297.678163 247.989734 
L 305.695102 246.997273 
L 313.712041 246.004813 
L 321.72898 245.012353 
L 329.745918 244.019892 
L 337.762857 243.027432 
L 345.779796 242.034972 
L 353.796735 241.042512 
L 361.813673 240.050051 
L 369.830612 239.057591 
L 377.847551 238.065131 
L 385.86449 237.072671 
L 393.881429 236.08021 
L 401.898367 235.08775 
L 409.915306 234.09529 
L 417.932245 233.10283 
L 425.949184 232.110369 
L 433.966122 231.117909 
L 441.983061 230.125449 
L 450 229.132988 
" clip-path="url(#p850e8f5f78)" style="fill: none; stroke: #0774d8; stroke-width: 1.5; stroke-linecap: square"/>
   </g>
   <g id="line2d_30">
    <path d="M 57.17 264.373934 
L 65.186939 262.602945 
L 73.203878 260.831957 
L 81.220816 259.060968 
L 89.237755 257.28998 
L 97.254694 255.518991 
L 105.271633 253.748002 
L 113.288571 251.977014 
L 121.30551 250.206025 
L 129.322449 248.435037 
L 137.339388 246.664048 
L 145.356327 244.893059 
L 153.373265 243.122071 
L 161.390204 241.351082 
L 169.407143 239.580094 
L 177.424082 237.809105 
L 185.44102 236.038116 
L 193.457959 234.267128 
L 201.474898 232.496139 
L 209.491837 230.725151 
L 217.508776 228.954162 
L 225.525714 227.183173 
L 233.542653 225.412185 
L 241.559592 223.641196 
L 249.576531 221.870208 
L 257.593469 220.099219 
L 265.610408 218.32823 
L 273.627347 216.557242 
L 281.644286 214.786253 
L 289.661224 213.015265 
L 297.678163 211.244276 
L 305.695102 209.473287 
L 313.712041 207.702299 
L 321.72898 205.93131 
L 329.745918 204.160322 
L 337.762857 202.389333 
L 345.779796 200.618344 
L 353.796735 198.847356 
L 361.813673 197.076367 
L 369.830612 195.305379 
L 377.847551 193.53439 
L 385.86449 191.763401 
L 393.881429 189.992413 
L 401.898367 188.221424 
L 409.915306 186.450436 
L 417.932245 184.679447 
L 425.949184 182.908458 
L 433.966122 181.13747 
L 441.983061 179.366481 
L 450 177.595493 
" clip-path="url(#p850e8f5f78)" style="fill: none; stroke: #fef590; stroke-width: 1.5; stroke-linecap: square"/>
   </g>
   <g id="line2d_31">
    <path d="M 57.17 236.465741 
L 65.186939 235.350973 
L 73.203878 234.236205 
L 81.220816 233.121437 
L 89.237755 232.006669 
L 97.254694 230.891901 
L 105.271633 229.777133 
L 113.288571 228.662365 
L 121.30551 227.547597 
L 129.322449 226.432828 
L 137.339388 225.31806 
L 145.356327 224.203292 
L 153.373265 223.088524 
L 161.390204 221.973756 
L 169.407143 220.858988 
L 177.424082 219.74422 
L 185.44102 218.629452 
L 193.457959 217.514684 
L 201.474898 216.399916 
L 209.491837 215.285148 
L 217.508776 214.17038 
L 225.525714 213.055612 
L 233.542653 211.940844 
L 241.559592 210.826076 
L 249.576531 209.711308 
L 257.593469 208.59654 
L 265.610408 207.481772 
L 273.627347 206.367004 
L 281.644286 205.252236 
L 289.661224 204.137467 
L 297.678163 203.022699 
L 305.695102 201.907931 
L 313.712041 200.793163 
L 321.72898 199.678395 
L 329.745918 198.563627 
L 337.762857 197.448859 
L 345.779796 196.334091 
L 353.796735 195.219323 
L 361.813673 194.104555 
L 369.830612 192.989787 
L 377.847551 191.875019 
L 385.86449 190.760251 
L 393.881429 189.645483 
L 401.898367 188.530715 
L 409.915306 187.415947 
L 417.932245 186.301179 
L 425.949184 185.186411 
L 433.966122 184.071643 
L 441.983061 182.956875 
L 450 181.842106 
" clip-path="url(#p850e8f5f78)" style="fill: none; stroke: #8f7a00; stroke-width: 1.5; stroke-linecap: square"/>
   </g>
   <g id="line2d_32">
    <path d="M 57.17 250.915687 
L 65.186939 249.957185 
L 73.203878 248.998683 
L 81.220816 248.040182 
L 89.237755 247.08168 
L 97.254694 246.123178 
L 105.271633 245.164676 
L 113.288571 244.206174 
L 121.30551 243.247672 
L 129.322449 242.28917 
L 137.339388 241.330668 
L 145.356327 240.372166 
L 153.373265 239.413664 
L 161.390204 238.455162 
L 169.407143 237.49666 
L 177.424082 236.538159 
L 185.44102 235.579657 
L 193.457959 234.621155 
L 201.474898 233.662653 
L 209.491837 232.704151 
L 217.508776 231.745649 
L 225.525714 230.787147 
L 233.542653 229.828645 
L 241.559592 228.870143 
L 249.576531 227.911641 
L 257.593469 226.953139 
L 265.610408 225.994638 
L 273.627347 225.036136 
L 281.644286 224.077634 
L 289.661224 223.119132 
L 297.678163 222.16063 
L 305.695102 221.202128 
L 313.712041 220.243626 
L 321.72898 219.285124 
L 329.745918 218.326622 
L 337.762857 217.36812 
L 345.779796 216.409618 
L 353.796735 215.451116 
L 361.813673 214.492615 
L 369.830612 213.534113 
L 377.847551 212.575611 
L 385.86449 211.617109 
L 393.881429 210.658607 
L 401.898367 209.700105 
L 409.915306 208.741603 
L 417.932245 207.783101 
L 425.949184 206.824599 
L 433.966122 205.866097 
L 441.983061 204.907595 
L 450 203.949093 
" clip-path="url(#p850e8f5f78)" style="fill: none; stroke: #ff7266; stroke-width: 1.5; stroke-linecap: square"/>
   </g>
   <g id="line2d_33">
    <path d="M 57.17 232.811643 
L 65.186939 233.206285 
L 73.203878 233.600927 
L 81.220816 233.99557 
L 89.237755 234.390212 
L 97.254694 234.784854 
L 105.271633 235.179496 
L 113.288571 235.574138 
L 121.30551 235.968781 
L 129.322449 236.363423 
L 137.339388 236.758065 
L 145.356327 237.152707 
L 153.373265 237.54735 
L 161.390204 237.941992 
L 169.407143 238.336634 
L 177.424082 238.731276 
L 185.44102 239.125918 
L 193.457959 239.520561 
L 201.474898 239.915203 
L 209.491837 240.309845 
L 217.508776 240.704487 
L 225.525714 241.09913 
L 233.542653 241.493772 
L 241.559592 241.888414 
L 249.576531 242.283056 
L 257.593469 242.677698 
L 265.610408 243.072341 
L 273.627347 243.466983 
L 281.644286 243.861625 
L 289.661224 244.256267 
L 297.678163 244.650909 
L 305.695102 245.045552 
L 313.712041 245.440194 
L 321.72898 245.834836 
L 329.745918 246.229478 
L 337.762857 246.624121 
L 345.779796 247.018763 
L 353.796735 247.413405 
L 361.813673 247.808047 
L 369.830612 248.202689 
L 377.847551 248.597332 
L 385.86449 248.991974 
L 393.881429 249.386616 
L 401.898367 249.781258 
L 409.915306 250.175901 
L 417.932245 250.570543 
L 425.949184 250.965185 
L 433.966122 251.359827 
L 441.983061 251.754469 
L 450 252.149112 
" clip-path="url(#p850e8f5f78)" style="fill: none; stroke: #eeb9b9; stroke-width: 1.5; stroke-linecap: square"/>
   </g>
   <g id="line2d_34">
    <path d="M 57.17 286.809641 
L 65.186939 285.911958 
L 73.203878 285.014275 
L 81.220816 284.116592 
L 89.237755 283.218909 
L 97.254694 282.321226 
L 105.271633 281.423543 
L 113.288571 280.52586 
L 121.30551 279.628177 
L 129.322449 278.730494 
L 137.339388 277.832811 
L 145.356327 276.935128 
L 153.373265 276.037445 
L 161.390204 275.139762 
L 169.407143 274.242079 
L 177.424082 273.344396 
L 185.44102 272.446713 
L 193.457959 271.54903 
L 201.474898 270.651347 
L 209.491837 269.753664 
L 217.508776 268.855981 
L 225.525714 267.958298 
L 233.542653 267.060615 
L 241.559592 266.162932 
L 249.576531 265.265249 
L 257.593469 264.367566 
L 265.610408 263.469883 
L 273.627347 262.5722 
L 281.644286 261.674517 
L 289.661224 260.776834 
L 297.678163 259.879151 
L 305.695102 258.981468 
L 313.712041 258.083785 
L 321.72898 257.186102 
L 329.745918 256.288419 
L 337.762857 255.390736 
L 345.779796 254.493053 
L 353.796735 253.59537 
L 361.813673 252.697687 
L 369.830612 251.800004 
L 377.847551 250.902321 
L 385.86449 250.004638 
L 393.881429 249.106955 
L 401.898367 248.209272 
L 409.915306 247.311589 
L 417.932245 246.413906 
L 425.949184 245.516223 
L 433.966122 244.61854 
L 441.983061 243.720857 
L 450 242.823174 
" clip-path="url(#p850e8f5f78)" style="fill: none; stroke: #5e7e66; stroke-width: 1.5; stroke-linecap: square"/>
   </g>
   <g id="line2d_35">
    <path d="M 57.17 287.785277 
L 65.186939 287.862133 
L 73.203878 287.938989 
L 81.220816 288.015845 
L 89.237755 288.092701 
L 97.254694 288.169556 
L 105.271633 288.246412 
L 113.288571 288.323268 
L 121.30551 288.400124 
L 129.322449 288.47698 
L 137.339388 288.553836 
L 145.356327 288.630691 
L 153.373265 288.707547 
L 161.390204 288.784403 
L 169.407143 288.861259 
L 177.424082 288.938115 
L 185.44102 289.014971 
L 193.457959 289.091827 
L 201.474898 289.168682 
L 209.491837 289.245538 
L 217.508776 289.322394 
L 225.525714 289.39925 
L 233.542653 289.476106 
L 241.559592 289.552962 
L 249.576531 289.629818 
L 257.593469 289.706673 
L 265.610408 289.783529 
L 273.627347 289.860385 
L 281.644286 289.937241 
L 289.661224 290.014097 
L 297.678163 290.090953 
L 305.695102 290.167808 
L 313.712041 290.244664 
L 321.72898 290.32152 
L 329.745918 290.398376 
L 337.762857 290.475232 
L 345.779796 290.552088 
L 353.796735 290.628944 
L 361.813673 290.705799 
L 369.830612 290.782655 
L 377.847551 290.859511 
L 385.86449 290.936367 
L 393.881429 291.013223 
L 401.898367 291.090079 
L 409.915306 291.166935 
L 417.932245 291.24379 
L 425.949184 291.320646 
L 433.966122 291.397502 
L 441.983061 291.474358 
L 450 291.551214 
" clip-path="url(#p850e8f5f78)" style="fill: none; stroke: #9be4ff; stroke-width: 1.5; stroke-linecap: square"/>
   </g>
   <g id="patch_3">
    <path d="M 57.17 303.64 
L 57.17 14.76 
" style="fill: none; stroke: #000000; stroke-width: 0.8; stroke-linejoin: miter; stroke-linecap: square"/>
   </g>
   <g id="patch_4">
    <path d="M 450 303.64 
L 450 14.76 
" style="fill: none; stroke: #000000; stroke-width: 0.8; stroke-linejoin: miter; stroke-linecap: square"/>
   </g>
   <g id="patch_5">
    <path d="M 57.17 303.64 
L 450 303.64 
" style="fill: none; stroke: #000000; stroke-width: 0.8; stroke-linejoin: miter; stroke-linecap: square"/>
   </g>
   <g id="patch_6">
    <path d="M 57.17 14.76 
L 450 14.76 
" style="fill: none; stroke: #000000; stroke-width: 0.8; stroke-linejoin: miter; stroke-linecap: square"/>
   </g>
   <g id="legend_1">
    <g id="patch_7">
     <path d="M 64.17 184.219375 
L 173.829375 184.219375 
Q 175.829375 184.219375 175.829375 182.219375 
L 175.829375 21.76 
Q 175.829375 19.76 173.829375 19.76 
L 64.17 19.76 
Q 62.17 19.76 62.17 21.76 
L 62.17 182.219375 
Q 62.17 184.219375 64.17 184.219375 
z
" style="fill: #ffffff; opacity: 0.8; stroke: #cccccc; stroke-linejoin: miter"/>
    </g>
    <g id="line2d_36">
     <path d="M 66.17 27.858437 
L 76.17 27.858437 
L 86.17 27.858437 
" style="fill: none; stroke: #d70000; stroke-width: 1.5; stroke-linecap: square"/>
    </g>
    <g id="text_16">
     <!-- AT -->
     <g transform="translate(94.17 31.358437)scale(0.1 -0.1)">
      <defs>
       <path id="DejaVuSans-41" d="M 2188 4044 
L 1331 1722 
L 3047 1722 
L 2188 4044 
z
M 1831 4666 
L 2547 4666 
L 4325 0 
L 3669 0 
L 3244 1197 
L 1141 1197 
L 716 0 
L 50 0 
L 1831 4666 
z
" transform="scale(0.015625)"/>
       <path id="DejaVuSans-54" d="M -19 4666 
L 3928 4666 
L 3928 4134 
L 2272 4134 
L 2272 0 
L 1638 0 
L 1638 4134 
L -19 4134 
L -19 4666 
z
" transform="scale(0.015625)"/>
      </defs>
      <use xlink:href="#DejaVuSans-41"/>
      <use xlink:href="#DejaVuSans-54" x="60.658203"/>
     </g>
    </g>
    <g id="line2d_37">
     <path d="M 66.17 42.536563 
L 76.17 42.536563 
L 86.17 42.536563 
" style="fill: none; stroke: #8c3cff; stroke-width: 1.5; stroke-linecap: square"/>
    </g>
    <g id="text_17">
     <!-- BE -->
     <g transform="translate(94.17 46.036563)scale(0.1 -0.1)">
      <defs>
       <path id="DejaVuSans-42" d="M 1259 2228 
L 1259 519 
L 2272 519 
Q 2781 519 3026 730 
Q 3272 941 3272 1375 
Q 3272 1813 3026 2020 
Q 2781 2228 2272 2228 
L 1259 2228 
z
M 1259 4147 
L 1259 2741 
L 2194 2741 
Q 2656 2741 2882 2914 
Q 3109 3088 3109 3444 
Q 3109 3797 2882 3972 
Q 2656 4147 2194 4147 
L 1259 4147 
z
M 628 4666 
L 2241 4666 
Q 2963 4666 3353 4366 
Q 3744 4066 3744 3513 
Q 3744 3084 3544 2831 
Q 3344 2578 2956 2516 
Q 3422 2416 3680 2098 
Q 3938 1781 3938 1306 
Q 3938 681 3513 340 
Q 3088 0 2303 0 
L 628 0 
L 628 4666 
z
" transform="scale(0.015625)"/>
      </defs>
      <use xlink:href="#DejaVuSans-42"/>
      <use xlink:href="#DejaVuSans-45" x="68.603516"/>
     </g>
    </g>
    <g id="line2d_38">
     <path d="M 66.17 57.214688 
L 76.17 57.214688 
L 86.17 57.214688 
" style="fill: none; stroke: #028800; stroke-width: 1.5; stroke-linecap: square"/>
    </g>
    <g id="text_18">
     <!-- BG -->
     <g transform="translate(94.17 60.714688)scale(0.1 -0.1)">
      <use xlink:href="#DejaVuSans-42"/>
      <use xlink:href="#DejaVuSans-47" x="66.853516"/>
     </g>
    </g>
    <g id="line2d_39">
     <path d="M 66.17 71.892812 
L 76.17 71.892812 
L 86.17 71.892812 
" style="fill: none; stroke: #00acc7; stroke-width: 1.5; stroke-linecap: square"/>
    </g>
    <g id="text_19">
     <!-- CY -->
     <g transform="translate(94.17 75.392812)scale(0.1 -0.1)">
      <defs>
       <path id="DejaVuSans-43" d="M 4122 4306 
L 4122 3641 
Q 3803 3938 3442 4084 
Q 3081 4231 2675 4231 
Q 1875 4231 1450 3742 
Q 1025 3253 1025 2328 
Q 1025 1406 1450 917 
Q 1875 428 2675 428 
Q 3081 428 3442 575 
Q 3803 722 4122 1019 
L 4122 359 
Q 3791 134 3420 21 
Q 3050 -91 2638 -91 
Q 1578 -91 968 557 
Q 359 1206 359 2328 
Q 359 3453 968 4101 
Q 1578 4750 2638 4750 
Q 3056 4750 3426 4639 
Q 3797 4528 4122 4306 
z
" transform="scale(0.015625)"/>
       <path id="DejaVuSans-59" d="M -13 4666 
L 666 4666 
L 1959 2747 
L 3244 4666 
L 3922 4666 
L 2272 2222 
L 2272 0 
L 1638 0 
L 1638 2222 
L -13 4666 
z
" transform="scale(0.015625)"/>
      </defs>
      <use xlink:href="#DejaVuSans-43"/>
      <use xlink:href="#DejaVuSans-59" x="68.074219"/>
     </g>
    </g>
    <g id="line2d_40">
     <path d="M 66.17 86.570938 
L 76.17 86.570938 
L 86.17 86.570938 
" style="fill: none; stroke: #98ff00; stroke-width: 1.5; stroke-linecap: square"/>
    </g>
    <g id="text_20">
     <!-- CZ -->
     <g transform="translate(94.17 90.070938)scale(0.1 -0.1)">
      <defs>
       <path id="DejaVuSans-5a" d="M 359 4666 
L 4025 4666 
L 4025 4184 
L 1075 531 
L 4097 531 
L 4097 0 
L 288 0 
L 288 481 
L 3238 4134 
L 359 4134 
L 359 4666 
z
" transform="scale(0.015625)"/>
      </defs>
      <use xlink:href="#DejaVuSans-43"/>
      <use xlink:href="#DejaVuSans-5a" x="69.824219"/>
     </g>
    </g>
    <g id="line2d_41">
     <path d="M 66.17 101.249062 
L 76.17 101.249062 
L 86.17 101.249062 
" style="fill: none; stroke: #ff7fd1; stroke-width: 1.5; stroke-linecap: square"/>
    </g>
    <g id="text_21">
     <!-- DE -->
     <g transform="translate(94.17 104.749062)scale(0.1 -0.1)">
      <use xlink:href="#DejaVuSans-44"/>
      <use xlink:href="#DejaVuSans-45" x="77.001953"/>
     </g>
    </g>
    <g id="line2d_42">
     <path d="M 66.17 115.927188 
L 76.17 115.927188 
L 86.17 115.927188 
" style="fill: none; stroke: #6c004f; stroke-width: 1.5; stroke-linecap: square"/>
    </g>
    <g id="text_22">
     <!-- DK -->
     <g transform="translate(94.17 119.427188)scale(0.1 -0.1)">
      <defs>
       <path id="DejaVuSans-4b" d="M 628 4666 
L 1259 4666 
L 1259 2694 
L 3353 4666 
L 4166 4666 
L 1850 2491 
L 4331 0 
L 3500 0 
L 1259 2247 
L 1259 0 
L 628 0 
L 628 4666 
z
" transform="scale(0.015625)"/>
      </defs>
      <use xlink:href="#DejaVuSans-44"/>
      <use xlink:href="#DejaVuSans-4b" x="77.001953"/>
     </g>
    </g>
    <g id="line2d_43">
     <path d="M 66.17 130.605312 
L 76.17 130.605312 
L 86.17 130.605312 
" style="fill: none; stroke: #583b00; stroke-width: 1.5; stroke-linecap: square"/>
    </g>
    <g id="text_23">
     <!-- EL -->
     <g transform="translate(94.17 134.105312)scale(0.1 -0.1)">
      <defs>
       <path id="DejaVuSans-4c" d="M 628 4666 
L 1259 4666 
L 1259 531 
L 3531 531 
L 3531 0 
L 628 0 
L 628 4666 
z
" transform="scale(0.015625)"/>
      </defs>
      <use xlink:href="#DejaVuSans-45"/>
      <use xlink:href="#DejaVuSans-4c" x="63.183594"/>
     </g>
    </g>
    <g id="line2d_44">
     <path d="M 66.17 145.283437 
L 76.17 145.283437 
L 86.17 145.283437 
" style="fill: none; stroke: #005759; stroke-width: 1.5; stroke-linecap: square"/>
    </g>
    <g id="text_24">
     <!-- ES -->
     <g transform="translate(94.17 148.783437)scale(0.1 -0.1)">
      <use xlink:href="#DejaVuSans-45"/>
      <use xlink:href="#DejaVuSans-53" x="63.183594"/>
     </g>
    </g>
    <g id="line2d_45">
     <path d="M 66.17 159.961562 
L 76.17 159.961562 
L 86.17 159.961562 
" style="fill: none; stroke: #0000dd; stroke-width: 1.5; stroke-linecap: square"/>
    </g>
    <g id="text_25">
     <!-- FI -->
     <g transform="translate(94.17 163.461562)scale(0.1 -0.1)">
      <defs>
       <path id="DejaVuSans-46" d="M 628 4666 
L 3309 4666 
L 3309 4134 
L 1259 4134 
L 1259 2759 
L 3109 2759 
L 3109 2228 
L 1259 2228 
L 1259 0 
L 628 0 
L 628 4666 
z
" transform="scale(0.015625)"/>
       <path id="DejaVuSans-49" d="M 628 4666 
L 1259 4666 
L 1259 0 
L 628 0 
L 628 4666 
z
" transform="scale(0.015625)"/>
      </defs>
      <use xlink:href="#DejaVuSans-46"/>
      <use xlink:href="#DejaVuSans-49" x="57.519531"/>
     </g>
    </g>
    <g id="line2d_46">
     <path d="M 66.17 174.639687 
L 76.17 174.639687 
L 86.17 174.639687 
" style="fill: none; stroke: #a1756a; stroke-width: 1.5; stroke-linecap: square"/>
    </g>
    <g id="text_26">
     <!-- HU -->
     <g transform="translate(94.17 178.139687)scale(0.1 -0.1)">
      <defs>
       <path id="DejaVuSans-48" d="M 628 4666 
L 1259 4666 
L 1259 2753 
L 3553 2753 
L 3553 4666 
L 4184 4666 
L 4184 0 
L 3553 0 
L 3553 2222 
L 1259 2222 
L 1259 0 
L 628 0 
L 628 4666 
z
" transform="scale(0.015625)"/>
      </defs>
      <use xlink:href="#DejaVuSans-48"/>
      <use xlink:href="#DejaVuSans-55" x="75.195312"/>
     </g>
    </g>
    <g id="line2d_47">
     <path d="M 129.009063 27.858437 
L 139.009063 27.858437 
L 149.009063 27.858437 
" style="fill: none; stroke: #bcb7ff; stroke-width: 1.5; stroke-linecap: square"/>
    </g>
    <g id="text_27">
     <!-- IE -->
     <g transform="translate(157.009063 31.358437)scale(0.1 -0.1)">
      <use xlink:href="#DejaVuSans-49"/>
      <use xlink:href="#DejaVuSans-45" x="29.492188"/>
     </g>
    </g>
    <g id="line2d_48">
     <path d="M 129.009063 42.536563 
L 139.009063 42.536563 
L 149.009063 42.536563 
" style="fill: none; stroke: #95b578; stroke-width: 1.5; stroke-linecap: square"/>
    </g>
    <g id="text_28">
     <!-- IT -->
     <g transform="translate(157.009063 46.036563)scale(0.1 -0.1)">
      <use xlink:href="#DejaVuSans-49"/>
      <use xlink:href="#DejaVuSans-54" x="29.492188"/>
     </g>
    </g>
    <g id="line2d_49">
     <path d="M 129.009063 57.214688 
L 139.009063 57.214688 
L 149.009063 57.214688 
" style="fill: none; stroke: #c004b9; stroke-width: 1.5; stroke-linecap: square"/>
    </g>
    <g id="text_29">
     <!-- LT -->
     <g transform="translate(157.009063 60.714688)scale(0.1 -0.1)">
      <use xlink:href="#DejaVuSans-4c"/>
      <use xlink:href="#DejaVuSans-54" x="41.962891"/>
     </g>
    </g>
    <g id="line2d_50">
     <path d="M 129.009063 71.892812 
L 139.009063 71.892812 
L 149.009063 71.892812 
" style="fill: none; stroke: #790000; stroke-width: 1.5; stroke-linecap: square"/>
    </g>
    <g id="text_30">
     <!-- LV -->
     <g transform="translate(157.009063 75.392812)scale(0.1 -0.1)">
      <defs>
       <path id="DejaVuSans-56" d="M 1831 0 
L 50 4666 
L 709 4666 
L 2188 738 
L 3669 4666 
L 4325 4666 
L 2547 0 
L 1831 0 
z
" transform="scale(0.015625)"/>
      </defs>
      <use xlink:href="#DejaVuSans-4c"/>
      <use xlink:href="#DejaVuSans-56" x="44.712891"/>
     </g>
    </g>
    <g id="line2d_51">
     <path d="M 129.009063 86.570938 
L 139.009063 86.570938 
L 149.009063 86.570938 
" style="fill: none; stroke: #0774d8; stroke-width: 1.5; stroke-linecap: square"/>
    </g>
    <g id="text_31">
     <!-- MT -->
     <g transform="translate(157.009063 90.070938)scale(0.1 -0.1)">
      <defs>
       <path id="DejaVuSans-4d" d="M 628 4666 
L 1569 4666 
L 2759 1491 
L 3956 4666 
L 4897 4666 
L 4897 0 
L 4281 0 
L 4281 4097 
L 3078 897 
L 2444 897 
L 1241 4097 
L 1241 0 
L 628 0 
L 628 4666 
z
" transform="scale(0.015625)"/>
      </defs>
      <use xlink:href="#DejaVuSans-4d"/>
      <use xlink:href="#DejaVuSans-54" x="86.279297"/>
     </g>
    </g>
    <g id="line2d_52">
     <path d="M 129.009063 101.249062 
L 139.009063 101.249062 
L 149.009063 101.249062 
" style="fill: none; stroke: #fef590; stroke-width: 1.5; stroke-linecap: square"/>
    </g>
    <g id="text_32">
     <!-- NL -->
     <g transform="translate(157.009063 104.749062)scale(0.1 -0.1)">
      <use xlink:href="#DejaVuSans-4e"/>
      <use xlink:href="#DejaVuSans-4c" x="74.804688"/>
     </g>
    </g>
    <g id="line2d_53">
     <path d="M 129.009063 115.927188 
L 139.009063 115.927188 
L 149.009063 115.927188 
" style="fill: none; stroke: #8f7a00; stroke-width: 1.5; stroke-linecap: square"/>
    </g>
    <g id="text_33">
     <!-- PT -->
     <g transform="translate(157.009063 119.427188)scale(0.1 -0.1)">
      <use xlink:href="#DejaVuSans-50"/>
      <use xlink:href="#DejaVuSans-54" x="60.302734"/>
     </g>
    </g>
    <g id="line2d_54">
     <path d="M 129.009063 130.605312 
L 139.009063 130.605312 
L 149.009063 130.605312 
" style="fill: none; stroke: #ff7266; stroke-width: 1.5; stroke-linecap: square"/>
    </g>
    <g id="text_34">
     <!-- RO -->
     <g transform="translate(157.009063 134.105312)scale(0.1 -0.1)">
      <defs>
       <path id="DejaVuSans-4f" d="M 2522 4238 
Q 1834 4238 1429 3725 
Q 1025 3213 1025 2328 
Q 1025 1447 1429 934 
Q 1834 422 2522 422 
Q 3209 422 3611 934 
Q 4013 1447 4013 2328 
Q 4013 3213 3611 3725 
Q 3209 4238 2522 4238 
z
M 2522 4750 
Q 3503 4750 4090 4092 
Q 4678 3434 4678 2328 
Q 4678 1225 4090 567 
Q 3503 -91 2522 -91 
Q 1538 -91 948 565 
Q 359 1222 359 2328 
Q 359 3434 948 4092 
Q 1538 4750 2522 4750 
z
" transform="scale(0.015625)"/>
      </defs>
      <use xlink:href="#DejaVuSans-52"/>
      <use xlink:href="#DejaVuSans-4f" x="69.482422"/>
     </g>
    </g>
    <g id="line2d_55">
     <path d="M 129.009063 145.283437 
L 139.009063 145.283437 
L 149.009063 145.283437 
" style="fill: none; stroke: #eeb9b9; stroke-width: 1.5; stroke-linecap: square"/>
    </g>
    <g id="text_35">
     <!-- SE -->
     <g transform="translate(157.009063 148.783437)scale(0.1 -0.1)">
      <use xlink:href="#DejaVuSans-53"/>
      <use xlink:href="#DejaVuSans-45" x="63.476562"/>
     </g>
    </g>
    <g id="line2d_56">
     <path d="M 129.009063 159.961562 
L 139.009063 159.961562 
L 149.009063 159.961562 
" style="fill: none; stroke: #5e7e66; stroke-width: 1.5; stroke-linecap: square"/>
    </g>
    <g id="text_36">
     <!-- SI -->
     <g transform="translate(157.009063 163.461562)scale(0.1 -0.1)">
      <use xlink:href="#DejaVuSans-53"/>
      <use xlink:href="#DejaVuSans-49" x="63.476562"/>
     </g>
    </g>
    <g id="line2d_57">
     <path d="M 129.009063 174.639687 
L 139.009063 174.639687 
L 149.009063 174.639687 
" style="fill: none; stroke: #9be4ff; stroke-width: 1.5; stroke-linecap: square"/>
    </g>
    <g id="text_37">
     <!-- SK -->
     <g transform="translate(157.009063 178.139687)scale(0.1 -0.1)">
      <use xlink:href="#DejaVuSans-53"/>
      <use xlink:href="#DejaVuSans-4b" x="63.476562"/>
     </g>
    </g>
   </g>
  </g>
 </g>
 <defs>
  <clipPath id="p850e8f5f78">
   <rect x="57.17" y="14.76" width="392.83" height="288.88"/>
  </clipPath>
 </defs>
</svg>
