<?xml version="1.0" encoding="utf-8" standalone="no"?>
<!DOCTYPE svg PUBLIC "-//W3C//DTD SVG 1.1//EN"
  "http://www.w3.org/Graphics/SVG/1.1/DTD/svg11.dtd">
<svg xmlns:xlink="http://www.w3.org/1999/xlink" width="460.8pt" height="345.6pt" viewBox="0 0 460.8 345.6" xmlns="http://www.w3.org/2000/svg" version="1.1">
 <metadata>
  <rdf:RDF xmlns:dc="http://purl.org/dc/elements/1.1/" xmlns:cc="http://creativecommons.org/ns#" xmlns:rdf="http://www.w3.org/1999/02/22-rdf-syntax-ns#">
   <cc:Work>
    <dc:type rdf:resource="http://purl.org/dc/dcmitype/StillImage"/>
    <dc:date>2024-02-02T17:09:28.802740</dc:date>
    <dc:format>image/svg+xml</dc:format>
    <dc:creator>
     <cc:Agent>
      <dc:title>Matplotlib v3.5.1, https://matplotlib.org/</dc:title>
     </cc:Agent>
    </dc:creator>
   </cc:Work>
  </rdf:RDF>
 </metadata>
 <defs>
  <style type="text/css">*{stroke-linejoin: round; stroke-linecap: butt}</style>
 </defs>
 <g id="figure_1">
  <g id="patch_1">
   <path d="M 0 345.6 
L 460.8 345.6 
L 460.8 0 
L 0 0 
L 0 345.6 
z
" style="fill: none"/>
  </g>
  <g id="axes_1">
   <g id="patch_2">
    <path d="M 57.17 303.64 
L 450 303.64 
L 450 10.8 
L 57.17 10.8 
L 57.17 303.64 
z
" style="fill: none"/>
   </g>
   <g id="matplotlib.axis_1">
    <g id="xtick_1">
     <g id="line2d_1">
      <defs>
       <path id="m57ca07cfab" d="M 0 0 
L 0 3.5 
" style="stroke: #000000; stroke-width: 0.8"/>
      </defs>
      <g>
       <use xlink:href="#m57ca07cfab" x="101.636083" y="303.64" style="stroke: #000000; stroke-width: 0.8"/>
      </g>
     </g>
     <g id="text_1">
      <!-- 20 -->
      <g transform="translate(95.273583 318.238437)scale(0.1 -0.1)">
       <defs>
        <path id="DejaVuSans-32" d="M 1228 531 
L 3431 531 
L 3431 0 
L 469 0 
L 469 531 
Q 828 903 1448 1529 
Q 2069 2156 2228 2338 
Q 2531 2678 2651 2914 
Q 2772 3150 2772 3378 
Q 2772 3750 2511 3984 
Q 2250 4219 1831 4219 
Q 1534 4219 1204 4116 
Q 875 4013 500 3803 
L 500 4441 
Q 881 4594 1212 4672 
Q 1544 4750 1819 4750 
Q 2544 4750 2975 4387 
Q 3406 4025 3406 3419 
Q 3406 3131 3298 2873 
Q 3191 2616 2906 2266 
Q 2828 2175 2409 1742 
Q 1991 1309 1228 531 
z
" transform="scale(0.015625)"/>
        <path id="DejaVuSans-30" d="M 2034 4250 
Q 1547 4250 1301 3770 
Q 1056 3291 1056 2328 
Q 1056 1369 1301 889 
Q 1547 409 2034 409 
Q 2525 409 2770 889 
Q 3016 1369 3016 2328 
Q 3016 3291 2770 3770 
Q 2525 4250 2034 4250 
z
M 2034 4750 
Q 2819 4750 3233 4129 
Q 3647 3509 3647 2328 
Q 3647 1150 3233 529 
Q 2819 -91 2034 -91 
Q 1250 -91 836 529 
Q 422 1150 422 2328 
Q 422 3509 836 4129 
Q 1250 4750 2034 4750 
z
" transform="scale(0.015625)"/>
       </defs>
       <use xlink:href="#DejaVuSans-32"/>
       <use xlink:href="#DejaVuSans-30" x="63.623047"/>
      </g>
     </g>
    </g>
    <g id="xtick_2">
     <g id="line2d_2">
      <g>
       <use xlink:href="#m57ca07cfab" x="148.262048" y="303.64" style="stroke: #000000; stroke-width: 0.8"/>
      </g>
     </g>
     <g id="text_2">
      <!-- 40 -->
      <g transform="translate(141.899548 318.238437)scale(0.1 -0.1)">
       <defs>
        <path id="DejaVuSans-34" d="M 2419 4116 
L 825 1625 
L 2419 1625 
L 2419 4116 
z
M 2253 4666 
L 3047 4666 
L 3047 1625 
L 3713 1625 
L 3713 1100 
L 3047 1100 
L 3047 0 
L 2419 0 
L 2419 1100 
L 313 1100 
L 313 1709 
L 2253 4666 
z
" transform="scale(0.015625)"/>
       </defs>
       <use xlink:href="#DejaVuSans-34"/>
       <use xlink:href="#DejaVuSans-30" x="63.623047"/>
      </g>
     </g>
    </g>
    <g id="xtick_3">
     <g id="line2d_3">
      <g>
       <use xlink:href="#m57ca07cfab" x="194.888013" y="303.64" style="stroke: #000000; stroke-width: 0.8"/>
      </g>
     </g>
     <g id="text_3">
      <!-- 60 -->
      <g transform="translate(188.525513 318.238437)scale(0.1 -0.1)">
       <defs>
        <path id="DejaVuSans-36" d="M 2113 2584 
Q 1688 2584 1439 2293 
Q 1191 2003 1191 1497 
Q 1191 994 1439 701 
Q 1688 409 2113 409 
Q 2538 409 2786 701 
Q 3034 994 3034 1497 
Q 3034 2003 2786 2293 
Q 2538 2584 2113 2584 
z
M 3366 4563 
L 3366 3988 
Q 3128 4100 2886 4159 
Q 2644 4219 2406 4219 
Q 1781 4219 1451 3797 
Q 1122 3375 1075 2522 
Q 1259 2794 1537 2939 
Q 1816 3084 2150 3084 
Q 2853 3084 3261 2657 
Q 3669 2231 3669 1497 
Q 3669 778 3244 343 
Q 2819 -91 2113 -91 
Q 1303 -91 875 529 
Q 447 1150 447 2328 
Q 447 3434 972 4092 
Q 1497 4750 2381 4750 
Q 2619 4750 2861 4703 
Q 3103 4656 3366 4563 
z
" transform="scale(0.015625)"/>
       </defs>
       <use xlink:href="#DejaVuSans-36"/>
       <use xlink:href="#DejaVuSans-30" x="63.623047"/>
      </g>
     </g>
    </g>
    <g id="xtick_4">
     <g id="line2d_4">
      <g>
       <use xlink:href="#m57ca07cfab" x="241.513979" y="303.64" style="stroke: #000000; stroke-width: 0.8"/>
      </g>
     </g>
     <g id="text_4">
      <!-- 80 -->
      <g transform="translate(235.151479 318.238437)scale(0.1 -0.1)">
       <defs>
        <path id="DejaVuSans-38" d="M 2034 2216 
Q 1584 2216 1326 1975 
Q 1069 1734 1069 1313 
Q 1069 891 1326 650 
Q 1584 409 2034 409 
Q 2484 409 2743 651 
Q 3003 894 3003 1313 
Q 3003 1734 2745 1975 
Q 2488 2216 2034 2216 
z
M 1403 2484 
Q 997 2584 770 2862 
Q 544 3141 544 3541 
Q 544 4100 942 4425 
Q 1341 4750 2034 4750 
Q 2731 4750 3128 4425 
Q 3525 4100 3525 3541 
Q 3525 3141 3298 2862 
Q 3072 2584 2669 2484 
Q 3125 2378 3379 2068 
Q 3634 1759 3634 1313 
Q 3634 634 3220 271 
Q 2806 -91 2034 -91 
Q 1263 -91 848 271 
Q 434 634 434 1313 
Q 434 1759 690 2068 
Q 947 2378 1403 2484 
z
M 1172 3481 
Q 1172 3119 1398 2916 
Q 1625 2713 2034 2713 
Q 2441 2713 2670 2916 
Q 2900 3119 2900 3481 
Q 2900 3844 2670 4047 
Q 2441 4250 2034 4250 
Q 1625 4250 1398 4047 
Q 1172 3844 1172 3481 
z
" transform="scale(0.015625)"/>
       </defs>
       <use xlink:href="#DejaVuSans-38"/>
       <use xlink:href="#DejaVuSans-30" x="63.623047"/>
      </g>
     </g>
    </g>
    <g id="xtick_5">
     <g id="line2d_5">
      <g>
       <use xlink:href="#m57ca07cfab" x="288.139944" y="303.64" style="stroke: #000000; stroke-width: 0.8"/>
      </g>
     </g>
     <g id="text_5">
      <!-- 100 -->
      <g transform="translate(278.596194 318.238437)scale(0.1 -0.1)">
       <defs>
        <path id="DejaVuSans-31" d="M 794 531 
L 1825 531 
L 1825 4091 
L 703 3866 
L 703 4441 
L 1819 4666 
L 2450 4666 
L 2450 531 
L 3481 531 
L 3481 0 
L 794 0 
L 794 531 
z
" transform="scale(0.015625)"/>
       </defs>
       <use xlink:href="#DejaVuSans-31"/>
       <use xlink:href="#DejaVuSans-30" x="63.623047"/>
       <use xlink:href="#DejaVuSans-30" x="127.246094"/>
      </g>
     </g>
    </g>
    <g id="xtick_6">
     <g id="line2d_6">
      <g>
       <use xlink:href="#m57ca07cfab" x="334.765909" y="303.64" style="stroke: #000000; stroke-width: 0.8"/>
      </g>
     </g>
     <g id="text_6">
      <!-- 120 -->
      <g transform="translate(325.222159 318.238437)scale(0.1 -0.1)">
       <use xlink:href="#DejaVuSans-31"/>
       <use xlink:href="#DejaVuSans-32" x="63.623047"/>
       <use xlink:href="#DejaVuSans-30" x="127.246094"/>
      </g>
     </g>
    </g>
    <g id="xtick_7">
     <g id="line2d_7">
      <g>
       <use xlink:href="#m57ca07cfab" x="381.391874" y="303.64" style="stroke: #000000; stroke-width: 0.8"/>
      </g>
     </g>
     <g id="text_7">
      <!-- 140 -->
      <g transform="translate(371.848124 318.238437)scale(0.1 -0.1)">
       <use xlink:href="#DejaVuSans-31"/>
       <use xlink:href="#DejaVuSans-34" x="63.623047"/>
       <use xlink:href="#DejaVuSans-30" x="127.246094"/>
      </g>
     </g>
    </g>
    <g id="xtick_8">
     <g id="line2d_8">
      <g>
       <use xlink:href="#m57ca07cfab" x="428.017839" y="303.64" style="stroke: #000000; stroke-width: 0.8"/>
      </g>
     </g>
     <g id="text_8">
      <!-- 160 -->
      <g transform="translate(418.474089 318.238437)scale(0.1 -0.1)">
       <use xlink:href="#DejaVuSans-31"/>
       <use xlink:href="#DejaVuSans-36" x="63.623047"/>
       <use xlink:href="#DejaVuSans-30" x="127.246094"/>
      </g>
     </g>
    </g>
    <g id="text_9">
     <!-- Urban Density (inhabitants per 10 km²) -->
     <g transform="translate(155.056875 331.916562)scale(0.1 -0.1)">
      <defs>
       <path id="DejaVuSans-55" d="M 556 4666 
L 1191 4666 
L 1191 1831 
Q 1191 1081 1462 751 
Q 1734 422 2344 422 
Q 2950 422 3222 751 
Q 3494 1081 3494 1831 
L 3494 4666 
L 4128 4666 
L 4128 1753 
Q 4128 841 3676 375 
Q 3225 -91 2344 -91 
Q 1459 -91 1007 375 
Q 556 841 556 1753 
L 556 4666 
z
" transform="scale(0.015625)"/>
       <path id="DejaVuSans-72" d="M 2631 2963 
Q 2534 3019 2420 3045 
Q 2306 3072 2169 3072 
Q 1681 3072 1420 2755 
Q 1159 2438 1159 1844 
L 1159 0 
L 581 0 
L 581 3500 
L 1159 3500 
L 1159 2956 
Q 1341 3275 1631 3429 
Q 1922 3584 2338 3584 
Q 2397 3584 2469 3576 
Q 2541 3569 2628 3553 
L 2631 2963 
z
" transform="scale(0.015625)"/>
       <path id="DejaVuSans-62" d="M 3116 1747 
Q 3116 2381 2855 2742 
Q 2594 3103 2138 3103 
Q 1681 3103 1420 2742 
Q 1159 2381 1159 1747 
Q 1159 1113 1420 752 
Q 1681 391 2138 391 
Q 2594 391 2855 752 
Q 3116 1113 3116 1747 
z
M 1159 2969 
Q 1341 3281 1617 3432 
Q 1894 3584 2278 3584 
Q 2916 3584 3314 3078 
Q 3713 2572 3713 1747 
Q 3713 922 3314 415 
Q 2916 -91 2278 -91 
Q 1894 -91 1617 61 
Q 1341 213 1159 525 
L 1159 0 
L 581 0 
L 581 4863 
L 1159 4863 
L 1159 2969 
z
" transform="scale(0.015625)"/>
       <path id="DejaVuSans-61" d="M 2194 1759 
Q 1497 1759 1228 1600 
Q 959 1441 959 1056 
Q 959 750 1161 570 
Q 1363 391 1709 391 
Q 2188 391 2477 730 
Q 2766 1069 2766 1631 
L 2766 1759 
L 2194 1759 
z
M 3341 1997 
L 3341 0 
L 2766 0 
L 2766 531 
Q 2569 213 2275 61 
Q 1981 -91 1556 -91 
Q 1019 -91 701 211 
Q 384 513 384 1019 
Q 384 1609 779 1909 
Q 1175 2209 1959 2209 
L 2766 2209 
L 2766 2266 
Q 2766 2663 2505 2880 
Q 2244 3097 1772 3097 
Q 1472 3097 1187 3025 
Q 903 2953 641 2809 
L 641 3341 
Q 956 3463 1253 3523 
Q 1550 3584 1831 3584 
Q 2591 3584 2966 3190 
Q 3341 2797 3341 1997 
z
" transform="scale(0.015625)"/>
       <path id="DejaVuSans-6e" d="M 3513 2113 
L 3513 0 
L 2938 0 
L 2938 2094 
Q 2938 2591 2744 2837 
Q 2550 3084 2163 3084 
Q 1697 3084 1428 2787 
Q 1159 2491 1159 1978 
L 1159 0 
L 581 0 
L 581 3500 
L 1159 3500 
L 1159 2956 
Q 1366 3272 1645 3428 
Q 1925 3584 2291 3584 
Q 2894 3584 3203 3211 
Q 3513 2838 3513 2113 
z
" transform="scale(0.015625)"/>
       <path id="DejaVuSans-20" transform="scale(0.015625)"/>
       <path id="DejaVuSans-44" d="M 1259 4147 
L 1259 519 
L 2022 519 
Q 2988 519 3436 956 
Q 3884 1394 3884 2338 
Q 3884 3275 3436 3711 
Q 2988 4147 2022 4147 
L 1259 4147 
z
M 628 4666 
L 1925 4666 
Q 3281 4666 3915 4102 
Q 4550 3538 4550 2338 
Q 4550 1131 3912 565 
Q 3275 0 1925 0 
L 628 0 
L 628 4666 
z
" transform="scale(0.015625)"/>
       <path id="DejaVuSans-65" d="M 3597 1894 
L 3597 1613 
L 953 1613 
Q 991 1019 1311 708 
Q 1631 397 2203 397 
Q 2534 397 2845 478 
Q 3156 559 3463 722 
L 3463 178 
Q 3153 47 2828 -22 
Q 2503 -91 2169 -91 
Q 1331 -91 842 396 
Q 353 884 353 1716 
Q 353 2575 817 3079 
Q 1281 3584 2069 3584 
Q 2775 3584 3186 3129 
Q 3597 2675 3597 1894 
z
M 3022 2063 
Q 3016 2534 2758 2815 
Q 2500 3097 2075 3097 
Q 1594 3097 1305 2825 
Q 1016 2553 972 2059 
L 3022 2063 
z
" transform="scale(0.015625)"/>
       <path id="DejaVuSans-73" d="M 2834 3397 
L 2834 2853 
Q 2591 2978 2328 3040 
Q 2066 3103 1784 3103 
Q 1356 3103 1142 2972 
Q 928 2841 928 2578 
Q 928 2378 1081 2264 
Q 1234 2150 1697 2047 
L 1894 2003 
Q 2506 1872 2764 1633 
Q 3022 1394 3022 966 
Q 3022 478 2636 193 
Q 2250 -91 1575 -91 
Q 1294 -91 989 -36 
Q 684 19 347 128 
L 347 722 
Q 666 556 975 473 
Q 1284 391 1588 391 
Q 1994 391 2212 530 
Q 2431 669 2431 922 
Q 2431 1156 2273 1281 
Q 2116 1406 1581 1522 
L 1381 1569 
Q 847 1681 609 1914 
Q 372 2147 372 2553 
Q 372 3047 722 3315 
Q 1072 3584 1716 3584 
Q 2034 3584 2315 3537 
Q 2597 3491 2834 3397 
z
" transform="scale(0.015625)"/>
       <path id="DejaVuSans-69" d="M 603 3500 
L 1178 3500 
L 1178 0 
L 603 0 
L 603 3500 
z
M 603 4863 
L 1178 4863 
L 1178 4134 
L 603 4134 
L 603 4863 
z
" transform="scale(0.015625)"/>
       <path id="DejaVuSans-74" d="M 1172 4494 
L 1172 3500 
L 2356 3500 
L 2356 3053 
L 1172 3053 
L 1172 1153 
Q 1172 725 1289 603 
Q 1406 481 1766 481 
L 2356 481 
L 2356 0 
L 1766 0 
Q 1100 0 847 248 
Q 594 497 594 1153 
L 594 3053 
L 172 3053 
L 172 3500 
L 594 3500 
L 594 4494 
L 1172 4494 
z
" transform="scale(0.015625)"/>
       <path id="DejaVuSans-79" d="M 2059 -325 
Q 1816 -950 1584 -1140 
Q 1353 -1331 966 -1331 
L 506 -1331 
L 506 -850 
L 844 -850 
Q 1081 -850 1212 -737 
Q 1344 -625 1503 -206 
L 1606 56 
L 191 3500 
L 800 3500 
L 1894 763 
L 2988 3500 
L 3597 3500 
L 2059 -325 
z
" transform="scale(0.015625)"/>
       <path id="DejaVuSans-28" d="M 1984 4856 
Q 1566 4138 1362 3434 
Q 1159 2731 1159 2009 
Q 1159 1288 1364 580 
Q 1569 -128 1984 -844 
L 1484 -844 
Q 1016 -109 783 600 
Q 550 1309 550 2009 
Q 550 2706 781 3412 
Q 1013 4119 1484 4856 
L 1984 4856 
z
" transform="scale(0.015625)"/>
       <path id="DejaVuSans-68" d="M 3513 2113 
L 3513 0 
L 2938 0 
L 2938 2094 
Q 2938 2591 2744 2837 
Q 2550 3084 2163 3084 
Q 1697 3084 1428 2787 
Q 1159 2491 1159 1978 
L 1159 0 
L 581 0 
L 581 4863 
L 1159 4863 
L 1159 2956 
Q 1366 3272 1645 3428 
Q 1925 3584 2291 3584 
Q 2894 3584 3203 3211 
Q 3513 2838 3513 2113 
z
" transform="scale(0.015625)"/>
       <path id="DejaVuSans-70" d="M 1159 525 
L 1159 -1331 
L 581 -1331 
L 581 3500 
L 1159 3500 
L 1159 2969 
Q 1341 3281 1617 3432 
Q 1894 3584 2278 3584 
Q 2916 3584 3314 3078 
Q 3713 2572 3713 1747 
Q 3713 922 3314 415 
Q 2916 -91 2278 -91 
Q 1894 -91 1617 61 
Q 1341 213 1159 525 
z
M 3116 1747 
Q 3116 2381 2855 2742 
Q 2594 3103 2138 3103 
Q 1681 3103 1420 2742 
Q 1159 2381 1159 1747 
Q 1159 1113 1420 752 
Q 1681 391 2138 391 
Q 2594 391 2855 752 
Q 3116 1113 3116 1747 
z
" transform="scale(0.015625)"/>
       <path id="DejaVuSans-6b" d="M 581 4863 
L 1159 4863 
L 1159 1991 
L 2875 3500 
L 3609 3500 
L 1753 1863 
L 3688 0 
L 2938 0 
L 1159 1709 
L 1159 0 
L 581 0 
L 581 4863 
z
" transform="scale(0.015625)"/>
       <path id="DejaVuSans-6d" d="M 3328 2828 
Q 3544 3216 3844 3400 
Q 4144 3584 4550 3584 
Q 5097 3584 5394 3201 
Q 5691 2819 5691 2113 
L 5691 0 
L 5113 0 
L 5113 2094 
Q 5113 2597 4934 2840 
Q 4756 3084 4391 3084 
Q 3944 3084 3684 2787 
Q 3425 2491 3425 1978 
L 3425 0 
L 2847 0 
L 2847 2094 
Q 2847 2600 2669 2842 
Q 2491 3084 2119 3084 
Q 1678 3084 1418 2786 
Q 1159 2488 1159 1978 
L 1159 0 
L 581 0 
L 581 3500 
L 1159 3500 
L 1159 2956 
Q 1356 3278 1631 3431 
Q 1906 3584 2284 3584 
Q 2666 3584 2933 3390 
Q 3200 3197 3328 2828 
z
" transform="scale(0.015625)"/>
       <path id="DejaVuSans-b2" d="M 838 2444 
L 2163 2444 
L 2163 2088 
L 294 2088 
L 294 2431 
Q 400 2528 597 2703 
Q 1672 3656 1672 3950 
Q 1672 4156 1509 4282 
Q 1347 4409 1081 4409 
Q 919 4409 728 4354 
Q 538 4300 313 4191 
L 313 4575 
Q 553 4663 761 4706 
Q 969 4750 1147 4750 
Q 1600 4750 1872 4544 
Q 2144 4338 2144 4000 
Q 2144 3566 1109 2678 
Q 934 2528 838 2444 
z
" transform="scale(0.015625)"/>
       <path id="DejaVuSans-29" d="M 513 4856 
L 1013 4856 
Q 1481 4119 1714 3412 
Q 1947 2706 1947 2009 
Q 1947 1309 1714 600 
Q 1481 -109 1013 -844 
L 513 -844 
Q 928 -128 1133 580 
Q 1338 1288 1338 2009 
Q 1338 2731 1133 3434 
Q 928 4138 513 4856 
z
" transform="scale(0.015625)"/>
      </defs>
      <use xlink:href="#DejaVuSans-55"/>
      <use xlink:href="#DejaVuSans-72" x="73.193359"/>
      <use xlink:href="#DejaVuSans-62" x="114.306641"/>
      <use xlink:href="#DejaVuSans-61" x="177.783203"/>
      <use xlink:href="#DejaVuSans-6e" x="239.0625"/>
      <use xlink:href="#DejaVuSans-20" x="302.441406"/>
      <use xlink:href="#DejaVuSans-44" x="334.228516"/>
      <use xlink:href="#DejaVuSans-65" x="411.230469"/>
      <use xlink:href="#DejaVuSans-6e" x="472.753906"/>
      <use xlink:href="#DejaVuSans-73" x="536.132812"/>
      <use xlink:href="#DejaVuSans-69" x="588.232422"/>
      <use xlink:href="#DejaVuSans-74" x="616.015625"/>
      <use xlink:href="#DejaVuSans-79" x="655.224609"/>
      <use xlink:href="#DejaVuSans-20" x="714.404297"/>
      <use xlink:href="#DejaVuSans-28" x="746.191406"/>
      <use xlink:href="#DejaVuSans-69" x="785.205078"/>
      <use xlink:href="#DejaVuSans-6e" x="812.988281"/>
      <use xlink:href="#DejaVuSans-68" x="876.367188"/>
      <use xlink:href="#DejaVuSans-61" x="939.746094"/>
      <use xlink:href="#DejaVuSans-62" x="1001.025391"/>
      <use xlink:href="#DejaVuSans-69" x="1064.501953"/>
      <use xlink:href="#DejaVuSans-74" x="1092.285156"/>
      <use xlink:href="#DejaVuSans-61" x="1131.494141"/>
      <use xlink:href="#DejaVuSans-6e" x="1192.773438"/>
      <use xlink:href="#DejaVuSans-74" x="1256.152344"/>
      <use xlink:href="#DejaVuSans-73" x="1295.361328"/>
      <use xlink:href="#DejaVuSans-20" x="1347.460938"/>
      <use xlink:href="#DejaVuSans-70" x="1379.248047"/>
      <use xlink:href="#DejaVuSans-65" x="1442.724609"/>
      <use xlink:href="#DejaVuSans-72" x="1504.248047"/>
      <use xlink:href="#DejaVuSans-20" x="1545.361328"/>
      <use xlink:href="#DejaVuSans-31" x="1577.148438"/>
      <use xlink:href="#DejaVuSans-30" x="1640.771484"/>
      <use xlink:href="#DejaVuSans-20" x="1704.394531"/>
      <use xlink:href="#DejaVuSans-6b" x="1736.181641"/>
      <use xlink:href="#DejaVuSans-6d" x="1794.091797"/>
      <use xlink:href="#DejaVuSans-b2" x="1891.503906"/>
      <use xlink:href="#DejaVuSans-29" x="1931.591797"/>
     </g>
    </g>
   </g>
   <g id="matplotlib.axis_2">
    <g id="ytick_1">
     <g id="line2d_9">
      <defs>
       <path id="me9bed3005a" d="M 0 0 
L -3.5 0 
" style="stroke: #000000; stroke-width: 0.8"/>
      </defs>
      <g>
       <use xlink:href="#me9bed3005a" x="57.17" y="303.64" style="stroke: #000000; stroke-width: 0.8"/>
      </g>
     </g>
     <g id="text_10">
      <!-- 0 -->
      <g transform="translate(43.8075 307.439219)scale(0.1 -0.1)">
       <use xlink:href="#DejaVuSans-30"/>
      </g>
     </g>
    </g>
    <g id="ytick_2">
     <g id="line2d_10">
      <g>
       <use xlink:href="#me9bed3005a" x="57.17" y="243.876735" style="stroke: #000000; stroke-width: 0.8"/>
      </g>
     </g>
     <g id="text_11">
      <!-- 1000 -->
      <g transform="translate(24.72 247.675953)scale(0.1 -0.1)">
       <use xlink:href="#DejaVuSans-31"/>
       <use xlink:href="#DejaVuSans-30" x="63.623047"/>
       <use xlink:href="#DejaVuSans-30" x="127.246094"/>
       <use xlink:href="#DejaVuSans-30" x="190.869141"/>
      </g>
     </g>
    </g>
    <g id="ytick_3">
     <g id="line2d_11">
      <g>
       <use xlink:href="#me9bed3005a" x="57.17" y="184.113469" style="stroke: #000000; stroke-width: 0.8"/>
      </g>
     </g>
     <g id="text_12">
      <!-- 2000 -->
      <g transform="translate(24.72 187.912688)scale(0.1 -0.1)">
       <use xlink:href="#DejaVuSans-32"/>
       <use xlink:href="#DejaVuSans-30" x="63.623047"/>
       <use xlink:href="#DejaVuSans-30" x="127.246094"/>
       <use xlink:href="#DejaVuSans-30" x="190.869141"/>
      </g>
     </g>
    </g>
    <g id="ytick_4">
     <g id="line2d_12">
      <g>
       <use xlink:href="#me9bed3005a" x="57.17" y="124.350204" style="stroke: #000000; stroke-width: 0.8"/>
      </g>
     </g>
     <g id="text_13">
      <!-- 3000 -->
      <g transform="translate(24.72 128.149423)scale(0.1 -0.1)">
       <defs>
        <path id="DejaVuSans-33" d="M 2597 2516 
Q 3050 2419 3304 2112 
Q 3559 1806 3559 1356 
Q 3559 666 3084 287 
Q 2609 -91 1734 -91 
Q 1441 -91 1130 -33 
Q 819 25 488 141 
L 488 750 
Q 750 597 1062 519 
Q 1375 441 1716 441 
Q 2309 441 2620 675 
Q 2931 909 2931 1356 
Q 2931 1769 2642 2001 
Q 2353 2234 1838 2234 
L 1294 2234 
L 1294 2753 
L 1863 2753 
Q 2328 2753 2575 2939 
Q 2822 3125 2822 3475 
Q 2822 3834 2567 4026 
Q 2313 4219 1838 4219 
Q 1578 4219 1281 4162 
Q 984 4106 628 3988 
L 628 4550 
Q 988 4650 1302 4700 
Q 1616 4750 1894 4750 
Q 2613 4750 3031 4423 
Q 3450 4097 3450 3541 
Q 3450 3153 3228 2886 
Q 3006 2619 2597 2516 
z
" transform="scale(0.015625)"/>
       </defs>
       <use xlink:href="#DejaVuSans-33"/>
       <use xlink:href="#DejaVuSans-30" x="63.623047"/>
       <use xlink:href="#DejaVuSans-30" x="127.246094"/>
       <use xlink:href="#DejaVuSans-30" x="190.869141"/>
      </g>
     </g>
    </g>
    <g id="ytick_5">
     <g id="line2d_13">
      <g>
       <use xlink:href="#me9bed3005a" x="57.17" y="64.586939" style="stroke: #000000; stroke-width: 0.8"/>
      </g>
     </g>
     <g id="text_14">
      <!-- 4000 -->
      <g transform="translate(24.72 68.386158)scale(0.1 -0.1)">
       <use xlink:href="#DejaVuSans-34"/>
       <use xlink:href="#DejaVuSans-30" x="63.623047"/>
       <use xlink:href="#DejaVuSans-30" x="127.246094"/>
       <use xlink:href="#DejaVuSans-30" x="190.869141"/>
      </g>
     </g>
    </g>
    <g id="text_15">
     <!-- Number of Thefts -->
     <g transform="translate(18.640313 200.840313)rotate(-90)scale(0.1 -0.1)">
      <defs>
       <path id="DejaVuSans-4e" d="M 628 4666 
L 1478 4666 
L 3547 763 
L 3547 4666 
L 4159 4666 
L 4159 0 
L 3309 0 
L 1241 3903 
L 1241 0 
L 628 0 
L 628 4666 
z
" transform="scale(0.015625)"/>
       <path id="DejaVuSans-75" d="M 544 1381 
L 544 3500 
L 1119 3500 
L 1119 1403 
Q 1119 906 1312 657 
Q 1506 409 1894 409 
Q 2359 409 2629 706 
Q 2900 1003 2900 1516 
L 2900 3500 
L 3475 3500 
L 3475 0 
L 2900 0 
L 2900 538 
Q 2691 219 2414 64 
Q 2138 -91 1772 -91 
Q 1169 -91 856 284 
Q 544 659 544 1381 
z
M 1991 3584 
L 1991 3584 
z
" transform="scale(0.015625)"/>
       <path id="DejaVuSans-6f" d="M 1959 3097 
Q 1497 3097 1228 2736 
Q 959 2375 959 1747 
Q 959 1119 1226 758 
Q 1494 397 1959 397 
Q 2419 397 2687 759 
Q 2956 1122 2956 1747 
Q 2956 2369 2687 2733 
Q 2419 3097 1959 3097 
z
M 1959 3584 
Q 2709 3584 3137 3096 
Q 3566 2609 3566 1747 
Q 3566 888 3137 398 
Q 2709 -91 1959 -91 
Q 1206 -91 779 398 
Q 353 888 353 1747 
Q 353 2609 779 3096 
Q 1206 3584 1959 3584 
z
" transform="scale(0.015625)"/>
       <path id="DejaVuSans-66" d="M 2375 4863 
L 2375 4384 
L 1825 4384 
Q 1516 4384 1395 4259 
Q 1275 4134 1275 3809 
L 1275 3500 
L 2222 3500 
L 2222 3053 
L 1275 3053 
L 1275 0 
L 697 0 
L 697 3053 
L 147 3053 
L 147 3500 
L 697 3500 
L 697 3744 
Q 697 4328 969 4595 
Q 1241 4863 1831 4863 
L 2375 4863 
z
" transform="scale(0.015625)"/>
       <path id="DejaVuSans-54" d="M -19 4666 
L 3928 4666 
L 3928 4134 
L 2272 4134 
L 2272 0 
L 1638 0 
L 1638 4134 
L -19 4134 
L -19 4666 
z
" transform="scale(0.015625)"/>
      </defs>
      <use xlink:href="#DejaVuSans-4e"/>
      <use xlink:href="#DejaVuSans-75" x="74.804688"/>
      <use xlink:href="#DejaVuSans-6d" x="138.183594"/>
      <use xlink:href="#DejaVuSans-62" x="235.595703"/>
      <use xlink:href="#DejaVuSans-65" x="299.072266"/>
      <use xlink:href="#DejaVuSans-72" x="360.595703"/>
      <use xlink:href="#DejaVuSans-20" x="401.708984"/>
      <use xlink:href="#DejaVuSans-6f" x="433.496094"/>
      <use xlink:href="#DejaVuSans-66" x="494.677734"/>
      <use xlink:href="#DejaVuSans-20" x="529.882812"/>
      <use xlink:href="#DejaVuSans-54" x="561.669922"/>
      <use xlink:href="#DejaVuSans-68" x="622.753906"/>
      <use xlink:href="#DejaVuSans-65" x="686.132812"/>
      <use xlink:href="#DejaVuSans-66" x="747.65625"/>
      <use xlink:href="#DejaVuSans-74" x="781.111328"/>
      <use xlink:href="#DejaVuSans-73" x="820.320312"/>
     </g>
    </g>
   </g>
   <g id="line2d_14">
    <path d="M 57.17 278.591333 
L 65.186939 277.87439 
L 73.203878 277.157447 
L 81.220816 276.440504 
L 89.237755 275.723561 
L 97.254694 275.006618 
L 105.271633 274.289675 
L 113.288571 273.572732 
L 121.30551 272.855789 
L 129.322449 272.138846 
L 137.339388 271.421903 
L 145.356327 270.70496 
L 153.373265 269.988017 
L 161.390204 269.271074 
L 169.407143 268.554131 
L 177.424082 267.837188 
L 185.44102 267.120245 
L 193.457959 266.403302 
L 201.474898 265.686359 
L 209.491837 264.969416 
L 217.508776 264.252473 
L 225.525714 263.53553 
L 233.542653 262.818587 
L 241.559592 262.101644 
L 249.576531 261.384701 
L 257.593469 260.667758 
L 265.610408 259.950815 
L 273.627347 259.233872 
L 281.644286 258.516929 
L 289.661224 257.799986 
L 297.678163 257.083043 
L 305.695102 256.3661 
L 313.712041 255.649157 
L 321.72898 254.932214 
L 329.745918 254.215271 
L 337.762857 253.498328 
L 345.779796 252.781385 
L 353.796735 252.064442 
L 361.813673 251.347499 
L 369.830612 250.630556 
L 377.847551 249.913613 
L 385.86449 249.19667 
L 393.881429 248.479727 
L 401.898367 247.762784 
L 409.915306 247.045841 
L 417.932245 246.328898 
L 425.949184 245.611955 
L 433.966122 244.895012 
L 441.983061 244.178069 
L 450 243.461126 
" clip-path="url(#p361d208d6f)" style="fill: none; stroke: #d70000; stroke-width: 1.5; stroke-linecap: square"/>
   </g>
   <g id="line2d_15">
    <path d="M 57.17 243.858925 
L 65.186939 242.08379 
L 73.203878 240.308656 
L 81.220816 238.533521 
L 89.237755 236.758387 
L 97.254694 234.983252 
L 105.271633 233.208117 
L 113.288571 231.432983 
L 121.30551 229.657848 
L 129.322449 227.882714 
L 137.339388 226.107579 
L 145.356327 224.332445 
L 153.373265 222.55731 
L 161.390204 220.782175 
L 169.407143 219.007041 
L 177.424082 217.231906 
L 185.44102 215.456772 
L 193.457959 213.681637 
L 201.474898 211.906502 
L 209.491837 210.131368 
L 217.508776 208.356233 
L 225.525714 206.581099 
L 233.542653 204.805964 
L 241.559592 203.03083 
L 249.576531 201.255695 
L 257.593469 199.48056 
L 265.610408 197.705426 
L 273.627347 195.930291 
L 281.644286 194.155157 
L 289.661224 192.380022 
L 297.678163 190.604888 
L 305.695102 188.829753 
L 313.712041 187.054618 
L 321.72898 185.279484 
L 329.745918 183.504349 
L 337.762857 181.729215 
L 345.779796 179.95408 
L 353.796735 178.178946 
L 361.813673 176.403811 
L 369.830612 174.628676 
L 377.847551 172.853542 
L 385.86449 171.078407 
L 393.881429 169.303273 
L 401.898367 167.528138 
L 409.915306 165.753004 
L 417.932245 163.977869 
L 425.949184 162.202734 
L 433.966122 160.4276 
L 441.983061 158.652465 
L 450 156.877331 
" clip-path="url(#p361d208d6f)" style="fill: none; stroke: #8c3cff; stroke-width: 1.5; stroke-linecap: square"/>
   </g>
   <g id="line2d_16">
    <path d="M 57.17 287.070474 
L 65.186939 286.133145 
L 73.203878 285.195817 
L 81.220816 284.258489 
L 89.237755 283.321161 
L 97.254694 282.383833 
L 105.271633 281.446504 
L 113.288571 280.509176 
L 121.30551 279.571848 
L 129.322449 278.63452 
L 137.339388 277.697191 
L 145.356327 276.759863 
L 153.373265 275.822535 
L 161.390204 274.885207 
L 169.407143 273.947879 
L 177.424082 273.01055 
L 185.44102 272.073222 
L 193.457959 271.135894 
L 201.474898 270.198566 
L 209.491837 269.261237 
L 217.508776 268.323909 
L 225.525714 267.386581 
L 233.542653 266.449253 
L 241.559592 265.511925 
L 249.576531 264.574596 
L 257.593469 263.637268 
L 265.610408 262.69994 
L 273.627347 261.762612 
L 281.644286 260.825283 
L 289.661224 259.887955 
L 297.678163 258.950627 
L 305.695102 258.013299 
L 313.712041 257.075971 
L 321.72898 256.138642 
L 329.745918 255.201314 
L 337.762857 254.263986 
L 345.779796 253.326658 
L 353.796735 252.389329 
L 361.813673 251.452001 
L 369.830612 250.514673 
L 377.847551 249.577345 
L 385.86449 248.640017 
L 393.881429 247.702688 
L 401.898367 246.76536 
L 409.915306 245.828032 
L 417.932245 244.890704 
L 425.949184 243.953375 
L 433.966122 243.016047 
L 441.983061 242.078719 
L 450 241.141391 
" clip-path="url(#p361d208d6f)" style="fill: none; stroke: #028800; stroke-width: 1.5; stroke-linecap: square"/>
   </g>
   <g id="line2d_17">
    <path d="M 57.17 279.725562 
L 65.186939 278.892384 
L 73.203878 278.059206 
L 81.220816 277.226028 
L 89.237755 276.392851 
L 97.254694 275.559673 
L 105.271633 274.726495 
L 113.288571 273.893317 
L 121.30551 273.060139 
L 129.322449 272.226961 
L 137.339388 271.393783 
L 145.356327 270.560605 
L 153.373265 269.727428 
L 161.390204 268.89425 
L 169.407143 268.061072 
L 177.424082 267.227894 
L 185.44102 266.394716 
L 193.457959 265.561538 
L 201.474898 264.72836 
L 209.491837 263.895182 
L 217.508776 263.062005 
L 225.525714 262.228827 
L 233.542653 261.395649 
L 241.559592 260.562471 
L 249.576531 259.729293 
L 257.593469 258.896115 
L 265.610408 258.062937 
L 273.627347 257.229759 
L 281.644286 256.396582 
L 289.661224 255.563404 
L 297.678163 254.730226 
L 305.695102 253.897048 
L 313.712041 253.06387 
L 321.72898 252.230692 
L 329.745918 251.397514 
L 337.762857 250.564336 
L 345.779796 249.731159 
L 353.796735 248.897981 
L 361.813673 248.064803 
L 369.830612 247.231625 
L 377.847551 246.398447 
L 385.86449 245.565269 
L 393.881429 244.732091 
L 401.898367 243.898914 
L 409.915306 243.065736 
L 417.932245 242.232558 
L 425.949184 241.39938 
L 433.966122 240.566202 
L 441.983061 239.733024 
L 450 238.899846 
" clip-path="url(#p361d208d6f)" style="fill: none; stroke: #98ff00; stroke-width: 1.5; stroke-linecap: square"/>
   </g>
   <g id="line2d_18">
    <path d="M 57.17 248.830846 
L 65.186939 248.34272 
L 73.203878 247.854593 
L 81.220816 247.366467 
L 89.237755 246.878341 
L 97.254694 246.390214 
L 105.271633 245.902088 
L 113.288571 245.413962 
L 121.30551 244.925835 
L 129.322449 244.437709 
L 137.339388 243.949583 
L 145.356327 243.461456 
L 153.373265 242.97333 
L 161.390204 242.485203 
L 169.407143 241.997077 
L 177.424082 241.508951 
L 185.44102 241.020824 
L 193.457959 240.532698 
L 201.474898 240.044572 
L 209.491837 239.556445 
L 217.508776 239.068319 
L 225.525714 238.580193 
L 233.542653 238.092066 
L 241.559592 237.60394 
L 249.576531 237.115814 
L 257.593469 236.627687 
L 265.610408 236.139561 
L 273.627347 235.651434 
L 281.644286 235.163308 
L 289.661224 234.675182 
L 297.678163 234.187055 
L 305.695102 233.698929 
L 313.712041 233.210803 
L 321.72898 232.722676 
L 329.745918 232.23455 
L 337.762857 231.746424 
L 345.779796 231.258297 
L 353.796735 230.770171 
L 361.813673 230.282045 
L 369.830612 229.793918 
L 377.847551 229.305792 
L 385.86449 228.817665 
L 393.881429 228.329539 
L 401.898367 227.841413 
L 409.915306 227.353286 
L 417.932245 226.86516 
L 425.949184 226.377034 
L 433.966122 225.888907 
L 441.983061 225.400781 
L 450 224.912655 
" clip-path="url(#p361d208d6f)" style="fill: none; stroke: #ff7fd1; stroke-width: 1.5; stroke-linecap: square"/>
   </g>
   <g id="line2d_19">
    <path d="M 57.17 291.925215 
L 65.186939 291.39727 
L 73.203878 290.869325 
L 81.220816 290.34138 
L 89.237755 289.813436 
L 97.254694 289.285491 
L 105.271633 288.757546 
L 113.288571 288.229601 
L 121.30551 287.701656 
L 129.322449 287.173712 
L 137.339388 286.645767 
L 145.356327 286.117822 
L 153.373265 285.589877 
L 161.390204 285.061933 
L 169.407143 284.533988 
L 177.424082 284.006043 
L 185.44102 283.478098 
L 193.457959 282.950154 
L 201.474898 282.422209 
L 209.491837 281.894264 
L 217.508776 281.366319 
L 225.525714 280.838375 
L 233.542653 280.31043 
L 241.559592 279.782485 
L 249.576531 279.25454 
L 257.593469 278.726595 
L 265.610408 278.198651 
L 273.627347 277.670706 
L 281.644286 277.142761 
L 289.661224 276.614816 
L 297.678163 276.086872 
L 305.695102 275.558927 
L 313.712041 275.030982 
L 321.72898 274.503037 
L 329.745918 273.975093 
L 337.762857 273.447148 
L 345.779796 272.919203 
L 353.796735 272.391258 
L 361.813673 271.863314 
L 369.830612 271.335369 
L 377.847551 270.807424 
L 385.86449 270.279479 
L 393.881429 269.751534 
L 401.898367 269.22359 
L 409.915306 268.695645 
L 417.932245 268.1677 
L 425.949184 267.639755 
L 433.966122 267.111811 
L 441.983061 266.583866 
L 450 266.055921 
" clip-path="url(#p361d208d6f)" style="fill: none; stroke: #6c004f; stroke-width: 1.5; stroke-linecap: square"/>
   </g>
   <g id="line2d_20">
    <path d="M 57.17 196.761451 
L 65.186939 194.017439 
L 73.203878 191.273426 
L 81.220816 188.529414 
L 89.237755 185.785402 
L 97.254694 183.041389 
L 105.271633 180.297377 
L 113.288571 177.553364 
L 121.30551 174.809352 
L 129.322449 172.065339 
L 137.339388 169.321327 
L 145.356327 166.577315 
L 153.373265 163.833302 
L 161.390204 161.08929 
L 169.407143 158.345277 
L 177.424082 155.601265 
L 185.44102 152.857252 
L 193.457959 150.11324 
L 201.474898 147.369228 
L 209.491837 144.625215 
L 217.508776 141.881203 
L 225.525714 139.13719 
L 233.542653 136.393178 
L 241.559592 133.649165 
L 249.576531 130.905153 
L 257.593469 128.161141 
L 265.610408 125.417128 
L 273.627347 122.673116 
L 281.644286 119.929103 
L 289.661224 117.185091 
L 297.678163 114.441078 
L 305.695102 111.697066 
L 313.712041 108.953054 
L 321.72898 106.209041 
L 329.745918 103.465029 
L 337.762857 100.721016 
L 345.779796 97.977004 
L 353.796735 95.232991 
L 361.813673 92.488979 
L 369.830612 89.744967 
L 377.847551 87.000954 
L 385.86449 84.256942 
L 393.881429 81.512929 
L 401.898367 78.768917 
L 409.915306 76.024904 
L 417.932245 73.280892 
L 425.949184 70.53688 
L 433.966122 67.792867 
L 441.983061 65.048855 
L 450 62.304842 
" clip-path="url(#p361d208d6f)" style="fill: none; stroke: #583b00; stroke-width: 1.5; stroke-linecap: square"/>
   </g>
   <g id="line2d_21">
    <path d="M 57.17 298.726884 
L 65.186939 297.19326 
L 73.203878 295.659636 
L 81.220816 294.126012 
L 89.237755 292.592388 
L 97.254694 291.058764 
L 105.271633 289.52514 
L 113.288571 287.991516 
L 121.30551 286.457891 
L 129.322449 284.924267 
L 137.339388 283.390643 
L 145.356327 281.857019 
L 153.373265 280.323395 
L 161.390204 278.789771 
L 169.407143 277.256147 
L 177.424082 275.722523 
L 185.44102 274.188899 
L 193.457959 272.655275 
L 201.474898 271.121651 
L 209.491837 269.588027 
L 217.508776 268.054402 
L 225.525714 266.520778 
L 233.542653 264.987154 
L 241.559592 263.45353 
L 249.576531 261.919906 
L 257.593469 260.386282 
L 265.610408 258.852658 
L 273.627347 257.319034 
L 281.644286 255.78541 
L 289.661224 254.251786 
L 297.678163 252.718162 
L 305.695102 251.184538 
L 313.712041 249.650914 
L 321.72898 248.117289 
L 329.745918 246.583665 
L 337.762857 245.050041 
L 345.779796 243.516417 
L 353.796735 241.982793 
L 361.813673 240.449169 
L 369.830612 238.915545 
L 377.847551 237.381921 
L 385.86449 235.848297 
L 393.881429 234.314673 
L 401.898367 232.781049 
L 409.915306 231.247425 
L 417.932245 229.7138 
L 425.949184 228.180176 
L 433.966122 226.646552 
L 441.983061 225.112928 
L 450 223.579304 
" clip-path="url(#p361d208d6f)" style="fill: none; stroke: #005759; stroke-width: 1.5; stroke-linecap: square"/>
   </g>
   <g id="line2d_22">
    <path d="M 57.17 269.760307 
L 65.186939 268.620211 
L 73.203878 267.480114 
L 81.220816 266.340018 
L 89.237755 265.199922 
L 97.254694 264.059826 
L 105.271633 262.91973 
L 113.288571 261.779634 
L 121.30551 260.639538 
L 129.322449 259.499442 
L 137.339388 258.359346 
L 145.356327 257.219249 
L 153.373265 256.079153 
L 161.390204 254.939057 
L 169.407143 253.798961 
L 177.424082 252.658865 
L 185.44102 251.518769 
L 193.457959 250.378673 
L 201.474898 249.238577 
L 209.491837 248.098481 
L 217.508776 246.958385 
L 225.525714 245.818288 
L 233.542653 244.678192 
L 241.559592 243.538096 
L 249.576531 242.398 
L 257.593469 241.257904 
L 265.610408 240.117808 
L 273.627347 238.977712 
L 281.644286 237.837616 
L 289.661224 236.69752 
L 297.678163 235.557423 
L 305.695102 234.417327 
L 313.712041 233.277231 
L 321.72898 232.137135 
L 329.745918 230.997039 
L 337.762857 229.856943 
L 345.779796 228.716847 
L 353.796735 227.576751 
L 361.813673 226.436655 
L 369.830612 225.296558 
L 377.847551 224.156462 
L 385.86449 223.016366 
L 393.881429 221.87627 
L 401.898367 220.736174 
L 409.915306 219.596078 
L 417.932245 218.455982 
L 425.949184 217.315886 
L 433.966122 216.17579 
L 441.983061 215.035693 
L 450 213.895597 
" clip-path="url(#p361d208d6f)" style="fill: none; stroke: #0000dd; stroke-width: 1.5; stroke-linecap: square"/>
   </g>
   <g id="line2d_23">
    <path d="M 57.17 283.463795 
L 65.186939 282.312322 
L 73.203878 281.16085 
L 81.220816 280.009377 
L 89.237755 278.857904 
L 97.254694 277.706431 
L 105.271633 276.554959 
L 113.288571 275.403486 
L 121.30551 274.252013 
L 129.322449 273.100541 
L 137.339388 271.949068 
L 145.356327 270.797595 
L 153.373265 269.646122 
L 161.390204 268.49465 
L 169.407143 267.343177 
L 177.424082 266.191704 
L 185.44102 265.040231 
L 193.457959 263.888759 
L 201.474898 262.737286 
L 209.491837 261.585813 
L 217.508776 260.434341 
L 225.525714 259.282868 
L 233.542653 258.131395 
L 241.559592 256.979922 
L 249.576531 255.82845 
L 257.593469 254.676977 
L 265.610408 253.525504 
L 273.627347 252.374032 
L 281.644286 251.222559 
L 289.661224 250.071086 
L 297.678163 248.919613 
L 305.695102 247.768141 
L 313.712041 246.616668 
L 321.72898 245.465195 
L 329.745918 244.313722 
L 337.762857 243.16225 
L 345.779796 242.010777 
L 353.796735 240.859304 
L 361.813673 239.707832 
L 369.830612 238.556359 
L 377.847551 237.404886 
L 385.86449 236.253413 
L 393.881429 235.101941 
L 401.898367 233.950468 
L 409.915306 232.798995 
L 417.932245 231.647523 
L 425.949184 230.49605 
L 433.966122 229.344577 
L 441.983061 228.193104 
L 450 227.041632 
" clip-path="url(#p361d208d6f)" style="fill: none; stroke: #bcb7ff; stroke-width: 1.5; stroke-linecap: square"/>
   </g>
   <g id="line2d_24">
    <path d="M 57.17 264.625642 
L 65.186939 261.536873 
L 73.203878 258.448104 
L 81.220816 255.359336 
L 89.237755 252.270567 
L 97.254694 249.181799 
L 105.271633 246.09303 
L 113.288571 243.004261 
L 121.30551 239.915493 
L 129.322449 236.826724 
L 137.339388 233.737955 
L 145.356327 230.649187 
L 153.373265 227.560418 
L 161.390204 224.471649 
L 169.407143 221.382881 
L 177.424082 218.294112 
L 185.44102 215.205344 
L 193.457959 212.116575 
L 201.474898 209.027806 
L 209.491837 205.939038 
L 217.508776 202.850269 
L 225.525714 199.7615 
L 233.542653 196.672732 
L 241.559592 193.583963 
L 249.576531 190.495194 
L 257.593469 187.406426 
L 265.610408 184.317657 
L 273.627347 181.228889 
L 281.644286 178.14012 
L 289.661224 175.051351 
L 297.678163 171.962583 
L 305.695102 168.873814 
L 313.712041 165.785045 
L 321.72898 162.696277 
L 329.745918 159.607508 
L 337.762857 156.518739 
L 345.779796 153.429971 
L 353.796735 150.341202 
L 361.813673 147.252434 
L 369.830612 144.163665 
L 377.847551 141.074896 
L 385.86449 137.986128 
L 393.881429 134.897359 
L 401.898367 131.80859 
L 409.915306 128.719822 
L 417.932245 125.631053 
L 425.949184 122.542284 
L 433.966122 119.453516 
L 441.983061 116.364747 
L 450 113.275979 
" clip-path="url(#p361d208d6f)" style="fill: none; stroke: #95b578; stroke-width: 1.5; stroke-linecap: square"/>
   </g>
   <g id="line2d_25">
    <path d="M 57.17 279.297689 
L 65.186939 278.16613 
L 73.203878 277.034571 
L 81.220816 275.903012 
L 89.237755 274.771454 
L 97.254694 273.639895 
L 105.271633 272.508336 
L 113.288571 271.376777 
L 121.30551 270.245218 
L 129.322449 269.11366 
L 137.339388 267.982101 
L 145.356327 266.850542 
L 153.373265 265.718983 
L 161.390204 264.587425 
L 169.407143 263.455866 
L 177.424082 262.324307 
L 185.44102 261.192748 
L 193.457959 260.061189 
L 201.474898 258.929631 
L 209.491837 257.798072 
L 217.508776 256.666513 
L 225.525714 255.534954 
L 233.542653 254.403395 
L 241.559592 253.271837 
L 249.576531 252.140278 
L 257.593469 251.008719 
L 265.610408 249.87716 
L 273.627347 248.745601 
L 281.644286 247.614043 
L 289.661224 246.482484 
L 297.678163 245.350925 
L 305.695102 244.219366 
L 313.712041 243.087808 
L 321.72898 241.956249 
L 329.745918 240.82469 
L 337.762857 239.693131 
L 345.779796 238.561572 
L 353.796735 237.430014 
L 361.813673 236.298455 
L 369.830612 235.166896 
L 377.847551 234.035337 
L 385.86449 232.903778 
L 393.881429 231.77222 
L 401.898367 230.640661 
L 409.915306 229.509102 
L 417.932245 228.377543 
L 425.949184 227.245985 
L 433.966122 226.114426 
L 441.983061 224.982867 
L 450 223.851308 
" clip-path="url(#p361d208d6f)" style="fill: none; stroke: #c004b9; stroke-width: 1.5; stroke-linecap: square"/>
   </g>
   <g id="line2d_26">
    <path d="M 57.17 273.808797 
L 65.186939 272.663344 
L 73.203878 271.517891 
L 81.220816 270.372438 
L 89.237755 269.226984 
L 97.254694 268.081531 
L 105.271633 266.936078 
L 113.288571 265.790625 
L 121.30551 264.645172 
L 129.322449 263.499719 
L 137.339388 262.354266 
L 145.356327 261.208813 
L 153.373265 260.063359 
L 161.390204 258.917906 
L 169.407143 257.772453 
L 177.424082 256.627 
L 185.44102 255.481547 
L 193.457959 254.336094 
L 201.474898 253.190641 
L 209.491837 252.045187 
L 217.508776 250.899734 
L 225.525714 249.754281 
L 233.542653 248.608828 
L 241.559592 247.463375 
L 249.576531 246.317922 
L 257.593469 245.172469 
L 265.610408 244.027016 
L 273.627347 242.881562 
L 281.644286 241.736109 
L 289.661224 240.590656 
L 297.678163 239.445203 
L 305.695102 238.29975 
L 313.712041 237.154297 
L 321.72898 236.008844 
L 329.745918 234.86339 
L 337.762857 233.717937 
L 345.779796 232.572484 
L 353.796735 231.427031 
L 361.813673 230.281578 
L 369.830612 229.136125 
L 377.847551 227.990672 
L 385.86449 226.845219 
L 393.881429 225.699765 
L 401.898367 224.554312 
L 409.915306 223.408859 
L 417.932245 222.263406 
L 425.949184 221.117953 
L 433.966122 219.9725 
L 441.983061 218.827047 
L 450 217.681593 
" clip-path="url(#p361d208d6f)" style="fill: none; stroke: #790000; stroke-width: 1.5; stroke-linecap: square"/>
   </g>
   <g id="line2d_27">
    <path d="M 57.17 284.941868 
L 65.186939 284.472271 
L 73.203878 284.002675 
L 81.220816 283.533078 
L 89.237755 283.063482 
L 97.254694 282.593885 
L 105.271633 282.124289 
L 113.288571 281.654692 
L 121.30551 281.185095 
L 129.322449 280.715499 
L 137.339388 280.245902 
L 145.356327 279.776306 
L 153.373265 279.306709 
L 161.390204 278.837113 
L 169.407143 278.367516 
L 177.424082 277.897919 
L 185.44102 277.428323 
L 193.457959 276.958726 
L 201.474898 276.48913 
L 209.491837 276.019533 
L 217.508776 275.549937 
L 225.525714 275.08034 
L 233.542653 274.610744 
L 241.559592 274.141147 
L 249.576531 273.67155 
L 257.593469 273.201954 
L 265.610408 272.732357 
L 273.627347 272.262761 
L 281.644286 271.793164 
L 289.661224 271.323568 
L 297.678163 270.853971 
L 305.695102 270.384375 
L 313.712041 269.914778 
L 321.72898 269.445181 
L 329.745918 268.975585 
L 337.762857 268.505988 
L 345.779796 268.036392 
L 353.796735 267.566795 
L 361.813673 267.097199 
L 369.830612 266.627602 
L 377.847551 266.158005 
L 385.86449 265.688409 
L 393.881429 265.218812 
L 401.898367 264.749216 
L 409.915306 264.279619 
L 417.932245 263.810023 
L 425.949184 263.340426 
L 433.966122 262.87083 
L 441.983061 262.401233 
L 450 261.931636 
" clip-path="url(#p361d208d6f)" style="fill: none; stroke: #0774d8; stroke-width: 1.5; stroke-linecap: square"/>
   </g>
   <g id="line2d_28">
    <path d="M 57.17 245.583105 
L 65.186939 244.57056 
L 73.203878 243.558015 
L 81.220816 242.545469 
L 89.237755 241.532924 
L 97.254694 240.520379 
L 105.271633 239.507834 
L 113.288571 238.495288 
L 121.30551 237.482743 
L 129.322449 236.470198 
L 137.339388 235.457653 
L 145.356327 234.445108 
L 153.373265 233.432562 
L 161.390204 232.420017 
L 169.407143 231.407472 
L 177.424082 230.394927 
L 185.44102 229.382381 
L 193.457959 228.369836 
L 201.474898 227.357291 
L 209.491837 226.344746 
L 217.508776 225.3322 
L 225.525714 224.319655 
L 233.542653 223.30711 
L 241.559592 222.294565 
L 249.576531 221.282019 
L 257.593469 220.269474 
L 265.610408 219.256929 
L 273.627347 218.244384 
L 281.644286 217.231839 
L 289.661224 216.219293 
L 297.678163 215.206748 
L 305.695102 214.194203 
L 313.712041 213.181658 
L 321.72898 212.169112 
L 329.745918 211.156567 
L 337.762857 210.144022 
L 345.779796 209.131477 
L 353.796735 208.118931 
L 361.813673 207.106386 
L 369.830612 206.093841 
L 377.847551 205.081296 
L 385.86449 204.068751 
L 393.881429 203.056205 
L 401.898367 202.04366 
L 409.915306 201.031115 
L 417.932245 200.01857 
L 425.949184 199.006024 
L 433.966122 197.993479 
L 441.983061 196.980934 
L 450 195.968389 
" clip-path="url(#p361d208d6f)" style="fill: none; stroke: #fef590; stroke-width: 1.5; stroke-linecap: square"/>
   </g>
   <g id="line2d_29">
    <path d="M 57.17 259.37715 
L 65.186939 259.255819 
L 73.203878 259.134487 
L 81.220816 259.013156 
L 89.237755 258.891824 
L 97.254694 258.770493 
L 105.271633 258.649161 
L 113.288571 258.52783 
L 121.30551 258.406498 
L 129.322449 258.285167 
L 137.339388 258.163835 
L 145.356327 258.042504 
L 153.373265 257.921172 
L 161.390204 257.799841 
L 169.407143 257.678509 
L 177.424082 257.557178 
L 185.44102 257.435846 
L 193.457959 257.314515 
L 201.474898 257.193183 
L 209.491837 257.071852 
L 217.508776 256.95052 
L 225.525714 256.829189 
L 233.542653 256.707857 
L 241.559592 256.586526 
L 249.576531 256.465194 
L 257.593469 256.343863 
L 265.610408 256.222531 
L 273.627347 256.1012 
L 281.644286 255.979868 
L 289.661224 255.858537 
L 297.678163 255.737205 
L 305.695102 255.615874 
L 313.712041 255.494542 
L 321.72898 255.373211 
L 329.745918 255.251879 
L 337.762857 255.130548 
L 345.779796 255.009216 
L 353.796735 254.887885 
L 361.813673 254.766553 
L 369.830612 254.645222 
L 377.847551 254.52389 
L 385.86449 254.402559 
L 393.881429 254.281227 
L 401.898367 254.159896 
L 409.915306 254.038564 
L 417.932245 253.917233 
L 425.949184 253.795901 
L 433.966122 253.67457 
L 441.983061 253.553238 
L 450 253.431907 
" clip-path="url(#p361d208d6f)" style="fill: none; stroke: #004b00; stroke-width: 1.5; stroke-linecap: square"/>
   </g>
   <g id="line2d_30">
    <path d="M 57.17 267.997153 
L 65.186939 265.730493 
L 73.203878 263.463833 
L 81.220816 261.197173 
L 89.237755 258.930514 
L 97.254694 256.663854 
L 105.271633 254.397194 
L 113.288571 252.130534 
L 121.30551 249.863874 
L 129.322449 247.597215 
L 137.339388 245.330555 
L 145.356327 243.063895 
L 153.373265 240.797235 
L 161.390204 238.530576 
L 169.407143 236.263916 
L 177.424082 233.997256 
L 185.44102 231.730596 
L 193.457959 229.463937 
L 201.474898 227.197277 
L 209.491837 224.930617 
L 217.508776 222.663957 
L 225.525714 220.397297 
L 233.542653 218.130638 
L 241.559592 215.863978 
L 249.576531 213.597318 
L 257.593469 211.330658 
L 265.610408 209.063999 
L 273.627347 206.797339 
L 281.644286 204.530679 
L 289.661224 202.264019 
L 297.678163 199.99736 
L 305.695102 197.7307 
L 313.712041 195.46404 
L 321.72898 193.19738 
L 329.745918 190.93072 
L 337.762857 188.664061 
L 345.779796 186.397401 
L 353.796735 184.130741 
L 361.813673 181.864081 
L 369.830612 179.597422 
L 377.847551 177.330762 
L 385.86449 175.064102 
L 393.881429 172.797442 
L 401.898367 170.530783 
L 409.915306 168.264123 
L 417.932245 165.997463 
L 425.949184 163.730803 
L 433.966122 161.464143 
L 441.983061 159.197484 
L 450 156.930824 
" clip-path="url(#p361d208d6f)" style="fill: none; stroke: #8f7a00; stroke-width: 1.5; stroke-linecap: square"/>
   </g>
   <g id="line2d_31">
    <path d="M 57.17 289.492985 
L 65.186939 288.962237 
L 73.203878 288.431488 
L 81.220816 287.900739 
L 89.237755 287.36999 
L 97.254694 286.839242 
L 105.271633 286.308493 
L 113.288571 285.777744 
L 121.30551 285.246995 
L 129.322449 284.716246 
L 137.339388 284.185498 
L 145.356327 283.654749 
L 153.373265 283.124 
L 161.390204 282.593251 
L 169.407143 282.062503 
L 177.424082 281.531754 
L 185.44102 281.001005 
L 193.457959 280.470256 
L 201.474898 279.939508 
L 209.491837 279.408759 
L 217.508776 278.87801 
L 225.525714 278.347261 
L 233.542653 277.816512 
L 241.559592 277.285764 
L 249.576531 276.755015 
L 257.593469 276.224266 
L 265.610408 275.693517 
L 273.627347 275.162769 
L 281.644286 274.63202 
L 289.661224 274.101271 
L 297.678163 273.570522 
L 305.695102 273.039773 
L 313.712041 272.509025 
L 321.72898 271.978276 
L 329.745918 271.447527 
L 337.762857 270.916778 
L 345.779796 270.38603 
L 353.796735 269.855281 
L 361.813673 269.324532 
L 369.830612 268.793783 
L 377.847551 268.263035 
L 385.86449 267.732286 
L 393.881429 267.201537 
L 401.898367 266.670788 
L 409.915306 266.140039 
L 417.932245 265.609291 
L 425.949184 265.078542 
L 433.966122 264.547793 
L 441.983061 264.017044 
L 450 263.486296 
" clip-path="url(#p361d208d6f)" style="fill: none; stroke: #ff7266; stroke-width: 1.5; stroke-linecap: square"/>
   </g>
   <g id="line2d_32">
    <path d="M 57.17 150.657829 
L 65.186939 148.720488 
L 73.203878 146.783146 
L 81.220816 144.845805 
L 89.237755 142.908463 
L 97.254694 140.971122 
L 105.271633 139.03378 
L 113.288571 137.096438 
L 121.30551 135.159097 
L 129.322449 133.221755 
L 137.339388 131.284414 
L 145.356327 129.347072 
L 153.373265 127.409731 
L 161.390204 125.472389 
L 169.407143 123.535048 
L 177.424082 121.597706 
L 185.44102 119.660365 
L 193.457959 117.723023 
L 201.474898 115.785682 
L 209.491837 113.84834 
L 217.508776 111.910998 
L 225.525714 109.973657 
L 233.542653 108.036315 
L 241.559592 106.098974 
L 249.576531 104.161632 
L 257.593469 102.224291 
L 265.610408 100.286949 
L 273.627347 98.349608 
L 281.644286 96.412266 
L 289.661224 94.474925 
L 297.678163 92.537583 
L 305.695102 90.600241 
L 313.712041 88.6629 
L 321.72898 86.725558 
L 329.745918 84.788217 
L 337.762857 82.850875 
L 345.779796 80.913534 
L 353.796735 78.976192 
L 361.813673 77.038851 
L 369.830612 75.101509 
L 377.847551 73.164168 
L 385.86449 71.226826 
L 393.881429 69.289485 
L 401.898367 67.352143 
L 409.915306 65.414801 
L 417.932245 63.47746 
L 425.949184 61.540118 
L 433.966122 59.602777 
L 441.983061 57.665435 
L 450 55.728094 
" clip-path="url(#p361d208d6f)" style="fill: none; stroke: #eeb9b9; stroke-width: 1.5; stroke-linecap: square"/>
   </g>
   <g id="line2d_33">
    <path d="M 57.17 289.135982 
L 65.186939 288.22687 
L 73.203878 287.317757 
L 81.220816 286.408644 
L 89.237755 285.499532 
L 97.254694 284.590419 
L 105.271633 283.681307 
L 113.288571 282.772194 
L 121.30551 281.863082 
L 129.322449 280.953969 
L 137.339388 280.044857 
L 145.356327 279.135744 
L 153.373265 278.226632 
L 161.390204 277.317519 
L 169.407143 276.408407 
L 177.424082 275.499294 
L 185.44102 274.590182 
L 193.457959 273.681069 
L 201.474898 272.771957 
L 209.491837 271.862844 
L 217.508776 270.953732 
L 225.525714 270.044619 
L 233.542653 269.135507 
L 241.559592 268.226394 
L 249.576531 267.317282 
L 257.593469 266.408169 
L 265.610408 265.499057 
L 273.627347 264.589944 
L 281.644286 263.680832 
L 289.661224 262.771719 
L 297.678163 261.862607 
L 305.695102 260.953494 
L 313.712041 260.044382 
L 321.72898 259.135269 
L 329.745918 258.226157 
L 337.762857 257.317044 
L 345.779796 256.407932 
L 353.796735 255.498819 
L 361.813673 254.589707 
L 369.830612 253.680594 
L 377.847551 252.771482 
L 385.86449 251.862369 
L 393.881429 250.953257 
L 401.898367 250.044144 
L 409.915306 249.135032 
L 417.932245 248.225919 
L 425.949184 247.316807 
L 433.966122 246.407694 
L 441.983061 245.498582 
L 450 244.589469 
" clip-path="url(#p361d208d6f)" style="fill: none; stroke: #5e7e66; stroke-width: 1.5; stroke-linecap: square"/>
   </g>
   <g id="line2d_34">
    <path d="M 57.17 281.619751 
L 65.186939 280.793939 
L 73.203878 279.968126 
L 81.220816 279.142314 
L 89.237755 278.316501 
L 97.254694 277.490689 
L 105.271633 276.664876 
L 113.288571 275.839064 
L 121.30551 275.013251 
L 129.322449 274.187439 
L 137.339388 273.361626 
L 145.356327 272.535814 
L 153.373265 271.710001 
L 161.390204 270.884189 
L 169.407143 270.058377 
L 177.424082 269.232564 
L 185.44102 268.406752 
L 193.457959 267.580939 
L 201.474898 266.755127 
L 209.491837 265.929314 
L 217.508776 265.103502 
L 225.525714 264.277689 
L 233.542653 263.451877 
L 241.559592 262.626064 
L 249.576531 261.800252 
L 257.593469 260.974439 
L 265.610408 260.148627 
L 273.627347 259.322814 
L 281.644286 258.497002 
L 289.661224 257.671189 
L 297.678163 256.845377 
L 305.695102 256.019564 
L 313.712041 255.193752 
L 321.72898 254.36794 
L 329.745918 253.542127 
L 337.762857 252.716315 
L 345.779796 251.890502 
L 353.796735 251.06469 
L 361.813673 250.238877 
L 369.830612 249.413065 
L 377.847551 248.587252 
L 385.86449 247.76144 
L 393.881429 246.935627 
L 401.898367 246.109815 
L 409.915306 245.284002 
L 417.932245 244.45819 
L 425.949184 243.632377 
L 433.966122 242.806565 
L 441.983061 241.980752 
L 450 241.15494 
" clip-path="url(#p361d208d6f)" style="fill: none; stroke: #9be4ff; stroke-width: 1.5; stroke-linecap: square"/>
   </g>
   <g id="patch_3">
    <path d="M 57.17 303.64 
L 57.17 10.8 
" style="fill: none; stroke: #000000; stroke-width: 0.8; stroke-linejoin: miter; stroke-linecap: square"/>
   </g>
   <g id="patch_4">
    <path d="M 450 303.64 
L 450 10.8 
" style="fill: none; stroke: #000000; stroke-width: 0.8; stroke-linejoin: miter; stroke-linecap: square"/>
   </g>
   <g id="patch_5">
    <path d="M 57.17 303.64 
L 450 303.64 
" style="fill: none; stroke: #000000; stroke-width: 0.8; stroke-linejoin: miter; stroke-linecap: square"/>
   </g>
   <g id="patch_6">
    <path d="M 57.17 10.8 
L 450 10.8 
" style="fill: none; stroke: #000000; stroke-width: 0.8; stroke-linejoin: miter; stroke-linecap: square"/>
   </g>
   <g id="legend_1">
    <g id="patch_7">
     <path d="M 64.17 180.259375 
L 173.424688 180.259375 
Q 175.424688 180.259375 175.424688 178.259375 
L 175.424688 17.8 
Q 175.424688 15.8 173.424688 15.8 
L 64.17 15.8 
Q 62.17 15.8 62.17 17.8 
L 62.17 178.259375 
Q 62.17 180.259375 64.17 180.259375 
z
" style="fill: #ffffff; opacity: 0.8; stroke: #cccccc; stroke-linejoin: miter"/>
    </g>
    <g id="line2d_35">
     <path d="M 66.17 23.898438 
L 76.17 23.898438 
L 86.17 23.898438 
" style="fill: none; stroke: #d70000; stroke-width: 1.5; stroke-linecap: square"/>
    </g>
    <g id="text_16">
     <!-- AT -->
     <g transform="translate(94.17 27.398438)scale(0.1 -0.1)">
      <defs>
       <path id="DejaVuSans-41" d="M 2188 4044 
L 1331 1722 
L 3047 1722 
L 2188 4044 
z
M 1831 4666 
L 2547 4666 
L 4325 0 
L 3669 0 
L 3244 1197 
L 1141 1197 
L 716 0 
L 50 0 
L 1831 4666 
z
" transform="scale(0.015625)"/>
      </defs>
      <use xlink:href="#DejaVuSans-41"/>
      <use xlink:href="#DejaVuSans-54" x="60.658203"/>
     </g>
    </g>
    <g id="line2d_36">
     <path d="M 66.17 38.576563 
L 76.17 38.576563 
L 86.17 38.576563 
" style="fill: none; stroke: #8c3cff; stroke-width: 1.5; stroke-linecap: square"/>
    </g>
    <g id="text_17">
     <!-- BE -->
     <g transform="translate(94.17 42.076563)scale(0.1 -0.1)">
      <defs>
       <path id="DejaVuSans-42" d="M 1259 2228 
L 1259 519 
L 2272 519 
Q 2781 519 3026 730 
Q 3272 941 3272 1375 
Q 3272 1813 3026 2020 
Q 2781 2228 2272 2228 
L 1259 2228 
z
M 1259 4147 
L 1259 2741 
L 2194 2741 
Q 2656 2741 2882 2914 
Q 3109 3088 3109 3444 
Q 3109 3797 2882 3972 
Q 2656 4147 2194 4147 
L 1259 4147 
z
M 628 4666 
L 2241 4666 
Q 2963 4666 3353 4366 
Q 3744 4066 3744 3513 
Q 3744 3084 3544 2831 
Q 3344 2578 2956 2516 
Q 3422 2416 3680 2098 
Q 3938 1781 3938 1306 
Q 3938 681 3513 340 
Q 3088 0 2303 0 
L 628 0 
L 628 4666 
z
" transform="scale(0.015625)"/>
       <path id="DejaVuSans-45" d="M 628 4666 
L 3578 4666 
L 3578 4134 
L 1259 4134 
L 1259 2753 
L 3481 2753 
L 3481 2222 
L 1259 2222 
L 1259 531 
L 3634 531 
L 3634 0 
L 628 0 
L 628 4666 
z
" transform="scale(0.015625)"/>
      </defs>
      <use xlink:href="#DejaVuSans-42"/>
      <use xlink:href="#DejaVuSans-45" x="68.603516"/>
     </g>
    </g>
    <g id="line2d_37">
     <path d="M 66.17 53.254688 
L 76.17 53.254688 
L 86.17 53.254688 
" style="fill: none; stroke: #028800; stroke-width: 1.5; stroke-linecap: square"/>
    </g>
    <g id="text_18">
     <!-- BG -->
     <g transform="translate(94.17 56.754688)scale(0.1 -0.1)">
      <defs>
       <path id="DejaVuSans-47" d="M 3809 666 
L 3809 1919 
L 2778 1919 
L 2778 2438 
L 4434 2438 
L 4434 434 
Q 4069 175 3628 42 
Q 3188 -91 2688 -91 
Q 1594 -91 976 548 
Q 359 1188 359 2328 
Q 359 3472 976 4111 
Q 1594 4750 2688 4750 
Q 3144 4750 3555 4637 
Q 3966 4525 4313 4306 
L 4313 3634 
Q 3963 3931 3569 4081 
Q 3175 4231 2741 4231 
Q 1884 4231 1454 3753 
Q 1025 3275 1025 2328 
Q 1025 1384 1454 906 
Q 1884 428 2741 428 
Q 3075 428 3337 486 
Q 3600 544 3809 666 
z
" transform="scale(0.015625)"/>
      </defs>
      <use xlink:href="#DejaVuSans-42"/>
      <use xlink:href="#DejaVuSans-47" x="66.853516"/>
     </g>
    </g>
    <g id="line2d_38">
     <path d="M 66.17 67.932813 
L 76.17 67.932813 
L 86.17 67.932813 
" style="fill: none; stroke: #98ff00; stroke-width: 1.5; stroke-linecap: square"/>
    </g>
    <g id="text_19">
     <!-- CZ -->
     <g transform="translate(94.17 71.432813)scale(0.1 -0.1)">
      <defs>
       <path id="DejaVuSans-43" d="M 4122 4306 
L 4122 3641 
Q 3803 3938 3442 4084 
Q 3081 4231 2675 4231 
Q 1875 4231 1450 3742 
Q 1025 3253 1025 2328 
Q 1025 1406 1450 917 
Q 1875 428 2675 428 
Q 3081 428 3442 575 
Q 3803 722 4122 1019 
L 4122 359 
Q 3791 134 3420 21 
Q 3050 -91 2638 -91 
Q 1578 -91 968 557 
Q 359 1206 359 2328 
Q 359 3453 968 4101 
Q 1578 4750 2638 4750 
Q 3056 4750 3426 4639 
Q 3797 4528 4122 4306 
z
" transform="scale(0.015625)"/>
       <path id="DejaVuSans-5a" d="M 359 4666 
L 4025 4666 
L 4025 4184 
L 1075 531 
L 4097 531 
L 4097 0 
L 288 0 
L 288 481 
L 3238 4134 
L 359 4134 
L 359 4666 
z
" transform="scale(0.015625)"/>
      </defs>
      <use xlink:href="#DejaVuSans-43"/>
      <use xlink:href="#DejaVuSans-5a" x="69.824219"/>
     </g>
    </g>
    <g id="line2d_39">
     <path d="M 66.17 82.610938 
L 76.17 82.610938 
L 86.17 82.610938 
" style="fill: none; stroke: #ff7fd1; stroke-width: 1.5; stroke-linecap: square"/>
    </g>
    <g id="text_20">
     <!-- DE -->
     <g transform="translate(94.17 86.110938)scale(0.1 -0.1)">
      <use xlink:href="#DejaVuSans-44"/>
      <use xlink:href="#DejaVuSans-45" x="77.001953"/>
     </g>
    </g>
    <g id="line2d_40">
     <path d="M 66.17 97.289063 
L 76.17 97.289063 
L 86.17 97.289063 
" style="fill: none; stroke: #6c004f; stroke-width: 1.5; stroke-linecap: square"/>
    </g>
    <g id="text_21">
     <!-- DK -->
     <g transform="translate(94.17 100.789063)scale(0.1 -0.1)">
      <defs>
       <path id="DejaVuSans-4b" d="M 628 4666 
L 1259 4666 
L 1259 2694 
L 3353 4666 
L 4166 4666 
L 1850 2491 
L 4331 0 
L 3500 0 
L 1259 2247 
L 1259 0 
L 628 0 
L 628 4666 
z
" transform="scale(0.015625)"/>
      </defs>
      <use xlink:href="#DejaVuSans-44"/>
      <use xlink:href="#DejaVuSans-4b" x="77.001953"/>
     </g>
    </g>
    <g id="line2d_41">
     <path d="M 66.17 111.967188 
L 76.17 111.967188 
L 86.17 111.967188 
" style="fill: none; stroke: #583b00; stroke-width: 1.5; stroke-linecap: square"/>
    </g>
    <g id="text_22">
     <!-- EL -->
     <g transform="translate(94.17 115.467188)scale(0.1 -0.1)">
      <defs>
       <path id="DejaVuSans-4c" d="M 628 4666 
L 1259 4666 
L 1259 531 
L 3531 531 
L 3531 0 
L 628 0 
L 628 4666 
z
" transform="scale(0.015625)"/>
      </defs>
      <use xlink:href="#DejaVuSans-45"/>
      <use xlink:href="#DejaVuSans-4c" x="63.183594"/>
     </g>
    </g>
    <g id="line2d_42">
     <path d="M 66.17 126.645313 
L 76.17 126.645313 
L 86.17 126.645313 
" style="fill: none; stroke: #005759; stroke-width: 1.5; stroke-linecap: square"/>
    </g>
    <g id="text_23">
     <!-- ES -->
     <g transform="translate(94.17 130.145313)scale(0.1 -0.1)">
      <defs>
       <path id="DejaVuSans-53" d="M 3425 4513 
L 3425 3897 
Q 3066 4069 2747 4153 
Q 2428 4238 2131 4238 
Q 1616 4238 1336 4038 
Q 1056 3838 1056 3469 
Q 1056 3159 1242 3001 
Q 1428 2844 1947 2747 
L 2328 2669 
Q 3034 2534 3370 2195 
Q 3706 1856 3706 1288 
Q 3706 609 3251 259 
Q 2797 -91 1919 -91 
Q 1588 -91 1214 -16 
Q 841 59 441 206 
L 441 856 
Q 825 641 1194 531 
Q 1563 422 1919 422 
Q 2459 422 2753 634 
Q 3047 847 3047 1241 
Q 3047 1584 2836 1778 
Q 2625 1972 2144 2069 
L 1759 2144 
Q 1053 2284 737 2584 
Q 422 2884 422 3419 
Q 422 4038 858 4394 
Q 1294 4750 2059 4750 
Q 2388 4750 2728 4690 
Q 3069 4631 3425 4513 
z
" transform="scale(0.015625)"/>
      </defs>
      <use xlink:href="#DejaVuSans-45"/>
      <use xlink:href="#DejaVuSans-53" x="63.183594"/>
     </g>
    </g>
    <g id="line2d_43">
     <path d="M 66.17 141.323438 
L 76.17 141.323438 
L 86.17 141.323438 
" style="fill: none; stroke: #0000dd; stroke-width: 1.5; stroke-linecap: square"/>
    </g>
    <g id="text_24">
     <!-- FI -->
     <g transform="translate(94.17 144.823438)scale(0.1 -0.1)">
      <defs>
       <path id="DejaVuSans-46" d="M 628 4666 
L 3309 4666 
L 3309 4134 
L 1259 4134 
L 1259 2759 
L 3109 2759 
L 3109 2228 
L 1259 2228 
L 1259 0 
L 628 0 
L 628 4666 
z
" transform="scale(0.015625)"/>
       <path id="DejaVuSans-49" d="M 628 4666 
L 1259 4666 
L 1259 0 
L 628 0 
L 628 4666 
z
" transform="scale(0.015625)"/>
      </defs>
      <use xlink:href="#DejaVuSans-46"/>
      <use xlink:href="#DejaVuSans-49" x="57.519531"/>
     </g>
    </g>
    <g id="line2d_44">
     <path d="M 66.17 156.001563 
L 76.17 156.001563 
L 86.17 156.001563 
" style="fill: none; stroke: #bcb7ff; stroke-width: 1.5; stroke-linecap: square"/>
    </g>
    <g id="text_25">
     <!-- IE -->
     <g transform="translate(94.17 159.501563)scale(0.1 -0.1)">
      <use xlink:href="#DejaVuSans-49"/>
      <use xlink:href="#DejaVuSans-45" x="29.492188"/>
     </g>
    </g>
    <g id="line2d_45">
     <path d="M 66.17 170.679688 
L 76.17 170.679688 
L 86.17 170.679688 
" style="fill: none; stroke: #95b578; stroke-width: 1.5; stroke-linecap: square"/>
    </g>
    <g id="text_26">
     <!-- IT -->
     <g transform="translate(94.17 174.179688)scale(0.1 -0.1)">
      <use xlink:href="#DejaVuSans-49"/>
      <use xlink:href="#DejaVuSans-54" x="29.492188"/>
     </g>
    </g>
    <g id="line2d_46">
     <path d="M 128.604375 23.898438 
L 138.604375 23.898438 
L 148.604375 23.898438 
" style="fill: none; stroke: #c004b9; stroke-width: 1.5; stroke-linecap: square"/>
    </g>
    <g id="text_27">
     <!-- LT -->
     <g transform="translate(156.604375 27.398438)scale(0.1 -0.1)">
      <use xlink:href="#DejaVuSans-4c"/>
      <use xlink:href="#DejaVuSans-54" x="41.962891"/>
     </g>
    </g>
    <g id="line2d_47">
     <path d="M 128.604375 38.576563 
L 138.604375 38.576563 
L 148.604375 38.576563 
" style="fill: none; stroke: #790000; stroke-width: 1.5; stroke-linecap: square"/>
    </g>
    <g id="text_28">
     <!-- LV -->
     <g transform="translate(156.604375 42.076563)scale(0.1 -0.1)">
      <defs>
       <path id="DejaVuSans-56" d="M 1831 0 
L 50 4666 
L 709 4666 
L 2188 738 
L 3669 4666 
L 4325 4666 
L 2547 0 
L 1831 0 
z
" transform="scale(0.015625)"/>
      </defs>
      <use xlink:href="#DejaVuSans-4c"/>
      <use xlink:href="#DejaVuSans-56" x="44.712891"/>
     </g>
    </g>
    <g id="line2d_48">
     <path d="M 128.604375 53.254688 
L 138.604375 53.254688 
L 148.604375 53.254688 
" style="fill: none; stroke: #0774d8; stroke-width: 1.5; stroke-linecap: square"/>
    </g>
    <g id="text_29">
     <!-- MT -->
     <g transform="translate(156.604375 56.754688)scale(0.1 -0.1)">
      <defs>
       <path id="DejaVuSans-4d" d="M 628 4666 
L 1569 4666 
L 2759 1491 
L 3956 4666 
L 4897 4666 
L 4897 0 
L 4281 0 
L 4281 4097 
L 3078 897 
L 2444 897 
L 1241 4097 
L 1241 0 
L 628 0 
L 628 4666 
z
" transform="scale(0.015625)"/>
      </defs>
      <use xlink:href="#DejaVuSans-4d"/>
      <use xlink:href="#DejaVuSans-54" x="86.279297"/>
     </g>
    </g>
    <g id="line2d_49">
     <path d="M 128.604375 67.932813 
L 138.604375 67.932813 
L 148.604375 67.932813 
" style="fill: none; stroke: #fef590; stroke-width: 1.5; stroke-linecap: square"/>
    </g>
    <g id="text_30">
     <!-- NL -->
     <g transform="translate(156.604375 71.432813)scale(0.1 -0.1)">
      <use xlink:href="#DejaVuSans-4e"/>
      <use xlink:href="#DejaVuSans-4c" x="74.804688"/>
     </g>
    </g>
    <g id="line2d_50">
     <path d="M 128.604375 82.610938 
L 138.604375 82.610938 
L 148.604375 82.610938 
" style="fill: none; stroke: #004b00; stroke-width: 1.5; stroke-linecap: square"/>
    </g>
    <g id="text_31">
     <!-- PL -->
     <g transform="translate(156.604375 86.110938)scale(0.1 -0.1)">
      <defs>
       <path id="DejaVuSans-50" d="M 1259 4147 
L 1259 2394 
L 2053 2394 
Q 2494 2394 2734 2622 
Q 2975 2850 2975 3272 
Q 2975 3691 2734 3919 
Q 2494 4147 2053 4147 
L 1259 4147 
z
M 628 4666 
L 2053 4666 
Q 2838 4666 3239 4311 
Q 3641 3956 3641 3272 
Q 3641 2581 3239 2228 
Q 2838 1875 2053 1875 
L 1259 1875 
L 1259 0 
L 628 0 
L 628 4666 
z
" transform="scale(0.015625)"/>
      </defs>
      <use xlink:href="#DejaVuSans-50"/>
      <use xlink:href="#DejaVuSans-4c" x="60.302734"/>
     </g>
    </g>
    <g id="line2d_51">
     <path d="M 128.604375 97.289063 
L 138.604375 97.289063 
L 148.604375 97.289063 
" style="fill: none; stroke: #8f7a00; stroke-width: 1.5; stroke-linecap: square"/>
    </g>
    <g id="text_32">
     <!-- PT -->
     <g transform="translate(156.604375 100.789063)scale(0.1 -0.1)">
      <use xlink:href="#DejaVuSans-50"/>
      <use xlink:href="#DejaVuSans-54" x="60.302734"/>
     </g>
    </g>
    <g id="line2d_52">
     <path d="M 128.604375 111.967188 
L 138.604375 111.967188 
L 148.604375 111.967188 
" style="fill: none; stroke: #ff7266; stroke-width: 1.5; stroke-linecap: square"/>
    </g>
    <g id="text_33">
     <!-- RO -->
     <g transform="translate(156.604375 115.467188)scale(0.1 -0.1)">
      <defs>
       <path id="DejaVuSans-52" d="M 2841 2188 
Q 3044 2119 3236 1894 
Q 3428 1669 3622 1275 
L 4263 0 
L 3584 0 
L 2988 1197 
Q 2756 1666 2539 1819 
Q 2322 1972 1947 1972 
L 1259 1972 
L 1259 0 
L 628 0 
L 628 4666 
L 2053 4666 
Q 2853 4666 3247 4331 
Q 3641 3997 3641 3322 
Q 3641 2881 3436 2590 
Q 3231 2300 2841 2188 
z
M 1259 4147 
L 1259 2491 
L 2053 2491 
Q 2509 2491 2742 2702 
Q 2975 2913 2975 3322 
Q 2975 3731 2742 3939 
Q 2509 4147 2053 4147 
L 1259 4147 
z
" transform="scale(0.015625)"/>
       <path id="DejaVuSans-4f" d="M 2522 4238 
Q 1834 4238 1429 3725 
Q 1025 3213 1025 2328 
Q 1025 1447 1429 934 
Q 1834 422 2522 422 
Q 3209 422 3611 934 
Q 4013 1447 4013 2328 
Q 4013 3213 3611 3725 
Q 3209 4238 2522 4238 
z
M 2522 4750 
Q 3503 4750 4090 4092 
Q 4678 3434 4678 2328 
Q 4678 1225 4090 567 
Q 3503 -91 2522 -91 
Q 1538 -91 948 565 
Q 359 1222 359 2328 
Q 359 3434 948 4092 
Q 1538 4750 2522 4750 
z
" transform="scale(0.015625)"/>
      </defs>
      <use xlink:href="#DejaVuSans-52"/>
      <use xlink:href="#DejaVuSans-4f" x="69.482422"/>
     </g>
    </g>
    <g id="line2d_53">
     <path d="M 128.604375 126.645313 
L 138.604375 126.645313 
L 148.604375 126.645313 
" style="fill: none; stroke: #eeb9b9; stroke-width: 1.5; stroke-linecap: square"/>
    </g>
    <g id="text_34">
     <!-- SE -->
     <g transform="translate(156.604375 130.145313)scale(0.1 -0.1)">
      <use xlink:href="#DejaVuSans-53"/>
      <use xlink:href="#DejaVuSans-45" x="63.476562"/>
     </g>
    </g>
    <g id="line2d_54">
     <path d="M 128.604375 141.323438 
L 138.604375 141.323438 
L 148.604375 141.323438 
" style="fill: none; stroke: #5e7e66; stroke-width: 1.5; stroke-linecap: square"/>
    </g>
    <g id="text_35">
     <!-- SI -->
     <g transform="translate(156.604375 144.823438)scale(0.1 -0.1)">
      <use xlink:href="#DejaVuSans-53"/>
      <use xlink:href="#DejaVuSans-49" x="63.476562"/>
     </g>
    </g>
    <g id="line2d_55">
     <path d="M 128.604375 156.001563 
L 138.604375 156.001563 
L 148.604375 156.001563 
" style="fill: none; stroke: #9be4ff; stroke-width: 1.5; stroke-linecap: square"/>
    </g>
    <g id="text_36">
     <!-- SK -->
     <g transform="translate(156.604375 159.501563)scale(0.1 -0.1)">
      <use xlink:href="#DejaVuSans-53"/>
      <use xlink:href="#DejaVuSans-4b" x="63.476562"/>
     </g>
    </g>
   </g>
  </g>
 </g>
 <defs>
  <clipPath id="p361d208d6f">
   <rect x="57.17" y="10.8" width="392.83" height="292.84"/>
  </clipPath>
 </defs>
</svg>
