<?xml version="1.0" encoding="utf-8" standalone="no"?>
<!DOCTYPE svg PUBLIC "-//W3C//DTD SVG 1.1//EN"
  "http://www.w3.org/Graphics/SVG/1.1/DTD/svg11.dtd">
<svg xmlns:xlink="http://www.w3.org/1999/xlink" width="360pt" height="288pt" viewBox="0 0 360 288" xmlns="http://www.w3.org/2000/svg" version="1.1">
 <metadata>
  <rdf:RDF xmlns:dc="http://purl.org/dc/elements/1.1/" xmlns:cc="http://creativecommons.org/ns#" xmlns:rdf="http://www.w3.org/1999/02/22-rdf-syntax-ns#">
   <cc:Work>
    <dc:type rdf:resource="http://purl.org/dc/dcmitype/StillImage"/>
    <dc:date>2024-01-29T16:59:05.585409</dc:date>
    <dc:format>image/svg+xml</dc:format>
    <dc:creator>
     <cc:Agent>
      <dc:title>Matplotlib v3.5.1, https://matplotlib.org/</dc:title>
     </cc:Agent>
    </dc:creator>
   </cc:Work>
  </rdf:RDF>
 </metadata>
 <defs>
  <style type="text/css">*{stroke-linejoin: round; stroke-linecap: butt}</style>
 </defs>
 <g id="figure_1">
  <g id="patch_1">
   <path d="M 0 288 
L 360 288 
L 360 0 
L 0 0 
L 0 288 
z
" style="fill: none"/>
  </g>
  <g id="axes_1">
   <g id="patch_2">
    <path d="M 57.17 246.04 
L 344.66399 246.04 
L 344.66399 10.8 
L 57.17 10.8 
L 57.17 246.04 
z
" style="fill: none"/>
   </g>
   <g id="matplotlib.axis_1">
    <g id="xtick_1">
     <g id="line2d_1">
      <defs>
       <path id="md9e53ac2c4" d="M 0 0 
L 0 3.5 
" style="stroke: #000000; stroke-width: 0.8"/>
      </defs>
      <g>
       <use xlink:href="#md9e53ac2c4" x="69.542048" y="246.04" style="stroke: #000000; stroke-width: 0.8"/>
      </g>
     </g>
     <g id="text_1">
      <!-- 40 -->
      <g transform="translate(63.179548 260.638438)scale(0.1 -0.1)">
       <defs>
        <path id="DejaVuSans-34" d="M 2419 4116 
L 825 1625 
L 2419 1625 
L 2419 4116 
z
M 2253 4666 
L 3047 4666 
L 3047 1625 
L 3713 1625 
L 3713 1100 
L 3047 1100 
L 3047 0 
L 2419 0 
L 2419 1100 
L 313 1100 
L 313 1709 
L 2253 4666 
z
" transform="scale(0.015625)"/>
        <path id="DejaVuSans-30" d="M 2034 4250 
Q 1547 4250 1301 3770 
Q 1056 3291 1056 2328 
Q 1056 1369 1301 889 
Q 1547 409 2034 409 
Q 2525 409 2770 889 
Q 3016 1369 3016 2328 
Q 3016 3291 2770 3770 
Q 2525 4250 2034 4250 
z
M 2034 4750 
Q 2819 4750 3233 4129 
Q 3647 3509 3647 2328 
Q 3647 1150 3233 529 
Q 2819 -91 2034 -91 
Q 1250 -91 836 529 
Q 422 1150 422 2328 
Q 422 3509 836 4129 
Q 1250 4750 2034 4750 
z
" transform="scale(0.015625)"/>
       </defs>
       <use xlink:href="#DejaVuSans-34"/>
       <use xlink:href="#DejaVuSans-30" x="63.623047"/>
      </g>
     </g>
    </g>
    <g id="xtick_2">
     <g id="line2d_2">
      <g>
       <use xlink:href="#md9e53ac2c4" x="103.299342" y="246.04" style="stroke: #000000; stroke-width: 0.8"/>
      </g>
     </g>
     <g id="text_2">
      <!-- 60 -->
      <g transform="translate(96.936842 260.638438)scale(0.1 -0.1)">
       <defs>
        <path id="DejaVuSans-36" d="M 2113 2584 
Q 1688 2584 1439 2293 
Q 1191 2003 1191 1497 
Q 1191 994 1439 701 
Q 1688 409 2113 409 
Q 2538 409 2786 701 
Q 3034 994 3034 1497 
Q 3034 2003 2786 2293 
Q 2538 2584 2113 2584 
z
M 3366 4563 
L 3366 3988 
Q 3128 4100 2886 4159 
Q 2644 4219 2406 4219 
Q 1781 4219 1451 3797 
Q 1122 3375 1075 2522 
Q 1259 2794 1537 2939 
Q 1816 3084 2150 3084 
Q 2853 3084 3261 2657 
Q 3669 2231 3669 1497 
Q 3669 778 3244 343 
Q 2819 -91 2113 -91 
Q 1303 -91 875 529 
Q 447 1150 447 2328 
Q 447 3434 972 4092 
Q 1497 4750 2381 4750 
Q 2619 4750 2861 4703 
Q 3103 4656 3366 4563 
z
" transform="scale(0.015625)"/>
       </defs>
       <use xlink:href="#DejaVuSans-36"/>
       <use xlink:href="#DejaVuSans-30" x="63.623047"/>
      </g>
     </g>
    </g>
    <g id="xtick_3">
     <g id="line2d_3">
      <g>
       <use xlink:href="#md9e53ac2c4" x="137.056635" y="246.04" style="stroke: #000000; stroke-width: 0.8"/>
      </g>
     </g>
     <g id="text_3">
      <!-- 80 -->
      <g transform="translate(130.694135 260.638438)scale(0.1 -0.1)">
       <defs>
        <path id="DejaVuSans-38" d="M 2034 2216 
Q 1584 2216 1326 1975 
Q 1069 1734 1069 1313 
Q 1069 891 1326 650 
Q 1584 409 2034 409 
Q 2484 409 2743 651 
Q 3003 894 3003 1313 
Q 3003 1734 2745 1975 
Q 2488 2216 2034 2216 
z
M 1403 2484 
Q 997 2584 770 2862 
Q 544 3141 544 3541 
Q 544 4100 942 4425 
Q 1341 4750 2034 4750 
Q 2731 4750 3128 4425 
Q 3525 4100 3525 3541 
Q 3525 3141 3298 2862 
Q 3072 2584 2669 2484 
Q 3125 2378 3379 2068 
Q 3634 1759 3634 1313 
Q 3634 634 3220 271 
Q 2806 -91 2034 -91 
Q 1263 -91 848 271 
Q 434 634 434 1313 
Q 434 1759 690 2068 
Q 947 2378 1403 2484 
z
M 1172 3481 
Q 1172 3119 1398 2916 
Q 1625 2713 2034 2713 
Q 2441 2713 2670 2916 
Q 2900 3119 2900 3481 
Q 2900 3844 2670 4047 
Q 2441 4250 2034 4250 
Q 1625 4250 1398 4047 
Q 1172 3844 1172 3481 
z
" transform="scale(0.015625)"/>
       </defs>
       <use xlink:href="#DejaVuSans-38"/>
       <use xlink:href="#DejaVuSans-30" x="63.623047"/>
      </g>
     </g>
    </g>
    <g id="xtick_4">
     <g id="line2d_4">
      <g>
       <use xlink:href="#md9e53ac2c4" x="170.813929" y="246.04" style="stroke: #000000; stroke-width: 0.8"/>
      </g>
     </g>
     <g id="text_4">
      <!-- 100 -->
      <g transform="translate(161.270179 260.638438)scale(0.1 -0.1)">
       <defs>
        <path id="DejaVuSans-31" d="M 794 531 
L 1825 531 
L 1825 4091 
L 703 3866 
L 703 4441 
L 1819 4666 
L 2450 4666 
L 2450 531 
L 3481 531 
L 3481 0 
L 794 0 
L 794 531 
z
" transform="scale(0.015625)"/>
       </defs>
       <use xlink:href="#DejaVuSans-31"/>
       <use xlink:href="#DejaVuSans-30" x="63.623047"/>
       <use xlink:href="#DejaVuSans-30" x="127.246094"/>
      </g>
     </g>
    </g>
    <g id="xtick_5">
     <g id="line2d_5">
      <g>
       <use xlink:href="#md9e53ac2c4" x="204.571222" y="246.04" style="stroke: #000000; stroke-width: 0.8"/>
      </g>
     </g>
     <g id="text_5">
      <!-- 120 -->
      <g transform="translate(195.027472 260.638438)scale(0.1 -0.1)">
       <defs>
        <path id="DejaVuSans-32" d="M 1228 531 
L 3431 531 
L 3431 0 
L 469 0 
L 469 531 
Q 828 903 1448 1529 
Q 2069 2156 2228 2338 
Q 2531 2678 2651 2914 
Q 2772 3150 2772 3378 
Q 2772 3750 2511 3984 
Q 2250 4219 1831 4219 
Q 1534 4219 1204 4116 
Q 875 4013 500 3803 
L 500 4441 
Q 881 4594 1212 4672 
Q 1544 4750 1819 4750 
Q 2544 4750 2975 4387 
Q 3406 4025 3406 3419 
Q 3406 3131 3298 2873 
Q 3191 2616 2906 2266 
Q 2828 2175 2409 1742 
Q 1991 1309 1228 531 
z
" transform="scale(0.015625)"/>
       </defs>
       <use xlink:href="#DejaVuSans-31"/>
       <use xlink:href="#DejaVuSans-32" x="63.623047"/>
       <use xlink:href="#DejaVuSans-30" x="127.246094"/>
      </g>
     </g>
    </g>
    <g id="xtick_6">
     <g id="line2d_6">
      <g>
       <use xlink:href="#md9e53ac2c4" x="238.328516" y="246.04" style="stroke: #000000; stroke-width: 0.8"/>
      </g>
     </g>
     <g id="text_6">
      <!-- 140 -->
      <g transform="translate(228.784766 260.638438)scale(0.1 -0.1)">
       <use xlink:href="#DejaVuSans-31"/>
       <use xlink:href="#DejaVuSans-34" x="63.623047"/>
       <use xlink:href="#DejaVuSans-30" x="127.246094"/>
      </g>
     </g>
    </g>
    <g id="xtick_7">
     <g id="line2d_7">
      <g>
       <use xlink:href="#md9e53ac2c4" x="272.085809" y="246.04" style="stroke: #000000; stroke-width: 0.8"/>
      </g>
     </g>
     <g id="text_7">
      <!-- 160 -->
      <g transform="translate(262.542059 260.638438)scale(0.1 -0.1)">
       <use xlink:href="#DejaVuSans-31"/>
       <use xlink:href="#DejaVuSans-36" x="63.623047"/>
       <use xlink:href="#DejaVuSans-30" x="127.246094"/>
      </g>
     </g>
    </g>
    <g id="xtick_8">
     <g id="line2d_8">
      <g>
       <use xlink:href="#md9e53ac2c4" x="305.843103" y="246.04" style="stroke: #000000; stroke-width: 0.8"/>
      </g>
     </g>
     <g id="text_8">
      <!-- 180 -->
      <g transform="translate(296.299353 260.638438)scale(0.1 -0.1)">
       <use xlink:href="#DejaVuSans-31"/>
       <use xlink:href="#DejaVuSans-38" x="63.623047"/>
       <use xlink:href="#DejaVuSans-30" x="127.246094"/>
      </g>
     </g>
    </g>
    <g id="xtick_9">
     <g id="line2d_9">
      <g>
       <use xlink:href="#md9e53ac2c4" x="339.600396" y="246.04" style="stroke: #000000; stroke-width: 0.8"/>
      </g>
     </g>
     <g id="text_9">
      <!-- 200 -->
      <g transform="translate(330.056646 260.638438)scale(0.1 -0.1)">
       <use xlink:href="#DejaVuSans-32"/>
       <use xlink:href="#DejaVuSans-30" x="63.623047"/>
       <use xlink:href="#DejaVuSans-30" x="127.246094"/>
      </g>
     </g>
    </g>
    <g id="text_10">
     <!-- GDP (Purchasing Power Standard, % EU average) -->
     <g transform="translate(77.893558 274.316562)scale(0.1 -0.1)">
      <defs>
       <path id="DejaVuSans-47" d="M 3809 666 
L 3809 1919 
L 2778 1919 
L 2778 2438 
L 4434 2438 
L 4434 434 
Q 4069 175 3628 42 
Q 3188 -91 2688 -91 
Q 1594 -91 976 548 
Q 359 1188 359 2328 
Q 359 3472 976 4111 
Q 1594 4750 2688 4750 
Q 3144 4750 3555 4637 
Q 3966 4525 4313 4306 
L 4313 3634 
Q 3963 3931 3569 4081 
Q 3175 4231 2741 4231 
Q 1884 4231 1454 3753 
Q 1025 3275 1025 2328 
Q 1025 1384 1454 906 
Q 1884 428 2741 428 
Q 3075 428 3337 486 
Q 3600 544 3809 666 
z
" transform="scale(0.015625)"/>
       <path id="DejaVuSans-44" d="M 1259 4147 
L 1259 519 
L 2022 519 
Q 2988 519 3436 956 
Q 3884 1394 3884 2338 
Q 3884 3275 3436 3711 
Q 2988 4147 2022 4147 
L 1259 4147 
z
M 628 4666 
L 1925 4666 
Q 3281 4666 3915 4102 
Q 4550 3538 4550 2338 
Q 4550 1131 3912 565 
Q 3275 0 1925 0 
L 628 0 
L 628 4666 
z
" transform="scale(0.015625)"/>
       <path id="DejaVuSans-50" d="M 1259 4147 
L 1259 2394 
L 2053 2394 
Q 2494 2394 2734 2622 
Q 2975 2850 2975 3272 
Q 2975 3691 2734 3919 
Q 2494 4147 2053 4147 
L 1259 4147 
z
M 628 4666 
L 2053 4666 
Q 2838 4666 3239 4311 
Q 3641 3956 3641 3272 
Q 3641 2581 3239 2228 
Q 2838 1875 2053 1875 
L 1259 1875 
L 1259 0 
L 628 0 
L 628 4666 
z
" transform="scale(0.015625)"/>
       <path id="DejaVuSans-20" transform="scale(0.015625)"/>
       <path id="DejaVuSans-28" d="M 1984 4856 
Q 1566 4138 1362 3434 
Q 1159 2731 1159 2009 
Q 1159 1288 1364 580 
Q 1569 -128 1984 -844 
L 1484 -844 
Q 1016 -109 783 600 
Q 550 1309 550 2009 
Q 550 2706 781 3412 
Q 1013 4119 1484 4856 
L 1984 4856 
z
" transform="scale(0.015625)"/>
       <path id="DejaVuSans-75" d="M 544 1381 
L 544 3500 
L 1119 3500 
L 1119 1403 
Q 1119 906 1312 657 
Q 1506 409 1894 409 
Q 2359 409 2629 706 
Q 2900 1003 2900 1516 
L 2900 3500 
L 3475 3500 
L 3475 0 
L 2900 0 
L 2900 538 
Q 2691 219 2414 64 
Q 2138 -91 1772 -91 
Q 1169 -91 856 284 
Q 544 659 544 1381 
z
M 1991 3584 
L 1991 3584 
z
" transform="scale(0.015625)"/>
       <path id="DejaVuSans-72" d="M 2631 2963 
Q 2534 3019 2420 3045 
Q 2306 3072 2169 3072 
Q 1681 3072 1420 2755 
Q 1159 2438 1159 1844 
L 1159 0 
L 581 0 
L 581 3500 
L 1159 3500 
L 1159 2956 
Q 1341 3275 1631 3429 
Q 1922 3584 2338 3584 
Q 2397 3584 2469 3576 
Q 2541 3569 2628 3553 
L 2631 2963 
z
" transform="scale(0.015625)"/>
       <path id="DejaVuSans-63" d="M 3122 3366 
L 3122 2828 
Q 2878 2963 2633 3030 
Q 2388 3097 2138 3097 
Q 1578 3097 1268 2742 
Q 959 2388 959 1747 
Q 959 1106 1268 751 
Q 1578 397 2138 397 
Q 2388 397 2633 464 
Q 2878 531 3122 666 
L 3122 134 
Q 2881 22 2623 -34 
Q 2366 -91 2075 -91 
Q 1284 -91 818 406 
Q 353 903 353 1747 
Q 353 2603 823 3093 
Q 1294 3584 2113 3584 
Q 2378 3584 2631 3529 
Q 2884 3475 3122 3366 
z
" transform="scale(0.015625)"/>
       <path id="DejaVuSans-68" d="M 3513 2113 
L 3513 0 
L 2938 0 
L 2938 2094 
Q 2938 2591 2744 2837 
Q 2550 3084 2163 3084 
Q 1697 3084 1428 2787 
Q 1159 2491 1159 1978 
L 1159 0 
L 581 0 
L 581 4863 
L 1159 4863 
L 1159 2956 
Q 1366 3272 1645 3428 
Q 1925 3584 2291 3584 
Q 2894 3584 3203 3211 
Q 3513 2838 3513 2113 
z
" transform="scale(0.015625)"/>
       <path id="DejaVuSans-61" d="M 2194 1759 
Q 1497 1759 1228 1600 
Q 959 1441 959 1056 
Q 959 750 1161 570 
Q 1363 391 1709 391 
Q 2188 391 2477 730 
Q 2766 1069 2766 1631 
L 2766 1759 
L 2194 1759 
z
M 3341 1997 
L 3341 0 
L 2766 0 
L 2766 531 
Q 2569 213 2275 61 
Q 1981 -91 1556 -91 
Q 1019 -91 701 211 
Q 384 513 384 1019 
Q 384 1609 779 1909 
Q 1175 2209 1959 2209 
L 2766 2209 
L 2766 2266 
Q 2766 2663 2505 2880 
Q 2244 3097 1772 3097 
Q 1472 3097 1187 3025 
Q 903 2953 641 2809 
L 641 3341 
Q 956 3463 1253 3523 
Q 1550 3584 1831 3584 
Q 2591 3584 2966 3190 
Q 3341 2797 3341 1997 
z
" transform="scale(0.015625)"/>
       <path id="DejaVuSans-73" d="M 2834 3397 
L 2834 2853 
Q 2591 2978 2328 3040 
Q 2066 3103 1784 3103 
Q 1356 3103 1142 2972 
Q 928 2841 928 2578 
Q 928 2378 1081 2264 
Q 1234 2150 1697 2047 
L 1894 2003 
Q 2506 1872 2764 1633 
Q 3022 1394 3022 966 
Q 3022 478 2636 193 
Q 2250 -91 1575 -91 
Q 1294 -91 989 -36 
Q 684 19 347 128 
L 347 722 
Q 666 556 975 473 
Q 1284 391 1588 391 
Q 1994 391 2212 530 
Q 2431 669 2431 922 
Q 2431 1156 2273 1281 
Q 2116 1406 1581 1522 
L 1381 1569 
Q 847 1681 609 1914 
Q 372 2147 372 2553 
Q 372 3047 722 3315 
Q 1072 3584 1716 3584 
Q 2034 3584 2315 3537 
Q 2597 3491 2834 3397 
z
" transform="scale(0.015625)"/>
       <path id="DejaVuSans-69" d="M 603 3500 
L 1178 3500 
L 1178 0 
L 603 0 
L 603 3500 
z
M 603 4863 
L 1178 4863 
L 1178 4134 
L 603 4134 
L 603 4863 
z
" transform="scale(0.015625)"/>
       <path id="DejaVuSans-6e" d="M 3513 2113 
L 3513 0 
L 2938 0 
L 2938 2094 
Q 2938 2591 2744 2837 
Q 2550 3084 2163 3084 
Q 1697 3084 1428 2787 
Q 1159 2491 1159 1978 
L 1159 0 
L 581 0 
L 581 3500 
L 1159 3500 
L 1159 2956 
Q 1366 3272 1645 3428 
Q 1925 3584 2291 3584 
Q 2894 3584 3203 3211 
Q 3513 2838 3513 2113 
z
" transform="scale(0.015625)"/>
       <path id="DejaVuSans-67" d="M 2906 1791 
Q 2906 2416 2648 2759 
Q 2391 3103 1925 3103 
Q 1463 3103 1205 2759 
Q 947 2416 947 1791 
Q 947 1169 1205 825 
Q 1463 481 1925 481 
Q 2391 481 2648 825 
Q 2906 1169 2906 1791 
z
M 3481 434 
Q 3481 -459 3084 -895 
Q 2688 -1331 1869 -1331 
Q 1566 -1331 1297 -1286 
Q 1028 -1241 775 -1147 
L 775 -588 
Q 1028 -725 1275 -790 
Q 1522 -856 1778 -856 
Q 2344 -856 2625 -561 
Q 2906 -266 2906 331 
L 2906 616 
Q 2728 306 2450 153 
Q 2172 0 1784 0 
Q 1141 0 747 490 
Q 353 981 353 1791 
Q 353 2603 747 3093 
Q 1141 3584 1784 3584 
Q 2172 3584 2450 3431 
Q 2728 3278 2906 2969 
L 2906 3500 
L 3481 3500 
L 3481 434 
z
" transform="scale(0.015625)"/>
       <path id="DejaVuSans-6f" d="M 1959 3097 
Q 1497 3097 1228 2736 
Q 959 2375 959 1747 
Q 959 1119 1226 758 
Q 1494 397 1959 397 
Q 2419 397 2687 759 
Q 2956 1122 2956 1747 
Q 2956 2369 2687 2733 
Q 2419 3097 1959 3097 
z
M 1959 3584 
Q 2709 3584 3137 3096 
Q 3566 2609 3566 1747 
Q 3566 888 3137 398 
Q 2709 -91 1959 -91 
Q 1206 -91 779 398 
Q 353 888 353 1747 
Q 353 2609 779 3096 
Q 1206 3584 1959 3584 
z
" transform="scale(0.015625)"/>
       <path id="DejaVuSans-77" d="M 269 3500 
L 844 3500 
L 1563 769 
L 2278 3500 
L 2956 3500 
L 3675 769 
L 4391 3500 
L 4966 3500 
L 4050 0 
L 3372 0 
L 2619 2869 
L 1863 0 
L 1184 0 
L 269 3500 
z
" transform="scale(0.015625)"/>
       <path id="DejaVuSans-65" d="M 3597 1894 
L 3597 1613 
L 953 1613 
Q 991 1019 1311 708 
Q 1631 397 2203 397 
Q 2534 397 2845 478 
Q 3156 559 3463 722 
L 3463 178 
Q 3153 47 2828 -22 
Q 2503 -91 2169 -91 
Q 1331 -91 842 396 
Q 353 884 353 1716 
Q 353 2575 817 3079 
Q 1281 3584 2069 3584 
Q 2775 3584 3186 3129 
Q 3597 2675 3597 1894 
z
M 3022 2063 
Q 3016 2534 2758 2815 
Q 2500 3097 2075 3097 
Q 1594 3097 1305 2825 
Q 1016 2553 972 2059 
L 3022 2063 
z
" transform="scale(0.015625)"/>
       <path id="DejaVuSans-53" d="M 3425 4513 
L 3425 3897 
Q 3066 4069 2747 4153 
Q 2428 4238 2131 4238 
Q 1616 4238 1336 4038 
Q 1056 3838 1056 3469 
Q 1056 3159 1242 3001 
Q 1428 2844 1947 2747 
L 2328 2669 
Q 3034 2534 3370 2195 
Q 3706 1856 3706 1288 
Q 3706 609 3251 259 
Q 2797 -91 1919 -91 
Q 1588 -91 1214 -16 
Q 841 59 441 206 
L 441 856 
Q 825 641 1194 531 
Q 1563 422 1919 422 
Q 2459 422 2753 634 
Q 3047 847 3047 1241 
Q 3047 1584 2836 1778 
Q 2625 1972 2144 2069 
L 1759 2144 
Q 1053 2284 737 2584 
Q 422 2884 422 3419 
Q 422 4038 858 4394 
Q 1294 4750 2059 4750 
Q 2388 4750 2728 4690 
Q 3069 4631 3425 4513 
z
" transform="scale(0.015625)"/>
       <path id="DejaVuSans-74" d="M 1172 4494 
L 1172 3500 
L 2356 3500 
L 2356 3053 
L 1172 3053 
L 1172 1153 
Q 1172 725 1289 603 
Q 1406 481 1766 481 
L 2356 481 
L 2356 0 
L 1766 0 
Q 1100 0 847 248 
Q 594 497 594 1153 
L 594 3053 
L 172 3053 
L 172 3500 
L 594 3500 
L 594 4494 
L 1172 4494 
z
" transform="scale(0.015625)"/>
       <path id="DejaVuSans-64" d="M 2906 2969 
L 2906 4863 
L 3481 4863 
L 3481 0 
L 2906 0 
L 2906 525 
Q 2725 213 2448 61 
Q 2172 -91 1784 -91 
Q 1150 -91 751 415 
Q 353 922 353 1747 
Q 353 2572 751 3078 
Q 1150 3584 1784 3584 
Q 2172 3584 2448 3432 
Q 2725 3281 2906 2969 
z
M 947 1747 
Q 947 1113 1208 752 
Q 1469 391 1925 391 
Q 2381 391 2643 752 
Q 2906 1113 2906 1747 
Q 2906 2381 2643 2742 
Q 2381 3103 1925 3103 
Q 1469 3103 1208 2742 
Q 947 2381 947 1747 
z
" transform="scale(0.015625)"/>
       <path id="DejaVuSans-2c" d="M 750 794 
L 1409 794 
L 1409 256 
L 897 -744 
L 494 -744 
L 750 256 
L 750 794 
z
" transform="scale(0.015625)"/>
       <path id="DejaVuSans-25" d="M 4653 2053 
Q 4381 2053 4226 1822 
Q 4072 1591 4072 1178 
Q 4072 772 4226 539 
Q 4381 306 4653 306 
Q 4919 306 5073 539 
Q 5228 772 5228 1178 
Q 5228 1588 5073 1820 
Q 4919 2053 4653 2053 
z
M 4653 2450 
Q 5147 2450 5437 2106 
Q 5728 1763 5728 1178 
Q 5728 594 5436 251 
Q 5144 -91 4653 -91 
Q 4153 -91 3862 251 
Q 3572 594 3572 1178 
Q 3572 1766 3864 2108 
Q 4156 2450 4653 2450 
z
M 1428 4353 
Q 1159 4353 1004 4120 
Q 850 3888 850 3481 
Q 850 3069 1003 2837 
Q 1156 2606 1428 2606 
Q 1700 2606 1854 2837 
Q 2009 3069 2009 3481 
Q 2009 3884 1853 4118 
Q 1697 4353 1428 4353 
z
M 4250 4750 
L 4750 4750 
L 1831 -91 
L 1331 -91 
L 4250 4750 
z
M 1428 4750 
Q 1922 4750 2215 4408 
Q 2509 4066 2509 3481 
Q 2509 2891 2217 2550 
Q 1925 2209 1428 2209 
Q 931 2209 642 2551 
Q 353 2894 353 3481 
Q 353 4063 643 4406 
Q 934 4750 1428 4750 
z
" transform="scale(0.015625)"/>
       <path id="DejaVuSans-45" d="M 628 4666 
L 3578 4666 
L 3578 4134 
L 1259 4134 
L 1259 2753 
L 3481 2753 
L 3481 2222 
L 1259 2222 
L 1259 531 
L 3634 531 
L 3634 0 
L 628 0 
L 628 4666 
z
" transform="scale(0.015625)"/>
       <path id="DejaVuSans-55" d="M 556 4666 
L 1191 4666 
L 1191 1831 
Q 1191 1081 1462 751 
Q 1734 422 2344 422 
Q 2950 422 3222 751 
Q 3494 1081 3494 1831 
L 3494 4666 
L 4128 4666 
L 4128 1753 
Q 4128 841 3676 375 
Q 3225 -91 2344 -91 
Q 1459 -91 1007 375 
Q 556 841 556 1753 
L 556 4666 
z
" transform="scale(0.015625)"/>
       <path id="DejaVuSans-76" d="M 191 3500 
L 800 3500 
L 1894 563 
L 2988 3500 
L 3597 3500 
L 2284 0 
L 1503 0 
L 191 3500 
z
" transform="scale(0.015625)"/>
       <path id="DejaVuSans-29" d="M 513 4856 
L 1013 4856 
Q 1481 4119 1714 3412 
Q 1947 2706 1947 2009 
Q 1947 1309 1714 600 
Q 1481 -109 1013 -844 
L 513 -844 
Q 928 -128 1133 580 
Q 1338 1288 1338 2009 
Q 1338 2731 1133 3434 
Q 928 4138 513 4856 
z
" transform="scale(0.015625)"/>
      </defs>
      <use xlink:href="#DejaVuSans-47"/>
      <use xlink:href="#DejaVuSans-44" x="77.490234"/>
      <use xlink:href="#DejaVuSans-50" x="154.492188"/>
      <use xlink:href="#DejaVuSans-20" x="214.794922"/>
      <use xlink:href="#DejaVuSans-28" x="246.582031"/>
      <use xlink:href="#DejaVuSans-50" x="285.595703"/>
      <use xlink:href="#DejaVuSans-75" x="344.148438"/>
      <use xlink:href="#DejaVuSans-72" x="407.527344"/>
      <use xlink:href="#DejaVuSans-63" x="446.390625"/>
      <use xlink:href="#DejaVuSans-68" x="501.371094"/>
      <use xlink:href="#DejaVuSans-61" x="564.75"/>
      <use xlink:href="#DejaVuSans-73" x="626.029297"/>
      <use xlink:href="#DejaVuSans-69" x="678.128906"/>
      <use xlink:href="#DejaVuSans-6e" x="705.912109"/>
      <use xlink:href="#DejaVuSans-67" x="769.291016"/>
      <use xlink:href="#DejaVuSans-20" x="832.767578"/>
      <use xlink:href="#DejaVuSans-50" x="864.554688"/>
      <use xlink:href="#DejaVuSans-6f" x="921.232422"/>
      <use xlink:href="#DejaVuSans-77" x="982.414062"/>
      <use xlink:href="#DejaVuSans-65" x="1064.201172"/>
      <use xlink:href="#DejaVuSans-72" x="1125.724609"/>
      <use xlink:href="#DejaVuSans-20" x="1166.837891"/>
      <use xlink:href="#DejaVuSans-53" x="1198.625"/>
      <use xlink:href="#DejaVuSans-74" x="1262.101562"/>
      <use xlink:href="#DejaVuSans-61" x="1301.310547"/>
      <use xlink:href="#DejaVuSans-6e" x="1362.589844"/>
      <use xlink:href="#DejaVuSans-64" x="1425.96875"/>
      <use xlink:href="#DejaVuSans-61" x="1489.445312"/>
      <use xlink:href="#DejaVuSans-72" x="1550.724609"/>
      <use xlink:href="#DejaVuSans-64" x="1590.087891"/>
      <use xlink:href="#DejaVuSans-2c" x="1653.564453"/>
      <use xlink:href="#DejaVuSans-20" x="1685.351562"/>
      <use xlink:href="#DejaVuSans-25" x="1717.138672"/>
      <use xlink:href="#DejaVuSans-20" x="1812.158203"/>
      <use xlink:href="#DejaVuSans-45" x="1843.945312"/>
      <use xlink:href="#DejaVuSans-55" x="1907.128906"/>
      <use xlink:href="#DejaVuSans-20" x="1980.322266"/>
      <use xlink:href="#DejaVuSans-61" x="2012.109375"/>
      <use xlink:href="#DejaVuSans-76" x="2073.388672"/>
      <use xlink:href="#DejaVuSans-65" x="2132.568359"/>
      <use xlink:href="#DejaVuSans-72" x="2194.091797"/>
      <use xlink:href="#DejaVuSans-61" x="2235.205078"/>
      <use xlink:href="#DejaVuSans-67" x="2296.484375"/>
      <use xlink:href="#DejaVuSans-65" x="2359.960938"/>
      <use xlink:href="#DejaVuSans-29" x="2421.484375"/>
     </g>
    </g>
   </g>
   <g id="matplotlib.axis_2">
    <g id="ytick_1">
     <g id="line2d_10">
      <defs>
       <path id="m84db1f3bca" d="M 0 0 
L -3.5 0 
" style="stroke: #000000; stroke-width: 0.8"/>
      </defs>
      <g>
       <use xlink:href="#m84db1f3bca" x="57.17" y="246.04" style="stroke: #000000; stroke-width: 0.8"/>
      </g>
     </g>
     <g id="text_11">
      <!-- 0 -->
      <g transform="translate(43.8075 249.839219)scale(0.1 -0.1)">
       <use xlink:href="#DejaVuSans-30"/>
      </g>
     </g>
    </g>
    <g id="ytick_2">
     <g id="line2d_11">
      <g>
       <use xlink:href="#m84db1f3bca" x="57.17" y="213.367778" style="stroke: #000000; stroke-width: 0.8"/>
      </g>
     </g>
     <g id="text_12">
      <!-- 1000 -->
      <g transform="translate(24.72 217.166997)scale(0.1 -0.1)">
       <use xlink:href="#DejaVuSans-31"/>
       <use xlink:href="#DejaVuSans-30" x="63.623047"/>
       <use xlink:href="#DejaVuSans-30" x="127.246094"/>
       <use xlink:href="#DejaVuSans-30" x="190.869141"/>
      </g>
     </g>
    </g>
    <g id="ytick_3">
     <g id="line2d_12">
      <g>
       <use xlink:href="#m84db1f3bca" x="57.17" y="180.695556" style="stroke: #000000; stroke-width: 0.8"/>
      </g>
     </g>
     <g id="text_13">
      <!-- 2000 -->
      <g transform="translate(24.72 184.494774)scale(0.1 -0.1)">
       <use xlink:href="#DejaVuSans-32"/>
       <use xlink:href="#DejaVuSans-30" x="63.623047"/>
       <use xlink:href="#DejaVuSans-30" x="127.246094"/>
       <use xlink:href="#DejaVuSans-30" x="190.869141"/>
      </g>
     </g>
    </g>
    <g id="ytick_4">
     <g id="line2d_13">
      <g>
       <use xlink:href="#m84db1f3bca" x="57.17" y="148.023333" style="stroke: #000000; stroke-width: 0.8"/>
      </g>
     </g>
     <g id="text_14">
      <!-- 3000 -->
      <g transform="translate(24.72 151.822552)scale(0.1 -0.1)">
       <defs>
        <path id="DejaVuSans-33" d="M 2597 2516 
Q 3050 2419 3304 2112 
Q 3559 1806 3559 1356 
Q 3559 666 3084 287 
Q 2609 -91 1734 -91 
Q 1441 -91 1130 -33 
Q 819 25 488 141 
L 488 750 
Q 750 597 1062 519 
Q 1375 441 1716 441 
Q 2309 441 2620 675 
Q 2931 909 2931 1356 
Q 2931 1769 2642 2001 
Q 2353 2234 1838 2234 
L 1294 2234 
L 1294 2753 
L 1863 2753 
Q 2328 2753 2575 2939 
Q 2822 3125 2822 3475 
Q 2822 3834 2567 4026 
Q 2313 4219 1838 4219 
Q 1578 4219 1281 4162 
Q 984 4106 628 3988 
L 628 4550 
Q 988 4650 1302 4700 
Q 1616 4750 1894 4750 
Q 2613 4750 3031 4423 
Q 3450 4097 3450 3541 
Q 3450 3153 3228 2886 
Q 3006 2619 2597 2516 
z
" transform="scale(0.015625)"/>
       </defs>
       <use xlink:href="#DejaVuSans-33"/>
       <use xlink:href="#DejaVuSans-30" x="63.623047"/>
       <use xlink:href="#DejaVuSans-30" x="127.246094"/>
       <use xlink:href="#DejaVuSans-30" x="190.869141"/>
      </g>
     </g>
    </g>
    <g id="ytick_5">
     <g id="line2d_14">
      <g>
       <use xlink:href="#m84db1f3bca" x="57.17" y="115.351111" style="stroke: #000000; stroke-width: 0.8"/>
      </g>
     </g>
     <g id="text_15">
      <!-- 4000 -->
      <g transform="translate(24.72 119.15033)scale(0.1 -0.1)">
       <use xlink:href="#DejaVuSans-34"/>
       <use xlink:href="#DejaVuSans-30" x="63.623047"/>
       <use xlink:href="#DejaVuSans-30" x="127.246094"/>
       <use xlink:href="#DejaVuSans-30" x="190.869141"/>
      </g>
     </g>
    </g>
    <g id="ytick_6">
     <g id="line2d_15">
      <g>
       <use xlink:href="#m84db1f3bca" x="57.17" y="82.678889" style="stroke: #000000; stroke-width: 0.8"/>
      </g>
     </g>
     <g id="text_16">
      <!-- 5000 -->
      <g transform="translate(24.72 86.478108)scale(0.1 -0.1)">
       <defs>
        <path id="DejaVuSans-35" d="M 691 4666 
L 3169 4666 
L 3169 4134 
L 1269 4134 
L 1269 2991 
Q 1406 3038 1543 3061 
Q 1681 3084 1819 3084 
Q 2600 3084 3056 2656 
Q 3513 2228 3513 1497 
Q 3513 744 3044 326 
Q 2575 -91 1722 -91 
Q 1428 -91 1123 -41 
Q 819 9 494 109 
L 494 744 
Q 775 591 1075 516 
Q 1375 441 1709 441 
Q 2250 441 2565 725 
Q 2881 1009 2881 1497 
Q 2881 1984 2565 2268 
Q 2250 2553 1709 2553 
Q 1456 2553 1204 2497 
Q 953 2441 691 2322 
L 691 4666 
z
" transform="scale(0.015625)"/>
       </defs>
       <use xlink:href="#DejaVuSans-35"/>
       <use xlink:href="#DejaVuSans-30" x="63.623047"/>
       <use xlink:href="#DejaVuSans-30" x="127.246094"/>
       <use xlink:href="#DejaVuSans-30" x="190.869141"/>
      </g>
     </g>
    </g>
    <g id="ytick_7">
     <g id="line2d_16">
      <g>
       <use xlink:href="#m84db1f3bca" x="57.17" y="50.006667" style="stroke: #000000; stroke-width: 0.8"/>
      </g>
     </g>
     <g id="text_17">
      <!-- 6000 -->
      <g transform="translate(24.72 53.805885)scale(0.1 -0.1)">
       <use xlink:href="#DejaVuSans-36"/>
       <use xlink:href="#DejaVuSans-30" x="63.623047"/>
       <use xlink:href="#DejaVuSans-30" x="127.246094"/>
       <use xlink:href="#DejaVuSans-30" x="190.869141"/>
      </g>
     </g>
    </g>
    <g id="ytick_8">
     <g id="line2d_17">
      <g>
       <use xlink:href="#m84db1f3bca" x="57.17" y="17.334444" style="stroke: #000000; stroke-width: 0.8"/>
      </g>
     </g>
     <g id="text_18">
      <!-- 7000 -->
      <g transform="translate(24.72 21.133663)scale(0.1 -0.1)">
       <defs>
        <path id="DejaVuSans-37" d="M 525 4666 
L 3525 4666 
L 3525 4397 
L 1831 0 
L 1172 0 
L 2766 4134 
L 525 4134 
L 525 4666 
z
" transform="scale(0.015625)"/>
       </defs>
       <use xlink:href="#DejaVuSans-37"/>
       <use xlink:href="#DejaVuSans-30" x="63.623047"/>
       <use xlink:href="#DejaVuSans-30" x="127.246094"/>
       <use xlink:href="#DejaVuSans-30" x="190.869141"/>
      </g>
     </g>
    </g>
    <g id="text_19">
     <!-- Number of Burglaries -->
     <g transform="translate(18.640312 181.823906)rotate(-90)scale(0.1 -0.1)">
      <defs>
       <path id="DejaVuSans-4e" d="M 628 4666 
L 1478 4666 
L 3547 763 
L 3547 4666 
L 4159 4666 
L 4159 0 
L 3309 0 
L 1241 3903 
L 1241 0 
L 628 0 
L 628 4666 
z
" transform="scale(0.015625)"/>
       <path id="DejaVuSans-6d" d="M 3328 2828 
Q 3544 3216 3844 3400 
Q 4144 3584 4550 3584 
Q 5097 3584 5394 3201 
Q 5691 2819 5691 2113 
L 5691 0 
L 5113 0 
L 5113 2094 
Q 5113 2597 4934 2840 
Q 4756 3084 4391 3084 
Q 3944 3084 3684 2787 
Q 3425 2491 3425 1978 
L 3425 0 
L 2847 0 
L 2847 2094 
Q 2847 2600 2669 2842 
Q 2491 3084 2119 3084 
Q 1678 3084 1418 2786 
Q 1159 2488 1159 1978 
L 1159 0 
L 581 0 
L 581 3500 
L 1159 3500 
L 1159 2956 
Q 1356 3278 1631 3431 
Q 1906 3584 2284 3584 
Q 2666 3584 2933 3390 
Q 3200 3197 3328 2828 
z
" transform="scale(0.015625)"/>
       <path id="DejaVuSans-62" d="M 3116 1747 
Q 3116 2381 2855 2742 
Q 2594 3103 2138 3103 
Q 1681 3103 1420 2742 
Q 1159 2381 1159 1747 
Q 1159 1113 1420 752 
Q 1681 391 2138 391 
Q 2594 391 2855 752 
Q 3116 1113 3116 1747 
z
M 1159 2969 
Q 1341 3281 1617 3432 
Q 1894 3584 2278 3584 
Q 2916 3584 3314 3078 
Q 3713 2572 3713 1747 
Q 3713 922 3314 415 
Q 2916 -91 2278 -91 
Q 1894 -91 1617 61 
Q 1341 213 1159 525 
L 1159 0 
L 581 0 
L 581 4863 
L 1159 4863 
L 1159 2969 
z
" transform="scale(0.015625)"/>
       <path id="DejaVuSans-66" d="M 2375 4863 
L 2375 4384 
L 1825 4384 
Q 1516 4384 1395 4259 
Q 1275 4134 1275 3809 
L 1275 3500 
L 2222 3500 
L 2222 3053 
L 1275 3053 
L 1275 0 
L 697 0 
L 697 3053 
L 147 3053 
L 147 3500 
L 697 3500 
L 697 3744 
Q 697 4328 969 4595 
Q 1241 4863 1831 4863 
L 2375 4863 
z
" transform="scale(0.015625)"/>
       <path id="DejaVuSans-42" d="M 1259 2228 
L 1259 519 
L 2272 519 
Q 2781 519 3026 730 
Q 3272 941 3272 1375 
Q 3272 1813 3026 2020 
Q 2781 2228 2272 2228 
L 1259 2228 
z
M 1259 4147 
L 1259 2741 
L 2194 2741 
Q 2656 2741 2882 2914 
Q 3109 3088 3109 3444 
Q 3109 3797 2882 3972 
Q 2656 4147 2194 4147 
L 1259 4147 
z
M 628 4666 
L 2241 4666 
Q 2963 4666 3353 4366 
Q 3744 4066 3744 3513 
Q 3744 3084 3544 2831 
Q 3344 2578 2956 2516 
Q 3422 2416 3680 2098 
Q 3938 1781 3938 1306 
Q 3938 681 3513 340 
Q 3088 0 2303 0 
L 628 0 
L 628 4666 
z
" transform="scale(0.015625)"/>
       <path id="DejaVuSans-6c" d="M 603 4863 
L 1178 4863 
L 1178 0 
L 603 0 
L 603 4863 
z
" transform="scale(0.015625)"/>
      </defs>
      <use xlink:href="#DejaVuSans-4e"/>
      <use xlink:href="#DejaVuSans-75" x="74.804688"/>
      <use xlink:href="#DejaVuSans-6d" x="138.183594"/>
      <use xlink:href="#DejaVuSans-62" x="235.595703"/>
      <use xlink:href="#DejaVuSans-65" x="299.072266"/>
      <use xlink:href="#DejaVuSans-72" x="360.595703"/>
      <use xlink:href="#DejaVuSans-20" x="401.708984"/>
      <use xlink:href="#DejaVuSans-6f" x="433.496094"/>
      <use xlink:href="#DejaVuSans-66" x="494.677734"/>
      <use xlink:href="#DejaVuSans-20" x="529.882812"/>
      <use xlink:href="#DejaVuSans-42" x="561.669922"/>
      <use xlink:href="#DejaVuSans-75" x="630.273438"/>
      <use xlink:href="#DejaVuSans-72" x="693.652344"/>
      <use xlink:href="#DejaVuSans-67" x="733.015625"/>
      <use xlink:href="#DejaVuSans-6c" x="796.492188"/>
      <use xlink:href="#DejaVuSans-61" x="824.275391"/>
      <use xlink:href="#DejaVuSans-72" x="885.554688"/>
      <use xlink:href="#DejaVuSans-69" x="926.667969"/>
      <use xlink:href="#DejaVuSans-65" x="954.451172"/>
      <use xlink:href="#DejaVuSans-73" x="1015.974609"/>
     </g>
    </g>
   </g>
   <g id="line2d_18">
    <path d="M 162.195087 289 
L 162.780037 288.926217 
L 168.647262 288.186155 
L 174.514486 287.446093 
L 180.38171 286.706031 
L 186.248935 285.965969 
L 192.116159 285.225907 
L 197.983383 284.485845 
L 203.850607 283.745783 
L 209.717832 283.005721 
L 215.585056 282.265659 
L 221.45228 281.525597 
L 227.319505 280.785535 
L 233.186729 280.045473 
L 239.053953 279.305411 
L 244.921177 278.565349 
L 250.788402 277.825287 
L 256.655626 277.085225 
L 262.52285 276.345163 
L 268.390075 275.605101 
L 274.257299 274.865039 
L 280.124523 274.124977 
L 285.991748 273.384915 
L 291.858972 272.644853 
L 297.726196 271.904791 
L 303.59342 271.164729 
L 309.460645 270.424667 
L 315.327869 269.684605 
L 321.195093 268.944543 
L 327.062318 268.204481 
L 332.929542 267.464419 
L 338.796766 266.724357 
L 344.66399 265.984295 
" clip-path="url(#p32ade93f19)" style="fill: none; stroke: #d70000; stroke-width: 1.5; stroke-linecap: square"/>
   </g>
   <g id="line2d_19">
    <path d="M 57.17 185.314738 
L 63.037224 187.461522 
L 68.904449 189.608307 
L 74.771673 191.755091 
L 80.638897 193.901876 
L 86.506121 196.04866 
L 92.373346 198.195444 
L 98.24057 200.342229 
L 104.107794 202.489013 
L 109.975019 204.635798 
L 115.842243 206.782582 
L 121.709467 208.929366 
L 127.576692 211.076151 
L 133.443916 213.222935 
L 139.31114 215.36972 
L 145.178364 217.516504 
L 151.045589 219.663289 
L 156.912813 221.810073 
L 162.780037 223.956857 
L 168.647262 226.103642 
L 174.514486 228.250426 
L 180.38171 230.397211 
L 186.248935 232.543995 
L 192.116159 234.690779 
L 197.983383 236.837564 
L 203.850607 238.984348 
L 209.717832 241.131133 
L 215.585056 243.277917 
L 221.45228 245.424701 
L 227.319505 247.571486 
L 233.186729 249.71827 
L 239.053953 251.865055 
L 244.921177 254.011839 
L 250.788402 256.158623 
L 256.655626 258.305408 
L 262.52285 260.452192 
L 268.390075 262.598977 
L 274.257299 264.745761 
L 280.124523 266.892546 
L 285.991748 269.03933 
L 291.858972 271.186114 
L 297.726196 273.332899 
L 303.59342 275.479683 
L 309.460645 277.626468 
L 315.327869 279.773252 
L 321.195093 281.920036 
L 327.062318 284.066821 
L 332.929542 286.213605 
L 338.796766 288.36039 
L 340.54484 289 
" clip-path="url(#p32ade93f19)" style="fill: none; stroke: #8c3cff; stroke-width: 1.5; stroke-linecap: square"/>
   </g>
   <g id="line2d_20">
    <path d="M 57.17 220.426089 
L 63.037224 219.862063 
L 68.904449 219.298037 
L 74.771673 218.734012 
L 80.638897 218.169986 
L 86.506121 217.60596 
L 92.373346 217.041935 
L 98.24057 216.477909 
L 104.107794 215.913884 
L 109.975019 215.349858 
L 115.842243 214.785832 
L 121.709467 214.221807 
L 127.576692 213.657781 
L 133.443916 213.093755 
L 139.31114 212.52973 
L 145.178364 211.965704 
L 151.045589 211.401679 
L 156.912813 210.837653 
L 162.780037 210.273627 
L 168.647262 209.709602 
L 174.514486 209.145576 
L 180.38171 208.58155 
L 186.248935 208.017525 
L 192.116159 207.453499 
L 197.983383 206.889473 
L 203.850607 206.325448 
L 209.717832 205.761422 
L 215.585056 205.197397 
L 221.45228 204.633371 
L 227.319505 204.069345 
L 233.186729 203.50532 
L 239.053953 202.941294 
L 244.921177 202.377268 
L 250.788402 201.813243 
L 256.655626 201.249217 
L 262.52285 200.685191 
L 268.390075 200.121166 
L 274.257299 199.55714 
L 280.124523 198.993115 
L 285.991748 198.429089 
L 291.858972 197.865063 
L 297.726196 197.301038 
L 303.59342 196.737012 
L 309.460645 196.172986 
L 315.327869 195.608961 
L 321.195093 195.044935 
L 327.062318 194.480909 
L 332.929542 193.916884 
L 338.796766 193.352858 
L 344.66399 192.788833 
" clip-path="url(#p32ade93f19)" style="fill: none; stroke: #028800; stroke-width: 1.5; stroke-linecap: square"/>
   </g>
   <g id="line2d_21">
    <path d="M 57.17 211.232318 
L 63.037224 211.021501 
L 68.904449 210.810683 
L 74.771673 210.599866 
L 80.638897 210.389049 
L 86.506121 210.178231 
L 92.373346 209.967414 
L 98.24057 209.756597 
L 104.107794 209.545779 
L 109.975019 209.334962 
L 115.842243 209.124145 
L 121.709467 208.913327 
L 127.576692 208.70251 
L 133.443916 208.491693 
L 139.31114 208.280876 
L 145.178364 208.070058 
L 151.045589 207.859241 
L 156.912813 207.648424 
L 162.780037 207.437606 
L 168.647262 207.226789 
L 174.514486 207.015972 
L 180.38171 206.805154 
L 186.248935 206.594337 
L 192.116159 206.38352 
L 197.983383 206.172702 
L 203.850607 205.961885 
L 209.717832 205.751068 
L 215.585056 205.54025 
L 221.45228 205.329433 
L 227.319505 205.118616 
L 233.186729 204.907798 
L 239.053953 204.696981 
L 244.921177 204.486164 
L 250.788402 204.275346 
L 256.655626 204.064529 
L 262.52285 203.853712 
L 268.390075 203.642894 
L 274.257299 203.432077 
L 280.124523 203.22126 
L 285.991748 203.010442 
L 291.858972 202.799625 
L 297.726196 202.588808 
L 303.59342 202.37799 
L 309.460645 202.167173 
L 315.327869 201.956356 
L 321.195093 201.745538 
L 327.062318 201.534721 
L 332.929542 201.323904 
L 338.796766 201.113086 
L 344.66399 200.902269 
" clip-path="url(#p32ade93f19)" style="fill: none; stroke: #00acc7; stroke-width: 1.5; stroke-linecap: square"/>
   </g>
   <g id="line2d_22">
    <path d="M 57.17 215.38642 
L 63.037224 214.534799 
L 68.904449 213.683179 
L 74.771673 212.831558 
L 80.638897 211.979937 
L 86.506121 211.128316 
L 92.373346 210.276695 
L 98.24057 209.425074 
L 104.107794 208.573453 
L 109.975019 207.721832 
L 115.842243 206.870211 
L 121.709467 206.01859 
L 127.576692 205.166969 
L 133.443916 204.315348 
L 139.31114 203.463727 
L 145.178364 202.612106 
L 151.045589 201.760485 
L 156.912813 200.908864 
L 162.780037 200.057243 
L 168.647262 199.205622 
L 174.514486 198.354001 
L 180.38171 197.50238 
L 186.248935 196.650759 
L 192.116159 195.799138 
L 197.983383 194.947517 
L 203.850607 194.095896 
L 209.717832 193.244276 
L 215.585056 192.392655 
L 221.45228 191.541034 
L 227.319505 190.689413 
L 233.186729 189.837792 
L 239.053953 188.986171 
L 244.921177 188.13455 
L 250.788402 187.282929 
L 256.655626 186.431308 
L 262.52285 185.579687 
L 268.390075 184.728066 
L 274.257299 183.876445 
L 280.124523 183.024824 
L 285.991748 182.173203 
L 291.858972 181.321582 
L 297.726196 180.469961 
L 303.59342 179.61834 
L 309.460645 178.766719 
L 315.327869 177.915098 
L 321.195093 177.063477 
L 327.062318 176.211856 
L 332.929542 175.360235 
L 338.796766 174.508614 
L 344.66399 173.656993 
" clip-path="url(#p32ade93f19)" style="fill: none; stroke: #98ff00; stroke-width: 1.5; stroke-linecap: square"/>
   </g>
   <g id="line2d_23">
    <path d="M 57.17 183.042752 
L 63.037224 183.51774 
L 68.904449 183.992728 
L 74.771673 184.467716 
L 80.638897 184.942703 
L 86.506121 185.417691 
L 92.373346 185.892679 
L 98.24057 186.367667 
L 104.107794 186.842655 
L 109.975019 187.317642 
L 115.842243 187.79263 
L 121.709467 188.267618 
L 127.576692 188.742606 
L 133.443916 189.217594 
L 139.31114 189.692581 
L 145.178364 190.167569 
L 151.045589 190.642557 
L 156.912813 191.117545 
L 162.780037 191.592533 
L 168.647262 192.06752 
L 174.514486 192.542508 
L 180.38171 193.017496 
L 186.248935 193.492484 
L 192.116159 193.967472 
L 197.983383 194.442459 
L 203.850607 194.917447 
L 209.717832 195.392435 
L 215.585056 195.867423 
L 221.45228 196.342411 
L 227.319505 196.817398 
L 233.186729 197.292386 
L 239.053953 197.767374 
L 244.921177 198.242362 
L 250.788402 198.71735 
L 256.655626 199.192337 
L 262.52285 199.667325 
L 268.390075 200.142313 
L 274.257299 200.617301 
L 280.124523 201.092289 
L 285.991748 201.567276 
L 291.858972 202.042264 
L 297.726196 202.517252 
L 303.59342 202.99224 
L 309.460645 203.467228 
L 315.327869 203.942216 
L 321.195093 204.417203 
L 327.062318 204.892191 
L 332.929542 205.367179 
L 338.796766 205.842167 
L 344.66399 206.317155 
" clip-path="url(#p32ade93f19)" style="fill: none; stroke: #ff7fd1; stroke-width: 1.5; stroke-linecap: square"/>
   </g>
   <g id="line2d_24">
    <path d="M 57.17 2.63129 
L 63.037224 3.693882 
L 68.904449 4.756473 
L 74.771673 5.819065 
L 80.638897 6.881657 
L 86.506121 7.944249 
L 92.373346 9.006841 
L 98.24057 10.069433 
L 104.107794 11.132025 
L 109.975019 12.194617 
L 115.842243 13.257209 
L 121.709467 14.3198 
L 127.576692 15.382392 
L 133.443916 16.444984 
L 139.31114 17.507576 
L 145.178364 18.570168 
L 151.045589 19.63276 
L 156.912813 20.695352 
L 162.780037 21.757944 
L 168.647262 22.820536 
L 174.514486 23.883127 
L 180.38171 24.945719 
L 186.248935 26.008311 
L 192.116159 27.070903 
L 197.983383 28.133495 
L 203.850607 29.196087 
L 209.717832 30.258679 
L 215.585056 31.321271 
L 221.45228 32.383863 
L 227.319505 33.446454 
L 233.186729 34.509046 
L 239.053953 35.571638 
L 244.921177 36.63423 
L 250.788402 37.696822 
L 256.655626 38.759414 
L 262.52285 39.822006 
L 268.390075 40.884598 
L 274.257299 41.94719 
L 280.124523 43.009781 
L 285.991748 44.072373 
L 291.858972 45.134965 
L 297.726196 46.197557 
L 303.59342 47.260149 
L 309.460645 48.322741 
L 315.327869 49.385333 
L 321.195093 50.447925 
L 327.062318 51.510516 
L 332.929542 52.573108 
L 338.796766 53.6357 
L 344.66399 54.698292 
" clip-path="url(#p32ade93f19)" style="fill: none; stroke: #6c004f; stroke-width: 1.5; stroke-linecap: square"/>
   </g>
   <g id="line2d_25">
    <path d="M 57.17 205.093845 
L 63.037224 204.450417 
L 68.904449 203.806988 
L 74.771673 203.16356 
L 80.638897 202.520132 
L 86.506121 201.876704 
L 92.373346 201.233276 
L 98.24057 200.589848 
L 104.107794 199.946419 
L 109.975019 199.302991 
L 115.842243 198.659563 
L 121.709467 198.016135 
L 127.576692 197.372707 
L 133.443916 196.729278 
L 139.31114 196.08585 
L 145.178364 195.442422 
L 151.045589 194.798994 
L 156.912813 194.155566 
L 162.780037 193.512137 
L 168.647262 192.868709 
L 174.514486 192.225281 
L 180.38171 191.581853 
L 186.248935 190.938425 
L 192.116159 190.294996 
L 197.983383 189.651568 
L 203.850607 189.00814 
L 209.717832 188.364712 
L 215.585056 187.721284 
L 221.45228 187.077855 
L 227.319505 186.434427 
L 233.186729 185.790999 
L 239.053953 185.147571 
L 244.921177 184.504143 
L 250.788402 183.860714 
L 256.655626 183.217286 
L 262.52285 182.573858 
L 268.390075 181.93043 
L 274.257299 181.287002 
L 280.124523 180.643574 
L 285.991748 180.000145 
L 291.858972 179.356717 
L 297.726196 178.713289 
L 303.59342 178.069861 
L 309.460645 177.426433 
L 315.327869 176.783004 
L 321.195093 176.139576 
L 327.062318 175.496148 
L 332.929542 174.85272 
L 338.796766 174.209292 
L 344.66399 173.565863 
" clip-path="url(#p32ade93f19)" style="fill: none; stroke: #583b00; stroke-width: 1.5; stroke-linecap: square"/>
   </g>
   <g id="line2d_26">
    <path d="M 57.17 150.75895 
L 63.037224 150.94744 
L 68.904449 151.13593 
L 74.771673 151.32442 
L 80.638897 151.51291 
L 86.506121 151.7014 
L 92.373346 151.88989 
L 98.24057 152.07838 
L 104.107794 152.26687 
L 109.975019 152.45536 
L 115.842243 152.64385 
L 121.709467 152.83234 
L 127.576692 153.02083 
L 133.443916 153.20932 
L 139.31114 153.39781 
L 145.178364 153.5863 
L 151.045589 153.77479 
L 156.912813 153.96328 
L 162.780037 154.15177 
L 168.647262 154.34026 
L 174.514486 154.52875 
L 180.38171 154.71724 
L 186.248935 154.90573 
L 192.116159 155.09422 
L 197.983383 155.28271 
L 203.850607 155.4712 
L 209.717832 155.65969 
L 215.585056 155.84818 
L 221.45228 156.03667 
L 227.319505 156.22516 
L 233.186729 156.41365 
L 239.053953 156.60214 
L 244.921177 156.79063 
L 250.788402 156.97912 
L 256.655626 157.16761 
L 262.52285 157.3561 
L 268.390075 157.54459 
L 274.257299 157.73308 
L 280.124523 157.92157 
L 285.991748 158.11006 
L 291.858972 158.29855 
L 297.726196 158.48704 
L 303.59342 158.67553 
L 309.460645 158.86402 
L 315.327869 159.05251 
L 321.195093 159.241 
L 327.062318 159.42949 
L 332.929542 159.61798 
L 338.796766 159.80647 
L 344.66399 159.99496 
" clip-path="url(#p32ade93f19)" style="fill: none; stroke: #005759; stroke-width: 1.5; stroke-linecap: square"/>
   </g>
   <g id="line2d_27">
    <path d="M 57.17 228.723748 
L 63.037224 228.828857 
L 68.904449 228.933966 
L 74.771673 229.039075 
L 80.638897 229.144184 
L 86.506121 229.249293 
L 92.373346 229.354402 
L 98.24057 229.459511 
L 104.107794 229.564621 
L 109.975019 229.66973 
L 115.842243 229.774839 
L 121.709467 229.879948 
L 127.576692 229.985057 
L 133.443916 230.090166 
L 139.31114 230.195275 
L 145.178364 230.300385 
L 151.045589 230.405494 
L 156.912813 230.510603 
L 162.780037 230.615712 
L 168.647262 230.720821 
L 174.514486 230.82593 
L 180.38171 230.931039 
L 186.248935 231.036149 
L 192.116159 231.141258 
L 197.983383 231.246367 
L 203.850607 231.351476 
L 209.717832 231.456585 
L 215.585056 231.561694 
L 221.45228 231.666803 
L 227.319505 231.771913 
L 233.186729 231.877022 
L 239.053953 231.982131 
L 244.921177 232.08724 
L 250.788402 232.192349 
L 256.655626 232.297458 
L 262.52285 232.402567 
L 268.390075 232.507677 
L 274.257299 232.612786 
L 280.124523 232.717895 
L 285.991748 232.823004 
L 291.858972 232.928113 
L 297.726196 233.033222 
L 303.59342 233.138331 
L 309.460645 233.243441 
L 315.327869 233.34855 
L 321.195093 233.453659 
L 327.062318 233.558768 
L 332.929542 233.663877 
L 338.796766 233.768986 
L 344.66399 233.874095 
" clip-path="url(#p32ade93f19)" style="fill: none; stroke: #0000dd; stroke-width: 1.5; stroke-linecap: square"/>
   </g>
   <g id="line2d_28">
    <path d="M 57.17 124.749401 
L 63.037224 120.707543 
L 68.904449 116.665686 
L 74.771673 112.623829 
L 80.638897 108.581971 
L 86.506121 104.540114 
L 92.373346 100.498256 
L 98.24057 96.456399 
L 104.107794 92.414541 
L 109.975019 88.372684 
L 115.842243 84.330826 
L 121.709467 80.288969 
L 127.576692 76.247111 
L 133.443916 72.205254 
L 139.31114 68.163397 
L 145.178364 64.121539 
L 151.045589 60.079682 
L 156.912813 56.037824 
L 162.780037 51.995967 
L 168.647262 47.954109 
L 174.514486 43.912252 
L 180.38171 39.870394 
L 186.248935 35.828537 
L 192.116159 31.786679 
L 197.983383 27.744822 
L 203.850607 23.702964 
L 209.717832 19.661107 
L 215.585056 15.61925 
L 221.45228 11.577392 
L 227.319505 7.535535 
L 233.186729 3.493677 
L 239.053953 -0.54818 
L 239.709822 -1 
" clip-path="url(#p32ade93f19)" style="fill: none; stroke: #95b578; stroke-width: 1.5; stroke-linecap: square"/>
   </g>
   <g id="line2d_29">
    <path d="M 57.17 237.85886 
L 63.037224 237.9825 
L 68.904449 238.10614 
L 74.771673 238.22978 
L 80.638897 238.35342 
L 86.506121 238.47706 
L 92.373346 238.6007 
L 98.24057 238.72434 
L 104.107794 238.847981 
L 109.975019 238.971621 
L 115.842243 239.095261 
L 121.709467 239.218901 
L 127.576692 239.342541 
L 133.443916 239.466181 
L 139.31114 239.589821 
L 145.178364 239.713461 
L 151.045589 239.837101 
L 156.912813 239.960742 
L 162.780037 240.084382 
L 168.647262 240.208022 
L 174.514486 240.331662 
L 180.38171 240.455302 
L 186.248935 240.578942 
L 192.116159 240.702582 
L 197.983383 240.826222 
L 203.850607 240.949863 
L 209.717832 241.073503 
L 215.585056 241.197143 
L 221.45228 241.320783 
L 227.319505 241.444423 
L 233.186729 241.568063 
L 239.053953 241.691703 
L 244.921177 241.815343 
L 250.788402 241.938983 
L 256.655626 242.062624 
L 262.52285 242.186264 
L 268.390075 242.309904 
L 274.257299 242.433544 
L 280.124523 242.557184 
L 285.991748 242.680824 
L 291.858972 242.804464 
L 297.726196 242.928104 
L 303.59342 243.051744 
L 309.460645 243.175385 
L 315.327869 243.299025 
L 321.195093 243.422665 
L 327.062318 243.546305 
L 332.929542 243.669945 
L 338.796766 243.793585 
L 344.66399 243.917225 
" clip-path="url(#p32ade93f19)" style="fill: none; stroke: #c004b9; stroke-width: 1.5; stroke-linecap: square"/>
   </g>
   <g id="line2d_30">
    <path d="M 57.17 222.141974 
L 63.037224 221.675351 
L 68.904449 221.208729 
L 74.771673 220.742106 
L 80.638897 220.275483 
L 86.506121 219.80886 
L 92.373346 219.342238 
L 98.24057 218.875615 
L 104.107794 218.408992 
L 109.975019 217.942369 
L 115.842243 217.475747 
L 121.709467 217.009124 
L 127.576692 216.542501 
L 133.443916 216.075878 
L 139.31114 215.609255 
L 145.178364 215.142633 
L 151.045589 214.67601 
L 156.912813 214.209387 
L 162.780037 213.742764 
L 168.647262 213.276142 
L 174.514486 212.809519 
L 180.38171 212.342896 
L 186.248935 211.876273 
L 192.116159 211.409651 
L 197.983383 210.943028 
L 203.850607 210.476405 
L 209.717832 210.009782 
L 215.585056 209.54316 
L 221.45228 209.076537 
L 227.319505 208.609914 
L 233.186729 208.143291 
L 239.053953 207.676668 
L 244.921177 207.210046 
L 250.788402 206.743423 
L 256.655626 206.2768 
L 262.52285 205.810177 
L 268.390075 205.343555 
L 274.257299 204.876932 
L 280.124523 204.410309 
L 285.991748 203.943686 
L 291.858972 203.477064 
L 297.726196 203.010441 
L 303.59342 202.543818 
L 309.460645 202.077195 
L 315.327869 201.610572 
L 321.195093 201.14395 
L 327.062318 200.677327 
L 332.929542 200.210704 
L 338.796766 199.744081 
L 344.66399 199.277459 
" clip-path="url(#p32ade93f19)" style="fill: none; stroke: #0774d8; stroke-width: 1.5; stroke-linecap: square"/>
   </g>
   <g id="line2d_31">
    <path d="M 57.17 187.553543 
L 63.037224 185.913633 
L 68.904449 184.273724 
L 74.771673 182.633814 
L 80.638897 180.993904 
L 86.506121 179.353994 
L 92.373346 177.714084 
L 98.24057 176.074175 
L 104.107794 174.434265 
L 109.975019 172.794355 
L 115.842243 171.154445 
L 121.709467 169.514535 
L 127.576692 167.874625 
L 133.443916 166.234716 
L 139.31114 164.594806 
L 145.178364 162.954896 
L 151.045589 161.314986 
L 156.912813 159.675076 
L 162.780037 158.035167 
L 168.647262 156.395257 
L 174.514486 154.755347 
L 180.38171 153.115437 
L 186.248935 151.475527 
L 192.116159 149.835617 
L 197.983383 148.195708 
L 203.850607 146.555798 
L 209.717832 144.915888 
L 215.585056 143.275978 
L 221.45228 141.636068 
L 227.319505 139.996158 
L 233.186729 138.356249 
L 239.053953 136.716339 
L 244.921177 135.076429 
L 250.788402 133.436519 
L 256.655626 131.796609 
L 262.52285 130.1567 
L 268.390075 128.51679 
L 274.257299 126.87688 
L 280.124523 125.23697 
L 285.991748 123.59706 
L 291.858972 121.95715 
L 297.726196 120.317241 
L 303.59342 118.677331 
L 309.460645 117.037421 
L 315.327869 115.397511 
L 321.195093 113.757601 
L 327.062318 112.117692 
L 332.929542 110.477782 
L 338.796766 108.837872 
L 344.66399 107.197962 
" clip-path="url(#p32ade93f19)" style="fill: none; stroke: #fef590; stroke-width: 1.5; stroke-linecap: square"/>
   </g>
   <g id="line2d_32">
    <path d="M 57.17 186.102375 
L 63.037224 186.12235 
L 68.904449 186.142325 
L 74.771673 186.1623 
L 80.638897 186.182275 
L 86.506121 186.202251 
L 92.373346 186.222226 
L 98.24057 186.242201 
L 104.107794 186.262176 
L 109.975019 186.282151 
L 115.842243 186.302127 
L 121.709467 186.322102 
L 127.576692 186.342077 
L 133.443916 186.362052 
L 139.31114 186.382027 
L 145.178364 186.402003 
L 151.045589 186.421978 
L 156.912813 186.441953 
L 162.780037 186.461928 
L 168.647262 186.481903 
L 174.514486 186.501879 
L 180.38171 186.521854 
L 186.248935 186.541829 
L 192.116159 186.561804 
L 197.983383 186.581779 
L 203.850607 186.601755 
L 209.717832 186.62173 
L 215.585056 186.641705 
L 221.45228 186.66168 
L 227.319505 186.681655 
L 233.186729 186.701631 
L 239.053953 186.721606 
L 244.921177 186.741581 
L 250.788402 186.761556 
L 256.655626 186.781531 
L 262.52285 186.801507 
L 268.390075 186.821482 
L 274.257299 186.841457 
L 280.124523 186.861432 
L 285.991748 186.881408 
L 291.858972 186.901383 
L 297.726196 186.921358 
L 303.59342 186.941333 
L 309.460645 186.961308 
L 315.327869 186.981284 
L 321.195093 187.001259 
L 327.062318 187.021234 
L 332.929542 187.041209 
L 338.796766 187.061184 
L 344.66399 187.08116 
" clip-path="url(#p32ade93f19)" style="fill: none; stroke: #8f7a00; stroke-width: 1.5; stroke-linecap: square"/>
   </g>
   <g id="line2d_33">
    <path d="M 57.17 182.386067 
L 63.037224 181.246497 
L 68.904449 180.106927 
L 74.771673 178.967357 
L 80.638897 177.827787 
L 86.506121 176.688216 
L 92.373346 175.548646 
L 98.24057 174.409076 
L 104.107794 173.269506 
L 109.975019 172.129936 
L 115.842243 170.990366 
L 121.709467 169.850795 
L 127.576692 168.711225 
L 133.443916 167.571655 
L 139.31114 166.432085 
L 145.178364 165.292515 
L 151.045589 164.152945 
L 156.912813 163.013374 
L 162.780037 161.873804 
L 168.647262 160.734234 
L 174.514486 159.594664 
L 180.38171 158.455094 
L 186.248935 157.315524 
L 192.116159 156.175953 
L 197.983383 155.036383 
L 203.850607 153.896813 
L 209.717832 152.757243 
L 215.585056 151.617673 
L 221.45228 150.478103 
L 227.319505 149.338532 
L 233.186729 148.198962 
L 239.053953 147.059392 
L 244.921177 145.919822 
L 250.788402 144.780252 
L 256.655626 143.640682 
L 262.52285 142.501111 
L 268.390075 141.361541 
L 274.257299 140.221971 
L 280.124523 139.082401 
L 285.991748 137.942831 
L 291.858972 136.803261 
L 297.726196 135.66369 
L 303.59342 134.52412 
L 309.460645 133.38455 
L 315.327869 132.24498 
L 321.195093 131.10541 
L 327.062318 129.96584 
L 332.929542 128.826269 
L 338.796766 127.686699 
L 344.66399 126.547129 
" clip-path="url(#p32ade93f19)" style="fill: none; stroke: #ff7266; stroke-width: 1.5; stroke-linecap: square"/>
   </g>
   <g id="line2d_34">
    <path d="M 57.17 178.067608 
L 63.037224 177.457826 
L 68.904449 176.848045 
L 74.771673 176.238264 
L 80.638897 175.628483 
L 86.506121 175.018702 
L 92.373346 174.408921 
L 98.24057 173.79914 
L 104.107794 173.189358 
L 109.975019 172.579577 
L 115.842243 171.969796 
L 121.709467 171.360015 
L 127.576692 170.750234 
L 133.443916 170.140453 
L 139.31114 169.530672 
L 145.178364 168.92089 
L 151.045589 168.311109 
L 156.912813 167.701328 
L 162.780037 167.091547 
L 168.647262 166.481766 
L 174.514486 165.871985 
L 180.38171 165.262204 
L 186.248935 164.652423 
L 192.116159 164.042641 
L 197.983383 163.43286 
L 203.850607 162.823079 
L 209.717832 162.213298 
L 215.585056 161.603517 
L 221.45228 160.993736 
L 227.319505 160.383955 
L 233.186729 159.774173 
L 239.053953 159.164392 
L 244.921177 158.554611 
L 250.788402 157.94483 
L 256.655626 157.335049 
L 262.52285 156.725268 
L 268.390075 156.115487 
L 274.257299 155.505705 
L 280.124523 154.895924 
L 285.991748 154.286143 
L 291.858972 153.676362 
L 297.726196 153.066581 
L 303.59342 152.4568 
L 309.460645 151.847019 
L 315.327869 151.237238 
L 321.195093 150.627456 
L 327.062318 150.017675 
L 332.929542 149.407894 
L 338.796766 148.798113 
L 344.66399 148.188332 
" clip-path="url(#p32ade93f19)" style="fill: none; stroke: #eeb9b9; stroke-width: 1.5; stroke-linecap: square"/>
   </g>
   <g id="line2d_35">
    <path d="M 57.17 222.180883 
L 63.037224 220.523415 
L 68.904449 218.865948 
L 74.771673 217.20848 
L 80.638897 215.551012 
L 86.506121 213.893544 
L 92.373346 212.236077 
L 98.24057 210.578609 
L 104.107794 208.921141 
L 109.975019 207.263673 
L 115.842243 205.606205 
L 121.709467 203.948738 
L 127.576692 202.29127 
L 133.443916 200.633802 
L 139.31114 198.976334 
L 145.178364 197.318867 
L 151.045589 195.661399 
L 156.912813 194.003931 
L 162.780037 192.346463 
L 168.647262 190.688996 
L 174.514486 189.031528 
L 180.38171 187.37406 
L 186.248935 185.716592 
L 192.116159 184.059124 
L 197.983383 182.401657 
L 203.850607 180.744189 
L 209.717832 179.086721 
L 215.585056 177.429253 
L 221.45228 175.771786 
L 227.319505 174.114318 
L 233.186729 172.45685 
L 239.053953 170.799382 
L 244.921177 169.141915 
L 250.788402 167.484447 
L 256.655626 165.826979 
L 262.52285 164.169511 
L 268.390075 162.512044 
L 274.257299 160.854576 
L 280.124523 159.197108 
L 285.991748 157.53964 
L 291.858972 155.882172 
L 297.726196 154.224705 
L 303.59342 152.567237 
L 309.460645 150.909769 
L 315.327869 149.252301 
L 321.195093 147.594834 
L 327.062318 145.937366 
L 332.929542 144.279898 
L 338.796766 142.62243 
L 344.66399 140.964963 
" clip-path="url(#p32ade93f19)" style="fill: none; stroke: #5e7e66; stroke-width: 1.5; stroke-linecap: square"/>
   </g>
   <g id="line2d_36">
    <path d="M 57.17 250.962584 
L 63.037224 250.875208 
L 68.904449 250.787832 
L 74.771673 250.700456 
L 80.638897 250.61308 
L 86.506121 250.525703 
L 92.373346 250.438327 
L 98.24057 250.350951 
L 104.107794 250.263575 
L 109.975019 250.176199 
L 115.842243 250.088823 
L 121.709467 250.001447 
L 127.576692 249.914071 
L 133.443916 249.826694 
L 139.31114 249.739318 
L 145.178364 249.651942 
L 151.045589 249.564566 
L 156.912813 249.47719 
L 162.780037 249.389814 
L 168.647262 249.302438 
L 174.514486 249.215061 
L 180.38171 249.127685 
L 186.248935 249.040309 
L 192.116159 248.952933 
L 197.983383 248.865557 
L 203.850607 248.778181 
L 209.717832 248.690805 
L 215.585056 248.603428 
L 221.45228 248.516052 
L 227.319505 248.428676 
L 233.186729 248.3413 
L 239.053953 248.253924 
L 244.921177 248.166548 
L 250.788402 248.079172 
L 256.655626 247.991795 
L 262.52285 247.904419 
L 268.390075 247.817043 
L 274.257299 247.729667 
L 280.124523 247.642291 
L 285.991748 247.554915 
L 291.858972 247.467539 
L 297.726196 247.380162 
L 303.59342 247.292786 
L 309.460645 247.20541 
L 315.327869 247.118034 
L 321.195093 247.030658 
L 327.062318 246.943282 
L 332.929542 246.855906 
L 338.796766 246.768529 
L 344.66399 246.681153 
" clip-path="url(#p32ade93f19)" style="fill: none; stroke: #9be4ff; stroke-width: 1.5; stroke-linecap: square"/>
   </g>
   <g id="patch_3">
    <path d="M 57.17 246.04 
L 57.17 10.8 
" style="fill: none; stroke: #000000; stroke-width: 0.8; stroke-linejoin: miter; stroke-linecap: square"/>
   </g>
   <g id="patch_4">
    <path d="M 344.66399 246.04 
L 344.66399 10.8 
" style="fill: none; stroke: #000000; stroke-width: 0.8; stroke-linejoin: miter; stroke-linecap: square"/>
   </g>
   <g id="patch_5">
    <path d="M 57.17 246.04 
L 344.66399 246.04 
" style="fill: none; stroke: #000000; stroke-width: 0.8; stroke-linejoin: miter; stroke-linecap: square"/>
   </g>
   <g id="patch_6">
    <path d="M 57.17 10.8 
L 344.66399 10.8 
" style="fill: none; stroke: #000000; stroke-width: 0.8; stroke-linejoin: miter; stroke-linecap: square"/>
   </g>
   <g id="legend_1">
    <g id="patch_7">
     <path d="M 64.17 165.58125 
L 173.424688 165.58125 
Q 175.424688 165.58125 175.424688 163.58125 
L 175.424688 17.8 
Q 175.424688 15.8 173.424688 15.8 
L 64.17 15.8 
Q 62.17 15.8 62.17 17.8 
L 62.17 163.58125 
Q 62.17 165.58125 64.17 165.58125 
z
" style="fill: #ffffff; opacity: 0.8; stroke: #cccccc; stroke-linejoin: miter"/>
    </g>
    <g id="line2d_37">
     <path d="M 66.17 23.898438 
L 76.17 23.898438 
L 86.17 23.898438 
" style="fill: none; stroke: #d70000; stroke-width: 1.5; stroke-linecap: square"/>
    </g>
    <g id="text_20">
     <!-- AT -->
     <g transform="translate(94.17 27.398438)scale(0.1 -0.1)">
      <defs>
       <path id="DejaVuSans-41" d="M 2188 4044 
L 1331 1722 
L 3047 1722 
L 2188 4044 
z
M 1831 4666 
L 2547 4666 
L 4325 0 
L 3669 0 
L 3244 1197 
L 1141 1197 
L 716 0 
L 50 0 
L 1831 4666 
z
" transform="scale(0.015625)"/>
       <path id="DejaVuSans-54" d="M -19 4666 
L 3928 4666 
L 3928 4134 
L 2272 4134 
L 2272 0 
L 1638 0 
L 1638 4134 
L -19 4134 
L -19 4666 
z
" transform="scale(0.015625)"/>
      </defs>
      <use xlink:href="#DejaVuSans-41"/>
      <use xlink:href="#DejaVuSans-54" x="60.658203"/>
     </g>
    </g>
    <g id="line2d_38">
     <path d="M 66.17 38.576563 
L 76.17 38.576563 
L 86.17 38.576563 
" style="fill: none; stroke: #8c3cff; stroke-width: 1.5; stroke-linecap: square"/>
    </g>
    <g id="text_21">
     <!-- BE -->
     <g transform="translate(94.17 42.076563)scale(0.1 -0.1)">
      <use xlink:href="#DejaVuSans-42"/>
      <use xlink:href="#DejaVuSans-45" x="68.603516"/>
     </g>
    </g>
    <g id="line2d_39">
     <path d="M 66.17 53.254688 
L 76.17 53.254688 
L 86.17 53.254688 
" style="fill: none; stroke: #028800; stroke-width: 1.5; stroke-linecap: square"/>
    </g>
    <g id="text_22">
     <!-- BG -->
     <g transform="translate(94.17 56.754688)scale(0.1 -0.1)">
      <use xlink:href="#DejaVuSans-42"/>
      <use xlink:href="#DejaVuSans-47" x="66.853516"/>
     </g>
    </g>
    <g id="line2d_40">
     <path d="M 66.17 67.932813 
L 76.17 67.932813 
L 86.17 67.932813 
" style="fill: none; stroke: #00acc7; stroke-width: 1.5; stroke-linecap: square"/>
    </g>
    <g id="text_23">
     <!-- CY -->
     <g transform="translate(94.17 71.432813)scale(0.1 -0.1)">
      <defs>
       <path id="DejaVuSans-43" d="M 4122 4306 
L 4122 3641 
Q 3803 3938 3442 4084 
Q 3081 4231 2675 4231 
Q 1875 4231 1450 3742 
Q 1025 3253 1025 2328 
Q 1025 1406 1450 917 
Q 1875 428 2675 428 
Q 3081 428 3442 575 
Q 3803 722 4122 1019 
L 4122 359 
Q 3791 134 3420 21 
Q 3050 -91 2638 -91 
Q 1578 -91 968 557 
Q 359 1206 359 2328 
Q 359 3453 968 4101 
Q 1578 4750 2638 4750 
Q 3056 4750 3426 4639 
Q 3797 4528 4122 4306 
z
" transform="scale(0.015625)"/>
       <path id="DejaVuSans-59" d="M -13 4666 
L 666 4666 
L 1959 2747 
L 3244 4666 
L 3922 4666 
L 2272 2222 
L 2272 0 
L 1638 0 
L 1638 2222 
L -13 4666 
z
" transform="scale(0.015625)"/>
      </defs>
      <use xlink:href="#DejaVuSans-43"/>
      <use xlink:href="#DejaVuSans-59" x="68.074219"/>
     </g>
    </g>
    <g id="line2d_41">
     <path d="M 66.17 82.610938 
L 76.17 82.610938 
L 86.17 82.610938 
" style="fill: none; stroke: #98ff00; stroke-width: 1.5; stroke-linecap: square"/>
    </g>
    <g id="text_24">
     <!-- CZ -->
     <g transform="translate(94.17 86.110938)scale(0.1 -0.1)">
      <defs>
       <path id="DejaVuSans-5a" d="M 359 4666 
L 4025 4666 
L 4025 4184 
L 1075 531 
L 4097 531 
L 4097 0 
L 288 0 
L 288 481 
L 3238 4134 
L 359 4134 
L 359 4666 
z
" transform="scale(0.015625)"/>
      </defs>
      <use xlink:href="#DejaVuSans-43"/>
      <use xlink:href="#DejaVuSans-5a" x="69.824219"/>
     </g>
    </g>
    <g id="line2d_42">
     <path d="M 66.17 97.289062 
L 76.17 97.289062 
L 86.17 97.289062 
" style="fill: none; stroke: #ff7fd1; stroke-width: 1.5; stroke-linecap: square"/>
    </g>
    <g id="text_25">
     <!-- DE -->
     <g transform="translate(94.17 100.789062)scale(0.1 -0.1)">
      <use xlink:href="#DejaVuSans-44"/>
      <use xlink:href="#DejaVuSans-45" x="77.001953"/>
     </g>
    </g>
    <g id="line2d_43">
     <path d="M 66.17 111.967188 
L 76.17 111.967188 
L 86.17 111.967188 
" style="fill: none; stroke: #6c004f; stroke-width: 1.5; stroke-linecap: square"/>
    </g>
    <g id="text_26">
     <!-- DK -->
     <g transform="translate(94.17 115.467188)scale(0.1 -0.1)">
      <defs>
       <path id="DejaVuSans-4b" d="M 628 4666 
L 1259 4666 
L 1259 2694 
L 3353 4666 
L 4166 4666 
L 1850 2491 
L 4331 0 
L 3500 0 
L 1259 2247 
L 1259 0 
L 628 0 
L 628 4666 
z
" transform="scale(0.015625)"/>
      </defs>
      <use xlink:href="#DejaVuSans-44"/>
      <use xlink:href="#DejaVuSans-4b" x="77.001953"/>
     </g>
    </g>
    <g id="line2d_44">
     <path d="M 66.17 126.645312 
L 76.17 126.645312 
L 86.17 126.645312 
" style="fill: none; stroke: #583b00; stroke-width: 1.5; stroke-linecap: square"/>
    </g>
    <g id="text_27">
     <!-- EL -->
     <g transform="translate(94.17 130.145312)scale(0.1 -0.1)">
      <defs>
       <path id="DejaVuSans-4c" d="M 628 4666 
L 1259 4666 
L 1259 531 
L 3531 531 
L 3531 0 
L 628 0 
L 628 4666 
z
" transform="scale(0.015625)"/>
      </defs>
      <use xlink:href="#DejaVuSans-45"/>
      <use xlink:href="#DejaVuSans-4c" x="63.183594"/>
     </g>
    </g>
    <g id="line2d_45">
     <path d="M 66.17 141.323438 
L 76.17 141.323438 
L 86.17 141.323438 
" style="fill: none; stroke: #005759; stroke-width: 1.5; stroke-linecap: square"/>
    </g>
    <g id="text_28">
     <!-- ES -->
     <g transform="translate(94.17 144.823438)scale(0.1 -0.1)">
      <use xlink:href="#DejaVuSans-45"/>
      <use xlink:href="#DejaVuSans-53" x="63.183594"/>
     </g>
    </g>
    <g id="line2d_46">
     <path d="M 66.17 156.001562 
L 76.17 156.001562 
L 86.17 156.001562 
" style="fill: none; stroke: #0000dd; stroke-width: 1.5; stroke-linecap: square"/>
    </g>
    <g id="text_29">
     <!-- FI -->
     <g transform="translate(94.17 159.501562)scale(0.1 -0.1)">
      <defs>
       <path id="DejaVuSans-46" d="M 628 4666 
L 3309 4666 
L 3309 4134 
L 1259 4134 
L 1259 2759 
L 3109 2759 
L 3109 2228 
L 1259 2228 
L 1259 0 
L 628 0 
L 628 4666 
z
" transform="scale(0.015625)"/>
       <path id="DejaVuSans-49" d="M 628 4666 
L 1259 4666 
L 1259 0 
L 628 0 
L 628 4666 
z
" transform="scale(0.015625)"/>
      </defs>
      <use xlink:href="#DejaVuSans-46"/>
      <use xlink:href="#DejaVuSans-49" x="57.519531"/>
     </g>
    </g>
    <g id="line2d_47">
     <path d="M 128.604375 23.898438 
L 138.604375 23.898438 
L 148.604375 23.898438 
" style="fill: none; stroke: #95b578; stroke-width: 1.5; stroke-linecap: square"/>
    </g>
    <g id="text_30">
     <!-- IT -->
     <g transform="translate(156.604375 27.398438)scale(0.1 -0.1)">
      <use xlink:href="#DejaVuSans-49"/>
      <use xlink:href="#DejaVuSans-54" x="29.492188"/>
     </g>
    </g>
    <g id="line2d_48">
     <path d="M 128.604375 38.576563 
L 138.604375 38.576563 
L 148.604375 38.576563 
" style="fill: none; stroke: #c004b9; stroke-width: 1.5; stroke-linecap: square"/>
    </g>
    <g id="text_31">
     <!-- LT -->
     <g transform="translate(156.604375 42.076563)scale(0.1 -0.1)">
      <use xlink:href="#DejaVuSans-4c"/>
      <use xlink:href="#DejaVuSans-54" x="41.962891"/>
     </g>
    </g>
    <g id="line2d_49">
     <path d="M 128.604375 53.254687 
L 138.604375 53.254687 
L 148.604375 53.254687 
" style="fill: none; stroke: #0774d8; stroke-width: 1.5; stroke-linecap: square"/>
    </g>
    <g id="text_32">
     <!-- MT -->
     <g transform="translate(156.604375 56.754687)scale(0.1 -0.1)">
      <defs>
       <path id="DejaVuSans-4d" d="M 628 4666 
L 1569 4666 
L 2759 1491 
L 3956 4666 
L 4897 4666 
L 4897 0 
L 4281 0 
L 4281 4097 
L 3078 897 
L 2444 897 
L 1241 4097 
L 1241 0 
L 628 0 
L 628 4666 
z
" transform="scale(0.015625)"/>
      </defs>
      <use xlink:href="#DejaVuSans-4d"/>
      <use xlink:href="#DejaVuSans-54" x="86.279297"/>
     </g>
    </g>
    <g id="line2d_50">
     <path d="M 128.604375 67.932813 
L 138.604375 67.932813 
L 148.604375 67.932813 
" style="fill: none; stroke: #fef590; stroke-width: 1.5; stroke-linecap: square"/>
    </g>
    <g id="text_33">
     <!-- NL -->
     <g transform="translate(156.604375 71.432813)scale(0.1 -0.1)">
      <use xlink:href="#DejaVuSans-4e"/>
      <use xlink:href="#DejaVuSans-4c" x="74.804688"/>
     </g>
    </g>
    <g id="line2d_51">
     <path d="M 128.604375 82.610938 
L 138.604375 82.610938 
L 148.604375 82.610938 
" style="fill: none; stroke: #8f7a00; stroke-width: 1.5; stroke-linecap: square"/>
    </g>
    <g id="text_34">
     <!-- PT -->
     <g transform="translate(156.604375 86.110938)scale(0.1 -0.1)">
      <use xlink:href="#DejaVuSans-50"/>
      <use xlink:href="#DejaVuSans-54" x="60.302734"/>
     </g>
    </g>
    <g id="line2d_52">
     <path d="M 128.604375 97.289062 
L 138.604375 97.289062 
L 148.604375 97.289062 
" style="fill: none; stroke: #ff7266; stroke-width: 1.5; stroke-linecap: square"/>
    </g>
    <g id="text_35">
     <!-- RO -->
     <g transform="translate(156.604375 100.789062)scale(0.1 -0.1)">
      <defs>
       <path id="DejaVuSans-52" d="M 2841 2188 
Q 3044 2119 3236 1894 
Q 3428 1669 3622 1275 
L 4263 0 
L 3584 0 
L 2988 1197 
Q 2756 1666 2539 1819 
Q 2322 1972 1947 1972 
L 1259 1972 
L 1259 0 
L 628 0 
L 628 4666 
L 2053 4666 
Q 2853 4666 3247 4331 
Q 3641 3997 3641 3322 
Q 3641 2881 3436 2590 
Q 3231 2300 2841 2188 
z
M 1259 4147 
L 1259 2491 
L 2053 2491 
Q 2509 2491 2742 2702 
Q 2975 2913 2975 3322 
Q 2975 3731 2742 3939 
Q 2509 4147 2053 4147 
L 1259 4147 
z
" transform="scale(0.015625)"/>
       <path id="DejaVuSans-4f" d="M 2522 4238 
Q 1834 4238 1429 3725 
Q 1025 3213 1025 2328 
Q 1025 1447 1429 934 
Q 1834 422 2522 422 
Q 3209 422 3611 934 
Q 4013 1447 4013 2328 
Q 4013 3213 3611 3725 
Q 3209 4238 2522 4238 
z
M 2522 4750 
Q 3503 4750 4090 4092 
Q 4678 3434 4678 2328 
Q 4678 1225 4090 567 
Q 3503 -91 2522 -91 
Q 1538 -91 948 565 
Q 359 1222 359 2328 
Q 359 3434 948 4092 
Q 1538 4750 2522 4750 
z
" transform="scale(0.015625)"/>
      </defs>
      <use xlink:href="#DejaVuSans-52"/>
      <use xlink:href="#DejaVuSans-4f" x="69.482422"/>
     </g>
    </g>
    <g id="line2d_53">
     <path d="M 128.604375 111.967187 
L 138.604375 111.967187 
L 148.604375 111.967187 
" style="fill: none; stroke: #eeb9b9; stroke-width: 1.5; stroke-linecap: square"/>
    </g>
    <g id="text_36">
     <!-- SE -->
     <g transform="translate(156.604375 115.467187)scale(0.1 -0.1)">
      <use xlink:href="#DejaVuSans-53"/>
      <use xlink:href="#DejaVuSans-45" x="63.476562"/>
     </g>
    </g>
    <g id="line2d_54">
     <path d="M 128.604375 126.645312 
L 138.604375 126.645312 
L 148.604375 126.645312 
" style="fill: none; stroke: #5e7e66; stroke-width: 1.5; stroke-linecap: square"/>
    </g>
    <g id="text_37">
     <!-- SI -->
     <g transform="translate(156.604375 130.145312)scale(0.1 -0.1)">
      <use xlink:href="#DejaVuSans-53"/>
      <use xlink:href="#DejaVuSans-49" x="63.476562"/>
     </g>
    </g>
    <g id="line2d_55">
     <path d="M 128.604375 141.323437 
L 138.604375 141.323437 
L 148.604375 141.323437 
" style="fill: none; stroke: #9be4ff; stroke-width: 1.5; stroke-linecap: square"/>
    </g>
    <g id="text_38">
     <!-- SK -->
     <g transform="translate(156.604375 144.823437)scale(0.1 -0.1)">
      <use xlink:href="#DejaVuSans-53"/>
      <use xlink:href="#DejaVuSans-4b" x="63.476562"/>
     </g>
    </g>
   </g>
  </g>
 </g>
 <defs>
  <clipPath id="p32ade93f19">
   <rect x="57.17" y="10.8" width="287.49399" height="235.24"/>
  </clipPath>
 </defs>
</svg>
