<?xml version="1.0" encoding="utf-8" standalone="no"?>
<!DOCTYPE svg PUBLIC "-//W3C//DTD SVG 1.1//EN"
  "http://www.w3.org/Graphics/SVG/1.1/DTD/svg11.dtd">
<svg xmlns:xlink="http://www.w3.org/1999/xlink" width="460.8pt" height="345.6pt" viewBox="0 0 460.8 345.6" xmlns="http://www.w3.org/2000/svg" version="1.1">
 <metadata>
  <rdf:RDF xmlns:dc="http://purl.org/dc/elements/1.1/" xmlns:cc="http://creativecommons.org/ns#" xmlns:rdf="http://www.w3.org/1999/02/22-rdf-syntax-ns#">
   <cc:Work>
    <dc:type rdf:resource="http://purl.org/dc/dcmitype/StillImage"/>
    <dc:date>2024-02-02T17:08:54.076228</dc:date>
    <dc:format>image/svg+xml</dc:format>
    <dc:creator>
     <cc:Agent>
      <dc:title>Matplotlib v3.5.1, https://matplotlib.org/</dc:title>
     </cc:Agent>
    </dc:creator>
   </cc:Work>
  </rdf:RDF>
 </metadata>
 <defs>
  <style type="text/css">*{stroke-linejoin: round; stroke-linecap: butt}</style>
 </defs>
 <g id="figure_1">
  <g id="patch_1">
   <path d="M 0 345.6 
L 460.8 345.6 
L 460.8 0 
L 0 0 
L 0 345.6 
z
" style="fill: none"/>
  </g>
  <g id="axes_1">
   <g id="patch_2">
    <path d="M 57.17 303.64 
L 450 303.64 
L 450 10.8 
L 57.17 10.8 
L 57.17 303.64 
z
" style="fill: none"/>
   </g>
   <g id="matplotlib.axis_1">
    <g id="xtick_1">
     <g id="line2d_1">
      <defs>
       <path id="m97e087ee20" d="M 0 0 
L 0 3.5 
" style="stroke: #000000; stroke-width: 0.8"/>
      </defs>
      <g>
       <use xlink:href="#m97e087ee20" x="101.636083" y="303.64" style="stroke: #000000; stroke-width: 0.8"/>
      </g>
     </g>
     <g id="text_1">
      <!-- 20 -->
      <g transform="translate(95.273583 318.238437)scale(0.1 -0.1)">
       <defs>
        <path id="DejaVuSans-32" d="M 1228 531 
L 3431 531 
L 3431 0 
L 469 0 
L 469 531 
Q 828 903 1448 1529 
Q 2069 2156 2228 2338 
Q 2531 2678 2651 2914 
Q 2772 3150 2772 3378 
Q 2772 3750 2511 3984 
Q 2250 4219 1831 4219 
Q 1534 4219 1204 4116 
Q 875 4013 500 3803 
L 500 4441 
Q 881 4594 1212 4672 
Q 1544 4750 1819 4750 
Q 2544 4750 2975 4387 
Q 3406 4025 3406 3419 
Q 3406 3131 3298 2873 
Q 3191 2616 2906 2266 
Q 2828 2175 2409 1742 
Q 1991 1309 1228 531 
z
" transform="scale(0.015625)"/>
        <path id="DejaVuSans-30" d="M 2034 4250 
Q 1547 4250 1301 3770 
Q 1056 3291 1056 2328 
Q 1056 1369 1301 889 
Q 1547 409 2034 409 
Q 2525 409 2770 889 
Q 3016 1369 3016 2328 
Q 3016 3291 2770 3770 
Q 2525 4250 2034 4250 
z
M 2034 4750 
Q 2819 4750 3233 4129 
Q 3647 3509 3647 2328 
Q 3647 1150 3233 529 
Q 2819 -91 2034 -91 
Q 1250 -91 836 529 
Q 422 1150 422 2328 
Q 422 3509 836 4129 
Q 1250 4750 2034 4750 
z
" transform="scale(0.015625)"/>
       </defs>
       <use xlink:href="#DejaVuSans-32"/>
       <use xlink:href="#DejaVuSans-30" x="63.623047"/>
      </g>
     </g>
    </g>
    <g id="xtick_2">
     <g id="line2d_2">
      <g>
       <use xlink:href="#m97e087ee20" x="148.262048" y="303.64" style="stroke: #000000; stroke-width: 0.8"/>
      </g>
     </g>
     <g id="text_2">
      <!-- 40 -->
      <g transform="translate(141.899548 318.238437)scale(0.1 -0.1)">
       <defs>
        <path id="DejaVuSans-34" d="M 2419 4116 
L 825 1625 
L 2419 1625 
L 2419 4116 
z
M 2253 4666 
L 3047 4666 
L 3047 1625 
L 3713 1625 
L 3713 1100 
L 3047 1100 
L 3047 0 
L 2419 0 
L 2419 1100 
L 313 1100 
L 313 1709 
L 2253 4666 
z
" transform="scale(0.015625)"/>
       </defs>
       <use xlink:href="#DejaVuSans-34"/>
       <use xlink:href="#DejaVuSans-30" x="63.623047"/>
      </g>
     </g>
    </g>
    <g id="xtick_3">
     <g id="line2d_3">
      <g>
       <use xlink:href="#m97e087ee20" x="194.888013" y="303.64" style="stroke: #000000; stroke-width: 0.8"/>
      </g>
     </g>
     <g id="text_3">
      <!-- 60 -->
      <g transform="translate(188.525513 318.238437)scale(0.1 -0.1)">
       <defs>
        <path id="DejaVuSans-36" d="M 2113 2584 
Q 1688 2584 1439 2293 
Q 1191 2003 1191 1497 
Q 1191 994 1439 701 
Q 1688 409 2113 409 
Q 2538 409 2786 701 
Q 3034 994 3034 1497 
Q 3034 2003 2786 2293 
Q 2538 2584 2113 2584 
z
M 3366 4563 
L 3366 3988 
Q 3128 4100 2886 4159 
Q 2644 4219 2406 4219 
Q 1781 4219 1451 3797 
Q 1122 3375 1075 2522 
Q 1259 2794 1537 2939 
Q 1816 3084 2150 3084 
Q 2853 3084 3261 2657 
Q 3669 2231 3669 1497 
Q 3669 778 3244 343 
Q 2819 -91 2113 -91 
Q 1303 -91 875 529 
Q 447 1150 447 2328 
Q 447 3434 972 4092 
Q 1497 4750 2381 4750 
Q 2619 4750 2861 4703 
Q 3103 4656 3366 4563 
z
" transform="scale(0.015625)"/>
       </defs>
       <use xlink:href="#DejaVuSans-36"/>
       <use xlink:href="#DejaVuSans-30" x="63.623047"/>
      </g>
     </g>
    </g>
    <g id="xtick_4">
     <g id="line2d_4">
      <g>
       <use xlink:href="#m97e087ee20" x="241.513979" y="303.64" style="stroke: #000000; stroke-width: 0.8"/>
      </g>
     </g>
     <g id="text_4">
      <!-- 80 -->
      <g transform="translate(235.151479 318.238437)scale(0.1 -0.1)">
       <defs>
        <path id="DejaVuSans-38" d="M 2034 2216 
Q 1584 2216 1326 1975 
Q 1069 1734 1069 1313 
Q 1069 891 1326 650 
Q 1584 409 2034 409 
Q 2484 409 2743 651 
Q 3003 894 3003 1313 
Q 3003 1734 2745 1975 
Q 2488 2216 2034 2216 
z
M 1403 2484 
Q 997 2584 770 2862 
Q 544 3141 544 3541 
Q 544 4100 942 4425 
Q 1341 4750 2034 4750 
Q 2731 4750 3128 4425 
Q 3525 4100 3525 3541 
Q 3525 3141 3298 2862 
Q 3072 2584 2669 2484 
Q 3125 2378 3379 2068 
Q 3634 1759 3634 1313 
Q 3634 634 3220 271 
Q 2806 -91 2034 -91 
Q 1263 -91 848 271 
Q 434 634 434 1313 
Q 434 1759 690 2068 
Q 947 2378 1403 2484 
z
M 1172 3481 
Q 1172 3119 1398 2916 
Q 1625 2713 2034 2713 
Q 2441 2713 2670 2916 
Q 2900 3119 2900 3481 
Q 2900 3844 2670 4047 
Q 2441 4250 2034 4250 
Q 1625 4250 1398 4047 
Q 1172 3844 1172 3481 
z
" transform="scale(0.015625)"/>
       </defs>
       <use xlink:href="#DejaVuSans-38"/>
       <use xlink:href="#DejaVuSans-30" x="63.623047"/>
      </g>
     </g>
    </g>
    <g id="xtick_5">
     <g id="line2d_5">
      <g>
       <use xlink:href="#m97e087ee20" x="288.139944" y="303.64" style="stroke: #000000; stroke-width: 0.8"/>
      </g>
     </g>
     <g id="text_5">
      <!-- 100 -->
      <g transform="translate(278.596194 318.238437)scale(0.1 -0.1)">
       <defs>
        <path id="DejaVuSans-31" d="M 794 531 
L 1825 531 
L 1825 4091 
L 703 3866 
L 703 4441 
L 1819 4666 
L 2450 4666 
L 2450 531 
L 3481 531 
L 3481 0 
L 794 0 
L 794 531 
z
" transform="scale(0.015625)"/>
       </defs>
       <use xlink:href="#DejaVuSans-31"/>
       <use xlink:href="#DejaVuSans-30" x="63.623047"/>
       <use xlink:href="#DejaVuSans-30" x="127.246094"/>
      </g>
     </g>
    </g>
    <g id="xtick_6">
     <g id="line2d_6">
      <g>
       <use xlink:href="#m97e087ee20" x="334.765909" y="303.64" style="stroke: #000000; stroke-width: 0.8"/>
      </g>
     </g>
     <g id="text_6">
      <!-- 120 -->
      <g transform="translate(325.222159 318.238437)scale(0.1 -0.1)">
       <use xlink:href="#DejaVuSans-31"/>
       <use xlink:href="#DejaVuSans-32" x="63.623047"/>
       <use xlink:href="#DejaVuSans-30" x="127.246094"/>
      </g>
     </g>
    </g>
    <g id="xtick_7">
     <g id="line2d_7">
      <g>
       <use xlink:href="#m97e087ee20" x="381.391874" y="303.64" style="stroke: #000000; stroke-width: 0.8"/>
      </g>
     </g>
     <g id="text_7">
      <!-- 140 -->
      <g transform="translate(371.848124 318.238437)scale(0.1 -0.1)">
       <use xlink:href="#DejaVuSans-31"/>
       <use xlink:href="#DejaVuSans-34" x="63.623047"/>
       <use xlink:href="#DejaVuSans-30" x="127.246094"/>
      </g>
     </g>
    </g>
    <g id="xtick_8">
     <g id="line2d_8">
      <g>
       <use xlink:href="#m97e087ee20" x="428.017839" y="303.64" style="stroke: #000000; stroke-width: 0.8"/>
      </g>
     </g>
     <g id="text_8">
      <!-- 160 -->
      <g transform="translate(418.474089 318.238437)scale(0.1 -0.1)">
       <use xlink:href="#DejaVuSans-31"/>
       <use xlink:href="#DejaVuSans-36" x="63.623047"/>
       <use xlink:href="#DejaVuSans-30" x="127.246094"/>
      </g>
     </g>
    </g>
    <g id="text_9">
     <!-- Urban Density (inhabitants per 10 km²) -->
     <g transform="translate(155.056875 331.916562)scale(0.1 -0.1)">
      <defs>
       <path id="DejaVuSans-55" d="M 556 4666 
L 1191 4666 
L 1191 1831 
Q 1191 1081 1462 751 
Q 1734 422 2344 422 
Q 2950 422 3222 751 
Q 3494 1081 3494 1831 
L 3494 4666 
L 4128 4666 
L 4128 1753 
Q 4128 841 3676 375 
Q 3225 -91 2344 -91 
Q 1459 -91 1007 375 
Q 556 841 556 1753 
L 556 4666 
z
" transform="scale(0.015625)"/>
       <path id="DejaVuSans-72" d="M 2631 2963 
Q 2534 3019 2420 3045 
Q 2306 3072 2169 3072 
Q 1681 3072 1420 2755 
Q 1159 2438 1159 1844 
L 1159 0 
L 581 0 
L 581 3500 
L 1159 3500 
L 1159 2956 
Q 1341 3275 1631 3429 
Q 1922 3584 2338 3584 
Q 2397 3584 2469 3576 
Q 2541 3569 2628 3553 
L 2631 2963 
z
" transform="scale(0.015625)"/>
       <path id="DejaVuSans-62" d="M 3116 1747 
Q 3116 2381 2855 2742 
Q 2594 3103 2138 3103 
Q 1681 3103 1420 2742 
Q 1159 2381 1159 1747 
Q 1159 1113 1420 752 
Q 1681 391 2138 391 
Q 2594 391 2855 752 
Q 3116 1113 3116 1747 
z
M 1159 2969 
Q 1341 3281 1617 3432 
Q 1894 3584 2278 3584 
Q 2916 3584 3314 3078 
Q 3713 2572 3713 1747 
Q 3713 922 3314 415 
Q 2916 -91 2278 -91 
Q 1894 -91 1617 61 
Q 1341 213 1159 525 
L 1159 0 
L 581 0 
L 581 4863 
L 1159 4863 
L 1159 2969 
z
" transform="scale(0.015625)"/>
       <path id="DejaVuSans-61" d="M 2194 1759 
Q 1497 1759 1228 1600 
Q 959 1441 959 1056 
Q 959 750 1161 570 
Q 1363 391 1709 391 
Q 2188 391 2477 730 
Q 2766 1069 2766 1631 
L 2766 1759 
L 2194 1759 
z
M 3341 1997 
L 3341 0 
L 2766 0 
L 2766 531 
Q 2569 213 2275 61 
Q 1981 -91 1556 -91 
Q 1019 -91 701 211 
Q 384 513 384 1019 
Q 384 1609 779 1909 
Q 1175 2209 1959 2209 
L 2766 2209 
L 2766 2266 
Q 2766 2663 2505 2880 
Q 2244 3097 1772 3097 
Q 1472 3097 1187 3025 
Q 903 2953 641 2809 
L 641 3341 
Q 956 3463 1253 3523 
Q 1550 3584 1831 3584 
Q 2591 3584 2966 3190 
Q 3341 2797 3341 1997 
z
" transform="scale(0.015625)"/>
       <path id="DejaVuSans-6e" d="M 3513 2113 
L 3513 0 
L 2938 0 
L 2938 2094 
Q 2938 2591 2744 2837 
Q 2550 3084 2163 3084 
Q 1697 3084 1428 2787 
Q 1159 2491 1159 1978 
L 1159 0 
L 581 0 
L 581 3500 
L 1159 3500 
L 1159 2956 
Q 1366 3272 1645 3428 
Q 1925 3584 2291 3584 
Q 2894 3584 3203 3211 
Q 3513 2838 3513 2113 
z
" transform="scale(0.015625)"/>
       <path id="DejaVuSans-20" transform="scale(0.015625)"/>
       <path id="DejaVuSans-44" d="M 1259 4147 
L 1259 519 
L 2022 519 
Q 2988 519 3436 956 
Q 3884 1394 3884 2338 
Q 3884 3275 3436 3711 
Q 2988 4147 2022 4147 
L 1259 4147 
z
M 628 4666 
L 1925 4666 
Q 3281 4666 3915 4102 
Q 4550 3538 4550 2338 
Q 4550 1131 3912 565 
Q 3275 0 1925 0 
L 628 0 
L 628 4666 
z
" transform="scale(0.015625)"/>
       <path id="DejaVuSans-65" d="M 3597 1894 
L 3597 1613 
L 953 1613 
Q 991 1019 1311 708 
Q 1631 397 2203 397 
Q 2534 397 2845 478 
Q 3156 559 3463 722 
L 3463 178 
Q 3153 47 2828 -22 
Q 2503 -91 2169 -91 
Q 1331 -91 842 396 
Q 353 884 353 1716 
Q 353 2575 817 3079 
Q 1281 3584 2069 3584 
Q 2775 3584 3186 3129 
Q 3597 2675 3597 1894 
z
M 3022 2063 
Q 3016 2534 2758 2815 
Q 2500 3097 2075 3097 
Q 1594 3097 1305 2825 
Q 1016 2553 972 2059 
L 3022 2063 
z
" transform="scale(0.015625)"/>
       <path id="DejaVuSans-73" d="M 2834 3397 
L 2834 2853 
Q 2591 2978 2328 3040 
Q 2066 3103 1784 3103 
Q 1356 3103 1142 2972 
Q 928 2841 928 2578 
Q 928 2378 1081 2264 
Q 1234 2150 1697 2047 
L 1894 2003 
Q 2506 1872 2764 1633 
Q 3022 1394 3022 966 
Q 3022 478 2636 193 
Q 2250 -91 1575 -91 
Q 1294 -91 989 -36 
Q 684 19 347 128 
L 347 722 
Q 666 556 975 473 
Q 1284 391 1588 391 
Q 1994 391 2212 530 
Q 2431 669 2431 922 
Q 2431 1156 2273 1281 
Q 2116 1406 1581 1522 
L 1381 1569 
Q 847 1681 609 1914 
Q 372 2147 372 2553 
Q 372 3047 722 3315 
Q 1072 3584 1716 3584 
Q 2034 3584 2315 3537 
Q 2597 3491 2834 3397 
z
" transform="scale(0.015625)"/>
       <path id="DejaVuSans-69" d="M 603 3500 
L 1178 3500 
L 1178 0 
L 603 0 
L 603 3500 
z
M 603 4863 
L 1178 4863 
L 1178 4134 
L 603 4134 
L 603 4863 
z
" transform="scale(0.015625)"/>
       <path id="DejaVuSans-74" d="M 1172 4494 
L 1172 3500 
L 2356 3500 
L 2356 3053 
L 1172 3053 
L 1172 1153 
Q 1172 725 1289 603 
Q 1406 481 1766 481 
L 2356 481 
L 2356 0 
L 1766 0 
Q 1100 0 847 248 
Q 594 497 594 1153 
L 594 3053 
L 172 3053 
L 172 3500 
L 594 3500 
L 594 4494 
L 1172 4494 
z
" transform="scale(0.015625)"/>
       <path id="DejaVuSans-79" d="M 2059 -325 
Q 1816 -950 1584 -1140 
Q 1353 -1331 966 -1331 
L 506 -1331 
L 506 -850 
L 844 -850 
Q 1081 -850 1212 -737 
Q 1344 -625 1503 -206 
L 1606 56 
L 191 3500 
L 800 3500 
L 1894 763 
L 2988 3500 
L 3597 3500 
L 2059 -325 
z
" transform="scale(0.015625)"/>
       <path id="DejaVuSans-28" d="M 1984 4856 
Q 1566 4138 1362 3434 
Q 1159 2731 1159 2009 
Q 1159 1288 1364 580 
Q 1569 -128 1984 -844 
L 1484 -844 
Q 1016 -109 783 600 
Q 550 1309 550 2009 
Q 550 2706 781 3412 
Q 1013 4119 1484 4856 
L 1984 4856 
z
" transform="scale(0.015625)"/>
       <path id="DejaVuSans-68" d="M 3513 2113 
L 3513 0 
L 2938 0 
L 2938 2094 
Q 2938 2591 2744 2837 
Q 2550 3084 2163 3084 
Q 1697 3084 1428 2787 
Q 1159 2491 1159 1978 
L 1159 0 
L 581 0 
L 581 4863 
L 1159 4863 
L 1159 2956 
Q 1366 3272 1645 3428 
Q 1925 3584 2291 3584 
Q 2894 3584 3203 3211 
Q 3513 2838 3513 2113 
z
" transform="scale(0.015625)"/>
       <path id="DejaVuSans-70" d="M 1159 525 
L 1159 -1331 
L 581 -1331 
L 581 3500 
L 1159 3500 
L 1159 2969 
Q 1341 3281 1617 3432 
Q 1894 3584 2278 3584 
Q 2916 3584 3314 3078 
Q 3713 2572 3713 1747 
Q 3713 922 3314 415 
Q 2916 -91 2278 -91 
Q 1894 -91 1617 61 
Q 1341 213 1159 525 
z
M 3116 1747 
Q 3116 2381 2855 2742 
Q 2594 3103 2138 3103 
Q 1681 3103 1420 2742 
Q 1159 2381 1159 1747 
Q 1159 1113 1420 752 
Q 1681 391 2138 391 
Q 2594 391 2855 752 
Q 3116 1113 3116 1747 
z
" transform="scale(0.015625)"/>
       <path id="DejaVuSans-6b" d="M 581 4863 
L 1159 4863 
L 1159 1991 
L 2875 3500 
L 3609 3500 
L 1753 1863 
L 3688 0 
L 2938 0 
L 1159 1709 
L 1159 0 
L 581 0 
L 581 4863 
z
" transform="scale(0.015625)"/>
       <path id="DejaVuSans-6d" d="M 3328 2828 
Q 3544 3216 3844 3400 
Q 4144 3584 4550 3584 
Q 5097 3584 5394 3201 
Q 5691 2819 5691 2113 
L 5691 0 
L 5113 0 
L 5113 2094 
Q 5113 2597 4934 2840 
Q 4756 3084 4391 3084 
Q 3944 3084 3684 2787 
Q 3425 2491 3425 1978 
L 3425 0 
L 2847 0 
L 2847 2094 
Q 2847 2600 2669 2842 
Q 2491 3084 2119 3084 
Q 1678 3084 1418 2786 
Q 1159 2488 1159 1978 
L 1159 0 
L 581 0 
L 581 3500 
L 1159 3500 
L 1159 2956 
Q 1356 3278 1631 3431 
Q 1906 3584 2284 3584 
Q 2666 3584 2933 3390 
Q 3200 3197 3328 2828 
z
" transform="scale(0.015625)"/>
       <path id="DejaVuSans-b2" d="M 838 2444 
L 2163 2444 
L 2163 2088 
L 294 2088 
L 294 2431 
Q 400 2528 597 2703 
Q 1672 3656 1672 3950 
Q 1672 4156 1509 4282 
Q 1347 4409 1081 4409 
Q 919 4409 728 4354 
Q 538 4300 313 4191 
L 313 4575 
Q 553 4663 761 4706 
Q 969 4750 1147 4750 
Q 1600 4750 1872 4544 
Q 2144 4338 2144 4000 
Q 2144 3566 1109 2678 
Q 934 2528 838 2444 
z
" transform="scale(0.015625)"/>
       <path id="DejaVuSans-29" d="M 513 4856 
L 1013 4856 
Q 1481 4119 1714 3412 
Q 1947 2706 1947 2009 
Q 1947 1309 1714 600 
Q 1481 -109 1013 -844 
L 513 -844 
Q 928 -128 1133 580 
Q 1338 1288 1338 2009 
Q 1338 2731 1133 3434 
Q 928 4138 513 4856 
z
" transform="scale(0.015625)"/>
      </defs>
      <use xlink:href="#DejaVuSans-55"/>
      <use xlink:href="#DejaVuSans-72" x="73.193359"/>
      <use xlink:href="#DejaVuSans-62" x="114.306641"/>
      <use xlink:href="#DejaVuSans-61" x="177.783203"/>
      <use xlink:href="#DejaVuSans-6e" x="239.0625"/>
      <use xlink:href="#DejaVuSans-20" x="302.441406"/>
      <use xlink:href="#DejaVuSans-44" x="334.228516"/>
      <use xlink:href="#DejaVuSans-65" x="411.230469"/>
      <use xlink:href="#DejaVuSans-6e" x="472.753906"/>
      <use xlink:href="#DejaVuSans-73" x="536.132812"/>
      <use xlink:href="#DejaVuSans-69" x="588.232422"/>
      <use xlink:href="#DejaVuSans-74" x="616.015625"/>
      <use xlink:href="#DejaVuSans-79" x="655.224609"/>
      <use xlink:href="#DejaVuSans-20" x="714.404297"/>
      <use xlink:href="#DejaVuSans-28" x="746.191406"/>
      <use xlink:href="#DejaVuSans-69" x="785.205078"/>
      <use xlink:href="#DejaVuSans-6e" x="812.988281"/>
      <use xlink:href="#DejaVuSans-68" x="876.367188"/>
      <use xlink:href="#DejaVuSans-61" x="939.746094"/>
      <use xlink:href="#DejaVuSans-62" x="1001.025391"/>
      <use xlink:href="#DejaVuSans-69" x="1064.501953"/>
      <use xlink:href="#DejaVuSans-74" x="1092.285156"/>
      <use xlink:href="#DejaVuSans-61" x="1131.494141"/>
      <use xlink:href="#DejaVuSans-6e" x="1192.773438"/>
      <use xlink:href="#DejaVuSans-74" x="1256.152344"/>
      <use xlink:href="#DejaVuSans-73" x="1295.361328"/>
      <use xlink:href="#DejaVuSans-20" x="1347.460938"/>
      <use xlink:href="#DejaVuSans-70" x="1379.248047"/>
      <use xlink:href="#DejaVuSans-65" x="1442.724609"/>
      <use xlink:href="#DejaVuSans-72" x="1504.248047"/>
      <use xlink:href="#DejaVuSans-20" x="1545.361328"/>
      <use xlink:href="#DejaVuSans-31" x="1577.148438"/>
      <use xlink:href="#DejaVuSans-30" x="1640.771484"/>
      <use xlink:href="#DejaVuSans-20" x="1704.394531"/>
      <use xlink:href="#DejaVuSans-6b" x="1736.181641"/>
      <use xlink:href="#DejaVuSans-6d" x="1794.091797"/>
      <use xlink:href="#DejaVuSans-b2" x="1891.503906"/>
      <use xlink:href="#DejaVuSans-29" x="1931.591797"/>
     </g>
    </g>
   </g>
   <g id="matplotlib.axis_2">
    <g id="ytick_1">
     <g id="line2d_9">
      <defs>
       <path id="m55f9bb88d5" d="M 0 0 
L -3.5 0 
" style="stroke: #000000; stroke-width: 0.8"/>
      </defs>
      <g>
       <use xlink:href="#m55f9bb88d5" x="57.17" y="303.64" style="stroke: #000000; stroke-width: 0.8"/>
      </g>
     </g>
     <g id="text_10">
      <!-- 0 -->
      <g transform="translate(43.8075 307.439219)scale(0.1 -0.1)">
       <use xlink:href="#DejaVuSans-30"/>
      </g>
     </g>
    </g>
    <g id="ytick_2">
     <g id="line2d_10">
      <g>
       <use xlink:href="#m55f9bb88d5" x="57.17" y="262.967778" style="stroke: #000000; stroke-width: 0.8"/>
      </g>
     </g>
     <g id="text_11">
      <!-- 1000 -->
      <g transform="translate(24.72 266.766997)scale(0.1 -0.1)">
       <use xlink:href="#DejaVuSans-31"/>
       <use xlink:href="#DejaVuSans-30" x="63.623047"/>
       <use xlink:href="#DejaVuSans-30" x="127.246094"/>
       <use xlink:href="#DejaVuSans-30" x="190.869141"/>
      </g>
     </g>
    </g>
    <g id="ytick_3">
     <g id="line2d_11">
      <g>
       <use xlink:href="#m55f9bb88d5" x="57.17" y="222.295556" style="stroke: #000000; stroke-width: 0.8"/>
      </g>
     </g>
     <g id="text_12">
      <!-- 2000 -->
      <g transform="translate(24.72 226.094774)scale(0.1 -0.1)">
       <use xlink:href="#DejaVuSans-32"/>
       <use xlink:href="#DejaVuSans-30" x="63.623047"/>
       <use xlink:href="#DejaVuSans-30" x="127.246094"/>
       <use xlink:href="#DejaVuSans-30" x="190.869141"/>
      </g>
     </g>
    </g>
    <g id="ytick_4">
     <g id="line2d_12">
      <g>
       <use xlink:href="#m55f9bb88d5" x="57.17" y="181.623333" style="stroke: #000000; stroke-width: 0.8"/>
      </g>
     </g>
     <g id="text_13">
      <!-- 3000 -->
      <g transform="translate(24.72 185.422552)scale(0.1 -0.1)">
       <defs>
        <path id="DejaVuSans-33" d="M 2597 2516 
Q 3050 2419 3304 2112 
Q 3559 1806 3559 1356 
Q 3559 666 3084 287 
Q 2609 -91 1734 -91 
Q 1441 -91 1130 -33 
Q 819 25 488 141 
L 488 750 
Q 750 597 1062 519 
Q 1375 441 1716 441 
Q 2309 441 2620 675 
Q 2931 909 2931 1356 
Q 2931 1769 2642 2001 
Q 2353 2234 1838 2234 
L 1294 2234 
L 1294 2753 
L 1863 2753 
Q 2328 2753 2575 2939 
Q 2822 3125 2822 3475 
Q 2822 3834 2567 4026 
Q 2313 4219 1838 4219 
Q 1578 4219 1281 4162 
Q 984 4106 628 3988 
L 628 4550 
Q 988 4650 1302 4700 
Q 1616 4750 1894 4750 
Q 2613 4750 3031 4423 
Q 3450 4097 3450 3541 
Q 3450 3153 3228 2886 
Q 3006 2619 2597 2516 
z
" transform="scale(0.015625)"/>
       </defs>
       <use xlink:href="#DejaVuSans-33"/>
       <use xlink:href="#DejaVuSans-30" x="63.623047"/>
       <use xlink:href="#DejaVuSans-30" x="127.246094"/>
       <use xlink:href="#DejaVuSans-30" x="190.869141"/>
      </g>
     </g>
    </g>
    <g id="ytick_5">
     <g id="line2d_13">
      <g>
       <use xlink:href="#m55f9bb88d5" x="57.17" y="140.951111" style="stroke: #000000; stroke-width: 0.8"/>
      </g>
     </g>
     <g id="text_14">
      <!-- 4000 -->
      <g transform="translate(24.72 144.75033)scale(0.1 -0.1)">
       <use xlink:href="#DejaVuSans-34"/>
       <use xlink:href="#DejaVuSans-30" x="63.623047"/>
       <use xlink:href="#DejaVuSans-30" x="127.246094"/>
       <use xlink:href="#DejaVuSans-30" x="190.869141"/>
      </g>
     </g>
    </g>
    <g id="ytick_6">
     <g id="line2d_14">
      <g>
       <use xlink:href="#m55f9bb88d5" x="57.17" y="100.278889" style="stroke: #000000; stroke-width: 0.8"/>
      </g>
     </g>
     <g id="text_15">
      <!-- 5000 -->
      <g transform="translate(24.72 104.078108)scale(0.1 -0.1)">
       <defs>
        <path id="DejaVuSans-35" d="M 691 4666 
L 3169 4666 
L 3169 4134 
L 1269 4134 
L 1269 2991 
Q 1406 3038 1543 3061 
Q 1681 3084 1819 3084 
Q 2600 3084 3056 2656 
Q 3513 2228 3513 1497 
Q 3513 744 3044 326 
Q 2575 -91 1722 -91 
Q 1428 -91 1123 -41 
Q 819 9 494 109 
L 494 744 
Q 775 591 1075 516 
Q 1375 441 1709 441 
Q 2250 441 2565 725 
Q 2881 1009 2881 1497 
Q 2881 1984 2565 2268 
Q 2250 2553 1709 2553 
Q 1456 2553 1204 2497 
Q 953 2441 691 2322 
L 691 4666 
z
" transform="scale(0.015625)"/>
       </defs>
       <use xlink:href="#DejaVuSans-35"/>
       <use xlink:href="#DejaVuSans-30" x="63.623047"/>
       <use xlink:href="#DejaVuSans-30" x="127.246094"/>
       <use xlink:href="#DejaVuSans-30" x="190.869141"/>
      </g>
     </g>
    </g>
    <g id="ytick_7">
     <g id="line2d_15">
      <g>
       <use xlink:href="#m55f9bb88d5" x="57.17" y="59.606667" style="stroke: #000000; stroke-width: 0.8"/>
      </g>
     </g>
     <g id="text_16">
      <!-- 6000 -->
      <g transform="translate(24.72 63.405885)scale(0.1 -0.1)">
       <use xlink:href="#DejaVuSans-36"/>
       <use xlink:href="#DejaVuSans-30" x="63.623047"/>
       <use xlink:href="#DejaVuSans-30" x="127.246094"/>
       <use xlink:href="#DejaVuSans-30" x="190.869141"/>
      </g>
     </g>
    </g>
    <g id="ytick_8">
     <g id="line2d_16">
      <g>
       <use xlink:href="#m55f9bb88d5" x="57.17" y="18.934444" style="stroke: #000000; stroke-width: 0.8"/>
      </g>
     </g>
     <g id="text_17">
      <!-- 7000 -->
      <g transform="translate(24.72 22.733663)scale(0.1 -0.1)">
       <defs>
        <path id="DejaVuSans-37" d="M 525 4666 
L 3525 4666 
L 3525 4397 
L 1831 0 
L 1172 0 
L 2766 4134 
L 525 4134 
L 525 4666 
z
" transform="scale(0.015625)"/>
       </defs>
       <use xlink:href="#DejaVuSans-37"/>
       <use xlink:href="#DejaVuSans-30" x="63.623047"/>
       <use xlink:href="#DejaVuSans-30" x="127.246094"/>
       <use xlink:href="#DejaVuSans-30" x="190.869141"/>
      </g>
     </g>
    </g>
    <g id="text_18">
     <!-- Number of Burglaries -->
     <g transform="translate(18.640313 210.623906)rotate(-90)scale(0.1 -0.1)">
      <defs>
       <path id="DejaVuSans-4e" d="M 628 4666 
L 1478 4666 
L 3547 763 
L 3547 4666 
L 4159 4666 
L 4159 0 
L 3309 0 
L 1241 3903 
L 1241 0 
L 628 0 
L 628 4666 
z
" transform="scale(0.015625)"/>
       <path id="DejaVuSans-75" d="M 544 1381 
L 544 3500 
L 1119 3500 
L 1119 1403 
Q 1119 906 1312 657 
Q 1506 409 1894 409 
Q 2359 409 2629 706 
Q 2900 1003 2900 1516 
L 2900 3500 
L 3475 3500 
L 3475 0 
L 2900 0 
L 2900 538 
Q 2691 219 2414 64 
Q 2138 -91 1772 -91 
Q 1169 -91 856 284 
Q 544 659 544 1381 
z
M 1991 3584 
L 1991 3584 
z
" transform="scale(0.015625)"/>
       <path id="DejaVuSans-6f" d="M 1959 3097 
Q 1497 3097 1228 2736 
Q 959 2375 959 1747 
Q 959 1119 1226 758 
Q 1494 397 1959 397 
Q 2419 397 2687 759 
Q 2956 1122 2956 1747 
Q 2956 2369 2687 2733 
Q 2419 3097 1959 3097 
z
M 1959 3584 
Q 2709 3584 3137 3096 
Q 3566 2609 3566 1747 
Q 3566 888 3137 398 
Q 2709 -91 1959 -91 
Q 1206 -91 779 398 
Q 353 888 353 1747 
Q 353 2609 779 3096 
Q 1206 3584 1959 3584 
z
" transform="scale(0.015625)"/>
       <path id="DejaVuSans-66" d="M 2375 4863 
L 2375 4384 
L 1825 4384 
Q 1516 4384 1395 4259 
Q 1275 4134 1275 3809 
L 1275 3500 
L 2222 3500 
L 2222 3053 
L 1275 3053 
L 1275 0 
L 697 0 
L 697 3053 
L 147 3053 
L 147 3500 
L 697 3500 
L 697 3744 
Q 697 4328 969 4595 
Q 1241 4863 1831 4863 
L 2375 4863 
z
" transform="scale(0.015625)"/>
       <path id="DejaVuSans-42" d="M 1259 2228 
L 1259 519 
L 2272 519 
Q 2781 519 3026 730 
Q 3272 941 3272 1375 
Q 3272 1813 3026 2020 
Q 2781 2228 2272 2228 
L 1259 2228 
z
M 1259 4147 
L 1259 2741 
L 2194 2741 
Q 2656 2741 2882 2914 
Q 3109 3088 3109 3444 
Q 3109 3797 2882 3972 
Q 2656 4147 2194 4147 
L 1259 4147 
z
M 628 4666 
L 2241 4666 
Q 2963 4666 3353 4366 
Q 3744 4066 3744 3513 
Q 3744 3084 3544 2831 
Q 3344 2578 2956 2516 
Q 3422 2416 3680 2098 
Q 3938 1781 3938 1306 
Q 3938 681 3513 340 
Q 3088 0 2303 0 
L 628 0 
L 628 4666 
z
" transform="scale(0.015625)"/>
       <path id="DejaVuSans-67" d="M 2906 1791 
Q 2906 2416 2648 2759 
Q 2391 3103 1925 3103 
Q 1463 3103 1205 2759 
Q 947 2416 947 1791 
Q 947 1169 1205 825 
Q 1463 481 1925 481 
Q 2391 481 2648 825 
Q 2906 1169 2906 1791 
z
M 3481 434 
Q 3481 -459 3084 -895 
Q 2688 -1331 1869 -1331 
Q 1566 -1331 1297 -1286 
Q 1028 -1241 775 -1147 
L 775 -588 
Q 1028 -725 1275 -790 
Q 1522 -856 1778 -856 
Q 2344 -856 2625 -561 
Q 2906 -266 2906 331 
L 2906 616 
Q 2728 306 2450 153 
Q 2172 0 1784 0 
Q 1141 0 747 490 
Q 353 981 353 1791 
Q 353 2603 747 3093 
Q 1141 3584 1784 3584 
Q 2172 3584 2450 3431 
Q 2728 3278 2906 2969 
L 2906 3500 
L 3481 3500 
L 3481 434 
z
" transform="scale(0.015625)"/>
       <path id="DejaVuSans-6c" d="M 603 4863 
L 1178 4863 
L 1178 0 
L 603 0 
L 603 4863 
z
" transform="scale(0.015625)"/>
      </defs>
      <use xlink:href="#DejaVuSans-4e"/>
      <use xlink:href="#DejaVuSans-75" x="74.804688"/>
      <use xlink:href="#DejaVuSans-6d" x="138.183594"/>
      <use xlink:href="#DejaVuSans-62" x="235.595703"/>
      <use xlink:href="#DejaVuSans-65" x="299.072266"/>
      <use xlink:href="#DejaVuSans-72" x="360.595703"/>
      <use xlink:href="#DejaVuSans-20" x="401.708984"/>
      <use xlink:href="#DejaVuSans-6f" x="433.496094"/>
      <use xlink:href="#DejaVuSans-66" x="494.677734"/>
      <use xlink:href="#DejaVuSans-20" x="529.882812"/>
      <use xlink:href="#DejaVuSans-42" x="561.669922"/>
      <use xlink:href="#DejaVuSans-75" x="630.273438"/>
      <use xlink:href="#DejaVuSans-72" x="693.652344"/>
      <use xlink:href="#DejaVuSans-67" x="733.015625"/>
      <use xlink:href="#DejaVuSans-6c" x="796.492188"/>
      <use xlink:href="#DejaVuSans-61" x="824.275391"/>
      <use xlink:href="#DejaVuSans-72" x="885.554688"/>
      <use xlink:href="#DejaVuSans-69" x="926.667969"/>
      <use xlink:href="#DejaVuSans-65" x="954.451172"/>
      <use xlink:href="#DejaVuSans-73" x="1015.974609"/>
     </g>
    </g>
   </g>
   <g id="line2d_17">
    <path d="M 57.17 320.81417 
L 65.186939 316.379515 
L 73.203878 311.94486 
L 81.220816 307.510204 
L 89.237755 303.075549 
L 97.254694 298.640894 
L 105.271633 294.206238 
L 113.288571 289.771583 
L 121.30551 285.336928 
L 129.322449 280.902272 
L 137.339388 276.467617 
L 145.356327 272.032962 
L 153.373265 267.598306 
L 161.390204 263.163651 
L 169.407143 258.728996 
L 177.424082 254.29434 
L 185.44102 249.859685 
L 193.457959 245.42503 
L 201.474898 240.990374 
L 209.491837 236.555719 
L 217.508776 232.121064 
L 225.525714 227.686408 
L 233.542653 223.251753 
L 241.559592 218.817098 
L 249.576531 214.382442 
L 257.593469 209.947787 
L 265.610408 205.513131 
L 273.627347 201.078476 
L 281.644286 196.643821 
L 289.661224 192.209165 
L 297.678163 187.77451 
L 305.695102 183.339855 
L 313.712041 178.905199 
L 321.72898 174.470544 
L 329.745918 170.035889 
L 337.762857 165.601233 
L 345.779796 161.166578 
L 353.796735 156.731923 
L 361.813673 152.297267 
L 369.830612 147.862612 
L 377.847551 143.427957 
L 385.86449 138.993301 
L 393.881429 134.558646 
L 401.898367 130.123991 
L 409.915306 125.689335 
L 417.932245 121.25468 
L 425.949184 116.820025 
L 433.966122 112.385369 
L 441.983061 107.950714 
L 450 103.516059 
" clip-path="url(#p81988d7575)" style="fill: none; stroke: #d70000; stroke-width: 1.5; stroke-linecap: square"/>
   </g>
   <g id="line2d_18">
    <path d="M 57.17 236.511696 
L 65.186939 233.41866 
L 73.203878 230.325624 
L 81.220816 227.232589 
L 89.237755 224.139553 
L 97.254694 221.046517 
L 105.271633 217.953482 
L 113.288571 214.860446 
L 121.30551 211.76741 
L 129.322449 208.674374 
L 137.339388 205.581339 
L 145.356327 202.488303 
L 153.373265 199.395267 
L 161.390204 196.302231 
L 169.407143 193.209196 
L 177.424082 190.11616 
L 185.44102 187.023124 
L 193.457959 183.930088 
L 201.474898 180.837053 
L 209.491837 177.744017 
L 217.508776 174.650981 
L 225.525714 171.557945 
L 233.542653 168.46491 
L 241.559592 165.371874 
L 249.576531 162.278838 
L 257.593469 159.185803 
L 265.610408 156.092767 
L 273.627347 152.999731 
L 281.644286 149.906695 
L 289.661224 146.81366 
L 297.678163 143.720624 
L 305.695102 140.627588 
L 313.712041 137.534552 
L 321.72898 134.441517 
L 329.745918 131.348481 
L 337.762857 128.255445 
L 345.779796 125.162409 
L 353.796735 122.069374 
L 361.813673 118.976338 
L 369.830612 115.883302 
L 377.847551 112.790266 
L 385.86449 109.697231 
L 393.881429 106.604195 
L 401.898367 103.511159 
L 409.915306 100.418124 
L 417.932245 97.325088 
L 425.949184 94.232052 
L 433.966122 91.139016 
L 441.983061 88.045981 
L 450 84.952945 
" clip-path="url(#p81988d7575)" style="fill: none; stroke: #8c3cff; stroke-width: 1.5; stroke-linecap: square"/>
   </g>
   <g id="line2d_19">
    <path d="M 57.17 281.878075 
L 65.186939 280.98041 
L 73.203878 280.082746 
L 81.220816 279.185082 
L 89.237755 278.287418 
L 97.254694 277.389754 
L 105.271633 276.49209 
L 113.288571 275.594426 
L 121.30551 274.696761 
L 129.322449 273.799097 
L 137.339388 272.901433 
L 145.356327 272.003769 
L 153.373265 271.106105 
L 161.390204 270.208441 
L 169.407143 269.310776 
L 177.424082 268.413112 
L 185.44102 267.515448 
L 193.457959 266.617784 
L 201.474898 265.72012 
L 209.491837 264.822456 
L 217.508776 263.924792 
L 225.525714 263.027127 
L 233.542653 262.129463 
L 241.559592 261.231799 
L 249.576531 260.334135 
L 257.593469 259.436471 
L 265.610408 258.538807 
L 273.627347 257.641142 
L 281.644286 256.743478 
L 289.661224 255.845814 
L 297.678163 254.94815 
L 305.695102 254.050486 
L 313.712041 253.152822 
L 321.72898 252.255157 
L 329.745918 251.357493 
L 337.762857 250.459829 
L 345.779796 249.562165 
L 353.796735 248.664501 
L 361.813673 247.766837 
L 369.830612 246.869173 
L 377.847551 245.971508 
L 385.86449 245.073844 
L 393.881429 244.17618 
L 401.898367 243.278516 
L 409.915306 242.380852 
L 417.932245 241.483188 
L 425.949184 240.585523 
L 433.966122 239.687859 
L 441.983061 238.790195 
L 450 237.892531 
" clip-path="url(#p81988d7575)" style="fill: none; stroke: #028800; stroke-width: 1.5; stroke-linecap: square"/>
   </g>
   <g id="line2d_20">
    <path d="M 57.17 266.96118 
L 65.186939 265.887249 
L 73.203878 264.813317 
L 81.220816 263.739386 
L 89.237755 262.665455 
L 97.254694 261.591524 
L 105.271633 260.517593 
L 113.288571 259.443661 
L 121.30551 258.36973 
L 129.322449 257.295799 
L 137.339388 256.221868 
L 145.356327 255.147936 
L 153.373265 254.074005 
L 161.390204 253.000074 
L 169.407143 251.926143 
L 177.424082 250.852212 
L 185.44102 249.77828 
L 193.457959 248.704349 
L 201.474898 247.630418 
L 209.491837 246.556487 
L 217.508776 245.482555 
L 225.525714 244.408624 
L 233.542653 243.334693 
L 241.559592 242.260762 
L 249.576531 241.18683 
L 257.593469 240.112899 
L 265.610408 239.038968 
L 273.627347 237.965037 
L 281.644286 236.891106 
L 289.661224 235.817174 
L 297.678163 234.743243 
L 305.695102 233.669312 
L 313.712041 232.595381 
L 321.72898 231.521449 
L 329.745918 230.447518 
L 337.762857 229.373587 
L 345.779796 228.299656 
L 353.796735 227.225724 
L 361.813673 226.151793 
L 369.830612 225.077862 
L 377.847551 224.003931 
L 385.86449 222.93 
L 393.881429 221.856068 
L 401.898367 220.782137 
L 409.915306 219.708206 
L 417.932245 218.634275 
L 425.949184 217.560343 
L 433.966122 216.486412 
L 441.983061 215.412481 
L 450 214.33855 
" clip-path="url(#p81988d7575)" style="fill: none; stroke: #00acc7; stroke-width: 1.5; stroke-linecap: square"/>
   </g>
   <g id="line2d_21">
    <path d="M 57.17 277.497839 
L 65.186939 277.534979 
L 73.203878 277.57212 
L 81.220816 277.609261 
L 89.237755 277.646401 
L 97.254694 277.683542 
L 105.271633 277.720683 
L 113.288571 277.757823 
L 121.30551 277.794964 
L 129.322449 277.832105 
L 137.339388 277.869246 
L 145.356327 277.906386 
L 153.373265 277.943527 
L 161.390204 277.980668 
L 169.407143 278.017808 
L 177.424082 278.054949 
L 185.44102 278.09209 
L 193.457959 278.12923 
L 201.474898 278.166371 
L 209.491837 278.203512 
L 217.508776 278.240652 
L 225.525714 278.277793 
L 233.542653 278.314934 
L 241.559592 278.352074 
L 249.576531 278.389215 
L 257.593469 278.426356 
L 265.610408 278.463496 
L 273.627347 278.500637 
L 281.644286 278.537778 
L 289.661224 278.574919 
L 297.678163 278.612059 
L 305.695102 278.6492 
L 313.712041 278.686341 
L 321.72898 278.723481 
L 329.745918 278.760622 
L 337.762857 278.797763 
L 345.779796 278.834903 
L 353.796735 278.872044 
L 361.813673 278.909185 
L 369.830612 278.946325 
L 377.847551 278.983466 
L 385.86449 279.020607 
L 393.881429 279.057747 
L 401.898367 279.094888 
L 409.915306 279.132029 
L 417.932245 279.169169 
L 425.949184 279.20631 
L 433.966122 279.243451 
L 441.983061 279.280592 
L 450 279.317732 
" clip-path="url(#p81988d7575)" style="fill: none; stroke: #98ff00; stroke-width: 1.5; stroke-linecap: square"/>
   </g>
   <g id="line2d_22">
    <path d="M 57.17 179.90211 
L 65.186939 178.482394 
L 73.203878 177.062678 
L 81.220816 175.642962 
L 89.237755 174.223246 
L 97.254694 172.80353 
L 105.271633 171.383814 
L 113.288571 169.964098 
L 121.30551 168.544382 
L 129.322449 167.124666 
L 137.339388 165.70495 
L 145.356327 164.285234 
L 153.373265 162.865518 
L 161.390204 161.445802 
L 169.407143 160.026086 
L 177.424082 158.60637 
L 185.44102 157.186654 
L 193.457959 155.766938 
L 201.474898 154.347222 
L 209.491837 152.927506 
L 217.508776 151.50779 
L 225.525714 150.088074 
L 233.542653 148.668358 
L 241.559592 147.248642 
L 249.576531 145.828926 
L 257.593469 144.40921 
L 265.610408 142.989494 
L 273.627347 141.569778 
L 281.644286 140.150062 
L 289.661224 138.730346 
L 297.678163 137.31063 
L 305.695102 135.890914 
L 313.712041 134.471198 
L 321.72898 133.051482 
L 329.745918 131.631766 
L 337.762857 130.21205 
L 345.779796 128.792333 
L 353.796735 127.372617 
L 361.813673 125.952901 
L 369.830612 124.533185 
L 377.847551 123.113469 
L 385.86449 121.693753 
L 393.881429 120.274037 
L 401.898367 118.854321 
L 409.915306 117.434605 
L 417.932245 116.014889 
L 425.949184 114.595173 
L 433.966122 113.175457 
L 441.983061 111.755741 
L 450 110.336025 
" clip-path="url(#p81988d7575)" style="fill: none; stroke: #ff7fd1; stroke-width: 1.5; stroke-linecap: square"/>
   </g>
   <g id="line2d_23">
    <path d="M 57.17 -0.369768 
L 60.181566 -1 
" clip-path="url(#p81988d7575)" style="fill: none; stroke: #6c004f; stroke-width: 1.5; stroke-linecap: square"/>
   </g>
   <g id="line2d_24">
    <path d="M 57.17 272.317178 
L 65.186939 271.295354 
L 73.203878 270.27353 
L 81.220816 269.251706 
L 89.237755 268.229882 
L 97.254694 267.208057 
L 105.271633 266.186233 
L 113.288571 265.164409 
L 121.30551 264.142585 
L 129.322449 263.120761 
L 137.339388 262.098937 
L 145.356327 261.077113 
L 153.373265 260.055289 
L 161.390204 259.033465 
L 169.407143 258.011641 
L 177.424082 256.989817 
L 185.44102 255.967993 
L 193.457959 254.946169 
L 201.474898 253.924345 
L 209.491837 252.902521 
L 217.508776 251.880696 
L 225.525714 250.858872 
L 233.542653 249.837048 
L 241.559592 248.815224 
L 249.576531 247.7934 
L 257.593469 246.771576 
L 265.610408 245.749752 
L 273.627347 244.727928 
L 281.644286 243.706104 
L 289.661224 242.68428 
L 297.678163 241.662456 
L 305.695102 240.640632 
L 313.712041 239.618808 
L 321.72898 238.596984 
L 329.745918 237.575159 
L 337.762857 236.553335 
L 345.779796 235.531511 
L 353.796735 234.509687 
L 361.813673 233.487863 
L 369.830612 232.466039 
L 377.847551 231.444215 
L 385.86449 230.422391 
L 393.881429 229.400567 
L 401.898367 228.378743 
L 409.915306 227.356919 
L 417.932245 226.335095 
L 425.949184 225.313271 
L 433.966122 224.291447 
L 441.983061 223.269623 
L 450 222.247798 
" clip-path="url(#p81988d7575)" style="fill: none; stroke: #583b00; stroke-width: 1.5; stroke-linecap: square"/>
   </g>
   <g id="line2d_25">
    <path d="M 57.17 133.731687 
L 65.186939 132.486655 
L 73.203878 131.241624 
L 81.220816 129.996592 
L 89.237755 128.751561 
L 97.254694 127.506529 
L 105.271633 126.261498 
L 113.288571 125.016466 
L 121.30551 123.771435 
L 129.322449 122.526403 
L 137.339388 121.281372 
L 145.356327 120.036341 
L 153.373265 118.791309 
L 161.390204 117.546278 
L 169.407143 116.301246 
L 177.424082 115.056215 
L 185.44102 113.811183 
L 193.457959 112.566152 
L 201.474898 111.32112 
L 209.491837 110.076089 
L 217.508776 108.831057 
L 225.525714 107.586026 
L 233.542653 106.340994 
L 241.559592 105.095963 
L 249.576531 103.850931 
L 257.593469 102.6059 
L 265.610408 101.360869 
L 273.627347 100.115837 
L 281.644286 98.870806 
L 289.661224 97.625774 
L 297.678163 96.380743 
L 305.695102 95.135711 
L 313.712041 93.89068 
L 321.72898 92.645648 
L 329.745918 91.400617 
L 337.762857 90.155585 
L 345.779796 88.910554 
L 353.796735 87.665522 
L 361.813673 86.420491 
L 369.830612 85.175459 
L 377.847551 83.930428 
L 385.86449 82.685397 
L 393.881429 81.440365 
L 401.898367 80.195334 
L 409.915306 78.950302 
L 417.932245 77.705271 
L 425.949184 76.460239 
L 433.966122 75.215208 
L 441.983061 73.970176 
L 450 72.725145 
" clip-path="url(#p81988d7575)" style="fill: none; stroke: #005759; stroke-width: 1.5; stroke-linecap: square"/>
   </g>
   <g id="line2d_26">
    <path d="M 57.17 298.056804 
L 65.186939 297.326955 
L 73.203878 296.597106 
L 81.220816 295.867258 
L 89.237755 295.137409 
L 97.254694 294.40756 
L 105.271633 293.677711 
L 113.288571 292.947863 
L 121.30551 292.218014 
L 129.322449 291.488165 
L 137.339388 290.758317 
L 145.356327 290.028468 
L 153.373265 289.298619 
L 161.390204 288.56877 
L 169.407143 287.838922 
L 177.424082 287.109073 
L 185.44102 286.379224 
L 193.457959 285.649376 
L 201.474898 284.919527 
L 209.491837 284.189678 
L 217.508776 283.45983 
L 225.525714 282.729981 
L 233.542653 282.000132 
L 241.559592 281.270283 
L 249.576531 280.540435 
L 257.593469 279.810586 
L 265.610408 279.080737 
L 273.627347 278.350889 
L 281.644286 277.62104 
L 289.661224 276.891191 
L 297.678163 276.161343 
L 305.695102 275.431494 
L 313.712041 274.701645 
L 321.72898 273.971796 
L 329.745918 273.241948 
L 337.762857 272.512099 
L 345.779796 271.78225 
L 353.796735 271.052402 
L 361.813673 270.322553 
L 369.830612 269.592704 
L 377.847551 268.862855 
L 385.86449 268.133007 
L 393.881429 267.403158 
L 401.898367 266.673309 
L 409.915306 265.943461 
L 417.932245 265.213612 
L 425.949184 264.483763 
L 433.966122 263.753915 
L 441.983061 263.024066 
L 450 262.294217 
" clip-path="url(#p81988d7575)" style="fill: none; stroke: #0000dd; stroke-width: 1.5; stroke-linecap: square"/>
   </g>
   <g id="line2d_27">
    <path d="M 57.17 204.909863 
L 65.186939 206.212511 
L 73.203878 207.515158 
L 81.220816 208.817806 
L 89.237755 210.120453 
L 97.254694 211.423101 
L 105.271633 212.725749 
L 113.288571 214.028396 
L 121.30551 215.331044 
L 129.322449 216.633691 
L 137.339388 217.936339 
L 145.356327 219.238987 
L 153.373265 220.541634 
L 161.390204 221.844282 
L 169.407143 223.146929 
L 177.424082 224.449577 
L 185.44102 225.752224 
L 193.457959 227.054872 
L 201.474898 228.35752 
L 209.491837 229.660167 
L 217.508776 230.962815 
L 225.525714 232.265462 
L 233.542653 233.56811 
L 241.559592 234.870757 
L 249.576531 236.173405 
L 257.593469 237.476053 
L 265.610408 238.7787 
L 273.627347 240.081348 
L 281.644286 241.383995 
L 289.661224 242.686643 
L 297.678163 243.989291 
L 305.695102 245.291938 
L 313.712041 246.594586 
L 321.72898 247.897233 
L 329.745918 249.199881 
L 337.762857 250.502528 
L 345.779796 251.805176 
L 353.796735 253.107824 
L 361.813673 254.410471 
L 369.830612 255.713119 
L 377.847551 257.015766 
L 385.86449 258.318414 
L 393.881429 259.621062 
L 401.898367 260.923709 
L 409.915306 262.226357 
L 417.932245 263.529004 
L 425.949184 264.831652 
L 433.966122 266.134299 
L 441.983061 267.436947 
L 450 268.739595 
" clip-path="url(#p81988d7575)" style="fill: none; stroke: #95b578; stroke-width: 1.5; stroke-linecap: square"/>
   </g>
   <g id="line2d_28">
    <path d="M 57.17 302.948743 
L 65.186939 301.65827 
L 73.203878 300.367797 
L 81.220816 299.077324 
L 89.237755 297.786851 
L 97.254694 296.496378 
L 105.271633 295.205905 
L 113.288571 293.915432 
L 121.30551 292.624959 
L 129.322449 291.334486 
L 137.339388 290.044013 
L 145.356327 288.75354 
L 153.373265 287.463068 
L 161.390204 286.172595 
L 169.407143 284.882122 
L 177.424082 283.591649 
L 185.44102 282.301176 
L 193.457959 281.010703 
L 201.474898 279.72023 
L 209.491837 278.429757 
L 217.508776 277.139284 
L 225.525714 275.848811 
L 233.542653 274.558338 
L 241.559592 273.267865 
L 249.576531 271.977392 
L 257.593469 270.686919 
L 265.610408 269.396446 
L 273.627347 268.105973 
L 281.644286 266.8155 
L 289.661224 265.525028 
L 297.678163 264.234555 
L 305.695102 262.944082 
L 313.712041 261.653609 
L 321.72898 260.363136 
L 329.745918 259.072663 
L 337.762857 257.78219 
L 345.779796 256.491717 
L 353.796735 255.201244 
L 361.813673 253.910771 
L 369.830612 252.620298 
L 377.847551 251.329825 
L 385.86449 250.039352 
L 393.881429 248.748879 
L 401.898367 247.458406 
L 409.915306 246.167933 
L 417.932245 244.87746 
L 425.949184 243.586988 
L 433.966122 242.296515 
L 441.983061 241.006042 
L 450 239.715569 
" clip-path="url(#p81988d7575)" style="fill: none; stroke: #c004b9; stroke-width: 1.5; stroke-linecap: square"/>
   </g>
   <g id="line2d_29">
    <path d="M 57.17 283.186827 
L 65.186939 282.430961 
L 73.203878 281.675094 
L 81.220816 280.919228 
L 89.237755 280.163362 
L 97.254694 279.407496 
L 105.271633 278.651629 
L 113.288571 277.895763 
L 121.30551 277.139897 
L 129.322449 276.384031 
L 137.339388 275.628164 
L 145.356327 274.872298 
L 153.373265 274.116432 
L 161.390204 273.360565 
L 169.407143 272.604699 
L 177.424082 271.848833 
L 185.44102 271.092967 
L 193.457959 270.3371 
L 201.474898 269.581234 
L 209.491837 268.825368 
L 217.508776 268.069502 
L 225.525714 267.313635 
L 233.542653 266.557769 
L 241.559592 265.801903 
L 249.576531 265.046037 
L 257.593469 264.29017 
L 265.610408 263.534304 
L 273.627347 262.778438 
L 281.644286 262.022572 
L 289.661224 261.266705 
L 297.678163 260.510839 
L 305.695102 259.754973 
L 313.712041 258.999106 
L 321.72898 258.24324 
L 329.745918 257.487374 
L 337.762857 256.731508 
L 345.779796 255.975641 
L 353.796735 255.219775 
L 361.813673 254.463909 
L 369.830612 253.708043 
L 377.847551 252.952176 
L 385.86449 252.19631 
L 393.881429 251.440444 
L 401.898367 250.684578 
L 409.915306 249.928711 
L 417.932245 249.172845 
L 425.949184 248.416979 
L 433.966122 247.661112 
L 441.983061 246.905246 
L 450 246.14938 
" clip-path="url(#p81988d7575)" style="fill: none; stroke: #0774d8; stroke-width: 1.5; stroke-linecap: square"/>
   </g>
   <g id="line2d_30">
    <path d="M 57.17 252.032706 
L 65.186939 252.082882 
L 73.203878 252.133058 
L 81.220816 252.183233 
L 89.237755 252.233409 
L 97.254694 252.283585 
L 105.271633 252.333761 
L 113.288571 252.383937 
L 121.30551 252.434112 
L 129.322449 252.484288 
L 137.339388 252.534464 
L 145.356327 252.58464 
L 153.373265 252.634816 
L 161.390204 252.684991 
L 169.407143 252.735167 
L 177.424082 252.785343 
L 185.44102 252.835519 
L 193.457959 252.885694 
L 201.474898 252.93587 
L 209.491837 252.986046 
L 217.508776 253.036222 
L 225.525714 253.086398 
L 233.542653 253.136573 
L 241.559592 253.186749 
L 249.576531 253.236925 
L 257.593469 253.287101 
L 265.610408 253.337277 
L 273.627347 253.387452 
L 281.644286 253.437628 
L 289.661224 253.487804 
L 297.678163 253.53798 
L 305.695102 253.588155 
L 313.712041 253.638331 
L 321.72898 253.688507 
L 329.745918 253.738683 
L 337.762857 253.788859 
L 345.779796 253.839034 
L 353.796735 253.88921 
L 361.813673 253.939386 
L 369.830612 253.989562 
L 377.847551 254.039738 
L 385.86449 254.089913 
L 393.881429 254.140089 
L 401.898367 254.190265 
L 409.915306 254.240441 
L 417.932245 254.290616 
L 425.949184 254.340792 
L 433.966122 254.390968 
L 441.983061 254.441144 
L 450 254.49132 
" clip-path="url(#p81988d7575)" style="fill: none; stroke: #fef590; stroke-width: 1.5; stroke-linecap: square"/>
   </g>
   <g id="line2d_31">
    <path d="M 57.17 245.742437 
L 65.186939 245.770006 
L 73.203878 245.797575 
L 81.220816 245.825144 
L 89.237755 245.852713 
L 97.254694 245.880282 
L 105.271633 245.907851 
L 113.288571 245.93542 
L 121.30551 245.962989 
L 129.322449 245.990558 
L 137.339388 246.018127 
L 145.356327 246.045696 
L 153.373265 246.073265 
L 161.390204 246.100834 
L 169.407143 246.128403 
L 177.424082 246.155972 
L 185.44102 246.183541 
L 193.457959 246.21111 
L 201.474898 246.238679 
L 209.491837 246.266248 
L 217.508776 246.293817 
L 225.525714 246.321386 
L 233.542653 246.348955 
L 241.559592 246.376524 
L 249.576531 246.404093 
L 257.593469 246.431662 
L 265.610408 246.459231 
L 273.627347 246.4868 
L 281.644286 246.514369 
L 289.661224 246.541938 
L 297.678163 246.569507 
L 305.695102 246.597076 
L 313.712041 246.624645 
L 321.72898 246.652214 
L 329.745918 246.679783 
L 337.762857 246.707352 
L 345.779796 246.734921 
L 353.796735 246.76249 
L 361.813673 246.790059 
L 369.830612 246.817628 
L 377.847551 246.845197 
L 385.86449 246.872766 
L 393.881429 246.900335 
L 401.898367 246.927904 
L 409.915306 246.955473 
L 417.932245 246.983042 
L 425.949184 247.010611 
L 433.966122 247.03818 
L 441.983061 247.065749 
L 450 247.093318 
" clip-path="url(#p81988d7575)" style="fill: none; stroke: #8f7a00; stroke-width: 1.5; stroke-linecap: square"/>
   </g>
   <g id="line2d_32">
    <path d="M 57.17 246.920291 
L 65.186939 247.784475 
L 73.203878 248.648658 
L 81.220816 249.512842 
L 89.237755 250.377025 
L 97.254694 251.241208 
L 105.271633 252.105392 
L 113.288571 252.969575 
L 121.30551 253.833759 
L 129.322449 254.697942 
L 137.339388 255.562126 
L 145.356327 256.426309 
L 153.373265 257.290493 
L 161.390204 258.154676 
L 169.407143 259.018859 
L 177.424082 259.883043 
L 185.44102 260.747226 
L 193.457959 261.61141 
L 201.474898 262.475593 
L 209.491837 263.339777 
L 217.508776 264.20396 
L 225.525714 265.068144 
L 233.542653 265.932327 
L 241.559592 266.79651 
L 249.576531 267.660694 
L 257.593469 268.524877 
L 265.610408 269.389061 
L 273.627347 270.253244 
L 281.644286 271.117428 
L 289.661224 271.981611 
L 297.678163 272.845795 
L 305.695102 273.709978 
L 313.712041 274.574161 
L 321.72898 275.438345 
L 329.745918 276.302528 
L 337.762857 277.166712 
L 345.779796 278.030895 
L 353.796735 278.895079 
L 361.813673 279.759262 
L 369.830612 280.623445 
L 377.847551 281.487629 
L 385.86449 282.351812 
L 393.881429 283.215996 
L 401.898367 284.080179 
L 409.915306 284.944363 
L 417.932245 285.808546 
L 425.949184 286.67273 
L 433.966122 287.536913 
L 441.983061 288.401096 
L 450 289.26528 
" clip-path="url(#p81988d7575)" style="fill: none; stroke: #ff7266; stroke-width: 1.5; stroke-linecap: square"/>
   </g>
   <g id="line2d_33">
    <path d="M 57.17 173.966837 
L 65.186939 169.698553 
L 73.203878 165.430268 
L 81.220816 161.161984 
L 89.237755 156.893699 
L 97.254694 152.625415 
L 105.271633 148.35713 
L 113.288571 144.088846 
L 121.30551 139.820561 
L 129.322449 135.552277 
L 137.339388 131.283992 
L 145.356327 127.015708 
L 153.373265 122.747423 
L 161.390204 118.479139 
L 169.407143 114.210854 
L 177.424082 109.94257 
L 185.44102 105.674285 
L 193.457959 101.406001 
L 201.474898 97.137716 
L 209.491837 92.869432 
L 217.508776 88.601147 
L 225.525714 84.332863 
L 233.542653 80.064578 
L 241.559592 75.796294 
L 249.576531 71.528009 
L 257.593469 67.259725 
L 265.610408 62.99144 
L 273.627347 58.723156 
L 281.644286 54.454871 
L 289.661224 50.186587 
L 297.678163 45.918302 
L 305.695102 41.650018 
L 313.712041 37.381733 
L 321.72898 33.113449 
L 329.745918 28.845164 
L 337.762857 24.57688 
L 345.779796 20.308595 
L 353.796735 16.040311 
L 361.813673 11.772026 
L 369.830612 7.503742 
L 377.847551 3.235457 
L 385.802832 -1 
" clip-path="url(#p81988d7575)" style="fill: none; stroke: #eeb9b9; stroke-width: 1.5; stroke-linecap: square"/>
   </g>
   <g id="line2d_34">
    <path d="M 57.17 272.450341 
L 65.186939 270.947655 
L 73.203878 269.44497 
L 81.220816 267.942284 
L 89.237755 266.439598 
L 97.254694 264.936912 
L 105.271633 263.434227 
L 113.288571 261.931541 
L 121.30551 260.428855 
L 129.322449 258.926169 
L 137.339388 257.423484 
L 145.356327 255.920798 
L 153.373265 254.418112 
L 161.390204 252.915426 
L 169.407143 251.41274 
L 177.424082 249.910055 
L 185.44102 248.407369 
L 193.457959 246.904683 
L 201.474898 245.401997 
L 209.491837 243.899312 
L 217.508776 242.396626 
L 225.525714 240.89394 
L 233.542653 239.391254 
L 241.559592 237.888568 
L 249.576531 236.385883 
L 257.593469 234.883197 
L 265.610408 233.380511 
L 273.627347 231.877825 
L 281.644286 230.37514 
L 289.661224 228.872454 
L 297.678163 227.369768 
L 305.695102 225.867082 
L 313.712041 224.364397 
L 321.72898 222.861711 
L 329.745918 221.359025 
L 337.762857 219.856339 
L 345.779796 218.353653 
L 353.796735 216.850968 
L 361.813673 215.348282 
L 369.830612 213.845596 
L 377.847551 212.34291 
L 385.86449 210.840225 
L 393.881429 209.337539 
L 401.898367 207.834853 
L 409.915306 206.332167 
L 417.932245 204.829481 
L 425.949184 203.326796 
L 433.966122 201.82411 
L 441.983061 200.321424 
L 450 198.818738 
" clip-path="url(#p81988d7575)" style="fill: none; stroke: #5e7e66; stroke-width: 1.5; stroke-linecap: square"/>
   </g>
   <g id="line2d_35">
    <path d="M 57.17 338.310067 
L 65.186939 337.786992 
L 73.203878 337.263916 
L 81.220816 336.74084 
L 89.237755 336.217765 
L 97.254694 335.694689 
L 105.271633 335.171613 
L 113.288571 334.648537 
L 121.30551 334.125462 
L 129.322449 333.602386 
L 137.339388 333.07931 
L 145.356327 332.556235 
L 153.373265 332.033159 
L 161.390204 331.510083 
L 169.407143 330.987008 
L 177.424082 330.463932 
L 185.44102 329.940856 
L 193.457959 329.41778 
L 201.474898 328.894705 
L 209.491837 328.371629 
L 217.508776 327.848553 
L 225.525714 327.325478 
L 233.542653 326.802402 
L 241.559592 326.279326 
L 249.576531 325.756251 
L 257.593469 325.233175 
L 265.610408 324.710099 
L 273.627347 324.187023 
L 281.644286 323.663948 
L 289.661224 323.140872 
L 297.678163 322.617796 
L 305.695102 322.094721 
L 313.712041 321.571645 
L 321.72898 321.048569 
L 329.745918 320.525493 
L 337.762857 320.002418 
L 345.779796 319.479342 
L 353.796735 318.956266 
L 361.813673 318.433191 
L 369.830612 317.910115 
L 377.847551 317.387039 
L 385.86449 316.863964 
L 393.881429 316.340888 
L 401.898367 315.817812 
L 409.915306 315.294736 
L 417.932245 314.771661 
L 425.949184 314.248585 
L 433.966122 313.725509 
L 441.983061 313.202434 
L 450 312.679358 
" clip-path="url(#p81988d7575)" style="fill: none; stroke: #9be4ff; stroke-width: 1.5; stroke-linecap: square"/>
   </g>
   <g id="patch_3">
    <path d="M 57.17 303.64 
L 57.17 10.8 
" style="fill: none; stroke: #000000; stroke-width: 0.8; stroke-linejoin: miter; stroke-linecap: square"/>
   </g>
   <g id="patch_4">
    <path d="M 450 303.64 
L 450 10.8 
" style="fill: none; stroke: #000000; stroke-width: 0.8; stroke-linejoin: miter; stroke-linecap: square"/>
   </g>
   <g id="patch_5">
    <path d="M 57.17 303.64 
L 450 303.64 
" style="fill: none; stroke: #000000; stroke-width: 0.8; stroke-linejoin: miter; stroke-linecap: square"/>
   </g>
   <g id="patch_6">
    <path d="M 57.17 10.8 
L 450 10.8 
" style="fill: none; stroke: #000000; stroke-width: 0.8; stroke-linejoin: miter; stroke-linecap: square"/>
   </g>
   <g id="legend_1">
    <g id="patch_7">
     <path d="M 64.17 165.58125 
L 173.424688 165.58125 
Q 175.424688 165.58125 175.424688 163.58125 
L 175.424688 17.8 
Q 175.424688 15.8 173.424688 15.8 
L 64.17 15.8 
Q 62.17 15.8 62.17 17.8 
L 62.17 163.58125 
Q 62.17 165.58125 64.17 165.58125 
z
" style="fill: #ffffff; opacity: 0.8; stroke: #cccccc; stroke-linejoin: miter"/>
    </g>
    <g id="line2d_36">
     <path d="M 66.17 23.898438 
L 76.17 23.898438 
L 86.17 23.898438 
" style="fill: none; stroke: #d70000; stroke-width: 1.5; stroke-linecap: square"/>
    </g>
    <g id="text_19">
     <!-- AT -->
     <g transform="translate(94.17 27.398438)scale(0.1 -0.1)">
      <defs>
       <path id="DejaVuSans-41" d="M 2188 4044 
L 1331 1722 
L 3047 1722 
L 2188 4044 
z
M 1831 4666 
L 2547 4666 
L 4325 0 
L 3669 0 
L 3244 1197 
L 1141 1197 
L 716 0 
L 50 0 
L 1831 4666 
z
" transform="scale(0.015625)"/>
       <path id="DejaVuSans-54" d="M -19 4666 
L 3928 4666 
L 3928 4134 
L 2272 4134 
L 2272 0 
L 1638 0 
L 1638 4134 
L -19 4134 
L -19 4666 
z
" transform="scale(0.015625)"/>
      </defs>
      <use xlink:href="#DejaVuSans-41"/>
      <use xlink:href="#DejaVuSans-54" x="60.658203"/>
     </g>
    </g>
    <g id="line2d_37">
     <path d="M 66.17 38.576563 
L 76.17 38.576563 
L 86.17 38.576563 
" style="fill: none; stroke: #8c3cff; stroke-width: 1.5; stroke-linecap: square"/>
    </g>
    <g id="text_20">
     <!-- BE -->
     <g transform="translate(94.17 42.076563)scale(0.1 -0.1)">
      <defs>
       <path id="DejaVuSans-45" d="M 628 4666 
L 3578 4666 
L 3578 4134 
L 1259 4134 
L 1259 2753 
L 3481 2753 
L 3481 2222 
L 1259 2222 
L 1259 531 
L 3634 531 
L 3634 0 
L 628 0 
L 628 4666 
z
" transform="scale(0.015625)"/>
      </defs>
      <use xlink:href="#DejaVuSans-42"/>
      <use xlink:href="#DejaVuSans-45" x="68.603516"/>
     </g>
    </g>
    <g id="line2d_38">
     <path d="M 66.17 53.254688 
L 76.17 53.254688 
L 86.17 53.254688 
" style="fill: none; stroke: #028800; stroke-width: 1.5; stroke-linecap: square"/>
    </g>
    <g id="text_21">
     <!-- BG -->
     <g transform="translate(94.17 56.754688)scale(0.1 -0.1)">
      <defs>
       <path id="DejaVuSans-47" d="M 3809 666 
L 3809 1919 
L 2778 1919 
L 2778 2438 
L 4434 2438 
L 4434 434 
Q 4069 175 3628 42 
Q 3188 -91 2688 -91 
Q 1594 -91 976 548 
Q 359 1188 359 2328 
Q 359 3472 976 4111 
Q 1594 4750 2688 4750 
Q 3144 4750 3555 4637 
Q 3966 4525 4313 4306 
L 4313 3634 
Q 3963 3931 3569 4081 
Q 3175 4231 2741 4231 
Q 1884 4231 1454 3753 
Q 1025 3275 1025 2328 
Q 1025 1384 1454 906 
Q 1884 428 2741 428 
Q 3075 428 3337 486 
Q 3600 544 3809 666 
z
" transform="scale(0.015625)"/>
      </defs>
      <use xlink:href="#DejaVuSans-42"/>
      <use xlink:href="#DejaVuSans-47" x="66.853516"/>
     </g>
    </g>
    <g id="line2d_39">
     <path d="M 66.17 67.932813 
L 76.17 67.932813 
L 86.17 67.932813 
" style="fill: none; stroke: #00acc7; stroke-width: 1.5; stroke-linecap: square"/>
    </g>
    <g id="text_22">
     <!-- CY -->
     <g transform="translate(94.17 71.432813)scale(0.1 -0.1)">
      <defs>
       <path id="DejaVuSans-43" d="M 4122 4306 
L 4122 3641 
Q 3803 3938 3442 4084 
Q 3081 4231 2675 4231 
Q 1875 4231 1450 3742 
Q 1025 3253 1025 2328 
Q 1025 1406 1450 917 
Q 1875 428 2675 428 
Q 3081 428 3442 575 
Q 3803 722 4122 1019 
L 4122 359 
Q 3791 134 3420 21 
Q 3050 -91 2638 -91 
Q 1578 -91 968 557 
Q 359 1206 359 2328 
Q 359 3453 968 4101 
Q 1578 4750 2638 4750 
Q 3056 4750 3426 4639 
Q 3797 4528 4122 4306 
z
" transform="scale(0.015625)"/>
       <path id="DejaVuSans-59" d="M -13 4666 
L 666 4666 
L 1959 2747 
L 3244 4666 
L 3922 4666 
L 2272 2222 
L 2272 0 
L 1638 0 
L 1638 2222 
L -13 4666 
z
" transform="scale(0.015625)"/>
      </defs>
      <use xlink:href="#DejaVuSans-43"/>
      <use xlink:href="#DejaVuSans-59" x="68.074219"/>
     </g>
    </g>
    <g id="line2d_40">
     <path d="M 66.17 82.610938 
L 76.17 82.610938 
L 86.17 82.610938 
" style="fill: none; stroke: #98ff00; stroke-width: 1.5; stroke-linecap: square"/>
    </g>
    <g id="text_23">
     <!-- CZ -->
     <g transform="translate(94.17 86.110938)scale(0.1 -0.1)">
      <defs>
       <path id="DejaVuSans-5a" d="M 359 4666 
L 4025 4666 
L 4025 4184 
L 1075 531 
L 4097 531 
L 4097 0 
L 288 0 
L 288 481 
L 3238 4134 
L 359 4134 
L 359 4666 
z
" transform="scale(0.015625)"/>
      </defs>
      <use xlink:href="#DejaVuSans-43"/>
      <use xlink:href="#DejaVuSans-5a" x="69.824219"/>
     </g>
    </g>
    <g id="line2d_41">
     <path d="M 66.17 97.289063 
L 76.17 97.289063 
L 86.17 97.289063 
" style="fill: none; stroke: #ff7fd1; stroke-width: 1.5; stroke-linecap: square"/>
    </g>
    <g id="text_24">
     <!-- DE -->
     <g transform="translate(94.17 100.789063)scale(0.1 -0.1)">
      <use xlink:href="#DejaVuSans-44"/>
      <use xlink:href="#DejaVuSans-45" x="77.001953"/>
     </g>
    </g>
    <g id="line2d_42">
     <path d="M 66.17 111.967188 
L 76.17 111.967188 
L 86.17 111.967188 
" style="fill: none; stroke: #6c004f; stroke-width: 1.5; stroke-linecap: square"/>
    </g>
    <g id="text_25">
     <!-- DK -->
     <g transform="translate(94.17 115.467188)scale(0.1 -0.1)">
      <defs>
       <path id="DejaVuSans-4b" d="M 628 4666 
L 1259 4666 
L 1259 2694 
L 3353 4666 
L 4166 4666 
L 1850 2491 
L 4331 0 
L 3500 0 
L 1259 2247 
L 1259 0 
L 628 0 
L 628 4666 
z
" transform="scale(0.015625)"/>
      </defs>
      <use xlink:href="#DejaVuSans-44"/>
      <use xlink:href="#DejaVuSans-4b" x="77.001953"/>
     </g>
    </g>
    <g id="line2d_43">
     <path d="M 66.17 126.645313 
L 76.17 126.645313 
L 86.17 126.645313 
" style="fill: none; stroke: #583b00; stroke-width: 1.5; stroke-linecap: square"/>
    </g>
    <g id="text_26">
     <!-- EL -->
     <g transform="translate(94.17 130.145313)scale(0.1 -0.1)">
      <defs>
       <path id="DejaVuSans-4c" d="M 628 4666 
L 1259 4666 
L 1259 531 
L 3531 531 
L 3531 0 
L 628 0 
L 628 4666 
z
" transform="scale(0.015625)"/>
      </defs>
      <use xlink:href="#DejaVuSans-45"/>
      <use xlink:href="#DejaVuSans-4c" x="63.183594"/>
     </g>
    </g>
    <g id="line2d_44">
     <path d="M 66.17 141.323438 
L 76.17 141.323438 
L 86.17 141.323438 
" style="fill: none; stroke: #005759; stroke-width: 1.5; stroke-linecap: square"/>
    </g>
    <g id="text_27">
     <!-- ES -->
     <g transform="translate(94.17 144.823438)scale(0.1 -0.1)">
      <defs>
       <path id="DejaVuSans-53" d="M 3425 4513 
L 3425 3897 
Q 3066 4069 2747 4153 
Q 2428 4238 2131 4238 
Q 1616 4238 1336 4038 
Q 1056 3838 1056 3469 
Q 1056 3159 1242 3001 
Q 1428 2844 1947 2747 
L 2328 2669 
Q 3034 2534 3370 2195 
Q 3706 1856 3706 1288 
Q 3706 609 3251 259 
Q 2797 -91 1919 -91 
Q 1588 -91 1214 -16 
Q 841 59 441 206 
L 441 856 
Q 825 641 1194 531 
Q 1563 422 1919 422 
Q 2459 422 2753 634 
Q 3047 847 3047 1241 
Q 3047 1584 2836 1778 
Q 2625 1972 2144 2069 
L 1759 2144 
Q 1053 2284 737 2584 
Q 422 2884 422 3419 
Q 422 4038 858 4394 
Q 1294 4750 2059 4750 
Q 2388 4750 2728 4690 
Q 3069 4631 3425 4513 
z
" transform="scale(0.015625)"/>
      </defs>
      <use xlink:href="#DejaVuSans-45"/>
      <use xlink:href="#DejaVuSans-53" x="63.183594"/>
     </g>
    </g>
    <g id="line2d_45">
     <path d="M 66.17 156.001563 
L 76.17 156.001563 
L 86.17 156.001563 
" style="fill: none; stroke: #0000dd; stroke-width: 1.5; stroke-linecap: square"/>
    </g>
    <g id="text_28">
     <!-- FI -->
     <g transform="translate(94.17 159.501563)scale(0.1 -0.1)">
      <defs>
       <path id="DejaVuSans-46" d="M 628 4666 
L 3309 4666 
L 3309 4134 
L 1259 4134 
L 1259 2759 
L 3109 2759 
L 3109 2228 
L 1259 2228 
L 1259 0 
L 628 0 
L 628 4666 
z
" transform="scale(0.015625)"/>
       <path id="DejaVuSans-49" d="M 628 4666 
L 1259 4666 
L 1259 0 
L 628 0 
L 628 4666 
z
" transform="scale(0.015625)"/>
      </defs>
      <use xlink:href="#DejaVuSans-46"/>
      <use xlink:href="#DejaVuSans-49" x="57.519531"/>
     </g>
    </g>
    <g id="line2d_46">
     <path d="M 128.604375 23.898438 
L 138.604375 23.898438 
L 148.604375 23.898438 
" style="fill: none; stroke: #95b578; stroke-width: 1.5; stroke-linecap: square"/>
    </g>
    <g id="text_29">
     <!-- IT -->
     <g transform="translate(156.604375 27.398438)scale(0.1 -0.1)">
      <use xlink:href="#DejaVuSans-49"/>
      <use xlink:href="#DejaVuSans-54" x="29.492188"/>
     </g>
    </g>
    <g id="line2d_47">
     <path d="M 128.604375 38.576563 
L 138.604375 38.576563 
L 148.604375 38.576563 
" style="fill: none; stroke: #c004b9; stroke-width: 1.5; stroke-linecap: square"/>
    </g>
    <g id="text_30">
     <!-- LT -->
     <g transform="translate(156.604375 42.076563)scale(0.1 -0.1)">
      <use xlink:href="#DejaVuSans-4c"/>
      <use xlink:href="#DejaVuSans-54" x="41.962891"/>
     </g>
    </g>
    <g id="line2d_48">
     <path d="M 128.604375 53.254688 
L 138.604375 53.254688 
L 148.604375 53.254688 
" style="fill: none; stroke: #0774d8; stroke-width: 1.5; stroke-linecap: square"/>
    </g>
    <g id="text_31">
     <!-- MT -->
     <g transform="translate(156.604375 56.754688)scale(0.1 -0.1)">
      <defs>
       <path id="DejaVuSans-4d" d="M 628 4666 
L 1569 4666 
L 2759 1491 
L 3956 4666 
L 4897 4666 
L 4897 0 
L 4281 0 
L 4281 4097 
L 3078 897 
L 2444 897 
L 1241 4097 
L 1241 0 
L 628 0 
L 628 4666 
z
" transform="scale(0.015625)"/>
      </defs>
      <use xlink:href="#DejaVuSans-4d"/>
      <use xlink:href="#DejaVuSans-54" x="86.279297"/>
     </g>
    </g>
    <g id="line2d_49">
     <path d="M 128.604375 67.932813 
L 138.604375 67.932813 
L 148.604375 67.932813 
" style="fill: none; stroke: #fef590; stroke-width: 1.5; stroke-linecap: square"/>
    </g>
    <g id="text_32">
     <!-- NL -->
     <g transform="translate(156.604375 71.432813)scale(0.1 -0.1)">
      <use xlink:href="#DejaVuSans-4e"/>
      <use xlink:href="#DejaVuSans-4c" x="74.804688"/>
     </g>
    </g>
    <g id="line2d_50">
     <path d="M 128.604375 82.610938 
L 138.604375 82.610938 
L 148.604375 82.610938 
" style="fill: none; stroke: #8f7a00; stroke-width: 1.5; stroke-linecap: square"/>
    </g>
    <g id="text_33">
     <!-- PT -->
     <g transform="translate(156.604375 86.110938)scale(0.1 -0.1)">
      <defs>
       <path id="DejaVuSans-50" d="M 1259 4147 
L 1259 2394 
L 2053 2394 
Q 2494 2394 2734 2622 
Q 2975 2850 2975 3272 
Q 2975 3691 2734 3919 
Q 2494 4147 2053 4147 
L 1259 4147 
z
M 628 4666 
L 2053 4666 
Q 2838 4666 3239 4311 
Q 3641 3956 3641 3272 
Q 3641 2581 3239 2228 
Q 2838 1875 2053 1875 
L 1259 1875 
L 1259 0 
L 628 0 
L 628 4666 
z
" transform="scale(0.015625)"/>
      </defs>
      <use xlink:href="#DejaVuSans-50"/>
      <use xlink:href="#DejaVuSans-54" x="60.302734"/>
     </g>
    </g>
    <g id="line2d_51">
     <path d="M 128.604375 97.289063 
L 138.604375 97.289063 
L 148.604375 97.289063 
" style="fill: none; stroke: #ff7266; stroke-width: 1.5; stroke-linecap: square"/>
    </g>
    <g id="text_34">
     <!-- RO -->
     <g transform="translate(156.604375 100.789063)scale(0.1 -0.1)">
      <defs>
       <path id="DejaVuSans-52" d="M 2841 2188 
Q 3044 2119 3236 1894 
Q 3428 1669 3622 1275 
L 4263 0 
L 3584 0 
L 2988 1197 
Q 2756 1666 2539 1819 
Q 2322 1972 1947 1972 
L 1259 1972 
L 1259 0 
L 628 0 
L 628 4666 
L 2053 4666 
Q 2853 4666 3247 4331 
Q 3641 3997 3641 3322 
Q 3641 2881 3436 2590 
Q 3231 2300 2841 2188 
z
M 1259 4147 
L 1259 2491 
L 2053 2491 
Q 2509 2491 2742 2702 
Q 2975 2913 2975 3322 
Q 2975 3731 2742 3939 
Q 2509 4147 2053 4147 
L 1259 4147 
z
" transform="scale(0.015625)"/>
       <path id="DejaVuSans-4f" d="M 2522 4238 
Q 1834 4238 1429 3725 
Q 1025 3213 1025 2328 
Q 1025 1447 1429 934 
Q 1834 422 2522 422 
Q 3209 422 3611 934 
Q 4013 1447 4013 2328 
Q 4013 3213 3611 3725 
Q 3209 4238 2522 4238 
z
M 2522 4750 
Q 3503 4750 4090 4092 
Q 4678 3434 4678 2328 
Q 4678 1225 4090 567 
Q 3503 -91 2522 -91 
Q 1538 -91 948 565 
Q 359 1222 359 2328 
Q 359 3434 948 4092 
Q 1538 4750 2522 4750 
z
" transform="scale(0.015625)"/>
      </defs>
      <use xlink:href="#DejaVuSans-52"/>
      <use xlink:href="#DejaVuSans-4f" x="69.482422"/>
     </g>
    </g>
    <g id="line2d_52">
     <path d="M 128.604375 111.967188 
L 138.604375 111.967188 
L 148.604375 111.967188 
" style="fill: none; stroke: #eeb9b9; stroke-width: 1.5; stroke-linecap: square"/>
    </g>
    <g id="text_35">
     <!-- SE -->
     <g transform="translate(156.604375 115.467188)scale(0.1 -0.1)">
      <use xlink:href="#DejaVuSans-53"/>
      <use xlink:href="#DejaVuSans-45" x="63.476562"/>
     </g>
    </g>
    <g id="line2d_53">
     <path d="M 128.604375 126.645313 
L 138.604375 126.645313 
L 148.604375 126.645313 
" style="fill: none; stroke: #5e7e66; stroke-width: 1.5; stroke-linecap: square"/>
    </g>
    <g id="text_36">
     <!-- SI -->
     <g transform="translate(156.604375 130.145313)scale(0.1 -0.1)">
      <use xlink:href="#DejaVuSans-53"/>
      <use xlink:href="#DejaVuSans-49" x="63.476562"/>
     </g>
    </g>
    <g id="line2d_54">
     <path d="M 128.604375 141.323438 
L 138.604375 141.323438 
L 148.604375 141.323438 
" style="fill: none; stroke: #9be4ff; stroke-width: 1.5; stroke-linecap: square"/>
    </g>
    <g id="text_37">
     <!-- SK -->
     <g transform="translate(156.604375 144.823438)scale(0.1 -0.1)">
      <use xlink:href="#DejaVuSans-53"/>
      <use xlink:href="#DejaVuSans-4b" x="63.476562"/>
     </g>
    </g>
   </g>
  </g>
 </g>
 <defs>
  <clipPath id="p81988d7575">
   <rect x="57.17" y="10.8" width="392.83" height="292.84"/>
  </clipPath>
 </defs>
</svg>
