<?xml version="1.0" encoding="utf-8" standalone="no"?>
<!DOCTYPE svg PUBLIC "-//W3C//DTD SVG 1.1//EN"
  "http://www.w3.org/Graphics/SVG/1.1/DTD/svg11.dtd">
<svg xmlns:xlink="http://www.w3.org/1999/xlink" width="460.8pt" height="345.6pt" viewBox="0 0 460.8 345.6" xmlns="http://www.w3.org/2000/svg" version="1.1">
 <metadata>
  <rdf:RDF xmlns:dc="http://purl.org/dc/elements/1.1/" xmlns:cc="http://creativecommons.org/ns#" xmlns:rdf="http://www.w3.org/1999/02/22-rdf-syntax-ns#">
   <cc:Work>
    <dc:type rdf:resource="http://purl.org/dc/dcmitype/StillImage"/>
    <dc:date>2024-01-29T18:47:13.709026</dc:date>
    <dc:format>image/svg+xml</dc:format>
    <dc:creator>
     <cc:Agent>
      <dc:title>Matplotlib v3.5.1, https://matplotlib.org/</dc:title>
     </cc:Agent>
    </dc:creator>
   </cc:Work>
  </rdf:RDF>
 </metadata>
 <defs>
  <style type="text/css">*{stroke-linejoin: round; stroke-linecap: butt}</style>
 </defs>
 <g id="figure_1">
  <g id="patch_1">
   <path d="M 0 345.6 
L 460.8 345.6 
L 460.8 0 
L 0 0 
L 0 345.6 
z
" style="fill: none"/>
  </g>
  <g id="axes_1">
   <g id="patch_2">
    <path d="M 50.87 303.64 
L 450 303.64 
L 450 10.8 
L 50.87 10.8 
L 50.87 303.64 
z
" style="fill: none"/>
   </g>
   <g id="matplotlib.axis_1">
    <g id="xtick_1">
     <g id="line2d_1">
      <defs>
       <path id="m42dc587fa3" d="M 0 0 
L 0 3.5 
" style="stroke: #000000; stroke-width: 0.8"/>
      </defs>
      <g>
       <use xlink:href="#m42dc587fa3" x="99.909514" y="303.64" style="stroke: #000000; stroke-width: 0.8"/>
      </g>
     </g>
     <g id="text_1">
      <!-- 20 -->
      <g transform="translate(93.547014 318.238437)scale(0.1 -0.1)">
       <defs>
        <path id="DejaVuSans-32" d="M 1228 531 
L 3431 531 
L 3431 0 
L 469 0 
L 469 531 
Q 828 903 1448 1529 
Q 2069 2156 2228 2338 
Q 2531 2678 2651 2914 
Q 2772 3150 2772 3378 
Q 2772 3750 2511 3984 
Q 2250 4219 1831 4219 
Q 1534 4219 1204 4116 
Q 875 4013 500 3803 
L 500 4441 
Q 881 4594 1212 4672 
Q 1544 4750 1819 4750 
Q 2544 4750 2975 4387 
Q 3406 4025 3406 3419 
Q 3406 3131 3298 2873 
Q 3191 2616 2906 2266 
Q 2828 2175 2409 1742 
Q 1991 1309 1228 531 
z
" transform="scale(0.015625)"/>
        <path id="DejaVuSans-30" d="M 2034 4250 
Q 1547 4250 1301 3770 
Q 1056 3291 1056 2328 
Q 1056 1369 1301 889 
Q 1547 409 2034 409 
Q 2525 409 2770 889 
Q 3016 1369 3016 2328 
Q 3016 3291 2770 3770 
Q 2525 4250 2034 4250 
z
M 2034 4750 
Q 2819 4750 3233 4129 
Q 3647 3509 3647 2328 
Q 3647 1150 3233 529 
Q 2819 -91 2034 -91 
Q 1250 -91 836 529 
Q 422 1150 422 2328 
Q 422 3509 836 4129 
Q 1250 4750 2034 4750 
z
" transform="scale(0.015625)"/>
       </defs>
       <use xlink:href="#DejaVuSans-32"/>
       <use xlink:href="#DejaVuSans-30" x="63.623047"/>
      </g>
     </g>
    </g>
    <g id="xtick_2">
     <g id="line2d_2">
      <g>
       <use xlink:href="#m42dc587fa3" x="151.331058" y="303.64" style="stroke: #000000; stroke-width: 0.8"/>
      </g>
     </g>
     <g id="text_2">
      <!-- 40 -->
      <g transform="translate(144.968558 318.238437)scale(0.1 -0.1)">
       <defs>
        <path id="DejaVuSans-34" d="M 2419 4116 
L 825 1625 
L 2419 1625 
L 2419 4116 
z
M 2253 4666 
L 3047 4666 
L 3047 1625 
L 3713 1625 
L 3713 1100 
L 3047 1100 
L 3047 0 
L 2419 0 
L 2419 1100 
L 313 1100 
L 313 1709 
L 2253 4666 
z
" transform="scale(0.015625)"/>
       </defs>
       <use xlink:href="#DejaVuSans-34"/>
       <use xlink:href="#DejaVuSans-30" x="63.623047"/>
      </g>
     </g>
    </g>
    <g id="xtick_3">
     <g id="line2d_3">
      <g>
       <use xlink:href="#m42dc587fa3" x="202.752602" y="303.64" style="stroke: #000000; stroke-width: 0.8"/>
      </g>
     </g>
     <g id="text_3">
      <!-- 60 -->
      <g transform="translate(196.390102 318.238437)scale(0.1 -0.1)">
       <defs>
        <path id="DejaVuSans-36" d="M 2113 2584 
Q 1688 2584 1439 2293 
Q 1191 2003 1191 1497 
Q 1191 994 1439 701 
Q 1688 409 2113 409 
Q 2538 409 2786 701 
Q 3034 994 3034 1497 
Q 3034 2003 2786 2293 
Q 2538 2584 2113 2584 
z
M 3366 4563 
L 3366 3988 
Q 3128 4100 2886 4159 
Q 2644 4219 2406 4219 
Q 1781 4219 1451 3797 
Q 1122 3375 1075 2522 
Q 1259 2794 1537 2939 
Q 1816 3084 2150 3084 
Q 2853 3084 3261 2657 
Q 3669 2231 3669 1497 
Q 3669 778 3244 343 
Q 2819 -91 2113 -91 
Q 1303 -91 875 529 
Q 447 1150 447 2328 
Q 447 3434 972 4092 
Q 1497 4750 2381 4750 
Q 2619 4750 2861 4703 
Q 3103 4656 3366 4563 
z
" transform="scale(0.015625)"/>
       </defs>
       <use xlink:href="#DejaVuSans-36"/>
       <use xlink:href="#DejaVuSans-30" x="63.623047"/>
      </g>
     </g>
    </g>
    <g id="xtick_4">
     <g id="line2d_4">
      <g>
       <use xlink:href="#m42dc587fa3" x="254.174146" y="303.64" style="stroke: #000000; stroke-width: 0.8"/>
      </g>
     </g>
     <g id="text_4">
      <!-- 80 -->
      <g transform="translate(247.811646 318.238437)scale(0.1 -0.1)">
       <defs>
        <path id="DejaVuSans-38" d="M 2034 2216 
Q 1584 2216 1326 1975 
Q 1069 1734 1069 1313 
Q 1069 891 1326 650 
Q 1584 409 2034 409 
Q 2484 409 2743 651 
Q 3003 894 3003 1313 
Q 3003 1734 2745 1975 
Q 2488 2216 2034 2216 
z
M 1403 2484 
Q 997 2584 770 2862 
Q 544 3141 544 3541 
Q 544 4100 942 4425 
Q 1341 4750 2034 4750 
Q 2731 4750 3128 4425 
Q 3525 4100 3525 3541 
Q 3525 3141 3298 2862 
Q 3072 2584 2669 2484 
Q 3125 2378 3379 2068 
Q 3634 1759 3634 1313 
Q 3634 634 3220 271 
Q 2806 -91 2034 -91 
Q 1263 -91 848 271 
Q 434 634 434 1313 
Q 434 1759 690 2068 
Q 947 2378 1403 2484 
z
M 1172 3481 
Q 1172 3119 1398 2916 
Q 1625 2713 2034 2713 
Q 2441 2713 2670 2916 
Q 2900 3119 2900 3481 
Q 2900 3844 2670 4047 
Q 2441 4250 2034 4250 
Q 1625 4250 1398 4047 
Q 1172 3844 1172 3481 
z
" transform="scale(0.015625)"/>
       </defs>
       <use xlink:href="#DejaVuSans-38"/>
       <use xlink:href="#DejaVuSans-30" x="63.623047"/>
      </g>
     </g>
    </g>
    <g id="xtick_5">
     <g id="line2d_5">
      <g>
       <use xlink:href="#m42dc587fa3" x="305.59569" y="303.64" style="stroke: #000000; stroke-width: 0.8"/>
      </g>
     </g>
     <g id="text_5">
      <!-- 100 -->
      <g transform="translate(296.05194 318.238437)scale(0.1 -0.1)">
       <defs>
        <path id="DejaVuSans-31" d="M 794 531 
L 1825 531 
L 1825 4091 
L 703 3866 
L 703 4441 
L 1819 4666 
L 2450 4666 
L 2450 531 
L 3481 531 
L 3481 0 
L 794 0 
L 794 531 
z
" transform="scale(0.015625)"/>
       </defs>
       <use xlink:href="#DejaVuSans-31"/>
       <use xlink:href="#DejaVuSans-30" x="63.623047"/>
       <use xlink:href="#DejaVuSans-30" x="127.246094"/>
      </g>
     </g>
    </g>
    <g id="xtick_6">
     <g id="line2d_6">
      <g>
       <use xlink:href="#m42dc587fa3" x="357.017235" y="303.64" style="stroke: #000000; stroke-width: 0.8"/>
      </g>
     </g>
     <g id="text_6">
      <!-- 120 -->
      <g transform="translate(347.473485 318.238437)scale(0.1 -0.1)">
       <use xlink:href="#DejaVuSans-31"/>
       <use xlink:href="#DejaVuSans-32" x="63.623047"/>
       <use xlink:href="#DejaVuSans-30" x="127.246094"/>
      </g>
     </g>
    </g>
    <g id="xtick_7">
     <g id="line2d_7">
      <g>
       <use xlink:href="#m42dc587fa3" x="408.438779" y="303.64" style="stroke: #000000; stroke-width: 0.8"/>
      </g>
     </g>
     <g id="text_7">
      <!-- 140 -->
      <g transform="translate(398.895029 318.238437)scale(0.1 -0.1)">
       <use xlink:href="#DejaVuSans-31"/>
       <use xlink:href="#DejaVuSans-34" x="63.623047"/>
       <use xlink:href="#DejaVuSans-30" x="127.246094"/>
      </g>
     </g>
    </g>
    <g id="text_8">
     <!-- Urban Density -->
     <g transform="translate(214.715469 331.916562)scale(0.1 -0.1)">
      <defs>
       <path id="DejaVuSans-55" d="M 556 4666 
L 1191 4666 
L 1191 1831 
Q 1191 1081 1462 751 
Q 1734 422 2344 422 
Q 2950 422 3222 751 
Q 3494 1081 3494 1831 
L 3494 4666 
L 4128 4666 
L 4128 1753 
Q 4128 841 3676 375 
Q 3225 -91 2344 -91 
Q 1459 -91 1007 375 
Q 556 841 556 1753 
L 556 4666 
z
" transform="scale(0.015625)"/>
       <path id="DejaVuSans-72" d="M 2631 2963 
Q 2534 3019 2420 3045 
Q 2306 3072 2169 3072 
Q 1681 3072 1420 2755 
Q 1159 2438 1159 1844 
L 1159 0 
L 581 0 
L 581 3500 
L 1159 3500 
L 1159 2956 
Q 1341 3275 1631 3429 
Q 1922 3584 2338 3584 
Q 2397 3584 2469 3576 
Q 2541 3569 2628 3553 
L 2631 2963 
z
" transform="scale(0.015625)"/>
       <path id="DejaVuSans-62" d="M 3116 1747 
Q 3116 2381 2855 2742 
Q 2594 3103 2138 3103 
Q 1681 3103 1420 2742 
Q 1159 2381 1159 1747 
Q 1159 1113 1420 752 
Q 1681 391 2138 391 
Q 2594 391 2855 752 
Q 3116 1113 3116 1747 
z
M 1159 2969 
Q 1341 3281 1617 3432 
Q 1894 3584 2278 3584 
Q 2916 3584 3314 3078 
Q 3713 2572 3713 1747 
Q 3713 922 3314 415 
Q 2916 -91 2278 -91 
Q 1894 -91 1617 61 
Q 1341 213 1159 525 
L 1159 0 
L 581 0 
L 581 4863 
L 1159 4863 
L 1159 2969 
z
" transform="scale(0.015625)"/>
       <path id="DejaVuSans-61" d="M 2194 1759 
Q 1497 1759 1228 1600 
Q 959 1441 959 1056 
Q 959 750 1161 570 
Q 1363 391 1709 391 
Q 2188 391 2477 730 
Q 2766 1069 2766 1631 
L 2766 1759 
L 2194 1759 
z
M 3341 1997 
L 3341 0 
L 2766 0 
L 2766 531 
Q 2569 213 2275 61 
Q 1981 -91 1556 -91 
Q 1019 -91 701 211 
Q 384 513 384 1019 
Q 384 1609 779 1909 
Q 1175 2209 1959 2209 
L 2766 2209 
L 2766 2266 
Q 2766 2663 2505 2880 
Q 2244 3097 1772 3097 
Q 1472 3097 1187 3025 
Q 903 2953 641 2809 
L 641 3341 
Q 956 3463 1253 3523 
Q 1550 3584 1831 3584 
Q 2591 3584 2966 3190 
Q 3341 2797 3341 1997 
z
" transform="scale(0.015625)"/>
       <path id="DejaVuSans-6e" d="M 3513 2113 
L 3513 0 
L 2938 0 
L 2938 2094 
Q 2938 2591 2744 2837 
Q 2550 3084 2163 3084 
Q 1697 3084 1428 2787 
Q 1159 2491 1159 1978 
L 1159 0 
L 581 0 
L 581 3500 
L 1159 3500 
L 1159 2956 
Q 1366 3272 1645 3428 
Q 1925 3584 2291 3584 
Q 2894 3584 3203 3211 
Q 3513 2838 3513 2113 
z
" transform="scale(0.015625)"/>
       <path id="DejaVuSans-20" transform="scale(0.015625)"/>
       <path id="DejaVuSans-44" d="M 1259 4147 
L 1259 519 
L 2022 519 
Q 2988 519 3436 956 
Q 3884 1394 3884 2338 
Q 3884 3275 3436 3711 
Q 2988 4147 2022 4147 
L 1259 4147 
z
M 628 4666 
L 1925 4666 
Q 3281 4666 3915 4102 
Q 4550 3538 4550 2338 
Q 4550 1131 3912 565 
Q 3275 0 1925 0 
L 628 0 
L 628 4666 
z
" transform="scale(0.015625)"/>
       <path id="DejaVuSans-65" d="M 3597 1894 
L 3597 1613 
L 953 1613 
Q 991 1019 1311 708 
Q 1631 397 2203 397 
Q 2534 397 2845 478 
Q 3156 559 3463 722 
L 3463 178 
Q 3153 47 2828 -22 
Q 2503 -91 2169 -91 
Q 1331 -91 842 396 
Q 353 884 353 1716 
Q 353 2575 817 3079 
Q 1281 3584 2069 3584 
Q 2775 3584 3186 3129 
Q 3597 2675 3597 1894 
z
M 3022 2063 
Q 3016 2534 2758 2815 
Q 2500 3097 2075 3097 
Q 1594 3097 1305 2825 
Q 1016 2553 972 2059 
L 3022 2063 
z
" transform="scale(0.015625)"/>
       <path id="DejaVuSans-73" d="M 2834 3397 
L 2834 2853 
Q 2591 2978 2328 3040 
Q 2066 3103 1784 3103 
Q 1356 3103 1142 2972 
Q 928 2841 928 2578 
Q 928 2378 1081 2264 
Q 1234 2150 1697 2047 
L 1894 2003 
Q 2506 1872 2764 1633 
Q 3022 1394 3022 966 
Q 3022 478 2636 193 
Q 2250 -91 1575 -91 
Q 1294 -91 989 -36 
Q 684 19 347 128 
L 347 722 
Q 666 556 975 473 
Q 1284 391 1588 391 
Q 1994 391 2212 530 
Q 2431 669 2431 922 
Q 2431 1156 2273 1281 
Q 2116 1406 1581 1522 
L 1381 1569 
Q 847 1681 609 1914 
Q 372 2147 372 2553 
Q 372 3047 722 3315 
Q 1072 3584 1716 3584 
Q 2034 3584 2315 3537 
Q 2597 3491 2834 3397 
z
" transform="scale(0.015625)"/>
       <path id="DejaVuSans-69" d="M 603 3500 
L 1178 3500 
L 1178 0 
L 603 0 
L 603 3500 
z
M 603 4863 
L 1178 4863 
L 1178 4134 
L 603 4134 
L 603 4863 
z
" transform="scale(0.015625)"/>
       <path id="DejaVuSans-74" d="M 1172 4494 
L 1172 3500 
L 2356 3500 
L 2356 3053 
L 1172 3053 
L 1172 1153 
Q 1172 725 1289 603 
Q 1406 481 1766 481 
L 2356 481 
L 2356 0 
L 1766 0 
Q 1100 0 847 248 
Q 594 497 594 1153 
L 594 3053 
L 172 3053 
L 172 3500 
L 594 3500 
L 594 4494 
L 1172 4494 
z
" transform="scale(0.015625)"/>
       <path id="DejaVuSans-79" d="M 2059 -325 
Q 1816 -950 1584 -1140 
Q 1353 -1331 966 -1331 
L 506 -1331 
L 506 -850 
L 844 -850 
Q 1081 -850 1212 -737 
Q 1344 -625 1503 -206 
L 1606 56 
L 191 3500 
L 800 3500 
L 1894 763 
L 2988 3500 
L 3597 3500 
L 2059 -325 
z
" transform="scale(0.015625)"/>
      </defs>
      <use xlink:href="#DejaVuSans-55"/>
      <use xlink:href="#DejaVuSans-72" x="73.193359"/>
      <use xlink:href="#DejaVuSans-62" x="114.306641"/>
      <use xlink:href="#DejaVuSans-61" x="177.783203"/>
      <use xlink:href="#DejaVuSans-6e" x="239.0625"/>
      <use xlink:href="#DejaVuSans-20" x="302.441406"/>
      <use xlink:href="#DejaVuSans-44" x="334.228516"/>
      <use xlink:href="#DejaVuSans-65" x="411.230469"/>
      <use xlink:href="#DejaVuSans-6e" x="472.753906"/>
      <use xlink:href="#DejaVuSans-73" x="536.132812"/>
      <use xlink:href="#DejaVuSans-69" x="588.232422"/>
      <use xlink:href="#DejaVuSans-74" x="616.015625"/>
      <use xlink:href="#DejaVuSans-79" x="655.224609"/>
     </g>
    </g>
   </g>
   <g id="matplotlib.axis_2">
    <g id="ytick_1">
     <g id="line2d_8">
      <defs>
       <path id="md527f099fb" d="M 0 0 
L -3.5 0 
" style="stroke: #000000; stroke-width: 0.8"/>
      </defs>
      <g>
       <use xlink:href="#md527f099fb" x="50.87" y="303.64" style="stroke: #000000; stroke-width: 0.8"/>
      </g>
     </g>
     <g id="text_9">
      <!-- 0 -->
      <g transform="translate(37.5075 307.439219)scale(0.1 -0.1)">
       <use xlink:href="#DejaVuSans-30"/>
      </g>
     </g>
    </g>
    <g id="ytick_2">
     <g id="line2d_9">
      <g>
       <use xlink:href="#md527f099fb" x="50.87" y="269.143409" style="stroke: #000000; stroke-width: 0.8"/>
      </g>
     </g>
     <g id="text_10">
      <!-- 25 -->
      <g transform="translate(31.145 272.942628)scale(0.1 -0.1)">
       <defs>
        <path id="DejaVuSans-35" d="M 691 4666 
L 3169 4666 
L 3169 4134 
L 1269 4134 
L 1269 2991 
Q 1406 3038 1543 3061 
Q 1681 3084 1819 3084 
Q 2600 3084 3056 2656 
Q 3513 2228 3513 1497 
Q 3513 744 3044 326 
Q 2575 -91 1722 -91 
Q 1428 -91 1123 -41 
Q 819 9 494 109 
L 494 744 
Q 775 591 1075 516 
Q 1375 441 1709 441 
Q 2250 441 2565 725 
Q 2881 1009 2881 1497 
Q 2881 1984 2565 2268 
Q 2250 2553 1709 2553 
Q 1456 2553 1204 2497 
Q 953 2441 691 2322 
L 691 4666 
z
" transform="scale(0.015625)"/>
       </defs>
       <use xlink:href="#DejaVuSans-32"/>
       <use xlink:href="#DejaVuSans-35" x="63.623047"/>
      </g>
     </g>
    </g>
    <g id="ytick_3">
     <g id="line2d_10">
      <g>
       <use xlink:href="#md527f099fb" x="50.87" y="234.646818" style="stroke: #000000; stroke-width: 0.8"/>
      </g>
     </g>
     <g id="text_11">
      <!-- 50 -->
      <g transform="translate(31.145 238.446037)scale(0.1 -0.1)">
       <use xlink:href="#DejaVuSans-35"/>
       <use xlink:href="#DejaVuSans-30" x="63.623047"/>
      </g>
     </g>
    </g>
    <g id="ytick_4">
     <g id="line2d_11">
      <g>
       <use xlink:href="#md527f099fb" x="50.87" y="200.150227" style="stroke: #000000; stroke-width: 0.8"/>
      </g>
     </g>
     <g id="text_12">
      <!-- 75 -->
      <g transform="translate(31.145 203.949446)scale(0.1 -0.1)">
       <defs>
        <path id="DejaVuSans-37" d="M 525 4666 
L 3525 4666 
L 3525 4397 
L 1831 0 
L 1172 0 
L 2766 4134 
L 525 4134 
L 525 4666 
z
" transform="scale(0.015625)"/>
       </defs>
       <use xlink:href="#DejaVuSans-37"/>
       <use xlink:href="#DejaVuSans-35" x="63.623047"/>
      </g>
     </g>
    </g>
    <g id="ytick_5">
     <g id="line2d_12">
      <g>
       <use xlink:href="#md527f099fb" x="50.87" y="165.653636" style="stroke: #000000; stroke-width: 0.8"/>
      </g>
     </g>
     <g id="text_13">
      <!-- 100 -->
      <g transform="translate(24.7825 169.452855)scale(0.1 -0.1)">
       <use xlink:href="#DejaVuSans-31"/>
       <use xlink:href="#DejaVuSans-30" x="63.623047"/>
       <use xlink:href="#DejaVuSans-30" x="127.246094"/>
      </g>
     </g>
    </g>
    <g id="ytick_6">
     <g id="line2d_13">
      <g>
       <use xlink:href="#md527f099fb" x="50.87" y="131.157045" style="stroke: #000000; stroke-width: 0.8"/>
      </g>
     </g>
     <g id="text_14">
      <!-- 125 -->
      <g transform="translate(24.7825 134.956264)scale(0.1 -0.1)">
       <use xlink:href="#DejaVuSans-31"/>
       <use xlink:href="#DejaVuSans-32" x="63.623047"/>
       <use xlink:href="#DejaVuSans-35" x="127.246094"/>
      </g>
     </g>
    </g>
    <g id="ytick_7">
     <g id="line2d_14">
      <g>
       <use xlink:href="#md527f099fb" x="50.87" y="96.660454" style="stroke: #000000; stroke-width: 0.8"/>
      </g>
     </g>
     <g id="text_15">
      <!-- 150 -->
      <g transform="translate(24.7825 100.459673)scale(0.1 -0.1)">
       <use xlink:href="#DejaVuSans-31"/>
       <use xlink:href="#DejaVuSans-35" x="63.623047"/>
       <use xlink:href="#DejaVuSans-30" x="127.246094"/>
      </g>
     </g>
    </g>
    <g id="ytick_8">
     <g id="line2d_15">
      <g>
       <use xlink:href="#md527f099fb" x="50.87" y="62.163863" style="stroke: #000000; stroke-width: 0.8"/>
      </g>
     </g>
     <g id="text_16">
      <!-- 175 -->
      <g transform="translate(24.7825 65.963082)scale(0.1 -0.1)">
       <use xlink:href="#DejaVuSans-31"/>
       <use xlink:href="#DejaVuSans-37" x="63.623047"/>
       <use xlink:href="#DejaVuSans-35" x="127.246094"/>
      </g>
     </g>
    </g>
    <g id="ytick_9">
     <g id="line2d_16">
      <g>
       <use xlink:href="#md527f099fb" x="50.87" y="27.667272" style="stroke: #000000; stroke-width: 0.8"/>
      </g>
     </g>
     <g id="text_17">
      <!-- 200 -->
      <g transform="translate(24.7825 31.466491)scale(0.1 -0.1)">
       <use xlink:href="#DejaVuSans-32"/>
       <use xlink:href="#DejaVuSans-30" x="63.623047"/>
       <use xlink:href="#DejaVuSans-30" x="127.246094"/>
      </g>
     </g>
    </g>
    <g id="text_18">
     <!-- Number of Homicides -->
     <g transform="translate(18.702813 211.37625)rotate(-90)scale(0.1 -0.1)">
      <defs>
       <path id="DejaVuSans-4e" d="M 628 4666 
L 1478 4666 
L 3547 763 
L 3547 4666 
L 4159 4666 
L 4159 0 
L 3309 0 
L 1241 3903 
L 1241 0 
L 628 0 
L 628 4666 
z
" transform="scale(0.015625)"/>
       <path id="DejaVuSans-75" d="M 544 1381 
L 544 3500 
L 1119 3500 
L 1119 1403 
Q 1119 906 1312 657 
Q 1506 409 1894 409 
Q 2359 409 2629 706 
Q 2900 1003 2900 1516 
L 2900 3500 
L 3475 3500 
L 3475 0 
L 2900 0 
L 2900 538 
Q 2691 219 2414 64 
Q 2138 -91 1772 -91 
Q 1169 -91 856 284 
Q 544 659 544 1381 
z
M 1991 3584 
L 1991 3584 
z
" transform="scale(0.015625)"/>
       <path id="DejaVuSans-6d" d="M 3328 2828 
Q 3544 3216 3844 3400 
Q 4144 3584 4550 3584 
Q 5097 3584 5394 3201 
Q 5691 2819 5691 2113 
L 5691 0 
L 5113 0 
L 5113 2094 
Q 5113 2597 4934 2840 
Q 4756 3084 4391 3084 
Q 3944 3084 3684 2787 
Q 3425 2491 3425 1978 
L 3425 0 
L 2847 0 
L 2847 2094 
Q 2847 2600 2669 2842 
Q 2491 3084 2119 3084 
Q 1678 3084 1418 2786 
Q 1159 2488 1159 1978 
L 1159 0 
L 581 0 
L 581 3500 
L 1159 3500 
L 1159 2956 
Q 1356 3278 1631 3431 
Q 1906 3584 2284 3584 
Q 2666 3584 2933 3390 
Q 3200 3197 3328 2828 
z
" transform="scale(0.015625)"/>
       <path id="DejaVuSans-6f" d="M 1959 3097 
Q 1497 3097 1228 2736 
Q 959 2375 959 1747 
Q 959 1119 1226 758 
Q 1494 397 1959 397 
Q 2419 397 2687 759 
Q 2956 1122 2956 1747 
Q 2956 2369 2687 2733 
Q 2419 3097 1959 3097 
z
M 1959 3584 
Q 2709 3584 3137 3096 
Q 3566 2609 3566 1747 
Q 3566 888 3137 398 
Q 2709 -91 1959 -91 
Q 1206 -91 779 398 
Q 353 888 353 1747 
Q 353 2609 779 3096 
Q 1206 3584 1959 3584 
z
" transform="scale(0.015625)"/>
       <path id="DejaVuSans-66" d="M 2375 4863 
L 2375 4384 
L 1825 4384 
Q 1516 4384 1395 4259 
Q 1275 4134 1275 3809 
L 1275 3500 
L 2222 3500 
L 2222 3053 
L 1275 3053 
L 1275 0 
L 697 0 
L 697 3053 
L 147 3053 
L 147 3500 
L 697 3500 
L 697 3744 
Q 697 4328 969 4595 
Q 1241 4863 1831 4863 
L 2375 4863 
z
" transform="scale(0.015625)"/>
       <path id="DejaVuSans-48" d="M 628 4666 
L 1259 4666 
L 1259 2753 
L 3553 2753 
L 3553 4666 
L 4184 4666 
L 4184 0 
L 3553 0 
L 3553 2222 
L 1259 2222 
L 1259 0 
L 628 0 
L 628 4666 
z
" transform="scale(0.015625)"/>
       <path id="DejaVuSans-63" d="M 3122 3366 
L 3122 2828 
Q 2878 2963 2633 3030 
Q 2388 3097 2138 3097 
Q 1578 3097 1268 2742 
Q 959 2388 959 1747 
Q 959 1106 1268 751 
Q 1578 397 2138 397 
Q 2388 397 2633 464 
Q 2878 531 3122 666 
L 3122 134 
Q 2881 22 2623 -34 
Q 2366 -91 2075 -91 
Q 1284 -91 818 406 
Q 353 903 353 1747 
Q 353 2603 823 3093 
Q 1294 3584 2113 3584 
Q 2378 3584 2631 3529 
Q 2884 3475 3122 3366 
z
" transform="scale(0.015625)"/>
       <path id="DejaVuSans-64" d="M 2906 2969 
L 2906 4863 
L 3481 4863 
L 3481 0 
L 2906 0 
L 2906 525 
Q 2725 213 2448 61 
Q 2172 -91 1784 -91 
Q 1150 -91 751 415 
Q 353 922 353 1747 
Q 353 2572 751 3078 
Q 1150 3584 1784 3584 
Q 2172 3584 2448 3432 
Q 2725 3281 2906 2969 
z
M 947 1747 
Q 947 1113 1208 752 
Q 1469 391 1925 391 
Q 2381 391 2643 752 
Q 2906 1113 2906 1747 
Q 2906 2381 2643 2742 
Q 2381 3103 1925 3103 
Q 1469 3103 1208 2742 
Q 947 2381 947 1747 
z
" transform="scale(0.015625)"/>
      </defs>
      <use xlink:href="#DejaVuSans-4e"/>
      <use xlink:href="#DejaVuSans-75" x="74.804688"/>
      <use xlink:href="#DejaVuSans-6d" x="138.183594"/>
      <use xlink:href="#DejaVuSans-62" x="235.595703"/>
      <use xlink:href="#DejaVuSans-65" x="299.072266"/>
      <use xlink:href="#DejaVuSans-72" x="360.595703"/>
      <use xlink:href="#DejaVuSans-20" x="401.708984"/>
      <use xlink:href="#DejaVuSans-6f" x="433.496094"/>
      <use xlink:href="#DejaVuSans-66" x="494.677734"/>
      <use xlink:href="#DejaVuSans-20" x="529.882812"/>
      <use xlink:href="#DejaVuSans-48" x="561.669922"/>
      <use xlink:href="#DejaVuSans-6f" x="636.865234"/>
      <use xlink:href="#DejaVuSans-6d" x="698.046875"/>
      <use xlink:href="#DejaVuSans-69" x="795.458984"/>
      <use xlink:href="#DejaVuSans-63" x="823.242188"/>
      <use xlink:href="#DejaVuSans-69" x="878.222656"/>
      <use xlink:href="#DejaVuSans-64" x="906.005859"/>
      <use xlink:href="#DejaVuSans-65" x="969.482422"/>
      <use xlink:href="#DejaVuSans-73" x="1031.005859"/>
     </g>
    </g>
   </g>
   <g id="line2d_17">
    <path d="M 50.87 92.980338 
L 59.01551 92.773111 
L 67.16102 92.565885 
L 75.306531 92.358658 
L 83.452041 92.151432 
L 91.597551 91.944205 
L 99.743061 91.736979 
L 107.888571 91.529752 
L 116.034082 91.322526 
L 124.179592 91.115299 
L 132.325102 90.908073 
L 140.470612 90.700847 
L 148.616122 90.49362 
L 156.761633 90.286394 
L 164.907143 90.079167 
L 173.052653 89.871941 
L 181.198163 89.664714 
L 189.343673 89.457488 
L 197.489184 89.250261 
L 205.634694 89.043035 
L 213.780204 88.835808 
L 221.925714 88.628582 
L 230.071224 88.421356 
L 238.216735 88.214129 
L 246.362245 88.006903 
L 254.507755 87.799676 
L 262.653265 87.59245 
L 270.798776 87.385223 
L 278.944286 87.177997 
L 287.089796 86.97077 
L 295.235306 86.763544 
L 303.380816 86.556317 
L 311.526327 86.349091 
L 319.671837 86.141865 
L 327.817347 85.934638 
L 335.962857 85.727412 
L 344.108367 85.520185 
L 352.253878 85.312959 
L 360.399388 85.105732 
L 368.544898 84.898506 
L 376.690408 84.691279 
L 384.835918 84.484053 
L 392.981429 84.276826 
L 401.126939 84.0696 
L 409.272449 83.862373 
L 417.417959 83.655147 
L 425.563469 83.447921 
L 433.70898 83.240694 
L 441.85449 83.033468 
L 450 82.826241 
" clip-path="url(#p1a17065574)" style="fill: none; stroke: #d70000; stroke-width: 1.5; stroke-linecap: square"/>
   </g>
   <g id="line2d_18">
    <path d="M 50.87 66.960598 
L 59.01551 66.571068 
L 67.16102 66.181538 
L 75.306531 65.792007 
L 83.452041 65.402477 
L 91.597551 65.012947 
L 99.743061 64.623416 
L 107.888571 64.233886 
L 116.034082 63.844355 
L 124.179592 63.454825 
L 132.325102 63.065295 
L 140.470612 62.675764 
L 148.616122 62.286234 
L 156.761633 61.896704 
L 164.907143 61.507173 
L 173.052653 61.117643 
L 181.198163 60.728112 
L 189.343673 60.338582 
L 197.489184 59.949052 
L 205.634694 59.559521 
L 213.780204 59.169991 
L 221.925714 58.78046 
L 230.071224 58.39093 
L 238.216735 58.0014 
L 246.362245 57.611869 
L 254.507755 57.222339 
L 262.653265 56.832809 
L 270.798776 56.443278 
L 278.944286 56.053748 
L 287.089796 55.664217 
L 295.235306 55.274687 
L 303.380816 54.885157 
L 311.526327 54.495626 
L 319.671837 54.106096 
L 327.817347 53.716566 
L 335.962857 53.327035 
L 344.108367 52.937505 
L 352.253878 52.547974 
L 360.399388 52.158444 
L 368.544898 51.768914 
L 376.690408 51.379383 
L 384.835918 50.989853 
L 392.981429 50.600323 
L 401.126939 50.210792 
L 409.272449 49.821262 
L 417.417959 49.431731 
L 425.563469 49.042201 
L 433.70898 48.652671 
L 441.85449 48.26314 
L 450 47.87361 
" clip-path="url(#p1a17065574)" style="fill: none; stroke: #8c3cff; stroke-width: 1.5; stroke-linecap: square"/>
   </g>
   <g id="line2d_19">
    <path d="M 50.87 172.23618 
L 59.01551 172.105152 
L 67.16102 171.974123 
L 75.306531 171.843094 
L 83.452041 171.712065 
L 91.597551 171.581037 
L 99.743061 171.450008 
L 107.888571 171.318979 
L 116.034082 171.187951 
L 124.179592 171.056922 
L 132.325102 170.925893 
L 140.470612 170.794864 
L 148.616122 170.663836 
L 156.761633 170.532807 
L 164.907143 170.401778 
L 173.052653 170.270749 
L 181.198163 170.139721 
L 189.343673 170.008692 
L 197.489184 169.877663 
L 205.634694 169.746635 
L 213.780204 169.615606 
L 221.925714 169.484577 
L 230.071224 169.353548 
L 238.216735 169.22252 
L 246.362245 169.091491 
L 254.507755 168.960462 
L 262.653265 168.829434 
L 270.798776 168.698405 
L 278.944286 168.567376 
L 287.089796 168.436347 
L 295.235306 168.305319 
L 303.380816 168.17429 
L 311.526327 168.043261 
L 319.671837 167.912232 
L 327.817347 167.781204 
L 335.962857 167.650175 
L 344.108367 167.519146 
L 352.253878 167.388118 
L 360.399388 167.257089 
L 368.544898 167.12606 
L 376.690408 166.995031 
L 384.835918 166.864003 
L 392.981429 166.732974 
L 401.126939 166.601945 
L 409.272449 166.470916 
L 417.417959 166.339888 
L 425.563469 166.208859 
L 433.70898 166.07783 
L 441.85449 165.946802 
L 450 165.815773 
" clip-path="url(#p1a17065574)" style="fill: none; stroke: #028800; stroke-width: 1.5; stroke-linecap: square"/>
   </g>
   <g id="line2d_20">
    <path d="M 50.87 127.967264 
L 59.01551 127.795798 
L 67.16102 127.624333 
L 75.306531 127.452867 
L 83.452041 127.281402 
L 91.597551 127.109937 
L 99.743061 126.938471 
L 107.888571 126.767006 
L 116.034082 126.59554 
L 124.179592 126.424075 
L 132.325102 126.25261 
L 140.470612 126.081144 
L 148.616122 125.909679 
L 156.761633 125.738213 
L 164.907143 125.566748 
L 173.052653 125.395283 
L 181.198163 125.223817 
L 189.343673 125.052352 
L 197.489184 124.880886 
L 205.634694 124.709421 
L 213.780204 124.537955 
L 221.925714 124.36649 
L 230.071224 124.195025 
L 238.216735 124.023559 
L 246.362245 123.852094 
L 254.507755 123.680628 
L 262.653265 123.509163 
L 270.798776 123.337698 
L 278.944286 123.166232 
L 287.089796 122.994767 
L 295.235306 122.823301 
L 303.380816 122.651836 
L 311.526327 122.480371 
L 319.671837 122.308905 
L 327.817347 122.13744 
L 335.962857 121.965974 
L 344.108367 121.794509 
L 352.253878 121.623043 
L 360.399388 121.451578 
L 368.544898 121.280113 
L 376.690408 121.108647 
L 384.835918 120.937182 
L 392.981429 120.765716 
L 401.126939 120.594251 
L 409.272449 120.422786 
L 417.417959 120.25132 
L 425.563469 120.079855 
L 433.70898 119.908389 
L 441.85449 119.736924 
L 450 119.565459 
" clip-path="url(#p1a17065574)" style="fill: none; stroke: #00acc7; stroke-width: 1.5; stroke-linecap: square"/>
   </g>
   <g id="line2d_21">
    <path d="M 50.87 70.238962 
L 59.01551 70.262546 
L 67.16102 70.28613 
L 75.306531 70.309715 
L 83.452041 70.333299 
L 91.597551 70.356884 
L 99.743061 70.380468 
L 107.888571 70.404052 
L 116.034082 70.427637 
L 124.179592 70.451221 
L 132.325102 70.474805 
L 140.470612 70.49839 
L 148.616122 70.521974 
L 156.761633 70.545558 
L 164.907143 70.569143 
L 173.052653 70.592727 
L 181.198163 70.616311 
L 189.343673 70.639896 
L 197.489184 70.66348 
L 205.634694 70.687064 
L 213.780204 70.710649 
L 221.925714 70.734233 
L 230.071224 70.757818 
L 238.216735 70.781402 
L 246.362245 70.804986 
L 254.507755 70.828571 
L 262.653265 70.852155 
L 270.798776 70.875739 
L 278.944286 70.899324 
L 287.089796 70.922908 
L 295.235306 70.946492 
L 303.380816 70.970077 
L 311.526327 70.993661 
L 319.671837 71.017245 
L 327.817347 71.04083 
L 335.962857 71.064414 
L 344.108367 71.087998 
L 352.253878 71.111583 
L 360.399388 71.135167 
L 368.544898 71.158752 
L 376.690408 71.182336 
L 384.835918 71.20592 
L 392.981429 71.229505 
L 401.126939 71.253089 
L 409.272449 71.276673 
L 417.417959 71.300258 
L 425.563469 71.323842 
L 433.70898 71.347426 
L 441.85449 71.371011 
L 450 71.394595 
" clip-path="url(#p1a17065574)" style="fill: none; stroke: #ff7fd1; stroke-width: 1.5; stroke-linecap: square"/>
   </g>
   <g id="line2d_22">
    <path d="M 50.87 99.751876 
L 59.01551 99.743242 
L 67.16102 99.734607 
L 75.306531 99.725973 
L 83.452041 99.717338 
L 91.597551 99.708704 
L 99.743061 99.700069 
L 107.888571 99.691435 
L 116.034082 99.682801 
L 124.179592 99.674166 
L 132.325102 99.665532 
L 140.470612 99.656897 
L 148.616122 99.648263 
L 156.761633 99.639628 
L 164.907143 99.630994 
L 173.052653 99.622359 
L 181.198163 99.613725 
L 189.343673 99.605091 
L 197.489184 99.596456 
L 205.634694 99.587822 
L 213.780204 99.579187 
L 221.925714 99.570553 
L 230.071224 99.561918 
L 238.216735 99.553284 
L 246.362245 99.544649 
L 254.507755 99.536015 
L 262.653265 99.527381 
L 270.798776 99.518746 
L 278.944286 99.510112 
L 287.089796 99.501477 
L 295.235306 99.492843 
L 303.380816 99.484208 
L 311.526327 99.475574 
L 319.671837 99.46694 
L 327.817347 99.458305 
L 335.962857 99.449671 
L 344.108367 99.441036 
L 352.253878 99.432402 
L 360.399388 99.423767 
L 368.544898 99.415133 
L 376.690408 99.406498 
L 384.835918 99.397864 
L 392.981429 99.38923 
L 401.126939 99.380595 
L 409.272449 99.371961 
L 417.417959 99.363326 
L 425.563469 99.354692 
L 433.70898 99.346057 
L 441.85449 99.337423 
L 450 99.328788 
" clip-path="url(#p1a17065574)" style="fill: none; stroke: #6c004f; stroke-width: 1.5; stroke-linecap: square"/>
   </g>
   <g id="line2d_23">
    <path d="M 50.87 166.424854 
L 59.01551 166.331927 
L 67.16102 166.239 
L 75.306531 166.146073 
L 83.452041 166.053146 
L 91.597551 165.960219 
L 99.743061 165.867293 
L 107.888571 165.774366 
L 116.034082 165.681439 
L 124.179592 165.588512 
L 132.325102 165.495585 
L 140.470612 165.402658 
L 148.616122 165.309731 
L 156.761633 165.216804 
L 164.907143 165.123877 
L 173.052653 165.03095 
L 181.198163 164.938024 
L 189.343673 164.845097 
L 197.489184 164.75217 
L 205.634694 164.659243 
L 213.780204 164.566316 
L 221.925714 164.473389 
L 230.071224 164.380462 
L 238.216735 164.287535 
L 246.362245 164.194608 
L 254.507755 164.101681 
L 262.653265 164.008754 
L 270.798776 163.915828 
L 278.944286 163.822901 
L 287.089796 163.729974 
L 295.235306 163.637047 
L 303.380816 163.54412 
L 311.526327 163.451193 
L 319.671837 163.358266 
L 327.817347 163.265339 
L 335.962857 163.172412 
L 344.108367 163.079485 
L 352.253878 162.986558 
L 360.399388 162.893632 
L 368.544898 162.800705 
L 376.690408 162.707778 
L 384.835918 162.614851 
L 392.981429 162.521924 
L 401.126939 162.428997 
L 409.272449 162.33607 
L 417.417959 162.243143 
L 425.563469 162.150216 
L 433.70898 162.057289 
L 441.85449 161.964363 
L 450 161.871436 
" clip-path="url(#p1a17065574)" style="fill: none; stroke: #583b00; stroke-width: 1.5; stroke-linecap: square"/>
   </g>
   <g id="line2d_24">
    <path d="M 50.87 105.353005 
L 59.01551 105.238652 
L 67.16102 105.124299 
L 75.306531 105.009946 
L 83.452041 104.895594 
L 91.597551 104.781241 
L 99.743061 104.666888 
L 107.888571 104.552536 
L 116.034082 104.438183 
L 124.179592 104.32383 
L 132.325102 104.209477 
L 140.470612 104.095125 
L 148.616122 103.980772 
L 156.761633 103.866419 
L 164.907143 103.752066 
L 173.052653 103.637714 
L 181.198163 103.523361 
L 189.343673 103.409008 
L 197.489184 103.294655 
L 205.634694 103.180303 
L 213.780204 103.06595 
L 221.925714 102.951597 
L 230.071224 102.837244 
L 238.216735 102.722892 
L 246.362245 102.608539 
L 254.507755 102.494186 
L 262.653265 102.379834 
L 270.798776 102.265481 
L 278.944286 102.151128 
L 287.089796 102.036775 
L 295.235306 101.922423 
L 303.380816 101.80807 
L 311.526327 101.693717 
L 319.671837 101.579364 
L 327.817347 101.465012 
L 335.962857 101.350659 
L 344.108367 101.236306 
L 352.253878 101.121953 
L 360.399388 101.007601 
L 368.544898 100.893248 
L 376.690408 100.778895 
L 384.835918 100.664542 
L 392.981429 100.55019 
L 401.126939 100.435837 
L 409.272449 100.321484 
L 417.417959 100.207132 
L 425.563469 100.092779 
L 433.70898 99.978426 
L 441.85449 99.864073 
L 450 99.749721 
" clip-path="url(#p1a17065574)" style="fill: none; stroke: #005759; stroke-width: 1.5; stroke-linecap: square"/>
   </g>
   <g id="line2d_25">
    <path d="M 50.87 44.482429 
L 59.01551 44.274997 
L 67.16102 44.067565 
L 75.306531 43.860134 
L 83.452041 43.652702 
L 91.597551 43.44527 
L 99.743061 43.237838 
L 107.888571 43.030407 
L 116.034082 42.822975 
L 124.179592 42.615543 
L 132.325102 42.408111 
L 140.470612 42.20068 
L 148.616122 41.993248 
L 156.761633 41.785816 
L 164.907143 41.578385 
L 173.052653 41.370953 
L 181.198163 41.163521 
L 189.343673 40.956089 
L 197.489184 40.748658 
L 205.634694 40.541226 
L 213.780204 40.333794 
L 221.925714 40.126362 
L 230.071224 39.918931 
L 238.216735 39.711499 
L 246.362245 39.504067 
L 254.507755 39.296635 
L 262.653265 39.089204 
L 270.798776 38.881772 
L 278.944286 38.67434 
L 287.089796 38.466908 
L 295.235306 38.259477 
L 303.380816 38.052045 
L 311.526327 37.844613 
L 319.671837 37.637181 
L 327.817347 37.42975 
L 335.962857 37.222318 
L 344.108367 37.014886 
L 352.253878 36.807454 
L 360.399388 36.600023 
L 368.544898 36.392591 
L 376.690408 36.185159 
L 384.835918 35.977728 
L 392.981429 35.770296 
L 401.126939 35.562864 
L 409.272449 35.355432 
L 417.417959 35.148001 
L 425.563469 34.940569 
L 433.70898 34.733137 
L 441.85449 34.525705 
L 450 34.318274 
" clip-path="url(#p1a17065574)" style="fill: none; stroke: #0000dd; stroke-width: 1.5; stroke-linecap: square"/>
   </g>
   <g id="line2d_26">
    <path d="M 50.87 177.389279 
L 59.01551 177.257899 
L 67.16102 177.12652 
L 75.306531 176.99514 
L 83.452041 176.86376 
L 91.597551 176.73238 
L 99.743061 176.601 
L 107.888571 176.46962 
L 116.034082 176.338241 
L 124.179592 176.206861 
L 132.325102 176.075481 
L 140.470612 175.944101 
L 148.616122 175.812721 
L 156.761633 175.681341 
L 164.907143 175.549961 
L 173.052653 175.418582 
L 181.198163 175.287202 
L 189.343673 175.155822 
L 197.489184 175.024442 
L 205.634694 174.893062 
L 213.780204 174.761682 
L 221.925714 174.630303 
L 230.071224 174.498923 
L 238.216735 174.367543 
L 246.362245 174.236163 
L 254.507755 174.104783 
L 262.653265 173.973403 
L 270.798776 173.842023 
L 278.944286 173.710644 
L 287.089796 173.579264 
L 295.235306 173.447884 
L 303.380816 173.316504 
L 311.526327 173.185124 
L 319.671837 173.053744 
L 327.817347 172.922365 
L 335.962857 172.790985 
L 344.108367 172.659605 
L 352.253878 172.528225 
L 360.399388 172.396845 
L 368.544898 172.265465 
L 376.690408 172.134085 
L 384.835918 172.002706 
L 392.981429 171.871326 
L 401.126939 171.739946 
L 409.272449 171.608566 
L 417.417959 171.477186 
L 425.563469 171.345806 
L 433.70898 171.214427 
L 441.85449 171.083047 
L 450 170.951667 
" clip-path="url(#p1a17065574)" style="fill: none; stroke: #a1756a; stroke-width: 1.5; stroke-linecap: square"/>
   </g>
   <g id="line2d_27">
    <path d="M 50.87 25.326058 
L 59.01551 25.237249 
L 67.16102 25.14844 
L 75.306531 25.059631 
L 83.452041 24.970822 
L 91.597551 24.882013 
L 99.743061 24.793204 
L 107.888571 24.704395 
L 116.034082 24.615586 
L 124.179592 24.526777 
L 132.325102 24.437968 
L 140.470612 24.349159 
L 148.616122 24.26035 
L 156.761633 24.171541 
L 164.907143 24.082732 
L 173.052653 23.993922 
L 181.198163 23.905113 
L 189.343673 23.816304 
L 197.489184 23.727495 
L 205.634694 23.638686 
L 213.780204 23.549877 
L 221.925714 23.461068 
L 230.071224 23.372259 
L 238.216735 23.28345 
L 246.362245 23.194641 
L 254.507755 23.105832 
L 262.653265 23.017023 
L 270.798776 22.928214 
L 278.944286 22.839405 
L 287.089796 22.750596 
L 295.235306 22.661787 
L 303.380816 22.572977 
L 311.526327 22.484168 
L 319.671837 22.395359 
L 327.817347 22.30655 
L 335.962857 22.217741 
L 344.108367 22.128932 
L 352.253878 22.040123 
L 360.399388 21.951314 
L 368.544898 21.862505 
L 376.690408 21.773696 
L 384.835918 21.684887 
L 392.981429 21.596078 
L 401.126939 21.507269 
L 409.272449 21.41846 
L 417.417959 21.329651 
L 425.563469 21.240842 
L 433.70898 21.152032 
L 441.85449 21.063223 
L 450 20.974414 
" clip-path="url(#p1a17065574)" style="fill: none; stroke: #bcb7ff; stroke-width: 1.5; stroke-linecap: square"/>
   </g>
   <g id="line2d_28">
    <path d="M 50.87 125.912266 
L 59.01551 125.840584 
L 67.16102 125.768902 
L 75.306531 125.69722 
L 83.452041 125.625538 
L 91.597551 125.553856 
L 99.743061 125.482174 
L 107.888571 125.410492 
L 116.034082 125.33881 
L 124.179592 125.267128 
L 132.325102 125.195446 
L 140.470612 125.123764 
L 148.616122 125.052082 
L 156.761633 124.9804 
L 164.907143 124.908718 
L 173.052653 124.837036 
L 181.198163 124.765354 
L 189.343673 124.693672 
L 197.489184 124.62199 
L 205.634694 124.550308 
L 213.780204 124.478626 
L 221.925714 124.406944 
L 230.071224 124.335262 
L 238.216735 124.26358 
L 246.362245 124.191898 
L 254.507755 124.120216 
L 262.653265 124.048534 
L 270.798776 123.976852 
L 278.944286 123.90517 
L 287.089796 123.833488 
L 295.235306 123.761806 
L 303.380816 123.690124 
L 311.526327 123.618442 
L 319.671837 123.54676 
L 327.817347 123.475078 
L 335.962857 123.403396 
L 344.108367 123.331714 
L 352.253878 123.260032 
L 360.399388 123.18835 
L 368.544898 123.116668 
L 376.690408 123.044986 
L 384.835918 122.973304 
L 392.981429 122.901622 
L 401.126939 122.82994 
L 409.272449 122.758258 
L 417.417959 122.686576 
L 425.563469 122.614894 
L 433.70898 122.543212 
L 441.85449 122.47153 
L 450 122.399848 
" clip-path="url(#p1a17065574)" style="fill: none; stroke: #95b578; stroke-width: 1.5; stroke-linecap: square"/>
   </g>
   <g id="line2d_29">
    <path d="M 50.87 57.415313 
L 59.01551 57.080322 
L 67.16102 56.745331 
L 75.306531 56.41034 
L 83.452041 56.075349 
L 91.597551 55.740358 
L 99.743061 55.405367 
L 107.888571 55.070376 
L 116.034082 54.735385 
L 124.179592 54.400395 
L 132.325102 54.065404 
L 140.470612 53.730413 
L 148.616122 53.395422 
L 156.761633 53.060431 
L 164.907143 52.72544 
L 173.052653 52.390449 
L 181.198163 52.055458 
L 189.343673 51.720467 
L 197.489184 51.385476 
L 205.634694 51.050485 
L 213.780204 50.715494 
L 221.925714 50.380503 
L 230.071224 50.045513 
L 238.216735 49.710522 
L 246.362245 49.375531 
L 254.507755 49.04054 
L 262.653265 48.705549 
L 270.798776 48.370558 
L 278.944286 48.035567 
L 287.089796 47.700576 
L 295.235306 47.365585 
L 303.380816 47.030594 
L 311.526327 46.695603 
L 319.671837 46.360612 
L 327.817347 46.025621 
L 335.962857 45.690631 
L 344.108367 45.35564 
L 352.253878 45.020649 
L 360.399388 44.685658 
L 368.544898 44.350667 
L 376.690408 44.015676 
L 384.835918 43.680685 
L 392.981429 43.345694 
L 401.126939 43.010703 
L 409.272449 42.675712 
L 417.417959 42.340721 
L 425.563469 42.00573 
L 433.70898 41.670739 
L 441.85449 41.335749 
L 450 41.000758 
" clip-path="url(#p1a17065574)" style="fill: none; stroke: #c004b9; stroke-width: 1.5; stroke-linecap: square"/>
   </g>
   <g id="line2d_30">
    <path d="M 50.87 224.462701 
L 59.01551 224.379287 
L 67.16102 224.295874 
L 75.306531 224.21246 
L 83.452041 224.129047 
L 91.597551 224.045633 
L 99.743061 223.96222 
L 107.888571 223.878806 
L 116.034082 223.795393 
L 124.179592 223.711979 
L 132.325102 223.628566 
L 140.470612 223.545152 
L 148.616122 223.461739 
L 156.761633 223.378325 
L 164.907143 223.294912 
L 173.052653 223.211498 
L 181.198163 223.128085 
L 189.343673 223.044672 
L 197.489184 222.961258 
L 205.634694 222.877845 
L 213.780204 222.794431 
L 221.925714 222.711018 
L 230.071224 222.627604 
L 238.216735 222.544191 
L 246.362245 222.460777 
L 254.507755 222.377364 
L 262.653265 222.29395 
L 270.798776 222.210537 
L 278.944286 222.127123 
L 287.089796 222.04371 
L 295.235306 221.960296 
L 303.380816 221.876883 
L 311.526327 221.793469 
L 319.671837 221.710056 
L 327.817347 221.626642 
L 335.962857 221.543229 
L 344.108367 221.459815 
L 352.253878 221.376402 
L 360.399388 221.292988 
L 368.544898 221.209575 
L 376.690408 221.126161 
L 384.835918 221.042748 
L 392.981429 220.959334 
L 401.126939 220.875921 
L 409.272449 220.792507 
L 417.417959 220.709094 
L 425.563469 220.62568 
L 433.70898 220.542267 
L 441.85449 220.458853 
L 450 220.37544 
" clip-path="url(#p1a17065574)" style="fill: none; stroke: #0774d8; stroke-width: 1.5; stroke-linecap: square"/>
   </g>
   <g id="line2d_31">
    <path d="M 50.87 91.864176 
L 59.01551 91.904551 
L 67.16102 91.944926 
L 75.306531 91.985302 
L 83.452041 92.025677 
L 91.597551 92.066052 
L 99.743061 92.106427 
L 107.888571 92.146802 
L 116.034082 92.187177 
L 124.179592 92.227552 
L 132.325102 92.267927 
L 140.470612 92.308302 
L 148.616122 92.348677 
L 156.761633 92.389053 
L 164.907143 92.429428 
L 173.052653 92.469803 
L 181.198163 92.510178 
L 189.343673 92.550553 
L 197.489184 92.590928 
L 205.634694 92.631303 
L 213.780204 92.671678 
L 221.925714 92.712053 
L 230.071224 92.752428 
L 238.216735 92.792804 
L 246.362245 92.833179 
L 254.507755 92.873554 
L 262.653265 92.913929 
L 270.798776 92.954304 
L 278.944286 92.994679 
L 287.089796 93.035054 
L 295.235306 93.075429 
L 303.380816 93.115804 
L 311.526327 93.156179 
L 319.671837 93.196555 
L 327.817347 93.23693 
L 335.962857 93.277305 
L 344.108367 93.31768 
L 352.253878 93.358055 
L 360.399388 93.39843 
L 368.544898 93.438805 
L 376.690408 93.47918 
L 384.835918 93.519555 
L 392.981429 93.559931 
L 401.126939 93.600306 
L 409.272449 93.640681 
L 417.417959 93.681056 
L 425.563469 93.721431 
L 433.70898 93.761806 
L 441.85449 93.802181 
L 450 93.842556 
" clip-path="url(#p1a17065574)" style="fill: none; stroke: #8f7a00; stroke-width: 1.5; stroke-linecap: square"/>
   </g>
   <g id="line2d_32">
    <path d="M 50.87 137.740877 
L 59.01551 137.414816 
L 67.16102 137.088756 
L 75.306531 136.762695 
L 83.452041 136.436635 
L 91.597551 136.110574 
L 99.743061 135.784513 
L 107.888571 135.458453 
L 116.034082 135.132392 
L 124.179592 134.806331 
L 132.325102 134.480271 
L 140.470612 134.15421 
L 148.616122 133.82815 
L 156.761633 133.502089 
L 164.907143 133.176028 
L 173.052653 132.849968 
L 181.198163 132.523907 
L 189.343673 132.197846 
L 197.489184 131.871786 
L 205.634694 131.545725 
L 213.780204 131.219664 
L 221.925714 130.893604 
L 230.071224 130.567543 
L 238.216735 130.241483 
L 246.362245 129.915422 
L 254.507755 129.589361 
L 262.653265 129.263301 
L 270.798776 128.93724 
L 278.944286 128.611179 
L 287.089796 128.285119 
L 295.235306 127.959058 
L 303.380816 127.632998 
L 311.526327 127.306937 
L 319.671837 126.980876 
L 327.817347 126.654816 
L 335.962857 126.328755 
L 344.108367 126.002694 
L 352.253878 125.676634 
L 360.399388 125.350573 
L 368.544898 125.024512 
L 376.690408 124.698452 
L 384.835918 124.372391 
L 392.981429 124.046331 
L 401.126939 123.72027 
L 409.272449 123.394209 
L 417.417959 123.068149 
L 425.563469 122.742088 
L 433.70898 122.416027 
L 441.85449 122.089967 
L 450 121.763906 
" clip-path="url(#p1a17065574)" style="fill: none; stroke: #ff7266; stroke-width: 1.5; stroke-linecap: square"/>
   </g>
   <g id="line2d_33">
    <path d="M 50.87 169.408937 
L 59.01551 169.223803 
L 67.16102 169.038669 
L 75.306531 168.853535 
L 83.452041 168.668401 
L 91.597551 168.483267 
L 99.743061 168.298133 
L 107.888571 168.112999 
L 116.034082 167.927865 
L 124.179592 167.742731 
L 132.325102 167.557597 
L 140.470612 167.372463 
L 148.616122 167.187329 
L 156.761633 167.002195 
L 164.907143 166.817061 
L 173.052653 166.631927 
L 181.198163 166.446793 
L 189.343673 166.261659 
L 197.489184 166.076525 
L 205.634694 165.891391 
L 213.780204 165.706257 
L 221.925714 165.521123 
L 230.071224 165.335989 
L 238.216735 165.150855 
L 246.362245 164.965721 
L 254.507755 164.780587 
L 262.653265 164.595453 
L 270.798776 164.410319 
L 278.944286 164.225185 
L 287.089796 164.040051 
L 295.235306 163.854917 
L 303.380816 163.669783 
L 311.526327 163.484649 
L 319.671837 163.299515 
L 327.817347 163.114381 
L 335.962857 162.929247 
L 344.108367 162.744113 
L 352.253878 162.558979 
L 360.399388 162.373845 
L 368.544898 162.188711 
L 376.690408 162.003577 
L 384.835918 161.818443 
L 392.981429 161.633309 
L 401.126939 161.448175 
L 409.272449 161.263041 
L 417.417959 161.077907 
L 425.563469 160.892773 
L 433.70898 160.707639 
L 441.85449 160.522505 
L 450 160.337371 
" clip-path="url(#p1a17065574)" style="fill: none; stroke: #5e7e66; stroke-width: 1.5; stroke-linecap: square"/>
   </g>
   <g id="line2d_34">
    <path d="M 50.87 119.363201 
L 59.01551 119.206497 
L 67.16102 119.049793 
L 75.306531 118.893089 
L 83.452041 118.736384 
L 91.597551 118.57968 
L 99.743061 118.422976 
L 107.888571 118.266271 
L 116.034082 118.109567 
L 124.179592 117.952863 
L 132.325102 117.796159 
L 140.470612 117.639454 
L 148.616122 117.48275 
L 156.761633 117.326046 
L 164.907143 117.169342 
L 173.052653 117.012637 
L 181.198163 116.855933 
L 189.343673 116.699229 
L 197.489184 116.542524 
L 205.634694 116.38582 
L 213.780204 116.229116 
L 221.925714 116.072412 
L 230.071224 115.915707 
L 238.216735 115.759003 
L 246.362245 115.602299 
L 254.507755 115.445594 
L 262.653265 115.28889 
L 270.798776 115.132186 
L 278.944286 114.975482 
L 287.089796 114.818777 
L 295.235306 114.662073 
L 303.380816 114.505369 
L 311.526327 114.348664 
L 319.671837 114.19196 
L 327.817347 114.035256 
L 335.962857 113.878552 
L 344.108367 113.721847 
L 352.253878 113.565143 
L 360.399388 113.408439 
L 368.544898 113.251734 
L 376.690408 113.09503 
L 384.835918 112.938326 
L 392.981429 112.781622 
L 401.126939 112.624917 
L 409.272449 112.468213 
L 417.417959 112.311509 
L 425.563469 112.154804 
L 433.70898 111.9981 
L 441.85449 111.841396 
L 450 111.684692 
" clip-path="url(#p1a17065574)" style="fill: none; stroke: #9be4ff; stroke-width: 1.5; stroke-linecap: square"/>
   </g>
   <g id="patch_3">
    <path d="M 50.87 303.64 
L 50.87 10.8 
" style="fill: none; stroke: #000000; stroke-width: 0.8; stroke-linejoin: miter; stroke-linecap: square"/>
   </g>
   <g id="patch_4">
    <path d="M 450 303.64 
L 450 10.8 
" style="fill: none; stroke: #000000; stroke-width: 0.8; stroke-linejoin: miter; stroke-linecap: square"/>
   </g>
   <g id="patch_5">
    <path d="M 50.87 303.64 
L 450 303.64 
" style="fill: none; stroke: #000000; stroke-width: 0.8; stroke-linejoin: miter; stroke-linecap: square"/>
   </g>
   <g id="patch_6">
    <path d="M 50.87 10.8 
L 450 10.8 
" style="fill: none; stroke: #000000; stroke-width: 0.8; stroke-linejoin: miter; stroke-linecap: square"/>
   </g>
   <g id="legend_1">
    <g id="patch_7">
     <path d="M 333.726562 298.64 
L 443 298.64 
Q 445 298.64 445 296.64 
L 445 165.536875 
Q 445 163.536875 443 163.536875 
L 333.726562 163.536875 
Q 331.726562 163.536875 331.726562 165.536875 
L 331.726562 296.64 
Q 331.726562 298.64 333.726562 298.64 
z
" style="fill: #ffffff; opacity: 0.8; stroke: #cccccc; stroke-linejoin: miter"/>
    </g>
    <g id="line2d_35">
     <path d="M 335.726562 171.635312 
L 345.726562 171.635312 
L 355.726562 171.635312 
" style="fill: none; stroke: #d70000; stroke-width: 1.5; stroke-linecap: square"/>
    </g>
    <g id="text_19">
     <!-- AT -->
     <g transform="translate(363.726562 175.135312)scale(0.1 -0.1)">
      <defs>
       <path id="DejaVuSans-41" d="M 2188 4044 
L 1331 1722 
L 3047 1722 
L 2188 4044 
z
M 1831 4666 
L 2547 4666 
L 4325 0 
L 3669 0 
L 3244 1197 
L 1141 1197 
L 716 0 
L 50 0 
L 1831 4666 
z
" transform="scale(0.015625)"/>
       <path id="DejaVuSans-54" d="M -19 4666 
L 3928 4666 
L 3928 4134 
L 2272 4134 
L 2272 0 
L 1638 0 
L 1638 4134 
L -19 4134 
L -19 4666 
z
" transform="scale(0.015625)"/>
      </defs>
      <use xlink:href="#DejaVuSans-41"/>
      <use xlink:href="#DejaVuSans-54" x="60.658203"/>
     </g>
    </g>
    <g id="line2d_36">
     <path d="M 335.726562 186.313438 
L 345.726562 186.313438 
L 355.726562 186.313438 
" style="fill: none; stroke: #8c3cff; stroke-width: 1.5; stroke-linecap: square"/>
    </g>
    <g id="text_20">
     <!-- BE -->
     <g transform="translate(363.726562 189.813438)scale(0.1 -0.1)">
      <defs>
       <path id="DejaVuSans-42" d="M 1259 2228 
L 1259 519 
L 2272 519 
Q 2781 519 3026 730 
Q 3272 941 3272 1375 
Q 3272 1813 3026 2020 
Q 2781 2228 2272 2228 
L 1259 2228 
z
M 1259 4147 
L 1259 2741 
L 2194 2741 
Q 2656 2741 2882 2914 
Q 3109 3088 3109 3444 
Q 3109 3797 2882 3972 
Q 2656 4147 2194 4147 
L 1259 4147 
z
M 628 4666 
L 2241 4666 
Q 2963 4666 3353 4366 
Q 3744 4066 3744 3513 
Q 3744 3084 3544 2831 
Q 3344 2578 2956 2516 
Q 3422 2416 3680 2098 
Q 3938 1781 3938 1306 
Q 3938 681 3513 340 
Q 3088 0 2303 0 
L 628 0 
L 628 4666 
z
" transform="scale(0.015625)"/>
       <path id="DejaVuSans-45" d="M 628 4666 
L 3578 4666 
L 3578 4134 
L 1259 4134 
L 1259 2753 
L 3481 2753 
L 3481 2222 
L 1259 2222 
L 1259 531 
L 3634 531 
L 3634 0 
L 628 0 
L 628 4666 
z
" transform="scale(0.015625)"/>
      </defs>
      <use xlink:href="#DejaVuSans-42"/>
      <use xlink:href="#DejaVuSans-45" x="68.603516"/>
     </g>
    </g>
    <g id="line2d_37">
     <path d="M 335.726562 200.991562 
L 345.726562 200.991562 
L 355.726562 200.991562 
" style="fill: none; stroke: #028800; stroke-width: 1.5; stroke-linecap: square"/>
    </g>
    <g id="text_21">
     <!-- BG -->
     <g transform="translate(363.726562 204.491562)scale(0.1 -0.1)">
      <defs>
       <path id="DejaVuSans-47" d="M 3809 666 
L 3809 1919 
L 2778 1919 
L 2778 2438 
L 4434 2438 
L 4434 434 
Q 4069 175 3628 42 
Q 3188 -91 2688 -91 
Q 1594 -91 976 548 
Q 359 1188 359 2328 
Q 359 3472 976 4111 
Q 1594 4750 2688 4750 
Q 3144 4750 3555 4637 
Q 3966 4525 4313 4306 
L 4313 3634 
Q 3963 3931 3569 4081 
Q 3175 4231 2741 4231 
Q 1884 4231 1454 3753 
Q 1025 3275 1025 2328 
Q 1025 1384 1454 906 
Q 1884 428 2741 428 
Q 3075 428 3337 486 
Q 3600 544 3809 666 
z
" transform="scale(0.015625)"/>
      </defs>
      <use xlink:href="#DejaVuSans-42"/>
      <use xlink:href="#DejaVuSans-47" x="66.853516"/>
     </g>
    </g>
    <g id="line2d_38">
     <path d="M 335.726562 215.669688 
L 345.726562 215.669688 
L 355.726562 215.669688 
" style="fill: none; stroke: #00acc7; stroke-width: 1.5; stroke-linecap: square"/>
    </g>
    <g id="text_22">
     <!-- CY -->
     <g transform="translate(363.726562 219.169688)scale(0.1 -0.1)">
      <defs>
       <path id="DejaVuSans-43" d="M 4122 4306 
L 4122 3641 
Q 3803 3938 3442 4084 
Q 3081 4231 2675 4231 
Q 1875 4231 1450 3742 
Q 1025 3253 1025 2328 
Q 1025 1406 1450 917 
Q 1875 428 2675 428 
Q 3081 428 3442 575 
Q 3803 722 4122 1019 
L 4122 359 
Q 3791 134 3420 21 
Q 3050 -91 2638 -91 
Q 1578 -91 968 557 
Q 359 1206 359 2328 
Q 359 3453 968 4101 
Q 1578 4750 2638 4750 
Q 3056 4750 3426 4639 
Q 3797 4528 4122 4306 
z
" transform="scale(0.015625)"/>
       <path id="DejaVuSans-59" d="M -13 4666 
L 666 4666 
L 1959 2747 
L 3244 4666 
L 3922 4666 
L 2272 2222 
L 2272 0 
L 1638 0 
L 1638 2222 
L -13 4666 
z
" transform="scale(0.015625)"/>
      </defs>
      <use xlink:href="#DejaVuSans-43"/>
      <use xlink:href="#DejaVuSans-59" x="68.074219"/>
     </g>
    </g>
    <g id="line2d_39">
     <path d="M 335.726562 230.347813 
L 345.726562 230.347813 
L 355.726562 230.347813 
" style="fill: none; stroke: #ff7fd1; stroke-width: 1.5; stroke-linecap: square"/>
    </g>
    <g id="text_23">
     <!-- DE -->
     <g transform="translate(363.726562 233.847813)scale(0.1 -0.1)">
      <use xlink:href="#DejaVuSans-44"/>
      <use xlink:href="#DejaVuSans-45" x="77.001953"/>
     </g>
    </g>
    <g id="line2d_40">
     <path d="M 335.726562 245.025937 
L 345.726562 245.025937 
L 355.726562 245.025937 
" style="fill: none; stroke: #6c004f; stroke-width: 1.5; stroke-linecap: square"/>
    </g>
    <g id="text_24">
     <!-- DK -->
     <g transform="translate(363.726562 248.525937)scale(0.1 -0.1)">
      <defs>
       <path id="DejaVuSans-4b" d="M 628 4666 
L 1259 4666 
L 1259 2694 
L 3353 4666 
L 4166 4666 
L 1850 2491 
L 4331 0 
L 3500 0 
L 1259 2247 
L 1259 0 
L 628 0 
L 628 4666 
z
" transform="scale(0.015625)"/>
      </defs>
      <use xlink:href="#DejaVuSans-44"/>
      <use xlink:href="#DejaVuSans-4b" x="77.001953"/>
     </g>
    </g>
    <g id="line2d_41">
     <path d="M 335.726562 259.704062 
L 345.726562 259.704062 
L 355.726562 259.704062 
" style="fill: none; stroke: #583b00; stroke-width: 1.5; stroke-linecap: square"/>
    </g>
    <g id="text_25">
     <!-- EL -->
     <g transform="translate(363.726562 263.204062)scale(0.1 -0.1)">
      <defs>
       <path id="DejaVuSans-4c" d="M 628 4666 
L 1259 4666 
L 1259 531 
L 3531 531 
L 3531 0 
L 628 0 
L 628 4666 
z
" transform="scale(0.015625)"/>
      </defs>
      <use xlink:href="#DejaVuSans-45"/>
      <use xlink:href="#DejaVuSans-4c" x="63.183594"/>
     </g>
    </g>
    <g id="line2d_42">
     <path d="M 335.726562 274.382187 
L 345.726562 274.382187 
L 355.726562 274.382187 
" style="fill: none; stroke: #005759; stroke-width: 1.5; stroke-linecap: square"/>
    </g>
    <g id="text_26">
     <!-- ES -->
     <g transform="translate(363.726562 277.882187)scale(0.1 -0.1)">
      <defs>
       <path id="DejaVuSans-53" d="M 3425 4513 
L 3425 3897 
Q 3066 4069 2747 4153 
Q 2428 4238 2131 4238 
Q 1616 4238 1336 4038 
Q 1056 3838 1056 3469 
Q 1056 3159 1242 3001 
Q 1428 2844 1947 2747 
L 2328 2669 
Q 3034 2534 3370 2195 
Q 3706 1856 3706 1288 
Q 3706 609 3251 259 
Q 2797 -91 1919 -91 
Q 1588 -91 1214 -16 
Q 841 59 441 206 
L 441 856 
Q 825 641 1194 531 
Q 1563 422 1919 422 
Q 2459 422 2753 634 
Q 3047 847 3047 1241 
Q 3047 1584 2836 1778 
Q 2625 1972 2144 2069 
L 1759 2144 
Q 1053 2284 737 2584 
Q 422 2884 422 3419 
Q 422 4038 858 4394 
Q 1294 4750 2059 4750 
Q 2388 4750 2728 4690 
Q 3069 4631 3425 4513 
z
" transform="scale(0.015625)"/>
      </defs>
      <use xlink:href="#DejaVuSans-45"/>
      <use xlink:href="#DejaVuSans-53" x="63.183594"/>
     </g>
    </g>
    <g id="line2d_43">
     <path d="M 335.726562 289.060313 
L 345.726562 289.060313 
L 355.726562 289.060313 
" style="fill: none; stroke: #0000dd; stroke-width: 1.5; stroke-linecap: square"/>
    </g>
    <g id="text_27">
     <!-- FI -->
     <g transform="translate(363.726562 292.560313)scale(0.1 -0.1)">
      <defs>
       <path id="DejaVuSans-46" d="M 628 4666 
L 3309 4666 
L 3309 4134 
L 1259 4134 
L 1259 2759 
L 3109 2759 
L 3109 2228 
L 1259 2228 
L 1259 0 
L 628 0 
L 628 4666 
z
" transform="scale(0.015625)"/>
       <path id="DejaVuSans-49" d="M 628 4666 
L 1259 4666 
L 1259 0 
L 628 0 
L 628 4666 
z
" transform="scale(0.015625)"/>
      </defs>
      <use xlink:href="#DejaVuSans-46"/>
      <use xlink:href="#DejaVuSans-49" x="57.519531"/>
     </g>
    </g>
    <g id="line2d_44">
     <path d="M 398.160937 171.635312 
L 408.160937 171.635312 
L 418.160937 171.635312 
" style="fill: none; stroke: #a1756a; stroke-width: 1.5; stroke-linecap: square"/>
    </g>
    <g id="text_28">
     <!-- HU -->
     <g transform="translate(426.160937 175.135312)scale(0.1 -0.1)">
      <use xlink:href="#DejaVuSans-48"/>
      <use xlink:href="#DejaVuSans-55" x="75.195312"/>
     </g>
    </g>
    <g id="line2d_45">
     <path d="M 398.160937 186.313438 
L 408.160937 186.313438 
L 418.160937 186.313438 
" style="fill: none; stroke: #bcb7ff; stroke-width: 1.5; stroke-linecap: square"/>
    </g>
    <g id="text_29">
     <!-- IE -->
     <g transform="translate(426.160937 189.813438)scale(0.1 -0.1)">
      <use xlink:href="#DejaVuSans-49"/>
      <use xlink:href="#DejaVuSans-45" x="29.492188"/>
     </g>
    </g>
    <g id="line2d_46">
     <path d="M 398.160937 200.991562 
L 408.160937 200.991562 
L 418.160937 200.991562 
" style="fill: none; stroke: #95b578; stroke-width: 1.5; stroke-linecap: square"/>
    </g>
    <g id="text_30">
     <!-- IT -->
     <g transform="translate(426.160937 204.491562)scale(0.1 -0.1)">
      <use xlink:href="#DejaVuSans-49"/>
      <use xlink:href="#DejaVuSans-54" x="29.492188"/>
     </g>
    </g>
    <g id="line2d_47">
     <path d="M 398.160937 215.669688 
L 408.160937 215.669688 
L 418.160937 215.669688 
" style="fill: none; stroke: #c004b9; stroke-width: 1.5; stroke-linecap: square"/>
    </g>
    <g id="text_31">
     <!-- LT -->
     <g transform="translate(426.160937 219.169688)scale(0.1 -0.1)">
      <use xlink:href="#DejaVuSans-4c"/>
      <use xlink:href="#DejaVuSans-54" x="41.962891"/>
     </g>
    </g>
    <g id="line2d_48">
     <path d="M 398.160937 230.347813 
L 408.160937 230.347813 
L 418.160937 230.347813 
" style="fill: none; stroke: #0774d8; stroke-width: 1.5; stroke-linecap: square"/>
    </g>
    <g id="text_32">
     <!-- MT -->
     <g transform="translate(426.160937 233.847813)scale(0.1 -0.1)">
      <defs>
       <path id="DejaVuSans-4d" d="M 628 4666 
L 1569 4666 
L 2759 1491 
L 3956 4666 
L 4897 4666 
L 4897 0 
L 4281 0 
L 4281 4097 
L 3078 897 
L 2444 897 
L 1241 4097 
L 1241 0 
L 628 0 
L 628 4666 
z
" transform="scale(0.015625)"/>
      </defs>
      <use xlink:href="#DejaVuSans-4d"/>
      <use xlink:href="#DejaVuSans-54" x="86.279297"/>
     </g>
    </g>
    <g id="line2d_49">
     <path d="M 398.160937 245.025937 
L 408.160937 245.025937 
L 418.160937 245.025937 
" style="fill: none; stroke: #8f7a00; stroke-width: 1.5; stroke-linecap: square"/>
    </g>
    <g id="text_33">
     <!-- PT -->
     <g transform="translate(426.160937 248.525937)scale(0.1 -0.1)">
      <defs>
       <path id="DejaVuSans-50" d="M 1259 4147 
L 1259 2394 
L 2053 2394 
Q 2494 2394 2734 2622 
Q 2975 2850 2975 3272 
Q 2975 3691 2734 3919 
Q 2494 4147 2053 4147 
L 1259 4147 
z
M 628 4666 
L 2053 4666 
Q 2838 4666 3239 4311 
Q 3641 3956 3641 3272 
Q 3641 2581 3239 2228 
Q 2838 1875 2053 1875 
L 1259 1875 
L 1259 0 
L 628 0 
L 628 4666 
z
" transform="scale(0.015625)"/>
      </defs>
      <use xlink:href="#DejaVuSans-50"/>
      <use xlink:href="#DejaVuSans-54" x="60.302734"/>
     </g>
    </g>
    <g id="line2d_50">
     <path d="M 398.160937 259.704062 
L 408.160937 259.704062 
L 418.160937 259.704062 
" style="fill: none; stroke: #ff7266; stroke-width: 1.5; stroke-linecap: square"/>
    </g>
    <g id="text_34">
     <!-- RO -->
     <g transform="translate(426.160937 263.204062)scale(0.1 -0.1)">
      <defs>
       <path id="DejaVuSans-52" d="M 2841 2188 
Q 3044 2119 3236 1894 
Q 3428 1669 3622 1275 
L 4263 0 
L 3584 0 
L 2988 1197 
Q 2756 1666 2539 1819 
Q 2322 1972 1947 1972 
L 1259 1972 
L 1259 0 
L 628 0 
L 628 4666 
L 2053 4666 
Q 2853 4666 3247 4331 
Q 3641 3997 3641 3322 
Q 3641 2881 3436 2590 
Q 3231 2300 2841 2188 
z
M 1259 4147 
L 1259 2491 
L 2053 2491 
Q 2509 2491 2742 2702 
Q 2975 2913 2975 3322 
Q 2975 3731 2742 3939 
Q 2509 4147 2053 4147 
L 1259 4147 
z
" transform="scale(0.015625)"/>
       <path id="DejaVuSans-4f" d="M 2522 4238 
Q 1834 4238 1429 3725 
Q 1025 3213 1025 2328 
Q 1025 1447 1429 934 
Q 1834 422 2522 422 
Q 3209 422 3611 934 
Q 4013 1447 4013 2328 
Q 4013 3213 3611 3725 
Q 3209 4238 2522 4238 
z
M 2522 4750 
Q 3503 4750 4090 4092 
Q 4678 3434 4678 2328 
Q 4678 1225 4090 567 
Q 3503 -91 2522 -91 
Q 1538 -91 948 565 
Q 359 1222 359 2328 
Q 359 3434 948 4092 
Q 1538 4750 2522 4750 
z
" transform="scale(0.015625)"/>
      </defs>
      <use xlink:href="#DejaVuSans-52"/>
      <use xlink:href="#DejaVuSans-4f" x="69.482422"/>
     </g>
    </g>
    <g id="line2d_51">
     <path d="M 398.160937 274.382187 
L 408.160937 274.382187 
L 418.160937 274.382187 
" style="fill: none; stroke: #5e7e66; stroke-width: 1.5; stroke-linecap: square"/>
    </g>
    <g id="text_35">
     <!-- SI -->
     <g transform="translate(426.160937 277.882187)scale(0.1 -0.1)">
      <use xlink:href="#DejaVuSans-53"/>
      <use xlink:href="#DejaVuSans-49" x="63.476562"/>
     </g>
    </g>
    <g id="line2d_52">
     <path d="M 398.160937 289.060313 
L 408.160937 289.060313 
L 418.160937 289.060313 
" style="fill: none; stroke: #9be4ff; stroke-width: 1.5; stroke-linecap: square"/>
    </g>
    <g id="text_36">
     <!-- SK -->
     <g transform="translate(426.160937 292.560313)scale(0.1 -0.1)">
      <use xlink:href="#DejaVuSans-53"/>
      <use xlink:href="#DejaVuSans-4b" x="63.476562"/>
     </g>
    </g>
   </g>
  </g>
 </g>
 <defs>
  <clipPath id="p1a17065574">
   <rect x="50.87" y="10.8" width="399.13" height="292.84"/>
  </clipPath>
 </defs>
</svg>
