<?xml version="1.0" encoding="utf-8" standalone="no"?>
<!DOCTYPE svg PUBLIC "-//W3C//DTD SVG 1.1//EN"
  "http://www.w3.org/Graphics/SVG/1.1/DTD/svg11.dtd">
<svg xmlns:xlink="http://www.w3.org/1999/xlink" width="360pt" height="72pt" viewBox="0 0 360 72" xmlns="http://www.w3.org/2000/svg" version="1.1">
 <metadata>
  <rdf:RDF xmlns:dc="http://purl.org/dc/elements/1.1/" xmlns:cc="http://creativecommons.org/ns#" xmlns:rdf="http://www.w3.org/1999/02/22-rdf-syntax-ns#">
   <cc:Work>
    <dc:type rdf:resource="http://purl.org/dc/dcmitype/StillImage"/>
    <dc:date>2024-02-02T17:08:54.739242</dc:date>
    <dc:format>image/svg+xml</dc:format>
    <dc:creator>
     <cc:Agent>
      <dc:title>Matplotlib v3.5.1, https://matplotlib.org/</dc:title>
     </cc:Agent>
    </dc:creator>
   </cc:Work>
  </rdf:RDF>
 </metadata>
 <defs>
  <style type="text/css">*{stroke-linejoin: round; stroke-linecap: butt}</style>
 </defs>
 <g id="figure_1">
  <g id="patch_1">
   <path d="M 0 72 
L 360 72 
L 360 0 
L 0 0 
L 0 72 
z
" style="fill: none"/>
  </g>
  <g id="axes_1">
   <g id="patch_2">
    <path d="M 14.3 30.04 
L 349.2 30.04 
L 349.2 10.8 
L 14.3 10.8 
L 14.3 30.04 
z
" style="fill: none"/>
   </g>
   <g id="matplotlib.axis_1">
    <g id="xtick_1">
     <g id="line2d_1">
      <defs>
       <path id="m4f93532158" d="M 0 0 
L 0 3.5 
" style="stroke: #000000; stroke-width: 0.8"/>
      </defs>
      <g>
       <use xlink:href="#m4f93532158" x="29.212315" y="30.04" style="stroke: #000000; stroke-width: 0.8"/>
      </g>
     </g>
     <g id="text_1">
      <!-- 0 -->
      <g transform="translate(26.031065 44.638437)scale(0.1 -0.1)">
       <defs>
        <path id="DejaVuSans-30" d="M 2034 4250 
Q 1547 4250 1301 3770 
Q 1056 3291 1056 2328 
Q 1056 1369 1301 889 
Q 1547 409 2034 409 
Q 2525 409 2770 889 
Q 3016 1369 3016 2328 
Q 3016 3291 2770 3770 
Q 2525 4250 2034 4250 
z
M 2034 4750 
Q 2819 4750 3233 4129 
Q 3647 3509 3647 2328 
Q 3647 1150 3233 529 
Q 2819 -91 2034 -91 
Q 1250 -91 836 529 
Q 422 1150 422 2328 
Q 422 3509 836 4129 
Q 1250 4750 2034 4750 
z
" transform="scale(0.015625)"/>
       </defs>
       <use xlink:href="#DejaVuSans-30"/>
      </g>
     </g>
    </g>
    <g id="xtick_2">
     <g id="line2d_2">
      <g>
       <use xlink:href="#m4f93532158" x="94.230542" y="30.04" style="stroke: #000000; stroke-width: 0.8"/>
      </g>
     </g>
     <g id="text_2">
      <!-- 1000 -->
      <g transform="translate(81.505542 44.638437)scale(0.1 -0.1)">
       <defs>
        <path id="DejaVuSans-31" d="M 794 531 
L 1825 531 
L 1825 4091 
L 703 3866 
L 703 4441 
L 1819 4666 
L 2450 4666 
L 2450 531 
L 3481 531 
L 3481 0 
L 794 0 
L 794 531 
z
" transform="scale(0.015625)"/>
       </defs>
       <use xlink:href="#DejaVuSans-31"/>
       <use xlink:href="#DejaVuSans-30" x="63.623047"/>
       <use xlink:href="#DejaVuSans-30" x="127.246094"/>
       <use xlink:href="#DejaVuSans-30" x="190.869141"/>
      </g>
     </g>
    </g>
    <g id="xtick_3">
     <g id="line2d_3">
      <g>
       <use xlink:href="#m4f93532158" x="159.248769" y="30.04" style="stroke: #000000; stroke-width: 0.8"/>
      </g>
     </g>
     <g id="text_3">
      <!-- 2000 -->
      <g transform="translate(146.523769 44.638437)scale(0.1 -0.1)">
       <defs>
        <path id="DejaVuSans-32" d="M 1228 531 
L 3431 531 
L 3431 0 
L 469 0 
L 469 531 
Q 828 903 1448 1529 
Q 2069 2156 2228 2338 
Q 2531 2678 2651 2914 
Q 2772 3150 2772 3378 
Q 2772 3750 2511 3984 
Q 2250 4219 1831 4219 
Q 1534 4219 1204 4116 
Q 875 4013 500 3803 
L 500 4441 
Q 881 4594 1212 4672 
Q 1544 4750 1819 4750 
Q 2544 4750 2975 4387 
Q 3406 4025 3406 3419 
Q 3406 3131 3298 2873 
Q 3191 2616 2906 2266 
Q 2828 2175 2409 1742 
Q 1991 1309 1228 531 
z
" transform="scale(0.015625)"/>
       </defs>
       <use xlink:href="#DejaVuSans-32"/>
       <use xlink:href="#DejaVuSans-30" x="63.623047"/>
       <use xlink:href="#DejaVuSans-30" x="127.246094"/>
       <use xlink:href="#DejaVuSans-30" x="190.869141"/>
      </g>
     </g>
    </g>
    <g id="xtick_4">
     <g id="line2d_4">
      <g>
       <use xlink:href="#m4f93532158" x="224.266996" y="30.04" style="stroke: #000000; stroke-width: 0.8"/>
      </g>
     </g>
     <g id="text_4">
      <!-- 3000 -->
      <g transform="translate(211.541996 44.638437)scale(0.1 -0.1)">
       <defs>
        <path id="DejaVuSans-33" d="M 2597 2516 
Q 3050 2419 3304 2112 
Q 3559 1806 3559 1356 
Q 3559 666 3084 287 
Q 2609 -91 1734 -91 
Q 1441 -91 1130 -33 
Q 819 25 488 141 
L 488 750 
Q 750 597 1062 519 
Q 1375 441 1716 441 
Q 2309 441 2620 675 
Q 2931 909 2931 1356 
Q 2931 1769 2642 2001 
Q 2353 2234 1838 2234 
L 1294 2234 
L 1294 2753 
L 1863 2753 
Q 2328 2753 2575 2939 
Q 2822 3125 2822 3475 
Q 2822 3834 2567 4026 
Q 2313 4219 1838 4219 
Q 1578 4219 1281 4162 
Q 984 4106 628 3988 
L 628 4550 
Q 988 4650 1302 4700 
Q 1616 4750 1894 4750 
Q 2613 4750 3031 4423 
Q 3450 4097 3450 3541 
Q 3450 3153 3228 2886 
Q 3006 2619 2597 2516 
z
" transform="scale(0.015625)"/>
       </defs>
       <use xlink:href="#DejaVuSans-33"/>
       <use xlink:href="#DejaVuSans-30" x="63.623047"/>
       <use xlink:href="#DejaVuSans-30" x="127.246094"/>
       <use xlink:href="#DejaVuSans-30" x="190.869141"/>
      </g>
     </g>
    </g>
    <g id="xtick_5">
     <g id="line2d_5">
      <g>
       <use xlink:href="#m4f93532158" x="289.285223" y="30.04" style="stroke: #000000; stroke-width: 0.8"/>
      </g>
     </g>
     <g id="text_5">
      <!-- 4000 -->
      <g transform="translate(276.560223 44.638437)scale(0.1 -0.1)">
       <defs>
        <path id="DejaVuSans-34" d="M 2419 4116 
L 825 1625 
L 2419 1625 
L 2419 4116 
z
M 2253 4666 
L 3047 4666 
L 3047 1625 
L 3713 1625 
L 3713 1100 
L 3047 1100 
L 3047 0 
L 2419 0 
L 2419 1100 
L 313 1100 
L 313 1709 
L 2253 4666 
z
" transform="scale(0.015625)"/>
       </defs>
       <use xlink:href="#DejaVuSans-34"/>
       <use xlink:href="#DejaVuSans-30" x="63.623047"/>
       <use xlink:href="#DejaVuSans-30" x="127.246094"/>
       <use xlink:href="#DejaVuSans-30" x="190.869141"/>
      </g>
     </g>
    </g>
    <g id="text_6">
     <!-- Number of Thefts -->
     <g transform="translate(138.129687 58.316562)scale(0.1 -0.1)">
      <defs>
       <path id="DejaVuSans-4e" d="M 628 4666 
L 1478 4666 
L 3547 763 
L 3547 4666 
L 4159 4666 
L 4159 0 
L 3309 0 
L 1241 3903 
L 1241 0 
L 628 0 
L 628 4666 
z
" transform="scale(0.015625)"/>
       <path id="DejaVuSans-75" d="M 544 1381 
L 544 3500 
L 1119 3500 
L 1119 1403 
Q 1119 906 1312 657 
Q 1506 409 1894 409 
Q 2359 409 2629 706 
Q 2900 1003 2900 1516 
L 2900 3500 
L 3475 3500 
L 3475 0 
L 2900 0 
L 2900 538 
Q 2691 219 2414 64 
Q 2138 -91 1772 -91 
Q 1169 -91 856 284 
Q 544 659 544 1381 
z
M 1991 3584 
L 1991 3584 
z
" transform="scale(0.015625)"/>
       <path id="DejaVuSans-6d" d="M 3328 2828 
Q 3544 3216 3844 3400 
Q 4144 3584 4550 3584 
Q 5097 3584 5394 3201 
Q 5691 2819 5691 2113 
L 5691 0 
L 5113 0 
L 5113 2094 
Q 5113 2597 4934 2840 
Q 4756 3084 4391 3084 
Q 3944 3084 3684 2787 
Q 3425 2491 3425 1978 
L 3425 0 
L 2847 0 
L 2847 2094 
Q 2847 2600 2669 2842 
Q 2491 3084 2119 3084 
Q 1678 3084 1418 2786 
Q 1159 2488 1159 1978 
L 1159 0 
L 581 0 
L 581 3500 
L 1159 3500 
L 1159 2956 
Q 1356 3278 1631 3431 
Q 1906 3584 2284 3584 
Q 2666 3584 2933 3390 
Q 3200 3197 3328 2828 
z
" transform="scale(0.015625)"/>
       <path id="DejaVuSans-62" d="M 3116 1747 
Q 3116 2381 2855 2742 
Q 2594 3103 2138 3103 
Q 1681 3103 1420 2742 
Q 1159 2381 1159 1747 
Q 1159 1113 1420 752 
Q 1681 391 2138 391 
Q 2594 391 2855 752 
Q 3116 1113 3116 1747 
z
M 1159 2969 
Q 1341 3281 1617 3432 
Q 1894 3584 2278 3584 
Q 2916 3584 3314 3078 
Q 3713 2572 3713 1747 
Q 3713 922 3314 415 
Q 2916 -91 2278 -91 
Q 1894 -91 1617 61 
Q 1341 213 1159 525 
L 1159 0 
L 581 0 
L 581 4863 
L 1159 4863 
L 1159 2969 
z
" transform="scale(0.015625)"/>
       <path id="DejaVuSans-65" d="M 3597 1894 
L 3597 1613 
L 953 1613 
Q 991 1019 1311 708 
Q 1631 397 2203 397 
Q 2534 397 2845 478 
Q 3156 559 3463 722 
L 3463 178 
Q 3153 47 2828 -22 
Q 2503 -91 2169 -91 
Q 1331 -91 842 396 
Q 353 884 353 1716 
Q 353 2575 817 3079 
Q 1281 3584 2069 3584 
Q 2775 3584 3186 3129 
Q 3597 2675 3597 1894 
z
M 3022 2063 
Q 3016 2534 2758 2815 
Q 2500 3097 2075 3097 
Q 1594 3097 1305 2825 
Q 1016 2553 972 2059 
L 3022 2063 
z
" transform="scale(0.015625)"/>
       <path id="DejaVuSans-72" d="M 2631 2963 
Q 2534 3019 2420 3045 
Q 2306 3072 2169 3072 
Q 1681 3072 1420 2755 
Q 1159 2438 1159 1844 
L 1159 0 
L 581 0 
L 581 3500 
L 1159 3500 
L 1159 2956 
Q 1341 3275 1631 3429 
Q 1922 3584 2338 3584 
Q 2397 3584 2469 3576 
Q 2541 3569 2628 3553 
L 2631 2963 
z
" transform="scale(0.015625)"/>
       <path id="DejaVuSans-20" transform="scale(0.015625)"/>
       <path id="DejaVuSans-6f" d="M 1959 3097 
Q 1497 3097 1228 2736 
Q 959 2375 959 1747 
Q 959 1119 1226 758 
Q 1494 397 1959 397 
Q 2419 397 2687 759 
Q 2956 1122 2956 1747 
Q 2956 2369 2687 2733 
Q 2419 3097 1959 3097 
z
M 1959 3584 
Q 2709 3584 3137 3096 
Q 3566 2609 3566 1747 
Q 3566 888 3137 398 
Q 2709 -91 1959 -91 
Q 1206 -91 779 398 
Q 353 888 353 1747 
Q 353 2609 779 3096 
Q 1206 3584 1959 3584 
z
" transform="scale(0.015625)"/>
       <path id="DejaVuSans-66" d="M 2375 4863 
L 2375 4384 
L 1825 4384 
Q 1516 4384 1395 4259 
Q 1275 4134 1275 3809 
L 1275 3500 
L 2222 3500 
L 2222 3053 
L 1275 3053 
L 1275 0 
L 697 0 
L 697 3053 
L 147 3053 
L 147 3500 
L 697 3500 
L 697 3744 
Q 697 4328 969 4595 
Q 1241 4863 1831 4863 
L 2375 4863 
z
" transform="scale(0.015625)"/>
       <path id="DejaVuSans-54" d="M -19 4666 
L 3928 4666 
L 3928 4134 
L 2272 4134 
L 2272 0 
L 1638 0 
L 1638 4134 
L -19 4134 
L -19 4666 
z
" transform="scale(0.015625)"/>
       <path id="DejaVuSans-68" d="M 3513 2113 
L 3513 0 
L 2938 0 
L 2938 2094 
Q 2938 2591 2744 2837 
Q 2550 3084 2163 3084 
Q 1697 3084 1428 2787 
Q 1159 2491 1159 1978 
L 1159 0 
L 581 0 
L 581 4863 
L 1159 4863 
L 1159 2956 
Q 1366 3272 1645 3428 
Q 1925 3584 2291 3584 
Q 2894 3584 3203 3211 
Q 3513 2838 3513 2113 
z
" transform="scale(0.015625)"/>
       <path id="DejaVuSans-74" d="M 1172 4494 
L 1172 3500 
L 2356 3500 
L 2356 3053 
L 1172 3053 
L 1172 1153 
Q 1172 725 1289 603 
Q 1406 481 1766 481 
L 2356 481 
L 2356 0 
L 1766 0 
Q 1100 0 847 248 
Q 594 497 594 1153 
L 594 3053 
L 172 3053 
L 172 3500 
L 594 3500 
L 594 4494 
L 1172 4494 
z
" transform="scale(0.015625)"/>
       <path id="DejaVuSans-73" d="M 2834 3397 
L 2834 2853 
Q 2591 2978 2328 3040 
Q 2066 3103 1784 3103 
Q 1356 3103 1142 2972 
Q 928 2841 928 2578 
Q 928 2378 1081 2264 
Q 1234 2150 1697 2047 
L 1894 2003 
Q 2506 1872 2764 1633 
Q 3022 1394 3022 966 
Q 3022 478 2636 193 
Q 2250 -91 1575 -91 
Q 1294 -91 989 -36 
Q 684 19 347 128 
L 347 722 
Q 666 556 975 473 
Q 1284 391 1588 391 
Q 1994 391 2212 530 
Q 2431 669 2431 922 
Q 2431 1156 2273 1281 
Q 2116 1406 1581 1522 
L 1381 1569 
Q 847 1681 609 1914 
Q 372 2147 372 2553 
Q 372 3047 722 3315 
Q 1072 3584 1716 3584 
Q 2034 3584 2315 3537 
Q 2597 3491 2834 3397 
z
" transform="scale(0.015625)"/>
      </defs>
      <use xlink:href="#DejaVuSans-4e"/>
      <use xlink:href="#DejaVuSans-75" x="74.804688"/>
      <use xlink:href="#DejaVuSans-6d" x="138.183594"/>
      <use xlink:href="#DejaVuSans-62" x="235.595703"/>
      <use xlink:href="#DejaVuSans-65" x="299.072266"/>
      <use xlink:href="#DejaVuSans-72" x="360.595703"/>
      <use xlink:href="#DejaVuSans-20" x="401.708984"/>
      <use xlink:href="#DejaVuSans-6f" x="433.496094"/>
      <use xlink:href="#DejaVuSans-66" x="494.677734"/>
      <use xlink:href="#DejaVuSans-20" x="529.882812"/>
      <use xlink:href="#DejaVuSans-54" x="561.669922"/>
      <use xlink:href="#DejaVuSans-68" x="622.753906"/>
      <use xlink:href="#DejaVuSans-65" x="686.132812"/>
      <use xlink:href="#DejaVuSans-66" x="747.65625"/>
      <use xlink:href="#DejaVuSans-74" x="781.111328"/>
      <use xlink:href="#DejaVuSans-73" x="820.320312"/>
     </g>
    </g>
   </g>
   <g id="matplotlib.axis_2">
    <g id="ytick_1">
     <g id="line2d_6">
      <defs>
       <path id="m926681eed6" d="M 0 0 
L -3.5 0 
" style="stroke: #000000; stroke-width: 0.8"/>
      </defs>
      <g>
       <use xlink:href="#m926681eed6" x="14.3" y="20.42" style="stroke: #000000; stroke-width: 0.8"/>
      </g>
     </g>
    </g>
   </g>
   <g id="patch_3">
    <path d="M 44.807236 12.724 
L 44.807236 28.116 
L 100.464502 28.116 
L 100.464502 12.724 
L 44.807236 12.724 
z
" clip-path="url(#p66195e4c54)" style="fill: #808080; stroke: #4d4d4d; stroke-linejoin: miter"/>
   </g>
   <g id="line2d_7">
    <path d="M 44.807236 20.42 
L 29.522727 20.42 
" clip-path="url(#p66195e4c54)" style="fill: none; stroke: #4d4d4d"/>
   </g>
   <g id="line2d_8">
    <path d="M 100.464502 20.42 
L 181.426915 20.42 
" clip-path="url(#p66195e4c54)" style="fill: none; stroke: #4d4d4d"/>
   </g>
   <g id="line2d_9">
    <path d="M 29.522727 16.572 
L 29.522727 24.268 
" clip-path="url(#p66195e4c54)" style="fill: none; stroke: #4d4d4d; stroke-linecap: square"/>
   </g>
   <g id="line2d_10">
    <path d="M 181.426915 16.572 
L 181.426915 24.268 
" clip-path="url(#p66195e4c54)" style="fill: none; stroke: #4d4d4d; stroke-linecap: square"/>
   </g>
   <g id="line2d_11">
    <defs>
     <path id="m8db558fe77" d="M 0 3 
C 0.795609 3 1.55874 2.683901 2.12132 2.12132 
C 2.683901 1.55874 3 0.795609 3 0 
C 3 -0.795609 2.683901 -1.55874 2.12132 -2.12132 
C 1.55874 -2.683901 0.795609 -3 0 -3 
C -0.795609 -3 -1.55874 -2.683901 -2.12132 -2.12132 
C -2.683901 -1.55874 -3 -0.795609 -3 0 
C -3 0.795609 -2.683901 1.55874 -2.12132 2.12132 
C -1.55874 2.683901 -0.795609 3 0 3 
z
" style="stroke: #4d4d4d"/>
    </defs>
    <g clip-path="url(#p66195e4c54)">
     <use xlink:href="#m8db558fe77" x="187.173782" y="20.42" style="fill-opacity: 0; stroke: #4d4d4d"/>
     <use xlink:href="#m8db558fe77" x="187.173782" y="20.42" style="fill-opacity: 0; stroke: #4d4d4d"/>
     <use xlink:href="#m8db558fe77" x="187.173782" y="20.42" style="fill-opacity: 0; stroke: #4d4d4d"/>
     <use xlink:href="#m8db558fe77" x="197.53229" y="20.42" style="fill-opacity: 0; stroke: #4d4d4d"/>
     <use xlink:href="#m8db558fe77" x="191.645269" y="20.42" style="fill-opacity: 0; stroke: #4d4d4d"/>
     <use xlink:href="#m8db558fe77" x="226.951139" y="20.42" style="fill-opacity: 0; stroke: #4d4d4d"/>
     <use xlink:href="#m8db558fe77" x="226.951139" y="20.42" style="fill-opacity: 0; stroke: #4d4d4d"/>
     <use xlink:href="#m8db558fe77" x="286.866044" y="20.42" style="fill-opacity: 0; stroke: #4d4d4d"/>
     <use xlink:href="#m8db558fe77" x="286.866044" y="20.42" style="fill-opacity: 0; stroke: #4d4d4d"/>
     <use xlink:href="#m8db558fe77" x="286.866044" y="20.42" style="fill-opacity: 0; stroke: #4d4d4d"/>
     <use xlink:href="#m8db558fe77" x="331.700189" y="20.42" style="fill-opacity: 0; stroke: #4d4d4d"/>
     <use xlink:href="#m8db558fe77" x="300.652053" y="20.42" style="fill-opacity: 0; stroke: #4d4d4d"/>
     <use xlink:href="#m8db558fe77" x="276.611013" y="20.42" style="fill-opacity: 0; stroke: #4d4d4d"/>
     <use xlink:href="#m8db558fe77" x="276.611013" y="20.42" style="fill-opacity: 0; stroke: #4d4d4d"/>
     <use xlink:href="#m8db558fe77" x="276.611013" y="20.42" style="fill-opacity: 0; stroke: #4d4d4d"/>
     <use xlink:href="#m8db558fe77" x="266.003854" y="20.42" style="fill-opacity: 0; stroke: #4d4d4d"/>
     <use xlink:href="#m8db558fe77" x="266.003854" y="20.42" style="fill-opacity: 0; stroke: #4d4d4d"/>
     <use xlink:href="#m8db558fe77" x="266.003854" y="20.42" style="fill-opacity: 0; stroke: #4d4d4d"/>
     <use xlink:href="#m8db558fe77" x="245.193959" y="20.42" style="fill-opacity: 0; stroke: #4d4d4d"/>
     <use xlink:href="#m8db558fe77" x="245.193959" y="20.42" style="fill-opacity: 0; stroke: #4d4d4d"/>
     <use xlink:href="#m8db558fe77" x="245.193959" y="20.42" style="fill-opacity: 0; stroke: #4d4d4d"/>
     <use xlink:href="#m8db558fe77" x="216.077136" y="20.42" style="fill-opacity: 0; stroke: #4d4d4d"/>
     <use xlink:href="#m8db558fe77" x="216.077136" y="20.42" style="fill-opacity: 0; stroke: #4d4d4d"/>
     <use xlink:href="#m8db558fe77" x="216.077136" y="20.42" style="fill-opacity: 0; stroke: #4d4d4d"/>
     <use xlink:href="#m8db558fe77" x="218.813218" y="20.42" style="fill-opacity: 0; stroke: #4d4d4d"/>
     <use xlink:href="#m8db558fe77" x="202.643884" y="20.42" style="fill-opacity: 0; stroke: #4d4d4d"/>
     <use xlink:href="#m8db558fe77" x="215.817322" y="20.42" style="fill-opacity: 0; stroke: #4d4d4d"/>
     <use xlink:href="#m8db558fe77" x="215.817322" y="20.42" style="fill-opacity: 0; stroke: #4d4d4d"/>
     <use xlink:href="#m8db558fe77" x="215.817322" y="20.42" style="fill-opacity: 0; stroke: #4d4d4d"/>
     <use xlink:href="#m8db558fe77" x="184.746362" y="20.42" style="fill-opacity: 0; stroke: #4d4d4d"/>
     <use xlink:href="#m8db558fe77" x="184.746362" y="20.42" style="fill-opacity: 0; stroke: #4d4d4d"/>
     <use xlink:href="#m8db558fe77" x="184.746362" y="20.42" style="fill-opacity: 0; stroke: #4d4d4d"/>
     <use xlink:href="#m8db558fe77" x="333.977273" y="20.42" style="fill-opacity: 0; stroke: #4d4d4d"/>
     <use xlink:href="#m8db558fe77" x="333.977273" y="20.42" style="fill-opacity: 0; stroke: #4d4d4d"/>
     <use xlink:href="#m8db558fe77" x="333.977273" y="20.42" style="fill-opacity: 0; stroke: #4d4d4d"/>
     <use xlink:href="#m8db558fe77" x="301.669707" y="20.42" style="fill-opacity: 0; stroke: #4d4d4d"/>
     <use xlink:href="#m8db558fe77" x="301.669707" y="20.42" style="fill-opacity: 0; stroke: #4d4d4d"/>
     <use xlink:href="#m8db558fe77" x="301.669707" y="20.42" style="fill-opacity: 0; stroke: #4d4d4d"/>
     <use xlink:href="#m8db558fe77" x="259.463095" y="20.42" style="fill-opacity: 0; stroke: #4d4d4d"/>
     <use xlink:href="#m8db558fe77" x="259.463095" y="20.42" style="fill-opacity: 0; stroke: #4d4d4d"/>
     <use xlink:href="#m8db558fe77" x="259.463095" y="20.42" style="fill-opacity: 0; stroke: #4d4d4d"/>
     <use xlink:href="#m8db558fe77" x="278.036167" y="20.42" style="fill-opacity: 0; stroke: #4d4d4d"/>
     <use xlink:href="#m8db558fe77" x="217.892808" y="20.42" style="fill-opacity: 0; stroke: #4d4d4d"/>
     <use xlink:href="#m8db558fe77" x="191.053917" y="20.42" style="fill-opacity: 0; stroke: #4d4d4d"/>
     <use xlink:href="#m8db558fe77" x="191.053917" y="20.42" style="fill-opacity: 0; stroke: #4d4d4d"/>
     <use xlink:href="#m8db558fe77" x="191.053917" y="20.42" style="fill-opacity: 0; stroke: #4d4d4d"/>
     <use xlink:href="#m8db558fe77" x="188.608395" y="20.42" style="fill-opacity: 0; stroke: #4d4d4d"/>
     <use xlink:href="#m8db558fe77" x="188.608395" y="20.42" style="fill-opacity: 0; stroke: #4d4d4d"/>
     <use xlink:href="#m8db558fe77" x="188.608395" y="20.42" style="fill-opacity: 0; stroke: #4d4d4d"/>
     <use xlink:href="#m8db558fe77" x="215.661499" y="20.42" style="fill-opacity: 0; stroke: #4d4d4d"/>
     <use xlink:href="#m8db558fe77" x="187.497613" y="20.42" style="fill-opacity: 0; stroke: #4d4d4d"/>
     <use xlink:href="#m8db558fe77" x="240.806478" y="20.42" style="fill-opacity: 0; stroke: #4d4d4d"/>
     <use xlink:href="#m8db558fe77" x="238.179621" y="20.42" style="fill-opacity: 0; stroke: #4d4d4d"/>
     <use xlink:href="#m8db558fe77" x="246.434905" y="20.42" style="fill-opacity: 0; stroke: #4d4d4d"/>
     <use xlink:href="#m8db558fe77" x="246.434905" y="20.42" style="fill-opacity: 0; stroke: #4d4d4d"/>
     <use xlink:href="#m8db558fe77" x="246.434905" y="20.42" style="fill-opacity: 0; stroke: #4d4d4d"/>
     <use xlink:href="#m8db558fe77" x="250.627682" y="20.42" style="fill-opacity: 0; stroke: #4d4d4d"/>
     <use xlink:href="#m8db558fe77" x="250.627682" y="20.42" style="fill-opacity: 0; stroke: #4d4d4d"/>
     <use xlink:href="#m8db558fe77" x="250.627682" y="20.42" style="fill-opacity: 0; stroke: #4d4d4d"/>
     <use xlink:href="#m8db558fe77" x="259.22791" y="20.42" style="fill-opacity: 0; stroke: #4d4d4d"/>
     <use xlink:href="#m8db558fe77" x="259.22791" y="20.42" style="fill-opacity: 0; stroke: #4d4d4d"/>
     <use xlink:href="#m8db558fe77" x="259.22791" y="20.42" style="fill-opacity: 0; stroke: #4d4d4d"/>
     <use xlink:href="#m8db558fe77" x="194.315669" y="20.42" style="fill-opacity: 0; stroke: #4d4d4d"/>
     <use xlink:href="#m8db558fe77" x="194.315669" y="20.42" style="fill-opacity: 0; stroke: #4d4d4d"/>
     <use xlink:href="#m8db558fe77" x="194.315669" y="20.42" style="fill-opacity: 0; stroke: #4d4d4d"/>
     <use xlink:href="#m8db558fe77" x="232.077454" y="20.42" style="fill-opacity: 0; stroke: #4d4d4d"/>
     <use xlink:href="#m8db558fe77" x="186.341856" y="20.42" style="fill-opacity: 0; stroke: #4d4d4d"/>
     <use xlink:href="#m8db558fe77" x="186.341856" y="20.42" style="fill-opacity: 0; stroke: #4d4d4d"/>
     <use xlink:href="#m8db558fe77" x="217.707123" y="20.42" style="fill-opacity: 0; stroke: #4d4d4d"/>
     <use xlink:href="#m8db558fe77" x="216.351521" y="20.42" style="fill-opacity: 0; stroke: #4d4d4d"/>
     <use xlink:href="#m8db558fe77" x="261.055055" y="20.42" style="fill-opacity: 0; stroke: #4d4d4d"/>
     <use xlink:href="#m8db558fe77" x="245.087439" y="20.42" style="fill-opacity: 0; stroke: #4d4d4d"/>
     <use xlink:href="#m8db558fe77" x="225.102743" y="20.42" style="fill-opacity: 0; stroke: #4d4d4d"/>
     <use xlink:href="#m8db558fe77" x="208.645268" y="20.42" style="fill-opacity: 0; stroke: #4d4d4d"/>
     <use xlink:href="#m8db558fe77" x="208.645268" y="20.42" style="fill-opacity: 0; stroke: #4d4d4d"/>
     <use xlink:href="#m8db558fe77" x="194.592887" y="20.42" style="fill-opacity: 0; stroke: #4d4d4d"/>
     <use xlink:href="#m8db558fe77" x="194.592887" y="20.42" style="fill-opacity: 0; stroke: #4d4d4d"/>
     <use xlink:href="#m8db558fe77" x="231.462831" y="20.42" style="fill-opacity: 0; stroke: #4d4d4d"/>
     <use xlink:href="#m8db558fe77" x="222.552471" y="20.42" style="fill-opacity: 0; stroke: #4d4d4d"/>
     <use xlink:href="#m8db558fe77" x="202.772296" y="20.42" style="fill-opacity: 0; stroke: #4d4d4d"/>
     <use xlink:href="#m8db558fe77" x="197.26053" y="20.42" style="fill-opacity: 0; stroke: #4d4d4d"/>
     <use xlink:href="#m8db558fe77" x="187.204264" y="20.42" style="fill-opacity: 0; stroke: #4d4d4d"/>
    </g>
   </g>
   <g id="line2d_12">
    <path d="M 64.122173 12.724 
L 64.122173 28.116 
" clip-path="url(#p66195e4c54)" style="fill: none; stroke: #4d4d4d"/>
   </g>
   <g id="patch_4">
    <path d="M 14.3 30.04 
L 14.3 10.8 
" style="fill: none; stroke: #000000; stroke-width: 0.8; stroke-linejoin: miter; stroke-linecap: square"/>
   </g>
   <g id="patch_5">
    <path d="M 349.2 30.04 
L 349.2 10.8 
" style="fill: none; stroke: #000000; stroke-width: 0.8; stroke-linejoin: miter; stroke-linecap: square"/>
   </g>
   <g id="patch_6">
    <path d="M 14.3 30.04 
L 349.2 30.04 
" style="fill: none; stroke: #000000; stroke-width: 0.8; stroke-linejoin: miter; stroke-linecap: square"/>
   </g>
   <g id="patch_7">
    <path d="M 14.3 10.8 
L 349.2 10.8 
" style="fill: none; stroke: #000000; stroke-width: 0.8; stroke-linejoin: miter; stroke-linecap: square"/>
   </g>
   <g id="legend_1">
    <g id="patch_8">
     <path d="M 338.2 23.8 
L 342.2 23.8 
Q 344.2 23.8 344.2 21.8 
L 344.2 17.8 
Q 344.2 15.8 342.2 15.8 
L 338.2 15.8 
Q 336.2 15.8 336.2 17.8 
L 336.2 21.8 
Q 336.2 23.8 338.2 23.8 
z
" style="fill: #ffffff; opacity: 0.8; stroke: #cccccc; stroke-linejoin: miter"/>
    </g>
   </g>
  </g>
 </g>
 <defs>
  <clipPath id="p66195e4c54">
   <rect x="14.3" y="10.8" width="334.9" height="19.24"/>
  </clipPath>
 </defs>
</svg>
