<?xml version="1.0" encoding="utf-8" standalone="no"?>
<!DOCTYPE svg PUBLIC "-//W3C//DTD SVG 1.1//EN"
  "http://www.w3.org/Graphics/SVG/1.1/DTD/svg11.dtd">
<svg xmlns:xlink="http://www.w3.org/1999/xlink" width="360pt" height="72pt" viewBox="0 0 360 72" xmlns="http://www.w3.org/2000/svg" version="1.1">
 <metadata>
  <rdf:RDF xmlns:dc="http://purl.org/dc/elements/1.1/" xmlns:cc="http://creativecommons.org/ns#" xmlns:rdf="http://www.w3.org/1999/02/22-rdf-syntax-ns#">
   <cc:Work>
    <dc:type rdf:resource="http://purl.org/dc/dcmitype/StillImage"/>
    <dc:date>2024-02-02T17:07:42.511762</dc:date>
    <dc:format>image/svg+xml</dc:format>
    <dc:creator>
     <cc:Agent>
      <dc:title>Matplotlib v3.5.1, https://matplotlib.org/</dc:title>
     </cc:Agent>
    </dc:creator>
   </cc:Work>
  </rdf:RDF>
 </metadata>
 <defs>
  <style type="text/css">*{stroke-linejoin: round; stroke-linecap: butt}</style>
 </defs>
 <g id="figure_1">
  <g id="patch_1">
   <path d="M 0 72 
L 360 72 
L 360 0 
L 0 0 
L 0 72 
z
" style="fill: none"/>
  </g>
  <g id="axes_1">
   <g id="patch_2">
    <path d="M 14.3 30.04 
L 349.2 30.04 
L 349.2 10.8 
L 14.3 10.8 
L 14.3 30.04 
z
" style="fill: none"/>
   </g>
   <g id="matplotlib.axis_1">
    <g id="xtick_1">
     <g id="line2d_1">
      <defs>
       <path id="m6742983a21" d="M 0 0 
L 0 3.5 
" style="stroke: #000000; stroke-width: 0.8"/>
      </defs>
      <g>
       <use xlink:href="#m6742983a21" x="25.592948" y="30.04" style="stroke: #000000; stroke-width: 0.8"/>
      </g>
     </g>
     <g id="text_1">
      <!-- 0 -->
      <g transform="translate(22.411698 44.638437)scale(0.1 -0.1)">
       <defs>
        <path id="DejaVuSans-30" d="M 2034 4250 
Q 1547 4250 1301 3770 
Q 1056 3291 1056 2328 
Q 1056 1369 1301 889 
Q 1547 409 2034 409 
Q 2525 409 2770 889 
Q 3016 1369 3016 2328 
Q 3016 3291 2770 3770 
Q 2525 4250 2034 4250 
z
M 2034 4750 
Q 2819 4750 3233 4129 
Q 3647 3509 3647 2328 
Q 3647 1150 3233 529 
Q 2819 -91 2034 -91 
Q 1250 -91 836 529 
Q 422 1150 422 2328 
Q 422 3509 836 4129 
Q 1250 4750 2034 4750 
z
" transform="scale(0.015625)"/>
       </defs>
       <use xlink:href="#DejaVuSans-30"/>
      </g>
     </g>
    </g>
    <g id="xtick_2">
     <g id="line2d_2">
      <g>
       <use xlink:href="#m6742983a21" x="62.80894" y="30.04" style="stroke: #000000; stroke-width: 0.8"/>
      </g>
     </g>
     <g id="text_2">
      <!-- 250 -->
      <g transform="translate(53.26519 44.638437)scale(0.1 -0.1)">
       <defs>
        <path id="DejaVuSans-32" d="M 1228 531 
L 3431 531 
L 3431 0 
L 469 0 
L 469 531 
Q 828 903 1448 1529 
Q 2069 2156 2228 2338 
Q 2531 2678 2651 2914 
Q 2772 3150 2772 3378 
Q 2772 3750 2511 3984 
Q 2250 4219 1831 4219 
Q 1534 4219 1204 4116 
Q 875 4013 500 3803 
L 500 4441 
Q 881 4594 1212 4672 
Q 1544 4750 1819 4750 
Q 2544 4750 2975 4387 
Q 3406 4025 3406 3419 
Q 3406 3131 3298 2873 
Q 3191 2616 2906 2266 
Q 2828 2175 2409 1742 
Q 1991 1309 1228 531 
z
" transform="scale(0.015625)"/>
        <path id="DejaVuSans-35" d="M 691 4666 
L 3169 4666 
L 3169 4134 
L 1269 4134 
L 1269 2991 
Q 1406 3038 1543 3061 
Q 1681 3084 1819 3084 
Q 2600 3084 3056 2656 
Q 3513 2228 3513 1497 
Q 3513 744 3044 326 
Q 2575 -91 1722 -91 
Q 1428 -91 1123 -41 
Q 819 9 494 109 
L 494 744 
Q 775 591 1075 516 
Q 1375 441 1709 441 
Q 2250 441 2565 725 
Q 2881 1009 2881 1497 
Q 2881 1984 2565 2268 
Q 2250 2553 1709 2553 
Q 1456 2553 1204 2497 
Q 953 2441 691 2322 
L 691 4666 
z
" transform="scale(0.015625)"/>
       </defs>
       <use xlink:href="#DejaVuSans-32"/>
       <use xlink:href="#DejaVuSans-35" x="63.623047"/>
       <use xlink:href="#DejaVuSans-30" x="127.246094"/>
      </g>
     </g>
    </g>
    <g id="xtick_3">
     <g id="line2d_3">
      <g>
       <use xlink:href="#m6742983a21" x="100.024931" y="30.04" style="stroke: #000000; stroke-width: 0.8"/>
      </g>
     </g>
     <g id="text_3">
      <!-- 500 -->
      <g transform="translate(90.481181 44.638437)scale(0.1 -0.1)">
       <use xlink:href="#DejaVuSans-35"/>
       <use xlink:href="#DejaVuSans-30" x="63.623047"/>
       <use xlink:href="#DejaVuSans-30" x="127.246094"/>
      </g>
     </g>
    </g>
    <g id="xtick_4">
     <g id="line2d_4">
      <g>
       <use xlink:href="#m6742983a21" x="137.240923" y="30.04" style="stroke: #000000; stroke-width: 0.8"/>
      </g>
     </g>
     <g id="text_4">
      <!-- 750 -->
      <g transform="translate(127.697173 44.638437)scale(0.1 -0.1)">
       <defs>
        <path id="DejaVuSans-37" d="M 525 4666 
L 3525 4666 
L 3525 4397 
L 1831 0 
L 1172 0 
L 2766 4134 
L 525 4134 
L 525 4666 
z
" transform="scale(0.015625)"/>
       </defs>
       <use xlink:href="#DejaVuSans-37"/>
       <use xlink:href="#DejaVuSans-35" x="63.623047"/>
       <use xlink:href="#DejaVuSans-30" x="127.246094"/>
      </g>
     </g>
    </g>
    <g id="xtick_5">
     <g id="line2d_5">
      <g>
       <use xlink:href="#m6742983a21" x="174.456915" y="30.04" style="stroke: #000000; stroke-width: 0.8"/>
      </g>
     </g>
     <g id="text_5">
      <!-- 1000 -->
      <g transform="translate(161.731915 44.638437)scale(0.1 -0.1)">
       <defs>
        <path id="DejaVuSans-31" d="M 794 531 
L 1825 531 
L 1825 4091 
L 703 3866 
L 703 4441 
L 1819 4666 
L 2450 4666 
L 2450 531 
L 3481 531 
L 3481 0 
L 794 0 
L 794 531 
z
" transform="scale(0.015625)"/>
       </defs>
       <use xlink:href="#DejaVuSans-31"/>
       <use xlink:href="#DejaVuSans-30" x="63.623047"/>
       <use xlink:href="#DejaVuSans-30" x="127.246094"/>
       <use xlink:href="#DejaVuSans-30" x="190.869141"/>
      </g>
     </g>
    </g>
    <g id="xtick_6">
     <g id="line2d_6">
      <g>
       <use xlink:href="#m6742983a21" x="211.672906" y="30.04" style="stroke: #000000; stroke-width: 0.8"/>
      </g>
     </g>
     <g id="text_6">
      <!-- 1250 -->
      <g transform="translate(198.947906 44.638437)scale(0.1 -0.1)">
       <use xlink:href="#DejaVuSans-31"/>
       <use xlink:href="#DejaVuSans-32" x="63.623047"/>
       <use xlink:href="#DejaVuSans-35" x="127.246094"/>
       <use xlink:href="#DejaVuSans-30" x="190.869141"/>
      </g>
     </g>
    </g>
    <g id="xtick_7">
     <g id="line2d_7">
      <g>
       <use xlink:href="#m6742983a21" x="248.888898" y="30.04" style="stroke: #000000; stroke-width: 0.8"/>
      </g>
     </g>
     <g id="text_7">
      <!-- 1500 -->
      <g transform="translate(236.163898 44.638437)scale(0.1 -0.1)">
       <use xlink:href="#DejaVuSans-31"/>
       <use xlink:href="#DejaVuSans-35" x="63.623047"/>
       <use xlink:href="#DejaVuSans-30" x="127.246094"/>
       <use xlink:href="#DejaVuSans-30" x="190.869141"/>
      </g>
     </g>
    </g>
    <g id="xtick_8">
     <g id="line2d_8">
      <g>
       <use xlink:href="#m6742983a21" x="286.104889" y="30.04" style="stroke: #000000; stroke-width: 0.8"/>
      </g>
     </g>
     <g id="text_8">
      <!-- 1750 -->
      <g transform="translate(273.379889 44.638437)scale(0.1 -0.1)">
       <use xlink:href="#DejaVuSans-31"/>
       <use xlink:href="#DejaVuSans-37" x="63.623047"/>
       <use xlink:href="#DejaVuSans-35" x="127.246094"/>
       <use xlink:href="#DejaVuSans-30" x="190.869141"/>
      </g>
     </g>
    </g>
    <g id="xtick_9">
     <g id="line2d_9">
      <g>
       <use xlink:href="#m6742983a21" x="323.320881" y="30.04" style="stroke: #000000; stroke-width: 0.8"/>
      </g>
     </g>
     <g id="text_9">
      <!-- 2000 -->
      <g transform="translate(310.595881 44.638437)scale(0.1 -0.1)">
       <use xlink:href="#DejaVuSans-32"/>
       <use xlink:href="#DejaVuSans-30" x="63.623047"/>
       <use xlink:href="#DejaVuSans-30" x="127.246094"/>
       <use xlink:href="#DejaVuSans-30" x="190.869141"/>
      </g>
     </g>
    </g>
    <g id="text_10">
     <!-- Number of Robberies -->
     <g transform="translate(128.807031 58.316562)scale(0.1 -0.1)">
      <defs>
       <path id="DejaVuSans-4e" d="M 628 4666 
L 1478 4666 
L 3547 763 
L 3547 4666 
L 4159 4666 
L 4159 0 
L 3309 0 
L 1241 3903 
L 1241 0 
L 628 0 
L 628 4666 
z
" transform="scale(0.015625)"/>
       <path id="DejaVuSans-75" d="M 544 1381 
L 544 3500 
L 1119 3500 
L 1119 1403 
Q 1119 906 1312 657 
Q 1506 409 1894 409 
Q 2359 409 2629 706 
Q 2900 1003 2900 1516 
L 2900 3500 
L 3475 3500 
L 3475 0 
L 2900 0 
L 2900 538 
Q 2691 219 2414 64 
Q 2138 -91 1772 -91 
Q 1169 -91 856 284 
Q 544 659 544 1381 
z
M 1991 3584 
L 1991 3584 
z
" transform="scale(0.015625)"/>
       <path id="DejaVuSans-6d" d="M 3328 2828 
Q 3544 3216 3844 3400 
Q 4144 3584 4550 3584 
Q 5097 3584 5394 3201 
Q 5691 2819 5691 2113 
L 5691 0 
L 5113 0 
L 5113 2094 
Q 5113 2597 4934 2840 
Q 4756 3084 4391 3084 
Q 3944 3084 3684 2787 
Q 3425 2491 3425 1978 
L 3425 0 
L 2847 0 
L 2847 2094 
Q 2847 2600 2669 2842 
Q 2491 3084 2119 3084 
Q 1678 3084 1418 2786 
Q 1159 2488 1159 1978 
L 1159 0 
L 581 0 
L 581 3500 
L 1159 3500 
L 1159 2956 
Q 1356 3278 1631 3431 
Q 1906 3584 2284 3584 
Q 2666 3584 2933 3390 
Q 3200 3197 3328 2828 
z
" transform="scale(0.015625)"/>
       <path id="DejaVuSans-62" d="M 3116 1747 
Q 3116 2381 2855 2742 
Q 2594 3103 2138 3103 
Q 1681 3103 1420 2742 
Q 1159 2381 1159 1747 
Q 1159 1113 1420 752 
Q 1681 391 2138 391 
Q 2594 391 2855 752 
Q 3116 1113 3116 1747 
z
M 1159 2969 
Q 1341 3281 1617 3432 
Q 1894 3584 2278 3584 
Q 2916 3584 3314 3078 
Q 3713 2572 3713 1747 
Q 3713 922 3314 415 
Q 2916 -91 2278 -91 
Q 1894 -91 1617 61 
Q 1341 213 1159 525 
L 1159 0 
L 581 0 
L 581 4863 
L 1159 4863 
L 1159 2969 
z
" transform="scale(0.015625)"/>
       <path id="DejaVuSans-65" d="M 3597 1894 
L 3597 1613 
L 953 1613 
Q 991 1019 1311 708 
Q 1631 397 2203 397 
Q 2534 397 2845 478 
Q 3156 559 3463 722 
L 3463 178 
Q 3153 47 2828 -22 
Q 2503 -91 2169 -91 
Q 1331 -91 842 396 
Q 353 884 353 1716 
Q 353 2575 817 3079 
Q 1281 3584 2069 3584 
Q 2775 3584 3186 3129 
Q 3597 2675 3597 1894 
z
M 3022 2063 
Q 3016 2534 2758 2815 
Q 2500 3097 2075 3097 
Q 1594 3097 1305 2825 
Q 1016 2553 972 2059 
L 3022 2063 
z
" transform="scale(0.015625)"/>
       <path id="DejaVuSans-72" d="M 2631 2963 
Q 2534 3019 2420 3045 
Q 2306 3072 2169 3072 
Q 1681 3072 1420 2755 
Q 1159 2438 1159 1844 
L 1159 0 
L 581 0 
L 581 3500 
L 1159 3500 
L 1159 2956 
Q 1341 3275 1631 3429 
Q 1922 3584 2338 3584 
Q 2397 3584 2469 3576 
Q 2541 3569 2628 3553 
L 2631 2963 
z
" transform="scale(0.015625)"/>
       <path id="DejaVuSans-20" transform="scale(0.015625)"/>
       <path id="DejaVuSans-6f" d="M 1959 3097 
Q 1497 3097 1228 2736 
Q 959 2375 959 1747 
Q 959 1119 1226 758 
Q 1494 397 1959 397 
Q 2419 397 2687 759 
Q 2956 1122 2956 1747 
Q 2956 2369 2687 2733 
Q 2419 3097 1959 3097 
z
M 1959 3584 
Q 2709 3584 3137 3096 
Q 3566 2609 3566 1747 
Q 3566 888 3137 398 
Q 2709 -91 1959 -91 
Q 1206 -91 779 398 
Q 353 888 353 1747 
Q 353 2609 779 3096 
Q 1206 3584 1959 3584 
z
" transform="scale(0.015625)"/>
       <path id="DejaVuSans-66" d="M 2375 4863 
L 2375 4384 
L 1825 4384 
Q 1516 4384 1395 4259 
Q 1275 4134 1275 3809 
L 1275 3500 
L 2222 3500 
L 2222 3053 
L 1275 3053 
L 1275 0 
L 697 0 
L 697 3053 
L 147 3053 
L 147 3500 
L 697 3500 
L 697 3744 
Q 697 4328 969 4595 
Q 1241 4863 1831 4863 
L 2375 4863 
z
" transform="scale(0.015625)"/>
       <path id="DejaVuSans-52" d="M 2841 2188 
Q 3044 2119 3236 1894 
Q 3428 1669 3622 1275 
L 4263 0 
L 3584 0 
L 2988 1197 
Q 2756 1666 2539 1819 
Q 2322 1972 1947 1972 
L 1259 1972 
L 1259 0 
L 628 0 
L 628 4666 
L 2053 4666 
Q 2853 4666 3247 4331 
Q 3641 3997 3641 3322 
Q 3641 2881 3436 2590 
Q 3231 2300 2841 2188 
z
M 1259 4147 
L 1259 2491 
L 2053 2491 
Q 2509 2491 2742 2702 
Q 2975 2913 2975 3322 
Q 2975 3731 2742 3939 
Q 2509 4147 2053 4147 
L 1259 4147 
z
" transform="scale(0.015625)"/>
       <path id="DejaVuSans-69" d="M 603 3500 
L 1178 3500 
L 1178 0 
L 603 0 
L 603 3500 
z
M 603 4863 
L 1178 4863 
L 1178 4134 
L 603 4134 
L 603 4863 
z
" transform="scale(0.015625)"/>
       <path id="DejaVuSans-73" d="M 2834 3397 
L 2834 2853 
Q 2591 2978 2328 3040 
Q 2066 3103 1784 3103 
Q 1356 3103 1142 2972 
Q 928 2841 928 2578 
Q 928 2378 1081 2264 
Q 1234 2150 1697 2047 
L 1894 2003 
Q 2506 1872 2764 1633 
Q 3022 1394 3022 966 
Q 3022 478 2636 193 
Q 2250 -91 1575 -91 
Q 1294 -91 989 -36 
Q 684 19 347 128 
L 347 722 
Q 666 556 975 473 
Q 1284 391 1588 391 
Q 1994 391 2212 530 
Q 2431 669 2431 922 
Q 2431 1156 2273 1281 
Q 2116 1406 1581 1522 
L 1381 1569 
Q 847 1681 609 1914 
Q 372 2147 372 2553 
Q 372 3047 722 3315 
Q 1072 3584 1716 3584 
Q 2034 3584 2315 3537 
Q 2597 3491 2834 3397 
z
" transform="scale(0.015625)"/>
      </defs>
      <use xlink:href="#DejaVuSans-4e"/>
      <use xlink:href="#DejaVuSans-75" x="74.804688"/>
      <use xlink:href="#DejaVuSans-6d" x="138.183594"/>
      <use xlink:href="#DejaVuSans-62" x="235.595703"/>
      <use xlink:href="#DejaVuSans-65" x="299.072266"/>
      <use xlink:href="#DejaVuSans-72" x="360.595703"/>
      <use xlink:href="#DejaVuSans-20" x="401.708984"/>
      <use xlink:href="#DejaVuSans-6f" x="433.496094"/>
      <use xlink:href="#DejaVuSans-66" x="494.677734"/>
      <use xlink:href="#DejaVuSans-20" x="529.882812"/>
      <use xlink:href="#DejaVuSans-52" x="561.669922"/>
      <use xlink:href="#DejaVuSans-6f" x="626.652344"/>
      <use xlink:href="#DejaVuSans-62" x="687.833984"/>
      <use xlink:href="#DejaVuSans-62" x="751.310547"/>
      <use xlink:href="#DejaVuSans-65" x="814.787109"/>
      <use xlink:href="#DejaVuSans-72" x="876.310547"/>
      <use xlink:href="#DejaVuSans-69" x="917.423828"/>
      <use xlink:href="#DejaVuSans-65" x="945.207031"/>
      <use xlink:href="#DejaVuSans-73" x="1006.730469"/>
     </g>
    </g>
   </g>
   <g id="matplotlib.axis_2">
    <g id="ytick_1">
     <g id="line2d_10">
      <defs>
       <path id="m0e5dc0bcd6" d="M 0 0 
L -3.5 0 
" style="stroke: #000000; stroke-width: 0.8"/>
      </defs>
      <g>
       <use xlink:href="#m0e5dc0bcd6" x="14.3" y="20.42" style="stroke: #000000; stroke-width: 0.8"/>
      </g>
     </g>
    </g>
   </g>
   <g id="patch_3">
    <path d="M 60.877899 12.724 
L 60.877899 28.116 
L 122.783981 28.116 
L 122.783981 12.724 
L 60.877899 12.724 
z
" clip-path="url(#pa2d8517caa)" style="fill: #808080; stroke: #4d4d4d; stroke-linejoin: miter"/>
   </g>
   <g id="line2d_11">
    <path d="M 60.877899 20.42 
L 29.522727 20.42 
" clip-path="url(#pa2d8517caa)" style="fill: none; stroke: #4d4d4d"/>
   </g>
   <g id="line2d_12">
    <path d="M 122.783981 20.42 
L 214.659934 20.42 
" clip-path="url(#pa2d8517caa)" style="fill: none; stroke: #4d4d4d"/>
   </g>
   <g id="line2d_13">
    <path d="M 29.522727 16.572 
L 29.522727 24.268 
" clip-path="url(#pa2d8517caa)" style="fill: none; stroke: #4d4d4d; stroke-linecap: square"/>
   </g>
   <g id="line2d_14">
    <path d="M 214.659934 16.572 
L 214.659934 24.268 
" clip-path="url(#pa2d8517caa)" style="fill: none; stroke: #4d4d4d; stroke-linecap: square"/>
   </g>
   <g id="line2d_15">
    <defs>
     <path id="m44a686670a" d="M 0 3 
C 0.795609 3 1.55874 2.683901 2.12132 2.12132 
C 2.683901 1.55874 3 0.795609 3 0 
C 3 -0.795609 2.683901 -1.55874 2.12132 -2.12132 
C 1.55874 -2.683901 0.795609 -3 0 -3 
C -0.795609 -3 -1.55874 -2.683901 -2.12132 -2.12132 
C -2.683901 -1.55874 -3 -0.795609 -3 0 
C -3 0.795609 -2.683901 1.55874 -2.12132 2.12132 
C -1.55874 2.683901 -0.795609 3 0 3 
z
" style="stroke: #4d4d4d"/>
    </defs>
    <g clip-path="url(#pa2d8517caa)">
     <use xlink:href="#m44a686670a" x="268.856301" y="20.42" style="fill-opacity: 0; stroke: #4d4d4d"/>
     <use xlink:href="#m44a686670a" x="268.856301" y="20.42" style="fill-opacity: 0; stroke: #4d4d4d"/>
     <use xlink:href="#m44a686670a" x="268.856301" y="20.42" style="fill-opacity: 0; stroke: #4d4d4d"/>
     <use xlink:href="#m44a686670a" x="297.580352" y="20.42" style="fill-opacity: 0; stroke: #4d4d4d"/>
     <use xlink:href="#m44a686670a" x="274.458465" y="20.42" style="fill-opacity: 0; stroke: #4d4d4d"/>
     <use xlink:href="#m44a686670a" x="274.458465" y="20.42" style="fill-opacity: 0; stroke: #4d4d4d"/>
     <use xlink:href="#m44a686670a" x="274.458465" y="20.42" style="fill-opacity: 0; stroke: #4d4d4d"/>
     <use xlink:href="#m44a686670a" x="257.788563" y="20.42" style="fill-opacity: 0; stroke: #4d4d4d"/>
     <use xlink:href="#m44a686670a" x="257.788563" y="20.42" style="fill-opacity: 0; stroke: #4d4d4d"/>
     <use xlink:href="#m44a686670a" x="257.788563" y="20.42" style="fill-opacity: 0; stroke: #4d4d4d"/>
     <use xlink:href="#m44a686670a" x="226.063033" y="20.42" style="fill-opacity: 0; stroke: #4d4d4d"/>
     <use xlink:href="#m44a686670a" x="226.063033" y="20.42" style="fill-opacity: 0; stroke: #4d4d4d"/>
     <use xlink:href="#m44a686670a" x="226.063033" y="20.42" style="fill-opacity: 0; stroke: #4d4d4d"/>
     <use xlink:href="#m44a686670a" x="224.213383" y="20.42" style="fill-opacity: 0; stroke: #4d4d4d"/>
     <use xlink:href="#m44a686670a" x="224.213383" y="20.42" style="fill-opacity: 0; stroke: #4d4d4d"/>
     <use xlink:href="#m44a686670a" x="224.213383" y="20.42" style="fill-opacity: 0; stroke: #4d4d4d"/>
     <use xlink:href="#m44a686670a" x="333.977273" y="20.42" style="fill-opacity: 0; stroke: #4d4d4d"/>
     <use xlink:href="#m44a686670a" x="333.977273" y="20.42" style="fill-opacity: 0; stroke: #4d4d4d"/>
     <use xlink:href="#m44a686670a" x="333.977273" y="20.42" style="fill-opacity: 0; stroke: #4d4d4d"/>
     <use xlink:href="#m44a686670a" x="263.39908" y="20.42" style="fill-opacity: 0; stroke: #4d4d4d"/>
     <use xlink:href="#m44a686670a" x="263.39908" y="20.42" style="fill-opacity: 0; stroke: #4d4d4d"/>
     <use xlink:href="#m44a686670a" x="263.39908" y="20.42" style="fill-opacity: 0; stroke: #4d4d4d"/>
     <use xlink:href="#m44a686670a" x="274.601213" y="20.42" style="fill-opacity: 0; stroke: #4d4d4d"/>
     <use xlink:href="#m44a686670a" x="274.601213" y="20.42" style="fill-opacity: 0; stroke: #4d4d4d"/>
     <use xlink:href="#m44a686670a" x="274.601213" y="20.42" style="fill-opacity: 0; stroke: #4d4d4d"/>
     <use xlink:href="#m44a686670a" x="261.407686" y="20.42" style="fill-opacity: 0; stroke: #4d4d4d"/>
     <use xlink:href="#m44a686670a" x="281.67108" y="20.42" style="fill-opacity: 0; stroke: #4d4d4d"/>
     <use xlink:href="#m44a686670a" x="245.551755" y="20.42" style="fill-opacity: 0; stroke: #4d4d4d"/>
     <use xlink:href="#m44a686670a" x="224.95077" y="20.42" style="fill-opacity: 0; stroke: #4d4d4d"/>
     <use xlink:href="#m44a686670a" x="226.765543" y="20.42" style="fill-opacity: 0; stroke: #4d4d4d"/>
     <use xlink:href="#m44a686670a" x="226.765543" y="20.42" style="fill-opacity: 0; stroke: #4d4d4d"/>
     <use xlink:href="#m44a686670a" x="232.253265" y="20.42" style="fill-opacity: 0; stroke: #4d4d4d"/>
     <use xlink:href="#m44a686670a" x="219.157967" y="20.42" style="fill-opacity: 0; stroke: #4d4d4d"/>
     <use xlink:href="#m44a686670a" x="219.157967" y="20.42" style="fill-opacity: 0; stroke: #4d4d4d"/>
     <use xlink:href="#m44a686670a" x="218.527002" y="20.42" style="fill-opacity: 0; stroke: #4d4d4d"/>
     <use xlink:href="#m44a686670a" x="292.306047" y="20.42" style="fill-opacity: 0; stroke: #4d4d4d"/>
     <use xlink:href="#m44a686670a" x="292.306047" y="20.42" style="fill-opacity: 0; stroke: #4d4d4d"/>
     <use xlink:href="#m44a686670a" x="246.625177" y="20.42" style="fill-opacity: 0; stroke: #4d4d4d"/>
     <use xlink:href="#m44a686670a" x="246.625177" y="20.42" style="fill-opacity: 0; stroke: #4d4d4d"/>
     <use xlink:href="#m44a686670a" x="272.789018" y="20.42" style="fill-opacity: 0; stroke: #4d4d4d"/>
     <use xlink:href="#m44a686670a" x="272.789018" y="20.42" style="fill-opacity: 0; stroke: #4d4d4d"/>
     <use xlink:href="#m44a686670a" x="224.349669" y="20.42" style="fill-opacity: 0; stroke: #4d4d4d"/>
     <use xlink:href="#m44a686670a" x="220.172754" y="20.42" style="fill-opacity: 0; stroke: #4d4d4d"/>
     <use xlink:href="#m44a686670a" x="220.172754" y="20.42" style="fill-opacity: 0; stroke: #4d4d4d"/>
    </g>
   </g>
   <g id="line2d_16">
    <path d="M 87.381804 12.724 
L 87.381804 28.116 
" clip-path="url(#pa2d8517caa)" style="fill: none; stroke: #4d4d4d"/>
   </g>
   <g id="patch_4">
    <path d="M 14.3 30.04 
L 14.3 10.8 
" style="fill: none; stroke: #000000; stroke-width: 0.8; stroke-linejoin: miter; stroke-linecap: square"/>
   </g>
   <g id="patch_5">
    <path d="M 349.2 30.04 
L 349.2 10.8 
" style="fill: none; stroke: #000000; stroke-width: 0.8; stroke-linejoin: miter; stroke-linecap: square"/>
   </g>
   <g id="patch_6">
    <path d="M 14.3 30.04 
L 349.2 30.04 
" style="fill: none; stroke: #000000; stroke-width: 0.8; stroke-linejoin: miter; stroke-linecap: square"/>
   </g>
   <g id="patch_7">
    <path d="M 14.3 10.8 
L 349.2 10.8 
" style="fill: none; stroke: #000000; stroke-width: 0.8; stroke-linejoin: miter; stroke-linecap: square"/>
   </g>
   <g id="legend_1">
    <g id="patch_8">
     <path d="M 338.2 23.8 
L 342.2 23.8 
Q 344.2 23.8 344.2 21.8 
L 344.2 17.8 
Q 344.2 15.8 342.2 15.8 
L 338.2 15.8 
Q 336.2 15.8 336.2 17.8 
L 336.2 21.8 
Q 336.2 23.8 338.2 23.8 
z
" style="fill: #ffffff; opacity: 0.8; stroke: #cccccc; stroke-linejoin: miter"/>
    </g>
   </g>
  </g>
 </g>
 <defs>
  <clipPath id="pa2d8517caa">
   <rect x="14.3" y="10.8" width="334.9" height="19.24"/>
  </clipPath>
 </defs>
</svg>
