<?xml version="1.0" encoding="utf-8" standalone="no"?>
<!DOCTYPE svg PUBLIC "-//W3C//DTD SVG 1.1//EN"
  "http://www.w3.org/Graphics/SVG/1.1/DTD/svg11.dtd">
<svg xmlns:xlink="http://www.w3.org/1999/xlink" width="360pt" height="288pt" viewBox="0 0 360 288" xmlns="http://www.w3.org/2000/svg" version="1.1">
 <metadata>
  <rdf:RDF xmlns:dc="http://purl.org/dc/elements/1.1/" xmlns:cc="http://creativecommons.org/ns#" xmlns:rdf="http://www.w3.org/1999/02/22-rdf-syntax-ns#">
   <cc:Work>
    <dc:type rdf:resource="http://purl.org/dc/dcmitype/StillImage"/>
    <dc:date>2024-01-29T16:48:32.883858</dc:date>
    <dc:format>image/svg+xml</dc:format>
    <dc:creator>
     <cc:Agent>
      <dc:title>Matplotlib v3.5.1, https://matplotlib.org/</dc:title>
     </cc:Agent>
    </dc:creator>
   </cc:Work>
  </rdf:RDF>
 </metadata>
 <defs>
  <style type="text/css">*{stroke-linejoin: round; stroke-linecap: butt}</style>
 </defs>
 <g id="figure_1">
  <g id="patch_1">
   <path d="M 0 288 
L 360 288 
L 360 0 
L 0 0 
L 0 288 
z
" style="fill: none"/>
  </g>
  <g id="axes_1">
   <g id="patch_2">
    <path d="M 57.17 246.04 
L 347.88873 246.04 
L 347.88873 10.8 
L 57.17 10.8 
L 57.17 246.04 
z
" style="fill: none"/>
   </g>
   <g id="matplotlib.axis_1">
    <g id="xtick_1">
     <g id="line2d_1">
      <defs>
       <path id="maf0c7f2030" d="M 0 0 
L 0 3.5 
" style="stroke: #000000; stroke-width: 0.8"/>
      </defs>
      <g>
       <use xlink:href="#maf0c7f2030" x="113.259411" y="246.04" style="stroke: #000000; stroke-width: 0.8"/>
      </g>
     </g>
     <g id="text_1">
      <!-- 50 -->
      <g transform="translate(106.896911 260.638438)scale(0.1 -0.1)">
       <defs>
        <path id="DejaVuSans-35" d="M 691 4666 
L 3169 4666 
L 3169 4134 
L 1269 4134 
L 1269 2991 
Q 1406 3038 1543 3061 
Q 1681 3084 1819 3084 
Q 2600 3084 3056 2656 
Q 3513 2228 3513 1497 
Q 3513 744 3044 326 
Q 2575 -91 1722 -91 
Q 1428 -91 1123 -41 
Q 819 9 494 109 
L 494 744 
Q 775 591 1075 516 
Q 1375 441 1709 441 
Q 2250 441 2565 725 
Q 2881 1009 2881 1497 
Q 2881 1984 2565 2268 
Q 2250 2553 1709 2553 
Q 1456 2553 1204 2497 
Q 953 2441 691 2322 
L 691 4666 
z
" transform="scale(0.015625)"/>
        <path id="DejaVuSans-30" d="M 2034 4250 
Q 1547 4250 1301 3770 
Q 1056 3291 1056 2328 
Q 1056 1369 1301 889 
Q 1547 409 2034 409 
Q 2525 409 2770 889 
Q 3016 1369 3016 2328 
Q 3016 3291 2770 3770 
Q 2525 4250 2034 4250 
z
M 2034 4750 
Q 2819 4750 3233 4129 
Q 3647 3509 3647 2328 
Q 3647 1150 3233 529 
Q 2819 -91 2034 -91 
Q 1250 -91 836 529 
Q 422 1150 422 2328 
Q 422 3509 836 4129 
Q 1250 4750 2034 4750 
z
" transform="scale(0.015625)"/>
       </defs>
       <use xlink:href="#DejaVuSans-35"/>
       <use xlink:href="#DejaVuSans-30" x="63.623047"/>
      </g>
     </g>
    </g>
    <g id="xtick_2">
     <g id="line2d_2">
      <g>
       <use xlink:href="#maf0c7f2030" x="169.796596" y="246.04" style="stroke: #000000; stroke-width: 0.8"/>
      </g>
     </g>
     <g id="text_2">
      <!-- 100 -->
      <g transform="translate(160.252846 260.638438)scale(0.1 -0.1)">
       <defs>
        <path id="DejaVuSans-31" d="M 794 531 
L 1825 531 
L 1825 4091 
L 703 3866 
L 703 4441 
L 1819 4666 
L 2450 4666 
L 2450 531 
L 3481 531 
L 3481 0 
L 794 0 
L 794 531 
z
" transform="scale(0.015625)"/>
       </defs>
       <use xlink:href="#DejaVuSans-31"/>
       <use xlink:href="#DejaVuSans-30" x="63.623047"/>
       <use xlink:href="#DejaVuSans-30" x="127.246094"/>
      </g>
     </g>
    </g>
    <g id="xtick_3">
     <g id="line2d_3">
      <g>
       <use xlink:href="#maf0c7f2030" x="226.333781" y="246.04" style="stroke: #000000; stroke-width: 0.8"/>
      </g>
     </g>
     <g id="text_3">
      <!-- 150 -->
      <g transform="translate(216.790031 260.638438)scale(0.1 -0.1)">
       <use xlink:href="#DejaVuSans-31"/>
       <use xlink:href="#DejaVuSans-35" x="63.623047"/>
       <use xlink:href="#DejaVuSans-30" x="127.246094"/>
      </g>
     </g>
    </g>
    <g id="xtick_4">
     <g id="line2d_4">
      <g>
       <use xlink:href="#maf0c7f2030" x="282.870967" y="246.04" style="stroke: #000000; stroke-width: 0.8"/>
      </g>
     </g>
     <g id="text_4">
      <!-- 200 -->
      <g transform="translate(273.327217 260.638438)scale(0.1 -0.1)">
       <defs>
        <path id="DejaVuSans-32" d="M 1228 531 
L 3431 531 
L 3431 0 
L 469 0 
L 469 531 
Q 828 903 1448 1529 
Q 2069 2156 2228 2338 
Q 2531 2678 2651 2914 
Q 2772 3150 2772 3378 
Q 2772 3750 2511 3984 
Q 2250 4219 1831 4219 
Q 1534 4219 1204 4116 
Q 875 4013 500 3803 
L 500 4441 
Q 881 4594 1212 4672 
Q 1544 4750 1819 4750 
Q 2544 4750 2975 4387 
Q 3406 4025 3406 3419 
Q 3406 3131 3298 2873 
Q 3191 2616 2906 2266 
Q 2828 2175 2409 1742 
Q 1991 1309 1228 531 
z
" transform="scale(0.015625)"/>
       </defs>
       <use xlink:href="#DejaVuSans-32"/>
       <use xlink:href="#DejaVuSans-30" x="63.623047"/>
       <use xlink:href="#DejaVuSans-30" x="127.246094"/>
      </g>
     </g>
    </g>
    <g id="xtick_5">
     <g id="line2d_5">
      <g>
       <use xlink:href="#maf0c7f2030" x="339.408152" y="246.04" style="stroke: #000000; stroke-width: 0.8"/>
      </g>
     </g>
     <g id="text_5">
      <!-- 250 -->
      <g transform="translate(329.864402 260.638438)scale(0.1 -0.1)">
       <use xlink:href="#DejaVuSans-32"/>
       <use xlink:href="#DejaVuSans-35" x="63.623047"/>
       <use xlink:href="#DejaVuSans-30" x="127.246094"/>
      </g>
     </g>
    </g>
    <g id="text_6">
     <!-- Unemployment Rate (per 1000 citizens) -->
     <g transform="translate(102.383271 274.316562)scale(0.1 -0.1)">
      <defs>
       <path id="DejaVuSans-55" d="M 556 4666 
L 1191 4666 
L 1191 1831 
Q 1191 1081 1462 751 
Q 1734 422 2344 422 
Q 2950 422 3222 751 
Q 3494 1081 3494 1831 
L 3494 4666 
L 4128 4666 
L 4128 1753 
Q 4128 841 3676 375 
Q 3225 -91 2344 -91 
Q 1459 -91 1007 375 
Q 556 841 556 1753 
L 556 4666 
z
" transform="scale(0.015625)"/>
       <path id="DejaVuSans-6e" d="M 3513 2113 
L 3513 0 
L 2938 0 
L 2938 2094 
Q 2938 2591 2744 2837 
Q 2550 3084 2163 3084 
Q 1697 3084 1428 2787 
Q 1159 2491 1159 1978 
L 1159 0 
L 581 0 
L 581 3500 
L 1159 3500 
L 1159 2956 
Q 1366 3272 1645 3428 
Q 1925 3584 2291 3584 
Q 2894 3584 3203 3211 
Q 3513 2838 3513 2113 
z
" transform="scale(0.015625)"/>
       <path id="DejaVuSans-65" d="M 3597 1894 
L 3597 1613 
L 953 1613 
Q 991 1019 1311 708 
Q 1631 397 2203 397 
Q 2534 397 2845 478 
Q 3156 559 3463 722 
L 3463 178 
Q 3153 47 2828 -22 
Q 2503 -91 2169 -91 
Q 1331 -91 842 396 
Q 353 884 353 1716 
Q 353 2575 817 3079 
Q 1281 3584 2069 3584 
Q 2775 3584 3186 3129 
Q 3597 2675 3597 1894 
z
M 3022 2063 
Q 3016 2534 2758 2815 
Q 2500 3097 2075 3097 
Q 1594 3097 1305 2825 
Q 1016 2553 972 2059 
L 3022 2063 
z
" transform="scale(0.015625)"/>
       <path id="DejaVuSans-6d" d="M 3328 2828 
Q 3544 3216 3844 3400 
Q 4144 3584 4550 3584 
Q 5097 3584 5394 3201 
Q 5691 2819 5691 2113 
L 5691 0 
L 5113 0 
L 5113 2094 
Q 5113 2597 4934 2840 
Q 4756 3084 4391 3084 
Q 3944 3084 3684 2787 
Q 3425 2491 3425 1978 
L 3425 0 
L 2847 0 
L 2847 2094 
Q 2847 2600 2669 2842 
Q 2491 3084 2119 3084 
Q 1678 3084 1418 2786 
Q 1159 2488 1159 1978 
L 1159 0 
L 581 0 
L 581 3500 
L 1159 3500 
L 1159 2956 
Q 1356 3278 1631 3431 
Q 1906 3584 2284 3584 
Q 2666 3584 2933 3390 
Q 3200 3197 3328 2828 
z
" transform="scale(0.015625)"/>
       <path id="DejaVuSans-70" d="M 1159 525 
L 1159 -1331 
L 581 -1331 
L 581 3500 
L 1159 3500 
L 1159 2969 
Q 1341 3281 1617 3432 
Q 1894 3584 2278 3584 
Q 2916 3584 3314 3078 
Q 3713 2572 3713 1747 
Q 3713 922 3314 415 
Q 2916 -91 2278 -91 
Q 1894 -91 1617 61 
Q 1341 213 1159 525 
z
M 3116 1747 
Q 3116 2381 2855 2742 
Q 2594 3103 2138 3103 
Q 1681 3103 1420 2742 
Q 1159 2381 1159 1747 
Q 1159 1113 1420 752 
Q 1681 391 2138 391 
Q 2594 391 2855 752 
Q 3116 1113 3116 1747 
z
" transform="scale(0.015625)"/>
       <path id="DejaVuSans-6c" d="M 603 4863 
L 1178 4863 
L 1178 0 
L 603 0 
L 603 4863 
z
" transform="scale(0.015625)"/>
       <path id="DejaVuSans-6f" d="M 1959 3097 
Q 1497 3097 1228 2736 
Q 959 2375 959 1747 
Q 959 1119 1226 758 
Q 1494 397 1959 397 
Q 2419 397 2687 759 
Q 2956 1122 2956 1747 
Q 2956 2369 2687 2733 
Q 2419 3097 1959 3097 
z
M 1959 3584 
Q 2709 3584 3137 3096 
Q 3566 2609 3566 1747 
Q 3566 888 3137 398 
Q 2709 -91 1959 -91 
Q 1206 -91 779 398 
Q 353 888 353 1747 
Q 353 2609 779 3096 
Q 1206 3584 1959 3584 
z
" transform="scale(0.015625)"/>
       <path id="DejaVuSans-79" d="M 2059 -325 
Q 1816 -950 1584 -1140 
Q 1353 -1331 966 -1331 
L 506 -1331 
L 506 -850 
L 844 -850 
Q 1081 -850 1212 -737 
Q 1344 -625 1503 -206 
L 1606 56 
L 191 3500 
L 800 3500 
L 1894 763 
L 2988 3500 
L 3597 3500 
L 2059 -325 
z
" transform="scale(0.015625)"/>
       <path id="DejaVuSans-74" d="M 1172 4494 
L 1172 3500 
L 2356 3500 
L 2356 3053 
L 1172 3053 
L 1172 1153 
Q 1172 725 1289 603 
Q 1406 481 1766 481 
L 2356 481 
L 2356 0 
L 1766 0 
Q 1100 0 847 248 
Q 594 497 594 1153 
L 594 3053 
L 172 3053 
L 172 3500 
L 594 3500 
L 594 4494 
L 1172 4494 
z
" transform="scale(0.015625)"/>
       <path id="DejaVuSans-20" transform="scale(0.015625)"/>
       <path id="DejaVuSans-52" d="M 2841 2188 
Q 3044 2119 3236 1894 
Q 3428 1669 3622 1275 
L 4263 0 
L 3584 0 
L 2988 1197 
Q 2756 1666 2539 1819 
Q 2322 1972 1947 1972 
L 1259 1972 
L 1259 0 
L 628 0 
L 628 4666 
L 2053 4666 
Q 2853 4666 3247 4331 
Q 3641 3997 3641 3322 
Q 3641 2881 3436 2590 
Q 3231 2300 2841 2188 
z
M 1259 4147 
L 1259 2491 
L 2053 2491 
Q 2509 2491 2742 2702 
Q 2975 2913 2975 3322 
Q 2975 3731 2742 3939 
Q 2509 4147 2053 4147 
L 1259 4147 
z
" transform="scale(0.015625)"/>
       <path id="DejaVuSans-61" d="M 2194 1759 
Q 1497 1759 1228 1600 
Q 959 1441 959 1056 
Q 959 750 1161 570 
Q 1363 391 1709 391 
Q 2188 391 2477 730 
Q 2766 1069 2766 1631 
L 2766 1759 
L 2194 1759 
z
M 3341 1997 
L 3341 0 
L 2766 0 
L 2766 531 
Q 2569 213 2275 61 
Q 1981 -91 1556 -91 
Q 1019 -91 701 211 
Q 384 513 384 1019 
Q 384 1609 779 1909 
Q 1175 2209 1959 2209 
L 2766 2209 
L 2766 2266 
Q 2766 2663 2505 2880 
Q 2244 3097 1772 3097 
Q 1472 3097 1187 3025 
Q 903 2953 641 2809 
L 641 3341 
Q 956 3463 1253 3523 
Q 1550 3584 1831 3584 
Q 2591 3584 2966 3190 
Q 3341 2797 3341 1997 
z
" transform="scale(0.015625)"/>
       <path id="DejaVuSans-28" d="M 1984 4856 
Q 1566 4138 1362 3434 
Q 1159 2731 1159 2009 
Q 1159 1288 1364 580 
Q 1569 -128 1984 -844 
L 1484 -844 
Q 1016 -109 783 600 
Q 550 1309 550 2009 
Q 550 2706 781 3412 
Q 1013 4119 1484 4856 
L 1984 4856 
z
" transform="scale(0.015625)"/>
       <path id="DejaVuSans-72" d="M 2631 2963 
Q 2534 3019 2420 3045 
Q 2306 3072 2169 3072 
Q 1681 3072 1420 2755 
Q 1159 2438 1159 1844 
L 1159 0 
L 581 0 
L 581 3500 
L 1159 3500 
L 1159 2956 
Q 1341 3275 1631 3429 
Q 1922 3584 2338 3584 
Q 2397 3584 2469 3576 
Q 2541 3569 2628 3553 
L 2631 2963 
z
" transform="scale(0.015625)"/>
       <path id="DejaVuSans-63" d="M 3122 3366 
L 3122 2828 
Q 2878 2963 2633 3030 
Q 2388 3097 2138 3097 
Q 1578 3097 1268 2742 
Q 959 2388 959 1747 
Q 959 1106 1268 751 
Q 1578 397 2138 397 
Q 2388 397 2633 464 
Q 2878 531 3122 666 
L 3122 134 
Q 2881 22 2623 -34 
Q 2366 -91 2075 -91 
Q 1284 -91 818 406 
Q 353 903 353 1747 
Q 353 2603 823 3093 
Q 1294 3584 2113 3584 
Q 2378 3584 2631 3529 
Q 2884 3475 3122 3366 
z
" transform="scale(0.015625)"/>
       <path id="DejaVuSans-69" d="M 603 3500 
L 1178 3500 
L 1178 0 
L 603 0 
L 603 3500 
z
M 603 4863 
L 1178 4863 
L 1178 4134 
L 603 4134 
L 603 4863 
z
" transform="scale(0.015625)"/>
       <path id="DejaVuSans-7a" d="M 353 3500 
L 3084 3500 
L 3084 2975 
L 922 459 
L 3084 459 
L 3084 0 
L 275 0 
L 275 525 
L 2438 3041 
L 353 3041 
L 353 3500 
z
" transform="scale(0.015625)"/>
       <path id="DejaVuSans-73" d="M 2834 3397 
L 2834 2853 
Q 2591 2978 2328 3040 
Q 2066 3103 1784 3103 
Q 1356 3103 1142 2972 
Q 928 2841 928 2578 
Q 928 2378 1081 2264 
Q 1234 2150 1697 2047 
L 1894 2003 
Q 2506 1872 2764 1633 
Q 3022 1394 3022 966 
Q 3022 478 2636 193 
Q 2250 -91 1575 -91 
Q 1294 -91 989 -36 
Q 684 19 347 128 
L 347 722 
Q 666 556 975 473 
Q 1284 391 1588 391 
Q 1994 391 2212 530 
Q 2431 669 2431 922 
Q 2431 1156 2273 1281 
Q 2116 1406 1581 1522 
L 1381 1569 
Q 847 1681 609 1914 
Q 372 2147 372 2553 
Q 372 3047 722 3315 
Q 1072 3584 1716 3584 
Q 2034 3584 2315 3537 
Q 2597 3491 2834 3397 
z
" transform="scale(0.015625)"/>
       <path id="DejaVuSans-29" d="M 513 4856 
L 1013 4856 
Q 1481 4119 1714 3412 
Q 1947 2706 1947 2009 
Q 1947 1309 1714 600 
Q 1481 -109 1013 -844 
L 513 -844 
Q 928 -128 1133 580 
Q 1338 1288 1338 2009 
Q 1338 2731 1133 3434 
Q 928 4138 513 4856 
z
" transform="scale(0.015625)"/>
      </defs>
      <use xlink:href="#DejaVuSans-55"/>
      <use xlink:href="#DejaVuSans-6e" x="73.193359"/>
      <use xlink:href="#DejaVuSans-65" x="136.572266"/>
      <use xlink:href="#DejaVuSans-6d" x="198.095703"/>
      <use xlink:href="#DejaVuSans-70" x="295.507812"/>
      <use xlink:href="#DejaVuSans-6c" x="358.984375"/>
      <use xlink:href="#DejaVuSans-6f" x="386.767578"/>
      <use xlink:href="#DejaVuSans-79" x="447.949219"/>
      <use xlink:href="#DejaVuSans-6d" x="507.128906"/>
      <use xlink:href="#DejaVuSans-65" x="604.541016"/>
      <use xlink:href="#DejaVuSans-6e" x="666.064453"/>
      <use xlink:href="#DejaVuSans-74" x="729.443359"/>
      <use xlink:href="#DejaVuSans-20" x="768.652344"/>
      <use xlink:href="#DejaVuSans-52" x="800.439453"/>
      <use xlink:href="#DejaVuSans-61" x="867.671875"/>
      <use xlink:href="#DejaVuSans-74" x="928.951172"/>
      <use xlink:href="#DejaVuSans-65" x="968.160156"/>
      <use xlink:href="#DejaVuSans-20" x="1029.683594"/>
      <use xlink:href="#DejaVuSans-28" x="1061.470703"/>
      <use xlink:href="#DejaVuSans-70" x="1100.484375"/>
      <use xlink:href="#DejaVuSans-65" x="1163.960938"/>
      <use xlink:href="#DejaVuSans-72" x="1225.484375"/>
      <use xlink:href="#DejaVuSans-20" x="1266.597656"/>
      <use xlink:href="#DejaVuSans-31" x="1298.384766"/>
      <use xlink:href="#DejaVuSans-30" x="1362.007812"/>
      <use xlink:href="#DejaVuSans-30" x="1425.630859"/>
      <use xlink:href="#DejaVuSans-30" x="1489.253906"/>
      <use xlink:href="#DejaVuSans-20" x="1552.876953"/>
      <use xlink:href="#DejaVuSans-63" x="1584.664062"/>
      <use xlink:href="#DejaVuSans-69" x="1639.644531"/>
      <use xlink:href="#DejaVuSans-74" x="1667.427734"/>
      <use xlink:href="#DejaVuSans-69" x="1706.636719"/>
      <use xlink:href="#DejaVuSans-7a" x="1734.419922"/>
      <use xlink:href="#DejaVuSans-65" x="1786.910156"/>
      <use xlink:href="#DejaVuSans-6e" x="1848.433594"/>
      <use xlink:href="#DejaVuSans-73" x="1911.8125"/>
      <use xlink:href="#DejaVuSans-29" x="1963.912109"/>
     </g>
    </g>
   </g>
   <g id="matplotlib.axis_2">
    <g id="ytick_1">
     <g id="line2d_6">
      <defs>
       <path id="me513a24798" d="M 0 0 
L -3.5 0 
" style="stroke: #000000; stroke-width: 0.8"/>
      </defs>
      <g>
       <use xlink:href="#me513a24798" x="57.17" y="246.04" style="stroke: #000000; stroke-width: 0.8"/>
      </g>
     </g>
     <g id="text_7">
      <!-- 0 -->
      <g transform="translate(43.8075 249.839219)scale(0.1 -0.1)">
       <use xlink:href="#DejaVuSans-30"/>
      </g>
     </g>
    </g>
    <g id="ytick_2">
     <g id="line2d_7">
      <g>
       <use xlink:href="#me513a24798" x="57.17" y="198.031837" style="stroke: #000000; stroke-width: 0.8"/>
      </g>
     </g>
     <g id="text_8">
      <!-- 1000 -->
      <g transform="translate(24.72 201.831055)scale(0.1 -0.1)">
       <use xlink:href="#DejaVuSans-31"/>
       <use xlink:href="#DejaVuSans-30" x="63.623047"/>
       <use xlink:href="#DejaVuSans-30" x="127.246094"/>
       <use xlink:href="#DejaVuSans-30" x="190.869141"/>
      </g>
     </g>
    </g>
    <g id="ytick_3">
     <g id="line2d_8">
      <g>
       <use xlink:href="#me513a24798" x="57.17" y="150.023673" style="stroke: #000000; stroke-width: 0.8"/>
      </g>
     </g>
     <g id="text_9">
      <!-- 2000 -->
      <g transform="translate(24.72 153.822892)scale(0.1 -0.1)">
       <use xlink:href="#DejaVuSans-32"/>
       <use xlink:href="#DejaVuSans-30" x="63.623047"/>
       <use xlink:href="#DejaVuSans-30" x="127.246094"/>
       <use xlink:href="#DejaVuSans-30" x="190.869141"/>
      </g>
     </g>
    </g>
    <g id="ytick_4">
     <g id="line2d_9">
      <g>
       <use xlink:href="#me513a24798" x="57.17" y="102.01551" style="stroke: #000000; stroke-width: 0.8"/>
      </g>
     </g>
     <g id="text_10">
      <!-- 3000 -->
      <g transform="translate(24.72 105.814729)scale(0.1 -0.1)">
       <defs>
        <path id="DejaVuSans-33" d="M 2597 2516 
Q 3050 2419 3304 2112 
Q 3559 1806 3559 1356 
Q 3559 666 3084 287 
Q 2609 -91 1734 -91 
Q 1441 -91 1130 -33 
Q 819 25 488 141 
L 488 750 
Q 750 597 1062 519 
Q 1375 441 1716 441 
Q 2309 441 2620 675 
Q 2931 909 2931 1356 
Q 2931 1769 2642 2001 
Q 2353 2234 1838 2234 
L 1294 2234 
L 1294 2753 
L 1863 2753 
Q 2328 2753 2575 2939 
Q 2822 3125 2822 3475 
Q 2822 3834 2567 4026 
Q 2313 4219 1838 4219 
Q 1578 4219 1281 4162 
Q 984 4106 628 3988 
L 628 4550 
Q 988 4650 1302 4700 
Q 1616 4750 1894 4750 
Q 2613 4750 3031 4423 
Q 3450 4097 3450 3541 
Q 3450 3153 3228 2886 
Q 3006 2619 2597 2516 
z
" transform="scale(0.015625)"/>
       </defs>
       <use xlink:href="#DejaVuSans-33"/>
       <use xlink:href="#DejaVuSans-30" x="63.623047"/>
       <use xlink:href="#DejaVuSans-30" x="127.246094"/>
       <use xlink:href="#DejaVuSans-30" x="190.869141"/>
      </g>
     </g>
    </g>
    <g id="ytick_5">
     <g id="line2d_10">
      <g>
       <use xlink:href="#me513a24798" x="57.17" y="54.007347" style="stroke: #000000; stroke-width: 0.8"/>
      </g>
     </g>
     <g id="text_11">
      <!-- 4000 -->
      <g transform="translate(24.72 57.806566)scale(0.1 -0.1)">
       <defs>
        <path id="DejaVuSans-34" d="M 2419 4116 
L 825 1625 
L 2419 1625 
L 2419 4116 
z
M 2253 4666 
L 3047 4666 
L 3047 1625 
L 3713 1625 
L 3713 1100 
L 3047 1100 
L 3047 0 
L 2419 0 
L 2419 1100 
L 313 1100 
L 313 1709 
L 2253 4666 
z
" transform="scale(0.015625)"/>
       </defs>
       <use xlink:href="#DejaVuSans-34"/>
       <use xlink:href="#DejaVuSans-30" x="63.623047"/>
       <use xlink:href="#DejaVuSans-30" x="127.246094"/>
       <use xlink:href="#DejaVuSans-30" x="190.869141"/>
      </g>
     </g>
    </g>
    <g id="text_12">
     <!-- Number of Thefts -->
     <g transform="translate(18.640312 172.040313)rotate(-90)scale(0.1 -0.1)">
      <defs>
       <path id="DejaVuSans-4e" d="M 628 4666 
L 1478 4666 
L 3547 763 
L 3547 4666 
L 4159 4666 
L 4159 0 
L 3309 0 
L 1241 3903 
L 1241 0 
L 628 0 
L 628 4666 
z
" transform="scale(0.015625)"/>
       <path id="DejaVuSans-75" d="M 544 1381 
L 544 3500 
L 1119 3500 
L 1119 1403 
Q 1119 906 1312 657 
Q 1506 409 1894 409 
Q 2359 409 2629 706 
Q 2900 1003 2900 1516 
L 2900 3500 
L 3475 3500 
L 3475 0 
L 2900 0 
L 2900 538 
Q 2691 219 2414 64 
Q 2138 -91 1772 -91 
Q 1169 -91 856 284 
Q 544 659 544 1381 
z
M 1991 3584 
L 1991 3584 
z
" transform="scale(0.015625)"/>
       <path id="DejaVuSans-62" d="M 3116 1747 
Q 3116 2381 2855 2742 
Q 2594 3103 2138 3103 
Q 1681 3103 1420 2742 
Q 1159 2381 1159 1747 
Q 1159 1113 1420 752 
Q 1681 391 2138 391 
Q 2594 391 2855 752 
Q 3116 1113 3116 1747 
z
M 1159 2969 
Q 1341 3281 1617 3432 
Q 1894 3584 2278 3584 
Q 2916 3584 3314 3078 
Q 3713 2572 3713 1747 
Q 3713 922 3314 415 
Q 2916 -91 2278 -91 
Q 1894 -91 1617 61 
Q 1341 213 1159 525 
L 1159 0 
L 581 0 
L 581 4863 
L 1159 4863 
L 1159 2969 
z
" transform="scale(0.015625)"/>
       <path id="DejaVuSans-66" d="M 2375 4863 
L 2375 4384 
L 1825 4384 
Q 1516 4384 1395 4259 
Q 1275 4134 1275 3809 
L 1275 3500 
L 2222 3500 
L 2222 3053 
L 1275 3053 
L 1275 0 
L 697 0 
L 697 3053 
L 147 3053 
L 147 3500 
L 697 3500 
L 697 3744 
Q 697 4328 969 4595 
Q 1241 4863 1831 4863 
L 2375 4863 
z
" transform="scale(0.015625)"/>
       <path id="DejaVuSans-54" d="M -19 4666 
L 3928 4666 
L 3928 4134 
L 2272 4134 
L 2272 0 
L 1638 0 
L 1638 4134 
L -19 4134 
L -19 4666 
z
" transform="scale(0.015625)"/>
       <path id="DejaVuSans-68" d="M 3513 2113 
L 3513 0 
L 2938 0 
L 2938 2094 
Q 2938 2591 2744 2837 
Q 2550 3084 2163 3084 
Q 1697 3084 1428 2787 
Q 1159 2491 1159 1978 
L 1159 0 
L 581 0 
L 581 4863 
L 1159 4863 
L 1159 2956 
Q 1366 3272 1645 3428 
Q 1925 3584 2291 3584 
Q 2894 3584 3203 3211 
Q 3513 2838 3513 2113 
z
" transform="scale(0.015625)"/>
      </defs>
      <use xlink:href="#DejaVuSans-4e"/>
      <use xlink:href="#DejaVuSans-75" x="74.804688"/>
      <use xlink:href="#DejaVuSans-6d" x="138.183594"/>
      <use xlink:href="#DejaVuSans-62" x="235.595703"/>
      <use xlink:href="#DejaVuSans-65" x="299.072266"/>
      <use xlink:href="#DejaVuSans-72" x="360.595703"/>
      <use xlink:href="#DejaVuSans-20" x="401.708984"/>
      <use xlink:href="#DejaVuSans-6f" x="433.496094"/>
      <use xlink:href="#DejaVuSans-66" x="494.677734"/>
      <use xlink:href="#DejaVuSans-20" x="529.882812"/>
      <use xlink:href="#DejaVuSans-54" x="561.669922"/>
      <use xlink:href="#DejaVuSans-68" x="622.753906"/>
      <use xlink:href="#DejaVuSans-65" x="686.132812"/>
      <use xlink:href="#DejaVuSans-66" x="747.65625"/>
      <use xlink:href="#DejaVuSans-74" x="781.111328"/>
      <use xlink:href="#DejaVuSans-73" x="820.320312"/>
     </g>
    </g>
   </g>
   <g id="line2d_11">
    <path d="M 57.17 219.774296 
L 63.103035 219.815574 
L 69.036071 219.856852 
L 74.969106 219.898131 
L 80.902141 219.939409 
L 86.835177 219.980687 
L 92.768212 220.021966 
L 98.701247 220.063244 
L 104.634282 220.104522 
L 110.567318 220.145801 
L 116.500353 220.187079 
L 122.433388 220.228357 
L 128.366424 220.269636 
L 134.299459 220.310914 
L 140.232494 220.352192 
L 146.16553 220.393471 
L 152.098565 220.434749 
L 158.0316 220.476027 
L 163.964635 220.517306 
L 169.897671 220.558584 
L 175.830706 220.599862 
L 181.763741 220.641141 
L 187.696777 220.682419 
L 193.629812 220.723697 
L 199.562847 220.764976 
L 205.495883 220.806254 
L 211.428918 220.847532 
L 217.361953 220.888811 
L 223.294988 220.930089 
L 229.228024 220.971367 
L 235.161059 221.012646 
L 241.094094 221.053924 
L 247.02713 221.095202 
L 252.960165 221.136481 
L 258.8932 221.177759 
L 264.826236 221.219037 
L 270.759271 221.260316 
L 276.692306 221.301594 
L 282.625342 221.342872 
L 288.558377 221.384151 
L 294.491412 221.425429 
L 300.424447 221.466708 
L 306.357483 221.507986 
L 312.290518 221.549264 
L 318.223553 221.590543 
L 324.156589 221.631821 
L 330.089624 221.673099 
L 336.022659 221.714378 
L 341.955695 221.755656 
L 347.88873 221.796934 
" clip-path="url(#p8e088ff0b9)" style="fill: none; stroke: #d70000; stroke-width: 1.5; stroke-linecap: square"/>
   </g>
   <g id="line2d_12">
    <path d="M 57.17 187.922501 
L 63.103035 187.938108 
L 69.036071 187.953714 
L 74.969106 187.969321 
L 80.902141 187.984927 
L 86.835177 188.000534 
L 92.768212 188.01614 
L 98.701247 188.031746 
L 104.634282 188.047353 
L 110.567318 188.062959 
L 116.500353 188.078566 
L 122.433388 188.094172 
L 128.366424 188.109779 
L 134.299459 188.125385 
L 140.232494 188.140992 
L 146.16553 188.156598 
L 152.098565 188.172204 
L 158.0316 188.187811 
L 163.964635 188.203417 
L 169.897671 188.219024 
L 175.830706 188.23463 
L 181.763741 188.250237 
L 187.696777 188.265843 
L 193.629812 188.28145 
L 199.562847 188.297056 
L 205.495883 188.312662 
L 211.428918 188.328269 
L 217.361953 188.343875 
L 223.294988 188.359482 
L 229.228024 188.375088 
L 235.161059 188.390695 
L 241.094094 188.406301 
L 247.02713 188.421908 
L 252.960165 188.437514 
L 258.8932 188.45312 
L 264.826236 188.468727 
L 270.759271 188.484333 
L 276.692306 188.49994 
L 282.625342 188.515546 
L 288.558377 188.531153 
L 294.491412 188.546759 
L 300.424447 188.562366 
L 306.357483 188.577972 
L 312.290518 188.593578 
L 318.223553 188.609185 
L 324.156589 188.624791 
L 330.089624 188.640398 
L 336.022659 188.656004 
L 341.955695 188.671611 
L 347.88873 188.687217 
" clip-path="url(#p8e088ff0b9)" style="fill: none; stroke: #8c3cff; stroke-width: 1.5; stroke-linecap: square"/>
   </g>
   <g id="line2d_13">
    <path d="M 57.17 229.219809 
L 63.103035 229.278373 
L 69.036071 229.336938 
L 74.969106 229.395502 
L 80.902141 229.454067 
L 86.835177 229.512631 
L 92.768212 229.571196 
L 98.701247 229.62976 
L 104.634282 229.688325 
L 110.567318 229.746889 
L 116.500353 229.805454 
L 122.433388 229.864018 
L 128.366424 229.922583 
L 134.299459 229.981147 
L 140.232494 230.039712 
L 146.16553 230.098276 
L 152.098565 230.156841 
L 158.0316 230.215405 
L 163.964635 230.27397 
L 169.897671 230.332534 
L 175.830706 230.391099 
L 181.763741 230.449663 
L 187.696777 230.508228 
L 193.629812 230.566792 
L 199.562847 230.625357 
L 205.495883 230.683921 
L 211.428918 230.742486 
L 217.361953 230.80105 
L 223.294988 230.859615 
L 229.228024 230.918179 
L 235.161059 230.976744 
L 241.094094 231.035308 
L 247.02713 231.093873 
L 252.960165 231.152437 
L 258.8932 231.211002 
L 264.826236 231.269566 
L 270.759271 231.328131 
L 276.692306 231.386695 
L 282.625342 231.44526 
L 288.558377 231.503824 
L 294.491412 231.562389 
L 300.424447 231.620954 
L 306.357483 231.679518 
L 312.290518 231.738083 
L 318.223553 231.796647 
L 324.156589 231.855212 
L 330.089624 231.913776 
L 336.022659 231.972341 
L 341.955695 232.030905 
L 347.88873 232.08947 
" clip-path="url(#p8e088ff0b9)" style="fill: none; stroke: #028800; stroke-width: 1.5; stroke-linecap: square"/>
   </g>
   <g id="line2d_14">
    <path d="M 57.17 227.482509 
L 63.103035 227.029687 
L 69.036071 226.576864 
L 74.969106 226.124042 
L 80.902141 225.671219 
L 86.835177 225.218397 
L 92.768212 224.765574 
L 98.701247 224.312752 
L 104.634282 223.859929 
L 110.567318 223.407107 
L 116.500353 222.954284 
L 122.433388 222.501462 
L 128.366424 222.048639 
L 134.299459 221.595817 
L 140.232494 221.142994 
L 146.16553 220.690172 
L 152.098565 220.237349 
L 158.0316 219.784527 
L 163.964635 219.331704 
L 169.897671 218.878882 
L 175.830706 218.426059 
L 181.763741 217.973237 
L 187.696777 217.520415 
L 193.629812 217.067592 
L 199.562847 216.61477 
L 205.495883 216.161947 
L 211.428918 215.709125 
L 217.361953 215.256302 
L 223.294988 214.80348 
L 229.228024 214.350657 
L 235.161059 213.897835 
L 241.094094 213.445012 
L 247.02713 212.99219 
L 252.960165 212.539367 
L 258.8932 212.086545 
L 264.826236 211.633722 
L 270.759271 211.1809 
L 276.692306 210.728077 
L 282.625342 210.275255 
L 288.558377 209.822432 
L 294.491412 209.36961 
L 300.424447 208.916787 
L 306.357483 208.463965 
L 312.290518 208.011142 
L 318.223553 207.55832 
L 324.156589 207.105498 
L 330.089624 206.652675 
L 336.022659 206.199853 
L 341.955695 205.74703 
L 347.88873 205.294208 
" clip-path="url(#p8e088ff0b9)" style="fill: none; stroke: #98ff00; stroke-width: 1.5; stroke-linecap: square"/>
   </g>
   <g id="line2d_15">
    <path d="M 57.17 178.43038 
L 63.103035 177.247877 
L 69.036071 176.065374 
L 74.969106 174.88287 
L 80.902141 173.700367 
L 86.835177 172.517864 
L 92.768212 171.335361 
L 98.701247 170.152858 
L 104.634282 168.970354 
L 110.567318 167.787851 
L 116.500353 166.605348 
L 122.433388 165.422845 
L 128.366424 164.240341 
L 134.299459 163.057838 
L 140.232494 161.875335 
L 146.16553 160.692832 
L 152.098565 159.510329 
L 158.0316 158.327825 
L 163.964635 157.145322 
L 169.897671 155.962819 
L 175.830706 154.780316 
L 181.763741 153.597812 
L 187.696777 152.415309 
L 193.629812 151.232806 
L 199.562847 150.050303 
L 205.495883 148.8678 
L 211.428918 147.685296 
L 217.361953 146.502793 
L 223.294988 145.32029 
L 229.228024 144.137787 
L 235.161059 142.955284 
L 241.094094 141.77278 
L 247.02713 140.590277 
L 252.960165 139.407774 
L 258.8932 138.225271 
L 264.826236 137.042767 
L 270.759271 135.860264 
L 276.692306 134.677761 
L 282.625342 133.495258 
L 288.558377 132.312755 
L 294.491412 131.130251 
L 300.424447 129.947748 
L 306.357483 128.765245 
L 312.290518 127.582742 
L 318.223553 126.400238 
L 324.156589 125.217735 
L 330.089624 124.035232 
L 336.022659 122.852729 
L 341.955695 121.670226 
L 347.88873 120.487722 
" clip-path="url(#p8e088ff0b9)" style="fill: none; stroke: #ff7fd1; stroke-width: 1.5; stroke-linecap: square"/>
   </g>
   <g id="line2d_16">
    <path d="M 57.17 224.81064 
L 63.103035 224.65672 
L 69.036071 224.5028 
L 74.969106 224.34888 
L 80.902141 224.194959 
L 86.835177 224.041039 
L 92.768212 223.887119 
L 98.701247 223.733199 
L 104.634282 223.579278 
L 110.567318 223.425358 
L 116.500353 223.271438 
L 122.433388 223.117517 
L 128.366424 222.963597 
L 134.299459 222.809677 
L 140.232494 222.655757 
L 146.16553 222.501836 
L 152.098565 222.347916 
L 158.0316 222.193996 
L 163.964635 222.040076 
L 169.897671 221.886155 
L 175.830706 221.732235 
L 181.763741 221.578315 
L 187.696777 221.424394 
L 193.629812 221.270474 
L 199.562847 221.116554 
L 205.495883 220.962634 
L 211.428918 220.808713 
L 217.361953 220.654793 
L 223.294988 220.500873 
L 229.228024 220.346953 
L 235.161059 220.193032 
L 241.094094 220.039112 
L 247.02713 219.885192 
L 252.960165 219.731271 
L 258.8932 219.577351 
L 264.826236 219.423431 
L 270.759271 219.269511 
L 276.692306 219.11559 
L 282.625342 218.96167 
L 288.558377 218.80775 
L 294.491412 218.65383 
L 300.424447 218.499909 
L 306.357483 218.345989 
L 312.290518 218.192069 
L 318.223553 218.038149 
L 324.156589 217.884228 
L 330.089624 217.730308 
L 336.022659 217.576388 
L 341.955695 217.422467 
L 347.88873 217.268547 
" clip-path="url(#p8e088ff0b9)" style="fill: none; stroke: #6c004f; stroke-width: 1.5; stroke-linecap: square"/>
   </g>
   <g id="line2d_17">
    <path d="M 57.17 190.495126 
L 63.103035 189.671192 
L 69.036071 188.847258 
L 74.969106 188.023323 
L 80.902141 187.199389 
L 86.835177 186.375455 
L 92.768212 185.55152 
L 98.701247 184.727586 
L 104.634282 183.903652 
L 110.567318 183.079717 
L 116.500353 182.255783 
L 122.433388 181.431849 
L 128.366424 180.607914 
L 134.299459 179.78398 
L 140.232494 178.960046 
L 146.16553 178.136111 
L 152.098565 177.312177 
L 158.0316 176.488243 
L 163.964635 175.664308 
L 169.897671 174.840374 
L 175.830706 174.01644 
L 181.763741 173.192505 
L 187.696777 172.368571 
L 193.629812 171.544637 
L 199.562847 170.720702 
L 205.495883 169.896768 
L 211.428918 169.072834 
L 217.361953 168.248899 
L 223.294988 167.424965 
L 229.228024 166.601031 
L 235.161059 165.777096 
L 241.094094 164.953162 
L 247.02713 164.129228 
L 252.960165 163.305293 
L 258.8932 162.481359 
L 264.826236 161.657425 
L 270.759271 160.83349 
L 276.692306 160.009556 
L 282.625342 159.185622 
L 288.558377 158.361687 
L 294.491412 157.537753 
L 300.424447 156.713819 
L 306.357483 155.889884 
L 312.290518 155.06595 
L 318.223553 154.242016 
L 324.156589 153.418082 
L 330.089624 152.594147 
L 336.022659 151.770213 
L 341.955695 150.946279 
L 347.88873 150.122344 
" clip-path="url(#p8e088ff0b9)" style="fill: none; stroke: #583b00; stroke-width: 1.5; stroke-linecap: square"/>
   </g>
   <g id="line2d_18">
    <path d="M 57.17 257.456984 
L 63.103035 257.104378 
L 69.036071 256.751771 
L 74.969106 256.399164 
L 80.902141 256.046557 
L 86.835177 255.69395 
L 92.768212 255.341344 
L 98.701247 254.988737 
L 104.634282 254.63613 
L 110.567318 254.283523 
L 116.500353 253.930917 
L 122.433388 253.57831 
L 128.366424 253.225703 
L 134.299459 252.873096 
L 140.232494 252.52049 
L 146.16553 252.167883 
L 152.098565 251.815276 
L 158.0316 251.462669 
L 163.964635 251.110062 
L 169.897671 250.757456 
L 175.830706 250.404849 
L 181.763741 250.052242 
L 187.696777 249.699635 
L 193.629812 249.347029 
L 199.562847 248.994422 
L 205.495883 248.641815 
L 211.428918 248.289208 
L 217.361953 247.936601 
L 223.294988 247.583995 
L 229.228024 247.231388 
L 235.161059 246.878781 
L 241.094094 246.526174 
L 247.02713 246.173568 
L 252.960165 245.820961 
L 258.8932 245.468354 
L 264.826236 245.115747 
L 270.759271 244.763141 
L 276.692306 244.410534 
L 282.625342 244.057927 
L 288.558377 243.70532 
L 294.491412 243.352713 
L 300.424447 243.000107 
L 306.357483 242.6475 
L 312.290518 242.294893 
L 318.223553 241.942286 
L 324.156589 241.58968 
L 330.089624 241.237073 
L 336.022659 240.884466 
L 341.955695 240.531859 
L 347.88873 240.179252 
" clip-path="url(#p8e088ff0b9)" style="fill: none; stroke: #005759; stroke-width: 1.5; stroke-linecap: square"/>
   </g>
   <g id="line2d_19">
    <path d="M 57.17 219.328686 
L 63.103035 219.29773 
L 69.036071 219.266773 
L 74.969106 219.235817 
L 80.902141 219.20486 
L 86.835177 219.173904 
L 92.768212 219.142948 
L 98.701247 219.111991 
L 104.634282 219.081035 
L 110.567318 219.050079 
L 116.500353 219.019122 
L 122.433388 218.988166 
L 128.366424 218.95721 
L 134.299459 218.926253 
L 140.232494 218.895297 
L 146.16553 218.86434 
L 152.098565 218.833384 
L 158.0316 218.802428 
L 163.964635 218.771471 
L 169.897671 218.740515 
L 175.830706 218.709559 
L 181.763741 218.678602 
L 187.696777 218.647646 
L 193.629812 218.616689 
L 199.562847 218.585733 
L 205.495883 218.554777 
L 211.428918 218.52382 
L 217.361953 218.492864 
L 223.294988 218.461908 
L 229.228024 218.430951 
L 235.161059 218.399995 
L 241.094094 218.369039 
L 247.02713 218.338082 
L 252.960165 218.307126 
L 258.8932 218.276169 
L 264.826236 218.245213 
L 270.759271 218.214257 
L 276.692306 218.1833 
L 282.625342 218.152344 
L 288.558377 218.121388 
L 294.491412 218.090431 
L 300.424447 218.059475 
L 306.357483 218.028519 
L 312.290518 217.997562 
L 318.223553 217.966606 
L 324.156589 217.935649 
L 330.089624 217.904693 
L 336.022659 217.873737 
L 341.955695 217.84278 
L 347.88873 217.811824 
" clip-path="url(#p8e088ff0b9)" style="fill: none; stroke: #0000dd; stroke-width: 1.5; stroke-linecap: square"/>
   </g>
   <g id="line2d_20">
    <path d="M 57.17 229.576814 
L 63.103035 229.533078 
L 69.036071 229.489341 
L 74.969106 229.445605 
L 80.902141 229.401869 
L 86.835177 229.358133 
L 92.768212 229.314396 
L 98.701247 229.27066 
L 104.634282 229.226924 
L 110.567318 229.183188 
L 116.500353 229.139452 
L 122.433388 229.095715 
L 128.366424 229.051979 
L 134.299459 229.008243 
L 140.232494 228.964507 
L 146.16553 228.920771 
L 152.098565 228.877034 
L 158.0316 228.833298 
L 163.964635 228.789562 
L 169.897671 228.745826 
L 175.830706 228.702089 
L 181.763741 228.658353 
L 187.696777 228.614617 
L 193.629812 228.570881 
L 199.562847 228.527145 
L 205.495883 228.483408 
L 211.428918 228.439672 
L 217.361953 228.395936 
L 223.294988 228.3522 
L 229.228024 228.308464 
L 235.161059 228.264727 
L 241.094094 228.220991 
L 247.02713 228.177255 
L 252.960165 228.133519 
L 258.8932 228.089782 
L 264.826236 228.046046 
L 270.759271 228.00231 
L 276.692306 227.958574 
L 282.625342 227.914838 
L 288.558377 227.871101 
L 294.491412 227.827365 
L 300.424447 227.783629 
L 306.357483 227.739893 
L 312.290518 227.696156 
L 318.223553 227.65242 
L 324.156589 227.608684 
L 330.089624 227.564948 
L 336.022659 227.521212 
L 341.955695 227.477475 
L 347.88873 227.433739 
" clip-path="url(#p8e088ff0b9)" style="fill: none; stroke: #bcb7ff; stroke-width: 1.5; stroke-linecap: square"/>
   </g>
   <g id="line2d_21">
    <path d="M 57.17 218.086708 
L 63.103035 215.163303 
L 69.036071 212.239897 
L 74.969106 209.316491 
L 80.902141 206.393086 
L 86.835177 203.46968 
L 92.768212 200.546275 
L 98.701247 197.622869 
L 104.634282 194.699463 
L 110.567318 191.776058 
L 116.500353 188.852652 
L 122.433388 185.929246 
L 128.366424 183.005841 
L 134.299459 180.082435 
L 140.232494 177.159029 
L 146.16553 174.235624 
L 152.098565 171.312218 
L 158.0316 168.388812 
L 163.964635 165.465407 
L 169.897671 162.542001 
L 175.830706 159.618595 
L 181.763741 156.69519 
L 187.696777 153.771784 
L 193.629812 150.848378 
L 199.562847 147.924973 
L 205.495883 145.001567 
L 211.428918 142.078161 
L 217.361953 139.154756 
L 223.294988 136.23135 
L 229.228024 133.307944 
L 235.161059 130.384539 
L 241.094094 127.461133 
L 247.02713 124.537727 
L 252.960165 121.614322 
L 258.8932 118.690916 
L 264.826236 115.76751 
L 270.759271 112.844105 
L 276.692306 109.920699 
L 282.625342 106.997293 
L 288.558377 104.073888 
L 294.491412 101.150482 
L 300.424447 98.227076 
L 306.357483 95.303671 
L 312.290518 92.380265 
L 318.223553 89.456859 
L 324.156589 86.533454 
L 330.089624 83.610048 
L 336.022659 80.686642 
L 341.955695 77.763237 
L 347.88873 74.839831 
" clip-path="url(#p8e088ff0b9)" style="fill: none; stroke: #95b578; stroke-width: 1.5; stroke-linecap: square"/>
   </g>
   <g id="line2d_22">
    <path d="M 57.17 223.813865 
L 63.103035 223.89577 
L 69.036071 223.977674 
L 74.969106 224.059578 
L 80.902141 224.141482 
L 86.835177 224.223387 
L 92.768212 224.305291 
L 98.701247 224.387195 
L 104.634282 224.469099 
L 110.567318 224.551004 
L 116.500353 224.632908 
L 122.433388 224.714812 
L 128.366424 224.796716 
L 134.299459 224.878621 
L 140.232494 224.960525 
L 146.16553 225.042429 
L 152.098565 225.124333 
L 158.0316 225.206238 
L 163.964635 225.288142 
L 169.897671 225.370046 
L 175.830706 225.45195 
L 181.763741 225.533855 
L 187.696777 225.615759 
L 193.629812 225.697663 
L 199.562847 225.779567 
L 205.495883 225.861471 
L 211.428918 225.943376 
L 217.361953 226.02528 
L 223.294988 226.107184 
L 229.228024 226.189088 
L 235.161059 226.270993 
L 241.094094 226.352897 
L 247.02713 226.434801 
L 252.960165 226.516705 
L 258.8932 226.59861 
L 264.826236 226.680514 
L 270.759271 226.762418 
L 276.692306 226.844322 
L 282.625342 226.926227 
L 288.558377 227.008131 
L 294.491412 227.090035 
L 300.424447 227.171939 
L 306.357483 227.253844 
L 312.290518 227.335748 
L 318.223553 227.417652 
L 324.156589 227.499556 
L 330.089624 227.581461 
L 336.022659 227.663365 
L 341.955695 227.745269 
L 347.88873 227.827173 
" clip-path="url(#p8e088ff0b9)" style="fill: none; stroke: #c004b9; stroke-width: 1.5; stroke-linecap: square"/>
   </g>
   <g id="line2d_23">
    <path d="M 57.17 223.953902 
L 63.103035 223.774375 
L 69.036071 223.594849 
L 74.969106 223.415322 
L 80.902141 223.235795 
L 86.835177 223.056268 
L 92.768212 222.876741 
L 98.701247 222.697214 
L 104.634282 222.517687 
L 110.567318 222.338161 
L 116.500353 222.158634 
L 122.433388 221.979107 
L 128.366424 221.79958 
L 134.299459 221.620053 
L 140.232494 221.440526 
L 146.16553 221.260999 
L 152.098565 221.081473 
L 158.0316 220.901946 
L 163.964635 220.722419 
L 169.897671 220.542892 
L 175.830706 220.363365 
L 181.763741 220.183838 
L 187.696777 220.004311 
L 193.629812 219.824785 
L 199.562847 219.645258 
L 205.495883 219.465731 
L 211.428918 219.286204 
L 217.361953 219.106677 
L 223.294988 218.92715 
L 229.228024 218.747623 
L 235.161059 218.568097 
L 241.094094 218.38857 
L 247.02713 218.209043 
L 252.960165 218.029516 
L 258.8932 217.849989 
L 264.826236 217.670462 
L 270.759271 217.490936 
L 276.692306 217.311409 
L 282.625342 217.131882 
L 288.558377 216.952355 
L 294.491412 216.772828 
L 300.424447 216.593301 
L 306.357483 216.413774 
L 312.290518 216.234248 
L 318.223553 216.054721 
L 324.156589 215.875194 
L 330.089624 215.695667 
L 336.022659 215.51614 
L 341.955695 215.336613 
L 347.88873 215.157086 
" clip-path="url(#p8e088ff0b9)" style="fill: none; stroke: #790000; stroke-width: 1.5; stroke-linecap: square"/>
   </g>
   <g id="line2d_24">
    <path d="M 57.17 220.772936 
L 63.103035 220.547279 
L 69.036071 220.321622 
L 74.969106 220.095965 
L 80.902141 219.870308 
L 86.835177 219.644651 
L 92.768212 219.418994 
L 98.701247 219.193337 
L 104.634282 218.96768 
L 110.567318 218.742023 
L 116.500353 218.516366 
L 122.433388 218.290709 
L 128.366424 218.065052 
L 134.299459 217.839395 
L 140.232494 217.613738 
L 146.16553 217.388081 
L 152.098565 217.162424 
L 158.0316 216.936767 
L 163.964635 216.71111 
L 169.897671 216.485453 
L 175.830706 216.259796 
L 181.763741 216.034139 
L 187.696777 215.808482 
L 193.629812 215.582825 
L 199.562847 215.357168 
L 205.495883 215.131511 
L 211.428918 214.905854 
L 217.361953 214.680197 
L 223.294988 214.45454 
L 229.228024 214.228883 
L 235.161059 214.003226 
L 241.094094 213.777569 
L 247.02713 213.551912 
L 252.960165 213.326255 
L 258.8932 213.100598 
L 264.826236 212.874941 
L 270.759271 212.649284 
L 276.692306 212.423627 
L 282.625342 212.19797 
L 288.558377 211.972313 
L 294.491412 211.746656 
L 300.424447 211.520999 
L 306.357483 211.295342 
L 312.290518 211.069685 
L 318.223553 210.844028 
L 324.156589 210.618371 
L 330.089624 210.392714 
L 336.022659 210.167057 
L 341.955695 209.9414 
L 347.88873 209.715743 
" clip-path="url(#p8e088ff0b9)" style="fill: none; stroke: #0774d8; stroke-width: 1.5; stroke-linecap: square"/>
   </g>
   <g id="line2d_25">
    <path d="M 57.17 212.976372 
L 63.103035 212.246865 
L 69.036071 211.517357 
L 74.969106 210.78785 
L 80.902141 210.058342 
L 86.835177 209.328835 
L 92.768212 208.599327 
L 98.701247 207.86982 
L 104.634282 207.140312 
L 110.567318 206.410805 
L 116.500353 205.681297 
L 122.433388 204.95179 
L 128.366424 204.222282 
L 134.299459 203.492775 
L 140.232494 202.763267 
L 146.16553 202.03376 
L 152.098565 201.304252 
L 158.0316 200.574745 
L 163.964635 199.845237 
L 169.897671 199.11573 
L 175.830706 198.386222 
L 181.763741 197.656715 
L 187.696777 196.927207 
L 193.629812 196.1977 
L 199.562847 195.468192 
L 205.495883 194.738685 
L 211.428918 194.009177 
L 217.361953 193.27967 
L 223.294988 192.550162 
L 229.228024 191.820655 
L 235.161059 191.091147 
L 241.094094 190.36164 
L 247.02713 189.632132 
L 252.960165 188.902625 
L 258.8932 188.173117 
L 264.826236 187.44361 
L 270.759271 186.714102 
L 276.692306 185.984595 
L 282.625342 185.255087 
L 288.558377 184.52558 
L 294.491412 183.796072 
L 300.424447 183.066565 
L 306.357483 182.337057 
L 312.290518 181.60755 
L 318.223553 180.878042 
L 324.156589 180.148535 
L 330.089624 179.419027 
L 336.022659 178.68952 
L 341.955695 177.960012 
L 347.88873 177.230505 
" clip-path="url(#p8e088ff0b9)" style="fill: none; stroke: #fef590; stroke-width: 1.5; stroke-linecap: square"/>
   </g>
   <g id="line2d_26">
    <path d="M 57.17 213.441564 
L 63.103035 213.186503 
L 69.036071 212.931441 
L 74.969106 212.676379 
L 80.902141 212.421317 
L 86.835177 212.166256 
L 92.768212 211.911194 
L 98.701247 211.656132 
L 104.634282 211.40107 
L 110.567318 211.146009 
L 116.500353 210.890947 
L 122.433388 210.635885 
L 128.366424 210.380824 
L 134.299459 210.125762 
L 140.232494 209.8707 
L 146.16553 209.615638 
L 152.098565 209.360577 
L 158.0316 209.105515 
L 163.964635 208.850453 
L 169.897671 208.595392 
L 175.830706 208.34033 
L 181.763741 208.085268 
L 187.696777 207.830206 
L 193.629812 207.575145 
L 199.562847 207.320083 
L 205.495883 207.065021 
L 211.428918 206.809959 
L 217.361953 206.554898 
L 223.294988 206.299836 
L 229.228024 206.044774 
L 235.161059 205.789713 
L 241.094094 205.534651 
L 247.02713 205.279589 
L 252.960165 205.024527 
L 258.8932 204.769466 
L 264.826236 204.514404 
L 270.759271 204.259342 
L 276.692306 204.00428 
L 282.625342 203.749219 
L 288.558377 203.494157 
L 294.491412 203.239095 
L 300.424447 202.984034 
L 306.357483 202.728972 
L 312.290518 202.47391 
L 318.223553 202.218848 
L 324.156589 201.963787 
L 330.089624 201.708725 
L 336.022659 201.453663 
L 341.955695 201.198602 
L 347.88873 200.94354 
" clip-path="url(#p8e088ff0b9)" style="fill: none; stroke: #004b00; stroke-width: 1.5; stroke-linecap: square"/>
   </g>
   <g id="line2d_27">
    <path d="M 57.17 213.608794 
L 63.103035 213.666844 
L 69.036071 213.724894 
L 74.969106 213.782944 
L 80.902141 213.840993 
L 86.835177 213.899043 
L 92.768212 213.957093 
L 98.701247 214.015143 
L 104.634282 214.073192 
L 110.567318 214.131242 
L 116.500353 214.189292 
L 122.433388 214.247342 
L 128.366424 214.305392 
L 134.299459 214.363441 
L 140.232494 214.421491 
L 146.16553 214.479541 
L 152.098565 214.537591 
L 158.0316 214.595641 
L 163.964635 214.65369 
L 169.897671 214.71174 
L 175.830706 214.76979 
L 181.763741 214.82784 
L 187.696777 214.88589 
L 193.629812 214.943939 
L 199.562847 215.001989 
L 205.495883 215.060039 
L 211.428918 215.118089 
L 217.361953 215.176138 
L 223.294988 215.234188 
L 229.228024 215.292238 
L 235.161059 215.350288 
L 241.094094 215.408338 
L 247.02713 215.466387 
L 252.960165 215.524437 
L 258.8932 215.582487 
L 264.826236 215.640537 
L 270.759271 215.698587 
L 276.692306 215.756636 
L 282.625342 215.814686 
L 288.558377 215.872736 
L 294.491412 215.930786 
L 300.424447 215.988836 
L 306.357483 216.046885 
L 312.290518 216.104935 
L 318.223553 216.162985 
L 324.156589 216.221035 
L 330.089624 216.279084 
L 336.022659 216.337134 
L 341.955695 216.395184 
L 347.88873 216.453234 
" clip-path="url(#p8e088ff0b9)" style="fill: none; stroke: #8f7a00; stroke-width: 1.5; stroke-linecap: square"/>
   </g>
   <g id="line2d_28">
    <path d="M 57.17 228.91137 
L 63.103035 228.963199 
L 69.036071 229.015028 
L 74.969106 229.066857 
L 80.902141 229.118686 
L 86.835177 229.170514 
L 92.768212 229.222343 
L 98.701247 229.274172 
L 104.634282 229.326001 
L 110.567318 229.37783 
L 116.500353 229.429658 
L 122.433388 229.481487 
L 128.366424 229.533316 
L 134.299459 229.585145 
L 140.232494 229.636974 
L 146.16553 229.688802 
L 152.098565 229.740631 
L 158.0316 229.79246 
L 163.964635 229.844289 
L 169.897671 229.896118 
L 175.830706 229.947946 
L 181.763741 229.999775 
L 187.696777 230.051604 
L 193.629812 230.103433 
L 199.562847 230.155262 
L 205.495883 230.20709 
L 211.428918 230.258919 
L 217.361953 230.310748 
L 223.294988 230.362577 
L 229.228024 230.414406 
L 235.161059 230.466234 
L 241.094094 230.518063 
L 247.02713 230.569892 
L 252.960165 230.621721 
L 258.8932 230.67355 
L 264.826236 230.725378 
L 270.759271 230.777207 
L 276.692306 230.829036 
L 282.625342 230.880865 
L 288.558377 230.932694 
L 294.491412 230.984522 
L 300.424447 231.036351 
L 306.357483 231.08818 
L 312.290518 231.140009 
L 318.223553 231.191838 
L 324.156589 231.243666 
L 330.089624 231.295495 
L 336.022659 231.347324 
L 341.955695 231.399153 
L 347.88873 231.450982 
" clip-path="url(#p8e088ff0b9)" style="fill: none; stroke: #ff7266; stroke-width: 1.5; stroke-linecap: square"/>
   </g>
   <g id="line2d_29">
    <path d="M 57.17 172.149329 
L 63.103035 171.966685 
L 69.036071 171.78404 
L 74.969106 171.601396 
L 80.902141 171.418751 
L 86.835177 171.236107 
L 92.768212 171.053462 
L 98.701247 170.870818 
L 104.634282 170.688173 
L 110.567318 170.505529 
L 116.500353 170.322884 
L 122.433388 170.14024 
L 128.366424 169.957595 
L 134.299459 169.774951 
L 140.232494 169.592306 
L 146.16553 169.409662 
L 152.098565 169.227017 
L 158.0316 169.044373 
L 163.964635 168.861728 
L 169.897671 168.679084 
L 175.830706 168.496439 
L 181.763741 168.313795 
L 187.696777 168.13115 
L 193.629812 167.948506 
L 199.562847 167.765862 
L 205.495883 167.583217 
L 211.428918 167.400573 
L 217.361953 167.217928 
L 223.294988 167.035284 
L 229.228024 166.852639 
L 235.161059 166.669995 
L 241.094094 166.48735 
L 247.02713 166.304706 
L 252.960165 166.122061 
L 258.8932 165.939417 
L 264.826236 165.756772 
L 270.759271 165.574128 
L 276.692306 165.391483 
L 282.625342 165.208839 
L 288.558377 165.026194 
L 294.491412 164.84355 
L 300.424447 164.660905 
L 306.357483 164.478261 
L 312.290518 164.295616 
L 318.223553 164.112972 
L 324.156589 163.930327 
L 330.089624 163.747683 
L 336.022659 163.565038 
L 341.955695 163.382394 
L 347.88873 163.19975 
" clip-path="url(#p8e088ff0b9)" style="fill: none; stroke: #eeb9b9; stroke-width: 1.5; stroke-linecap: square"/>
   </g>
   <g id="line2d_30">
    <path d="M 57.17 229.616946 
L 63.103035 229.579586 
L 69.036071 229.542226 
L 74.969106 229.504867 
L 80.902141 229.467507 
L 86.835177 229.430147 
L 92.768212 229.392787 
L 98.701247 229.355427 
L 104.634282 229.318067 
L 110.567318 229.280707 
L 116.500353 229.243348 
L 122.433388 229.205988 
L 128.366424 229.168628 
L 134.299459 229.131268 
L 140.232494 229.093908 
L 146.16553 229.056548 
L 152.098565 229.019188 
L 158.0316 228.981829 
L 163.964635 228.944469 
L 169.897671 228.907109 
L 175.830706 228.869749 
L 181.763741 228.832389 
L 187.696777 228.795029 
L 193.629812 228.757669 
L 199.562847 228.72031 
L 205.495883 228.68295 
L 211.428918 228.64559 
L 217.361953 228.60823 
L 223.294988 228.57087 
L 229.228024 228.53351 
L 235.161059 228.49615 
L 241.094094 228.458791 
L 247.02713 228.421431 
L 252.960165 228.384071 
L 258.8932 228.346711 
L 264.826236 228.309351 
L 270.759271 228.271991 
L 276.692306 228.234631 
L 282.625342 228.197271 
L 288.558377 228.159912 
L 294.491412 228.122552 
L 300.424447 228.085192 
L 306.357483 228.047832 
L 312.290518 228.010472 
L 318.223553 227.973112 
L 324.156589 227.935752 
L 330.089624 227.898393 
L 336.022659 227.861033 
L 341.955695 227.823673 
L 347.88873 227.786313 
" clip-path="url(#p8e088ff0b9)" style="fill: none; stroke: #5e7e66; stroke-width: 1.5; stroke-linecap: square"/>
   </g>
   <g id="line2d_31">
    <path d="M 57.17 226.121746 
L 63.103035 226.029713 
L 69.036071 225.93768 
L 74.969106 225.845647 
L 80.902141 225.753614 
L 86.835177 225.661581 
L 92.768212 225.569548 
L 98.701247 225.477515 
L 104.634282 225.385482 
L 110.567318 225.293449 
L 116.500353 225.201416 
L 122.433388 225.109383 
L 128.366424 225.01735 
L 134.299459 224.925317 
L 140.232494 224.833284 
L 146.16553 224.741251 
L 152.098565 224.649218 
L 158.0316 224.557185 
L 163.964635 224.465152 
L 169.897671 224.373119 
L 175.830706 224.281086 
L 181.763741 224.189053 
L 187.696777 224.09702 
L 193.629812 224.004987 
L 199.562847 223.912954 
L 205.495883 223.820921 
L 211.428918 223.728888 
L 217.361953 223.636855 
L 223.294988 223.544822 
L 229.228024 223.452789 
L 235.161059 223.360756 
L 241.094094 223.268723 
L 247.02713 223.17669 
L 252.960165 223.084657 
L 258.8932 222.992624 
L 264.826236 222.900591 
L 270.759271 222.808558 
L 276.692306 222.716525 
L 282.625342 222.624492 
L 288.558377 222.532459 
L 294.491412 222.440426 
L 300.424447 222.348393 
L 306.357483 222.25636 
L 312.290518 222.164327 
L 318.223553 222.072294 
L 324.156589 221.980261 
L 330.089624 221.888228 
L 336.022659 221.796195 
L 341.955695 221.704163 
L 347.88873 221.61213 
" clip-path="url(#p8e088ff0b9)" style="fill: none; stroke: #9be4ff; stroke-width: 1.5; stroke-linecap: square"/>
   </g>
   <g id="patch_3">
    <path d="M 57.17 246.04 
L 57.17 10.8 
" style="fill: none; stroke: #000000; stroke-width: 0.8; stroke-linejoin: miter; stroke-linecap: square"/>
   </g>
   <g id="patch_4">
    <path d="M 347.88873 246.04 
L 347.88873 10.8 
" style="fill: none; stroke: #000000; stroke-width: 0.8; stroke-linejoin: miter; stroke-linecap: square"/>
   </g>
   <g id="patch_5">
    <path d="M 57.17 246.04 
L 347.88873 246.04 
" style="fill: none; stroke: #000000; stroke-width: 0.8; stroke-linejoin: miter; stroke-linecap: square"/>
   </g>
   <g id="patch_6">
    <path d="M 57.17 10.8 
L 347.88873 10.8 
" style="fill: none; stroke: #000000; stroke-width: 0.8; stroke-linejoin: miter; stroke-linecap: square"/>
   </g>
   <g id="legend_1">
    <g id="patch_7">
     <path d="M 64.17 180.259375 
L 173.424688 180.259375 
Q 175.424688 180.259375 175.424688 178.259375 
L 175.424688 17.8 
Q 175.424688 15.8 173.424688 15.8 
L 64.17 15.8 
Q 62.17 15.8 62.17 17.8 
L 62.17 178.259375 
Q 62.17 180.259375 64.17 180.259375 
z
" style="fill: #ffffff; opacity: 0.8; stroke: #cccccc; stroke-linejoin: miter"/>
    </g>
    <g id="line2d_32">
     <path d="M 66.17 23.898438 
L 76.17 23.898438 
L 86.17 23.898438 
" style="fill: none; stroke: #d70000; stroke-width: 1.5; stroke-linecap: square"/>
    </g>
    <g id="text_13">
     <!-- AT -->
     <g transform="translate(94.17 27.398438)scale(0.1 -0.1)">
      <defs>
       <path id="DejaVuSans-41" d="M 2188 4044 
L 1331 1722 
L 3047 1722 
L 2188 4044 
z
M 1831 4666 
L 2547 4666 
L 4325 0 
L 3669 0 
L 3244 1197 
L 1141 1197 
L 716 0 
L 50 0 
L 1831 4666 
z
" transform="scale(0.015625)"/>
      </defs>
      <use xlink:href="#DejaVuSans-41"/>
      <use xlink:href="#DejaVuSans-54" x="60.658203"/>
     </g>
    </g>
    <g id="line2d_33">
     <path d="M 66.17 38.576563 
L 76.17 38.576563 
L 86.17 38.576563 
" style="fill: none; stroke: #8c3cff; stroke-width: 1.5; stroke-linecap: square"/>
    </g>
    <g id="text_14">
     <!-- BE -->
     <g transform="translate(94.17 42.076563)scale(0.1 -0.1)">
      <defs>
       <path id="DejaVuSans-42" d="M 1259 2228 
L 1259 519 
L 2272 519 
Q 2781 519 3026 730 
Q 3272 941 3272 1375 
Q 3272 1813 3026 2020 
Q 2781 2228 2272 2228 
L 1259 2228 
z
M 1259 4147 
L 1259 2741 
L 2194 2741 
Q 2656 2741 2882 2914 
Q 3109 3088 3109 3444 
Q 3109 3797 2882 3972 
Q 2656 4147 2194 4147 
L 1259 4147 
z
M 628 4666 
L 2241 4666 
Q 2963 4666 3353 4366 
Q 3744 4066 3744 3513 
Q 3744 3084 3544 2831 
Q 3344 2578 2956 2516 
Q 3422 2416 3680 2098 
Q 3938 1781 3938 1306 
Q 3938 681 3513 340 
Q 3088 0 2303 0 
L 628 0 
L 628 4666 
z
" transform="scale(0.015625)"/>
       <path id="DejaVuSans-45" d="M 628 4666 
L 3578 4666 
L 3578 4134 
L 1259 4134 
L 1259 2753 
L 3481 2753 
L 3481 2222 
L 1259 2222 
L 1259 531 
L 3634 531 
L 3634 0 
L 628 0 
L 628 4666 
z
" transform="scale(0.015625)"/>
      </defs>
      <use xlink:href="#DejaVuSans-42"/>
      <use xlink:href="#DejaVuSans-45" x="68.603516"/>
     </g>
    </g>
    <g id="line2d_34">
     <path d="M 66.17 53.254688 
L 76.17 53.254688 
L 86.17 53.254688 
" style="fill: none; stroke: #028800; stroke-width: 1.5; stroke-linecap: square"/>
    </g>
    <g id="text_15">
     <!-- BG -->
     <g transform="translate(94.17 56.754688)scale(0.1 -0.1)">
      <defs>
       <path id="DejaVuSans-47" d="M 3809 666 
L 3809 1919 
L 2778 1919 
L 2778 2438 
L 4434 2438 
L 4434 434 
Q 4069 175 3628 42 
Q 3188 -91 2688 -91 
Q 1594 -91 976 548 
Q 359 1188 359 2328 
Q 359 3472 976 4111 
Q 1594 4750 2688 4750 
Q 3144 4750 3555 4637 
Q 3966 4525 4313 4306 
L 4313 3634 
Q 3963 3931 3569 4081 
Q 3175 4231 2741 4231 
Q 1884 4231 1454 3753 
Q 1025 3275 1025 2328 
Q 1025 1384 1454 906 
Q 1884 428 2741 428 
Q 3075 428 3337 486 
Q 3600 544 3809 666 
z
" transform="scale(0.015625)"/>
      </defs>
      <use xlink:href="#DejaVuSans-42"/>
      <use xlink:href="#DejaVuSans-47" x="66.853516"/>
     </g>
    </g>
    <g id="line2d_35">
     <path d="M 66.17 67.932813 
L 76.17 67.932813 
L 86.17 67.932813 
" style="fill: none; stroke: #98ff00; stroke-width: 1.5; stroke-linecap: square"/>
    </g>
    <g id="text_16">
     <!-- CZ -->
     <g transform="translate(94.17 71.432813)scale(0.1 -0.1)">
      <defs>
       <path id="DejaVuSans-43" d="M 4122 4306 
L 4122 3641 
Q 3803 3938 3442 4084 
Q 3081 4231 2675 4231 
Q 1875 4231 1450 3742 
Q 1025 3253 1025 2328 
Q 1025 1406 1450 917 
Q 1875 428 2675 428 
Q 3081 428 3442 575 
Q 3803 722 4122 1019 
L 4122 359 
Q 3791 134 3420 21 
Q 3050 -91 2638 -91 
Q 1578 -91 968 557 
Q 359 1206 359 2328 
Q 359 3453 968 4101 
Q 1578 4750 2638 4750 
Q 3056 4750 3426 4639 
Q 3797 4528 4122 4306 
z
" transform="scale(0.015625)"/>
       <path id="DejaVuSans-5a" d="M 359 4666 
L 4025 4666 
L 4025 4184 
L 1075 531 
L 4097 531 
L 4097 0 
L 288 0 
L 288 481 
L 3238 4134 
L 359 4134 
L 359 4666 
z
" transform="scale(0.015625)"/>
      </defs>
      <use xlink:href="#DejaVuSans-43"/>
      <use xlink:href="#DejaVuSans-5a" x="69.824219"/>
     </g>
    </g>
    <g id="line2d_36">
     <path d="M 66.17 82.610938 
L 76.17 82.610938 
L 86.17 82.610938 
" style="fill: none; stroke: #ff7fd1; stroke-width: 1.5; stroke-linecap: square"/>
    </g>
    <g id="text_17">
     <!-- DE -->
     <g transform="translate(94.17 86.110938)scale(0.1 -0.1)">
      <defs>
       <path id="DejaVuSans-44" d="M 1259 4147 
L 1259 519 
L 2022 519 
Q 2988 519 3436 956 
Q 3884 1394 3884 2338 
Q 3884 3275 3436 3711 
Q 2988 4147 2022 4147 
L 1259 4147 
z
M 628 4666 
L 1925 4666 
Q 3281 4666 3915 4102 
Q 4550 3538 4550 2338 
Q 4550 1131 3912 565 
Q 3275 0 1925 0 
L 628 0 
L 628 4666 
z
" transform="scale(0.015625)"/>
      </defs>
      <use xlink:href="#DejaVuSans-44"/>
      <use xlink:href="#DejaVuSans-45" x="77.001953"/>
     </g>
    </g>
    <g id="line2d_37">
     <path d="M 66.17 97.289062 
L 76.17 97.289062 
L 86.17 97.289062 
" style="fill: none; stroke: #6c004f; stroke-width: 1.5; stroke-linecap: square"/>
    </g>
    <g id="text_18">
     <!-- DK -->
     <g transform="translate(94.17 100.789062)scale(0.1 -0.1)">
      <defs>
       <path id="DejaVuSans-4b" d="M 628 4666 
L 1259 4666 
L 1259 2694 
L 3353 4666 
L 4166 4666 
L 1850 2491 
L 4331 0 
L 3500 0 
L 1259 2247 
L 1259 0 
L 628 0 
L 628 4666 
z
" transform="scale(0.015625)"/>
      </defs>
      <use xlink:href="#DejaVuSans-44"/>
      <use xlink:href="#DejaVuSans-4b" x="77.001953"/>
     </g>
    </g>
    <g id="line2d_38">
     <path d="M 66.17 111.967188 
L 76.17 111.967188 
L 86.17 111.967188 
" style="fill: none; stroke: #583b00; stroke-width: 1.5; stroke-linecap: square"/>
    </g>
    <g id="text_19">
     <!-- EL -->
     <g transform="translate(94.17 115.467188)scale(0.1 -0.1)">
      <defs>
       <path id="DejaVuSans-4c" d="M 628 4666 
L 1259 4666 
L 1259 531 
L 3531 531 
L 3531 0 
L 628 0 
L 628 4666 
z
" transform="scale(0.015625)"/>
      </defs>
      <use xlink:href="#DejaVuSans-45"/>
      <use xlink:href="#DejaVuSans-4c" x="63.183594"/>
     </g>
    </g>
    <g id="line2d_39">
     <path d="M 66.17 126.645312 
L 76.17 126.645312 
L 86.17 126.645312 
" style="fill: none; stroke: #005759; stroke-width: 1.5; stroke-linecap: square"/>
    </g>
    <g id="text_20">
     <!-- ES -->
     <g transform="translate(94.17 130.145312)scale(0.1 -0.1)">
      <defs>
       <path id="DejaVuSans-53" d="M 3425 4513 
L 3425 3897 
Q 3066 4069 2747 4153 
Q 2428 4238 2131 4238 
Q 1616 4238 1336 4038 
Q 1056 3838 1056 3469 
Q 1056 3159 1242 3001 
Q 1428 2844 1947 2747 
L 2328 2669 
Q 3034 2534 3370 2195 
Q 3706 1856 3706 1288 
Q 3706 609 3251 259 
Q 2797 -91 1919 -91 
Q 1588 -91 1214 -16 
Q 841 59 441 206 
L 441 856 
Q 825 641 1194 531 
Q 1563 422 1919 422 
Q 2459 422 2753 634 
Q 3047 847 3047 1241 
Q 3047 1584 2836 1778 
Q 2625 1972 2144 2069 
L 1759 2144 
Q 1053 2284 737 2584 
Q 422 2884 422 3419 
Q 422 4038 858 4394 
Q 1294 4750 2059 4750 
Q 2388 4750 2728 4690 
Q 3069 4631 3425 4513 
z
" transform="scale(0.015625)"/>
      </defs>
      <use xlink:href="#DejaVuSans-45"/>
      <use xlink:href="#DejaVuSans-53" x="63.183594"/>
     </g>
    </g>
    <g id="line2d_40">
     <path d="M 66.17 141.323438 
L 76.17 141.323438 
L 86.17 141.323438 
" style="fill: none; stroke: #0000dd; stroke-width: 1.5; stroke-linecap: square"/>
    </g>
    <g id="text_21">
     <!-- FI -->
     <g transform="translate(94.17 144.823438)scale(0.1 -0.1)">
      <defs>
       <path id="DejaVuSans-46" d="M 628 4666 
L 3309 4666 
L 3309 4134 
L 1259 4134 
L 1259 2759 
L 3109 2759 
L 3109 2228 
L 1259 2228 
L 1259 0 
L 628 0 
L 628 4666 
z
" transform="scale(0.015625)"/>
       <path id="DejaVuSans-49" d="M 628 4666 
L 1259 4666 
L 1259 0 
L 628 0 
L 628 4666 
z
" transform="scale(0.015625)"/>
      </defs>
      <use xlink:href="#DejaVuSans-46"/>
      <use xlink:href="#DejaVuSans-49" x="57.519531"/>
     </g>
    </g>
    <g id="line2d_41">
     <path d="M 66.17 156.001562 
L 76.17 156.001562 
L 86.17 156.001562 
" style="fill: none; stroke: #bcb7ff; stroke-width: 1.5; stroke-linecap: square"/>
    </g>
    <g id="text_22">
     <!-- IE -->
     <g transform="translate(94.17 159.501562)scale(0.1 -0.1)">
      <use xlink:href="#DejaVuSans-49"/>
      <use xlink:href="#DejaVuSans-45" x="29.492188"/>
     </g>
    </g>
    <g id="line2d_42">
     <path d="M 66.17 170.679687 
L 76.17 170.679687 
L 86.17 170.679687 
" style="fill: none; stroke: #95b578; stroke-width: 1.5; stroke-linecap: square"/>
    </g>
    <g id="text_23">
     <!-- IT -->
     <g transform="translate(94.17 174.179687)scale(0.1 -0.1)">
      <use xlink:href="#DejaVuSans-49"/>
      <use xlink:href="#DejaVuSans-54" x="29.492188"/>
     </g>
    </g>
    <g id="line2d_43">
     <path d="M 128.604375 23.898438 
L 138.604375 23.898438 
L 148.604375 23.898438 
" style="fill: none; stroke: #c004b9; stroke-width: 1.5; stroke-linecap: square"/>
    </g>
    <g id="text_24">
     <!-- LT -->
     <g transform="translate(156.604375 27.398438)scale(0.1 -0.1)">
      <use xlink:href="#DejaVuSans-4c"/>
      <use xlink:href="#DejaVuSans-54" x="41.962891"/>
     </g>
    </g>
    <g id="line2d_44">
     <path d="M 128.604375 38.576563 
L 138.604375 38.576563 
L 148.604375 38.576563 
" style="fill: none; stroke: #790000; stroke-width: 1.5; stroke-linecap: square"/>
    </g>
    <g id="text_25">
     <!-- LV -->
     <g transform="translate(156.604375 42.076563)scale(0.1 -0.1)">
      <defs>
       <path id="DejaVuSans-56" d="M 1831 0 
L 50 4666 
L 709 4666 
L 2188 738 
L 3669 4666 
L 4325 4666 
L 2547 0 
L 1831 0 
z
" transform="scale(0.015625)"/>
      </defs>
      <use xlink:href="#DejaVuSans-4c"/>
      <use xlink:href="#DejaVuSans-56" x="44.712891"/>
     </g>
    </g>
    <g id="line2d_45">
     <path d="M 128.604375 53.254688 
L 138.604375 53.254688 
L 148.604375 53.254688 
" style="fill: none; stroke: #0774d8; stroke-width: 1.5; stroke-linecap: square"/>
    </g>
    <g id="text_26">
     <!-- MT -->
     <g transform="translate(156.604375 56.754688)scale(0.1 -0.1)">
      <defs>
       <path id="DejaVuSans-4d" d="M 628 4666 
L 1569 4666 
L 2759 1491 
L 3956 4666 
L 4897 4666 
L 4897 0 
L 4281 0 
L 4281 4097 
L 3078 897 
L 2444 897 
L 1241 4097 
L 1241 0 
L 628 0 
L 628 4666 
z
" transform="scale(0.015625)"/>
      </defs>
      <use xlink:href="#DejaVuSans-4d"/>
      <use xlink:href="#DejaVuSans-54" x="86.279297"/>
     </g>
    </g>
    <g id="line2d_46">
     <path d="M 128.604375 67.932813 
L 138.604375 67.932813 
L 148.604375 67.932813 
" style="fill: none; stroke: #fef590; stroke-width: 1.5; stroke-linecap: square"/>
    </g>
    <g id="text_27">
     <!-- NL -->
     <g transform="translate(156.604375 71.432813)scale(0.1 -0.1)">
      <use xlink:href="#DejaVuSans-4e"/>
      <use xlink:href="#DejaVuSans-4c" x="74.804688"/>
     </g>
    </g>
    <g id="line2d_47">
     <path d="M 128.604375 82.610938 
L 138.604375 82.610938 
L 148.604375 82.610938 
" style="fill: none; stroke: #004b00; stroke-width: 1.5; stroke-linecap: square"/>
    </g>
    <g id="text_28">
     <!-- PL -->
     <g transform="translate(156.604375 86.110938)scale(0.1 -0.1)">
      <defs>
       <path id="DejaVuSans-50" d="M 1259 4147 
L 1259 2394 
L 2053 2394 
Q 2494 2394 2734 2622 
Q 2975 2850 2975 3272 
Q 2975 3691 2734 3919 
Q 2494 4147 2053 4147 
L 1259 4147 
z
M 628 4666 
L 2053 4666 
Q 2838 4666 3239 4311 
Q 3641 3956 3641 3272 
Q 3641 2581 3239 2228 
Q 2838 1875 2053 1875 
L 1259 1875 
L 1259 0 
L 628 0 
L 628 4666 
z
" transform="scale(0.015625)"/>
      </defs>
      <use xlink:href="#DejaVuSans-50"/>
      <use xlink:href="#DejaVuSans-4c" x="60.302734"/>
     </g>
    </g>
    <g id="line2d_48">
     <path d="M 128.604375 97.289062 
L 138.604375 97.289062 
L 148.604375 97.289062 
" style="fill: none; stroke: #8f7a00; stroke-width: 1.5; stroke-linecap: square"/>
    </g>
    <g id="text_29">
     <!-- PT -->
     <g transform="translate(156.604375 100.789062)scale(0.1 -0.1)">
      <use xlink:href="#DejaVuSans-50"/>
      <use xlink:href="#DejaVuSans-54" x="60.302734"/>
     </g>
    </g>
    <g id="line2d_49">
     <path d="M 128.604375 111.967188 
L 138.604375 111.967188 
L 148.604375 111.967188 
" style="fill: none; stroke: #ff7266; stroke-width: 1.5; stroke-linecap: square"/>
    </g>
    <g id="text_30">
     <!-- RO -->
     <g transform="translate(156.604375 115.467188)scale(0.1 -0.1)">
      <defs>
       <path id="DejaVuSans-4f" d="M 2522 4238 
Q 1834 4238 1429 3725 
Q 1025 3213 1025 2328 
Q 1025 1447 1429 934 
Q 1834 422 2522 422 
Q 3209 422 3611 934 
Q 4013 1447 4013 2328 
Q 4013 3213 3611 3725 
Q 3209 4238 2522 4238 
z
M 2522 4750 
Q 3503 4750 4090 4092 
Q 4678 3434 4678 2328 
Q 4678 1225 4090 567 
Q 3503 -91 2522 -91 
Q 1538 -91 948 565 
Q 359 1222 359 2328 
Q 359 3434 948 4092 
Q 1538 4750 2522 4750 
z
" transform="scale(0.015625)"/>
      </defs>
      <use xlink:href="#DejaVuSans-52"/>
      <use xlink:href="#DejaVuSans-4f" x="69.482422"/>
     </g>
    </g>
    <g id="line2d_50">
     <path d="M 128.604375 126.645312 
L 138.604375 126.645312 
L 148.604375 126.645312 
" style="fill: none; stroke: #eeb9b9; stroke-width: 1.5; stroke-linecap: square"/>
    </g>
    <g id="text_31">
     <!-- SE -->
     <g transform="translate(156.604375 130.145312)scale(0.1 -0.1)">
      <use xlink:href="#DejaVuSans-53"/>
      <use xlink:href="#DejaVuSans-45" x="63.476562"/>
     </g>
    </g>
    <g id="line2d_51">
     <path d="M 128.604375 141.323438 
L 138.604375 141.323438 
L 148.604375 141.323438 
" style="fill: none; stroke: #5e7e66; stroke-width: 1.5; stroke-linecap: square"/>
    </g>
    <g id="text_32">
     <!-- SI -->
     <g transform="translate(156.604375 144.823438)scale(0.1 -0.1)">
      <use xlink:href="#DejaVuSans-53"/>
      <use xlink:href="#DejaVuSans-49" x="63.476562"/>
     </g>
    </g>
    <g id="line2d_52">
     <path d="M 128.604375 156.001562 
L 138.604375 156.001562 
L 148.604375 156.001562 
" style="fill: none; stroke: #9be4ff; stroke-width: 1.5; stroke-linecap: square"/>
    </g>
    <g id="text_33">
     <!-- SK -->
     <g transform="translate(156.604375 159.501562)scale(0.1 -0.1)">
      <use xlink:href="#DejaVuSans-53"/>
      <use xlink:href="#DejaVuSans-4b" x="63.476562"/>
     </g>
    </g>
   </g>
  </g>
 </g>
 <defs>
  <clipPath id="p8e088ff0b9">
   <rect x="57.17" y="10.8" width="290.71873" height="235.24"/>
  </clipPath>
 </defs>
</svg>
