<?xml version="1.0" encoding="utf-8" standalone="no"?>
<!DOCTYPE svg PUBLIC "-//W3C//DTD SVG 1.1//EN"
  "http://www.w3.org/Graphics/SVG/1.1/DTD/svg11.dtd">
<svg xmlns:xlink="http://www.w3.org/1999/xlink" width="360pt" height="288pt" viewBox="0 0 360 288" xmlns="http://www.w3.org/2000/svg" version="1.1">
 <metadata>
  <rdf:RDF xmlns:dc="http://purl.org/dc/elements/1.1/" xmlns:cc="http://creativecommons.org/ns#" xmlns:rdf="http://www.w3.org/1999/02/22-rdf-syntax-ns#">
   <cc:Work>
    <dc:type rdf:resource="http://purl.org/dc/dcmitype/StillImage"/>
    <dc:date>2024-01-29T16:48:10.480772</dc:date>
    <dc:format>image/svg+xml</dc:format>
    <dc:creator>
     <cc:Agent>
      <dc:title>Matplotlib v3.5.1, https://matplotlib.org/</dc:title>
     </cc:Agent>
    </dc:creator>
   </cc:Work>
  </rdf:RDF>
 </metadata>
 <defs>
  <style type="text/css">*{stroke-linejoin: round; stroke-linecap: butt}</style>
 </defs>
 <g id="figure_1">
  <g id="patch_1">
   <path d="M 0 288 
L 360 288 
L 360 0 
L 0 0 
L 0 288 
z
" style="fill: none"/>
  </g>
  <g id="axes_1">
   <g id="patch_2">
    <path d="M 57.17 246.04 
L 349.2 246.04 
L 349.2 14.76 
L 57.17 14.76 
L 57.17 246.04 
z
" style="fill: none"/>
   </g>
   <g id="matplotlib.axis_1">
    <g id="xtick_1">
     <g id="line2d_1">
      <defs>
       <path id="m10c37ace37" d="M 0 0 
L 0 3.5 
" style="stroke: #000000; stroke-width: 0.8"/>
      </defs>
      <g>
       <use xlink:href="#m10c37ace37" x="89.480757" y="246.04" style="stroke: #000000; stroke-width: 0.8"/>
      </g>
     </g>
     <g id="text_1">
      <!-- 20 -->
      <g transform="translate(83.118257 260.638438)scale(0.1 -0.1)">
       <defs>
        <path id="DejaVuSans-32" d="M 1228 531 
L 3431 531 
L 3431 0 
L 469 0 
L 469 531 
Q 828 903 1448 1529 
Q 2069 2156 2228 2338 
Q 2531 2678 2651 2914 
Q 2772 3150 2772 3378 
Q 2772 3750 2511 3984 
Q 2250 4219 1831 4219 
Q 1534 4219 1204 4116 
Q 875 4013 500 3803 
L 500 4441 
Q 881 4594 1212 4672 
Q 1544 4750 1819 4750 
Q 2544 4750 2975 4387 
Q 3406 4025 3406 3419 
Q 3406 3131 3298 2873 
Q 3191 2616 2906 2266 
Q 2828 2175 2409 1742 
Q 1991 1309 1228 531 
z
" transform="scale(0.015625)"/>
        <path id="DejaVuSans-30" d="M 2034 4250 
Q 1547 4250 1301 3770 
Q 1056 3291 1056 2328 
Q 1056 1369 1301 889 
Q 1547 409 2034 409 
Q 2525 409 2770 889 
Q 3016 1369 3016 2328 
Q 3016 3291 2770 3770 
Q 2525 4250 2034 4250 
z
M 2034 4750 
Q 2819 4750 3233 4129 
Q 3647 3509 3647 2328 
Q 3647 1150 3233 529 
Q 2819 -91 2034 -91 
Q 1250 -91 836 529 
Q 422 1150 422 2328 
Q 422 3509 836 4129 
Q 1250 4750 2034 4750 
z
" transform="scale(0.015625)"/>
       </defs>
       <use xlink:href="#DejaVuSans-32"/>
       <use xlink:href="#DejaVuSans-30" x="63.623047"/>
      </g>
     </g>
    </g>
    <g id="xtick_2">
     <g id="line2d_2">
      <g>
       <use xlink:href="#m10c37ace37" x="123.360967" y="246.04" style="stroke: #000000; stroke-width: 0.8"/>
      </g>
     </g>
     <g id="text_2">
      <!-- 40 -->
      <g transform="translate(116.998467 260.638438)scale(0.1 -0.1)">
       <defs>
        <path id="DejaVuSans-34" d="M 2419 4116 
L 825 1625 
L 2419 1625 
L 2419 4116 
z
M 2253 4666 
L 3047 4666 
L 3047 1625 
L 3713 1625 
L 3713 1100 
L 3047 1100 
L 3047 0 
L 2419 0 
L 2419 1100 
L 313 1100 
L 313 1709 
L 2253 4666 
z
" transform="scale(0.015625)"/>
       </defs>
       <use xlink:href="#DejaVuSans-34"/>
       <use xlink:href="#DejaVuSans-30" x="63.623047"/>
      </g>
     </g>
    </g>
    <g id="xtick_3">
     <g id="line2d_3">
      <g>
       <use xlink:href="#m10c37ace37" x="157.241177" y="246.04" style="stroke: #000000; stroke-width: 0.8"/>
      </g>
     </g>
     <g id="text_3">
      <!-- 60 -->
      <g transform="translate(150.878677 260.638438)scale(0.1 -0.1)">
       <defs>
        <path id="DejaVuSans-36" d="M 2113 2584 
Q 1688 2584 1439 2293 
Q 1191 2003 1191 1497 
Q 1191 994 1439 701 
Q 1688 409 2113 409 
Q 2538 409 2786 701 
Q 3034 994 3034 1497 
Q 3034 2003 2786 2293 
Q 2538 2584 2113 2584 
z
M 3366 4563 
L 3366 3988 
Q 3128 4100 2886 4159 
Q 2644 4219 2406 4219 
Q 1781 4219 1451 3797 
Q 1122 3375 1075 2522 
Q 1259 2794 1537 2939 
Q 1816 3084 2150 3084 
Q 2853 3084 3261 2657 
Q 3669 2231 3669 1497 
Q 3669 778 3244 343 
Q 2819 -91 2113 -91 
Q 1303 -91 875 529 
Q 447 1150 447 2328 
Q 447 3434 972 4092 
Q 1497 4750 2381 4750 
Q 2619 4750 2861 4703 
Q 3103 4656 3366 4563 
z
" transform="scale(0.015625)"/>
       </defs>
       <use xlink:href="#DejaVuSans-36"/>
       <use xlink:href="#DejaVuSans-30" x="63.623047"/>
      </g>
     </g>
    </g>
    <g id="xtick_4">
     <g id="line2d_4">
      <g>
       <use xlink:href="#m10c37ace37" x="191.121387" y="246.04" style="stroke: #000000; stroke-width: 0.8"/>
      </g>
     </g>
     <g id="text_4">
      <!-- 80 -->
      <g transform="translate(184.758887 260.638438)scale(0.1 -0.1)">
       <defs>
        <path id="DejaVuSans-38" d="M 2034 2216 
Q 1584 2216 1326 1975 
Q 1069 1734 1069 1313 
Q 1069 891 1326 650 
Q 1584 409 2034 409 
Q 2484 409 2743 651 
Q 3003 894 3003 1313 
Q 3003 1734 2745 1975 
Q 2488 2216 2034 2216 
z
M 1403 2484 
Q 997 2584 770 2862 
Q 544 3141 544 3541 
Q 544 4100 942 4425 
Q 1341 4750 2034 4750 
Q 2731 4750 3128 4425 
Q 3525 4100 3525 3541 
Q 3525 3141 3298 2862 
Q 3072 2584 2669 2484 
Q 3125 2378 3379 2068 
Q 3634 1759 3634 1313 
Q 3634 634 3220 271 
Q 2806 -91 2034 -91 
Q 1263 -91 848 271 
Q 434 634 434 1313 
Q 434 1759 690 2068 
Q 947 2378 1403 2484 
z
M 1172 3481 
Q 1172 3119 1398 2916 
Q 1625 2713 2034 2713 
Q 2441 2713 2670 2916 
Q 2900 3119 2900 3481 
Q 2900 3844 2670 4047 
Q 2441 4250 2034 4250 
Q 1625 4250 1398 4047 
Q 1172 3844 1172 3481 
z
" transform="scale(0.015625)"/>
       </defs>
       <use xlink:href="#DejaVuSans-38"/>
       <use xlink:href="#DejaVuSans-30" x="63.623047"/>
      </g>
     </g>
    </g>
    <g id="xtick_5">
     <g id="line2d_5">
      <g>
       <use xlink:href="#m10c37ace37" x="225.001597" y="246.04" style="stroke: #000000; stroke-width: 0.8"/>
      </g>
     </g>
     <g id="text_5">
      <!-- 100 -->
      <g transform="translate(215.457847 260.638438)scale(0.1 -0.1)">
       <defs>
        <path id="DejaVuSans-31" d="M 794 531 
L 1825 531 
L 1825 4091 
L 703 3866 
L 703 4441 
L 1819 4666 
L 2450 4666 
L 2450 531 
L 3481 531 
L 3481 0 
L 794 0 
L 794 531 
z
" transform="scale(0.015625)"/>
       </defs>
       <use xlink:href="#DejaVuSans-31"/>
       <use xlink:href="#DejaVuSans-30" x="63.623047"/>
       <use xlink:href="#DejaVuSans-30" x="127.246094"/>
      </g>
     </g>
    </g>
    <g id="xtick_6">
     <g id="line2d_6">
      <g>
       <use xlink:href="#m10c37ace37" x="258.881807" y="246.04" style="stroke: #000000; stroke-width: 0.8"/>
      </g>
     </g>
     <g id="text_6">
      <!-- 120 -->
      <g transform="translate(249.338057 260.638438)scale(0.1 -0.1)">
       <use xlink:href="#DejaVuSans-31"/>
       <use xlink:href="#DejaVuSans-32" x="63.623047"/>
       <use xlink:href="#DejaVuSans-30" x="127.246094"/>
      </g>
     </g>
    </g>
    <g id="xtick_7">
     <g id="line2d_7">
      <g>
       <use xlink:href="#m10c37ace37" x="292.762017" y="246.04" style="stroke: #000000; stroke-width: 0.8"/>
      </g>
     </g>
     <g id="text_7">
      <!-- 140 -->
      <g transform="translate(283.218267 260.638438)scale(0.1 -0.1)">
       <use xlink:href="#DejaVuSans-31"/>
       <use xlink:href="#DejaVuSans-34" x="63.623047"/>
       <use xlink:href="#DejaVuSans-30" x="127.246094"/>
      </g>
     </g>
    </g>
    <g id="xtick_8">
     <g id="line2d_8">
      <g>
       <use xlink:href="#m10c37ace37" x="326.642227" y="246.04" style="stroke: #000000; stroke-width: 0.8"/>
      </g>
     </g>
     <g id="text_8">
      <!-- 160 -->
      <g transform="translate(317.098477 260.638438)scale(0.1 -0.1)">
       <use xlink:href="#DejaVuSans-31"/>
       <use xlink:href="#DejaVuSans-36" x="63.623047"/>
       <use xlink:href="#DejaVuSans-30" x="127.246094"/>
      </g>
     </g>
    </g>
    <g id="text_9">
     <!-- Urban Density -->
     <g transform="translate(167.465469 274.316562)scale(0.1 -0.1)">
      <defs>
       <path id="DejaVuSans-55" d="M 556 4666 
L 1191 4666 
L 1191 1831 
Q 1191 1081 1462 751 
Q 1734 422 2344 422 
Q 2950 422 3222 751 
Q 3494 1081 3494 1831 
L 3494 4666 
L 4128 4666 
L 4128 1753 
Q 4128 841 3676 375 
Q 3225 -91 2344 -91 
Q 1459 -91 1007 375 
Q 556 841 556 1753 
L 556 4666 
z
" transform="scale(0.015625)"/>
       <path id="DejaVuSans-72" d="M 2631 2963 
Q 2534 3019 2420 3045 
Q 2306 3072 2169 3072 
Q 1681 3072 1420 2755 
Q 1159 2438 1159 1844 
L 1159 0 
L 581 0 
L 581 3500 
L 1159 3500 
L 1159 2956 
Q 1341 3275 1631 3429 
Q 1922 3584 2338 3584 
Q 2397 3584 2469 3576 
Q 2541 3569 2628 3553 
L 2631 2963 
z
" transform="scale(0.015625)"/>
       <path id="DejaVuSans-62" d="M 3116 1747 
Q 3116 2381 2855 2742 
Q 2594 3103 2138 3103 
Q 1681 3103 1420 2742 
Q 1159 2381 1159 1747 
Q 1159 1113 1420 752 
Q 1681 391 2138 391 
Q 2594 391 2855 752 
Q 3116 1113 3116 1747 
z
M 1159 2969 
Q 1341 3281 1617 3432 
Q 1894 3584 2278 3584 
Q 2916 3584 3314 3078 
Q 3713 2572 3713 1747 
Q 3713 922 3314 415 
Q 2916 -91 2278 -91 
Q 1894 -91 1617 61 
Q 1341 213 1159 525 
L 1159 0 
L 581 0 
L 581 4863 
L 1159 4863 
L 1159 2969 
z
" transform="scale(0.015625)"/>
       <path id="DejaVuSans-61" d="M 2194 1759 
Q 1497 1759 1228 1600 
Q 959 1441 959 1056 
Q 959 750 1161 570 
Q 1363 391 1709 391 
Q 2188 391 2477 730 
Q 2766 1069 2766 1631 
L 2766 1759 
L 2194 1759 
z
M 3341 1997 
L 3341 0 
L 2766 0 
L 2766 531 
Q 2569 213 2275 61 
Q 1981 -91 1556 -91 
Q 1019 -91 701 211 
Q 384 513 384 1019 
Q 384 1609 779 1909 
Q 1175 2209 1959 2209 
L 2766 2209 
L 2766 2266 
Q 2766 2663 2505 2880 
Q 2244 3097 1772 3097 
Q 1472 3097 1187 3025 
Q 903 2953 641 2809 
L 641 3341 
Q 956 3463 1253 3523 
Q 1550 3584 1831 3584 
Q 2591 3584 2966 3190 
Q 3341 2797 3341 1997 
z
" transform="scale(0.015625)"/>
       <path id="DejaVuSans-6e" d="M 3513 2113 
L 3513 0 
L 2938 0 
L 2938 2094 
Q 2938 2591 2744 2837 
Q 2550 3084 2163 3084 
Q 1697 3084 1428 2787 
Q 1159 2491 1159 1978 
L 1159 0 
L 581 0 
L 581 3500 
L 1159 3500 
L 1159 2956 
Q 1366 3272 1645 3428 
Q 1925 3584 2291 3584 
Q 2894 3584 3203 3211 
Q 3513 2838 3513 2113 
z
" transform="scale(0.015625)"/>
       <path id="DejaVuSans-20" transform="scale(0.015625)"/>
       <path id="DejaVuSans-44" d="M 1259 4147 
L 1259 519 
L 2022 519 
Q 2988 519 3436 956 
Q 3884 1394 3884 2338 
Q 3884 3275 3436 3711 
Q 2988 4147 2022 4147 
L 1259 4147 
z
M 628 4666 
L 1925 4666 
Q 3281 4666 3915 4102 
Q 4550 3538 4550 2338 
Q 4550 1131 3912 565 
Q 3275 0 1925 0 
L 628 0 
L 628 4666 
z
" transform="scale(0.015625)"/>
       <path id="DejaVuSans-65" d="M 3597 1894 
L 3597 1613 
L 953 1613 
Q 991 1019 1311 708 
Q 1631 397 2203 397 
Q 2534 397 2845 478 
Q 3156 559 3463 722 
L 3463 178 
Q 3153 47 2828 -22 
Q 2503 -91 2169 -91 
Q 1331 -91 842 396 
Q 353 884 353 1716 
Q 353 2575 817 3079 
Q 1281 3584 2069 3584 
Q 2775 3584 3186 3129 
Q 3597 2675 3597 1894 
z
M 3022 2063 
Q 3016 2534 2758 2815 
Q 2500 3097 2075 3097 
Q 1594 3097 1305 2825 
Q 1016 2553 972 2059 
L 3022 2063 
z
" transform="scale(0.015625)"/>
       <path id="DejaVuSans-73" d="M 2834 3397 
L 2834 2853 
Q 2591 2978 2328 3040 
Q 2066 3103 1784 3103 
Q 1356 3103 1142 2972 
Q 928 2841 928 2578 
Q 928 2378 1081 2264 
Q 1234 2150 1697 2047 
L 1894 2003 
Q 2506 1872 2764 1633 
Q 3022 1394 3022 966 
Q 3022 478 2636 193 
Q 2250 -91 1575 -91 
Q 1294 -91 989 -36 
Q 684 19 347 128 
L 347 722 
Q 666 556 975 473 
Q 1284 391 1588 391 
Q 1994 391 2212 530 
Q 2431 669 2431 922 
Q 2431 1156 2273 1281 
Q 2116 1406 1581 1522 
L 1381 1569 
Q 847 1681 609 1914 
Q 372 2147 372 2553 
Q 372 3047 722 3315 
Q 1072 3584 1716 3584 
Q 2034 3584 2315 3537 
Q 2597 3491 2834 3397 
z
" transform="scale(0.015625)"/>
       <path id="DejaVuSans-69" d="M 603 3500 
L 1178 3500 
L 1178 0 
L 603 0 
L 603 3500 
z
M 603 4863 
L 1178 4863 
L 1178 4134 
L 603 4134 
L 603 4863 
z
" transform="scale(0.015625)"/>
       <path id="DejaVuSans-74" d="M 1172 4494 
L 1172 3500 
L 2356 3500 
L 2356 3053 
L 1172 3053 
L 1172 1153 
Q 1172 725 1289 603 
Q 1406 481 1766 481 
L 2356 481 
L 2356 0 
L 1766 0 
Q 1100 0 847 248 
Q 594 497 594 1153 
L 594 3053 
L 172 3053 
L 172 3500 
L 594 3500 
L 594 4494 
L 1172 4494 
z
" transform="scale(0.015625)"/>
       <path id="DejaVuSans-79" d="M 2059 -325 
Q 1816 -950 1584 -1140 
Q 1353 -1331 966 -1331 
L 506 -1331 
L 506 -850 
L 844 -850 
Q 1081 -850 1212 -737 
Q 1344 -625 1503 -206 
L 1606 56 
L 191 3500 
L 800 3500 
L 1894 763 
L 2988 3500 
L 3597 3500 
L 2059 -325 
z
" transform="scale(0.015625)"/>
      </defs>
      <use xlink:href="#DejaVuSans-55"/>
      <use xlink:href="#DejaVuSans-72" x="73.193359"/>
      <use xlink:href="#DejaVuSans-62" x="114.306641"/>
      <use xlink:href="#DejaVuSans-61" x="177.783203"/>
      <use xlink:href="#DejaVuSans-6e" x="239.0625"/>
      <use xlink:href="#DejaVuSans-20" x="302.441406"/>
      <use xlink:href="#DejaVuSans-44" x="334.228516"/>
      <use xlink:href="#DejaVuSans-65" x="411.230469"/>
      <use xlink:href="#DejaVuSans-6e" x="472.753906"/>
      <use xlink:href="#DejaVuSans-73" x="536.132812"/>
      <use xlink:href="#DejaVuSans-69" x="588.232422"/>
      <use xlink:href="#DejaVuSans-74" x="616.015625"/>
      <use xlink:href="#DejaVuSans-79" x="655.224609"/>
     </g>
    </g>
   </g>
   <g id="matplotlib.axis_2">
    <g id="ytick_1">
     <g id="line2d_9">
      <defs>
       <path id="m79a7d5e7ac" d="M 0 0 
L -3.5 0 
" style="stroke: #000000; stroke-width: 0.8"/>
      </defs>
      <g>
       <use xlink:href="#m79a7d5e7ac" x="57.17" y="246.04" style="stroke: #000000; stroke-width: 0.8"/>
      </g>
     </g>
     <g id="text_10">
      <!-- 0 -->
      <g transform="translate(43.8075 249.839219)scale(0.1 -0.1)">
       <use xlink:href="#DejaVuSans-30"/>
      </g>
     </g>
    </g>
    <g id="ytick_2">
     <g id="line2d_10">
      <g>
       <use xlink:href="#m79a7d5e7ac" x="57.17" y="199.784" style="stroke: #000000; stroke-width: 0.8"/>
      </g>
     </g>
     <g id="text_11">
      <!-- 500 -->
      <g transform="translate(31.0825 203.583219)scale(0.1 -0.1)">
       <defs>
        <path id="DejaVuSans-35" d="M 691 4666 
L 3169 4666 
L 3169 4134 
L 1269 4134 
L 1269 2991 
Q 1406 3038 1543 3061 
Q 1681 3084 1819 3084 
Q 2600 3084 3056 2656 
Q 3513 2228 3513 1497 
Q 3513 744 3044 326 
Q 2575 -91 1722 -91 
Q 1428 -91 1123 -41 
Q 819 9 494 109 
L 494 744 
Q 775 591 1075 516 
Q 1375 441 1709 441 
Q 2250 441 2565 725 
Q 2881 1009 2881 1497 
Q 2881 1984 2565 2268 
Q 2250 2553 1709 2553 
Q 1456 2553 1204 2497 
Q 953 2441 691 2322 
L 691 4666 
z
" transform="scale(0.015625)"/>
       </defs>
       <use xlink:href="#DejaVuSans-35"/>
       <use xlink:href="#DejaVuSans-30" x="63.623047"/>
       <use xlink:href="#DejaVuSans-30" x="127.246094"/>
      </g>
     </g>
    </g>
    <g id="ytick_3">
     <g id="line2d_11">
      <g>
       <use xlink:href="#m79a7d5e7ac" x="57.17" y="153.528" style="stroke: #000000; stroke-width: 0.8"/>
      </g>
     </g>
     <g id="text_12">
      <!-- 1000 -->
      <g transform="translate(24.72 157.327219)scale(0.1 -0.1)">
       <use xlink:href="#DejaVuSans-31"/>
       <use xlink:href="#DejaVuSans-30" x="63.623047"/>
       <use xlink:href="#DejaVuSans-30" x="127.246094"/>
       <use xlink:href="#DejaVuSans-30" x="190.869141"/>
      </g>
     </g>
    </g>
    <g id="ytick_4">
     <g id="line2d_12">
      <g>
       <use xlink:href="#m79a7d5e7ac" x="57.17" y="107.272" style="stroke: #000000; stroke-width: 0.8"/>
      </g>
     </g>
     <g id="text_13">
      <!-- 1500 -->
      <g transform="translate(24.72 111.071219)scale(0.1 -0.1)">
       <use xlink:href="#DejaVuSans-31"/>
       <use xlink:href="#DejaVuSans-35" x="63.623047"/>
       <use xlink:href="#DejaVuSans-30" x="127.246094"/>
       <use xlink:href="#DejaVuSans-30" x="190.869141"/>
      </g>
     </g>
    </g>
    <g id="ytick_5">
     <g id="line2d_13">
      <g>
       <use xlink:href="#m79a7d5e7ac" x="57.17" y="61.016" style="stroke: #000000; stroke-width: 0.8"/>
      </g>
     </g>
     <g id="text_14">
      <!-- 2000 -->
      <g transform="translate(24.72 64.815219)scale(0.1 -0.1)">
       <use xlink:href="#DejaVuSans-32"/>
       <use xlink:href="#DejaVuSans-30" x="63.623047"/>
       <use xlink:href="#DejaVuSans-30" x="127.246094"/>
       <use xlink:href="#DejaVuSans-30" x="190.869141"/>
      </g>
     </g>
    </g>
    <g id="ytick_6">
     <g id="line2d_14">
      <g>
       <use xlink:href="#m79a7d5e7ac" x="57.17" y="14.76" style="stroke: #000000; stroke-width: 0.8"/>
      </g>
     </g>
     <g id="text_15">
      <!-- 2500 -->
      <g transform="translate(24.72 18.559219)scale(0.1 -0.1)">
       <use xlink:href="#DejaVuSans-32"/>
       <use xlink:href="#DejaVuSans-35" x="63.623047"/>
       <use xlink:href="#DejaVuSans-30" x="127.246094"/>
       <use xlink:href="#DejaVuSans-30" x="190.869141"/>
      </g>
     </g>
    </g>
    <g id="text_16">
     <!-- Number of Robberies -->
     <g transform="translate(18.640312 183.342969)rotate(-90)scale(0.1 -0.1)">
      <defs>
       <path id="DejaVuSans-4e" d="M 628 4666 
L 1478 4666 
L 3547 763 
L 3547 4666 
L 4159 4666 
L 4159 0 
L 3309 0 
L 1241 3903 
L 1241 0 
L 628 0 
L 628 4666 
z
" transform="scale(0.015625)"/>
       <path id="DejaVuSans-75" d="M 544 1381 
L 544 3500 
L 1119 3500 
L 1119 1403 
Q 1119 906 1312 657 
Q 1506 409 1894 409 
Q 2359 409 2629 706 
Q 2900 1003 2900 1516 
L 2900 3500 
L 3475 3500 
L 3475 0 
L 2900 0 
L 2900 538 
Q 2691 219 2414 64 
Q 2138 -91 1772 -91 
Q 1169 -91 856 284 
Q 544 659 544 1381 
z
M 1991 3584 
L 1991 3584 
z
" transform="scale(0.015625)"/>
       <path id="DejaVuSans-6d" d="M 3328 2828 
Q 3544 3216 3844 3400 
Q 4144 3584 4550 3584 
Q 5097 3584 5394 3201 
Q 5691 2819 5691 2113 
L 5691 0 
L 5113 0 
L 5113 2094 
Q 5113 2597 4934 2840 
Q 4756 3084 4391 3084 
Q 3944 3084 3684 2787 
Q 3425 2491 3425 1978 
L 3425 0 
L 2847 0 
L 2847 2094 
Q 2847 2600 2669 2842 
Q 2491 3084 2119 3084 
Q 1678 3084 1418 2786 
Q 1159 2488 1159 1978 
L 1159 0 
L 581 0 
L 581 3500 
L 1159 3500 
L 1159 2956 
Q 1356 3278 1631 3431 
Q 1906 3584 2284 3584 
Q 2666 3584 2933 3390 
Q 3200 3197 3328 2828 
z
" transform="scale(0.015625)"/>
       <path id="DejaVuSans-6f" d="M 1959 3097 
Q 1497 3097 1228 2736 
Q 959 2375 959 1747 
Q 959 1119 1226 758 
Q 1494 397 1959 397 
Q 2419 397 2687 759 
Q 2956 1122 2956 1747 
Q 2956 2369 2687 2733 
Q 2419 3097 1959 3097 
z
M 1959 3584 
Q 2709 3584 3137 3096 
Q 3566 2609 3566 1747 
Q 3566 888 3137 398 
Q 2709 -91 1959 -91 
Q 1206 -91 779 398 
Q 353 888 353 1747 
Q 353 2609 779 3096 
Q 1206 3584 1959 3584 
z
" transform="scale(0.015625)"/>
       <path id="DejaVuSans-66" d="M 2375 4863 
L 2375 4384 
L 1825 4384 
Q 1516 4384 1395 4259 
Q 1275 4134 1275 3809 
L 1275 3500 
L 2222 3500 
L 2222 3053 
L 1275 3053 
L 1275 0 
L 697 0 
L 697 3053 
L 147 3053 
L 147 3500 
L 697 3500 
L 697 3744 
Q 697 4328 969 4595 
Q 1241 4863 1831 4863 
L 2375 4863 
z
" transform="scale(0.015625)"/>
       <path id="DejaVuSans-52" d="M 2841 2188 
Q 3044 2119 3236 1894 
Q 3428 1669 3622 1275 
L 4263 0 
L 3584 0 
L 2988 1197 
Q 2756 1666 2539 1819 
Q 2322 1972 1947 1972 
L 1259 1972 
L 1259 0 
L 628 0 
L 628 4666 
L 2053 4666 
Q 2853 4666 3247 4331 
Q 3641 3997 3641 3322 
Q 3641 2881 3436 2590 
Q 3231 2300 2841 2188 
z
M 1259 4147 
L 1259 2491 
L 2053 2491 
Q 2509 2491 2742 2702 
Q 2975 2913 2975 3322 
Q 2975 3731 2742 3939 
Q 2509 4147 2053 4147 
L 1259 4147 
z
" transform="scale(0.015625)"/>
      </defs>
      <use xlink:href="#DejaVuSans-4e"/>
      <use xlink:href="#DejaVuSans-75" x="74.804688"/>
      <use xlink:href="#DejaVuSans-6d" x="138.183594"/>
      <use xlink:href="#DejaVuSans-62" x="235.595703"/>
      <use xlink:href="#DejaVuSans-65" x="299.072266"/>
      <use xlink:href="#DejaVuSans-72" x="360.595703"/>
      <use xlink:href="#DejaVuSans-20" x="401.708984"/>
      <use xlink:href="#DejaVuSans-6f" x="433.496094"/>
      <use xlink:href="#DejaVuSans-66" x="494.677734"/>
      <use xlink:href="#DejaVuSans-20" x="529.882812"/>
      <use xlink:href="#DejaVuSans-52" x="561.669922"/>
      <use xlink:href="#DejaVuSans-6f" x="626.652344"/>
      <use xlink:href="#DejaVuSans-62" x="687.833984"/>
      <use xlink:href="#DejaVuSans-62" x="751.310547"/>
      <use xlink:href="#DejaVuSans-65" x="814.787109"/>
      <use xlink:href="#DejaVuSans-72" x="876.310547"/>
      <use xlink:href="#DejaVuSans-69" x="917.423828"/>
      <use xlink:href="#DejaVuSans-65" x="945.207031"/>
      <use xlink:href="#DejaVuSans-73" x="1006.730469"/>
     </g>
    </g>
   </g>
   <g id="line2d_15">
    <path d="M 57.17 258.330083 
L 63.129796 253.651616 
L 69.089592 248.973149 
L 75.049388 244.294682 
L 81.009184 239.616215 
L 86.96898 234.937748 
L 92.928776 230.259281 
L 98.888571 225.580814 
L 104.848367 220.902347 
L 110.808163 216.22388 
L 116.767959 211.545413 
L 122.727755 206.866946 
L 128.687551 202.188479 
L 134.647347 197.510012 
L 140.607143 192.831545 
L 146.566939 188.153078 
L 152.526735 183.474611 
L 158.486531 178.796144 
L 164.446327 174.117677 
L 170.406122 169.43921 
L 176.365918 164.760743 
L 182.325714 160.082276 
L 188.28551 155.403809 
L 194.245306 150.725341 
L 200.205102 146.046874 
L 206.164898 141.368407 
L 212.124694 136.68994 
L 218.08449 132.011473 
L 224.044286 127.333006 
L 230.004082 122.654539 
L 235.963878 117.976072 
L 241.923673 113.297605 
L 247.883469 108.619138 
L 253.843265 103.940671 
L 259.803061 99.262204 
L 265.762857 94.583737 
L 271.722653 89.90527 
L 277.682449 85.226803 
L 283.642245 80.548336 
L 289.602041 75.869869 
L 295.561837 71.191402 
L 301.521633 66.512935 
L 307.481429 61.834468 
L 313.441224 57.156001 
L 319.40102 52.477534 
L 325.360816 47.799067 
L 331.320612 43.1206 
L 337.280408 38.442133 
L 343.240204 33.763665 
L 349.2 29.085198 
" clip-path="url(#p560569684a)" style="fill: none; stroke: #d70000; stroke-width: 1.5; stroke-linecap: square"/>
   </g>
   <g id="line2d_16">
    <path d="M 57.17 210.922203 
L 63.129796 206.877363 
L 69.089592 202.832523 
L 75.049388 198.787682 
L 81.009184 194.742842 
L 86.96898 190.698002 
L 92.928776 186.653162 
L 98.888571 182.608322 
L 104.848367 178.563482 
L 110.808163 174.518641 
L 116.767959 170.473801 
L 122.727755 166.428961 
L 128.687551 162.384121 
L 134.647347 158.339281 
L 140.607143 154.294441 
L 146.566939 150.2496 
L 152.526735 146.20476 
L 158.486531 142.15992 
L 164.446327 138.11508 
L 170.406122 134.07024 
L 176.365918 130.0254 
L 182.325714 125.980559 
L 188.28551 121.935719 
L 194.245306 117.890879 
L 200.205102 113.846039 
L 206.164898 109.801199 
L 212.124694 105.756358 
L 218.08449 101.711518 
L 224.044286 97.666678 
L 230.004082 93.621838 
L 235.963878 89.576998 
L 241.923673 85.532158 
L 247.883469 81.487317 
L 253.843265 77.442477 
L 259.803061 73.397637 
L 265.762857 69.352797 
L 271.722653 65.307957 
L 277.682449 61.263117 
L 283.642245 57.218276 
L 289.602041 53.173436 
L 295.561837 49.128596 
L 301.521633 45.083756 
L 307.481429 41.038916 
L 313.441224 36.994076 
L 319.40102 32.949235 
L 325.360816 28.904395 
L 331.320612 24.859555 
L 337.280408 20.814715 
L 343.240204 16.769875 
L 349.2 12.725035 
" clip-path="url(#p560569684a)" style="fill: none; stroke: #8c3cff; stroke-width: 1.5; stroke-linecap: square"/>
   </g>
   <g id="line2d_17">
    <path d="M 57.17 219.985354 
L 63.129796 216.788185 
L 69.089592 213.591016 
L 75.049388 210.393848 
L 81.009184 207.196679 
L 86.96898 203.99951 
L 92.928776 200.802341 
L 98.888571 197.605172 
L 104.848367 194.408003 
L 110.808163 191.210834 
L 116.767959 188.013665 
L 122.727755 184.816496 
L 128.687551 181.619327 
L 134.647347 178.422158 
L 140.607143 175.224989 
L 146.566939 172.02782 
L 152.526735 168.830651 
L 158.486531 165.633482 
L 164.446327 162.436313 
L 170.406122 159.239144 
L 176.365918 156.041975 
L 182.325714 152.844806 
L 188.28551 149.647637 
L 194.245306 146.450468 
L 200.205102 143.253299 
L 206.164898 140.05613 
L 212.124694 136.858961 
L 218.08449 133.661792 
L 224.044286 130.464623 
L 230.004082 127.267454 
L 235.963878 124.070285 
L 241.923673 120.873116 
L 247.883469 117.675947 
L 253.843265 114.478778 
L 259.803061 111.281609 
L 265.762857 108.08444 
L 271.722653 104.887271 
L 277.682449 101.690102 
L 283.642245 98.492933 
L 289.602041 95.295764 
L 295.561837 92.098595 
L 301.521633 88.901426 
L 307.481429 85.704257 
L 313.441224 82.507088 
L 319.40102 79.309919 
L 325.360816 76.11275 
L 331.320612 72.915581 
L 337.280408 69.718412 
L 343.240204 66.521243 
L 349.2 63.324074 
" clip-path="url(#p560569684a)" style="fill: none; stroke: #028800; stroke-width: 1.5; stroke-linecap: square"/>
   </g>
   <g id="line2d_18">
    <path d="M 57.17 234.546633 
L 63.129796 233.34827 
L 69.089592 232.149906 
L 75.049388 230.951542 
L 81.009184 229.753178 
L 86.96898 228.554815 
L 92.928776 227.356451 
L 98.888571 226.158087 
L 104.848367 224.959724 
L 110.808163 223.76136 
L 116.767959 222.562996 
L 122.727755 221.364632 
L 128.687551 220.166269 
L 134.647347 218.967905 
L 140.607143 217.769541 
L 146.566939 216.571177 
L 152.526735 215.372814 
L 158.486531 214.17445 
L 164.446327 212.976086 
L 170.406122 211.777723 
L 176.365918 210.579359 
L 182.325714 209.380995 
L 188.28551 208.182631 
L 194.245306 206.984268 
L 200.205102 205.785904 
L 206.164898 204.58754 
L 212.124694 203.389176 
L 218.08449 202.190813 
L 224.044286 200.992449 
L 230.004082 199.794085 
L 235.963878 198.595722 
L 241.923673 197.397358 
L 247.883469 196.198994 
L 253.843265 195.00063 
L 259.803061 193.802267 
L 265.762857 192.603903 
L 271.722653 191.405539 
L 277.682449 190.207176 
L 283.642245 189.008812 
L 289.602041 187.810448 
L 295.561837 186.612084 
L 301.521633 185.413721 
L 307.481429 184.215357 
L 313.441224 183.016993 
L 319.40102 181.818629 
L 325.360816 180.620266 
L 331.320612 179.421902 
L 337.280408 178.223538 
L 343.240204 177.025175 
L 349.2 175.826811 
" clip-path="url(#p560569684a)" style="fill: none; stroke: #00acc7; stroke-width: 1.5; stroke-linecap: square"/>
   </g>
   <g id="line2d_19">
    <path d="M 57.17 234.260007 
L 63.129796 233.003446 
L 69.089592 231.746885 
L 75.049388 230.490324 
L 81.009184 229.233763 
L 86.96898 227.977202 
L 92.928776 226.720642 
L 98.888571 225.464081 
L 104.848367 224.20752 
L 110.808163 222.950959 
L 116.767959 221.694398 
L 122.727755 220.437838 
L 128.687551 219.181277 
L 134.647347 217.924716 
L 140.607143 216.668155 
L 146.566939 215.411594 
L 152.526735 214.155033 
L 158.486531 212.898473 
L 164.446327 211.641912 
L 170.406122 210.385351 
L 176.365918 209.12879 
L 182.325714 207.872229 
L 188.28551 206.615669 
L 194.245306 205.359108 
L 200.205102 204.102547 
L 206.164898 202.845986 
L 212.124694 201.589425 
L 218.08449 200.332865 
L 224.044286 199.076304 
L 230.004082 197.819743 
L 235.963878 196.563182 
L 241.923673 195.306621 
L 247.883469 194.05006 
L 253.843265 192.7935 
L 259.803061 191.536939 
L 265.762857 190.280378 
L 271.722653 189.023817 
L 277.682449 187.767256 
L 283.642245 186.510696 
L 289.602041 185.254135 
L 295.561837 183.997574 
L 301.521633 182.741013 
L 307.481429 181.484452 
L 313.441224 180.227891 
L 319.40102 178.971331 
L 325.360816 177.71477 
L 331.320612 176.458209 
L 337.280408 175.201648 
L 343.240204 173.945087 
L 349.2 172.688527 
" clip-path="url(#p560569684a)" style="fill: none; stroke: #98ff00; stroke-width: 1.5; stroke-linecap: square"/>
   </g>
   <g id="line2d_20">
    <path d="M 57.17 207.151479 
L 63.129796 206.262317 
L 69.089592 205.373155 
L 75.049388 204.483993 
L 81.009184 203.594831 
L 86.96898 202.705669 
L 92.928776 201.816507 
L 98.888571 200.927345 
L 104.848367 200.038183 
L 110.808163 199.149021 
L 116.767959 198.259859 
L 122.727755 197.370696 
L 128.687551 196.481534 
L 134.647347 195.592372 
L 140.607143 194.70321 
L 146.566939 193.814048 
L 152.526735 192.924886 
L 158.486531 192.035724 
L 164.446327 191.146562 
L 170.406122 190.2574 
L 176.365918 189.368238 
L 182.325714 188.479076 
L 188.28551 187.589914 
L 194.245306 186.700752 
L 200.205102 185.811589 
L 206.164898 184.922427 
L 212.124694 184.033265 
L 218.08449 183.144103 
L 224.044286 182.254941 
L 230.004082 181.365779 
L 235.963878 180.476617 
L 241.923673 179.587455 
L 247.883469 178.698293 
L 253.843265 177.809131 
L 259.803061 176.919969 
L 265.762857 176.030807 
L 271.722653 175.141645 
L 277.682449 174.252482 
L 283.642245 173.36332 
L 289.602041 172.474158 
L 295.561837 171.584996 
L 301.521633 170.695834 
L 307.481429 169.806672 
L 313.441224 168.91751 
L 319.40102 168.028348 
L 325.360816 167.139186 
L 331.320612 166.250024 
L 337.280408 165.360862 
L 343.240204 164.4717 
L 349.2 163.582538 
" clip-path="url(#p560569684a)" style="fill: none; stroke: #ff7fd1; stroke-width: 1.5; stroke-linecap: square"/>
   </g>
   <g id="line2d_21">
    <path d="M 57.17 220.950098 
L 63.129796 219.280567 
L 69.089592 217.611035 
L 75.049388 215.941503 
L 81.009184 214.271972 
L 86.96898 212.60244 
L 92.928776 210.932909 
L 98.888571 209.263377 
L 104.848367 207.593846 
L 110.808163 205.924314 
L 116.767959 204.254783 
L 122.727755 202.585251 
L 128.687551 200.91572 
L 134.647347 199.246188 
L 140.607143 197.576657 
L 146.566939 195.907125 
L 152.526735 194.237594 
L 158.486531 192.568062 
L 164.446327 190.898531 
L 170.406122 189.228999 
L 176.365918 187.559468 
L 182.325714 185.889936 
L 188.28551 184.220404 
L 194.245306 182.550873 
L 200.205102 180.881341 
L 206.164898 179.21181 
L 212.124694 177.542278 
L 218.08449 175.872747 
L 224.044286 174.203215 
L 230.004082 172.533684 
L 235.963878 170.864152 
L 241.923673 169.194621 
L 247.883469 167.525089 
L 253.843265 165.855558 
L 259.803061 164.186026 
L 265.762857 162.516495 
L 271.722653 160.846963 
L 277.682449 159.177432 
L 283.642245 157.5079 
L 289.602041 155.838369 
L 295.561837 154.168837 
L 301.521633 152.499305 
L 307.481429 150.829774 
L 313.441224 149.160242 
L 319.40102 147.490711 
L 325.360816 145.821179 
L 331.320612 144.151648 
L 337.280408 142.482116 
L 343.240204 140.812585 
L 349.2 139.143053 
" clip-path="url(#p560569684a)" style="fill: none; stroke: #6c004f; stroke-width: 1.5; stroke-linecap: square"/>
   </g>
   <g id="line2d_22">
    <path d="M 57.17 220.421183 
L 63.129796 218.132001 
L 69.089592 215.842818 
L 75.049388 213.553636 
L 81.009184 211.264454 
L 86.96898 208.975272 
L 92.928776 206.68609 
L 98.888571 204.396908 
L 104.848367 202.107726 
L 110.808163 199.818544 
L 116.767959 197.529362 
L 122.727755 195.24018 
L 128.687551 192.950997 
L 134.647347 190.661815 
L 140.607143 188.372633 
L 146.566939 186.083451 
L 152.526735 183.794269 
L 158.486531 181.505087 
L 164.446327 179.215905 
L 170.406122 176.926723 
L 176.365918 174.637541 
L 182.325714 172.348358 
L 188.28551 170.059176 
L 194.245306 167.769994 
L 200.205102 165.480812 
L 206.164898 163.19163 
L 212.124694 160.902448 
L 218.08449 158.613266 
L 224.044286 156.324084 
L 230.004082 154.034902 
L 235.963878 151.745719 
L 241.923673 149.456537 
L 247.883469 147.167355 
L 253.843265 144.878173 
L 259.803061 142.588991 
L 265.762857 140.299809 
L 271.722653 138.010627 
L 277.682449 135.721445 
L 283.642245 133.432263 
L 289.602041 131.143081 
L 295.561837 128.853898 
L 301.521633 126.564716 
L 307.481429 124.275534 
L 313.441224 121.986352 
L 319.40102 119.69717 
L 325.360816 117.407988 
L 331.320612 115.118806 
L 337.280408 112.829624 
L 343.240204 110.540442 
L 349.2 108.251259 
" clip-path="url(#p560569684a)" style="fill: none; stroke: #583b00; stroke-width: 1.5; stroke-linecap: square"/>
   </g>
   <g id="line2d_23">
    <path d="M 57.17 192.860707 
L 63.129796 190.733703 
L 69.089592 188.606698 
L 75.049388 186.479693 
L 81.009184 184.352688 
L 86.96898 182.225684 
L 92.928776 180.098679 
L 98.888571 177.971674 
L 104.848367 175.844669 
L 110.808163 173.717665 
L 116.767959 171.59066 
L 122.727755 169.463655 
L 128.687551 167.33665 
L 134.647347 165.209646 
L 140.607143 163.082641 
L 146.566939 160.955636 
L 152.526735 158.828631 
L 158.486531 156.701627 
L 164.446327 154.574622 
L 170.406122 152.447617 
L 176.365918 150.320613 
L 182.325714 148.193608 
L 188.28551 146.066603 
L 194.245306 143.939598 
L 200.205102 141.812594 
L 206.164898 139.685589 
L 212.124694 137.558584 
L 218.08449 135.431579 
L 224.044286 133.304575 
L 230.004082 131.17757 
L 235.963878 129.050565 
L 241.923673 126.92356 
L 247.883469 124.796556 
L 253.843265 122.669551 
L 259.803061 120.542546 
L 265.762857 118.415542 
L 271.722653 116.288537 
L 277.682449 114.161532 
L 283.642245 112.034527 
L 289.602041 109.907523 
L 295.561837 107.780518 
L 301.521633 105.653513 
L 307.481429 103.526508 
L 313.441224 101.399504 
L 319.40102 99.272499 
L 325.360816 97.145494 
L 331.320612 95.018489 
L 337.280408 92.891485 
L 343.240204 90.76448 
L 349.2 88.637475 
" clip-path="url(#p560569684a)" style="fill: none; stroke: #005759; stroke-width: 1.5; stroke-linecap: square"/>
   </g>
   <g id="line2d_24">
    <path d="M 57.17 216.295841 
L 63.129796 213.326833 
L 69.089592 210.357825 
L 75.049388 207.388816 
L 81.009184 204.419808 
L 86.96898 201.4508 
L 92.928776 198.481792 
L 98.888571 195.512784 
L 104.848367 192.543775 
L 110.808163 189.574767 
L 116.767959 186.605759 
L 122.727755 183.636751 
L 128.687551 180.667743 
L 134.647347 177.698734 
L 140.607143 174.729726 
L 146.566939 171.760718 
L 152.526735 168.79171 
L 158.486531 165.822701 
L 164.446327 162.853693 
L 170.406122 159.884685 
L 176.365918 156.915677 
L 182.325714 153.946669 
L 188.28551 150.97766 
L 194.245306 148.008652 
L 200.205102 145.039644 
L 206.164898 142.070636 
L 212.124694 139.101628 
L 218.08449 136.132619 
L 224.044286 133.163611 
L 230.004082 130.194603 
L 235.963878 127.225595 
L 241.923673 124.256586 
L 247.883469 121.287578 
L 253.843265 118.31857 
L 259.803061 115.349562 
L 265.762857 112.380554 
L 271.722653 109.411545 
L 277.682449 106.442537 
L 283.642245 103.473529 
L 289.602041 100.504521 
L 295.561837 97.535512 
L 301.521633 94.566504 
L 307.481429 91.597496 
L 313.441224 88.628488 
L 319.40102 85.65948 
L 325.360816 82.690471 
L 331.320612 79.721463 
L 337.280408 76.752455 
L 343.240204 73.783447 
L 349.2 70.814439 
" clip-path="url(#p560569684a)" style="fill: none; stroke: #0000dd; stroke-width: 1.5; stroke-linecap: square"/>
   </g>
   <g id="line2d_25">
    <path d="M 57.17 234.132815 
L 63.129796 233.877048 
L 69.089592 233.621281 
L 75.049388 233.365515 
L 81.009184 233.109748 
L 86.96898 232.853981 
L 92.928776 232.598214 
L 98.888571 232.342448 
L 104.848367 232.086681 
L 110.808163 231.830914 
L 116.767959 231.575147 
L 122.727755 231.319381 
L 128.687551 231.063614 
L 134.647347 230.807847 
L 140.607143 230.55208 
L 146.566939 230.296314 
L 152.526735 230.040547 
L 158.486531 229.78478 
L 164.446327 229.529014 
L 170.406122 229.273247 
L 176.365918 229.01748 
L 182.325714 228.761713 
L 188.28551 228.505947 
L 194.245306 228.25018 
L 200.205102 227.994413 
L 206.164898 227.738646 
L 212.124694 227.48288 
L 218.08449 227.227113 
L 224.044286 226.971346 
L 230.004082 226.715579 
L 235.963878 226.459813 
L 241.923673 226.204046 
L 247.883469 225.948279 
L 253.843265 225.692512 
L 259.803061 225.436746 
L 265.762857 225.180979 
L 271.722653 224.925212 
L 277.682449 224.669445 
L 283.642245 224.413679 
L 289.602041 224.157912 
L 295.561837 223.902145 
L 301.521633 223.646378 
L 307.481429 223.390612 
L 313.441224 223.134845 
L 319.40102 222.879078 
L 325.360816 222.623311 
L 331.320612 222.367545 
L 337.280408 222.111778 
L 343.240204 221.856011 
L 349.2 221.600245 
" clip-path="url(#p560569684a)" style="fill: none; stroke: #a1756a; stroke-width: 1.5; stroke-linecap: square"/>
   </g>
   <g id="line2d_26">
    <path d="M 57.17 227.71157 
L 63.129796 224.369267 
L 69.089592 221.026965 
L 75.049388 217.684662 
L 81.009184 214.34236 
L 86.96898 211.000057 
L 92.928776 207.657755 
L 98.888571 204.315452 
L 104.848367 200.97315 
L 110.808163 197.630847 
L 116.767959 194.288545 
L 122.727755 190.946242 
L 128.687551 187.60394 
L 134.647347 184.261637 
L 140.607143 180.919335 
L 146.566939 177.577032 
L 152.526735 174.23473 
L 158.486531 170.892427 
L 164.446327 167.550125 
L 170.406122 164.207822 
L 176.365918 160.86552 
L 182.325714 157.523217 
L 188.28551 154.180915 
L 194.245306 150.838612 
L 200.205102 147.49631 
L 206.164898 144.154007 
L 212.124694 140.811705 
L 218.08449 137.469402 
L 224.044286 134.1271 
L 230.004082 130.784797 
L 235.963878 127.442495 
L 241.923673 124.100192 
L 247.883469 120.75789 
L 253.843265 117.415587 
L 259.803061 114.073285 
L 265.762857 110.730982 
L 271.722653 107.38868 
L 277.682449 104.046377 
L 283.642245 100.704075 
L 289.602041 97.361772 
L 295.561837 94.01947 
L 301.521633 90.677167 
L 307.481429 87.334865 
L 313.441224 83.992562 
L 319.40102 80.650259 
L 325.360816 77.307957 
L 331.320612 73.965654 
L 337.280408 70.623352 
L 343.240204 67.281049 
L 349.2 63.938747 
" clip-path="url(#p560569684a)" style="fill: none; stroke: #bcb7ff; stroke-width: 1.5; stroke-linecap: square"/>
   </g>
   <g id="line2d_27">
    <path d="M 57.17 203.35513 
L 63.129796 202.283268 
L 69.089592 201.211405 
L 75.049388 200.139543 
L 81.009184 199.06768 
L 86.96898 197.995818 
L 92.928776 196.923956 
L 98.888571 195.852093 
L 104.848367 194.780231 
L 110.808163 193.708368 
L 116.767959 192.636506 
L 122.727755 191.564644 
L 128.687551 190.492781 
L 134.647347 189.420919 
L 140.607143 188.349056 
L 146.566939 187.277194 
L 152.526735 186.205332 
L 158.486531 185.133469 
L 164.446327 184.061607 
L 170.406122 182.989744 
L 176.365918 181.917882 
L 182.325714 180.84602 
L 188.28551 179.774157 
L 194.245306 178.702295 
L 200.205102 177.630432 
L 206.164898 176.55857 
L 212.124694 175.486708 
L 218.08449 174.414845 
L 224.044286 173.342983 
L 230.004082 172.27112 
L 235.963878 171.199258 
L 241.923673 170.127396 
L 247.883469 169.055533 
L 253.843265 167.983671 
L 259.803061 166.911808 
L 265.762857 165.839946 
L 271.722653 164.768084 
L 277.682449 163.696221 
L 283.642245 162.624359 
L 289.602041 161.552496 
L 295.561837 160.480634 
L 301.521633 159.408772 
L 307.481429 158.336909 
L 313.441224 157.265047 
L 319.40102 156.193184 
L 325.360816 155.121322 
L 331.320612 154.04946 
L 337.280408 152.977597 
L 343.240204 151.905735 
L 349.2 150.833873 
" clip-path="url(#p560569684a)" style="fill: none; stroke: #95b578; stroke-width: 1.5; stroke-linecap: square"/>
   </g>
   <g id="line2d_28">
    <path d="M 57.17 212.377466 
L 63.129796 208.074723 
L 69.089592 203.77198 
L 75.049388 199.469237 
L 81.009184 195.166494 
L 86.96898 190.863751 
L 92.928776 186.561008 
L 98.888571 182.258265 
L 104.848367 177.955522 
L 110.808163 173.652779 
L 116.767959 169.350035 
L 122.727755 165.047292 
L 128.687551 160.744549 
L 134.647347 156.441806 
L 140.607143 152.139063 
L 146.566939 147.83632 
L 152.526735 143.533577 
L 158.486531 139.230834 
L 164.446327 134.928091 
L 170.406122 130.625348 
L 176.365918 126.322605 
L 182.325714 122.019861 
L 188.28551 117.717118 
L 194.245306 113.414375 
L 200.205102 109.111632 
L 206.164898 104.808889 
L 212.124694 100.506146 
L 218.08449 96.203403 
L 224.044286 91.90066 
L 230.004082 87.597917 
L 235.963878 83.295174 
L 241.923673 78.99243 
L 247.883469 74.689687 
L 253.843265 70.386944 
L 259.803061 66.084201 
L 265.762857 61.781458 
L 271.722653 57.478715 
L 277.682449 53.175972 
L 283.642245 48.873229 
L 289.602041 44.570486 
L 295.561837 40.267743 
L 301.521633 35.964999 
L 307.481429 31.662256 
L 313.441224 27.359513 
L 319.40102 23.05677 
L 325.360816 18.754027 
L 331.320612 14.451284 
L 337.280408 10.148541 
L 343.240204 5.845798 
L 349.2 1.543055 
" clip-path="url(#p560569684a)" style="fill: none; stroke: #c004b9; stroke-width: 1.5; stroke-linecap: square"/>
   </g>
   <g id="line2d_29">
    <path d="M 57.17 220.136684 
L 63.129796 217.417327 
L 69.089592 214.697969 
L 75.049388 211.978612 
L 81.009184 209.259255 
L 86.96898 206.539897 
L 92.928776 203.82054 
L 98.888571 201.101183 
L 104.848367 198.381826 
L 110.808163 195.662468 
L 116.767959 192.943111 
L 122.727755 190.223754 
L 128.687551 187.504396 
L 134.647347 184.785039 
L 140.607143 182.065682 
L 146.566939 179.346325 
L 152.526735 176.626967 
L 158.486531 173.90761 
L 164.446327 171.188253 
L 170.406122 168.468895 
L 176.365918 165.749538 
L 182.325714 163.030181 
L 188.28551 160.310824 
L 194.245306 157.591466 
L 200.205102 154.872109 
L 206.164898 152.152752 
L 212.124694 149.433395 
L 218.08449 146.714037 
L 224.044286 143.99468 
L 230.004082 141.275323 
L 235.963878 138.555965 
L 241.923673 135.836608 
L 247.883469 133.117251 
L 253.843265 130.397894 
L 259.803061 127.678536 
L 265.762857 124.959179 
L 271.722653 122.239822 
L 277.682449 119.520464 
L 283.642245 116.801107 
L 289.602041 114.08175 
L 295.561837 111.362393 
L 301.521633 108.643035 
L 307.481429 105.923678 
L 313.441224 103.204321 
L 319.40102 100.484963 
L 325.360816 97.765606 
L 331.320612 95.046249 
L 337.280408 92.326892 
L 343.240204 89.607534 
L 349.2 86.888177 
" clip-path="url(#p560569684a)" style="fill: none; stroke: #790000; stroke-width: 1.5; stroke-linecap: square"/>
   </g>
   <g id="line2d_30">
    <path d="M 57.17 236.988262 
L 63.129796 236.076799 
L 69.089592 235.165336 
L 75.049388 234.253873 
L 81.009184 233.34241 
L 86.96898 232.430947 
L 92.928776 231.519484 
L 98.888571 230.608021 
L 104.848367 229.696558 
L 110.808163 228.785095 
L 116.767959 227.873632 
L 122.727755 226.962169 
L 128.687551 226.050706 
L 134.647347 225.139242 
L 140.607143 224.227779 
L 146.566939 223.316316 
L 152.526735 222.404853 
L 158.486531 221.49339 
L 164.446327 220.581927 
L 170.406122 219.670464 
L 176.365918 218.759001 
L 182.325714 217.847538 
L 188.28551 216.936075 
L 194.245306 216.024612 
L 200.205102 215.113149 
L 206.164898 214.201686 
L 212.124694 213.290223 
L 218.08449 212.37876 
L 224.044286 211.467297 
L 230.004082 210.555834 
L 235.963878 209.644371 
L 241.923673 208.732907 
L 247.883469 207.821444 
L 253.843265 206.909981 
L 259.803061 205.998518 
L 265.762857 205.087055 
L 271.722653 204.175592 
L 277.682449 203.264129 
L 283.642245 202.352666 
L 289.602041 201.441203 
L 295.561837 200.52974 
L 301.521633 199.618277 
L 307.481429 198.706814 
L 313.441224 197.795351 
L 319.40102 196.883888 
L 325.360816 195.972425 
L 331.320612 195.060962 
L 337.280408 194.149499 
L 343.240204 193.238036 
L 349.2 192.326572 
" clip-path="url(#p560569684a)" style="fill: none; stroke: #0774d8; stroke-width: 1.5; stroke-linecap: square"/>
   </g>
   <g id="line2d_31">
    <path d="M 57.17 217.119101 
L 63.129796 216.833851 
L 69.089592 216.5486 
L 75.049388 216.263349 
L 81.009184 215.978099 
L 86.96898 215.692848 
L 92.928776 215.407598 
L 98.888571 215.122347 
L 104.848367 214.837097 
L 110.808163 214.551846 
L 116.767959 214.266596 
L 122.727755 213.981345 
L 128.687551 213.696094 
L 134.647347 213.410844 
L 140.607143 213.125593 
L 146.566939 212.840343 
L 152.526735 212.555092 
L 158.486531 212.269842 
L 164.446327 211.984591 
L 170.406122 211.69934 
L 176.365918 211.41409 
L 182.325714 211.128839 
L 188.28551 210.843589 
L 194.245306 210.558338 
L 200.205102 210.273088 
L 206.164898 209.987837 
L 212.124694 209.702587 
L 218.08449 209.417336 
L 224.044286 209.132085 
L 230.004082 208.846835 
L 235.963878 208.561584 
L 241.923673 208.276334 
L 247.883469 207.991083 
L 253.843265 207.705833 
L 259.803061 207.420582 
L 265.762857 207.135331 
L 271.722653 206.850081 
L 277.682449 206.56483 
L 283.642245 206.27958 
L 289.602041 205.994329 
L 295.561837 205.709079 
L 301.521633 205.423828 
L 307.481429 205.138578 
L 313.441224 204.853327 
L 319.40102 204.568076 
L 325.360816 204.282826 
L 331.320612 203.997575 
L 337.280408 203.712325 
L 343.240204 203.427074 
L 349.2 203.141824 
" clip-path="url(#p560569684a)" style="fill: none; stroke: #fef590; stroke-width: 1.5; stroke-linecap: square"/>
   </g>
   <g id="line2d_32">
    <path d="M 57.17 191.754991 
L 63.129796 188.548136 
L 69.089592 185.341282 
L 75.049388 182.134428 
L 81.009184 178.927574 
L 86.96898 175.720719 
L 92.928776 172.513865 
L 98.888571 169.307011 
L 104.848367 166.100157 
L 110.808163 162.893302 
L 116.767959 159.686448 
L 122.727755 156.479594 
L 128.687551 153.27274 
L 134.647347 150.065885 
L 140.607143 146.859031 
L 146.566939 143.652177 
L 152.526735 140.445323 
L 158.486531 137.238468 
L 164.446327 134.031614 
L 170.406122 130.82476 
L 176.365918 127.617906 
L 182.325714 124.411051 
L 188.28551 121.204197 
L 194.245306 117.997343 
L 200.205102 114.790488 
L 206.164898 111.583634 
L 212.124694 108.37678 
L 218.08449 105.169926 
L 224.044286 101.963071 
L 230.004082 98.756217 
L 235.963878 95.549363 
L 241.923673 92.342509 
L 247.883469 89.135654 
L 253.843265 85.9288 
L 259.803061 82.721946 
L 265.762857 79.515092 
L 271.722653 76.308237 
L 277.682449 73.101383 
L 283.642245 69.894529 
L 289.602041 66.687675 
L 295.561837 63.48082 
L 301.521633 60.273966 
L 307.481429 57.067112 
L 313.441224 53.860258 
L 319.40102 50.653403 
L 325.360816 47.446549 
L 331.320612 44.239695 
L 337.280408 41.032841 
L 343.240204 37.825986 
L 349.2 34.619132 
" clip-path="url(#p560569684a)" style="fill: none; stroke: #8f7a00; stroke-width: 1.5; stroke-linecap: square"/>
   </g>
   <g id="line2d_33">
    <path d="M 57.17 206.592793 
L 63.129796 206.360645 
L 69.089592 206.128496 
L 75.049388 205.896347 
L 81.009184 205.664199 
L 86.96898 205.43205 
L 92.928776 205.199901 
L 98.888571 204.967753 
L 104.848367 204.735604 
L 110.808163 204.503455 
L 116.767959 204.271306 
L 122.727755 204.039158 
L 128.687551 203.807009 
L 134.647347 203.57486 
L 140.607143 203.342712 
L 146.566939 203.110563 
L 152.526735 202.878414 
L 158.486531 202.646266 
L 164.446327 202.414117 
L 170.406122 202.181968 
L 176.365918 201.949819 
L 182.325714 201.717671 
L 188.28551 201.485522 
L 194.245306 201.253373 
L 200.205102 201.021225 
L 206.164898 200.789076 
L 212.124694 200.556927 
L 218.08449 200.324779 
L 224.044286 200.09263 
L 230.004082 199.860481 
L 235.963878 199.628333 
L 241.923673 199.396184 
L 247.883469 199.164035 
L 253.843265 198.931886 
L 259.803061 198.699738 
L 265.762857 198.467589 
L 271.722653 198.23544 
L 277.682449 198.003292 
L 283.642245 197.771143 
L 289.602041 197.538994 
L 295.561837 197.306846 
L 301.521633 197.074697 
L 307.481429 196.842548 
L 313.441224 196.610399 
L 319.40102 196.378251 
L 325.360816 196.146102 
L 331.320612 195.913953 
L 337.280408 195.681805 
L 343.240204 195.449656 
L 349.2 195.217507 
" clip-path="url(#p560569684a)" style="fill: none; stroke: #ff7266; stroke-width: 1.5; stroke-linecap: square"/>
   </g>
   <g id="line2d_34">
    <path d="M 57.17 166.555784 
L 63.129796 159.016421 
L 69.089592 151.477058 
L 75.049388 143.937696 
L 81.009184 136.398333 
L 86.96898 128.858971 
L 92.928776 121.319608 
L 98.888571 113.780246 
L 104.848367 106.240883 
L 110.808163 98.701521 
L 116.767959 91.162158 
L 122.727755 83.622795 
L 128.687551 76.083433 
L 134.647347 68.54407 
L 140.607143 61.004708 
L 146.566939 53.465345 
L 152.526735 45.925983 
L 158.486531 38.38662 
L 164.446327 30.847258 
L 170.406122 23.307895 
L 176.365918 15.768532 
L 182.325714 8.22917 
L 188.28551 0.689807 
L 189.621287 -1 
" clip-path="url(#p560569684a)" style="fill: none; stroke: #eeb9b9; stroke-width: 1.5; stroke-linecap: square"/>
   </g>
   <g id="line2d_35">
    <path d="M 57.17 234.147639 
L 63.129796 232.569587 
L 69.089592 230.991535 
L 75.049388 229.413484 
L 81.009184 227.835432 
L 86.96898 226.25738 
L 92.928776 224.679329 
L 98.888571 223.101277 
L 104.848367 221.523225 
L 110.808163 219.945174 
L 116.767959 218.367122 
L 122.727755 216.78907 
L 128.687551 215.211018 
L 134.647347 213.632967 
L 140.607143 212.054915 
L 146.566939 210.476863 
L 152.526735 208.898812 
L 158.486531 207.32076 
L 164.446327 205.742708 
L 170.406122 204.164657 
L 176.365918 202.586605 
L 182.325714 201.008553 
L 188.28551 199.430502 
L 194.245306 197.85245 
L 200.205102 196.274398 
L 206.164898 194.696346 
L 212.124694 193.118295 
L 218.08449 191.540243 
L 224.044286 189.962191 
L 230.004082 188.38414 
L 235.963878 186.806088 
L 241.923673 185.228036 
L 247.883469 183.649985 
L 253.843265 182.071933 
L 259.803061 180.493881 
L 265.762857 178.915829 
L 271.722653 177.337778 
L 277.682449 175.759726 
L 283.642245 174.181674 
L 289.602041 172.603623 
L 295.561837 171.025571 
L 301.521633 169.447519 
L 307.481429 167.869468 
L 313.441224 166.291416 
L 319.40102 164.713364 
L 325.360816 163.135313 
L 331.320612 161.557261 
L 337.280408 159.979209 
L 343.240204 158.401157 
L 349.2 156.823106 
" clip-path="url(#p560569684a)" style="fill: none; stroke: #5e7e66; stroke-width: 1.5; stroke-linecap: square"/>
   </g>
   <g id="line2d_36">
    <path d="M 57.17 230.071504 
L 63.129796 229.453362 
L 69.089592 228.835219 
L 75.049388 228.217076 
L 81.009184 227.598933 
L 86.96898 226.98079 
L 92.928776 226.362647 
L 98.888571 225.744504 
L 104.848367 225.126361 
L 110.808163 224.508218 
L 116.767959 223.890076 
L 122.727755 223.271933 
L 128.687551 222.65379 
L 134.647347 222.035647 
L 140.607143 221.417504 
L 146.566939 220.799361 
L 152.526735 220.181218 
L 158.486531 219.563075 
L 164.446327 218.944932 
L 170.406122 218.326789 
L 176.365918 217.708647 
L 182.325714 217.090504 
L 188.28551 216.472361 
L 194.245306 215.854218 
L 200.205102 215.236075 
L 206.164898 214.617932 
L 212.124694 213.999789 
L 218.08449 213.381646 
L 224.044286 212.763503 
L 230.004082 212.145361 
L 235.963878 211.527218 
L 241.923673 210.909075 
L 247.883469 210.290932 
L 253.843265 209.672789 
L 259.803061 209.054646 
L 265.762857 208.436503 
L 271.722653 207.81836 
L 277.682449 207.200217 
L 283.642245 206.582075 
L 289.602041 205.963932 
L 295.561837 205.345789 
L 301.521633 204.727646 
L 307.481429 204.109503 
L 313.441224 203.49136 
L 319.40102 202.873217 
L 325.360816 202.255074 
L 331.320612 201.636931 
L 337.280408 201.018788 
L 343.240204 200.400646 
L 349.2 199.782503 
" clip-path="url(#p560569684a)" style="fill: none; stroke: #9be4ff; stroke-width: 1.5; stroke-linecap: square"/>
   </g>
   <g id="patch_3">
    <path d="M 57.17 246.04 
L 57.17 14.76 
" style="fill: none; stroke: #000000; stroke-width: 0.8; stroke-linejoin: miter; stroke-linecap: square"/>
   </g>
   <g id="patch_4">
    <path d="M 349.2 246.04 
L 349.2 14.76 
" style="fill: none; stroke: #000000; stroke-width: 0.8; stroke-linejoin: miter; stroke-linecap: square"/>
   </g>
   <g id="patch_5">
    <path d="M 57.17 246.04 
L 349.2 246.04 
" style="fill: none; stroke: #000000; stroke-width: 0.8; stroke-linejoin: miter; stroke-linecap: square"/>
   </g>
   <g id="patch_6">
    <path d="M 57.17 14.76 
L 349.2 14.76 
" style="fill: none; stroke: #000000; stroke-width: 0.8; stroke-linejoin: miter; stroke-linecap: square"/>
   </g>
   <g id="legend_1">
    <g id="patch_7">
     <path d="M 64.17 184.219375 
L 173.829375 184.219375 
Q 175.829375 184.219375 175.829375 182.219375 
L 175.829375 21.76 
Q 175.829375 19.76 173.829375 19.76 
L 64.17 19.76 
Q 62.17 19.76 62.17 21.76 
L 62.17 182.219375 
Q 62.17 184.219375 64.17 184.219375 
z
" style="fill: #ffffff; opacity: 0.8; stroke: #cccccc; stroke-linejoin: miter"/>
    </g>
    <g id="line2d_37">
     <path d="M 66.17 27.858437 
L 76.17 27.858437 
L 86.17 27.858437 
" style="fill: none; stroke: #d70000; stroke-width: 1.5; stroke-linecap: square"/>
    </g>
    <g id="text_17">
     <!-- AT -->
     <g transform="translate(94.17 31.358437)scale(0.1 -0.1)">
      <defs>
       <path id="DejaVuSans-41" d="M 2188 4044 
L 1331 1722 
L 3047 1722 
L 2188 4044 
z
M 1831 4666 
L 2547 4666 
L 4325 0 
L 3669 0 
L 3244 1197 
L 1141 1197 
L 716 0 
L 50 0 
L 1831 4666 
z
" transform="scale(0.015625)"/>
       <path id="DejaVuSans-54" d="M -19 4666 
L 3928 4666 
L 3928 4134 
L 2272 4134 
L 2272 0 
L 1638 0 
L 1638 4134 
L -19 4134 
L -19 4666 
z
" transform="scale(0.015625)"/>
      </defs>
      <use xlink:href="#DejaVuSans-41"/>
      <use xlink:href="#DejaVuSans-54" x="60.658203"/>
     </g>
    </g>
    <g id="line2d_38">
     <path d="M 66.17 42.536563 
L 76.17 42.536563 
L 86.17 42.536563 
" style="fill: none; stroke: #8c3cff; stroke-width: 1.5; stroke-linecap: square"/>
    </g>
    <g id="text_18">
     <!-- BE -->
     <g transform="translate(94.17 46.036563)scale(0.1 -0.1)">
      <defs>
       <path id="DejaVuSans-42" d="M 1259 2228 
L 1259 519 
L 2272 519 
Q 2781 519 3026 730 
Q 3272 941 3272 1375 
Q 3272 1813 3026 2020 
Q 2781 2228 2272 2228 
L 1259 2228 
z
M 1259 4147 
L 1259 2741 
L 2194 2741 
Q 2656 2741 2882 2914 
Q 3109 3088 3109 3444 
Q 3109 3797 2882 3972 
Q 2656 4147 2194 4147 
L 1259 4147 
z
M 628 4666 
L 2241 4666 
Q 2963 4666 3353 4366 
Q 3744 4066 3744 3513 
Q 3744 3084 3544 2831 
Q 3344 2578 2956 2516 
Q 3422 2416 3680 2098 
Q 3938 1781 3938 1306 
Q 3938 681 3513 340 
Q 3088 0 2303 0 
L 628 0 
L 628 4666 
z
" transform="scale(0.015625)"/>
       <path id="DejaVuSans-45" d="M 628 4666 
L 3578 4666 
L 3578 4134 
L 1259 4134 
L 1259 2753 
L 3481 2753 
L 3481 2222 
L 1259 2222 
L 1259 531 
L 3634 531 
L 3634 0 
L 628 0 
L 628 4666 
z
" transform="scale(0.015625)"/>
      </defs>
      <use xlink:href="#DejaVuSans-42"/>
      <use xlink:href="#DejaVuSans-45" x="68.603516"/>
     </g>
    </g>
    <g id="line2d_39">
     <path d="M 66.17 57.214687 
L 76.17 57.214687 
L 86.17 57.214687 
" style="fill: none; stroke: #028800; stroke-width: 1.5; stroke-linecap: square"/>
    </g>
    <g id="text_19">
     <!-- BG -->
     <g transform="translate(94.17 60.714687)scale(0.1 -0.1)">
      <defs>
       <path id="DejaVuSans-47" d="M 3809 666 
L 3809 1919 
L 2778 1919 
L 2778 2438 
L 4434 2438 
L 4434 434 
Q 4069 175 3628 42 
Q 3188 -91 2688 -91 
Q 1594 -91 976 548 
Q 359 1188 359 2328 
Q 359 3472 976 4111 
Q 1594 4750 2688 4750 
Q 3144 4750 3555 4637 
Q 3966 4525 4313 4306 
L 4313 3634 
Q 3963 3931 3569 4081 
Q 3175 4231 2741 4231 
Q 1884 4231 1454 3753 
Q 1025 3275 1025 2328 
Q 1025 1384 1454 906 
Q 1884 428 2741 428 
Q 3075 428 3337 486 
Q 3600 544 3809 666 
z
" transform="scale(0.015625)"/>
      </defs>
      <use xlink:href="#DejaVuSans-42"/>
      <use xlink:href="#DejaVuSans-47" x="66.853516"/>
     </g>
    </g>
    <g id="line2d_40">
     <path d="M 66.17 71.892812 
L 76.17 71.892812 
L 86.17 71.892812 
" style="fill: none; stroke: #00acc7; stroke-width: 1.5; stroke-linecap: square"/>
    </g>
    <g id="text_20">
     <!-- CY -->
     <g transform="translate(94.17 75.392812)scale(0.1 -0.1)">
      <defs>
       <path id="DejaVuSans-43" d="M 4122 4306 
L 4122 3641 
Q 3803 3938 3442 4084 
Q 3081 4231 2675 4231 
Q 1875 4231 1450 3742 
Q 1025 3253 1025 2328 
Q 1025 1406 1450 917 
Q 1875 428 2675 428 
Q 3081 428 3442 575 
Q 3803 722 4122 1019 
L 4122 359 
Q 3791 134 3420 21 
Q 3050 -91 2638 -91 
Q 1578 -91 968 557 
Q 359 1206 359 2328 
Q 359 3453 968 4101 
Q 1578 4750 2638 4750 
Q 3056 4750 3426 4639 
Q 3797 4528 4122 4306 
z
" transform="scale(0.015625)"/>
       <path id="DejaVuSans-59" d="M -13 4666 
L 666 4666 
L 1959 2747 
L 3244 4666 
L 3922 4666 
L 2272 2222 
L 2272 0 
L 1638 0 
L 1638 2222 
L -13 4666 
z
" transform="scale(0.015625)"/>
      </defs>
      <use xlink:href="#DejaVuSans-43"/>
      <use xlink:href="#DejaVuSans-59" x="68.074219"/>
     </g>
    </g>
    <g id="line2d_41">
     <path d="M 66.17 86.570938 
L 76.17 86.570938 
L 86.17 86.570938 
" style="fill: none; stroke: #98ff00; stroke-width: 1.5; stroke-linecap: square"/>
    </g>
    <g id="text_21">
     <!-- CZ -->
     <g transform="translate(94.17 90.070938)scale(0.1 -0.1)">
      <defs>
       <path id="DejaVuSans-5a" d="M 359 4666 
L 4025 4666 
L 4025 4184 
L 1075 531 
L 4097 531 
L 4097 0 
L 288 0 
L 288 481 
L 3238 4134 
L 359 4134 
L 359 4666 
z
" transform="scale(0.015625)"/>
      </defs>
      <use xlink:href="#DejaVuSans-43"/>
      <use xlink:href="#DejaVuSans-5a" x="69.824219"/>
     </g>
    </g>
    <g id="line2d_42">
     <path d="M 66.17 101.249062 
L 76.17 101.249062 
L 86.17 101.249062 
" style="fill: none; stroke: #ff7fd1; stroke-width: 1.5; stroke-linecap: square"/>
    </g>
    <g id="text_22">
     <!-- DE -->
     <g transform="translate(94.17 104.749062)scale(0.1 -0.1)">
      <use xlink:href="#DejaVuSans-44"/>
      <use xlink:href="#DejaVuSans-45" x="77.001953"/>
     </g>
    </g>
    <g id="line2d_43">
     <path d="M 66.17 115.927188 
L 76.17 115.927188 
L 86.17 115.927188 
" style="fill: none; stroke: #6c004f; stroke-width: 1.5; stroke-linecap: square"/>
    </g>
    <g id="text_23">
     <!-- DK -->
     <g transform="translate(94.17 119.427188)scale(0.1 -0.1)">
      <defs>
       <path id="DejaVuSans-4b" d="M 628 4666 
L 1259 4666 
L 1259 2694 
L 3353 4666 
L 4166 4666 
L 1850 2491 
L 4331 0 
L 3500 0 
L 1259 2247 
L 1259 0 
L 628 0 
L 628 4666 
z
" transform="scale(0.015625)"/>
      </defs>
      <use xlink:href="#DejaVuSans-44"/>
      <use xlink:href="#DejaVuSans-4b" x="77.001953"/>
     </g>
    </g>
    <g id="line2d_44">
     <path d="M 66.17 130.605312 
L 76.17 130.605312 
L 86.17 130.605312 
" style="fill: none; stroke: #583b00; stroke-width: 1.5; stroke-linecap: square"/>
    </g>
    <g id="text_24">
     <!-- EL -->
     <g transform="translate(94.17 134.105312)scale(0.1 -0.1)">
      <defs>
       <path id="DejaVuSans-4c" d="M 628 4666 
L 1259 4666 
L 1259 531 
L 3531 531 
L 3531 0 
L 628 0 
L 628 4666 
z
" transform="scale(0.015625)"/>
      </defs>
      <use xlink:href="#DejaVuSans-45"/>
      <use xlink:href="#DejaVuSans-4c" x="63.183594"/>
     </g>
    </g>
    <g id="line2d_45">
     <path d="M 66.17 145.283437 
L 76.17 145.283437 
L 86.17 145.283437 
" style="fill: none; stroke: #005759; stroke-width: 1.5; stroke-linecap: square"/>
    </g>
    <g id="text_25">
     <!-- ES -->
     <g transform="translate(94.17 148.783437)scale(0.1 -0.1)">
      <defs>
       <path id="DejaVuSans-53" d="M 3425 4513 
L 3425 3897 
Q 3066 4069 2747 4153 
Q 2428 4238 2131 4238 
Q 1616 4238 1336 4038 
Q 1056 3838 1056 3469 
Q 1056 3159 1242 3001 
Q 1428 2844 1947 2747 
L 2328 2669 
Q 3034 2534 3370 2195 
Q 3706 1856 3706 1288 
Q 3706 609 3251 259 
Q 2797 -91 1919 -91 
Q 1588 -91 1214 -16 
Q 841 59 441 206 
L 441 856 
Q 825 641 1194 531 
Q 1563 422 1919 422 
Q 2459 422 2753 634 
Q 3047 847 3047 1241 
Q 3047 1584 2836 1778 
Q 2625 1972 2144 2069 
L 1759 2144 
Q 1053 2284 737 2584 
Q 422 2884 422 3419 
Q 422 4038 858 4394 
Q 1294 4750 2059 4750 
Q 2388 4750 2728 4690 
Q 3069 4631 3425 4513 
z
" transform="scale(0.015625)"/>
      </defs>
      <use xlink:href="#DejaVuSans-45"/>
      <use xlink:href="#DejaVuSans-53" x="63.183594"/>
     </g>
    </g>
    <g id="line2d_46">
     <path d="M 66.17 159.961562 
L 76.17 159.961562 
L 86.17 159.961562 
" style="fill: none; stroke: #0000dd; stroke-width: 1.5; stroke-linecap: square"/>
    </g>
    <g id="text_26">
     <!-- FI -->
     <g transform="translate(94.17 163.461562)scale(0.1 -0.1)">
      <defs>
       <path id="DejaVuSans-46" d="M 628 4666 
L 3309 4666 
L 3309 4134 
L 1259 4134 
L 1259 2759 
L 3109 2759 
L 3109 2228 
L 1259 2228 
L 1259 0 
L 628 0 
L 628 4666 
z
" transform="scale(0.015625)"/>
       <path id="DejaVuSans-49" d="M 628 4666 
L 1259 4666 
L 1259 0 
L 628 0 
L 628 4666 
z
" transform="scale(0.015625)"/>
      </defs>
      <use xlink:href="#DejaVuSans-46"/>
      <use xlink:href="#DejaVuSans-49" x="57.519531"/>
     </g>
    </g>
    <g id="line2d_47">
     <path d="M 66.17 174.639687 
L 76.17 174.639687 
L 86.17 174.639687 
" style="fill: none; stroke: #a1756a; stroke-width: 1.5; stroke-linecap: square"/>
    </g>
    <g id="text_27">
     <!-- HU -->
     <g transform="translate(94.17 178.139687)scale(0.1 -0.1)">
      <defs>
       <path id="DejaVuSans-48" d="M 628 4666 
L 1259 4666 
L 1259 2753 
L 3553 2753 
L 3553 4666 
L 4184 4666 
L 4184 0 
L 3553 0 
L 3553 2222 
L 1259 2222 
L 1259 0 
L 628 0 
L 628 4666 
z
" transform="scale(0.015625)"/>
      </defs>
      <use xlink:href="#DejaVuSans-48"/>
      <use xlink:href="#DejaVuSans-55" x="75.195312"/>
     </g>
    </g>
    <g id="line2d_48">
     <path d="M 129.009062 27.858437 
L 139.009062 27.858437 
L 149.009062 27.858437 
" style="fill: none; stroke: #bcb7ff; stroke-width: 1.5; stroke-linecap: square"/>
    </g>
    <g id="text_28">
     <!-- IE -->
     <g transform="translate(157.009062 31.358437)scale(0.1 -0.1)">
      <use xlink:href="#DejaVuSans-49"/>
      <use xlink:href="#DejaVuSans-45" x="29.492188"/>
     </g>
    </g>
    <g id="line2d_49">
     <path d="M 129.009062 42.536563 
L 139.009062 42.536563 
L 149.009062 42.536563 
" style="fill: none; stroke: #95b578; stroke-width: 1.5; stroke-linecap: square"/>
    </g>
    <g id="text_29">
     <!-- IT -->
     <g transform="translate(157.009062 46.036563)scale(0.1 -0.1)">
      <use xlink:href="#DejaVuSans-49"/>
      <use xlink:href="#DejaVuSans-54" x="29.492188"/>
     </g>
    </g>
    <g id="line2d_50">
     <path d="M 129.009062 57.214687 
L 139.009062 57.214687 
L 149.009062 57.214687 
" style="fill: none; stroke: #c004b9; stroke-width: 1.5; stroke-linecap: square"/>
    </g>
    <g id="text_30">
     <!-- LT -->
     <g transform="translate(157.009062 60.714687)scale(0.1 -0.1)">
      <use xlink:href="#DejaVuSans-4c"/>
      <use xlink:href="#DejaVuSans-54" x="41.962891"/>
     </g>
    </g>
    <g id="line2d_51">
     <path d="M 129.009062 71.892812 
L 139.009062 71.892812 
L 149.009062 71.892812 
" style="fill: none; stroke: #790000; stroke-width: 1.5; stroke-linecap: square"/>
    </g>
    <g id="text_31">
     <!-- LV -->
     <g transform="translate(157.009062 75.392812)scale(0.1 -0.1)">
      <defs>
       <path id="DejaVuSans-56" d="M 1831 0 
L 50 4666 
L 709 4666 
L 2188 738 
L 3669 4666 
L 4325 4666 
L 2547 0 
L 1831 0 
z
" transform="scale(0.015625)"/>
      </defs>
      <use xlink:href="#DejaVuSans-4c"/>
      <use xlink:href="#DejaVuSans-56" x="44.712891"/>
     </g>
    </g>
    <g id="line2d_52">
     <path d="M 129.009062 86.570938 
L 139.009062 86.570938 
L 149.009062 86.570938 
" style="fill: none; stroke: #0774d8; stroke-width: 1.5; stroke-linecap: square"/>
    </g>
    <g id="text_32">
     <!-- MT -->
     <g transform="translate(157.009062 90.070938)scale(0.1 -0.1)">
      <defs>
       <path id="DejaVuSans-4d" d="M 628 4666 
L 1569 4666 
L 2759 1491 
L 3956 4666 
L 4897 4666 
L 4897 0 
L 4281 0 
L 4281 4097 
L 3078 897 
L 2444 897 
L 1241 4097 
L 1241 0 
L 628 0 
L 628 4666 
z
" transform="scale(0.015625)"/>
      </defs>
      <use xlink:href="#DejaVuSans-4d"/>
      <use xlink:href="#DejaVuSans-54" x="86.279297"/>
     </g>
    </g>
    <g id="line2d_53">
     <path d="M 129.009062 101.249062 
L 139.009062 101.249062 
L 149.009062 101.249062 
" style="fill: none; stroke: #fef590; stroke-width: 1.5; stroke-linecap: square"/>
    </g>
    <g id="text_33">
     <!-- NL -->
     <g transform="translate(157.009062 104.749062)scale(0.1 -0.1)">
      <use xlink:href="#DejaVuSans-4e"/>
      <use xlink:href="#DejaVuSans-4c" x="74.804688"/>
     </g>
    </g>
    <g id="line2d_54">
     <path d="M 129.009062 115.927188 
L 139.009062 115.927188 
L 149.009062 115.927188 
" style="fill: none; stroke: #8f7a00; stroke-width: 1.5; stroke-linecap: square"/>
    </g>
    <g id="text_34">
     <!-- PT -->
     <g transform="translate(157.009062 119.427188)scale(0.1 -0.1)">
      <defs>
       <path id="DejaVuSans-50" d="M 1259 4147 
L 1259 2394 
L 2053 2394 
Q 2494 2394 2734 2622 
Q 2975 2850 2975 3272 
Q 2975 3691 2734 3919 
Q 2494 4147 2053 4147 
L 1259 4147 
z
M 628 4666 
L 2053 4666 
Q 2838 4666 3239 4311 
Q 3641 3956 3641 3272 
Q 3641 2581 3239 2228 
Q 2838 1875 2053 1875 
L 1259 1875 
L 1259 0 
L 628 0 
L 628 4666 
z
" transform="scale(0.015625)"/>
      </defs>
      <use xlink:href="#DejaVuSans-50"/>
      <use xlink:href="#DejaVuSans-54" x="60.302734"/>
     </g>
    </g>
    <g id="line2d_55">
     <path d="M 129.009062 130.605312 
L 139.009062 130.605312 
L 149.009062 130.605312 
" style="fill: none; stroke: #ff7266; stroke-width: 1.5; stroke-linecap: square"/>
    </g>
    <g id="text_35">
     <!-- RO -->
     <g transform="translate(157.009062 134.105312)scale(0.1 -0.1)">
      <defs>
       <path id="DejaVuSans-4f" d="M 2522 4238 
Q 1834 4238 1429 3725 
Q 1025 3213 1025 2328 
Q 1025 1447 1429 934 
Q 1834 422 2522 422 
Q 3209 422 3611 934 
Q 4013 1447 4013 2328 
Q 4013 3213 3611 3725 
Q 3209 4238 2522 4238 
z
M 2522 4750 
Q 3503 4750 4090 4092 
Q 4678 3434 4678 2328 
Q 4678 1225 4090 567 
Q 3503 -91 2522 -91 
Q 1538 -91 948 565 
Q 359 1222 359 2328 
Q 359 3434 948 4092 
Q 1538 4750 2522 4750 
z
" transform="scale(0.015625)"/>
      </defs>
      <use xlink:href="#DejaVuSans-52"/>
      <use xlink:href="#DejaVuSans-4f" x="69.482422"/>
     </g>
    </g>
    <g id="line2d_56">
     <path d="M 129.009062 145.283437 
L 139.009062 145.283437 
L 149.009062 145.283437 
" style="fill: none; stroke: #eeb9b9; stroke-width: 1.5; stroke-linecap: square"/>
    </g>
    <g id="text_36">
     <!-- SE -->
     <g transform="translate(157.009062 148.783437)scale(0.1 -0.1)">
      <use xlink:href="#DejaVuSans-53"/>
      <use xlink:href="#DejaVuSans-45" x="63.476562"/>
     </g>
    </g>
    <g id="line2d_57">
     <path d="M 129.009062 159.961562 
L 139.009062 159.961562 
L 149.009062 159.961562 
" style="fill: none; stroke: #5e7e66; stroke-width: 1.5; stroke-linecap: square"/>
    </g>
    <g id="text_37">
     <!-- SI -->
     <g transform="translate(157.009062 163.461562)scale(0.1 -0.1)">
      <use xlink:href="#DejaVuSans-53"/>
      <use xlink:href="#DejaVuSans-49" x="63.476562"/>
     </g>
    </g>
    <g id="line2d_58">
     <path d="M 129.009062 174.639687 
L 139.009062 174.639687 
L 149.009062 174.639687 
" style="fill: none; stroke: #9be4ff; stroke-width: 1.5; stroke-linecap: square"/>
    </g>
    <g id="text_38">
     <!-- SK -->
     <g transform="translate(157.009062 178.139687)scale(0.1 -0.1)">
      <use xlink:href="#DejaVuSans-53"/>
      <use xlink:href="#DejaVuSans-4b" x="63.476562"/>
     </g>
    </g>
   </g>
  </g>
 </g>
 <defs>
  <clipPath id="p560569684a">
   <rect x="57.17" y="14.76" width="292.03" height="231.28"/>
  </clipPath>
 </defs>
</svg>
