<?xml version="1.0" encoding="utf-8" standalone="no"?>
<!DOCTYPE svg PUBLIC "-//W3C//DTD SVG 1.1//EN"
  "http://www.w3.org/Graphics/SVG/1.1/DTD/svg11.dtd">
<svg xmlns:xlink="http://www.w3.org/1999/xlink" width="360pt" height="288pt" viewBox="0 0 360 288" xmlns="http://www.w3.org/2000/svg" version="1.1">
 <metadata>
  <rdf:RDF xmlns:dc="http://purl.org/dc/elements/1.1/" xmlns:cc="http://creativecommons.org/ns#" xmlns:rdf="http://www.w3.org/1999/02/22-rdf-syntax-ns#">
   <cc:Work>
    <dc:type rdf:resource="http://purl.org/dc/dcmitype/StillImage"/>
    <dc:date>2024-01-29T16:59:09.185300</dc:date>
    <dc:format>image/svg+xml</dc:format>
    <dc:creator>
     <cc:Agent>
      <dc:title>Matplotlib v3.5.1, https://matplotlib.org/</dc:title>
     </cc:Agent>
    </dc:creator>
   </cc:Work>
  </rdf:RDF>
 </metadata>
 <defs>
  <style type="text/css">*{stroke-linejoin: round; stroke-linecap: butt}</style>
 </defs>
 <g id="figure_1">
  <g id="patch_1">
   <path d="M 0 288 
L 360 288 
L 360 0 
L 0 0 
L 0 288 
z
" style="fill: none"/>
  </g>
  <g id="axes_1">
   <g id="patch_2">
    <path d="M 57.17 246.04 
L 349.2 246.04 
L 349.2 10.8 
L 57.17 10.8 
L 57.17 246.04 
z
" style="fill: none"/>
   </g>
   <g id="matplotlib.axis_1">
    <g id="xtick_1">
     <g id="line2d_1">
      <defs>
       <path id="m86753d5dd0" d="M 0 0 
L 0 3.5 
" style="stroke: #000000; stroke-width: 0.8"/>
      </defs>
      <g>
       <use xlink:href="#m86753d5dd0" x="90.226106" y="246.04" style="stroke: #000000; stroke-width: 0.8"/>
      </g>
     </g>
     <g id="text_1">
      <!-- 20 -->
      <g transform="translate(83.863606 260.638438)scale(0.1 -0.1)">
       <defs>
        <path id="DejaVuSans-32" d="M 1228 531 
L 3431 531 
L 3431 0 
L 469 0 
L 469 531 
Q 828 903 1448 1529 
Q 2069 2156 2228 2338 
Q 2531 2678 2651 2914 
Q 2772 3150 2772 3378 
Q 2772 3750 2511 3984 
Q 2250 4219 1831 4219 
Q 1534 4219 1204 4116 
Q 875 4013 500 3803 
L 500 4441 
Q 881 4594 1212 4672 
Q 1544 4750 1819 4750 
Q 2544 4750 2975 4387 
Q 3406 4025 3406 3419 
Q 3406 3131 3298 2873 
Q 3191 2616 2906 2266 
Q 2828 2175 2409 1742 
Q 1991 1309 1228 531 
z
" transform="scale(0.015625)"/>
        <path id="DejaVuSans-30" d="M 2034 4250 
Q 1547 4250 1301 3770 
Q 1056 3291 1056 2328 
Q 1056 1369 1301 889 
Q 1547 409 2034 409 
Q 2525 409 2770 889 
Q 3016 1369 3016 2328 
Q 3016 3291 2770 3770 
Q 2525 4250 2034 4250 
z
M 2034 4750 
Q 2819 4750 3233 4129 
Q 3647 3509 3647 2328 
Q 3647 1150 3233 529 
Q 2819 -91 2034 -91 
Q 1250 -91 836 529 
Q 422 1150 422 2328 
Q 422 3509 836 4129 
Q 1250 4750 2034 4750 
z
" transform="scale(0.015625)"/>
       </defs>
       <use xlink:href="#DejaVuSans-32"/>
       <use xlink:href="#DejaVuSans-30" x="63.623047"/>
      </g>
     </g>
    </g>
    <g id="xtick_2">
     <g id="line2d_2">
      <g>
       <use xlink:href="#m86753d5dd0" x="124.88787" y="246.04" style="stroke: #000000; stroke-width: 0.8"/>
      </g>
     </g>
     <g id="text_2">
      <!-- 40 -->
      <g transform="translate(118.52537 260.638438)scale(0.1 -0.1)">
       <defs>
        <path id="DejaVuSans-34" d="M 2419 4116 
L 825 1625 
L 2419 1625 
L 2419 4116 
z
M 2253 4666 
L 3047 4666 
L 3047 1625 
L 3713 1625 
L 3713 1100 
L 3047 1100 
L 3047 0 
L 2419 0 
L 2419 1100 
L 313 1100 
L 313 1709 
L 2253 4666 
z
" transform="scale(0.015625)"/>
       </defs>
       <use xlink:href="#DejaVuSans-34"/>
       <use xlink:href="#DejaVuSans-30" x="63.623047"/>
      </g>
     </g>
    </g>
    <g id="xtick_3">
     <g id="line2d_3">
      <g>
       <use xlink:href="#m86753d5dd0" x="159.549634" y="246.04" style="stroke: #000000; stroke-width: 0.8"/>
      </g>
     </g>
     <g id="text_3">
      <!-- 60 -->
      <g transform="translate(153.187134 260.638438)scale(0.1 -0.1)">
       <defs>
        <path id="DejaVuSans-36" d="M 2113 2584 
Q 1688 2584 1439 2293 
Q 1191 2003 1191 1497 
Q 1191 994 1439 701 
Q 1688 409 2113 409 
Q 2538 409 2786 701 
Q 3034 994 3034 1497 
Q 3034 2003 2786 2293 
Q 2538 2584 2113 2584 
z
M 3366 4563 
L 3366 3988 
Q 3128 4100 2886 4159 
Q 2644 4219 2406 4219 
Q 1781 4219 1451 3797 
Q 1122 3375 1075 2522 
Q 1259 2794 1537 2939 
Q 1816 3084 2150 3084 
Q 2853 3084 3261 2657 
Q 3669 2231 3669 1497 
Q 3669 778 3244 343 
Q 2819 -91 2113 -91 
Q 1303 -91 875 529 
Q 447 1150 447 2328 
Q 447 3434 972 4092 
Q 1497 4750 2381 4750 
Q 2619 4750 2861 4703 
Q 3103 4656 3366 4563 
z
" transform="scale(0.015625)"/>
       </defs>
       <use xlink:href="#DejaVuSans-36"/>
       <use xlink:href="#DejaVuSans-30" x="63.623047"/>
      </g>
     </g>
    </g>
    <g id="xtick_4">
     <g id="line2d_4">
      <g>
       <use xlink:href="#m86753d5dd0" x="194.211397" y="246.04" style="stroke: #000000; stroke-width: 0.8"/>
      </g>
     </g>
     <g id="text_4">
      <!-- 80 -->
      <g transform="translate(187.848897 260.638438)scale(0.1 -0.1)">
       <defs>
        <path id="DejaVuSans-38" d="M 2034 2216 
Q 1584 2216 1326 1975 
Q 1069 1734 1069 1313 
Q 1069 891 1326 650 
Q 1584 409 2034 409 
Q 2484 409 2743 651 
Q 3003 894 3003 1313 
Q 3003 1734 2745 1975 
Q 2488 2216 2034 2216 
z
M 1403 2484 
Q 997 2584 770 2862 
Q 544 3141 544 3541 
Q 544 4100 942 4425 
Q 1341 4750 2034 4750 
Q 2731 4750 3128 4425 
Q 3525 4100 3525 3541 
Q 3525 3141 3298 2862 
Q 3072 2584 2669 2484 
Q 3125 2378 3379 2068 
Q 3634 1759 3634 1313 
Q 3634 634 3220 271 
Q 2806 -91 2034 -91 
Q 1263 -91 848 271 
Q 434 634 434 1313 
Q 434 1759 690 2068 
Q 947 2378 1403 2484 
z
M 1172 3481 
Q 1172 3119 1398 2916 
Q 1625 2713 2034 2713 
Q 2441 2713 2670 2916 
Q 2900 3119 2900 3481 
Q 2900 3844 2670 4047 
Q 2441 4250 2034 4250 
Q 1625 4250 1398 4047 
Q 1172 3844 1172 3481 
z
" transform="scale(0.015625)"/>
       </defs>
       <use xlink:href="#DejaVuSans-38"/>
       <use xlink:href="#DejaVuSans-30" x="63.623047"/>
      </g>
     </g>
    </g>
    <g id="xtick_5">
     <g id="line2d_5">
      <g>
       <use xlink:href="#m86753d5dd0" x="228.873161" y="246.04" style="stroke: #000000; stroke-width: 0.8"/>
      </g>
     </g>
     <g id="text_5">
      <!-- 100 -->
      <g transform="translate(219.329411 260.638438)scale(0.1 -0.1)">
       <defs>
        <path id="DejaVuSans-31" d="M 794 531 
L 1825 531 
L 1825 4091 
L 703 3866 
L 703 4441 
L 1819 4666 
L 2450 4666 
L 2450 531 
L 3481 531 
L 3481 0 
L 794 0 
L 794 531 
z
" transform="scale(0.015625)"/>
       </defs>
       <use xlink:href="#DejaVuSans-31"/>
       <use xlink:href="#DejaVuSans-30" x="63.623047"/>
       <use xlink:href="#DejaVuSans-30" x="127.246094"/>
      </g>
     </g>
    </g>
    <g id="xtick_6">
     <g id="line2d_6">
      <g>
       <use xlink:href="#m86753d5dd0" x="263.534925" y="246.04" style="stroke: #000000; stroke-width: 0.8"/>
      </g>
     </g>
     <g id="text_6">
      <!-- 120 -->
      <g transform="translate(253.991175 260.638438)scale(0.1 -0.1)">
       <use xlink:href="#DejaVuSans-31"/>
       <use xlink:href="#DejaVuSans-32" x="63.623047"/>
       <use xlink:href="#DejaVuSans-30" x="127.246094"/>
      </g>
     </g>
    </g>
    <g id="xtick_7">
     <g id="line2d_7">
      <g>
       <use xlink:href="#m86753d5dd0" x="298.196688" y="246.04" style="stroke: #000000; stroke-width: 0.8"/>
      </g>
     </g>
     <g id="text_7">
      <!-- 140 -->
      <g transform="translate(288.652938 260.638438)scale(0.1 -0.1)">
       <use xlink:href="#DejaVuSans-31"/>
       <use xlink:href="#DejaVuSans-34" x="63.623047"/>
       <use xlink:href="#DejaVuSans-30" x="127.246094"/>
      </g>
     </g>
    </g>
    <g id="xtick_8">
     <g id="line2d_8">
      <g>
       <use xlink:href="#m86753d5dd0" x="332.858452" y="246.04" style="stroke: #000000; stroke-width: 0.8"/>
      </g>
     </g>
     <g id="text_8">
      <!-- 160 -->
      <g transform="translate(323.314702 260.638438)scale(0.1 -0.1)">
       <use xlink:href="#DejaVuSans-31"/>
       <use xlink:href="#DejaVuSans-36" x="63.623047"/>
       <use xlink:href="#DejaVuSans-30" x="127.246094"/>
      </g>
     </g>
    </g>
    <g id="text_9">
     <!-- Urban Density -->
     <g transform="translate(167.465469 274.316562)scale(0.1 -0.1)">
      <defs>
       <path id="DejaVuSans-55" d="M 556 4666 
L 1191 4666 
L 1191 1831 
Q 1191 1081 1462 751 
Q 1734 422 2344 422 
Q 2950 422 3222 751 
Q 3494 1081 3494 1831 
L 3494 4666 
L 4128 4666 
L 4128 1753 
Q 4128 841 3676 375 
Q 3225 -91 2344 -91 
Q 1459 -91 1007 375 
Q 556 841 556 1753 
L 556 4666 
z
" transform="scale(0.015625)"/>
       <path id="DejaVuSans-72" d="M 2631 2963 
Q 2534 3019 2420 3045 
Q 2306 3072 2169 3072 
Q 1681 3072 1420 2755 
Q 1159 2438 1159 1844 
L 1159 0 
L 581 0 
L 581 3500 
L 1159 3500 
L 1159 2956 
Q 1341 3275 1631 3429 
Q 1922 3584 2338 3584 
Q 2397 3584 2469 3576 
Q 2541 3569 2628 3553 
L 2631 2963 
z
" transform="scale(0.015625)"/>
       <path id="DejaVuSans-62" d="M 3116 1747 
Q 3116 2381 2855 2742 
Q 2594 3103 2138 3103 
Q 1681 3103 1420 2742 
Q 1159 2381 1159 1747 
Q 1159 1113 1420 752 
Q 1681 391 2138 391 
Q 2594 391 2855 752 
Q 3116 1113 3116 1747 
z
M 1159 2969 
Q 1341 3281 1617 3432 
Q 1894 3584 2278 3584 
Q 2916 3584 3314 3078 
Q 3713 2572 3713 1747 
Q 3713 922 3314 415 
Q 2916 -91 2278 -91 
Q 1894 -91 1617 61 
Q 1341 213 1159 525 
L 1159 0 
L 581 0 
L 581 4863 
L 1159 4863 
L 1159 2969 
z
" transform="scale(0.015625)"/>
       <path id="DejaVuSans-61" d="M 2194 1759 
Q 1497 1759 1228 1600 
Q 959 1441 959 1056 
Q 959 750 1161 570 
Q 1363 391 1709 391 
Q 2188 391 2477 730 
Q 2766 1069 2766 1631 
L 2766 1759 
L 2194 1759 
z
M 3341 1997 
L 3341 0 
L 2766 0 
L 2766 531 
Q 2569 213 2275 61 
Q 1981 -91 1556 -91 
Q 1019 -91 701 211 
Q 384 513 384 1019 
Q 384 1609 779 1909 
Q 1175 2209 1959 2209 
L 2766 2209 
L 2766 2266 
Q 2766 2663 2505 2880 
Q 2244 3097 1772 3097 
Q 1472 3097 1187 3025 
Q 903 2953 641 2809 
L 641 3341 
Q 956 3463 1253 3523 
Q 1550 3584 1831 3584 
Q 2591 3584 2966 3190 
Q 3341 2797 3341 1997 
z
" transform="scale(0.015625)"/>
       <path id="DejaVuSans-6e" d="M 3513 2113 
L 3513 0 
L 2938 0 
L 2938 2094 
Q 2938 2591 2744 2837 
Q 2550 3084 2163 3084 
Q 1697 3084 1428 2787 
Q 1159 2491 1159 1978 
L 1159 0 
L 581 0 
L 581 3500 
L 1159 3500 
L 1159 2956 
Q 1366 3272 1645 3428 
Q 1925 3584 2291 3584 
Q 2894 3584 3203 3211 
Q 3513 2838 3513 2113 
z
" transform="scale(0.015625)"/>
       <path id="DejaVuSans-20" transform="scale(0.015625)"/>
       <path id="DejaVuSans-44" d="M 1259 4147 
L 1259 519 
L 2022 519 
Q 2988 519 3436 956 
Q 3884 1394 3884 2338 
Q 3884 3275 3436 3711 
Q 2988 4147 2022 4147 
L 1259 4147 
z
M 628 4666 
L 1925 4666 
Q 3281 4666 3915 4102 
Q 4550 3538 4550 2338 
Q 4550 1131 3912 565 
Q 3275 0 1925 0 
L 628 0 
L 628 4666 
z
" transform="scale(0.015625)"/>
       <path id="DejaVuSans-65" d="M 3597 1894 
L 3597 1613 
L 953 1613 
Q 991 1019 1311 708 
Q 1631 397 2203 397 
Q 2534 397 2845 478 
Q 3156 559 3463 722 
L 3463 178 
Q 3153 47 2828 -22 
Q 2503 -91 2169 -91 
Q 1331 -91 842 396 
Q 353 884 353 1716 
Q 353 2575 817 3079 
Q 1281 3584 2069 3584 
Q 2775 3584 3186 3129 
Q 3597 2675 3597 1894 
z
M 3022 2063 
Q 3016 2534 2758 2815 
Q 2500 3097 2075 3097 
Q 1594 3097 1305 2825 
Q 1016 2553 972 2059 
L 3022 2063 
z
" transform="scale(0.015625)"/>
       <path id="DejaVuSans-73" d="M 2834 3397 
L 2834 2853 
Q 2591 2978 2328 3040 
Q 2066 3103 1784 3103 
Q 1356 3103 1142 2972 
Q 928 2841 928 2578 
Q 928 2378 1081 2264 
Q 1234 2150 1697 2047 
L 1894 2003 
Q 2506 1872 2764 1633 
Q 3022 1394 3022 966 
Q 3022 478 2636 193 
Q 2250 -91 1575 -91 
Q 1294 -91 989 -36 
Q 684 19 347 128 
L 347 722 
Q 666 556 975 473 
Q 1284 391 1588 391 
Q 1994 391 2212 530 
Q 2431 669 2431 922 
Q 2431 1156 2273 1281 
Q 2116 1406 1581 1522 
L 1381 1569 
Q 847 1681 609 1914 
Q 372 2147 372 2553 
Q 372 3047 722 3315 
Q 1072 3584 1716 3584 
Q 2034 3584 2315 3537 
Q 2597 3491 2834 3397 
z
" transform="scale(0.015625)"/>
       <path id="DejaVuSans-69" d="M 603 3500 
L 1178 3500 
L 1178 0 
L 603 0 
L 603 3500 
z
M 603 4863 
L 1178 4863 
L 1178 4134 
L 603 4134 
L 603 4863 
z
" transform="scale(0.015625)"/>
       <path id="DejaVuSans-74" d="M 1172 4494 
L 1172 3500 
L 2356 3500 
L 2356 3053 
L 1172 3053 
L 1172 1153 
Q 1172 725 1289 603 
Q 1406 481 1766 481 
L 2356 481 
L 2356 0 
L 1766 0 
Q 1100 0 847 248 
Q 594 497 594 1153 
L 594 3053 
L 172 3053 
L 172 3500 
L 594 3500 
L 594 4494 
L 1172 4494 
z
" transform="scale(0.015625)"/>
       <path id="DejaVuSans-79" d="M 2059 -325 
Q 1816 -950 1584 -1140 
Q 1353 -1331 966 -1331 
L 506 -1331 
L 506 -850 
L 844 -850 
Q 1081 -850 1212 -737 
Q 1344 -625 1503 -206 
L 1606 56 
L 191 3500 
L 800 3500 
L 1894 763 
L 2988 3500 
L 3597 3500 
L 2059 -325 
z
" transform="scale(0.015625)"/>
      </defs>
      <use xlink:href="#DejaVuSans-55"/>
      <use xlink:href="#DejaVuSans-72" x="73.193359"/>
      <use xlink:href="#DejaVuSans-62" x="114.306641"/>
      <use xlink:href="#DejaVuSans-61" x="177.783203"/>
      <use xlink:href="#DejaVuSans-6e" x="239.0625"/>
      <use xlink:href="#DejaVuSans-20" x="302.441406"/>
      <use xlink:href="#DejaVuSans-44" x="334.228516"/>
      <use xlink:href="#DejaVuSans-65" x="411.230469"/>
      <use xlink:href="#DejaVuSans-6e" x="472.753906"/>
      <use xlink:href="#DejaVuSans-73" x="536.132812"/>
      <use xlink:href="#DejaVuSans-69" x="588.232422"/>
      <use xlink:href="#DejaVuSans-74" x="616.015625"/>
      <use xlink:href="#DejaVuSans-79" x="655.224609"/>
     </g>
    </g>
   </g>
   <g id="matplotlib.axis_2">
    <g id="ytick_1">
     <g id="line2d_9">
      <defs>
       <path id="m2598201c58" d="M 0 0 
L -3.5 0 
" style="stroke: #000000; stroke-width: 0.8"/>
      </defs>
      <g>
       <use xlink:href="#m2598201c58" x="57.17" y="246.04" style="stroke: #000000; stroke-width: 0.8"/>
      </g>
     </g>
     <g id="text_10">
      <!-- 0 -->
      <g transform="translate(43.8075 249.839219)scale(0.1 -0.1)">
       <use xlink:href="#DejaVuSans-30"/>
      </g>
     </g>
    </g>
    <g id="ytick_2">
     <g id="line2d_10">
      <g>
       <use xlink:href="#m2598201c58" x="57.17" y="213.367778" style="stroke: #000000; stroke-width: 0.8"/>
      </g>
     </g>
     <g id="text_11">
      <!-- 1000 -->
      <g transform="translate(24.72 217.166997)scale(0.1 -0.1)">
       <use xlink:href="#DejaVuSans-31"/>
       <use xlink:href="#DejaVuSans-30" x="63.623047"/>
       <use xlink:href="#DejaVuSans-30" x="127.246094"/>
       <use xlink:href="#DejaVuSans-30" x="190.869141"/>
      </g>
     </g>
    </g>
    <g id="ytick_3">
     <g id="line2d_11">
      <g>
       <use xlink:href="#m2598201c58" x="57.17" y="180.695556" style="stroke: #000000; stroke-width: 0.8"/>
      </g>
     </g>
     <g id="text_12">
      <!-- 2000 -->
      <g transform="translate(24.72 184.494774)scale(0.1 -0.1)">
       <use xlink:href="#DejaVuSans-32"/>
       <use xlink:href="#DejaVuSans-30" x="63.623047"/>
       <use xlink:href="#DejaVuSans-30" x="127.246094"/>
       <use xlink:href="#DejaVuSans-30" x="190.869141"/>
      </g>
     </g>
    </g>
    <g id="ytick_4">
     <g id="line2d_12">
      <g>
       <use xlink:href="#m2598201c58" x="57.17" y="148.023333" style="stroke: #000000; stroke-width: 0.8"/>
      </g>
     </g>
     <g id="text_13">
      <!-- 3000 -->
      <g transform="translate(24.72 151.822552)scale(0.1 -0.1)">
       <defs>
        <path id="DejaVuSans-33" d="M 2597 2516 
Q 3050 2419 3304 2112 
Q 3559 1806 3559 1356 
Q 3559 666 3084 287 
Q 2609 -91 1734 -91 
Q 1441 -91 1130 -33 
Q 819 25 488 141 
L 488 750 
Q 750 597 1062 519 
Q 1375 441 1716 441 
Q 2309 441 2620 675 
Q 2931 909 2931 1356 
Q 2931 1769 2642 2001 
Q 2353 2234 1838 2234 
L 1294 2234 
L 1294 2753 
L 1863 2753 
Q 2328 2753 2575 2939 
Q 2822 3125 2822 3475 
Q 2822 3834 2567 4026 
Q 2313 4219 1838 4219 
Q 1578 4219 1281 4162 
Q 984 4106 628 3988 
L 628 4550 
Q 988 4650 1302 4700 
Q 1616 4750 1894 4750 
Q 2613 4750 3031 4423 
Q 3450 4097 3450 3541 
Q 3450 3153 3228 2886 
Q 3006 2619 2597 2516 
z
" transform="scale(0.015625)"/>
       </defs>
       <use xlink:href="#DejaVuSans-33"/>
       <use xlink:href="#DejaVuSans-30" x="63.623047"/>
       <use xlink:href="#DejaVuSans-30" x="127.246094"/>
       <use xlink:href="#DejaVuSans-30" x="190.869141"/>
      </g>
     </g>
    </g>
    <g id="ytick_5">
     <g id="line2d_13">
      <g>
       <use xlink:href="#m2598201c58" x="57.17" y="115.351111" style="stroke: #000000; stroke-width: 0.8"/>
      </g>
     </g>
     <g id="text_14">
      <!-- 4000 -->
      <g transform="translate(24.72 119.15033)scale(0.1 -0.1)">
       <use xlink:href="#DejaVuSans-34"/>
       <use xlink:href="#DejaVuSans-30" x="63.623047"/>
       <use xlink:href="#DejaVuSans-30" x="127.246094"/>
       <use xlink:href="#DejaVuSans-30" x="190.869141"/>
      </g>
     </g>
    </g>
    <g id="ytick_6">
     <g id="line2d_14">
      <g>
       <use xlink:href="#m2598201c58" x="57.17" y="82.678889" style="stroke: #000000; stroke-width: 0.8"/>
      </g>
     </g>
     <g id="text_15">
      <!-- 5000 -->
      <g transform="translate(24.72 86.478108)scale(0.1 -0.1)">
       <defs>
        <path id="DejaVuSans-35" d="M 691 4666 
L 3169 4666 
L 3169 4134 
L 1269 4134 
L 1269 2991 
Q 1406 3038 1543 3061 
Q 1681 3084 1819 3084 
Q 2600 3084 3056 2656 
Q 3513 2228 3513 1497 
Q 3513 744 3044 326 
Q 2575 -91 1722 -91 
Q 1428 -91 1123 -41 
Q 819 9 494 109 
L 494 744 
Q 775 591 1075 516 
Q 1375 441 1709 441 
Q 2250 441 2565 725 
Q 2881 1009 2881 1497 
Q 2881 1984 2565 2268 
Q 2250 2553 1709 2553 
Q 1456 2553 1204 2497 
Q 953 2441 691 2322 
L 691 4666 
z
" transform="scale(0.015625)"/>
       </defs>
       <use xlink:href="#DejaVuSans-35"/>
       <use xlink:href="#DejaVuSans-30" x="63.623047"/>
       <use xlink:href="#DejaVuSans-30" x="127.246094"/>
       <use xlink:href="#DejaVuSans-30" x="190.869141"/>
      </g>
     </g>
    </g>
    <g id="ytick_7">
     <g id="line2d_15">
      <g>
       <use xlink:href="#m2598201c58" x="57.17" y="50.006667" style="stroke: #000000; stroke-width: 0.8"/>
      </g>
     </g>
     <g id="text_16">
      <!-- 6000 -->
      <g transform="translate(24.72 53.805885)scale(0.1 -0.1)">
       <use xlink:href="#DejaVuSans-36"/>
       <use xlink:href="#DejaVuSans-30" x="63.623047"/>
       <use xlink:href="#DejaVuSans-30" x="127.246094"/>
       <use xlink:href="#DejaVuSans-30" x="190.869141"/>
      </g>
     </g>
    </g>
    <g id="ytick_8">
     <g id="line2d_16">
      <g>
       <use xlink:href="#m2598201c58" x="57.17" y="17.334444" style="stroke: #000000; stroke-width: 0.8"/>
      </g>
     </g>
     <g id="text_17">
      <!-- 7000 -->
      <g transform="translate(24.72 21.133663)scale(0.1 -0.1)">
       <defs>
        <path id="DejaVuSans-37" d="M 525 4666 
L 3525 4666 
L 3525 4397 
L 1831 0 
L 1172 0 
L 2766 4134 
L 525 4134 
L 525 4666 
z
" transform="scale(0.015625)"/>
       </defs>
       <use xlink:href="#DejaVuSans-37"/>
       <use xlink:href="#DejaVuSans-30" x="63.623047"/>
       <use xlink:href="#DejaVuSans-30" x="127.246094"/>
       <use xlink:href="#DejaVuSans-30" x="190.869141"/>
      </g>
     </g>
    </g>
    <g id="text_18">
     <!-- Number of Burglaries -->
     <g transform="translate(18.640312 181.823906)rotate(-90)scale(0.1 -0.1)">
      <defs>
       <path id="DejaVuSans-4e" d="M 628 4666 
L 1478 4666 
L 3547 763 
L 3547 4666 
L 4159 4666 
L 4159 0 
L 3309 0 
L 1241 3903 
L 1241 0 
L 628 0 
L 628 4666 
z
" transform="scale(0.015625)"/>
       <path id="DejaVuSans-75" d="M 544 1381 
L 544 3500 
L 1119 3500 
L 1119 1403 
Q 1119 906 1312 657 
Q 1506 409 1894 409 
Q 2359 409 2629 706 
Q 2900 1003 2900 1516 
L 2900 3500 
L 3475 3500 
L 3475 0 
L 2900 0 
L 2900 538 
Q 2691 219 2414 64 
Q 2138 -91 1772 -91 
Q 1169 -91 856 284 
Q 544 659 544 1381 
z
M 1991 3584 
L 1991 3584 
z
" transform="scale(0.015625)"/>
       <path id="DejaVuSans-6d" d="M 3328 2828 
Q 3544 3216 3844 3400 
Q 4144 3584 4550 3584 
Q 5097 3584 5394 3201 
Q 5691 2819 5691 2113 
L 5691 0 
L 5113 0 
L 5113 2094 
Q 5113 2597 4934 2840 
Q 4756 3084 4391 3084 
Q 3944 3084 3684 2787 
Q 3425 2491 3425 1978 
L 3425 0 
L 2847 0 
L 2847 2094 
Q 2847 2600 2669 2842 
Q 2491 3084 2119 3084 
Q 1678 3084 1418 2786 
Q 1159 2488 1159 1978 
L 1159 0 
L 581 0 
L 581 3500 
L 1159 3500 
L 1159 2956 
Q 1356 3278 1631 3431 
Q 1906 3584 2284 3584 
Q 2666 3584 2933 3390 
Q 3200 3197 3328 2828 
z
" transform="scale(0.015625)"/>
       <path id="DejaVuSans-6f" d="M 1959 3097 
Q 1497 3097 1228 2736 
Q 959 2375 959 1747 
Q 959 1119 1226 758 
Q 1494 397 1959 397 
Q 2419 397 2687 759 
Q 2956 1122 2956 1747 
Q 2956 2369 2687 2733 
Q 2419 3097 1959 3097 
z
M 1959 3584 
Q 2709 3584 3137 3096 
Q 3566 2609 3566 1747 
Q 3566 888 3137 398 
Q 2709 -91 1959 -91 
Q 1206 -91 779 398 
Q 353 888 353 1747 
Q 353 2609 779 3096 
Q 1206 3584 1959 3584 
z
" transform="scale(0.015625)"/>
       <path id="DejaVuSans-66" d="M 2375 4863 
L 2375 4384 
L 1825 4384 
Q 1516 4384 1395 4259 
Q 1275 4134 1275 3809 
L 1275 3500 
L 2222 3500 
L 2222 3053 
L 1275 3053 
L 1275 0 
L 697 0 
L 697 3053 
L 147 3053 
L 147 3500 
L 697 3500 
L 697 3744 
Q 697 4328 969 4595 
Q 1241 4863 1831 4863 
L 2375 4863 
z
" transform="scale(0.015625)"/>
       <path id="DejaVuSans-42" d="M 1259 2228 
L 1259 519 
L 2272 519 
Q 2781 519 3026 730 
Q 3272 941 3272 1375 
Q 3272 1813 3026 2020 
Q 2781 2228 2272 2228 
L 1259 2228 
z
M 1259 4147 
L 1259 2741 
L 2194 2741 
Q 2656 2741 2882 2914 
Q 3109 3088 3109 3444 
Q 3109 3797 2882 3972 
Q 2656 4147 2194 4147 
L 1259 4147 
z
M 628 4666 
L 2241 4666 
Q 2963 4666 3353 4366 
Q 3744 4066 3744 3513 
Q 3744 3084 3544 2831 
Q 3344 2578 2956 2516 
Q 3422 2416 3680 2098 
Q 3938 1781 3938 1306 
Q 3938 681 3513 340 
Q 3088 0 2303 0 
L 628 0 
L 628 4666 
z
" transform="scale(0.015625)"/>
       <path id="DejaVuSans-67" d="M 2906 1791 
Q 2906 2416 2648 2759 
Q 2391 3103 1925 3103 
Q 1463 3103 1205 2759 
Q 947 2416 947 1791 
Q 947 1169 1205 825 
Q 1463 481 1925 481 
Q 2391 481 2648 825 
Q 2906 1169 2906 1791 
z
M 3481 434 
Q 3481 -459 3084 -895 
Q 2688 -1331 1869 -1331 
Q 1566 -1331 1297 -1286 
Q 1028 -1241 775 -1147 
L 775 -588 
Q 1028 -725 1275 -790 
Q 1522 -856 1778 -856 
Q 2344 -856 2625 -561 
Q 2906 -266 2906 331 
L 2906 616 
Q 2728 306 2450 153 
Q 2172 0 1784 0 
Q 1141 0 747 490 
Q 353 981 353 1791 
Q 353 2603 747 3093 
Q 1141 3584 1784 3584 
Q 2172 3584 2450 3431 
Q 2728 3278 2906 2969 
L 2906 3500 
L 3481 3500 
L 3481 434 
z
" transform="scale(0.015625)"/>
       <path id="DejaVuSans-6c" d="M 603 4863 
L 1178 4863 
L 1178 0 
L 603 0 
L 603 4863 
z
" transform="scale(0.015625)"/>
      </defs>
      <use xlink:href="#DejaVuSans-4e"/>
      <use xlink:href="#DejaVuSans-75" x="74.804688"/>
      <use xlink:href="#DejaVuSans-6d" x="138.183594"/>
      <use xlink:href="#DejaVuSans-62" x="235.595703"/>
      <use xlink:href="#DejaVuSans-65" x="299.072266"/>
      <use xlink:href="#DejaVuSans-72" x="360.595703"/>
      <use xlink:href="#DejaVuSans-20" x="401.708984"/>
      <use xlink:href="#DejaVuSans-6f" x="433.496094"/>
      <use xlink:href="#DejaVuSans-66" x="494.677734"/>
      <use xlink:href="#DejaVuSans-20" x="529.882812"/>
      <use xlink:href="#DejaVuSans-42" x="561.669922"/>
      <use xlink:href="#DejaVuSans-75" x="630.273438"/>
      <use xlink:href="#DejaVuSans-72" x="693.652344"/>
      <use xlink:href="#DejaVuSans-67" x="733.015625"/>
      <use xlink:href="#DejaVuSans-6c" x="796.492188"/>
      <use xlink:href="#DejaVuSans-61" x="824.275391"/>
      <use xlink:href="#DejaVuSans-72" x="885.554688"/>
      <use xlink:href="#DejaVuSans-69" x="926.667969"/>
      <use xlink:href="#DejaVuSans-65" x="954.451172"/>
      <use xlink:href="#DejaVuSans-73" x="1015.974609"/>
     </g>
    </g>
   </g>
   <g id="line2d_17">
    <path d="M 92.625429 289 
L 92.928776 288.865263 
L 98.888571 286.218101 
L 104.848367 283.57094 
L 110.808163 280.923779 
L 116.767959 278.276618 
L 122.727755 275.629457 
L 128.687551 272.982296 
L 134.647347 270.335135 
L 140.607143 267.687974 
L 146.566939 265.040812 
L 152.526735 262.393651 
L 158.486531 259.74649 
L 164.446327 257.099329 
L 170.406122 254.452168 
L 176.365918 251.805007 
L 182.325714 249.157846 
L 188.28551 246.510685 
L 194.245306 243.863523 
L 200.205102 241.216362 
L 206.164898 238.569201 
L 212.124694 235.92204 
L 218.08449 233.274879 
L 224.044286 230.627718 
L 230.004082 227.980557 
L 235.963878 225.333396 
L 241.923673 222.686234 
L 247.883469 220.039073 
L 253.843265 217.391912 
L 259.803061 214.744751 
L 265.762857 212.09759 
L 271.722653 209.450429 
L 277.682449 206.803268 
L 283.642245 204.156107 
L 289.602041 201.508945 
L 295.561837 198.861784 
L 301.521633 196.214623 
L 307.481429 193.567462 
L 313.441224 190.920301 
L 319.40102 188.27314 
L 325.360816 185.625979 
L 331.320612 182.978818 
L 337.280408 180.331656 
L 343.240204 177.684495 
L 349.2 175.037334 
" clip-path="url(#p13f1a07cf7)" style="fill: none; stroke: #d70000; stroke-width: 1.5; stroke-linecap: square"/>
   </g>
   <g id="line2d_18">
    <path d="M 57.17 162.929828 
L 63.129796 160.458455 
L 69.089592 157.987081 
L 75.049388 155.515708 
L 81.009184 153.044335 
L 86.96898 150.572961 
L 92.928776 148.101588 
L 98.888571 145.630215 
L 104.848367 143.158841 
L 110.808163 140.687468 
L 116.767959 138.216095 
L 122.727755 135.744721 
L 128.687551 133.273348 
L 134.647347 130.801975 
L 140.607143 128.330601 
L 146.566939 125.859228 
L 152.526735 123.387855 
L 158.486531 120.916481 
L 164.446327 118.445108 
L 170.406122 115.973735 
L 176.365918 113.502361 
L 182.325714 111.030988 
L 188.28551 108.559615 
L 194.245306 106.088241 
L 200.205102 103.616868 
L 206.164898 101.145495 
L 212.124694 98.674121 
L 218.08449 96.202748 
L 224.044286 93.731375 
L 230.004082 91.260001 
L 235.963878 88.788628 
L 241.923673 86.317255 
L 247.883469 83.845881 
L 253.843265 81.374508 
L 259.803061 78.903135 
L 265.762857 76.431761 
L 271.722653 73.960388 
L 277.682449 71.489015 
L 283.642245 69.017641 
L 289.602041 66.546268 
L 295.561837 64.074895 
L 301.521633 61.603521 
L 307.481429 59.132148 
L 313.441224 56.660775 
L 319.40102 54.189401 
L 325.360816 51.718028 
L 331.320612 49.246655 
L 337.280408 46.775281 
L 343.240204 44.303908 
L 349.2 41.832535 
" clip-path="url(#p13f1a07cf7)" style="fill: none; stroke: #8c3cff; stroke-width: 1.5; stroke-linecap: square"/>
   </g>
   <g id="line2d_19">
    <path d="M 57.17 224.233911 
L 63.129796 223.916677 
L 69.089592 223.599443 
L 75.049388 223.282209 
L 81.009184 222.964975 
L 86.96898 222.647741 
L 92.928776 222.330506 
L 98.888571 222.013272 
L 104.848367 221.696038 
L 110.808163 221.378804 
L 116.767959 221.06157 
L 122.727755 220.744336 
L 128.687551 220.427102 
L 134.647347 220.109868 
L 140.607143 219.792634 
L 146.566939 219.475399 
L 152.526735 219.158165 
L 158.486531 218.840931 
L 164.446327 218.523697 
L 170.406122 218.206463 
L 176.365918 217.889229 
L 182.325714 217.571995 
L 188.28551 217.254761 
L 194.245306 216.937527 
L 200.205102 216.620293 
L 206.164898 216.303058 
L 212.124694 215.985824 
L 218.08449 215.66859 
L 224.044286 215.351356 
L 230.004082 215.034122 
L 235.963878 214.716888 
L 241.923673 214.399654 
L 247.883469 214.08242 
L 253.843265 213.765186 
L 259.803061 213.447952 
L 265.762857 213.130717 
L 271.722653 212.813483 
L 277.682449 212.496249 
L 283.642245 212.179015 
L 289.602041 211.861781 
L 295.561837 211.544547 
L 301.521633 211.227313 
L 307.481429 210.910079 
L 313.441224 210.592845 
L 319.40102 210.275611 
L 325.360816 209.958376 
L 331.320612 209.641142 
L 337.280408 209.323908 
L 343.240204 209.006674 
L 349.2 208.68944 
" clip-path="url(#p13f1a07cf7)" style="fill: none; stroke: #028800; stroke-width: 1.5; stroke-linecap: square"/>
   </g>
   <g id="line2d_20">
    <path d="M 57.17 210.549865 
L 63.129796 210.022923 
L 69.089592 209.49598 
L 75.049388 208.969037 
L 81.009184 208.442094 
L 86.96898 207.915152 
L 92.928776 207.388209 
L 98.888571 206.861266 
L 104.848367 206.334323 
L 110.808163 205.807381 
L 116.767959 205.280438 
L 122.727755 204.753495 
L 128.687551 204.226552 
L 134.647347 203.69961 
L 140.607143 203.172667 
L 146.566939 202.645724 
L 152.526735 202.118781 
L 158.486531 201.591839 
L 164.446327 201.064896 
L 170.406122 200.537953 
L 176.365918 200.01101 
L 182.325714 199.484068 
L 188.28551 198.957125 
L 194.245306 198.430182 
L 200.205102 197.903239 
L 206.164898 197.376297 
L 212.124694 196.849354 
L 218.08449 196.322411 
L 224.044286 195.795468 
L 230.004082 195.268526 
L 235.963878 194.741583 
L 241.923673 194.21464 
L 247.883469 193.687698 
L 253.843265 193.160755 
L 259.803061 192.633812 
L 265.762857 192.106869 
L 271.722653 191.579927 
L 277.682449 191.052984 
L 283.642245 190.526041 
L 289.602041 189.999098 
L 295.561837 189.472156 
L 301.521633 188.945213 
L 307.481429 188.41827 
L 313.441224 187.891327 
L 319.40102 187.364385 
L 325.360816 186.837442 
L 331.320612 186.310499 
L 337.280408 185.783556 
L 343.240204 185.256614 
L 349.2 184.729671 
" clip-path="url(#p13f1a07cf7)" style="fill: none; stroke: #00acc7; stroke-width: 1.5; stroke-linecap: square"/>
   </g>
   <g id="line2d_21">
    <path d="M 57.17 221.015164 
L 63.129796 221.208103 
L 69.089592 221.401042 
L 75.049388 221.59398 
L 81.009184 221.786919 
L 86.96898 221.979858 
L 92.928776 222.172796 
L 98.888571 222.365735 
L 104.848367 222.558674 
L 110.808163 222.751612 
L 116.767959 222.944551 
L 122.727755 223.13749 
L 128.687551 223.330429 
L 134.647347 223.523367 
L 140.607143 223.716306 
L 146.566939 223.909245 
L 152.526735 224.102183 
L 158.486531 224.295122 
L 164.446327 224.488061 
L 170.406122 224.680999 
L 176.365918 224.873938 
L 182.325714 225.066877 
L 188.28551 225.259815 
L 194.245306 225.452754 
L 200.205102 225.645693 
L 206.164898 225.838632 
L 212.124694 226.03157 
L 218.08449 226.224509 
L 224.044286 226.417448 
L 230.004082 226.610386 
L 235.963878 226.803325 
L 241.923673 226.996264 
L 247.883469 227.189202 
L 253.843265 227.382141 
L 259.803061 227.57508 
L 265.762857 227.768019 
L 271.722653 227.960957 
L 277.682449 228.153896 
L 283.642245 228.346835 
L 289.602041 228.539773 
L 295.561837 228.732712 
L 301.521633 228.925651 
L 307.481429 229.118589 
L 313.441224 229.311528 
L 319.40102 229.504467 
L 325.360816 229.697405 
L 331.320612 229.890344 
L 337.280408 230.083283 
L 343.240204 230.276222 
L 349.2 230.46916 
" clip-path="url(#p13f1a07cf7)" style="fill: none; stroke: #98ff00; stroke-width: 1.5; stroke-linecap: square"/>
   </g>
   <g id="line2d_22">
    <path d="M 57.17 175.578366 
L 63.129796 174.444082 
L 69.089592 173.309798 
L 75.049388 172.175514 
L 81.009184 171.04123 
L 86.96898 169.906946 
L 92.928776 168.772663 
L 98.888571 167.638379 
L 104.848367 166.504095 
L 110.808163 165.369811 
L 116.767959 164.235527 
L 122.727755 163.101243 
L 128.687551 161.96696 
L 134.647347 160.832676 
L 140.607143 159.698392 
L 146.566939 158.564108 
L 152.526735 157.429824 
L 158.486531 156.29554 
L 164.446327 155.161257 
L 170.406122 154.026973 
L 176.365918 152.892689 
L 182.325714 151.758405 
L 188.28551 150.624121 
L 194.245306 149.489837 
L 200.205102 148.355553 
L 206.164898 147.22127 
L 212.124694 146.086986 
L 218.08449 144.952702 
L 224.044286 143.818418 
L 230.004082 142.684134 
L 235.963878 141.54985 
L 241.923673 140.415567 
L 247.883469 139.281283 
L 253.843265 138.146999 
L 259.803061 137.012715 
L 265.762857 135.878431 
L 271.722653 134.744147 
L 277.682449 133.609863 
L 283.642245 132.47558 
L 289.602041 131.341296 
L 295.561837 130.207012 
L 301.521633 129.072728 
L 307.481429 127.938444 
L 313.441224 126.80416 
L 319.40102 125.669877 
L 325.360816 124.535593 
L 331.320612 123.401309 
L 337.280408 122.267025 
L 343.240204 121.132741 
L 349.2 119.998457 
" clip-path="url(#p13f1a07cf7)" style="fill: none; stroke: #ff7fd1; stroke-width: 1.5; stroke-linecap: square"/>
   </g>
   <g id="line2d_23">
    <path clip-path="url(#p13f1a07cf7)" style="fill: none; stroke: #6c004f; stroke-width: 1.5; stroke-linecap: square"/>
   </g>
   <g id="line2d_24">
    <path d="M 57.17 210.153725 
L 63.129796 209.642624 
L 69.089592 209.131523 
L 75.049388 208.620422 
L 81.009184 208.109321 
L 86.96898 207.59822 
L 92.928776 207.087119 
L 98.888571 206.576018 
L 104.848367 206.064917 
L 110.808163 205.553816 
L 116.767959 205.042715 
L 122.727755 204.531614 
L 128.687551 204.020513 
L 134.647347 203.509412 
L 140.607143 202.998311 
L 146.566939 202.48721 
L 152.526735 201.976109 
L 158.486531 201.465008 
L 164.446327 200.953907 
L 170.406122 200.442806 
L 176.365918 199.931705 
L 182.325714 199.420604 
L 188.28551 198.909503 
L 194.245306 198.398402 
L 200.205102 197.887301 
L 206.164898 197.3762 
L 212.124694 196.865099 
L 218.08449 196.353998 
L 224.044286 195.842897 
L 230.004082 195.331796 
L 235.963878 194.820696 
L 241.923673 194.309595 
L 247.883469 193.798494 
L 253.843265 193.287393 
L 259.803061 192.776292 
L 265.762857 192.265191 
L 271.722653 191.75409 
L 277.682449 191.242989 
L 283.642245 190.731888 
L 289.602041 190.220787 
L 295.561837 189.709686 
L 301.521633 189.198585 
L 307.481429 188.687484 
L 313.441224 188.176383 
L 319.40102 187.665282 
L 325.360816 187.154181 
L 331.320612 186.64308 
L 337.280408 186.131979 
L 343.240204 185.620878 
L 349.2 185.109777 
" clip-path="url(#p13f1a07cf7)" style="fill: none; stroke: #583b00; stroke-width: 1.5; stroke-linecap: square"/>
   </g>
   <g id="line2d_25">
    <path d="M 57.17 146.636817 
L 63.129796 145.635217 
L 69.089592 144.633617 
L 75.049388 143.632017 
L 81.009184 142.630417 
L 86.96898 141.628817 
L 92.928776 140.627217 
L 98.888571 139.625617 
L 104.848367 138.624017 
L 110.808163 137.622417 
L 116.767959 136.620817 
L 122.727755 135.619217 
L 128.687551 134.617617 
L 134.647347 133.616017 
L 140.607143 132.614417 
L 146.566939 131.612817 
L 152.526735 130.611217 
L 158.486531 129.609617 
L 164.446327 128.608017 
L 170.406122 127.606417 
L 176.365918 126.604817 
L 182.325714 125.603217 
L 188.28551 124.601617 
L 194.245306 123.600017 
L 200.205102 122.598417 
L 206.164898 121.596817 
L 212.124694 120.595217 
L 218.08449 119.593617 
L 224.044286 118.592017 
L 230.004082 117.590417 
L 235.963878 116.588817 
L 241.923673 115.587217 
L 247.883469 114.585617 
L 253.843265 113.584017 
L 259.803061 112.582417 
L 265.762857 111.580816 
L 271.722653 110.579216 
L 277.682449 109.577616 
L 283.642245 108.576016 
L 289.602041 107.574416 
L 295.561837 106.572816 
L 301.521633 105.571216 
L 307.481429 104.569616 
L 313.441224 103.568016 
L 319.40102 102.566416 
L 325.360816 101.564816 
L 331.320612 100.563216 
L 337.280408 99.561616 
L 343.240204 98.560016 
L 349.2 97.558416 
" clip-path="url(#p13f1a07cf7)" style="fill: none; stroke: #005759; stroke-width: 1.5; stroke-linecap: square"/>
   </g>
   <g id="line2d_26">
    <path d="M 57.17 224.193276 
L 63.129796 223.950069 
L 69.089592 223.706863 
L 75.049388 223.463656 
L 81.009184 223.22045 
L 86.96898 222.977243 
L 92.928776 222.734037 
L 98.888571 222.49083 
L 104.848367 222.247623 
L 110.808163 222.004417 
L 116.767959 221.76121 
L 122.727755 221.518004 
L 128.687551 221.274797 
L 134.647347 221.031591 
L 140.607143 220.788384 
L 146.566939 220.545178 
L 152.526735 220.301971 
L 158.486531 220.058765 
L 164.446327 219.815558 
L 170.406122 219.572352 
L 176.365918 219.329145 
L 182.325714 219.085938 
L 188.28551 218.842732 
L 194.245306 218.599525 
L 200.205102 218.356319 
L 206.164898 218.113112 
L 212.124694 217.869906 
L 218.08449 217.626699 
L 224.044286 217.383493 
L 230.004082 217.140286 
L 235.963878 216.89708 
L 241.923673 216.653873 
L 247.883469 216.410667 
L 253.843265 216.16746 
L 259.803061 215.924253 
L 265.762857 215.681047 
L 271.722653 215.43784 
L 277.682449 215.194634 
L 283.642245 214.951427 
L 289.602041 214.708221 
L 295.561837 214.465014 
L 301.521633 214.221808 
L 307.481429 213.978601 
L 313.441224 213.735395 
L 319.40102 213.492188 
L 325.360816 213.248981 
L 331.320612 213.005775 
L 337.280408 212.762568 
L 343.240204 212.519362 
L 349.2 212.276155 
" clip-path="url(#p13f1a07cf7)" style="fill: none; stroke: #0000dd; stroke-width: 1.5; stroke-linecap: square"/>
   </g>
   <g id="line2d_27">
    <path d="M 57.17 160.909421 
L 63.129796 161.948819 
L 69.089592 162.988217 
L 75.049388 164.027615 
L 81.009184 165.067013 
L 86.96898 166.106411 
L 92.928776 167.14581 
L 98.888571 168.185208 
L 104.848367 169.224606 
L 110.808163 170.264004 
L 116.767959 171.303402 
L 122.727755 172.3428 
L 128.687551 173.382198 
L 134.647347 174.421597 
L 140.607143 175.460995 
L 146.566939 176.500393 
L 152.526735 177.539791 
L 158.486531 178.579189 
L 164.446327 179.618587 
L 170.406122 180.657986 
L 176.365918 181.697384 
L 182.325714 182.736782 
L 188.28551 183.77618 
L 194.245306 184.815578 
L 200.205102 185.854976 
L 206.164898 186.894374 
L 212.124694 187.933773 
L 218.08449 188.973171 
L 224.044286 190.012569 
L 230.004082 191.051967 
L 235.963878 192.091365 
L 241.923673 193.130763 
L 247.883469 194.170162 
L 253.843265 195.20956 
L 259.803061 196.248958 
L 265.762857 197.288356 
L 271.722653 198.327754 
L 277.682449 199.367152 
L 283.642245 200.40655 
L 289.602041 201.445949 
L 295.561837 202.485347 
L 301.521633 203.524745 
L 307.481429 204.564143 
L 313.441224 205.603541 
L 319.40102 206.642939 
L 325.360816 207.682338 
L 331.320612 208.721736 
L 337.280408 209.761134 
L 343.240204 210.800532 
L 349.2 211.83993 
" clip-path="url(#p13f1a07cf7)" style="fill: none; stroke: #95b578; stroke-width: 1.5; stroke-linecap: square"/>
   </g>
   <g id="line2d_28">
    <path d="M 57.17 233.974528 
L 63.129796 233.488094 
L 69.089592 233.00166 
L 75.049388 232.515226 
L 81.009184 232.028793 
L 86.96898 231.542359 
L 92.928776 231.055925 
L 98.888571 230.569491 
L 104.848367 230.083057 
L 110.808163 229.596623 
L 116.767959 229.110189 
L 122.727755 228.623755 
L 128.687551 228.137322 
L 134.647347 227.650888 
L 140.607143 227.164454 
L 146.566939 226.67802 
L 152.526735 226.191586 
L 158.486531 225.705152 
L 164.446327 225.218718 
L 170.406122 224.732284 
L 176.365918 224.245851 
L 182.325714 223.759417 
L 188.28551 223.272983 
L 194.245306 222.786549 
L 200.205102 222.300115 
L 206.164898 221.813681 
L 212.124694 221.327247 
L 218.08449 220.840813 
L 224.044286 220.354379 
L 230.004082 219.867946 
L 235.963878 219.381512 
L 241.923673 218.895078 
L 247.883469 218.408644 
L 253.843265 217.92221 
L 259.803061 217.435776 
L 265.762857 216.949342 
L 271.722653 216.462908 
L 277.682449 215.976475 
L 283.642245 215.490041 
L 289.602041 215.003607 
L 295.561837 214.517173 
L 301.521633 214.030739 
L 307.481429 213.544305 
L 313.441224 213.057871 
L 319.40102 212.571437 
L 325.360816 212.085004 
L 331.320612 211.59857 
L 337.280408 211.112136 
L 343.240204 210.625702 
L 349.2 210.139268 
" clip-path="url(#p13f1a07cf7)" style="fill: none; stroke: #c004b9; stroke-width: 1.5; stroke-linecap: square"/>
   </g>
   <g id="line2d_29">
    <path d="M 57.17 227.415946 
L 63.129796 226.893215 
L 69.089592 226.370485 
L 75.049388 225.847754 
L 81.009184 225.325024 
L 86.96898 224.802293 
L 92.928776 224.279563 
L 98.888571 223.756832 
L 104.848367 223.234102 
L 110.808163 222.711371 
L 116.767959 222.188641 
L 122.727755 221.66591 
L 128.687551 221.14318 
L 134.647347 220.620449 
L 140.607143 220.097719 
L 146.566939 219.574988 
L 152.526735 219.052258 
L 158.486531 218.529527 
L 164.446327 218.006797 
L 170.406122 217.484066 
L 176.365918 216.961336 
L 182.325714 216.438605 
L 188.28551 215.915875 
L 194.245306 215.393144 
L 200.205102 214.870414 
L 206.164898 214.347683 
L 212.124694 213.824953 
L 218.08449 213.302222 
L 224.044286 212.779492 
L 230.004082 212.256761 
L 235.963878 211.734031 
L 241.923673 211.2113 
L 247.883469 210.68857 
L 253.843265 210.165839 
L 259.803061 209.643109 
L 265.762857 209.120378 
L 271.722653 208.597648 
L 277.682449 208.074917 
L 283.642245 207.552187 
L 289.602041 207.029456 
L 295.561837 206.506726 
L 301.521633 205.983995 
L 307.481429 205.461265 
L 313.441224 204.938534 
L 319.40102 204.415804 
L 325.360816 203.893073 
L 331.320612 203.370343 
L 337.280408 202.847612 
L 343.240204 202.324882 
L 349.2 201.802151 
" clip-path="url(#p13f1a07cf7)" style="fill: none; stroke: #0774d8; stroke-width: 1.5; stroke-linecap: square"/>
   </g>
   <g id="line2d_30">
    <path d="M 57.17 200.757416 
L 63.129796 200.799861 
L 69.089592 200.842305 
L 75.049388 200.88475 
L 81.009184 200.927194 
L 86.96898 200.969639 
L 92.928776 201.012083 
L 98.888571 201.054528 
L 104.848367 201.096972 
L 110.808163 201.139417 
L 116.767959 201.181861 
L 122.727755 201.224306 
L 128.687551 201.26675 
L 134.647347 201.309195 
L 140.607143 201.35164 
L 146.566939 201.394084 
L 152.526735 201.436529 
L 158.486531 201.478973 
L 164.446327 201.521418 
L 170.406122 201.563862 
L 176.365918 201.606307 
L 182.325714 201.648751 
L 188.28551 201.691196 
L 194.245306 201.73364 
L 200.205102 201.776085 
L 206.164898 201.818529 
L 212.124694 201.860974 
L 218.08449 201.903418 
L 224.044286 201.945863 
L 230.004082 201.988307 
L 235.963878 202.030752 
L 241.923673 202.073196 
L 247.883469 202.115641 
L 253.843265 202.158086 
L 259.803061 202.20053 
L 265.762857 202.242975 
L 271.722653 202.285419 
L 277.682449 202.327864 
L 283.642245 202.370308 
L 289.602041 202.412753 
L 295.561837 202.455197 
L 301.521633 202.497642 
L 307.481429 202.540086 
L 313.441224 202.582531 
L 319.40102 202.624975 
L 325.360816 202.66742 
L 331.320612 202.709864 
L 337.280408 202.752309 
L 343.240204 202.794753 
L 349.2 202.837198 
" clip-path="url(#p13f1a07cf7)" style="fill: none; stroke: #fef590; stroke-width: 1.5; stroke-linecap: square"/>
   </g>
   <g id="line2d_31">
    <path d="M 57.17 185.123322 
L 63.129796 185.145891 
L 69.089592 185.168461 
L 75.049388 185.191031 
L 81.009184 185.2136 
L 86.96898 185.23617 
L 92.928776 185.25874 
L 98.888571 185.281309 
L 104.848367 185.303879 
L 110.808163 185.326449 
L 116.767959 185.349018 
L 122.727755 185.371588 
L 128.687551 185.394158 
L 134.647347 185.416727 
L 140.607143 185.439297 
L 146.566939 185.461867 
L 152.526735 185.484437 
L 158.486531 185.507006 
L 164.446327 185.529576 
L 170.406122 185.552146 
L 176.365918 185.574715 
L 182.325714 185.597285 
L 188.28551 185.619855 
L 194.245306 185.642424 
L 200.205102 185.664994 
L 206.164898 185.687564 
L 212.124694 185.710133 
L 218.08449 185.732703 
L 224.044286 185.755273 
L 230.004082 185.777842 
L 235.963878 185.800412 
L 241.923673 185.822982 
L 247.883469 185.845551 
L 253.843265 185.868121 
L 259.803061 185.890691 
L 265.762857 185.91326 
L 271.722653 185.93583 
L 277.682449 185.9584 
L 283.642245 185.98097 
L 289.602041 186.003539 
L 295.561837 186.026109 
L 301.521633 186.048679 
L 307.481429 186.071248 
L 313.441224 186.093818 
L 319.40102 186.116388 
L 325.360816 186.138957 
L 331.320612 186.161527 
L 337.280408 186.184097 
L 343.240204 186.206666 
L 349.2 186.229236 
" clip-path="url(#p13f1a07cf7)" style="fill: none; stroke: #8f7a00; stroke-width: 1.5; stroke-linecap: square"/>
   </g>
   <g id="line2d_32">
    <path d="M 57.17 191.861553 
L 63.129796 192.524282 
L 69.089592 193.187012 
L 75.049388 193.849741 
L 81.009184 194.51247 
L 86.96898 195.175199 
L 92.928776 195.837928 
L 98.888571 196.500657 
L 104.848367 197.163387 
L 110.808163 197.826116 
L 116.767959 198.488845 
L 122.727755 199.151574 
L 128.687551 199.814303 
L 134.647347 200.477033 
L 140.607143 201.139762 
L 146.566939 201.802491 
L 152.526735 202.46522 
L 158.486531 203.127949 
L 164.446327 203.790679 
L 170.406122 204.453408 
L 176.365918 205.116137 
L 182.325714 205.778866 
L 188.28551 206.441595 
L 194.245306 207.104324 
L 200.205102 207.767054 
L 206.164898 208.429783 
L 212.124694 209.092512 
L 218.08449 209.755241 
L 224.044286 210.41797 
L 230.004082 211.0807 
L 235.963878 211.743429 
L 241.923673 212.406158 
L 247.883469 213.068887 
L 253.843265 213.731616 
L 259.803061 214.394345 
L 265.762857 215.057075 
L 271.722653 215.719804 
L 277.682449 216.382533 
L 283.642245 217.045262 
L 289.602041 217.707991 
L 295.561837 218.370721 
L 301.521633 219.03345 
L 307.481429 219.696179 
L 313.441224 220.358908 
L 319.40102 221.021637 
L 325.360816 221.684366 
L 331.320612 222.347096 
L 337.280408 223.009825 
L 343.240204 223.672554 
L 349.2 224.335283 
" clip-path="url(#p13f1a07cf7)" style="fill: none; stroke: #ff7266; stroke-width: 1.5; stroke-linecap: square"/>
   </g>
   <g id="line2d_33">
    <path d="M 57.17 179.316806 
L 63.129796 176.320275 
L 69.089592 173.323745 
L 75.049388 170.327214 
L 81.009184 167.330683 
L 86.96898 164.334153 
L 92.928776 161.337622 
L 98.888571 158.341091 
L 104.848367 155.344561 
L 110.808163 152.34803 
L 116.767959 149.351499 
L 122.727755 146.354969 
L 128.687551 143.358438 
L 134.647347 140.361907 
L 140.607143 137.365377 
L 146.566939 134.368846 
L 152.526735 131.372315 
L 158.486531 128.375785 
L 164.446327 125.379254 
L 170.406122 122.382723 
L 176.365918 119.386193 
L 182.325714 116.389662 
L 188.28551 113.393131 
L 194.245306 110.396601 
L 200.205102 107.40007 
L 206.164898 104.403539 
L 212.124694 101.407009 
L 218.08449 98.410478 
L 224.044286 95.413947 
L 230.004082 92.417417 
L 235.963878 89.420886 
L 241.923673 86.424355 
L 247.883469 83.427824 
L 253.843265 80.431294 
L 259.803061 77.434763 
L 265.762857 74.438232 
L 271.722653 71.441702 
L 277.682449 68.445171 
L 283.642245 65.44864 
L 289.602041 62.45211 
L 295.561837 59.455579 
L 301.521633 56.459048 
L 307.481429 53.462518 
L 313.441224 50.465987 
L 319.40102 47.469456 
L 325.360816 44.472926 
L 331.320612 41.476395 
L 337.280408 38.479864 
L 343.240204 35.483334 
L 349.2 32.486803 
" clip-path="url(#p13f1a07cf7)" style="fill: none; stroke: #eeb9b9; stroke-width: 1.5; stroke-linecap: square"/>
   </g>
   <g id="line2d_34">
    <path d="M 57.17 235.164464 
L 63.129796 234.502463 
L 69.089592 233.840461 
L 75.049388 233.178459 
L 81.009184 232.516457 
L 86.96898 231.854455 
L 92.928776 231.192454 
L 98.888571 230.530452 
L 104.848367 229.86845 
L 110.808163 229.206448 
L 116.767959 228.544447 
L 122.727755 227.882445 
L 128.687551 227.220443 
L 134.647347 226.558441 
L 140.607143 225.896439 
L 146.566939 225.234438 
L 152.526735 224.572436 
L 158.486531 223.910434 
L 164.446327 223.248432 
L 170.406122 222.586431 
L 176.365918 221.924429 
L 182.325714 221.262427 
L 188.28551 220.600425 
L 194.245306 219.938423 
L 200.205102 219.276422 
L 206.164898 218.61442 
L 212.124694 217.952418 
L 218.08449 217.290416 
L 224.044286 216.628415 
L 230.004082 215.966413 
L 235.963878 215.304411 
L 241.923673 214.642409 
L 247.883469 213.980407 
L 253.843265 213.318406 
L 259.803061 212.656404 
L 265.762857 211.994402 
L 271.722653 211.3324 
L 277.682449 210.670399 
L 283.642245 210.008397 
L 289.602041 209.346395 
L 295.561837 208.684393 
L 301.521633 208.022391 
L 307.481429 207.36039 
L 313.441224 206.698388 
L 319.40102 206.036386 
L 325.360816 205.374384 
L 331.320612 204.712383 
L 337.280408 204.050381 
L 343.240204 203.388379 
L 349.2 202.726377 
" clip-path="url(#p13f1a07cf7)" style="fill: none; stroke: #5e7e66; stroke-width: 1.5; stroke-linecap: square"/>
   </g>
   <g id="line2d_35">
    <path d="M 57.17 249.410794 
L 63.129796 249.517589 
L 69.089592 249.624383 
L 75.049388 249.731178 
L 81.009184 249.837973 
L 86.96898 249.944768 
L 92.928776 250.051563 
L 98.888571 250.158357 
L 104.848367 250.265152 
L 110.808163 250.371947 
L 116.767959 250.478742 
L 122.727755 250.585537 
L 128.687551 250.692331 
L 134.647347 250.799126 
L 140.607143 250.905921 
L 146.566939 251.012716 
L 152.526735 251.119511 
L 158.486531 251.226305 
L 164.446327 251.3331 
L 170.406122 251.439895 
L 176.365918 251.54669 
L 182.325714 251.653484 
L 188.28551 251.760279 
L 194.245306 251.867074 
L 200.205102 251.973869 
L 206.164898 252.080664 
L 212.124694 252.187458 
L 218.08449 252.294253 
L 224.044286 252.401048 
L 230.004082 252.507843 
L 235.963878 252.614638 
L 241.923673 252.721432 
L 247.883469 252.828227 
L 253.843265 252.935022 
L 259.803061 253.041817 
L 265.762857 253.148612 
L 271.722653 253.255406 
L 277.682449 253.362201 
L 283.642245 253.468996 
L 289.602041 253.575791 
L 295.561837 253.682586 
L 301.521633 253.78938 
L 307.481429 253.896175 
L 313.441224 254.00297 
L 319.40102 254.109765 
L 325.360816 254.21656 
L 331.320612 254.323354 
L 337.280408 254.430149 
L 343.240204 254.536944 
L 349.2 254.643739 
" clip-path="url(#p13f1a07cf7)" style="fill: none; stroke: #9be4ff; stroke-width: 1.5; stroke-linecap: square"/>
   </g>
   <g id="patch_3">
    <path d="M 57.17 246.04 
L 57.17 10.8 
" style="fill: none; stroke: #000000; stroke-width: 0.8; stroke-linejoin: miter; stroke-linecap: square"/>
   </g>
   <g id="patch_4">
    <path d="M 349.2 246.04 
L 349.2 10.8 
" style="fill: none; stroke: #000000; stroke-width: 0.8; stroke-linejoin: miter; stroke-linecap: square"/>
   </g>
   <g id="patch_5">
    <path d="M 57.17 246.04 
L 349.2 246.04 
" style="fill: none; stroke: #000000; stroke-width: 0.8; stroke-linejoin: miter; stroke-linecap: square"/>
   </g>
   <g id="patch_6">
    <path d="M 57.17 10.8 
L 349.2 10.8 
" style="fill: none; stroke: #000000; stroke-width: 0.8; stroke-linejoin: miter; stroke-linecap: square"/>
   </g>
   <g id="legend_1">
    <g id="patch_7">
     <path d="M 64.17 165.58125 
L 173.424688 165.58125 
Q 175.424688 165.58125 175.424688 163.58125 
L 175.424688 17.8 
Q 175.424688 15.8 173.424688 15.8 
L 64.17 15.8 
Q 62.17 15.8 62.17 17.8 
L 62.17 163.58125 
Q 62.17 165.58125 64.17 165.58125 
z
" style="fill: #ffffff; opacity: 0.8; stroke: #cccccc; stroke-linejoin: miter"/>
    </g>
    <g id="line2d_36">
     <path d="M 66.17 23.898438 
L 76.17 23.898438 
L 86.17 23.898438 
" style="fill: none; stroke: #d70000; stroke-width: 1.5; stroke-linecap: square"/>
    </g>
    <g id="text_19">
     <!-- AT -->
     <g transform="translate(94.17 27.398438)scale(0.1 -0.1)">
      <defs>
       <path id="DejaVuSans-41" d="M 2188 4044 
L 1331 1722 
L 3047 1722 
L 2188 4044 
z
M 1831 4666 
L 2547 4666 
L 4325 0 
L 3669 0 
L 3244 1197 
L 1141 1197 
L 716 0 
L 50 0 
L 1831 4666 
z
" transform="scale(0.015625)"/>
       <path id="DejaVuSans-54" d="M -19 4666 
L 3928 4666 
L 3928 4134 
L 2272 4134 
L 2272 0 
L 1638 0 
L 1638 4134 
L -19 4134 
L -19 4666 
z
" transform="scale(0.015625)"/>
      </defs>
      <use xlink:href="#DejaVuSans-41"/>
      <use xlink:href="#DejaVuSans-54" x="60.658203"/>
     </g>
    </g>
    <g id="line2d_37">
     <path d="M 66.17 38.576563 
L 76.17 38.576563 
L 86.17 38.576563 
" style="fill: none; stroke: #8c3cff; stroke-width: 1.5; stroke-linecap: square"/>
    </g>
    <g id="text_20">
     <!-- BE -->
     <g transform="translate(94.17 42.076563)scale(0.1 -0.1)">
      <defs>
       <path id="DejaVuSans-45" d="M 628 4666 
L 3578 4666 
L 3578 4134 
L 1259 4134 
L 1259 2753 
L 3481 2753 
L 3481 2222 
L 1259 2222 
L 1259 531 
L 3634 531 
L 3634 0 
L 628 0 
L 628 4666 
z
" transform="scale(0.015625)"/>
      </defs>
      <use xlink:href="#DejaVuSans-42"/>
      <use xlink:href="#DejaVuSans-45" x="68.603516"/>
     </g>
    </g>
    <g id="line2d_38">
     <path d="M 66.17 53.254688 
L 76.17 53.254688 
L 86.17 53.254688 
" style="fill: none; stroke: #028800; stroke-width: 1.5; stroke-linecap: square"/>
    </g>
    <g id="text_21">
     <!-- BG -->
     <g transform="translate(94.17 56.754688)scale(0.1 -0.1)">
      <defs>
       <path id="DejaVuSans-47" d="M 3809 666 
L 3809 1919 
L 2778 1919 
L 2778 2438 
L 4434 2438 
L 4434 434 
Q 4069 175 3628 42 
Q 3188 -91 2688 -91 
Q 1594 -91 976 548 
Q 359 1188 359 2328 
Q 359 3472 976 4111 
Q 1594 4750 2688 4750 
Q 3144 4750 3555 4637 
Q 3966 4525 4313 4306 
L 4313 3634 
Q 3963 3931 3569 4081 
Q 3175 4231 2741 4231 
Q 1884 4231 1454 3753 
Q 1025 3275 1025 2328 
Q 1025 1384 1454 906 
Q 1884 428 2741 428 
Q 3075 428 3337 486 
Q 3600 544 3809 666 
z
" transform="scale(0.015625)"/>
      </defs>
      <use xlink:href="#DejaVuSans-42"/>
      <use xlink:href="#DejaVuSans-47" x="66.853516"/>
     </g>
    </g>
    <g id="line2d_39">
     <path d="M 66.17 67.932813 
L 76.17 67.932813 
L 86.17 67.932813 
" style="fill: none; stroke: #00acc7; stroke-width: 1.5; stroke-linecap: square"/>
    </g>
    <g id="text_22">
     <!-- CY -->
     <g transform="translate(94.17 71.432813)scale(0.1 -0.1)">
      <defs>
       <path id="DejaVuSans-43" d="M 4122 4306 
L 4122 3641 
Q 3803 3938 3442 4084 
Q 3081 4231 2675 4231 
Q 1875 4231 1450 3742 
Q 1025 3253 1025 2328 
Q 1025 1406 1450 917 
Q 1875 428 2675 428 
Q 3081 428 3442 575 
Q 3803 722 4122 1019 
L 4122 359 
Q 3791 134 3420 21 
Q 3050 -91 2638 -91 
Q 1578 -91 968 557 
Q 359 1206 359 2328 
Q 359 3453 968 4101 
Q 1578 4750 2638 4750 
Q 3056 4750 3426 4639 
Q 3797 4528 4122 4306 
z
" transform="scale(0.015625)"/>
       <path id="DejaVuSans-59" d="M -13 4666 
L 666 4666 
L 1959 2747 
L 3244 4666 
L 3922 4666 
L 2272 2222 
L 2272 0 
L 1638 0 
L 1638 2222 
L -13 4666 
z
" transform="scale(0.015625)"/>
      </defs>
      <use xlink:href="#DejaVuSans-43"/>
      <use xlink:href="#DejaVuSans-59" x="68.074219"/>
     </g>
    </g>
    <g id="line2d_40">
     <path d="M 66.17 82.610938 
L 76.17 82.610938 
L 86.17 82.610938 
" style="fill: none; stroke: #98ff00; stroke-width: 1.5; stroke-linecap: square"/>
    </g>
    <g id="text_23">
     <!-- CZ -->
     <g transform="translate(94.17 86.110938)scale(0.1 -0.1)">
      <defs>
       <path id="DejaVuSans-5a" d="M 359 4666 
L 4025 4666 
L 4025 4184 
L 1075 531 
L 4097 531 
L 4097 0 
L 288 0 
L 288 481 
L 3238 4134 
L 359 4134 
L 359 4666 
z
" transform="scale(0.015625)"/>
      </defs>
      <use xlink:href="#DejaVuSans-43"/>
      <use xlink:href="#DejaVuSans-5a" x="69.824219"/>
     </g>
    </g>
    <g id="line2d_41">
     <path d="M 66.17 97.289062 
L 76.17 97.289062 
L 86.17 97.289062 
" style="fill: none; stroke: #ff7fd1; stroke-width: 1.5; stroke-linecap: square"/>
    </g>
    <g id="text_24">
     <!-- DE -->
     <g transform="translate(94.17 100.789062)scale(0.1 -0.1)">
      <use xlink:href="#DejaVuSans-44"/>
      <use xlink:href="#DejaVuSans-45" x="77.001953"/>
     </g>
    </g>
    <g id="line2d_42">
     <path d="M 66.17 111.967188 
L 76.17 111.967188 
L 86.17 111.967188 
" style="fill: none; stroke: #6c004f; stroke-width: 1.5; stroke-linecap: square"/>
    </g>
    <g id="text_25">
     <!-- DK -->
     <g transform="translate(94.17 115.467188)scale(0.1 -0.1)">
      <defs>
       <path id="DejaVuSans-4b" d="M 628 4666 
L 1259 4666 
L 1259 2694 
L 3353 4666 
L 4166 4666 
L 1850 2491 
L 4331 0 
L 3500 0 
L 1259 2247 
L 1259 0 
L 628 0 
L 628 4666 
z
" transform="scale(0.015625)"/>
      </defs>
      <use xlink:href="#DejaVuSans-44"/>
      <use xlink:href="#DejaVuSans-4b" x="77.001953"/>
     </g>
    </g>
    <g id="line2d_43">
     <path d="M 66.17 126.645312 
L 76.17 126.645312 
L 86.17 126.645312 
" style="fill: none; stroke: #583b00; stroke-width: 1.5; stroke-linecap: square"/>
    </g>
    <g id="text_26">
     <!-- EL -->
     <g transform="translate(94.17 130.145312)scale(0.1 -0.1)">
      <defs>
       <path id="DejaVuSans-4c" d="M 628 4666 
L 1259 4666 
L 1259 531 
L 3531 531 
L 3531 0 
L 628 0 
L 628 4666 
z
" transform="scale(0.015625)"/>
      </defs>
      <use xlink:href="#DejaVuSans-45"/>
      <use xlink:href="#DejaVuSans-4c" x="63.183594"/>
     </g>
    </g>
    <g id="line2d_44">
     <path d="M 66.17 141.323438 
L 76.17 141.323438 
L 86.17 141.323438 
" style="fill: none; stroke: #005759; stroke-width: 1.5; stroke-linecap: square"/>
    </g>
    <g id="text_27">
     <!-- ES -->
     <g transform="translate(94.17 144.823438)scale(0.1 -0.1)">
      <defs>
       <path id="DejaVuSans-53" d="M 3425 4513 
L 3425 3897 
Q 3066 4069 2747 4153 
Q 2428 4238 2131 4238 
Q 1616 4238 1336 4038 
Q 1056 3838 1056 3469 
Q 1056 3159 1242 3001 
Q 1428 2844 1947 2747 
L 2328 2669 
Q 3034 2534 3370 2195 
Q 3706 1856 3706 1288 
Q 3706 609 3251 259 
Q 2797 -91 1919 -91 
Q 1588 -91 1214 -16 
Q 841 59 441 206 
L 441 856 
Q 825 641 1194 531 
Q 1563 422 1919 422 
Q 2459 422 2753 634 
Q 3047 847 3047 1241 
Q 3047 1584 2836 1778 
Q 2625 1972 2144 2069 
L 1759 2144 
Q 1053 2284 737 2584 
Q 422 2884 422 3419 
Q 422 4038 858 4394 
Q 1294 4750 2059 4750 
Q 2388 4750 2728 4690 
Q 3069 4631 3425 4513 
z
" transform="scale(0.015625)"/>
      </defs>
      <use xlink:href="#DejaVuSans-45"/>
      <use xlink:href="#DejaVuSans-53" x="63.183594"/>
     </g>
    </g>
    <g id="line2d_45">
     <path d="M 66.17 156.001562 
L 76.17 156.001562 
L 86.17 156.001562 
" style="fill: none; stroke: #0000dd; stroke-width: 1.5; stroke-linecap: square"/>
    </g>
    <g id="text_28">
     <!-- FI -->
     <g transform="translate(94.17 159.501562)scale(0.1 -0.1)">
      <defs>
       <path id="DejaVuSans-46" d="M 628 4666 
L 3309 4666 
L 3309 4134 
L 1259 4134 
L 1259 2759 
L 3109 2759 
L 3109 2228 
L 1259 2228 
L 1259 0 
L 628 0 
L 628 4666 
z
" transform="scale(0.015625)"/>
       <path id="DejaVuSans-49" d="M 628 4666 
L 1259 4666 
L 1259 0 
L 628 0 
L 628 4666 
z
" transform="scale(0.015625)"/>
      </defs>
      <use xlink:href="#DejaVuSans-46"/>
      <use xlink:href="#DejaVuSans-49" x="57.519531"/>
     </g>
    </g>
    <g id="line2d_46">
     <path d="M 128.604375 23.898438 
L 138.604375 23.898438 
L 148.604375 23.898438 
" style="fill: none; stroke: #95b578; stroke-width: 1.5; stroke-linecap: square"/>
    </g>
    <g id="text_29">
     <!-- IT -->
     <g transform="translate(156.604375 27.398438)scale(0.1 -0.1)">
      <use xlink:href="#DejaVuSans-49"/>
      <use xlink:href="#DejaVuSans-54" x="29.492188"/>
     </g>
    </g>
    <g id="line2d_47">
     <path d="M 128.604375 38.576563 
L 138.604375 38.576563 
L 148.604375 38.576563 
" style="fill: none; stroke: #c004b9; stroke-width: 1.5; stroke-linecap: square"/>
    </g>
    <g id="text_30">
     <!-- LT -->
     <g transform="translate(156.604375 42.076563)scale(0.1 -0.1)">
      <use xlink:href="#DejaVuSans-4c"/>
      <use xlink:href="#DejaVuSans-54" x="41.962891"/>
     </g>
    </g>
    <g id="line2d_48">
     <path d="M 128.604375 53.254687 
L 138.604375 53.254687 
L 148.604375 53.254687 
" style="fill: none; stroke: #0774d8; stroke-width: 1.5; stroke-linecap: square"/>
    </g>
    <g id="text_31">
     <!-- MT -->
     <g transform="translate(156.604375 56.754687)scale(0.1 -0.1)">
      <defs>
       <path id="DejaVuSans-4d" d="M 628 4666 
L 1569 4666 
L 2759 1491 
L 3956 4666 
L 4897 4666 
L 4897 0 
L 4281 0 
L 4281 4097 
L 3078 897 
L 2444 897 
L 1241 4097 
L 1241 0 
L 628 0 
L 628 4666 
z
" transform="scale(0.015625)"/>
      </defs>
      <use xlink:href="#DejaVuSans-4d"/>
      <use xlink:href="#DejaVuSans-54" x="86.279297"/>
     </g>
    </g>
    <g id="line2d_49">
     <path d="M 128.604375 67.932813 
L 138.604375 67.932813 
L 148.604375 67.932813 
" style="fill: none; stroke: #fef590; stroke-width: 1.5; stroke-linecap: square"/>
    </g>
    <g id="text_32">
     <!-- NL -->
     <g transform="translate(156.604375 71.432813)scale(0.1 -0.1)">
      <use xlink:href="#DejaVuSans-4e"/>
      <use xlink:href="#DejaVuSans-4c" x="74.804688"/>
     </g>
    </g>
    <g id="line2d_50">
     <path d="M 128.604375 82.610938 
L 138.604375 82.610938 
L 148.604375 82.610938 
" style="fill: none; stroke: #8f7a00; stroke-width: 1.5; stroke-linecap: square"/>
    </g>
    <g id="text_33">
     <!-- PT -->
     <g transform="translate(156.604375 86.110938)scale(0.1 -0.1)">
      <defs>
       <path id="DejaVuSans-50" d="M 1259 4147 
L 1259 2394 
L 2053 2394 
Q 2494 2394 2734 2622 
Q 2975 2850 2975 3272 
Q 2975 3691 2734 3919 
Q 2494 4147 2053 4147 
L 1259 4147 
z
M 628 4666 
L 2053 4666 
Q 2838 4666 3239 4311 
Q 3641 3956 3641 3272 
Q 3641 2581 3239 2228 
Q 2838 1875 2053 1875 
L 1259 1875 
L 1259 0 
L 628 0 
L 628 4666 
z
" transform="scale(0.015625)"/>
      </defs>
      <use xlink:href="#DejaVuSans-50"/>
      <use xlink:href="#DejaVuSans-54" x="60.302734"/>
     </g>
    </g>
    <g id="line2d_51">
     <path d="M 128.604375 97.289062 
L 138.604375 97.289062 
L 148.604375 97.289062 
" style="fill: none; stroke: #ff7266; stroke-width: 1.5; stroke-linecap: square"/>
    </g>
    <g id="text_34">
     <!-- RO -->
     <g transform="translate(156.604375 100.789062)scale(0.1 -0.1)">
      <defs>
       <path id="DejaVuSans-52" d="M 2841 2188 
Q 3044 2119 3236 1894 
Q 3428 1669 3622 1275 
L 4263 0 
L 3584 0 
L 2988 1197 
Q 2756 1666 2539 1819 
Q 2322 1972 1947 1972 
L 1259 1972 
L 1259 0 
L 628 0 
L 628 4666 
L 2053 4666 
Q 2853 4666 3247 4331 
Q 3641 3997 3641 3322 
Q 3641 2881 3436 2590 
Q 3231 2300 2841 2188 
z
M 1259 4147 
L 1259 2491 
L 2053 2491 
Q 2509 2491 2742 2702 
Q 2975 2913 2975 3322 
Q 2975 3731 2742 3939 
Q 2509 4147 2053 4147 
L 1259 4147 
z
" transform="scale(0.015625)"/>
       <path id="DejaVuSans-4f" d="M 2522 4238 
Q 1834 4238 1429 3725 
Q 1025 3213 1025 2328 
Q 1025 1447 1429 934 
Q 1834 422 2522 422 
Q 3209 422 3611 934 
Q 4013 1447 4013 2328 
Q 4013 3213 3611 3725 
Q 3209 4238 2522 4238 
z
M 2522 4750 
Q 3503 4750 4090 4092 
Q 4678 3434 4678 2328 
Q 4678 1225 4090 567 
Q 3503 -91 2522 -91 
Q 1538 -91 948 565 
Q 359 1222 359 2328 
Q 359 3434 948 4092 
Q 1538 4750 2522 4750 
z
" transform="scale(0.015625)"/>
      </defs>
      <use xlink:href="#DejaVuSans-52"/>
      <use xlink:href="#DejaVuSans-4f" x="69.482422"/>
     </g>
    </g>
    <g id="line2d_52">
     <path d="M 128.604375 111.967187 
L 138.604375 111.967187 
L 148.604375 111.967187 
" style="fill: none; stroke: #eeb9b9; stroke-width: 1.5; stroke-linecap: square"/>
    </g>
    <g id="text_35">
     <!-- SE -->
     <g transform="translate(156.604375 115.467187)scale(0.1 -0.1)">
      <use xlink:href="#DejaVuSans-53"/>
      <use xlink:href="#DejaVuSans-45" x="63.476562"/>
     </g>
    </g>
    <g id="line2d_53">
     <path d="M 128.604375 126.645312 
L 138.604375 126.645312 
L 148.604375 126.645312 
" style="fill: none; stroke: #5e7e66; stroke-width: 1.5; stroke-linecap: square"/>
    </g>
    <g id="text_36">
     <!-- SI -->
     <g transform="translate(156.604375 130.145312)scale(0.1 -0.1)">
      <use xlink:href="#DejaVuSans-53"/>
      <use xlink:href="#DejaVuSans-49" x="63.476562"/>
     </g>
    </g>
    <g id="line2d_54">
     <path d="M 128.604375 141.323437 
L 138.604375 141.323437 
L 148.604375 141.323437 
" style="fill: none; stroke: #9be4ff; stroke-width: 1.5; stroke-linecap: square"/>
    </g>
    <g id="text_37">
     <!-- SK -->
     <g transform="translate(156.604375 144.823437)scale(0.1 -0.1)">
      <use xlink:href="#DejaVuSans-53"/>
      <use xlink:href="#DejaVuSans-4b" x="63.476562"/>
     </g>
    </g>
   </g>
  </g>
 </g>
 <defs>
  <clipPath id="p13f1a07cf7">
   <rect x="57.17" y="10.8" width="292.03" height="235.24"/>
  </clipPath>
 </defs>
</svg>
