<?xml version="1.0" encoding="utf-8" standalone="no"?>
<!DOCTYPE svg PUBLIC "-//W3C//DTD SVG 1.1//EN"
  "http://www.w3.org/Graphics/SVG/1.1/DTD/svg11.dtd">
<svg xmlns:xlink="http://www.w3.org/1999/xlink" width="360pt" height="288pt" viewBox="0 0 360 288" xmlns="http://www.w3.org/2000/svg" version="1.1">
 <metadata>
  <rdf:RDF xmlns:dc="http://purl.org/dc/elements/1.1/" xmlns:cc="http://creativecommons.org/ns#" xmlns:rdf="http://www.w3.org/1999/02/22-rdf-syntax-ns#">
   <cc:Work>
    <dc:type rdf:resource="http://purl.org/dc/dcmitype/StillImage"/>
    <dc:date>2024-02-02T17:08:23.269313</dc:date>
    <dc:format>image/svg+xml</dc:format>
    <dc:creator>
     <cc:Agent>
      <dc:title>Matplotlib v3.5.1, https://matplotlib.org/</dc:title>
     </cc:Agent>
    </dc:creator>
   </cc:Work>
  </rdf:RDF>
 </metadata>
 <defs>
  <style type="text/css">*{stroke-linejoin: round; stroke-linecap: butt}</style>
 </defs>
 <g id="figure_1">
  <g id="patch_1">
   <path d="M 0 288 
L 360 288 
L 360 0 
L 0 0 
L 0 288 
z
" style="fill: none"/>
  </g>
  <g id="axes_1">
   <g id="patch_2">
    <path d="M 14.3 246.04 
L 347.475704 246.04 
L 347.475704 10.8 
L 14.3 10.8 
L 14.3 246.04 
z
" style="fill: none"/>
   </g>
   <g id="patch_3">
    <path d="M 23.540033 128.42 
L 23.540033 128.42 
L 23.540033 128.42 
L 23.540033 128.42 
z
" clip-path="url(#p6b5737f940)" style="fill: #bc1b1b; stroke: #1a1a1a; stroke-linejoin: miter"/>
   </g>
   <g id="patch_4">
    <path d="M 23.540033 128.42 
L 23.540033 128.42 
L 23.540033 128.42 
L 23.540033 128.42 
z
" clip-path="url(#p6b5737f940)" style="fill: #9054e7; stroke: #1a1a1a; stroke-linejoin: miter"/>
   </g>
   <g id="patch_5">
    <path d="M 23.540033 128.42 
L 23.540033 128.42 
L 23.540033 128.42 
L 23.540033 128.42 
z
" clip-path="url(#p6b5737f940)" style="fill: #127711; stroke: #1a1a1a; stroke-linejoin: miter"/>
   </g>
   <g id="patch_6">
    <path d="M 23.540033 128.42 
L 23.540033 128.42 
L 23.540033 128.42 
L 23.540033 128.42 
z
" clip-path="url(#p6b5737f940)" style="fill: #199aae; stroke: #1a1a1a; stroke-linejoin: miter"/>
   </g>
   <g id="patch_7">
    <path d="M 23.540033 128.42 
L 23.540033 128.42 
L 23.540033 128.42 
L 23.540033 128.42 
z
" clip-path="url(#p6b5737f940)" style="fill: #92df20; stroke: #1a1a1a; stroke-linejoin: miter"/>
   </g>
   <g id="patch_8">
    <path d="M 23.540033 128.42 
L 23.540033 128.42 
L 23.540033 128.42 
L 23.540033 128.42 
z
" clip-path="url(#p6b5737f940)" style="fill: #ef8fcd; stroke: #1a1a1a; stroke-linejoin: miter"/>
   </g>
   <g id="patch_9">
    <path d="M 23.540033 128.42 
L 23.540033 128.42 
L 23.540033 128.42 
L 23.540033 128.42 
z
" clip-path="url(#p6b5737f940)" style="fill: #5e0d49; stroke: #1a1a1a; stroke-linejoin: miter"/>
   </g>
   <g id="patch_10">
    <path d="M 23.540033 128.42 
L 23.540033 128.42 
L 23.540033 128.42 
L 23.540033 128.42 
z
" clip-path="url(#p6b5737f940)" style="fill: #4d370b; stroke: #1a1a1a; stroke-linejoin: miter"/>
   </g>
   <g id="patch_11">
    <path d="M 23.540033 128.42 
L 23.540033 128.42 
L 23.540033 128.42 
L 23.540033 128.42 
z
" clip-path="url(#p6b5737f940)" style="fill: #0b4c4e; stroke: #1a1a1a; stroke-linejoin: miter"/>
   </g>
   <g id="patch_12">
    <path d="M 23.540033 128.42 
L 23.540033 128.42 
L 23.540033 128.42 
L 23.540033 128.42 
z
" clip-path="url(#p6b5737f940)" style="fill: #1c1cc1; stroke: #1a1a1a; stroke-linejoin: miter"/>
   </g>
   <g id="patch_13">
    <path d="M 23.540033 128.42 
L 23.540033 128.42 
L 23.540033 128.42 
L 23.540033 128.42 
z
" clip-path="url(#p6b5737f940)" style="fill: #95ad80; stroke: #1a1a1a; stroke-linejoin: miter"/>
   </g>
   <g id="patch_14">
    <path d="M 23.540033 128.42 
L 23.540033 128.42 
L 23.540033 128.42 
L 23.540033 128.42 
z
" clip-path="url(#p6b5737f940)" style="fill: #a81ba3; stroke: #1a1a1a; stroke-linejoin: miter"/>
   </g>
   <g id="patch_15">
    <path d="M 23.540033 128.42 
L 23.540033 128.42 
L 23.540033 128.42 
L 23.540033 128.42 
z
" clip-path="url(#p6b5737f940)" style="fill: #2173be; stroke: #1a1a1a; stroke-linejoin: miter"/>
   </g>
   <g id="patch_16">
    <path d="M 23.540033 128.42 
L 23.540033 128.42 
L 23.540033 128.42 
L 23.540033 128.42 
z
" clip-path="url(#p6b5737f940)" style="fill: #f0e99e; stroke: #1a1a1a; stroke-linejoin: miter"/>
   </g>
   <g id="patch_17">
    <path d="M 23.540033 128.42 
L 23.540033 128.42 
L 23.540033 128.42 
L 23.540033 128.42 
z
" clip-path="url(#p6b5737f940)" style="fill: #7d6d12; stroke: #1a1a1a; stroke-linejoin: miter"/>
   </g>
   <g id="patch_18">
    <path d="M 23.540033 128.42 
L 23.540033 128.42 
L 23.540033 128.42 
L 23.540033 128.42 
z
" clip-path="url(#p6b5737f940)" style="fill: #ec8279; stroke: #1a1a1a; stroke-linejoin: miter"/>
   </g>
   <g id="patch_19">
    <path d="M 23.540033 128.42 
L 23.540033 128.42 
L 23.540033 128.42 
L 23.540033 128.42 
z
" clip-path="url(#p6b5737f940)" style="fill: #e7c0c0; stroke: #1a1a1a; stroke-linejoin: miter"/>
   </g>
   <g id="patch_20">
    <path d="M 23.540033 128.42 
L 23.540033 128.42 
L 23.540033 128.42 
L 23.540033 128.42 
z
" clip-path="url(#p6b5737f940)" style="fill: #627a68; stroke: #1a1a1a; stroke-linejoin: miter"/>
   </g>
   <g id="patch_21">
    <path d="M 23.540033 128.42 
L 23.540033 128.42 
L 23.540033 128.42 
L 23.540033 128.42 
z
" clip-path="url(#p6b5737f940)" style="fill: #a7def2; stroke: #1a1a1a; stroke-linejoin: miter"/>
   </g>
   <g id="matplotlib.axis_1">
    <g id="xtick_1">
     <g id="line2d_1">
      <defs>
       <path id="m4fe1c28f79" d="M 0 0 
L 0 3.5 
" style="stroke: #000000; stroke-width: 0.8"/>
      </defs>
      <g>
       <use xlink:href="#m4fe1c28f79" x="23.540033" y="246.04" style="stroke: #000000; stroke-width: 0.8"/>
      </g>
     </g>
     <g id="text_1">
      <!-- 0 -->
      <g transform="translate(20.358783 260.638438)scale(0.1 -0.1)">
       <defs>
        <path id="DejaVuSans-30" d="M 2034 4250 
Q 1547 4250 1301 3770 
Q 1056 3291 1056 2328 
Q 1056 1369 1301 889 
Q 1547 409 2034 409 
Q 2525 409 2770 889 
Q 3016 1369 3016 2328 
Q 3016 3291 2770 3770 
Q 2525 4250 2034 4250 
z
M 2034 4750 
Q 2819 4750 3233 4129 
Q 3647 3509 3647 2328 
Q 3647 1150 3233 529 
Q 2819 -91 2034 -91 
Q 1250 -91 836 529 
Q 422 1150 422 2328 
Q 422 3509 836 4129 
Q 1250 4750 2034 4750 
z
" transform="scale(0.015625)"/>
       </defs>
       <use xlink:href="#DejaVuSans-30"/>
      </g>
     </g>
    </g>
    <g id="xtick_2">
     <g id="line2d_2">
      <g>
       <use xlink:href="#m4fe1c28f79" x="67.961196" y="246.04" style="stroke: #000000; stroke-width: 0.8"/>
      </g>
     </g>
     <g id="text_2">
      <!-- 1000 -->
      <g transform="translate(55.236196 260.638438)scale(0.1 -0.1)">
       <defs>
        <path id="DejaVuSans-31" d="M 794 531 
L 1825 531 
L 1825 4091 
L 703 3866 
L 703 4441 
L 1819 4666 
L 2450 4666 
L 2450 531 
L 3481 531 
L 3481 0 
L 794 0 
L 794 531 
z
" transform="scale(0.015625)"/>
       </defs>
       <use xlink:href="#DejaVuSans-31"/>
       <use xlink:href="#DejaVuSans-30" x="63.623047"/>
       <use xlink:href="#DejaVuSans-30" x="127.246094"/>
       <use xlink:href="#DejaVuSans-30" x="190.869141"/>
      </g>
     </g>
    </g>
    <g id="xtick_3">
     <g id="line2d_3">
      <g>
       <use xlink:href="#m4fe1c28f79" x="112.38236" y="246.04" style="stroke: #000000; stroke-width: 0.8"/>
      </g>
     </g>
     <g id="text_3">
      <!-- 2000 -->
      <g transform="translate(99.65736 260.638438)scale(0.1 -0.1)">
       <defs>
        <path id="DejaVuSans-32" d="M 1228 531 
L 3431 531 
L 3431 0 
L 469 0 
L 469 531 
Q 828 903 1448 1529 
Q 2069 2156 2228 2338 
Q 2531 2678 2651 2914 
Q 2772 3150 2772 3378 
Q 2772 3750 2511 3984 
Q 2250 4219 1831 4219 
Q 1534 4219 1204 4116 
Q 875 4013 500 3803 
L 500 4441 
Q 881 4594 1212 4672 
Q 1544 4750 1819 4750 
Q 2544 4750 2975 4387 
Q 3406 4025 3406 3419 
Q 3406 3131 3298 2873 
Q 3191 2616 2906 2266 
Q 2828 2175 2409 1742 
Q 1991 1309 1228 531 
z
" transform="scale(0.015625)"/>
       </defs>
       <use xlink:href="#DejaVuSans-32"/>
       <use xlink:href="#DejaVuSans-30" x="63.623047"/>
       <use xlink:href="#DejaVuSans-30" x="127.246094"/>
       <use xlink:href="#DejaVuSans-30" x="190.869141"/>
      </g>
     </g>
    </g>
    <g id="xtick_4">
     <g id="line2d_4">
      <g>
       <use xlink:href="#m4fe1c28f79" x="156.803523" y="246.04" style="stroke: #000000; stroke-width: 0.8"/>
      </g>
     </g>
     <g id="text_4">
      <!-- 3000 -->
      <g transform="translate(144.078523 260.638438)scale(0.1 -0.1)">
       <defs>
        <path id="DejaVuSans-33" d="M 2597 2516 
Q 3050 2419 3304 2112 
Q 3559 1806 3559 1356 
Q 3559 666 3084 287 
Q 2609 -91 1734 -91 
Q 1441 -91 1130 -33 
Q 819 25 488 141 
L 488 750 
Q 750 597 1062 519 
Q 1375 441 1716 441 
Q 2309 441 2620 675 
Q 2931 909 2931 1356 
Q 2931 1769 2642 2001 
Q 2353 2234 1838 2234 
L 1294 2234 
L 1294 2753 
L 1863 2753 
Q 2328 2753 2575 2939 
Q 2822 3125 2822 3475 
Q 2822 3834 2567 4026 
Q 2313 4219 1838 4219 
Q 1578 4219 1281 4162 
Q 984 4106 628 3988 
L 628 4550 
Q 988 4650 1302 4700 
Q 1616 4750 1894 4750 
Q 2613 4750 3031 4423 
Q 3450 4097 3450 3541 
Q 3450 3153 3228 2886 
Q 3006 2619 2597 2516 
z
" transform="scale(0.015625)"/>
       </defs>
       <use xlink:href="#DejaVuSans-33"/>
       <use xlink:href="#DejaVuSans-30" x="63.623047"/>
       <use xlink:href="#DejaVuSans-30" x="127.246094"/>
       <use xlink:href="#DejaVuSans-30" x="190.869141"/>
      </g>
     </g>
    </g>
    <g id="xtick_5">
     <g id="line2d_5">
      <g>
       <use xlink:href="#m4fe1c28f79" x="201.224686" y="246.04" style="stroke: #000000; stroke-width: 0.8"/>
      </g>
     </g>
     <g id="text_5">
      <!-- 4000 -->
      <g transform="translate(188.499686 260.638438)scale(0.1 -0.1)">
       <defs>
        <path id="DejaVuSans-34" d="M 2419 4116 
L 825 1625 
L 2419 1625 
L 2419 4116 
z
M 2253 4666 
L 3047 4666 
L 3047 1625 
L 3713 1625 
L 3713 1100 
L 3047 1100 
L 3047 0 
L 2419 0 
L 2419 1100 
L 313 1100 
L 313 1709 
L 2253 4666 
z
" transform="scale(0.015625)"/>
       </defs>
       <use xlink:href="#DejaVuSans-34"/>
       <use xlink:href="#DejaVuSans-30" x="63.623047"/>
       <use xlink:href="#DejaVuSans-30" x="127.246094"/>
       <use xlink:href="#DejaVuSans-30" x="190.869141"/>
      </g>
     </g>
    </g>
    <g id="xtick_6">
     <g id="line2d_6">
      <g>
       <use xlink:href="#m4fe1c28f79" x="245.645849" y="246.04" style="stroke: #000000; stroke-width: 0.8"/>
      </g>
     </g>
     <g id="text_6">
      <!-- 5000 -->
      <g transform="translate(232.920849 260.638438)scale(0.1 -0.1)">
       <defs>
        <path id="DejaVuSans-35" d="M 691 4666 
L 3169 4666 
L 3169 4134 
L 1269 4134 
L 1269 2991 
Q 1406 3038 1543 3061 
Q 1681 3084 1819 3084 
Q 2600 3084 3056 2656 
Q 3513 2228 3513 1497 
Q 3513 744 3044 326 
Q 2575 -91 1722 -91 
Q 1428 -91 1123 -41 
Q 819 9 494 109 
L 494 744 
Q 775 591 1075 516 
Q 1375 441 1709 441 
Q 2250 441 2565 725 
Q 2881 1009 2881 1497 
Q 2881 1984 2565 2268 
Q 2250 2553 1709 2553 
Q 1456 2553 1204 2497 
Q 953 2441 691 2322 
L 691 4666 
z
" transform="scale(0.015625)"/>
       </defs>
       <use xlink:href="#DejaVuSans-35"/>
       <use xlink:href="#DejaVuSans-30" x="63.623047"/>
       <use xlink:href="#DejaVuSans-30" x="127.246094"/>
       <use xlink:href="#DejaVuSans-30" x="190.869141"/>
      </g>
     </g>
    </g>
    <g id="xtick_7">
     <g id="line2d_7">
      <g>
       <use xlink:href="#m4fe1c28f79" x="290.067013" y="246.04" style="stroke: #000000; stroke-width: 0.8"/>
      </g>
     </g>
     <g id="text_7">
      <!-- 6000 -->
      <g transform="translate(277.342013 260.638438)scale(0.1 -0.1)">
       <defs>
        <path id="DejaVuSans-36" d="M 2113 2584 
Q 1688 2584 1439 2293 
Q 1191 2003 1191 1497 
Q 1191 994 1439 701 
Q 1688 409 2113 409 
Q 2538 409 2786 701 
Q 3034 994 3034 1497 
Q 3034 2003 2786 2293 
Q 2538 2584 2113 2584 
z
M 3366 4563 
L 3366 3988 
Q 3128 4100 2886 4159 
Q 2644 4219 2406 4219 
Q 1781 4219 1451 3797 
Q 1122 3375 1075 2522 
Q 1259 2794 1537 2939 
Q 1816 3084 2150 3084 
Q 2853 3084 3261 2657 
Q 3669 2231 3669 1497 
Q 3669 778 3244 343 
Q 2819 -91 2113 -91 
Q 1303 -91 875 529 
Q 447 1150 447 2328 
Q 447 3434 972 4092 
Q 1497 4750 2381 4750 
Q 2619 4750 2861 4703 
Q 3103 4656 3366 4563 
z
" transform="scale(0.015625)"/>
       </defs>
       <use xlink:href="#DejaVuSans-36"/>
       <use xlink:href="#DejaVuSans-30" x="63.623047"/>
       <use xlink:href="#DejaVuSans-30" x="127.246094"/>
       <use xlink:href="#DejaVuSans-30" x="190.869141"/>
      </g>
     </g>
    </g>
    <g id="xtick_8">
     <g id="line2d_8">
      <g>
       <use xlink:href="#m4fe1c28f79" x="334.488176" y="246.04" style="stroke: #000000; stroke-width: 0.8"/>
      </g>
     </g>
     <g id="text_8">
      <!-- 7000 -->
      <g transform="translate(321.763176 260.638438)scale(0.1 -0.1)">
       <defs>
        <path id="DejaVuSans-37" d="M 525 4666 
L 3525 4666 
L 3525 4397 
L 1831 0 
L 1172 0 
L 2766 4134 
L 525 4134 
L 525 4666 
z
" transform="scale(0.015625)"/>
       </defs>
       <use xlink:href="#DejaVuSans-37"/>
       <use xlink:href="#DejaVuSans-30" x="63.623047"/>
       <use xlink:href="#DejaVuSans-30" x="127.246094"/>
       <use xlink:href="#DejaVuSans-30" x="190.869141"/>
      </g>
     </g>
    </g>
    <g id="text_9">
     <!-- Number of Burglaries -->
     <g transform="translate(127.483946 274.316562)scale(0.1 -0.1)">
      <defs>
       <path id="DejaVuSans-4e" d="M 628 4666 
L 1478 4666 
L 3547 763 
L 3547 4666 
L 4159 4666 
L 4159 0 
L 3309 0 
L 1241 3903 
L 1241 0 
L 628 0 
L 628 4666 
z
" transform="scale(0.015625)"/>
       <path id="DejaVuSans-75" d="M 544 1381 
L 544 3500 
L 1119 3500 
L 1119 1403 
Q 1119 906 1312 657 
Q 1506 409 1894 409 
Q 2359 409 2629 706 
Q 2900 1003 2900 1516 
L 2900 3500 
L 3475 3500 
L 3475 0 
L 2900 0 
L 2900 538 
Q 2691 219 2414 64 
Q 2138 -91 1772 -91 
Q 1169 -91 856 284 
Q 544 659 544 1381 
z
M 1991 3584 
L 1991 3584 
z
" transform="scale(0.015625)"/>
       <path id="DejaVuSans-6d" d="M 3328 2828 
Q 3544 3216 3844 3400 
Q 4144 3584 4550 3584 
Q 5097 3584 5394 3201 
Q 5691 2819 5691 2113 
L 5691 0 
L 5113 0 
L 5113 2094 
Q 5113 2597 4934 2840 
Q 4756 3084 4391 3084 
Q 3944 3084 3684 2787 
Q 3425 2491 3425 1978 
L 3425 0 
L 2847 0 
L 2847 2094 
Q 2847 2600 2669 2842 
Q 2491 3084 2119 3084 
Q 1678 3084 1418 2786 
Q 1159 2488 1159 1978 
L 1159 0 
L 581 0 
L 581 3500 
L 1159 3500 
L 1159 2956 
Q 1356 3278 1631 3431 
Q 1906 3584 2284 3584 
Q 2666 3584 2933 3390 
Q 3200 3197 3328 2828 
z
" transform="scale(0.015625)"/>
       <path id="DejaVuSans-62" d="M 3116 1747 
Q 3116 2381 2855 2742 
Q 2594 3103 2138 3103 
Q 1681 3103 1420 2742 
Q 1159 2381 1159 1747 
Q 1159 1113 1420 752 
Q 1681 391 2138 391 
Q 2594 391 2855 752 
Q 3116 1113 3116 1747 
z
M 1159 2969 
Q 1341 3281 1617 3432 
Q 1894 3584 2278 3584 
Q 2916 3584 3314 3078 
Q 3713 2572 3713 1747 
Q 3713 922 3314 415 
Q 2916 -91 2278 -91 
Q 1894 -91 1617 61 
Q 1341 213 1159 525 
L 1159 0 
L 581 0 
L 581 4863 
L 1159 4863 
L 1159 2969 
z
" transform="scale(0.015625)"/>
       <path id="DejaVuSans-65" d="M 3597 1894 
L 3597 1613 
L 953 1613 
Q 991 1019 1311 708 
Q 1631 397 2203 397 
Q 2534 397 2845 478 
Q 3156 559 3463 722 
L 3463 178 
Q 3153 47 2828 -22 
Q 2503 -91 2169 -91 
Q 1331 -91 842 396 
Q 353 884 353 1716 
Q 353 2575 817 3079 
Q 1281 3584 2069 3584 
Q 2775 3584 3186 3129 
Q 3597 2675 3597 1894 
z
M 3022 2063 
Q 3016 2534 2758 2815 
Q 2500 3097 2075 3097 
Q 1594 3097 1305 2825 
Q 1016 2553 972 2059 
L 3022 2063 
z
" transform="scale(0.015625)"/>
       <path id="DejaVuSans-72" d="M 2631 2963 
Q 2534 3019 2420 3045 
Q 2306 3072 2169 3072 
Q 1681 3072 1420 2755 
Q 1159 2438 1159 1844 
L 1159 0 
L 581 0 
L 581 3500 
L 1159 3500 
L 1159 2956 
Q 1341 3275 1631 3429 
Q 1922 3584 2338 3584 
Q 2397 3584 2469 3576 
Q 2541 3569 2628 3553 
L 2631 2963 
z
" transform="scale(0.015625)"/>
       <path id="DejaVuSans-20" transform="scale(0.015625)"/>
       <path id="DejaVuSans-6f" d="M 1959 3097 
Q 1497 3097 1228 2736 
Q 959 2375 959 1747 
Q 959 1119 1226 758 
Q 1494 397 1959 397 
Q 2419 397 2687 759 
Q 2956 1122 2956 1747 
Q 2956 2369 2687 2733 
Q 2419 3097 1959 3097 
z
M 1959 3584 
Q 2709 3584 3137 3096 
Q 3566 2609 3566 1747 
Q 3566 888 3137 398 
Q 2709 -91 1959 -91 
Q 1206 -91 779 398 
Q 353 888 353 1747 
Q 353 2609 779 3096 
Q 1206 3584 1959 3584 
z
" transform="scale(0.015625)"/>
       <path id="DejaVuSans-66" d="M 2375 4863 
L 2375 4384 
L 1825 4384 
Q 1516 4384 1395 4259 
Q 1275 4134 1275 3809 
L 1275 3500 
L 2222 3500 
L 2222 3053 
L 1275 3053 
L 1275 0 
L 697 0 
L 697 3053 
L 147 3053 
L 147 3500 
L 697 3500 
L 697 3744 
Q 697 4328 969 4595 
Q 1241 4863 1831 4863 
L 2375 4863 
z
" transform="scale(0.015625)"/>
       <path id="DejaVuSans-42" d="M 1259 2228 
L 1259 519 
L 2272 519 
Q 2781 519 3026 730 
Q 3272 941 3272 1375 
Q 3272 1813 3026 2020 
Q 2781 2228 2272 2228 
L 1259 2228 
z
M 1259 4147 
L 1259 2741 
L 2194 2741 
Q 2656 2741 2882 2914 
Q 3109 3088 3109 3444 
Q 3109 3797 2882 3972 
Q 2656 4147 2194 4147 
L 1259 4147 
z
M 628 4666 
L 2241 4666 
Q 2963 4666 3353 4366 
Q 3744 4066 3744 3513 
Q 3744 3084 3544 2831 
Q 3344 2578 2956 2516 
Q 3422 2416 3680 2098 
Q 3938 1781 3938 1306 
Q 3938 681 3513 340 
Q 3088 0 2303 0 
L 628 0 
L 628 4666 
z
" transform="scale(0.015625)"/>
       <path id="DejaVuSans-67" d="M 2906 1791 
Q 2906 2416 2648 2759 
Q 2391 3103 1925 3103 
Q 1463 3103 1205 2759 
Q 947 2416 947 1791 
Q 947 1169 1205 825 
Q 1463 481 1925 481 
Q 2391 481 2648 825 
Q 2906 1169 2906 1791 
z
M 3481 434 
Q 3481 -459 3084 -895 
Q 2688 -1331 1869 -1331 
Q 1566 -1331 1297 -1286 
Q 1028 -1241 775 -1147 
L 775 -588 
Q 1028 -725 1275 -790 
Q 1522 -856 1778 -856 
Q 2344 -856 2625 -561 
Q 2906 -266 2906 331 
L 2906 616 
Q 2728 306 2450 153 
Q 2172 0 1784 0 
Q 1141 0 747 490 
Q 353 981 353 1791 
Q 353 2603 747 3093 
Q 1141 3584 1784 3584 
Q 2172 3584 2450 3431 
Q 2728 3278 2906 2969 
L 2906 3500 
L 3481 3500 
L 3481 434 
z
" transform="scale(0.015625)"/>
       <path id="DejaVuSans-6c" d="M 603 4863 
L 1178 4863 
L 1178 0 
L 603 0 
L 603 4863 
z
" transform="scale(0.015625)"/>
       <path id="DejaVuSans-61" d="M 2194 1759 
Q 1497 1759 1228 1600 
Q 959 1441 959 1056 
Q 959 750 1161 570 
Q 1363 391 1709 391 
Q 2188 391 2477 730 
Q 2766 1069 2766 1631 
L 2766 1759 
L 2194 1759 
z
M 3341 1997 
L 3341 0 
L 2766 0 
L 2766 531 
Q 2569 213 2275 61 
Q 1981 -91 1556 -91 
Q 1019 -91 701 211 
Q 384 513 384 1019 
Q 384 1609 779 1909 
Q 1175 2209 1959 2209 
L 2766 2209 
L 2766 2266 
Q 2766 2663 2505 2880 
Q 2244 3097 1772 3097 
Q 1472 3097 1187 3025 
Q 903 2953 641 2809 
L 641 3341 
Q 956 3463 1253 3523 
Q 1550 3584 1831 3584 
Q 2591 3584 2966 3190 
Q 3341 2797 3341 1997 
z
" transform="scale(0.015625)"/>
       <path id="DejaVuSans-69" d="M 603 3500 
L 1178 3500 
L 1178 0 
L 603 0 
L 603 3500 
z
M 603 4863 
L 1178 4863 
L 1178 4134 
L 603 4134 
L 603 4863 
z
" transform="scale(0.015625)"/>
       <path id="DejaVuSans-73" d="M 2834 3397 
L 2834 2853 
Q 2591 2978 2328 3040 
Q 2066 3103 1784 3103 
Q 1356 3103 1142 2972 
Q 928 2841 928 2578 
Q 928 2378 1081 2264 
Q 1234 2150 1697 2047 
L 1894 2003 
Q 2506 1872 2764 1633 
Q 3022 1394 3022 966 
Q 3022 478 2636 193 
Q 2250 -91 1575 -91 
Q 1294 -91 989 -36 
Q 684 19 347 128 
L 347 722 
Q 666 556 975 473 
Q 1284 391 1588 391 
Q 1994 391 2212 530 
Q 2431 669 2431 922 
Q 2431 1156 2273 1281 
Q 2116 1406 1581 1522 
L 1381 1569 
Q 847 1681 609 1914 
Q 372 2147 372 2553 
Q 372 3047 722 3315 
Q 1072 3584 1716 3584 
Q 2034 3584 2315 3537 
Q 2597 3491 2834 3397 
z
" transform="scale(0.015625)"/>
      </defs>
      <use xlink:href="#DejaVuSans-4e"/>
      <use xlink:href="#DejaVuSans-75" x="74.804688"/>
      <use xlink:href="#DejaVuSans-6d" x="138.183594"/>
      <use xlink:href="#DejaVuSans-62" x="235.595703"/>
      <use xlink:href="#DejaVuSans-65" x="299.072266"/>
      <use xlink:href="#DejaVuSans-72" x="360.595703"/>
      <use xlink:href="#DejaVuSans-20" x="401.708984"/>
      <use xlink:href="#DejaVuSans-6f" x="433.496094"/>
      <use xlink:href="#DejaVuSans-66" x="494.677734"/>
      <use xlink:href="#DejaVuSans-20" x="529.882812"/>
      <use xlink:href="#DejaVuSans-42" x="561.669922"/>
      <use xlink:href="#DejaVuSans-75" x="630.273438"/>
      <use xlink:href="#DejaVuSans-72" x="693.652344"/>
      <use xlink:href="#DejaVuSans-67" x="733.015625"/>
      <use xlink:href="#DejaVuSans-6c" x="796.492188"/>
      <use xlink:href="#DejaVuSans-61" x="824.275391"/>
      <use xlink:href="#DejaVuSans-72" x="885.554688"/>
      <use xlink:href="#DejaVuSans-69" x="926.667969"/>
      <use xlink:href="#DejaVuSans-65" x="954.451172"/>
      <use xlink:href="#DejaVuSans-73" x="1015.974609"/>
     </g>
    </g>
   </g>
   <g id="matplotlib.axis_2">
    <g id="ytick_1">
     <g id="line2d_9">
      <defs>
       <path id="m126b3fbf9a" d="M 0 0 
L -3.5 0 
" style="stroke: #000000; stroke-width: 0.8"/>
      </defs>
      <g>
       <use xlink:href="#m126b3fbf9a" x="14.3" y="128.42" style="stroke: #000000; stroke-width: 0.8"/>
      </g>
     </g>
    </g>
   </g>
   <g id="patch_22">
    <path d="M 53.812355 34.324 
L 53.812355 44.228842 
L 88.166775 44.228842 
L 88.166775 34.324 
L 53.812355 34.324 
z
" clip-path="url(#p6b5737f940)" style="fill: #bc1b1b; stroke: #1a1a1a; stroke-linejoin: miter"/>
   </g>
   <g id="line2d_10">
    <path d="M 53.812355 39.276421 
L 42.450884 39.276421 
" clip-path="url(#p6b5737f940)" style="fill: none; stroke: #1a1a1a"/>
   </g>
   <g id="line2d_11">
    <path d="M 88.166775 39.276421 
L 129.062943 39.276421 
" clip-path="url(#p6b5737f940)" style="fill: none; stroke: #1a1a1a"/>
   </g>
   <g id="line2d_12">
    <path d="M 42.450884 36.800211 
L 42.450884 41.752632 
" clip-path="url(#p6b5737f940)" style="fill: none; stroke: #1a1a1a; stroke-linecap: square"/>
   </g>
   <g id="line2d_13">
    <path d="M 129.062943 36.800211 
L 129.062943 41.752632 
" clip-path="url(#p6b5737f940)" style="fill: none; stroke: #1a1a1a; stroke-linecap: square"/>
   </g>
   <g id="line2d_14">
    <defs>
     <path id="mdbb62538e3" d="M 0 3 
C 0.795609 3 1.55874 2.683901 2.12132 2.12132 
C 2.683901 1.55874 3 0.795609 3 0 
C 3 -0.795609 2.683901 -1.55874 2.12132 -2.12132 
C 1.55874 -2.683901 0.795609 -3 0 -3 
C -0.795609 -3 -1.55874 -2.683901 -2.12132 -2.12132 
C -2.683901 -1.55874 -3 -0.795609 -3 0 
C -3 0.795609 -2.683901 1.55874 -2.12132 2.12132 
C -1.55874 2.683901 -0.795609 3 0 3 
z
" style="stroke: #1a1a1a"/>
    </defs>
    <g clip-path="url(#p6b5737f940)">
     <use xlink:href="#mdbb62538e3" x="201.935551" y="39.276421" style="fill-opacity: 0; stroke: #1a1a1a"/>
     <use xlink:href="#mdbb62538e3" x="162.409387" y="39.276421" style="fill-opacity: 0; stroke: #1a1a1a"/>
     <use xlink:href="#mdbb62538e3" x="140.81236" y="39.276421" style="fill-opacity: 0; stroke: #1a1a1a"/>
    </g>
   </g>
   <g id="patch_23">
    <path d="M 167.22956 44.228842 
L 167.22956 54.133684 
L 241.356707 54.133684 
L 241.356707 44.228842 
L 167.22956 44.228842 
z
" clip-path="url(#p6b5737f940)" style="fill: #9054e7; stroke: #1a1a1a; stroke-linejoin: miter"/>
   </g>
   <g id="line2d_15">
    <path d="M 167.22956 49.181263 
L 112.26792 49.181263 
" clip-path="url(#p6b5737f940)" style="fill: none; stroke: #1a1a1a"/>
   </g>
   <g id="line2d_16">
    <path d="M 241.356707 49.181263 
L 322.563409 49.181263 
" clip-path="url(#p6b5737f940)" style="fill: none; stroke: #1a1a1a"/>
   </g>
   <g id="line2d_17">
    <path d="M 112.26792 46.705053 
L 112.26792 51.657474 
" clip-path="url(#p6b5737f940)" style="fill: none; stroke: #1a1a1a; stroke-linecap: square"/>
   </g>
   <g id="line2d_18">
    <path d="M 322.563409 46.705053 
L 322.563409 51.657474 
" clip-path="url(#p6b5737f940)" style="fill: none; stroke: #1a1a1a; stroke-linecap: square"/>
   </g>
   <g id="line2d_19"/>
   <g id="patch_24">
    <path d="M 57.424444 54.133684 
L 57.424444 64.038526 
L 68.701328 64.038526 
L 68.701328 54.133684 
L 57.424444 54.133684 
z
" clip-path="url(#p6b5737f940)" style="fill: #127711; stroke: #1a1a1a; stroke-linejoin: miter"/>
   </g>
   <g id="line2d_20">
    <path d="M 57.424444 59.086105 
L 40.927415 59.086105 
" clip-path="url(#p6b5737f940)" style="fill: none; stroke: #1a1a1a"/>
   </g>
   <g id="line2d_21">
    <path d="M 68.701328 59.086105 
L 82.76501 59.086105 
" clip-path="url(#p6b5737f940)" style="fill: none; stroke: #1a1a1a"/>
   </g>
   <g id="line2d_22">
    <path d="M 40.927415 56.609895 
L 40.927415 61.562316 
" clip-path="url(#p6b5737f940)" style="fill: none; stroke: #1a1a1a; stroke-linecap: square"/>
   </g>
   <g id="line2d_23">
    <path d="M 82.76501 56.609895 
L 82.76501 61.562316 
" clip-path="url(#p6b5737f940)" style="fill: none; stroke: #1a1a1a; stroke-linecap: square"/>
   </g>
   <g id="line2d_24">
    <g clip-path="url(#p6b5737f940)">
     <use xlink:href="#mdbb62538e3" x="92.429089" y="59.086105" style="fill-opacity: 0; stroke: #1a1a1a"/>
    </g>
   </g>
   <g id="patch_25">
    <path d="M 71.505215 64.038526 
L 71.505215 73.943368 
L 94.969848 73.943368 
L 94.969848 64.038526 
L 71.505215 64.038526 
z
" clip-path="url(#p6b5737f940)" style="fill: #199aae; stroke: #1a1a1a; stroke-linejoin: miter"/>
   </g>
   <g id="line2d_25">
    <path d="M 71.505215 68.990947 
L 71.505215 68.990947 
" clip-path="url(#p6b5737f940)" style="fill: none; stroke: #1a1a1a"/>
   </g>
   <g id="line2d_26">
    <path d="M 94.969848 68.990947 
L 107.671024 68.990947 
" clip-path="url(#p6b5737f940)" style="fill: none; stroke: #1a1a1a"/>
   </g>
   <g id="line2d_27">
    <path d="M 71.505215 66.514737 
L 71.505215 71.467158 
" clip-path="url(#p6b5737f940)" style="fill: none; stroke: #1a1a1a; stroke-linecap: square"/>
   </g>
   <g id="line2d_28">
    <path d="M 107.671024 66.514737 
L 107.671024 71.467158 
" clip-path="url(#p6b5737f940)" style="fill: none; stroke: #1a1a1a; stroke-linecap: square"/>
   </g>
   <g id="line2d_29"/>
   <g id="patch_26">
    <path d="M 47.938004 73.943368 
L 47.938004 83.848211 
L 67.320989 83.848211 
L 67.320989 73.943368 
L 47.938004 73.943368 
z
" clip-path="url(#p6b5737f940)" style="fill: #92df20; stroke: #1a1a1a; stroke-linejoin: miter"/>
   </g>
   <g id="line2d_30">
    <path d="M 47.938004 78.895789 
L 39.932476 78.895789 
" clip-path="url(#p6b5737f940)" style="fill: none; stroke: #1a1a1a"/>
   </g>
   <g id="line2d_31">
    <path d="M 67.320989 78.895789 
L 87.289978 78.895789 
" clip-path="url(#p6b5737f940)" style="fill: none; stroke: #1a1a1a"/>
   </g>
   <g id="line2d_32">
    <path d="M 39.932476 76.419579 
L 39.932476 81.372 
" clip-path="url(#p6b5737f940)" style="fill: none; stroke: #1a1a1a; stroke-linecap: square"/>
   </g>
   <g id="line2d_33">
    <path d="M 87.289978 76.419579 
L 87.289978 81.372 
" clip-path="url(#p6b5737f940)" style="fill: none; stroke: #1a1a1a; stroke-linecap: square"/>
   </g>
   <g id="line2d_34">
    <g clip-path="url(#p6b5737f940)">
     <use xlink:href="#mdbb62538e3" x="108.69899" y="78.895789" style="fill-opacity: 0; stroke: #1a1a1a"/>
     <use xlink:href="#mdbb62538e3" x="108.69899" y="78.895789" style="fill-opacity: 0; stroke: #1a1a1a"/>
    </g>
   </g>
   <g id="patch_27">
    <path d="M 64.673678 83.848211 
L 64.673678 93.753053 
L 112.985169 93.753053 
L 112.985169 83.848211 
L 64.673678 83.848211 
z
" clip-path="url(#p6b5737f940)" style="fill: #ef8fcd; stroke: #1a1a1a; stroke-linejoin: miter"/>
   </g>
   <g id="line2d_35">
    <path d="M 64.673678 88.800632 
L 33.481255 88.800632 
" clip-path="url(#p6b5737f940)" style="fill: none; stroke: #1a1a1a"/>
   </g>
   <g id="line2d_36">
    <path d="M 112.985169 88.800632 
L 182.60028 88.800632 
" clip-path="url(#p6b5737f940)" style="fill: none; stroke: #1a1a1a"/>
   </g>
   <g id="line2d_37">
    <path d="M 33.481255 86.324421 
L 33.481255 91.276842 
" clip-path="url(#p6b5737f940)" style="fill: none; stroke: #1a1a1a; stroke-linecap: square"/>
   </g>
   <g id="line2d_38">
    <path d="M 182.60028 86.324421 
L 182.60028 91.276842 
" clip-path="url(#p6b5737f940)" style="fill: none; stroke: #1a1a1a; stroke-linecap: square"/>
   </g>
   <g id="line2d_39">
    <g clip-path="url(#p6b5737f940)">
     <use xlink:href="#mdbb62538e3" x="189.668889" y="88.800632" style="fill-opacity: 0; stroke: #1a1a1a"/>
     <use xlink:href="#mdbb62538e3" x="189.668889" y="88.800632" style="fill-opacity: 0; stroke: #1a1a1a"/>
     <use xlink:href="#mdbb62538e3" x="185.548835" y="88.800632" style="fill-opacity: 0; stroke: #1a1a1a"/>
     <use xlink:href="#mdbb62538e3" x="185.548835" y="88.800632" style="fill-opacity: 0; stroke: #1a1a1a"/>
    </g>
   </g>
   <g id="patch_28">
    <path d="M 259.599978 93.753053 
L 259.599978 103.657895 
L 317.383399 103.657895 
L 317.383399 93.753053 
L 259.599978 93.753053 
z
" clip-path="url(#p6b5737f940)" style="fill: #5e0d49; stroke: #1a1a1a; stroke-linejoin: miter"/>
   </g>
   <g id="line2d_40">
    <path d="M 259.599978 98.705474 
L 196.048381 98.705474 
" clip-path="url(#p6b5737f940)" style="fill: none; stroke: #1a1a1a"/>
   </g>
   <g id="line2d_41">
    <path d="M 317.383399 98.705474 
L 332.331354 98.705474 
" clip-path="url(#p6b5737f940)" style="fill: none; stroke: #1a1a1a"/>
   </g>
   <g id="line2d_42">
    <path d="M 196.048381 96.229263 
L 196.048381 101.181684 
" clip-path="url(#p6b5737f940)" style="fill: none; stroke: #1a1a1a; stroke-linecap: square"/>
   </g>
   <g id="line2d_43">
    <path d="M 332.331354 96.229263 
L 332.331354 101.181684 
" clip-path="url(#p6b5737f940)" style="fill: none; stroke: #1a1a1a; stroke-linecap: square"/>
   </g>
   <g id="line2d_44"/>
   <g id="patch_29">
    <path d="M 77.657162 103.657895 
L 77.657162 113.562737 
L 117.50456 113.562737 
L 117.50456 103.657895 
L 77.657162 103.657895 
z
" clip-path="url(#p6b5737f940)" style="fill: #4d370b; stroke: #1a1a1a; stroke-linejoin: miter"/>
   </g>
   <g id="line2d_45">
    <path d="M 77.657162 108.610316 
L 68.644278 108.610316 
" clip-path="url(#p6b5737f940)" style="fill: none; stroke: #1a1a1a"/>
   </g>
   <g id="line2d_46">
    <path d="M 117.50456 108.610316 
L 138.998263 108.610316 
" clip-path="url(#p6b5737f940)" style="fill: none; stroke: #1a1a1a"/>
   </g>
   <g id="line2d_47">
    <path d="M 68.644278 106.134105 
L 68.644278 111.086526 
" clip-path="url(#p6b5737f940)" style="fill: none; stroke: #1a1a1a; stroke-linecap: square"/>
   </g>
   <g id="line2d_48">
    <path d="M 138.998263 106.134105 
L 138.998263 111.086526 
" clip-path="url(#p6b5737f940)" style="fill: none; stroke: #1a1a1a; stroke-linecap: square"/>
   </g>
   <g id="line2d_49"/>
   <g id="patch_30">
    <path d="M 81.372344 113.562737 
L 81.372344 123.467579 
L 131.026246 123.467579 
L 131.026246 113.562737 
L 81.372344 113.562737 
z
" clip-path="url(#p6b5737f940)" style="fill: #0b4c4e; stroke: #1a1a1a; stroke-linejoin: miter"/>
   </g>
   <g id="line2d_50">
    <path d="M 81.372344 118.515158 
L 51.878226 118.515158 
" clip-path="url(#p6b5737f940)" style="fill: none; stroke: #1a1a1a"/>
   </g>
   <g id="line2d_51">
    <path d="M 131.026246 118.515158 
L 199.235402 118.515158 
" clip-path="url(#p6b5737f940)" style="fill: none; stroke: #1a1a1a"/>
   </g>
   <g id="line2d_52">
    <path d="M 51.878226 116.038947 
L 51.878226 120.991368 
" clip-path="url(#p6b5737f940)" style="fill: none; stroke: #1a1a1a; stroke-linecap: square"/>
   </g>
   <g id="line2d_53">
    <path d="M 199.235402 116.038947 
L 199.235402 120.991368 
" clip-path="url(#p6b5737f940)" style="fill: none; stroke: #1a1a1a; stroke-linecap: square"/>
   </g>
   <g id="line2d_54">
    <g clip-path="url(#p6b5737f940)">
     <use xlink:href="#mdbb62538e3" x="241.394377" y="118.515158" style="fill-opacity: 0; stroke: #1a1a1a"/>
     <use xlink:href="#mdbb62538e3" x="227.973828" y="118.515158" style="fill-opacity: 0; stroke: #1a1a1a"/>
     <use xlink:href="#mdbb62538e3" x="234.525647" y="118.515158" style="fill-opacity: 0; stroke: #1a1a1a"/>
     <use xlink:href="#mdbb62538e3" x="234.525647" y="118.515158" style="fill-opacity: 0; stroke: #1a1a1a"/>
     <use xlink:href="#mdbb62538e3" x="206.975231" y="118.515158" style="fill-opacity: 0; stroke: #1a1a1a"/>
     <use xlink:href="#mdbb62538e3" x="206.975231" y="118.515158" style="fill-opacity: 0; stroke: #1a1a1a"/>
     <use xlink:href="#mdbb62538e3" x="211.120501" y="118.515158" style="fill-opacity: 0; stroke: #1a1a1a"/>
     <use xlink:href="#mdbb62538e3" x="211.120501" y="118.515158" style="fill-opacity: 0; stroke: #1a1a1a"/>
    </g>
   </g>
   <g id="patch_31">
    <path d="M 60.327883 123.467579 
L 60.327883 133.372421 
L 65.265033 133.372421 
L 65.265033 123.467579 
L 60.327883 123.467579 
z
" clip-path="url(#p6b5737f940)" style="fill: #1c1cc1; stroke: #1a1a1a; stroke-linejoin: miter"/>
   </g>
   <g id="line2d_55">
    <path d="M 60.327883 128.42 
L 53.149068 128.42 
" clip-path="url(#p6b5737f940)" style="fill: none; stroke: #1a1a1a"/>
   </g>
   <g id="line2d_56">
    <path d="M 65.265033 128.42 
L 72.076338 128.42 
" clip-path="url(#p6b5737f940)" style="fill: none; stroke: #1a1a1a"/>
   </g>
   <g id="line2d_57">
    <path d="M 53.149068 125.943789 
L 53.149068 130.896211 
" clip-path="url(#p6b5737f940)" style="fill: none; stroke: #1a1a1a; stroke-linecap: square"/>
   </g>
   <g id="line2d_58">
    <path d="M 72.076338 125.943789 
L 72.076338 130.896211 
" clip-path="url(#p6b5737f940)" style="fill: none; stroke: #1a1a1a; stroke-linecap: square"/>
   </g>
   <g id="line2d_59">
    <g clip-path="url(#p6b5737f940)">
     <use xlink:href="#mdbb62538e3" x="81.268379" y="128.42" style="fill-opacity: 0; stroke: #1a1a1a"/>
     <use xlink:href="#mdbb62538e3" x="75.516594" y="128.42" style="fill-opacity: 0; stroke: #1a1a1a"/>
     <use xlink:href="#mdbb62538e3" x="83.538036" y="128.42" style="fill-opacity: 0; stroke: #1a1a1a"/>
     <use xlink:href="#mdbb62538e3" x="75.786406" y="128.42" style="fill-opacity: 0; stroke: #1a1a1a"/>
    </g>
   </g>
   <g id="patch_32">
    <path d="M 127.111707 133.372421 
L 127.111707 143.277263 
L 218.368427 143.277263 
L 218.368427 133.372421 
L 127.111707 133.372421 
z
" clip-path="url(#p6b5737f940)" style="fill: #95ad80; stroke: #1a1a1a; stroke-linejoin: miter"/>
   </g>
   <g id="line2d_60">
    <path d="M 127.111707 138.324842 
L 56.681137 138.324842 
" clip-path="url(#p6b5737f940)" style="fill: none; stroke: #1a1a1a"/>
   </g>
   <g id="line2d_61">
    <path d="M 218.368427 138.324842 
L 318.400644 138.324842 
" clip-path="url(#p6b5737f940)" style="fill: none; stroke: #1a1a1a"/>
   </g>
   <g id="line2d_62">
    <path d="M 56.681137 135.848632 
L 56.681137 140.801053 
" clip-path="url(#p6b5737f940)" style="fill: none; stroke: #1a1a1a; stroke-linecap: square"/>
   </g>
   <g id="line2d_63">
    <path d="M 318.400644 135.848632 
L 318.400644 140.801053 
" clip-path="url(#p6b5737f940)" style="fill: none; stroke: #1a1a1a; stroke-linecap: square"/>
   </g>
   <g id="line2d_64"/>
   <g id="patch_33">
    <path d="M 51.665194 143.277263 
L 51.665194 153.182105 
L 73.410835 153.182105 
L 73.410835 143.277263 
L 51.665194 143.277263 
z
" clip-path="url(#p6b5737f940)" style="fill: #a81ba3; stroke: #1a1a1a; stroke-linejoin: miter"/>
   </g>
   <g id="line2d_65">
    <path d="M 51.665194 148.229684 
L 42.705031 148.229684 
" clip-path="url(#p6b5737f940)" style="fill: none; stroke: #1a1a1a"/>
   </g>
   <g id="line2d_66">
    <path d="M 73.410835 148.229684 
L 75.220193 148.229684 
" clip-path="url(#p6b5737f940)" style="fill: none; stroke: #1a1a1a"/>
   </g>
   <g id="line2d_67">
    <path d="M 42.705031 145.753474 
L 42.705031 150.705895 
" clip-path="url(#p6b5737f940)" style="fill: none; stroke: #1a1a1a; stroke-linecap: square"/>
   </g>
   <g id="line2d_68">
    <path d="M 75.220193 145.753474 
L 75.220193 150.705895 
" clip-path="url(#p6b5737f940)" style="fill: none; stroke: #1a1a1a; stroke-linecap: square"/>
   </g>
   <g id="line2d_69"/>
   <g id="patch_34">
    <path d="M 73.45012 153.182105 
L 73.45012 163.086947 
L 101.55756 163.086947 
L 101.55756 153.182105 
L 73.45012 153.182105 
z
" clip-path="url(#p6b5737f940)" style="fill: #2173be; stroke: #1a1a1a; stroke-linejoin: miter"/>
   </g>
   <g id="line2d_70">
    <path d="M 73.45012 158.134526 
L 63.539217 158.134526 
" clip-path="url(#p6b5737f940)" style="fill: none; stroke: #1a1a1a"/>
   </g>
   <g id="line2d_71">
    <path d="M 101.55756 158.134526 
L 123.663117 158.134526 
" clip-path="url(#p6b5737f940)" style="fill: none; stroke: #1a1a1a"/>
   </g>
   <g id="line2d_72">
    <path d="M 63.539217 155.658316 
L 63.539217 160.610737 
" clip-path="url(#p6b5737f940)" style="fill: none; stroke: #1a1a1a; stroke-linecap: square"/>
   </g>
   <g id="line2d_73">
    <path d="M 123.663117 155.658316 
L 123.663117 160.610737 
" clip-path="url(#p6b5737f940)" style="fill: none; stroke: #1a1a1a; stroke-linecap: square"/>
   </g>
   <g id="line2d_74"/>
   <g id="patch_35">
    <path d="M 101.944647 163.086947 
L 101.944647 172.991789 
L 145.710197 172.991789 
L 145.710197 163.086947 
L 101.944647 163.086947 
z
" clip-path="url(#p6b5737f940)" style="fill: #f0e99e; stroke: #1a1a1a; stroke-linejoin: miter"/>
   </g>
   <g id="line2d_75">
    <path d="M 101.944647 168.039368 
L 68.950141 168.039368 
" clip-path="url(#p6b5737f940)" style="fill: none; stroke: #1a1a1a"/>
   </g>
   <g id="line2d_76">
    <path d="M 145.710197 168.039368 
L 196.046743 168.039368 
" clip-path="url(#p6b5737f940)" style="fill: none; stroke: #1a1a1a"/>
   </g>
   <g id="line2d_77">
    <path d="M 68.950141 165.563158 
L 68.950141 170.515579 
" clip-path="url(#p6b5737f940)" style="fill: none; stroke: #1a1a1a; stroke-linecap: square"/>
   </g>
   <g id="line2d_78">
    <path d="M 196.046743 165.563158 
L 196.046743 170.515579 
" clip-path="url(#p6b5737f940)" style="fill: none; stroke: #1a1a1a; stroke-linecap: square"/>
   </g>
   <g id="line2d_79">
    <g clip-path="url(#p6b5737f940)">
     <use xlink:href="#mdbb62538e3" x="225.684403" y="168.039368" style="fill-opacity: 0; stroke: #1a1a1a"/>
     <use xlink:href="#mdbb62538e3" x="248.813931" y="168.039368" style="fill-opacity: 0; stroke: #1a1a1a"/>
     <use xlink:href="#mdbb62538e3" x="224.417905" y="168.039368" style="fill-opacity: 0; stroke: #1a1a1a"/>
     <use xlink:href="#mdbb62538e3" x="254.976839" y="168.039368" style="fill-opacity: 0; stroke: #1a1a1a"/>
     <use xlink:href="#mdbb62538e3" x="214.576078" y="168.039368" style="fill-opacity: 0; stroke: #1a1a1a"/>
    </g>
   </g>
   <g id="patch_36">
    <path d="M 68.183667 172.991789 
L 68.183667 182.896632 
L 88.436278 182.896632 
L 88.436278 172.991789 
L 68.183667 172.991789 
z
" clip-path="url(#p6b5737f940)" style="fill: #7d6d12; stroke: #1a1a1a; stroke-linejoin: miter"/>
   </g>
   <g id="line2d_80">
    <path d="M 68.183667 177.944211 
L 58.183077 177.944211 
" clip-path="url(#p6b5737f940)" style="fill: none; stroke: #1a1a1a"/>
   </g>
   <g id="line2d_81">
    <path d="M 88.436278 177.944211 
L 107.86149 177.944211 
" clip-path="url(#p6b5737f940)" style="fill: none; stroke: #1a1a1a"/>
   </g>
   <g id="line2d_82">
    <path d="M 58.183077 175.468 
L 58.183077 180.420421 
" clip-path="url(#p6b5737f940)" style="fill: none; stroke: #1a1a1a; stroke-linecap: square"/>
   </g>
   <g id="line2d_83">
    <path d="M 107.86149 175.468 
L 107.86149 180.420421 
" clip-path="url(#p6b5737f940)" style="fill: none; stroke: #1a1a1a; stroke-linecap: square"/>
   </g>
   <g id="line2d_84"/>
   <g id="patch_37">
    <path d="M 53.357645 182.896632 
L 53.357645 192.801474 
L 70.721897 192.801474 
L 70.721897 182.896632 
L 53.357645 182.896632 
z
" clip-path="url(#p6b5737f940)" style="fill: #ec8279; stroke: #1a1a1a; stroke-linejoin: miter"/>
   </g>
   <g id="line2d_85">
    <path d="M 53.357645 187.849053 
L 32.769029 187.849053 
" clip-path="url(#p6b5737f940)" style="fill: none; stroke: #1a1a1a"/>
   </g>
   <g id="line2d_86">
    <path d="M 70.721897 187.849053 
L 83.605615 187.849053 
" clip-path="url(#p6b5737f940)" style="fill: none; stroke: #1a1a1a"/>
   </g>
   <g id="line2d_87">
    <path d="M 32.769029 185.372842 
L 32.769029 190.325263 
" clip-path="url(#p6b5737f940)" style="fill: none; stroke: #1a1a1a; stroke-linecap: square"/>
   </g>
   <g id="line2d_88">
    <path d="M 83.605615 185.372842 
L 83.605615 190.325263 
" clip-path="url(#p6b5737f940)" style="fill: none; stroke: #1a1a1a; stroke-linecap: square"/>
   </g>
   <g id="line2d_89">
    <g clip-path="url(#p6b5737f940)">
     <use xlink:href="#mdbb62538e3" x="115.589301" y="187.849053" style="fill-opacity: 0; stroke: #1a1a1a"/>
     <use xlink:href="#mdbb62538e3" x="132.0035" y="187.849053" style="fill-opacity: 0; stroke: #1a1a1a"/>
     <use xlink:href="#mdbb62538e3" x="105.292072" y="187.849053" style="fill-opacity: 0; stroke: #1a1a1a"/>
    </g>
   </g>
   <g id="patch_38">
    <path d="M 175.350314 192.801474 
L 175.350314 202.706316 
L 225.289688 202.706316 
L 225.289688 192.801474 
L 175.350314 192.801474 
z
" clip-path="url(#p6b5737f940)" style="fill: #e7c0c0; stroke: #1a1a1a; stroke-linejoin: miter"/>
   </g>
   <g id="line2d_90">
    <path d="M 175.350314 197.753895 
L 112.13009 197.753895 
" clip-path="url(#p6b5737f940)" style="fill: none; stroke: #1a1a1a"/>
   </g>
   <g id="line2d_91">
    <path d="M 225.289688 197.753895 
L 299.640615 197.753895 
" clip-path="url(#p6b5737f940)" style="fill: none; stroke: #1a1a1a"/>
   </g>
   <g id="line2d_92">
    <path d="M 112.13009 195.277684 
L 112.13009 200.230105 
" clip-path="url(#p6b5737f940)" style="fill: none; stroke: #1a1a1a; stroke-linecap: square"/>
   </g>
   <g id="line2d_93">
    <path d="M 299.640615 195.277684 
L 299.640615 200.230105 
" clip-path="url(#p6b5737f940)" style="fill: none; stroke: #1a1a1a; stroke-linecap: square"/>
   </g>
   <g id="line2d_94"/>
   <g id="patch_39">
    <path d="M 69.393233 202.706316 
L 69.393233 212.611158 
L 95.368285 212.611158 
L 95.368285 202.706316 
L 69.393233 202.706316 
z
" clip-path="url(#p6b5737f940)" style="fill: #627a68; stroke: #1a1a1a; stroke-linejoin: miter"/>
   </g>
   <g id="line2d_95">
    <path d="M 69.393233 207.658737 
L 50.575392 207.658737 
" clip-path="url(#p6b5737f940)" style="fill: none; stroke: #1a1a1a"/>
   </g>
   <g id="line2d_96">
    <path d="M 95.368285 207.658737 
L 133.903585 207.658737 
" clip-path="url(#p6b5737f940)" style="fill: none; stroke: #1a1a1a"/>
   </g>
   <g id="line2d_97">
    <path d="M 50.575392 205.182526 
L 50.575392 210.134947 
" clip-path="url(#p6b5737f940)" style="fill: none; stroke: #1a1a1a; stroke-linecap: square"/>
   </g>
   <g id="line2d_98">
    <path d="M 133.903585 205.182526 
L 133.903585 210.134947 
" clip-path="url(#p6b5737f940)" style="fill: none; stroke: #1a1a1a; stroke-linecap: square"/>
   </g>
   <g id="line2d_99">
    <g clip-path="url(#p6b5737f940)">
     <use xlink:href="#mdbb62538e3" x="139.848127" y="207.658737" style="fill-opacity: 0; stroke: #1a1a1a"/>
     <use xlink:href="#mdbb62538e3" x="138.765415" y="207.658737" style="fill-opacity: 0; stroke: #1a1a1a"/>
    </g>
   </g>
   <g id="patch_40">
    <path d="M 33.117923 212.611158 
L 33.117923 222.516 
L 40.541013 222.516 
L 40.541013 212.611158 
L 33.117923 212.611158 
z
" clip-path="url(#p6b5737f940)" style="fill: #a7def2; stroke: #1a1a1a; stroke-linejoin: miter"/>
   </g>
   <g id="line2d_100">
    <path d="M 33.117923 217.563579 
L 29.44435 217.563579 
" clip-path="url(#p6b5737f940)" style="fill: none; stroke: #1a1a1a"/>
   </g>
   <g id="line2d_101">
    <path d="M 40.541013 217.563579 
L 48.35645 217.563579 
" clip-path="url(#p6b5737f940)" style="fill: none; stroke: #1a1a1a"/>
   </g>
   <g id="line2d_102">
    <path d="M 29.44435 215.087368 
L 29.44435 220.039789 
" clip-path="url(#p6b5737f940)" style="fill: none; stroke: #1a1a1a; stroke-linecap: square"/>
   </g>
   <g id="line2d_103">
    <path d="M 48.35645 215.087368 
L 48.35645 220.039789 
" clip-path="url(#p6b5737f940)" style="fill: none; stroke: #1a1a1a; stroke-linecap: square"/>
   </g>
   <g id="line2d_104">
    <g clip-path="url(#p6b5737f940)">
     <use xlink:href="#mdbb62538e3" x="53.064109" y="217.563579" style="fill-opacity: 0; stroke: #1a1a1a"/>
    </g>
   </g>
   <g id="line2d_105">
    <path d="M 68.646739 34.324 
L 68.646739 44.228842 
" clip-path="url(#p6b5737f940)" style="fill: none; stroke: #1a1a1a"/>
   </g>
   <g id="line2d_106">
    <path d="M 226.420564 44.228842 
L 226.420564 54.133684 
" clip-path="url(#p6b5737f940)" style="fill: none; stroke: #1a1a1a"/>
   </g>
   <g id="line2d_107">
    <path d="M 63.328469 54.133684 
L 63.328469 64.038526 
" clip-path="url(#p6b5737f940)" style="fill: none; stroke: #1a1a1a"/>
   </g>
   <g id="line2d_108">
    <path d="M 80.511792 64.038526 
L 80.511792 73.943368 
" clip-path="url(#p6b5737f940)" style="fill: none; stroke: #1a1a1a"/>
   </g>
   <g id="line2d_109">
    <path d="M 56.18781 73.943368 
L 56.18781 83.848211 
" clip-path="url(#p6b5737f940)" style="fill: none; stroke: #1a1a1a"/>
   </g>
   <g id="line2d_110">
    <path d="M 88.411888 83.848211 
L 88.411888 93.753053 
" clip-path="url(#p6b5737f940)" style="fill: none; stroke: #1a1a1a"/>
   </g>
   <g id="line2d_111">
    <path d="M 293.449591 93.753053 
L 293.449591 103.657895 
" clip-path="url(#p6b5737f940)" style="fill: none; stroke: #1a1a1a"/>
   </g>
   <g id="line2d_112">
    <path d="M 90.693119 103.657895 
L 90.693119 113.562737 
" clip-path="url(#p6b5737f940)" style="fill: none; stroke: #1a1a1a"/>
   </g>
   <g id="line2d_113">
    <path d="M 98.352983 113.562737 
L 98.352983 123.467579 
" clip-path="url(#p6b5737f940)" style="fill: none; stroke: #1a1a1a"/>
   </g>
   <g id="line2d_114">
    <path d="M 63.046364 123.467579 
L 63.046364 133.372421 
" clip-path="url(#p6b5737f940)" style="fill: none; stroke: #1a1a1a"/>
   </g>
   <g id="line2d_115">
    <path d="M 170.306413 133.372421 
L 170.306413 143.277263 
" clip-path="url(#p6b5737f940)" style="fill: none; stroke: #1a1a1a"/>
   </g>
   <g id="line2d_116">
    <path d="M 60.834759 143.277263 
L 60.834759 153.182105 
" clip-path="url(#p6b5737f940)" style="fill: none; stroke: #1a1a1a"/>
   </g>
   <g id="line2d_117">
    <path d="M 97.147381 153.182105 
L 97.147381 163.086947 
" clip-path="url(#p6b5737f940)" style="fill: none; stroke: #1a1a1a"/>
   </g>
   <g id="line2d_118">
    <path d="M 121.159086 163.086947 
L 121.159086 172.991789 
" clip-path="url(#p6b5737f940)" style="fill: none; stroke: #1a1a1a"/>
   </g>
   <g id="line2d_119">
    <path d="M 79.052452 172.991789 
L 79.052452 182.896632 
" clip-path="url(#p6b5737f940)" style="fill: none; stroke: #1a1a1a"/>
   </g>
   <g id="line2d_120">
    <path d="M 59.659827 182.896632 
L 59.659827 192.801474 
" clip-path="url(#p6b5737f940)" style="fill: none; stroke: #1a1a1a"/>
   </g>
   <g id="line2d_121">
    <path d="M 183.837878 192.801474 
L 183.837878 202.706316 
" clip-path="url(#p6b5737f940)" style="fill: none; stroke: #1a1a1a"/>
   </g>
   <g id="line2d_122">
    <path d="M 75.112819 202.706316 
L 75.112819 212.611158 
" clip-path="url(#p6b5737f940)" style="fill: none; stroke: #1a1a1a"/>
   </g>
   <g id="line2d_123">
    <path d="M 36.930248 212.611158 
L 36.930248 222.516 
" clip-path="url(#p6b5737f940)" style="fill: none; stroke: #1a1a1a"/>
   </g>
   <g id="patch_41">
    <path d="M 14.3 246.04 
L 14.3 10.8 
" style="fill: none; stroke: #000000; stroke-width: 0.8; stroke-linejoin: miter; stroke-linecap: square"/>
   </g>
   <g id="patch_42">
    <path d="M 347.475704 246.04 
L 347.475704 10.8 
" style="fill: none; stroke: #000000; stroke-width: 0.8; stroke-linejoin: miter; stroke-linecap: square"/>
   </g>
   <g id="patch_43">
    <path d="M 14.3 246.04 
L 347.475704 246.04 
" style="fill: none; stroke: #000000; stroke-width: 0.8; stroke-linejoin: miter; stroke-linecap: square"/>
   </g>
   <g id="patch_44">
    <path d="M 14.3 10.8 
L 347.475704 10.8 
" style="fill: none; stroke: #000000; stroke-width: 0.8; stroke-linejoin: miter; stroke-linecap: square"/>
   </g>
   <g id="legend_1">
    <g id="patch_45">
     <path d="M 231.221016 165.58125 
L 340.475704 165.58125 
Q 342.475704 165.58125 342.475704 163.58125 
L 342.475704 17.8 
Q 342.475704 15.8 340.475704 15.8 
L 231.221016 15.8 
Q 229.221016 15.8 229.221016 17.8 
L 229.221016 163.58125 
Q 229.221016 165.58125 231.221016 165.58125 
z
" style="fill: #ffffff; opacity: 0.8; stroke: #cccccc; stroke-linejoin: miter"/>
    </g>
    <g id="patch_46">
     <path d="M 233.221016 27.398438 
L 253.221016 27.398438 
L 253.221016 20.398438 
L 233.221016 20.398438 
z
" style="fill: #bc1b1b; stroke: #1a1a1a; stroke-linejoin: miter"/>
    </g>
    <g id="text_10">
     <!-- AT -->
     <g transform="translate(261.221016 27.398438)scale(0.1 -0.1)">
      <defs>
       <path id="DejaVuSans-41" d="M 2188 4044 
L 1331 1722 
L 3047 1722 
L 2188 4044 
z
M 1831 4666 
L 2547 4666 
L 4325 0 
L 3669 0 
L 3244 1197 
L 1141 1197 
L 716 0 
L 50 0 
L 1831 4666 
z
" transform="scale(0.015625)"/>
       <path id="DejaVuSans-54" d="M -19 4666 
L 3928 4666 
L 3928 4134 
L 2272 4134 
L 2272 0 
L 1638 0 
L 1638 4134 
L -19 4134 
L -19 4666 
z
" transform="scale(0.015625)"/>
      </defs>
      <use xlink:href="#DejaVuSans-41"/>
      <use xlink:href="#DejaVuSans-54" x="60.658203"/>
     </g>
    </g>
    <g id="patch_47">
     <path d="M 233.221016 42.076563 
L 253.221016 42.076563 
L 253.221016 35.076563 
L 233.221016 35.076563 
z
" style="fill: #9054e7; stroke: #1a1a1a; stroke-linejoin: miter"/>
    </g>
    <g id="text_11">
     <!-- BE -->
     <g transform="translate(261.221016 42.076563)scale(0.1 -0.1)">
      <defs>
       <path id="DejaVuSans-45" d="M 628 4666 
L 3578 4666 
L 3578 4134 
L 1259 4134 
L 1259 2753 
L 3481 2753 
L 3481 2222 
L 1259 2222 
L 1259 531 
L 3634 531 
L 3634 0 
L 628 0 
L 628 4666 
z
" transform="scale(0.015625)"/>
      </defs>
      <use xlink:href="#DejaVuSans-42"/>
      <use xlink:href="#DejaVuSans-45" x="68.603516"/>
     </g>
    </g>
    <g id="patch_48">
     <path d="M 233.221016 56.754688 
L 253.221016 56.754688 
L 253.221016 49.754688 
L 233.221016 49.754688 
z
" style="fill: #127711; stroke: #1a1a1a; stroke-linejoin: miter"/>
    </g>
    <g id="text_12">
     <!-- BG -->
     <g transform="translate(261.221016 56.754688)scale(0.1 -0.1)">
      <defs>
       <path id="DejaVuSans-47" d="M 3809 666 
L 3809 1919 
L 2778 1919 
L 2778 2438 
L 4434 2438 
L 4434 434 
Q 4069 175 3628 42 
Q 3188 -91 2688 -91 
Q 1594 -91 976 548 
Q 359 1188 359 2328 
Q 359 3472 976 4111 
Q 1594 4750 2688 4750 
Q 3144 4750 3555 4637 
Q 3966 4525 4313 4306 
L 4313 3634 
Q 3963 3931 3569 4081 
Q 3175 4231 2741 4231 
Q 1884 4231 1454 3753 
Q 1025 3275 1025 2328 
Q 1025 1384 1454 906 
Q 1884 428 2741 428 
Q 3075 428 3337 486 
Q 3600 544 3809 666 
z
" transform="scale(0.015625)"/>
      </defs>
      <use xlink:href="#DejaVuSans-42"/>
      <use xlink:href="#DejaVuSans-47" x="66.853516"/>
     </g>
    </g>
    <g id="patch_49">
     <path d="M 233.221016 71.432813 
L 253.221016 71.432813 
L 253.221016 64.432813 
L 233.221016 64.432813 
z
" style="fill: #199aae; stroke: #1a1a1a; stroke-linejoin: miter"/>
    </g>
    <g id="text_13">
     <!-- CY -->
     <g transform="translate(261.221016 71.432813)scale(0.1 -0.1)">
      <defs>
       <path id="DejaVuSans-43" d="M 4122 4306 
L 4122 3641 
Q 3803 3938 3442 4084 
Q 3081 4231 2675 4231 
Q 1875 4231 1450 3742 
Q 1025 3253 1025 2328 
Q 1025 1406 1450 917 
Q 1875 428 2675 428 
Q 3081 428 3442 575 
Q 3803 722 4122 1019 
L 4122 359 
Q 3791 134 3420 21 
Q 3050 -91 2638 -91 
Q 1578 -91 968 557 
Q 359 1206 359 2328 
Q 359 3453 968 4101 
Q 1578 4750 2638 4750 
Q 3056 4750 3426 4639 
Q 3797 4528 4122 4306 
z
" transform="scale(0.015625)"/>
       <path id="DejaVuSans-59" d="M -13 4666 
L 666 4666 
L 1959 2747 
L 3244 4666 
L 3922 4666 
L 2272 2222 
L 2272 0 
L 1638 0 
L 1638 2222 
L -13 4666 
z
" transform="scale(0.015625)"/>
      </defs>
      <use xlink:href="#DejaVuSans-43"/>
      <use xlink:href="#DejaVuSans-59" x="68.074219"/>
     </g>
    </g>
    <g id="patch_50">
     <path d="M 233.221016 86.110938 
L 253.221016 86.110938 
L 253.221016 79.110938 
L 233.221016 79.110938 
z
" style="fill: #92df20; stroke: #1a1a1a; stroke-linejoin: miter"/>
    </g>
    <g id="text_14">
     <!-- CZ -->
     <g transform="translate(261.221016 86.110938)scale(0.1 -0.1)">
      <defs>
       <path id="DejaVuSans-5a" d="M 359 4666 
L 4025 4666 
L 4025 4184 
L 1075 531 
L 4097 531 
L 4097 0 
L 288 0 
L 288 481 
L 3238 4134 
L 359 4134 
L 359 4666 
z
" transform="scale(0.015625)"/>
      </defs>
      <use xlink:href="#DejaVuSans-43"/>
      <use xlink:href="#DejaVuSans-5a" x="69.824219"/>
     </g>
    </g>
    <g id="patch_51">
     <path d="M 233.221016 100.789062 
L 253.221016 100.789062 
L 253.221016 93.789062 
L 233.221016 93.789062 
z
" style="fill: #ef8fcd; stroke: #1a1a1a; stroke-linejoin: miter"/>
    </g>
    <g id="text_15">
     <!-- DE -->
     <g transform="translate(261.221016 100.789062)scale(0.1 -0.1)">
      <defs>
       <path id="DejaVuSans-44" d="M 1259 4147 
L 1259 519 
L 2022 519 
Q 2988 519 3436 956 
Q 3884 1394 3884 2338 
Q 3884 3275 3436 3711 
Q 2988 4147 2022 4147 
L 1259 4147 
z
M 628 4666 
L 1925 4666 
Q 3281 4666 3915 4102 
Q 4550 3538 4550 2338 
Q 4550 1131 3912 565 
Q 3275 0 1925 0 
L 628 0 
L 628 4666 
z
" transform="scale(0.015625)"/>
      </defs>
      <use xlink:href="#DejaVuSans-44"/>
      <use xlink:href="#DejaVuSans-45" x="77.001953"/>
     </g>
    </g>
    <g id="patch_52">
     <path d="M 233.221016 115.467188 
L 253.221016 115.467188 
L 253.221016 108.467188 
L 233.221016 108.467188 
z
" style="fill: #5e0d49; stroke: #1a1a1a; stroke-linejoin: miter"/>
    </g>
    <g id="text_16">
     <!-- DK -->
     <g transform="translate(261.221016 115.467188)scale(0.1 -0.1)">
      <defs>
       <path id="DejaVuSans-4b" d="M 628 4666 
L 1259 4666 
L 1259 2694 
L 3353 4666 
L 4166 4666 
L 1850 2491 
L 4331 0 
L 3500 0 
L 1259 2247 
L 1259 0 
L 628 0 
L 628 4666 
z
" transform="scale(0.015625)"/>
      </defs>
      <use xlink:href="#DejaVuSans-44"/>
      <use xlink:href="#DejaVuSans-4b" x="77.001953"/>
     </g>
    </g>
    <g id="patch_53">
     <path d="M 233.221016 130.145312 
L 253.221016 130.145312 
L 253.221016 123.145312 
L 233.221016 123.145312 
z
" style="fill: #4d370b; stroke: #1a1a1a; stroke-linejoin: miter"/>
    </g>
    <g id="text_17">
     <!-- EL -->
     <g transform="translate(261.221016 130.145312)scale(0.1 -0.1)">
      <defs>
       <path id="DejaVuSans-4c" d="M 628 4666 
L 1259 4666 
L 1259 531 
L 3531 531 
L 3531 0 
L 628 0 
L 628 4666 
z
" transform="scale(0.015625)"/>
      </defs>
      <use xlink:href="#DejaVuSans-45"/>
      <use xlink:href="#DejaVuSans-4c" x="63.183594"/>
     </g>
    </g>
    <g id="patch_54">
     <path d="M 233.221016 144.823438 
L 253.221016 144.823438 
L 253.221016 137.823438 
L 233.221016 137.823438 
z
" style="fill: #0b4c4e; stroke: #1a1a1a; stroke-linejoin: miter"/>
    </g>
    <g id="text_18">
     <!-- ES -->
     <g transform="translate(261.221016 144.823438)scale(0.1 -0.1)">
      <defs>
       <path id="DejaVuSans-53" d="M 3425 4513 
L 3425 3897 
Q 3066 4069 2747 4153 
Q 2428 4238 2131 4238 
Q 1616 4238 1336 4038 
Q 1056 3838 1056 3469 
Q 1056 3159 1242 3001 
Q 1428 2844 1947 2747 
L 2328 2669 
Q 3034 2534 3370 2195 
Q 3706 1856 3706 1288 
Q 3706 609 3251 259 
Q 2797 -91 1919 -91 
Q 1588 -91 1214 -16 
Q 841 59 441 206 
L 441 856 
Q 825 641 1194 531 
Q 1563 422 1919 422 
Q 2459 422 2753 634 
Q 3047 847 3047 1241 
Q 3047 1584 2836 1778 
Q 2625 1972 2144 2069 
L 1759 2144 
Q 1053 2284 737 2584 
Q 422 2884 422 3419 
Q 422 4038 858 4394 
Q 1294 4750 2059 4750 
Q 2388 4750 2728 4690 
Q 3069 4631 3425 4513 
z
" transform="scale(0.015625)"/>
      </defs>
      <use xlink:href="#DejaVuSans-45"/>
      <use xlink:href="#DejaVuSans-53" x="63.183594"/>
     </g>
    </g>
    <g id="patch_55">
     <path d="M 233.221016 159.501562 
L 253.221016 159.501562 
L 253.221016 152.501562 
L 233.221016 152.501562 
z
" style="fill: #1c1cc1; stroke: #1a1a1a; stroke-linejoin: miter"/>
    </g>
    <g id="text_19">
     <!-- FI -->
     <g transform="translate(261.221016 159.501562)scale(0.1 -0.1)">
      <defs>
       <path id="DejaVuSans-46" d="M 628 4666 
L 3309 4666 
L 3309 4134 
L 1259 4134 
L 1259 2759 
L 3109 2759 
L 3109 2228 
L 1259 2228 
L 1259 0 
L 628 0 
L 628 4666 
z
" transform="scale(0.015625)"/>
       <path id="DejaVuSans-49" d="M 628 4666 
L 1259 4666 
L 1259 0 
L 628 0 
L 628 4666 
z
" transform="scale(0.015625)"/>
      </defs>
      <use xlink:href="#DejaVuSans-46"/>
      <use xlink:href="#DejaVuSans-49" x="57.519531"/>
     </g>
    </g>
    <g id="patch_56">
     <path d="M 295.655391 27.398438 
L 315.655391 27.398438 
L 315.655391 20.398438 
L 295.655391 20.398438 
z
" style="fill: #95ad80; stroke: #1a1a1a; stroke-linejoin: miter"/>
    </g>
    <g id="text_20">
     <!-- IT -->
     <g transform="translate(323.655391 27.398438)scale(0.1 -0.1)">
      <use xlink:href="#DejaVuSans-49"/>
      <use xlink:href="#DejaVuSans-54" x="29.492188"/>
     </g>
    </g>
    <g id="patch_57">
     <path d="M 295.655391 42.076563 
L 315.655391 42.076563 
L 315.655391 35.076563 
L 295.655391 35.076563 
z
" style="fill: #a81ba3; stroke: #1a1a1a; stroke-linejoin: miter"/>
    </g>
    <g id="text_21">
     <!-- LT -->
     <g transform="translate(323.655391 42.076563)scale(0.1 -0.1)">
      <use xlink:href="#DejaVuSans-4c"/>
      <use xlink:href="#DejaVuSans-54" x="41.962891"/>
     </g>
    </g>
    <g id="patch_58">
     <path d="M 295.655391 56.754687 
L 315.655391 56.754687 
L 315.655391 49.754687 
L 295.655391 49.754687 
z
" style="fill: #2173be; stroke: #1a1a1a; stroke-linejoin: miter"/>
    </g>
    <g id="text_22">
     <!-- MT -->
     <g transform="translate(323.655391 56.754687)scale(0.1 -0.1)">
      <defs>
       <path id="DejaVuSans-4d" d="M 628 4666 
L 1569 4666 
L 2759 1491 
L 3956 4666 
L 4897 4666 
L 4897 0 
L 4281 0 
L 4281 4097 
L 3078 897 
L 2444 897 
L 1241 4097 
L 1241 0 
L 628 0 
L 628 4666 
z
" transform="scale(0.015625)"/>
      </defs>
      <use xlink:href="#DejaVuSans-4d"/>
      <use xlink:href="#DejaVuSans-54" x="86.279297"/>
     </g>
    </g>
    <g id="patch_59">
     <path d="M 295.655391 71.432813 
L 315.655391 71.432813 
L 315.655391 64.432813 
L 295.655391 64.432813 
z
" style="fill: #f0e99e; stroke: #1a1a1a; stroke-linejoin: miter"/>
    </g>
    <g id="text_23">
     <!-- NL -->
     <g transform="translate(323.655391 71.432813)scale(0.1 -0.1)">
      <use xlink:href="#DejaVuSans-4e"/>
      <use xlink:href="#DejaVuSans-4c" x="74.804688"/>
     </g>
    </g>
    <g id="patch_60">
     <path d="M 295.655391 86.110938 
L 315.655391 86.110938 
L 315.655391 79.110938 
L 295.655391 79.110938 
z
" style="fill: #7d6d12; stroke: #1a1a1a; stroke-linejoin: miter"/>
    </g>
    <g id="text_24">
     <!-- PT -->
     <g transform="translate(323.655391 86.110938)scale(0.1 -0.1)">
      <defs>
       <path id="DejaVuSans-50" d="M 1259 4147 
L 1259 2394 
L 2053 2394 
Q 2494 2394 2734 2622 
Q 2975 2850 2975 3272 
Q 2975 3691 2734 3919 
Q 2494 4147 2053 4147 
L 1259 4147 
z
M 628 4666 
L 2053 4666 
Q 2838 4666 3239 4311 
Q 3641 3956 3641 3272 
Q 3641 2581 3239 2228 
Q 2838 1875 2053 1875 
L 1259 1875 
L 1259 0 
L 628 0 
L 628 4666 
z
" transform="scale(0.015625)"/>
      </defs>
      <use xlink:href="#DejaVuSans-50"/>
      <use xlink:href="#DejaVuSans-54" x="60.302734"/>
     </g>
    </g>
    <g id="patch_61">
     <path d="M 295.655391 100.789062 
L 315.655391 100.789062 
L 315.655391 93.789062 
L 295.655391 93.789062 
z
" style="fill: #ec8279; stroke: #1a1a1a; stroke-linejoin: miter"/>
    </g>
    <g id="text_25">
     <!-- RO -->
     <g transform="translate(323.655391 100.789062)scale(0.1 -0.1)">
      <defs>
       <path id="DejaVuSans-52" d="M 2841 2188 
Q 3044 2119 3236 1894 
Q 3428 1669 3622 1275 
L 4263 0 
L 3584 0 
L 2988 1197 
Q 2756 1666 2539 1819 
Q 2322 1972 1947 1972 
L 1259 1972 
L 1259 0 
L 628 0 
L 628 4666 
L 2053 4666 
Q 2853 4666 3247 4331 
Q 3641 3997 3641 3322 
Q 3641 2881 3436 2590 
Q 3231 2300 2841 2188 
z
M 1259 4147 
L 1259 2491 
L 2053 2491 
Q 2509 2491 2742 2702 
Q 2975 2913 2975 3322 
Q 2975 3731 2742 3939 
Q 2509 4147 2053 4147 
L 1259 4147 
z
" transform="scale(0.015625)"/>
       <path id="DejaVuSans-4f" d="M 2522 4238 
Q 1834 4238 1429 3725 
Q 1025 3213 1025 2328 
Q 1025 1447 1429 934 
Q 1834 422 2522 422 
Q 3209 422 3611 934 
Q 4013 1447 4013 2328 
Q 4013 3213 3611 3725 
Q 3209 4238 2522 4238 
z
M 2522 4750 
Q 3503 4750 4090 4092 
Q 4678 3434 4678 2328 
Q 4678 1225 4090 567 
Q 3503 -91 2522 -91 
Q 1538 -91 948 565 
Q 359 1222 359 2328 
Q 359 3434 948 4092 
Q 1538 4750 2522 4750 
z
" transform="scale(0.015625)"/>
      </defs>
      <use xlink:href="#DejaVuSans-52"/>
      <use xlink:href="#DejaVuSans-4f" x="69.482422"/>
     </g>
    </g>
    <g id="patch_62">
     <path d="M 295.655391 115.467187 
L 315.655391 115.467187 
L 315.655391 108.467187 
L 295.655391 108.467187 
z
" style="fill: #e7c0c0; stroke: #1a1a1a; stroke-linejoin: miter"/>
    </g>
    <g id="text_26">
     <!-- SE -->
     <g transform="translate(323.655391 115.467187)scale(0.1 -0.1)">
      <use xlink:href="#DejaVuSans-53"/>
      <use xlink:href="#DejaVuSans-45" x="63.476562"/>
     </g>
    </g>
    <g id="patch_63">
     <path d="M 295.655391 130.145312 
L 315.655391 130.145312 
L 315.655391 123.145312 
L 295.655391 123.145312 
z
" style="fill: #627a68; stroke: #1a1a1a; stroke-linejoin: miter"/>
    </g>
    <g id="text_27">
     <!-- SI -->
     <g transform="translate(323.655391 130.145312)scale(0.1 -0.1)">
      <use xlink:href="#DejaVuSans-53"/>
      <use xlink:href="#DejaVuSans-49" x="63.476562"/>
     </g>
    </g>
    <g id="patch_64">
     <path d="M 295.655391 144.823437 
L 315.655391 144.823437 
L 315.655391 137.823437 
L 295.655391 137.823437 
z
" style="fill: #a7def2; stroke: #1a1a1a; stroke-linejoin: miter"/>
    </g>
    <g id="text_28">
     <!-- SK -->
     <g transform="translate(323.655391 144.823437)scale(0.1 -0.1)">
      <use xlink:href="#DejaVuSans-53"/>
      <use xlink:href="#DejaVuSans-4b" x="63.476562"/>
     </g>
    </g>
   </g>
  </g>
 </g>
 <defs>
  <clipPath id="p6b5737f940">
   <rect x="14.3" y="10.8" width="333.175704" height="235.24"/>
  </clipPath>
 </defs>
</svg>
