<?xml version="1.0" encoding="utf-8" standalone="no"?>
<!DOCTYPE svg PUBLIC "-//W3C//DTD SVG 1.1//EN"
  "http://www.w3.org/Graphics/SVG/1.1/DTD/svg11.dtd">
<svg xmlns:xlink="http://www.w3.org/1999/xlink" width="460.8pt" height="345.6pt" viewBox="0 0 460.8 345.6" xmlns="http://www.w3.org/2000/svg" version="1.1">
 <metadata>
  <rdf:RDF xmlns:dc="http://purl.org/dc/elements/1.1/" xmlns:cc="http://creativecommons.org/ns#" xmlns:rdf="http://www.w3.org/1999/02/22-rdf-syntax-ns#">
   <cc:Work>
    <dc:type rdf:resource="http://purl.org/dc/dcmitype/StillImage"/>
    <dc:date>2024-02-02T17:07:41.642174</dc:date>
    <dc:format>image/svg+xml</dc:format>
    <dc:creator>
     <cc:Agent>
      <dc:title>Matplotlib v3.5.1, https://matplotlib.org/</dc:title>
     </cc:Agent>
    </dc:creator>
   </cc:Work>
  </rdf:RDF>
 </metadata>
 <defs>
  <style type="text/css">*{stroke-linejoin: round; stroke-linecap: butt}</style>
 </defs>
 <g id="figure_1">
  <g id="patch_1">
   <path d="M 0 345.6 
L 460.8 345.6 
L 460.8 0 
L 0 0 
L 0 345.6 
z
" style="fill: none"/>
  </g>
  <g id="axes_1">
   <g id="patch_2">
    <path d="M 50.87 303.64 
L 450 303.64 
L 450 10.8 
L 50.87 10.8 
L 50.87 303.64 
z
" style="fill: none"/>
   </g>
   <g id="matplotlib.axis_1">
    <g id="xtick_1">
     <g id="line2d_1">
      <defs>
       <path id="m48b8b0fbd7" d="M 0 0 
L 0 3.5 
" style="stroke: #000000; stroke-width: 0.8"/>
      </defs>
      <g>
       <use xlink:href="#m48b8b0fbd7" x="99.909514" y="303.64" style="stroke: #000000; stroke-width: 0.8"/>
      </g>
     </g>
     <g id="text_1">
      <!-- 20 -->
      <g transform="translate(93.547014 318.238437)scale(0.1 -0.1)">
       <defs>
        <path id="DejaVuSans-32" d="M 1228 531 
L 3431 531 
L 3431 0 
L 469 0 
L 469 531 
Q 828 903 1448 1529 
Q 2069 2156 2228 2338 
Q 2531 2678 2651 2914 
Q 2772 3150 2772 3378 
Q 2772 3750 2511 3984 
Q 2250 4219 1831 4219 
Q 1534 4219 1204 4116 
Q 875 4013 500 3803 
L 500 4441 
Q 881 4594 1212 4672 
Q 1544 4750 1819 4750 
Q 2544 4750 2975 4387 
Q 3406 4025 3406 3419 
Q 3406 3131 3298 2873 
Q 3191 2616 2906 2266 
Q 2828 2175 2409 1742 
Q 1991 1309 1228 531 
z
" transform="scale(0.015625)"/>
        <path id="DejaVuSans-30" d="M 2034 4250 
Q 1547 4250 1301 3770 
Q 1056 3291 1056 2328 
Q 1056 1369 1301 889 
Q 1547 409 2034 409 
Q 2525 409 2770 889 
Q 3016 1369 3016 2328 
Q 3016 3291 2770 3770 
Q 2525 4250 2034 4250 
z
M 2034 4750 
Q 2819 4750 3233 4129 
Q 3647 3509 3647 2328 
Q 3647 1150 3233 529 
Q 2819 -91 2034 -91 
Q 1250 -91 836 529 
Q 422 1150 422 2328 
Q 422 3509 836 4129 
Q 1250 4750 2034 4750 
z
" transform="scale(0.015625)"/>
       </defs>
       <use xlink:href="#DejaVuSans-32"/>
       <use xlink:href="#DejaVuSans-30" x="63.623047"/>
      </g>
     </g>
    </g>
    <g id="xtick_2">
     <g id="line2d_2">
      <g>
       <use xlink:href="#m48b8b0fbd7" x="151.331058" y="303.64" style="stroke: #000000; stroke-width: 0.8"/>
      </g>
     </g>
     <g id="text_2">
      <!-- 40 -->
      <g transform="translate(144.968558 318.238437)scale(0.1 -0.1)">
       <defs>
        <path id="DejaVuSans-34" d="M 2419 4116 
L 825 1625 
L 2419 1625 
L 2419 4116 
z
M 2253 4666 
L 3047 4666 
L 3047 1625 
L 3713 1625 
L 3713 1100 
L 3047 1100 
L 3047 0 
L 2419 0 
L 2419 1100 
L 313 1100 
L 313 1709 
L 2253 4666 
z
" transform="scale(0.015625)"/>
       </defs>
       <use xlink:href="#DejaVuSans-34"/>
       <use xlink:href="#DejaVuSans-30" x="63.623047"/>
      </g>
     </g>
    </g>
    <g id="xtick_3">
     <g id="line2d_3">
      <g>
       <use xlink:href="#m48b8b0fbd7" x="202.752602" y="303.64" style="stroke: #000000; stroke-width: 0.8"/>
      </g>
     </g>
     <g id="text_3">
      <!-- 60 -->
      <g transform="translate(196.390102 318.238437)scale(0.1 -0.1)">
       <defs>
        <path id="DejaVuSans-36" d="M 2113 2584 
Q 1688 2584 1439 2293 
Q 1191 2003 1191 1497 
Q 1191 994 1439 701 
Q 1688 409 2113 409 
Q 2538 409 2786 701 
Q 3034 994 3034 1497 
Q 3034 2003 2786 2293 
Q 2538 2584 2113 2584 
z
M 3366 4563 
L 3366 3988 
Q 3128 4100 2886 4159 
Q 2644 4219 2406 4219 
Q 1781 4219 1451 3797 
Q 1122 3375 1075 2522 
Q 1259 2794 1537 2939 
Q 1816 3084 2150 3084 
Q 2853 3084 3261 2657 
Q 3669 2231 3669 1497 
Q 3669 778 3244 343 
Q 2819 -91 2113 -91 
Q 1303 -91 875 529 
Q 447 1150 447 2328 
Q 447 3434 972 4092 
Q 1497 4750 2381 4750 
Q 2619 4750 2861 4703 
Q 3103 4656 3366 4563 
z
" transform="scale(0.015625)"/>
       </defs>
       <use xlink:href="#DejaVuSans-36"/>
       <use xlink:href="#DejaVuSans-30" x="63.623047"/>
      </g>
     </g>
    </g>
    <g id="xtick_4">
     <g id="line2d_4">
      <g>
       <use xlink:href="#m48b8b0fbd7" x="254.174146" y="303.64" style="stroke: #000000; stroke-width: 0.8"/>
      </g>
     </g>
     <g id="text_4">
      <!-- 80 -->
      <g transform="translate(247.811646 318.238437)scale(0.1 -0.1)">
       <defs>
        <path id="DejaVuSans-38" d="M 2034 2216 
Q 1584 2216 1326 1975 
Q 1069 1734 1069 1313 
Q 1069 891 1326 650 
Q 1584 409 2034 409 
Q 2484 409 2743 651 
Q 3003 894 3003 1313 
Q 3003 1734 2745 1975 
Q 2488 2216 2034 2216 
z
M 1403 2484 
Q 997 2584 770 2862 
Q 544 3141 544 3541 
Q 544 4100 942 4425 
Q 1341 4750 2034 4750 
Q 2731 4750 3128 4425 
Q 3525 4100 3525 3541 
Q 3525 3141 3298 2862 
Q 3072 2584 2669 2484 
Q 3125 2378 3379 2068 
Q 3634 1759 3634 1313 
Q 3634 634 3220 271 
Q 2806 -91 2034 -91 
Q 1263 -91 848 271 
Q 434 634 434 1313 
Q 434 1759 690 2068 
Q 947 2378 1403 2484 
z
M 1172 3481 
Q 1172 3119 1398 2916 
Q 1625 2713 2034 2713 
Q 2441 2713 2670 2916 
Q 2900 3119 2900 3481 
Q 2900 3844 2670 4047 
Q 2441 4250 2034 4250 
Q 1625 4250 1398 4047 
Q 1172 3844 1172 3481 
z
" transform="scale(0.015625)"/>
       </defs>
       <use xlink:href="#DejaVuSans-38"/>
       <use xlink:href="#DejaVuSans-30" x="63.623047"/>
      </g>
     </g>
    </g>
    <g id="xtick_5">
     <g id="line2d_5">
      <g>
       <use xlink:href="#m48b8b0fbd7" x="305.59569" y="303.64" style="stroke: #000000; stroke-width: 0.8"/>
      </g>
     </g>
     <g id="text_5">
      <!-- 100 -->
      <g transform="translate(296.05194 318.238437)scale(0.1 -0.1)">
       <defs>
        <path id="DejaVuSans-31" d="M 794 531 
L 1825 531 
L 1825 4091 
L 703 3866 
L 703 4441 
L 1819 4666 
L 2450 4666 
L 2450 531 
L 3481 531 
L 3481 0 
L 794 0 
L 794 531 
z
" transform="scale(0.015625)"/>
       </defs>
       <use xlink:href="#DejaVuSans-31"/>
       <use xlink:href="#DejaVuSans-30" x="63.623047"/>
       <use xlink:href="#DejaVuSans-30" x="127.246094"/>
      </g>
     </g>
    </g>
    <g id="xtick_6">
     <g id="line2d_6">
      <g>
       <use xlink:href="#m48b8b0fbd7" x="357.017235" y="303.64" style="stroke: #000000; stroke-width: 0.8"/>
      </g>
     </g>
     <g id="text_6">
      <!-- 120 -->
      <g transform="translate(347.473485 318.238437)scale(0.1 -0.1)">
       <use xlink:href="#DejaVuSans-31"/>
       <use xlink:href="#DejaVuSans-32" x="63.623047"/>
       <use xlink:href="#DejaVuSans-30" x="127.246094"/>
      </g>
     </g>
    </g>
    <g id="xtick_7">
     <g id="line2d_7">
      <g>
       <use xlink:href="#m48b8b0fbd7" x="408.438779" y="303.64" style="stroke: #000000; stroke-width: 0.8"/>
      </g>
     </g>
     <g id="text_7">
      <!-- 140 -->
      <g transform="translate(398.895029 318.238437)scale(0.1 -0.1)">
       <use xlink:href="#DejaVuSans-31"/>
       <use xlink:href="#DejaVuSans-34" x="63.623047"/>
       <use xlink:href="#DejaVuSans-30" x="127.246094"/>
      </g>
     </g>
    </g>
    <g id="text_8">
     <!-- Urban Density (inhabitants per 10 km²) -->
     <g transform="translate(151.906875 331.916562)scale(0.1 -0.1)">
      <defs>
       <path id="DejaVuSans-55" d="M 556 4666 
L 1191 4666 
L 1191 1831 
Q 1191 1081 1462 751 
Q 1734 422 2344 422 
Q 2950 422 3222 751 
Q 3494 1081 3494 1831 
L 3494 4666 
L 4128 4666 
L 4128 1753 
Q 4128 841 3676 375 
Q 3225 -91 2344 -91 
Q 1459 -91 1007 375 
Q 556 841 556 1753 
L 556 4666 
z
" transform="scale(0.015625)"/>
       <path id="DejaVuSans-72" d="M 2631 2963 
Q 2534 3019 2420 3045 
Q 2306 3072 2169 3072 
Q 1681 3072 1420 2755 
Q 1159 2438 1159 1844 
L 1159 0 
L 581 0 
L 581 3500 
L 1159 3500 
L 1159 2956 
Q 1341 3275 1631 3429 
Q 1922 3584 2338 3584 
Q 2397 3584 2469 3576 
Q 2541 3569 2628 3553 
L 2631 2963 
z
" transform="scale(0.015625)"/>
       <path id="DejaVuSans-62" d="M 3116 1747 
Q 3116 2381 2855 2742 
Q 2594 3103 2138 3103 
Q 1681 3103 1420 2742 
Q 1159 2381 1159 1747 
Q 1159 1113 1420 752 
Q 1681 391 2138 391 
Q 2594 391 2855 752 
Q 3116 1113 3116 1747 
z
M 1159 2969 
Q 1341 3281 1617 3432 
Q 1894 3584 2278 3584 
Q 2916 3584 3314 3078 
Q 3713 2572 3713 1747 
Q 3713 922 3314 415 
Q 2916 -91 2278 -91 
Q 1894 -91 1617 61 
Q 1341 213 1159 525 
L 1159 0 
L 581 0 
L 581 4863 
L 1159 4863 
L 1159 2969 
z
" transform="scale(0.015625)"/>
       <path id="DejaVuSans-61" d="M 2194 1759 
Q 1497 1759 1228 1600 
Q 959 1441 959 1056 
Q 959 750 1161 570 
Q 1363 391 1709 391 
Q 2188 391 2477 730 
Q 2766 1069 2766 1631 
L 2766 1759 
L 2194 1759 
z
M 3341 1997 
L 3341 0 
L 2766 0 
L 2766 531 
Q 2569 213 2275 61 
Q 1981 -91 1556 -91 
Q 1019 -91 701 211 
Q 384 513 384 1019 
Q 384 1609 779 1909 
Q 1175 2209 1959 2209 
L 2766 2209 
L 2766 2266 
Q 2766 2663 2505 2880 
Q 2244 3097 1772 3097 
Q 1472 3097 1187 3025 
Q 903 2953 641 2809 
L 641 3341 
Q 956 3463 1253 3523 
Q 1550 3584 1831 3584 
Q 2591 3584 2966 3190 
Q 3341 2797 3341 1997 
z
" transform="scale(0.015625)"/>
       <path id="DejaVuSans-6e" d="M 3513 2113 
L 3513 0 
L 2938 0 
L 2938 2094 
Q 2938 2591 2744 2837 
Q 2550 3084 2163 3084 
Q 1697 3084 1428 2787 
Q 1159 2491 1159 1978 
L 1159 0 
L 581 0 
L 581 3500 
L 1159 3500 
L 1159 2956 
Q 1366 3272 1645 3428 
Q 1925 3584 2291 3584 
Q 2894 3584 3203 3211 
Q 3513 2838 3513 2113 
z
" transform="scale(0.015625)"/>
       <path id="DejaVuSans-20" transform="scale(0.015625)"/>
       <path id="DejaVuSans-44" d="M 1259 4147 
L 1259 519 
L 2022 519 
Q 2988 519 3436 956 
Q 3884 1394 3884 2338 
Q 3884 3275 3436 3711 
Q 2988 4147 2022 4147 
L 1259 4147 
z
M 628 4666 
L 1925 4666 
Q 3281 4666 3915 4102 
Q 4550 3538 4550 2338 
Q 4550 1131 3912 565 
Q 3275 0 1925 0 
L 628 0 
L 628 4666 
z
" transform="scale(0.015625)"/>
       <path id="DejaVuSans-65" d="M 3597 1894 
L 3597 1613 
L 953 1613 
Q 991 1019 1311 708 
Q 1631 397 2203 397 
Q 2534 397 2845 478 
Q 3156 559 3463 722 
L 3463 178 
Q 3153 47 2828 -22 
Q 2503 -91 2169 -91 
Q 1331 -91 842 396 
Q 353 884 353 1716 
Q 353 2575 817 3079 
Q 1281 3584 2069 3584 
Q 2775 3584 3186 3129 
Q 3597 2675 3597 1894 
z
M 3022 2063 
Q 3016 2534 2758 2815 
Q 2500 3097 2075 3097 
Q 1594 3097 1305 2825 
Q 1016 2553 972 2059 
L 3022 2063 
z
" transform="scale(0.015625)"/>
       <path id="DejaVuSans-73" d="M 2834 3397 
L 2834 2853 
Q 2591 2978 2328 3040 
Q 2066 3103 1784 3103 
Q 1356 3103 1142 2972 
Q 928 2841 928 2578 
Q 928 2378 1081 2264 
Q 1234 2150 1697 2047 
L 1894 2003 
Q 2506 1872 2764 1633 
Q 3022 1394 3022 966 
Q 3022 478 2636 193 
Q 2250 -91 1575 -91 
Q 1294 -91 989 -36 
Q 684 19 347 128 
L 347 722 
Q 666 556 975 473 
Q 1284 391 1588 391 
Q 1994 391 2212 530 
Q 2431 669 2431 922 
Q 2431 1156 2273 1281 
Q 2116 1406 1581 1522 
L 1381 1569 
Q 847 1681 609 1914 
Q 372 2147 372 2553 
Q 372 3047 722 3315 
Q 1072 3584 1716 3584 
Q 2034 3584 2315 3537 
Q 2597 3491 2834 3397 
z
" transform="scale(0.015625)"/>
       <path id="DejaVuSans-69" d="M 603 3500 
L 1178 3500 
L 1178 0 
L 603 0 
L 603 3500 
z
M 603 4863 
L 1178 4863 
L 1178 4134 
L 603 4134 
L 603 4863 
z
" transform="scale(0.015625)"/>
       <path id="DejaVuSans-74" d="M 1172 4494 
L 1172 3500 
L 2356 3500 
L 2356 3053 
L 1172 3053 
L 1172 1153 
Q 1172 725 1289 603 
Q 1406 481 1766 481 
L 2356 481 
L 2356 0 
L 1766 0 
Q 1100 0 847 248 
Q 594 497 594 1153 
L 594 3053 
L 172 3053 
L 172 3500 
L 594 3500 
L 594 4494 
L 1172 4494 
z
" transform="scale(0.015625)"/>
       <path id="DejaVuSans-79" d="M 2059 -325 
Q 1816 -950 1584 -1140 
Q 1353 -1331 966 -1331 
L 506 -1331 
L 506 -850 
L 844 -850 
Q 1081 -850 1212 -737 
Q 1344 -625 1503 -206 
L 1606 56 
L 191 3500 
L 800 3500 
L 1894 763 
L 2988 3500 
L 3597 3500 
L 2059 -325 
z
" transform="scale(0.015625)"/>
       <path id="DejaVuSans-28" d="M 1984 4856 
Q 1566 4138 1362 3434 
Q 1159 2731 1159 2009 
Q 1159 1288 1364 580 
Q 1569 -128 1984 -844 
L 1484 -844 
Q 1016 -109 783 600 
Q 550 1309 550 2009 
Q 550 2706 781 3412 
Q 1013 4119 1484 4856 
L 1984 4856 
z
" transform="scale(0.015625)"/>
       <path id="DejaVuSans-68" d="M 3513 2113 
L 3513 0 
L 2938 0 
L 2938 2094 
Q 2938 2591 2744 2837 
Q 2550 3084 2163 3084 
Q 1697 3084 1428 2787 
Q 1159 2491 1159 1978 
L 1159 0 
L 581 0 
L 581 4863 
L 1159 4863 
L 1159 2956 
Q 1366 3272 1645 3428 
Q 1925 3584 2291 3584 
Q 2894 3584 3203 3211 
Q 3513 2838 3513 2113 
z
" transform="scale(0.015625)"/>
       <path id="DejaVuSans-70" d="M 1159 525 
L 1159 -1331 
L 581 -1331 
L 581 3500 
L 1159 3500 
L 1159 2969 
Q 1341 3281 1617 3432 
Q 1894 3584 2278 3584 
Q 2916 3584 3314 3078 
Q 3713 2572 3713 1747 
Q 3713 922 3314 415 
Q 2916 -91 2278 -91 
Q 1894 -91 1617 61 
Q 1341 213 1159 525 
z
M 3116 1747 
Q 3116 2381 2855 2742 
Q 2594 3103 2138 3103 
Q 1681 3103 1420 2742 
Q 1159 2381 1159 1747 
Q 1159 1113 1420 752 
Q 1681 391 2138 391 
Q 2594 391 2855 752 
Q 3116 1113 3116 1747 
z
" transform="scale(0.015625)"/>
       <path id="DejaVuSans-6b" d="M 581 4863 
L 1159 4863 
L 1159 1991 
L 2875 3500 
L 3609 3500 
L 1753 1863 
L 3688 0 
L 2938 0 
L 1159 1709 
L 1159 0 
L 581 0 
L 581 4863 
z
" transform="scale(0.015625)"/>
       <path id="DejaVuSans-6d" d="M 3328 2828 
Q 3544 3216 3844 3400 
Q 4144 3584 4550 3584 
Q 5097 3584 5394 3201 
Q 5691 2819 5691 2113 
L 5691 0 
L 5113 0 
L 5113 2094 
Q 5113 2597 4934 2840 
Q 4756 3084 4391 3084 
Q 3944 3084 3684 2787 
Q 3425 2491 3425 1978 
L 3425 0 
L 2847 0 
L 2847 2094 
Q 2847 2600 2669 2842 
Q 2491 3084 2119 3084 
Q 1678 3084 1418 2786 
Q 1159 2488 1159 1978 
L 1159 0 
L 581 0 
L 581 3500 
L 1159 3500 
L 1159 2956 
Q 1356 3278 1631 3431 
Q 1906 3584 2284 3584 
Q 2666 3584 2933 3390 
Q 3200 3197 3328 2828 
z
" transform="scale(0.015625)"/>
       <path id="DejaVuSans-b2" d="M 838 2444 
L 2163 2444 
L 2163 2088 
L 294 2088 
L 294 2431 
Q 400 2528 597 2703 
Q 1672 3656 1672 3950 
Q 1672 4156 1509 4282 
Q 1347 4409 1081 4409 
Q 919 4409 728 4354 
Q 538 4300 313 4191 
L 313 4575 
Q 553 4663 761 4706 
Q 969 4750 1147 4750 
Q 1600 4750 1872 4544 
Q 2144 4338 2144 4000 
Q 2144 3566 1109 2678 
Q 934 2528 838 2444 
z
" transform="scale(0.015625)"/>
       <path id="DejaVuSans-29" d="M 513 4856 
L 1013 4856 
Q 1481 4119 1714 3412 
Q 1947 2706 1947 2009 
Q 1947 1309 1714 600 
Q 1481 -109 1013 -844 
L 513 -844 
Q 928 -128 1133 580 
Q 1338 1288 1338 2009 
Q 1338 2731 1133 3434 
Q 928 4138 513 4856 
z
" transform="scale(0.015625)"/>
      </defs>
      <use xlink:href="#DejaVuSans-55"/>
      <use xlink:href="#DejaVuSans-72" x="73.193359"/>
      <use xlink:href="#DejaVuSans-62" x="114.306641"/>
      <use xlink:href="#DejaVuSans-61" x="177.783203"/>
      <use xlink:href="#DejaVuSans-6e" x="239.0625"/>
      <use xlink:href="#DejaVuSans-20" x="302.441406"/>
      <use xlink:href="#DejaVuSans-44" x="334.228516"/>
      <use xlink:href="#DejaVuSans-65" x="411.230469"/>
      <use xlink:href="#DejaVuSans-6e" x="472.753906"/>
      <use xlink:href="#DejaVuSans-73" x="536.132812"/>
      <use xlink:href="#DejaVuSans-69" x="588.232422"/>
      <use xlink:href="#DejaVuSans-74" x="616.015625"/>
      <use xlink:href="#DejaVuSans-79" x="655.224609"/>
      <use xlink:href="#DejaVuSans-20" x="714.404297"/>
      <use xlink:href="#DejaVuSans-28" x="746.191406"/>
      <use xlink:href="#DejaVuSans-69" x="785.205078"/>
      <use xlink:href="#DejaVuSans-6e" x="812.988281"/>
      <use xlink:href="#DejaVuSans-68" x="876.367188"/>
      <use xlink:href="#DejaVuSans-61" x="939.746094"/>
      <use xlink:href="#DejaVuSans-62" x="1001.025391"/>
      <use xlink:href="#DejaVuSans-69" x="1064.501953"/>
      <use xlink:href="#DejaVuSans-74" x="1092.285156"/>
      <use xlink:href="#DejaVuSans-61" x="1131.494141"/>
      <use xlink:href="#DejaVuSans-6e" x="1192.773438"/>
      <use xlink:href="#DejaVuSans-74" x="1256.152344"/>
      <use xlink:href="#DejaVuSans-73" x="1295.361328"/>
      <use xlink:href="#DejaVuSans-20" x="1347.460938"/>
      <use xlink:href="#DejaVuSans-70" x="1379.248047"/>
      <use xlink:href="#DejaVuSans-65" x="1442.724609"/>
      <use xlink:href="#DejaVuSans-72" x="1504.248047"/>
      <use xlink:href="#DejaVuSans-20" x="1545.361328"/>
      <use xlink:href="#DejaVuSans-31" x="1577.148438"/>
      <use xlink:href="#DejaVuSans-30" x="1640.771484"/>
      <use xlink:href="#DejaVuSans-20" x="1704.394531"/>
      <use xlink:href="#DejaVuSans-6b" x="1736.181641"/>
      <use xlink:href="#DejaVuSans-6d" x="1794.091797"/>
      <use xlink:href="#DejaVuSans-b2" x="1891.503906"/>
      <use xlink:href="#DejaVuSans-29" x="1931.591797"/>
     </g>
    </g>
   </g>
   <g id="matplotlib.axis_2">
    <g id="ytick_1">
     <g id="line2d_8">
      <defs>
       <path id="m5170889242" d="M 0 0 
L -3.5 0 
" style="stroke: #000000; stroke-width: 0.8"/>
      </defs>
      <g>
       <use xlink:href="#m5170889242" x="50.87" y="303.64" style="stroke: #000000; stroke-width: 0.8"/>
      </g>
     </g>
     <g id="text_9">
      <!-- 0 -->
      <g transform="translate(37.5075 307.439219)scale(0.1 -0.1)">
       <use xlink:href="#DejaVuSans-30"/>
      </g>
     </g>
    </g>
    <g id="ytick_2">
     <g id="line2d_9">
      <g>
       <use xlink:href="#m5170889242" x="50.87" y="269.224866" style="stroke: #000000; stroke-width: 0.8"/>
      </g>
     </g>
     <g id="text_10">
      <!-- 25 -->
      <g transform="translate(31.145 273.024085)scale(0.1 -0.1)">
       <defs>
        <path id="DejaVuSans-35" d="M 691 4666 
L 3169 4666 
L 3169 4134 
L 1269 4134 
L 1269 2991 
Q 1406 3038 1543 3061 
Q 1681 3084 1819 3084 
Q 2600 3084 3056 2656 
Q 3513 2228 3513 1497 
Q 3513 744 3044 326 
Q 2575 -91 1722 -91 
Q 1428 -91 1123 -41 
Q 819 9 494 109 
L 494 744 
Q 775 591 1075 516 
Q 1375 441 1709 441 
Q 2250 441 2565 725 
Q 2881 1009 2881 1497 
Q 2881 1984 2565 2268 
Q 2250 2553 1709 2553 
Q 1456 2553 1204 2497 
Q 953 2441 691 2322 
L 691 4666 
z
" transform="scale(0.015625)"/>
       </defs>
       <use xlink:href="#DejaVuSans-32"/>
       <use xlink:href="#DejaVuSans-35" x="63.623047"/>
      </g>
     </g>
    </g>
    <g id="ytick_3">
     <g id="line2d_10">
      <g>
       <use xlink:href="#m5170889242" x="50.87" y="234.809732" style="stroke: #000000; stroke-width: 0.8"/>
      </g>
     </g>
     <g id="text_11">
      <!-- 50 -->
      <g transform="translate(31.145 238.60895)scale(0.1 -0.1)">
       <use xlink:href="#DejaVuSans-35"/>
       <use xlink:href="#DejaVuSans-30" x="63.623047"/>
      </g>
     </g>
    </g>
    <g id="ytick_4">
     <g id="line2d_11">
      <g>
       <use xlink:href="#m5170889242" x="50.87" y="200.394597" style="stroke: #000000; stroke-width: 0.8"/>
      </g>
     </g>
     <g id="text_12">
      <!-- 75 -->
      <g transform="translate(31.145 204.193816)scale(0.1 -0.1)">
       <defs>
        <path id="DejaVuSans-37" d="M 525 4666 
L 3525 4666 
L 3525 4397 
L 1831 0 
L 1172 0 
L 2766 4134 
L 525 4134 
L 525 4666 
z
" transform="scale(0.015625)"/>
       </defs>
       <use xlink:href="#DejaVuSans-37"/>
       <use xlink:href="#DejaVuSans-35" x="63.623047"/>
      </g>
     </g>
    </g>
    <g id="ytick_5">
     <g id="line2d_12">
      <g>
       <use xlink:href="#m5170889242" x="50.87" y="165.979463" style="stroke: #000000; stroke-width: 0.8"/>
      </g>
     </g>
     <g id="text_13">
      <!-- 100 -->
      <g transform="translate(24.7825 169.778682)scale(0.1 -0.1)">
       <use xlink:href="#DejaVuSans-31"/>
       <use xlink:href="#DejaVuSans-30" x="63.623047"/>
       <use xlink:href="#DejaVuSans-30" x="127.246094"/>
      </g>
     </g>
    </g>
    <g id="ytick_6">
     <g id="line2d_13">
      <g>
       <use xlink:href="#m5170889242" x="50.87" y="131.564329" style="stroke: #000000; stroke-width: 0.8"/>
      </g>
     </g>
     <g id="text_14">
      <!-- 125 -->
      <g transform="translate(24.7825 135.363548)scale(0.1 -0.1)">
       <use xlink:href="#DejaVuSans-31"/>
       <use xlink:href="#DejaVuSans-32" x="63.623047"/>
       <use xlink:href="#DejaVuSans-35" x="127.246094"/>
      </g>
     </g>
    </g>
    <g id="ytick_7">
     <g id="line2d_14">
      <g>
       <use xlink:href="#m5170889242" x="50.87" y="97.149195" style="stroke: #000000; stroke-width: 0.8"/>
      </g>
     </g>
     <g id="text_15">
      <!-- 150 -->
      <g transform="translate(24.7825 100.948413)scale(0.1 -0.1)">
       <use xlink:href="#DejaVuSans-31"/>
       <use xlink:href="#DejaVuSans-35" x="63.623047"/>
       <use xlink:href="#DejaVuSans-30" x="127.246094"/>
      </g>
     </g>
    </g>
    <g id="ytick_8">
     <g id="line2d_15">
      <g>
       <use xlink:href="#m5170889242" x="50.87" y="62.73406" style="stroke: #000000; stroke-width: 0.8"/>
      </g>
     </g>
     <g id="text_16">
      <!-- 175 -->
      <g transform="translate(24.7825 66.533279)scale(0.1 -0.1)">
       <use xlink:href="#DejaVuSans-31"/>
       <use xlink:href="#DejaVuSans-37" x="63.623047"/>
       <use xlink:href="#DejaVuSans-35" x="127.246094"/>
      </g>
     </g>
    </g>
    <g id="ytick_9">
     <g id="line2d_16">
      <g>
       <use xlink:href="#m5170889242" x="50.87" y="28.318926" style="stroke: #000000; stroke-width: 0.8"/>
      </g>
     </g>
     <g id="text_17">
      <!-- 200 -->
      <g transform="translate(24.7825 32.118145)scale(0.1 -0.1)">
       <use xlink:href="#DejaVuSans-32"/>
       <use xlink:href="#DejaVuSans-30" x="63.623047"/>
       <use xlink:href="#DejaVuSans-30" x="127.246094"/>
      </g>
     </g>
    </g>
    <g id="text_18">
     <!-- Number of Homicides -->
     <g transform="translate(18.702813 211.37625)rotate(-90)scale(0.1 -0.1)">
      <defs>
       <path id="DejaVuSans-4e" d="M 628 4666 
L 1478 4666 
L 3547 763 
L 3547 4666 
L 4159 4666 
L 4159 0 
L 3309 0 
L 1241 3903 
L 1241 0 
L 628 0 
L 628 4666 
z
" transform="scale(0.015625)"/>
       <path id="DejaVuSans-75" d="M 544 1381 
L 544 3500 
L 1119 3500 
L 1119 1403 
Q 1119 906 1312 657 
Q 1506 409 1894 409 
Q 2359 409 2629 706 
Q 2900 1003 2900 1516 
L 2900 3500 
L 3475 3500 
L 3475 0 
L 2900 0 
L 2900 538 
Q 2691 219 2414 64 
Q 2138 -91 1772 -91 
Q 1169 -91 856 284 
Q 544 659 544 1381 
z
M 1991 3584 
L 1991 3584 
z
" transform="scale(0.015625)"/>
       <path id="DejaVuSans-6f" d="M 1959 3097 
Q 1497 3097 1228 2736 
Q 959 2375 959 1747 
Q 959 1119 1226 758 
Q 1494 397 1959 397 
Q 2419 397 2687 759 
Q 2956 1122 2956 1747 
Q 2956 2369 2687 2733 
Q 2419 3097 1959 3097 
z
M 1959 3584 
Q 2709 3584 3137 3096 
Q 3566 2609 3566 1747 
Q 3566 888 3137 398 
Q 2709 -91 1959 -91 
Q 1206 -91 779 398 
Q 353 888 353 1747 
Q 353 2609 779 3096 
Q 1206 3584 1959 3584 
z
" transform="scale(0.015625)"/>
       <path id="DejaVuSans-66" d="M 2375 4863 
L 2375 4384 
L 1825 4384 
Q 1516 4384 1395 4259 
Q 1275 4134 1275 3809 
L 1275 3500 
L 2222 3500 
L 2222 3053 
L 1275 3053 
L 1275 0 
L 697 0 
L 697 3053 
L 147 3053 
L 147 3500 
L 697 3500 
L 697 3744 
Q 697 4328 969 4595 
Q 1241 4863 1831 4863 
L 2375 4863 
z
" transform="scale(0.015625)"/>
       <path id="DejaVuSans-48" d="M 628 4666 
L 1259 4666 
L 1259 2753 
L 3553 2753 
L 3553 4666 
L 4184 4666 
L 4184 0 
L 3553 0 
L 3553 2222 
L 1259 2222 
L 1259 0 
L 628 0 
L 628 4666 
z
" transform="scale(0.015625)"/>
       <path id="DejaVuSans-63" d="M 3122 3366 
L 3122 2828 
Q 2878 2963 2633 3030 
Q 2388 3097 2138 3097 
Q 1578 3097 1268 2742 
Q 959 2388 959 1747 
Q 959 1106 1268 751 
Q 1578 397 2138 397 
Q 2388 397 2633 464 
Q 2878 531 3122 666 
L 3122 134 
Q 2881 22 2623 -34 
Q 2366 -91 2075 -91 
Q 1284 -91 818 406 
Q 353 903 353 1747 
Q 353 2603 823 3093 
Q 1294 3584 2113 3584 
Q 2378 3584 2631 3529 
Q 2884 3475 3122 3366 
z
" transform="scale(0.015625)"/>
       <path id="DejaVuSans-64" d="M 2906 2969 
L 2906 4863 
L 3481 4863 
L 3481 0 
L 2906 0 
L 2906 525 
Q 2725 213 2448 61 
Q 2172 -91 1784 -91 
Q 1150 -91 751 415 
Q 353 922 353 1747 
Q 353 2572 751 3078 
Q 1150 3584 1784 3584 
Q 2172 3584 2448 3432 
Q 2725 3281 2906 2969 
z
M 947 1747 
Q 947 1113 1208 752 
Q 1469 391 1925 391 
Q 2381 391 2643 752 
Q 2906 1113 2906 1747 
Q 2906 2381 2643 2742 
Q 2381 3103 1925 3103 
Q 1469 3103 1208 2742 
Q 947 2381 947 1747 
z
" transform="scale(0.015625)"/>
      </defs>
      <use xlink:href="#DejaVuSans-4e"/>
      <use xlink:href="#DejaVuSans-75" x="74.804688"/>
      <use xlink:href="#DejaVuSans-6d" x="138.183594"/>
      <use xlink:href="#DejaVuSans-62" x="235.595703"/>
      <use xlink:href="#DejaVuSans-65" x="299.072266"/>
      <use xlink:href="#DejaVuSans-72" x="360.595703"/>
      <use xlink:href="#DejaVuSans-20" x="401.708984"/>
      <use xlink:href="#DejaVuSans-6f" x="433.496094"/>
      <use xlink:href="#DejaVuSans-66" x="494.677734"/>
      <use xlink:href="#DejaVuSans-20" x="529.882812"/>
      <use xlink:href="#DejaVuSans-48" x="561.669922"/>
      <use xlink:href="#DejaVuSans-6f" x="636.865234"/>
      <use xlink:href="#DejaVuSans-6d" x="698.046875"/>
      <use xlink:href="#DejaVuSans-69" x="795.458984"/>
      <use xlink:href="#DejaVuSans-63" x="823.242188"/>
      <use xlink:href="#DejaVuSans-69" x="878.222656"/>
      <use xlink:href="#DejaVuSans-64" x="906.005859"/>
      <use xlink:href="#DejaVuSans-65" x="969.482422"/>
      <use xlink:href="#DejaVuSans-73" x="1031.005859"/>
     </g>
    </g>
   </g>
   <g id="line2d_17">
    <path d="M 50.87 96.400301 
L 59.01551 96.206969 
L 67.16102 96.013636 
L 75.306531 95.820304 
L 83.452041 95.626971 
L 91.597551 95.433639 
L 99.743061 95.240306 
L 107.888571 95.046974 
L 116.034082 94.853641 
L 124.179592 94.660308 
L 132.325102 94.466976 
L 140.470612 94.273643 
L 148.616122 94.080311 
L 156.761633 93.886978 
L 164.907143 93.693646 
L 173.052653 93.500313 
L 181.198163 93.30698 
L 189.343673 93.113648 
L 197.489184 92.920315 
L 205.634694 92.726983 
L 213.780204 92.53365 
L 221.925714 92.340318 
L 230.071224 92.146985 
L 238.216735 91.953652 
L 246.362245 91.76032 
L 254.507755 91.566987 
L 262.653265 91.373655 
L 270.798776 91.180322 
L 278.944286 90.98699 
L 287.089796 90.793657 
L 295.235306 90.600324 
L 303.380816 90.406992 
L 311.526327 90.213659 
L 319.671837 90.020327 
L 327.817347 89.826994 
L 335.962857 89.633662 
L 344.108367 89.440329 
L 352.253878 89.246997 
L 360.399388 89.053664 
L 368.544898 88.860331 
L 376.690408 88.666999 
L 384.835918 88.473666 
L 392.981429 88.280334 
L 401.126939 88.087001 
L 409.272449 87.893669 
L 417.417959 87.700336 
L 425.563469 87.507003 
L 433.70898 87.313671 
L 441.85449 87.120338 
L 450 86.927006 
" clip-path="url(#p9e31365f5f)" style="fill: none; stroke: #d70000; stroke-width: 1.5; stroke-linecap: square"/>
   </g>
   <g id="line2d_18">
    <path d="M 50.87 76.71943 
L 59.01551 76.332192 
L 67.16102 75.944953 
L 75.306531 75.557714 
L 83.452041 75.170475 
L 91.597551 74.783236 
L 99.743061 74.395997 
L 107.888571 74.008759 
L 116.034082 73.62152 
L 124.179592 73.234281 
L 132.325102 72.847042 
L 140.470612 72.459803 
L 148.616122 72.072564 
L 156.761633 71.685326 
L 164.907143 71.298087 
L 173.052653 70.910848 
L 181.198163 70.523609 
L 189.343673 70.13637 
L 197.489184 69.749131 
L 205.634694 69.361893 
L 213.780204 68.974654 
L 221.925714 68.587415 
L 230.071224 68.200176 
L 238.216735 67.812937 
L 246.362245 67.425698 
L 254.507755 67.03846 
L 262.653265 66.651221 
L 270.798776 66.263982 
L 278.944286 65.876743 
L 287.089796 65.489504 
L 295.235306 65.102265 
L 303.380816 64.715027 
L 311.526327 64.327788 
L 319.671837 63.940549 
L 327.817347 63.55331 
L 335.962857 63.166071 
L 344.108367 62.778832 
L 352.253878 62.391594 
L 360.399388 62.004355 
L 368.544898 61.617116 
L 376.690408 61.229877 
L 384.835918 60.842638 
L 392.981429 60.455399 
L 401.126939 60.068161 
L 409.272449 59.680922 
L 417.417959 59.293683 
L 425.563469 58.906444 
L 433.70898 58.519205 
L 441.85449 58.131966 
L 450 57.744728 
" clip-path="url(#p9e31365f5f)" style="fill: none; stroke: #8c3cff; stroke-width: 1.5; stroke-linecap: square"/>
   </g>
   <g id="line2d_19">
    <path d="M 50.87 171.313737 
L 59.01551 171.171379 
L 67.16102 171.02902 
L 75.306531 170.886661 
L 83.452041 170.744302 
L 91.597551 170.601943 
L 99.743061 170.459585 
L 107.888571 170.317226 
L 116.034082 170.174867 
L 124.179592 170.032508 
L 132.325102 169.890149 
L 140.470612 169.747791 
L 148.616122 169.605432 
L 156.761633 169.463073 
L 164.907143 169.320714 
L 173.052653 169.178355 
L 181.198163 169.035996 
L 189.343673 168.893638 
L 197.489184 168.751279 
L 205.634694 168.60892 
L 213.780204 168.466561 
L 221.925714 168.324202 
L 230.071224 168.181844 
L 238.216735 168.039485 
L 246.362245 167.897126 
L 254.507755 167.754767 
L 262.653265 167.612408 
L 270.798776 167.47005 
L 278.944286 167.327691 
L 287.089796 167.185332 
L 295.235306 167.042973 
L 303.380816 166.900614 
L 311.526327 166.758255 
L 319.671837 166.615897 
L 327.817347 166.473538 
L 335.962857 166.331179 
L 344.108367 166.18882 
L 352.253878 166.046461 
L 360.399388 165.904103 
L 368.544898 165.761744 
L 376.690408 165.619385 
L 384.835918 165.477026 
L 392.981429 165.334667 
L 401.126939 165.192309 
L 409.272449 165.04995 
L 417.417959 164.907591 
L 425.563469 164.765232 
L 433.70898 164.622873 
L 441.85449 164.480514 
L 450 164.338156 
" clip-path="url(#p9e31365f5f)" style="fill: none; stroke: #028800; stroke-width: 1.5; stroke-linecap: square"/>
   </g>
   <g id="line2d_20">
    <path d="M 50.87 125.517142 
L 59.01551 125.327541 
L 67.16102 125.137939 
L 75.306531 124.948338 
L 83.452041 124.758737 
L 91.597551 124.569135 
L 99.743061 124.379534 
L 107.888571 124.189933 
L 116.034082 124.000331 
L 124.179592 123.81073 
L 132.325102 123.621129 
L 140.470612 123.431527 
L 148.616122 123.241926 
L 156.761633 123.052324 
L 164.907143 122.862723 
L 173.052653 122.673122 
L 181.198163 122.48352 
L 189.343673 122.293919 
L 197.489184 122.104318 
L 205.634694 121.914716 
L 213.780204 121.725115 
L 221.925714 121.535513 
L 230.071224 121.345912 
L 238.216735 121.156311 
L 246.362245 120.966709 
L 254.507755 120.777108 
L 262.653265 120.587507 
L 270.798776 120.397905 
L 278.944286 120.208304 
L 287.089796 120.018703 
L 295.235306 119.829101 
L 303.380816 119.6395 
L 311.526327 119.449898 
L 319.671837 119.260297 
L 327.817347 119.070696 
L 335.962857 118.881094 
L 344.108367 118.691493 
L 352.253878 118.501892 
L 360.399388 118.31229 
L 368.544898 118.122689 
L 376.690408 117.933087 
L 384.835918 117.743486 
L 392.981429 117.553885 
L 401.126939 117.364283 
L 409.272449 117.174682 
L 417.417959 116.985081 
L 425.563469 116.795479 
L 433.70898 116.605878 
L 441.85449 116.416276 
L 450 116.226675 
" clip-path="url(#p9e31365f5f)" style="fill: none; stroke: #00acc7; stroke-width: 1.5; stroke-linecap: square"/>
   </g>
   <g id="line2d_21">
    <path d="M 50.87 69.732064 
L 59.01551 69.754898 
L 67.16102 69.777731 
L 75.306531 69.800565 
L 83.452041 69.823399 
L 91.597551 69.846232 
L 99.743061 69.869066 
L 107.888571 69.8919 
L 116.034082 69.914733 
L 124.179592 69.937567 
L 132.325102 69.960401 
L 140.470612 69.983234 
L 148.616122 70.006068 
L 156.761633 70.028902 
L 164.907143 70.051735 
L 173.052653 70.074569 
L 181.198163 70.097403 
L 189.343673 70.120237 
L 197.489184 70.14307 
L 205.634694 70.165904 
L 213.780204 70.188738 
L 221.925714 70.211571 
L 230.071224 70.234405 
L 238.216735 70.257239 
L 246.362245 70.280072 
L 254.507755 70.302906 
L 262.653265 70.32574 
L 270.798776 70.348573 
L 278.944286 70.371407 
L 287.089796 70.394241 
L 295.235306 70.417074 
L 303.380816 70.439908 
L 311.526327 70.462742 
L 319.671837 70.485575 
L 327.817347 70.508409 
L 335.962857 70.531243 
L 344.108367 70.554076 
L 352.253878 70.57691 
L 360.399388 70.599744 
L 368.544898 70.622577 
L 376.690408 70.645411 
L 384.835918 70.668245 
L 392.981429 70.691078 
L 401.126939 70.713912 
L 409.272449 70.736746 
L 417.417959 70.75958 
L 425.563469 70.782413 
L 433.70898 70.805247 
L 441.85449 70.828081 
L 450 70.850914 
" clip-path="url(#p9e31365f5f)" style="fill: none; stroke: #ff7fd1; stroke-width: 1.5; stroke-linecap: square"/>
   </g>
   <g id="line2d_22">
    <path d="M 50.87 97.171243 
L 59.01551 97.15659 
L 67.16102 97.141936 
L 75.306531 97.127283 
L 83.452041 97.112629 
L 91.597551 97.097976 
L 99.743061 97.083323 
L 107.888571 97.068669 
L 116.034082 97.054016 
L 124.179592 97.039362 
L 132.325102 97.024709 
L 140.470612 97.010055 
L 148.616122 96.995402 
L 156.761633 96.980748 
L 164.907143 96.966095 
L 173.052653 96.951442 
L 181.198163 96.936788 
L 189.343673 96.922135 
L 197.489184 96.907481 
L 205.634694 96.892828 
L 213.780204 96.878174 
L 221.925714 96.863521 
L 230.071224 96.848867 
L 238.216735 96.834214 
L 246.362245 96.819561 
L 254.507755 96.804907 
L 262.653265 96.790254 
L 270.798776 96.7756 
L 278.944286 96.760947 
L 287.089796 96.746293 
L 295.235306 96.73164 
L 303.380816 96.716986 
L 311.526327 96.702333 
L 319.671837 96.68768 
L 327.817347 96.673026 
L 335.962857 96.658373 
L 344.108367 96.643719 
L 352.253878 96.629066 
L 360.399388 96.614412 
L 368.544898 96.599759 
L 376.690408 96.585105 
L 384.835918 96.570452 
L 392.981429 96.555799 
L 401.126939 96.541145 
L 409.272449 96.526492 
L 417.417959 96.511838 
L 425.563469 96.497185 
L 433.70898 96.482531 
L 441.85449 96.467878 
L 450 96.453224 
" clip-path="url(#p9e31365f5f)" style="fill: none; stroke: #6c004f; stroke-width: 1.5; stroke-linecap: square"/>
   </g>
   <g id="line2d_23">
    <path d="M 50.87 168.737034 
L 59.01551 168.658263 
L 67.16102 168.579492 
L 75.306531 168.500721 
L 83.452041 168.42195 
L 91.597551 168.343179 
L 99.743061 168.264408 
L 107.888571 168.185637 
L 116.034082 168.106866 
L 124.179592 168.028095 
L 132.325102 167.949324 
L 140.470612 167.870553 
L 148.616122 167.791782 
L 156.761633 167.713011 
L 164.907143 167.63424 
L 173.052653 167.555469 
L 181.198163 167.476698 
L 189.343673 167.397927 
L 197.489184 167.319156 
L 205.634694 167.240385 
L 213.780204 167.161614 
L 221.925714 167.082843 
L 230.071224 167.004072 
L 238.216735 166.925301 
L 246.362245 166.84653 
L 254.507755 166.767759 
L 262.653265 166.688988 
L 270.798776 166.610217 
L 278.944286 166.531446 
L 287.089796 166.452675 
L 295.235306 166.373904 
L 303.380816 166.295133 
L 311.526327 166.216362 
L 319.671837 166.137591 
L 327.817347 166.05882 
L 335.962857 165.980049 
L 344.108367 165.901278 
L 352.253878 165.822507 
L 360.399388 165.743737 
L 368.544898 165.664966 
L 376.690408 165.586195 
L 384.835918 165.507424 
L 392.981429 165.428653 
L 401.126939 165.349882 
L 409.272449 165.271111 
L 417.417959 165.19234 
L 425.563469 165.113569 
L 433.70898 165.034798 
L 441.85449 164.956027 
L 450 164.877256 
" clip-path="url(#p9e31365f5f)" style="fill: none; stroke: #583b00; stroke-width: 1.5; stroke-linecap: square"/>
   </g>
   <g id="line2d_24">
    <path d="M 50.87 112.058375 
L 59.01551 111.946318 
L 67.16102 111.83426 
L 75.306531 111.722203 
L 83.452041 111.610145 
L 91.597551 111.498088 
L 99.743061 111.38603 
L 107.888571 111.273973 
L 116.034082 111.161915 
L 124.179592 111.049858 
L 132.325102 110.9378 
L 140.470612 110.825742 
L 148.616122 110.713685 
L 156.761633 110.601627 
L 164.907143 110.48957 
L 173.052653 110.377512 
L 181.198163 110.265455 
L 189.343673 110.153397 
L 197.489184 110.04134 
L 205.634694 109.929282 
L 213.780204 109.817225 
L 221.925714 109.705167 
L 230.071224 109.59311 
L 238.216735 109.481052 
L 246.362245 109.368995 
L 254.507755 109.256937 
L 262.653265 109.14488 
L 270.798776 109.032822 
L 278.944286 108.920765 
L 287.089796 108.808707 
L 295.235306 108.69665 
L 303.380816 108.584592 
L 311.526327 108.472535 
L 319.671837 108.360477 
L 327.817347 108.24842 
L 335.962857 108.136362 
L 344.108367 108.024305 
L 352.253878 107.912247 
L 360.399388 107.80019 
L 368.544898 107.688132 
L 376.690408 107.576075 
L 384.835918 107.464017 
L 392.981429 107.35196 
L 401.126939 107.239902 
L 409.272449 107.127845 
L 417.417959 107.015787 
L 425.563469 106.90373 
L 433.70898 106.791672 
L 441.85449 106.679615 
L 450 106.567557 
" clip-path="url(#p9e31365f5f)" style="fill: none; stroke: #005759; stroke-width: 1.5; stroke-linecap: square"/>
   </g>
   <g id="line2d_25">
    <path d="M 50.87 44.441292 
L 59.01551 44.206442 
L 67.16102 43.971591 
L 75.306531 43.736741 
L 83.452041 43.50189 
L 91.597551 43.26704 
L 99.743061 43.032189 
L 107.888571 42.797339 
L 116.034082 42.562488 
L 124.179592 42.327638 
L 132.325102 42.092787 
L 140.470612 41.857937 
L 148.616122 41.623086 
L 156.761633 41.388236 
L 164.907143 41.153385 
L 173.052653 40.918535 
L 181.198163 40.683684 
L 189.343673 40.448834 
L 197.489184 40.213983 
L 205.634694 39.979133 
L 213.780204 39.744282 
L 221.925714 39.509432 
L 230.071224 39.274582 
L 238.216735 39.039731 
L 246.362245 38.804881 
L 254.507755 38.57003 
L 262.653265 38.33518 
L 270.798776 38.100329 
L 278.944286 37.865479 
L 287.089796 37.630628 
L 295.235306 37.395778 
L 303.380816 37.160927 
L 311.526327 36.926077 
L 319.671837 36.691226 
L 327.817347 36.456376 
L 335.962857 36.221525 
L 344.108367 35.986675 
L 352.253878 35.751824 
L 360.399388 35.516974 
L 368.544898 35.282123 
L 376.690408 35.047273 
L 384.835918 34.812422 
L 392.981429 34.577572 
L 401.126939 34.342721 
L 409.272449 34.107871 
L 417.417959 33.87302 
L 425.563469 33.63817 
L 433.70898 33.403319 
L 441.85449 33.168469 
L 450 32.933618 
" clip-path="url(#p9e31365f5f)" style="fill: none; stroke: #0000dd; stroke-width: 1.5; stroke-linecap: square"/>
   </g>
   <g id="line2d_26">
    <path d="M 50.87 179.121461 
L 59.01551 178.999421 
L 67.16102 178.87738 
L 75.306531 178.755339 
L 83.452041 178.633298 
L 91.597551 178.511257 
L 99.743061 178.389216 
L 107.888571 178.267175 
L 116.034082 178.145135 
L 124.179592 178.023094 
L 132.325102 177.901053 
L 140.470612 177.779012 
L 148.616122 177.656971 
L 156.761633 177.53493 
L 164.907143 177.412889 
L 173.052653 177.290849 
L 181.198163 177.168808 
L 189.343673 177.046767 
L 197.489184 176.924726 
L 205.634694 176.802685 
L 213.780204 176.680644 
L 221.925714 176.558603 
L 230.071224 176.436563 
L 238.216735 176.314522 
L 246.362245 176.192481 
L 254.507755 176.07044 
L 262.653265 175.948399 
L 270.798776 175.826358 
L 278.944286 175.704317 
L 287.089796 175.582277 
L 295.235306 175.460236 
L 303.380816 175.338195 
L 311.526327 175.216154 
L 319.671837 175.094113 
L 327.817347 174.972072 
L 335.962857 174.850032 
L 344.108367 174.727991 
L 352.253878 174.60595 
L 360.399388 174.483909 
L 368.544898 174.361868 
L 376.690408 174.239827 
L 384.835918 174.117786 
L 392.981429 173.995746 
L 401.126939 173.873705 
L 409.272449 173.751664 
L 417.417959 173.629623 
L 425.563469 173.507582 
L 433.70898 173.385541 
L 441.85449 173.2635 
L 450 173.14146 
" clip-path="url(#p9e31365f5f)" style="fill: none; stroke: #a1756a; stroke-width: 1.5; stroke-linecap: square"/>
   </g>
   <g id="line2d_27">
    <path d="M 50.87 24.988107 
L 59.01551 24.908004 
L 67.16102 24.827901 
L 75.306531 24.747797 
L 83.452041 24.667694 
L 91.597551 24.587591 
L 99.743061 24.507487 
L 107.888571 24.427384 
L 116.034082 24.347281 
L 124.179592 24.267177 
L 132.325102 24.187074 
L 140.470612 24.106971 
L 148.616122 24.026868 
L 156.761633 23.946764 
L 164.907143 23.866661 
L 173.052653 23.786558 
L 181.198163 23.706454 
L 189.343673 23.626351 
L 197.489184 23.546248 
L 205.634694 23.466144 
L 213.780204 23.386041 
L 221.925714 23.305938 
L 230.071224 23.225835 
L 238.216735 23.145731 
L 246.362245 23.065628 
L 254.507755 22.985525 
L 262.653265 22.905421 
L 270.798776 22.825318 
L 278.944286 22.745215 
L 287.089796 22.665111 
L 295.235306 22.585008 
L 303.380816 22.504905 
L 311.526327 22.424802 
L 319.671837 22.344698 
L 327.817347 22.264595 
L 335.962857 22.184492 
L 344.108367 22.104388 
L 352.253878 22.024285 
L 360.399388 21.944182 
L 368.544898 21.864079 
L 376.690408 21.783975 
L 384.835918 21.703872 
L 392.981429 21.623769 
L 401.126939 21.543665 
L 409.272449 21.463562 
L 417.417959 21.383459 
L 425.563469 21.303355 
L 433.70898 21.223252 
L 441.85449 21.143149 
L 450 21.063046 
" clip-path="url(#p9e31365f5f)" style="fill: none; stroke: #bcb7ff; stroke-width: 1.5; stroke-linecap: square"/>
   </g>
   <g id="line2d_28">
    <path d="M 50.87 131.395614 
L 59.01551 131.325393 
L 67.16102 131.255172 
L 75.306531 131.18495 
L 83.452041 131.114729 
L 91.597551 131.044507 
L 99.743061 130.974286 
L 107.888571 130.904065 
L 116.034082 130.833843 
L 124.179592 130.763622 
L 132.325102 130.6934 
L 140.470612 130.623179 
L 148.616122 130.552958 
L 156.761633 130.482736 
L 164.907143 130.412515 
L 173.052653 130.342293 
L 181.198163 130.272072 
L 189.343673 130.201851 
L 197.489184 130.131629 
L 205.634694 130.061408 
L 213.780204 129.991186 
L 221.925714 129.920965 
L 230.071224 129.850743 
L 238.216735 129.780522 
L 246.362245 129.710301 
L 254.507755 129.640079 
L 262.653265 129.569858 
L 270.798776 129.499636 
L 278.944286 129.429415 
L 287.089796 129.359194 
L 295.235306 129.288972 
L 303.380816 129.218751 
L 311.526327 129.148529 
L 319.671837 129.078308 
L 327.817347 129.008087 
L 335.962857 128.937865 
L 344.108367 128.867644 
L 352.253878 128.797422 
L 360.399388 128.727201 
L 368.544898 128.65698 
L 376.690408 128.586758 
L 384.835918 128.516537 
L 392.981429 128.446315 
L 401.126939 128.376094 
L 409.272449 128.305873 
L 417.417959 128.235651 
L 425.563469 128.16543 
L 433.70898 128.095208 
L 441.85449 128.024987 
L 450 127.954765 
" clip-path="url(#p9e31365f5f)" style="fill: none; stroke: #95b578; stroke-width: 1.5; stroke-linecap: square"/>
   </g>
   <g id="line2d_29">
    <path d="M 50.87 46.818709 
L 59.01551 46.408178 
L 67.16102 45.997648 
L 75.306531 45.587117 
L 83.452041 45.176586 
L 91.597551 44.766055 
L 99.743061 44.355525 
L 107.888571 43.944994 
L 116.034082 43.534463 
L 124.179592 43.123932 
L 132.325102 42.713402 
L 140.470612 42.302871 
L 148.616122 41.89234 
L 156.761633 41.481809 
L 164.907143 41.071279 
L 173.052653 40.660748 
L 181.198163 40.250217 
L 189.343673 39.839686 
L 197.489184 39.429156 
L 205.634694 39.018625 
L 213.780204 38.608094 
L 221.925714 38.197563 
L 230.071224 37.787033 
L 238.216735 37.376502 
L 246.362245 36.965971 
L 254.507755 36.55544 
L 262.653265 36.14491 
L 270.798776 35.734379 
L 278.944286 35.323848 
L 287.089796 34.913317 
L 295.235306 34.502787 
L 303.380816 34.092256 
L 311.526327 33.681725 
L 319.671837 33.271194 
L 327.817347 32.860664 
L 335.962857 32.450133 
L 344.108367 32.039602 
L 352.253878 31.629071 
L 360.399388 31.218541 
L 368.544898 30.80801 
L 376.690408 30.397479 
L 384.835918 29.986948 
L 392.981429 29.576418 
L 401.126939 29.165887 
L 409.272449 28.755356 
L 417.417959 28.344825 
L 425.563469 27.934295 
L 433.70898 27.523764 
L 441.85449 27.113233 
L 450 26.702702 
" clip-path="url(#p9e31365f5f)" style="fill: none; stroke: #c004b9; stroke-width: 1.5; stroke-linecap: square"/>
   </g>
   <g id="line2d_30">
    <path d="M 50.87 226.323956 
L 59.01551 226.256776 
L 67.16102 226.189597 
L 75.306531 226.122417 
L 83.452041 226.055237 
L 91.597551 225.988057 
L 99.743061 225.920878 
L 107.888571 225.853698 
L 116.034082 225.786518 
L 124.179592 225.719339 
L 132.325102 225.652159 
L 140.470612 225.584979 
L 148.616122 225.5178 
L 156.761633 225.45062 
L 164.907143 225.38344 
L 173.052653 225.31626 
L 181.198163 225.249081 
L 189.343673 225.181901 
L 197.489184 225.114721 
L 205.634694 225.047542 
L 213.780204 224.980362 
L 221.925714 224.913182 
L 230.071224 224.846002 
L 238.216735 224.778823 
L 246.362245 224.711643 
L 254.507755 224.644463 
L 262.653265 224.577284 
L 270.798776 224.510104 
L 278.944286 224.442924 
L 287.089796 224.375745 
L 295.235306 224.308565 
L 303.380816 224.241385 
L 311.526327 224.174205 
L 319.671837 224.107026 
L 327.817347 224.039846 
L 335.962857 223.972666 
L 344.108367 223.905487 
L 352.253878 223.838307 
L 360.399388 223.771127 
L 368.544898 223.703947 
L 376.690408 223.636768 
L 384.835918 223.569588 
L 392.981429 223.502408 
L 401.126939 223.435229 
L 409.272449 223.368049 
L 417.417959 223.300869 
L 425.563469 223.23369 
L 433.70898 223.16651 
L 441.85449 223.09933 
L 450 223.03215 
" clip-path="url(#p9e31365f5f)" style="fill: none; stroke: #0774d8; stroke-width: 1.5; stroke-linecap: square"/>
   </g>
   <g id="line2d_31">
    <path d="M 50.87 85.460165 
L 59.01551 85.495831 
L 67.16102 85.531497 
L 75.306531 85.567164 
L 83.452041 85.60283 
L 91.597551 85.638496 
L 99.743061 85.674162 
L 107.888571 85.709828 
L 116.034082 85.745494 
L 124.179592 85.78116 
L 132.325102 85.816827 
L 140.470612 85.852493 
L 148.616122 85.888159 
L 156.761633 85.923825 
L 164.907143 85.959491 
L 173.052653 85.995157 
L 181.198163 86.030823 
L 189.343673 86.066489 
L 197.489184 86.102156 
L 205.634694 86.137822 
L 213.780204 86.173488 
L 221.925714 86.209154 
L 230.071224 86.24482 
L 238.216735 86.280486 
L 246.362245 86.316152 
L 254.507755 86.351819 
L 262.653265 86.387485 
L 270.798776 86.423151 
L 278.944286 86.458817 
L 287.089796 86.494483 
L 295.235306 86.530149 
L 303.380816 86.565815 
L 311.526327 86.601481 
L 319.671837 86.637148 
L 327.817347 86.672814 
L 335.962857 86.70848 
L 344.108367 86.744146 
L 352.253878 86.779812 
L 360.399388 86.815478 
L 368.544898 86.851144 
L 376.690408 86.88681 
L 384.835918 86.922477 
L 392.981429 86.958143 
L 401.126939 86.993809 
L 409.272449 87.029475 
L 417.417959 87.065141 
L 425.563469 87.100807 
L 433.70898 87.136473 
L 441.85449 87.17214 
L 450 87.207806 
" clip-path="url(#p9e31365f5f)" style="fill: none; stroke: #8f7a00; stroke-width: 1.5; stroke-linecap: square"/>
   </g>
   <g id="line2d_32">
    <path d="M 50.87 145.09427 
L 59.01551 144.781374 
L 67.16102 144.468477 
L 75.306531 144.155581 
L 83.452041 143.842685 
L 91.597551 143.529788 
L 99.743061 143.216892 
L 107.888571 142.903996 
L 116.034082 142.591099 
L 124.179592 142.278203 
L 132.325102 141.965307 
L 140.470612 141.65241 
L 148.616122 141.339514 
L 156.761633 141.026618 
L 164.907143 140.713721 
L 173.052653 140.400825 
L 181.198163 140.087929 
L 189.343673 139.775033 
L 197.489184 139.462136 
L 205.634694 139.14924 
L 213.780204 138.836344 
L 221.925714 138.523447 
L 230.071224 138.210551 
L 238.216735 137.897655 
L 246.362245 137.584758 
L 254.507755 137.271862 
L 262.653265 136.958966 
L 270.798776 136.646069 
L 278.944286 136.333173 
L 287.089796 136.020277 
L 295.235306 135.70738 
L 303.380816 135.394484 
L 311.526327 135.081588 
L 319.671837 134.768691 
L 327.817347 134.455795 
L 335.962857 134.142899 
L 344.108367 133.830003 
L 352.253878 133.517106 
L 360.399388 133.20421 
L 368.544898 132.891314 
L 376.690408 132.578417 
L 384.835918 132.265521 
L 392.981429 131.952625 
L 401.126939 131.639728 
L 409.272449 131.326832 
L 417.417959 131.013936 
L 425.563469 130.701039 
L 433.70898 130.388143 
L 441.85449 130.075247 
L 450 129.76235 
" clip-path="url(#p9e31365f5f)" style="fill: none; stroke: #ff7266; stroke-width: 1.5; stroke-linecap: square"/>
   </g>
   <g id="line2d_33">
    <path d="M 50.87 171.107896 
L 59.01551 170.93444 
L 67.16102 170.760985 
L 75.306531 170.587529 
L 83.452041 170.414073 
L 91.597551 170.240618 
L 99.743061 170.067162 
L 107.888571 169.893706 
L 116.034082 169.720251 
L 124.179592 169.546795 
L 132.325102 169.373339 
L 140.470612 169.199884 
L 148.616122 169.026428 
L 156.761633 168.852972 
L 164.907143 168.679517 
L 173.052653 168.506061 
L 181.198163 168.332605 
L 189.343673 168.159149 
L 197.489184 167.985694 
L 205.634694 167.812238 
L 213.780204 167.638782 
L 221.925714 167.465327 
L 230.071224 167.291871 
L 238.216735 167.118415 
L 246.362245 166.94496 
L 254.507755 166.771504 
L 262.653265 166.598048 
L 270.798776 166.424593 
L 278.944286 166.251137 
L 287.089796 166.077681 
L 295.235306 165.904226 
L 303.380816 165.73077 
L 311.526327 165.557314 
L 319.671837 165.383859 
L 327.817347 165.210403 
L 335.962857 165.036947 
L 344.108367 164.863492 
L 352.253878 164.690036 
L 360.399388 164.51658 
L 368.544898 164.343125 
L 376.690408 164.169669 
L 384.835918 163.996213 
L 392.981429 163.822757 
L 401.126939 163.649302 
L 409.272449 163.475846 
L 417.417959 163.30239 
L 425.563469 163.128935 
L 433.70898 162.955479 
L 441.85449 162.782023 
L 450 162.608568 
" clip-path="url(#p9e31365f5f)" style="fill: none; stroke: #5e7e66; stroke-width: 1.5; stroke-linecap: square"/>
   </g>
   <g id="line2d_34">
    <path d="M 50.87 111.580034 
L 59.01551 111.393033 
L 67.16102 111.206032 
L 75.306531 111.019031 
L 83.452041 110.832031 
L 91.597551 110.64503 
L 99.743061 110.458029 
L 107.888571 110.271028 
L 116.034082 110.084027 
L 124.179592 109.897027 
L 132.325102 109.710026 
L 140.470612 109.523025 
L 148.616122 109.336024 
L 156.761633 109.149024 
L 164.907143 108.962023 
L 173.052653 108.775022 
L 181.198163 108.588021 
L 189.343673 108.401021 
L 197.489184 108.21402 
L 205.634694 108.027019 
L 213.780204 107.840018 
L 221.925714 107.653018 
L 230.071224 107.466017 
L 238.216735 107.279016 
L 246.362245 107.092015 
L 254.507755 106.905014 
L 262.653265 106.718014 
L 270.798776 106.531013 
L 278.944286 106.344012 
L 287.089796 106.157011 
L 295.235306 105.970011 
L 303.380816 105.78301 
L 311.526327 105.596009 
L 319.671837 105.409008 
L 327.817347 105.222008 
L 335.962857 105.035007 
L 344.108367 104.848006 
L 352.253878 104.661005 
L 360.399388 104.474004 
L 368.544898 104.287004 
L 376.690408 104.100003 
L 384.835918 103.913002 
L 392.981429 103.726001 
L 401.126939 103.539001 
L 409.272449 103.352 
L 417.417959 103.164999 
L 425.563469 102.977998 
L 433.70898 102.790998 
L 441.85449 102.603997 
L 450 102.416996 
" clip-path="url(#p9e31365f5f)" style="fill: none; stroke: #9be4ff; stroke-width: 1.5; stroke-linecap: square"/>
   </g>
   <g id="patch_3">
    <path d="M 50.87 303.64 
L 50.87 10.8 
" style="fill: none; stroke: #000000; stroke-width: 0.8; stroke-linejoin: miter; stroke-linecap: square"/>
   </g>
   <g id="patch_4">
    <path d="M 450 303.64 
L 450 10.8 
" style="fill: none; stroke: #000000; stroke-width: 0.8; stroke-linejoin: miter; stroke-linecap: square"/>
   </g>
   <g id="patch_5">
    <path d="M 50.87 303.64 
L 450 303.64 
" style="fill: none; stroke: #000000; stroke-width: 0.8; stroke-linejoin: miter; stroke-linecap: square"/>
   </g>
   <g id="patch_6">
    <path d="M 50.87 10.8 
L 450 10.8 
" style="fill: none; stroke: #000000; stroke-width: 0.8; stroke-linejoin: miter; stroke-linecap: square"/>
   </g>
   <g id="legend_1">
    <g id="patch_7">
     <path d="M 333.726562 298.64 
L 443 298.64 
Q 445 298.64 445 296.64 
L 445 165.536875 
Q 445 163.536875 443 163.536875 
L 333.726562 163.536875 
Q 331.726562 163.536875 331.726562 165.536875 
L 331.726562 296.64 
Q 331.726562 298.64 333.726562 298.64 
z
" style="fill: #ffffff; opacity: 0.8; stroke: #cccccc; stroke-linejoin: miter"/>
    </g>
    <g id="line2d_35">
     <path d="M 335.726562 171.635312 
L 345.726562 171.635312 
L 355.726562 171.635312 
" style="fill: none; stroke: #d70000; stroke-width: 1.5; stroke-linecap: square"/>
    </g>
    <g id="text_19">
     <!-- AT -->
     <g transform="translate(363.726562 175.135312)scale(0.1 -0.1)">
      <defs>
       <path id="DejaVuSans-41" d="M 2188 4044 
L 1331 1722 
L 3047 1722 
L 2188 4044 
z
M 1831 4666 
L 2547 4666 
L 4325 0 
L 3669 0 
L 3244 1197 
L 1141 1197 
L 716 0 
L 50 0 
L 1831 4666 
z
" transform="scale(0.015625)"/>
       <path id="DejaVuSans-54" d="M -19 4666 
L 3928 4666 
L 3928 4134 
L 2272 4134 
L 2272 0 
L 1638 0 
L 1638 4134 
L -19 4134 
L -19 4666 
z
" transform="scale(0.015625)"/>
      </defs>
      <use xlink:href="#DejaVuSans-41"/>
      <use xlink:href="#DejaVuSans-54" x="60.658203"/>
     </g>
    </g>
    <g id="line2d_36">
     <path d="M 335.726562 186.313438 
L 345.726562 186.313438 
L 355.726562 186.313438 
" style="fill: none; stroke: #8c3cff; stroke-width: 1.5; stroke-linecap: square"/>
    </g>
    <g id="text_20">
     <!-- BE -->
     <g transform="translate(363.726562 189.813438)scale(0.1 -0.1)">
      <defs>
       <path id="DejaVuSans-42" d="M 1259 2228 
L 1259 519 
L 2272 519 
Q 2781 519 3026 730 
Q 3272 941 3272 1375 
Q 3272 1813 3026 2020 
Q 2781 2228 2272 2228 
L 1259 2228 
z
M 1259 4147 
L 1259 2741 
L 2194 2741 
Q 2656 2741 2882 2914 
Q 3109 3088 3109 3444 
Q 3109 3797 2882 3972 
Q 2656 4147 2194 4147 
L 1259 4147 
z
M 628 4666 
L 2241 4666 
Q 2963 4666 3353 4366 
Q 3744 4066 3744 3513 
Q 3744 3084 3544 2831 
Q 3344 2578 2956 2516 
Q 3422 2416 3680 2098 
Q 3938 1781 3938 1306 
Q 3938 681 3513 340 
Q 3088 0 2303 0 
L 628 0 
L 628 4666 
z
" transform="scale(0.015625)"/>
       <path id="DejaVuSans-45" d="M 628 4666 
L 3578 4666 
L 3578 4134 
L 1259 4134 
L 1259 2753 
L 3481 2753 
L 3481 2222 
L 1259 2222 
L 1259 531 
L 3634 531 
L 3634 0 
L 628 0 
L 628 4666 
z
" transform="scale(0.015625)"/>
      </defs>
      <use xlink:href="#DejaVuSans-42"/>
      <use xlink:href="#DejaVuSans-45" x="68.603516"/>
     </g>
    </g>
    <g id="line2d_37">
     <path d="M 335.726562 200.991562 
L 345.726562 200.991562 
L 355.726562 200.991562 
" style="fill: none; stroke: #028800; stroke-width: 1.5; stroke-linecap: square"/>
    </g>
    <g id="text_21">
     <!-- BG -->
     <g transform="translate(363.726562 204.491562)scale(0.1 -0.1)">
      <defs>
       <path id="DejaVuSans-47" d="M 3809 666 
L 3809 1919 
L 2778 1919 
L 2778 2438 
L 4434 2438 
L 4434 434 
Q 4069 175 3628 42 
Q 3188 -91 2688 -91 
Q 1594 -91 976 548 
Q 359 1188 359 2328 
Q 359 3472 976 4111 
Q 1594 4750 2688 4750 
Q 3144 4750 3555 4637 
Q 3966 4525 4313 4306 
L 4313 3634 
Q 3963 3931 3569 4081 
Q 3175 4231 2741 4231 
Q 1884 4231 1454 3753 
Q 1025 3275 1025 2328 
Q 1025 1384 1454 906 
Q 1884 428 2741 428 
Q 3075 428 3337 486 
Q 3600 544 3809 666 
z
" transform="scale(0.015625)"/>
      </defs>
      <use xlink:href="#DejaVuSans-42"/>
      <use xlink:href="#DejaVuSans-47" x="66.853516"/>
     </g>
    </g>
    <g id="line2d_38">
     <path d="M 335.726562 215.669688 
L 345.726562 215.669688 
L 355.726562 215.669688 
" style="fill: none; stroke: #00acc7; stroke-width: 1.5; stroke-linecap: square"/>
    </g>
    <g id="text_22">
     <!-- CY -->
     <g transform="translate(363.726562 219.169688)scale(0.1 -0.1)">
      <defs>
       <path id="DejaVuSans-43" d="M 4122 4306 
L 4122 3641 
Q 3803 3938 3442 4084 
Q 3081 4231 2675 4231 
Q 1875 4231 1450 3742 
Q 1025 3253 1025 2328 
Q 1025 1406 1450 917 
Q 1875 428 2675 428 
Q 3081 428 3442 575 
Q 3803 722 4122 1019 
L 4122 359 
Q 3791 134 3420 21 
Q 3050 -91 2638 -91 
Q 1578 -91 968 557 
Q 359 1206 359 2328 
Q 359 3453 968 4101 
Q 1578 4750 2638 4750 
Q 3056 4750 3426 4639 
Q 3797 4528 4122 4306 
z
" transform="scale(0.015625)"/>
       <path id="DejaVuSans-59" d="M -13 4666 
L 666 4666 
L 1959 2747 
L 3244 4666 
L 3922 4666 
L 2272 2222 
L 2272 0 
L 1638 0 
L 1638 2222 
L -13 4666 
z
" transform="scale(0.015625)"/>
      </defs>
      <use xlink:href="#DejaVuSans-43"/>
      <use xlink:href="#DejaVuSans-59" x="68.074219"/>
     </g>
    </g>
    <g id="line2d_39">
     <path d="M 335.726562 230.347813 
L 345.726562 230.347813 
L 355.726562 230.347813 
" style="fill: none; stroke: #ff7fd1; stroke-width: 1.5; stroke-linecap: square"/>
    </g>
    <g id="text_23">
     <!-- DE -->
     <g transform="translate(363.726562 233.847813)scale(0.1 -0.1)">
      <use xlink:href="#DejaVuSans-44"/>
      <use xlink:href="#DejaVuSans-45" x="77.001953"/>
     </g>
    </g>
    <g id="line2d_40">
     <path d="M 335.726562 245.025937 
L 345.726562 245.025937 
L 355.726562 245.025937 
" style="fill: none; stroke: #6c004f; stroke-width: 1.5; stroke-linecap: square"/>
    </g>
    <g id="text_24">
     <!-- DK -->
     <g transform="translate(363.726562 248.525937)scale(0.1 -0.1)">
      <defs>
       <path id="DejaVuSans-4b" d="M 628 4666 
L 1259 4666 
L 1259 2694 
L 3353 4666 
L 4166 4666 
L 1850 2491 
L 4331 0 
L 3500 0 
L 1259 2247 
L 1259 0 
L 628 0 
L 628 4666 
z
" transform="scale(0.015625)"/>
      </defs>
      <use xlink:href="#DejaVuSans-44"/>
      <use xlink:href="#DejaVuSans-4b" x="77.001953"/>
     </g>
    </g>
    <g id="line2d_41">
     <path d="M 335.726562 259.704062 
L 345.726562 259.704062 
L 355.726562 259.704062 
" style="fill: none; stroke: #583b00; stroke-width: 1.5; stroke-linecap: square"/>
    </g>
    <g id="text_25">
     <!-- EL -->
     <g transform="translate(363.726562 263.204062)scale(0.1 -0.1)">
      <defs>
       <path id="DejaVuSans-4c" d="M 628 4666 
L 1259 4666 
L 1259 531 
L 3531 531 
L 3531 0 
L 628 0 
L 628 4666 
z
" transform="scale(0.015625)"/>
      </defs>
      <use xlink:href="#DejaVuSans-45"/>
      <use xlink:href="#DejaVuSans-4c" x="63.183594"/>
     </g>
    </g>
    <g id="line2d_42">
     <path d="M 335.726562 274.382187 
L 345.726562 274.382187 
L 355.726562 274.382187 
" style="fill: none; stroke: #005759; stroke-width: 1.5; stroke-linecap: square"/>
    </g>
    <g id="text_26">
     <!-- ES -->
     <g transform="translate(363.726562 277.882187)scale(0.1 -0.1)">
      <defs>
       <path id="DejaVuSans-53" d="M 3425 4513 
L 3425 3897 
Q 3066 4069 2747 4153 
Q 2428 4238 2131 4238 
Q 1616 4238 1336 4038 
Q 1056 3838 1056 3469 
Q 1056 3159 1242 3001 
Q 1428 2844 1947 2747 
L 2328 2669 
Q 3034 2534 3370 2195 
Q 3706 1856 3706 1288 
Q 3706 609 3251 259 
Q 2797 -91 1919 -91 
Q 1588 -91 1214 -16 
Q 841 59 441 206 
L 441 856 
Q 825 641 1194 531 
Q 1563 422 1919 422 
Q 2459 422 2753 634 
Q 3047 847 3047 1241 
Q 3047 1584 2836 1778 
Q 2625 1972 2144 2069 
L 1759 2144 
Q 1053 2284 737 2584 
Q 422 2884 422 3419 
Q 422 4038 858 4394 
Q 1294 4750 2059 4750 
Q 2388 4750 2728 4690 
Q 3069 4631 3425 4513 
z
" transform="scale(0.015625)"/>
      </defs>
      <use xlink:href="#DejaVuSans-45"/>
      <use xlink:href="#DejaVuSans-53" x="63.183594"/>
     </g>
    </g>
    <g id="line2d_43">
     <path d="M 335.726562 289.060313 
L 345.726562 289.060313 
L 355.726562 289.060313 
" style="fill: none; stroke: #0000dd; stroke-width: 1.5; stroke-linecap: square"/>
    </g>
    <g id="text_27">
     <!-- FI -->
     <g transform="translate(363.726562 292.560313)scale(0.1 -0.1)">
      <defs>
       <path id="DejaVuSans-46" d="M 628 4666 
L 3309 4666 
L 3309 4134 
L 1259 4134 
L 1259 2759 
L 3109 2759 
L 3109 2228 
L 1259 2228 
L 1259 0 
L 628 0 
L 628 4666 
z
" transform="scale(0.015625)"/>
       <path id="DejaVuSans-49" d="M 628 4666 
L 1259 4666 
L 1259 0 
L 628 0 
L 628 4666 
z
" transform="scale(0.015625)"/>
      </defs>
      <use xlink:href="#DejaVuSans-46"/>
      <use xlink:href="#DejaVuSans-49" x="57.519531"/>
     </g>
    </g>
    <g id="line2d_44">
     <path d="M 398.160937 171.635312 
L 408.160937 171.635312 
L 418.160937 171.635312 
" style="fill: none; stroke: #a1756a; stroke-width: 1.5; stroke-linecap: square"/>
    </g>
    <g id="text_28">
     <!-- HU -->
     <g transform="translate(426.160937 175.135312)scale(0.1 -0.1)">
      <use xlink:href="#DejaVuSans-48"/>
      <use xlink:href="#DejaVuSans-55" x="75.195312"/>
     </g>
    </g>
    <g id="line2d_45">
     <path d="M 398.160937 186.313438 
L 408.160937 186.313438 
L 418.160937 186.313438 
" style="fill: none; stroke: #bcb7ff; stroke-width: 1.5; stroke-linecap: square"/>
    </g>
    <g id="text_29">
     <!-- IE -->
     <g transform="translate(426.160937 189.813438)scale(0.1 -0.1)">
      <use xlink:href="#DejaVuSans-49"/>
      <use xlink:href="#DejaVuSans-45" x="29.492188"/>
     </g>
    </g>
    <g id="line2d_46">
     <path d="M 398.160937 200.991562 
L 408.160937 200.991562 
L 418.160937 200.991562 
" style="fill: none; stroke: #95b578; stroke-width: 1.5; stroke-linecap: square"/>
    </g>
    <g id="text_30">
     <!-- IT -->
     <g transform="translate(426.160937 204.491562)scale(0.1 -0.1)">
      <use xlink:href="#DejaVuSans-49"/>
      <use xlink:href="#DejaVuSans-54" x="29.492188"/>
     </g>
    </g>
    <g id="line2d_47">
     <path d="M 398.160937 215.669688 
L 408.160937 215.669688 
L 418.160937 215.669688 
" style="fill: none; stroke: #c004b9; stroke-width: 1.5; stroke-linecap: square"/>
    </g>
    <g id="text_31">
     <!-- LT -->
     <g transform="translate(426.160937 219.169688)scale(0.1 -0.1)">
      <use xlink:href="#DejaVuSans-4c"/>
      <use xlink:href="#DejaVuSans-54" x="41.962891"/>
     </g>
    </g>
    <g id="line2d_48">
     <path d="M 398.160937 230.347813 
L 408.160937 230.347813 
L 418.160937 230.347813 
" style="fill: none; stroke: #0774d8; stroke-width: 1.5; stroke-linecap: square"/>
    </g>
    <g id="text_32">
     <!-- MT -->
     <g transform="translate(426.160937 233.847813)scale(0.1 -0.1)">
      <defs>
       <path id="DejaVuSans-4d" d="M 628 4666 
L 1569 4666 
L 2759 1491 
L 3956 4666 
L 4897 4666 
L 4897 0 
L 4281 0 
L 4281 4097 
L 3078 897 
L 2444 897 
L 1241 4097 
L 1241 0 
L 628 0 
L 628 4666 
z
" transform="scale(0.015625)"/>
      </defs>
      <use xlink:href="#DejaVuSans-4d"/>
      <use xlink:href="#DejaVuSans-54" x="86.279297"/>
     </g>
    </g>
    <g id="line2d_49">
     <path d="M 398.160937 245.025937 
L 408.160937 245.025937 
L 418.160937 245.025937 
" style="fill: none; stroke: #8f7a00; stroke-width: 1.5; stroke-linecap: square"/>
    </g>
    <g id="text_33">
     <!-- PT -->
     <g transform="translate(426.160937 248.525937)scale(0.1 -0.1)">
      <defs>
       <path id="DejaVuSans-50" d="M 1259 4147 
L 1259 2394 
L 2053 2394 
Q 2494 2394 2734 2622 
Q 2975 2850 2975 3272 
Q 2975 3691 2734 3919 
Q 2494 4147 2053 4147 
L 1259 4147 
z
M 628 4666 
L 2053 4666 
Q 2838 4666 3239 4311 
Q 3641 3956 3641 3272 
Q 3641 2581 3239 2228 
Q 2838 1875 2053 1875 
L 1259 1875 
L 1259 0 
L 628 0 
L 628 4666 
z
" transform="scale(0.015625)"/>
      </defs>
      <use xlink:href="#DejaVuSans-50"/>
      <use xlink:href="#DejaVuSans-54" x="60.302734"/>
     </g>
    </g>
    <g id="line2d_50">
     <path d="M 398.160937 259.704062 
L 408.160937 259.704062 
L 418.160937 259.704062 
" style="fill: none; stroke: #ff7266; stroke-width: 1.5; stroke-linecap: square"/>
    </g>
    <g id="text_34">
     <!-- RO -->
     <g transform="translate(426.160937 263.204062)scale(0.1 -0.1)">
      <defs>
       <path id="DejaVuSans-52" d="M 2841 2188 
Q 3044 2119 3236 1894 
Q 3428 1669 3622 1275 
L 4263 0 
L 3584 0 
L 2988 1197 
Q 2756 1666 2539 1819 
Q 2322 1972 1947 1972 
L 1259 1972 
L 1259 0 
L 628 0 
L 628 4666 
L 2053 4666 
Q 2853 4666 3247 4331 
Q 3641 3997 3641 3322 
Q 3641 2881 3436 2590 
Q 3231 2300 2841 2188 
z
M 1259 4147 
L 1259 2491 
L 2053 2491 
Q 2509 2491 2742 2702 
Q 2975 2913 2975 3322 
Q 2975 3731 2742 3939 
Q 2509 4147 2053 4147 
L 1259 4147 
z
" transform="scale(0.015625)"/>
       <path id="DejaVuSans-4f" d="M 2522 4238 
Q 1834 4238 1429 3725 
Q 1025 3213 1025 2328 
Q 1025 1447 1429 934 
Q 1834 422 2522 422 
Q 3209 422 3611 934 
Q 4013 1447 4013 2328 
Q 4013 3213 3611 3725 
Q 3209 4238 2522 4238 
z
M 2522 4750 
Q 3503 4750 4090 4092 
Q 4678 3434 4678 2328 
Q 4678 1225 4090 567 
Q 3503 -91 2522 -91 
Q 1538 -91 948 565 
Q 359 1222 359 2328 
Q 359 3434 948 4092 
Q 1538 4750 2522 4750 
z
" transform="scale(0.015625)"/>
      </defs>
      <use xlink:href="#DejaVuSans-52"/>
      <use xlink:href="#DejaVuSans-4f" x="69.482422"/>
     </g>
    </g>
    <g id="line2d_51">
     <path d="M 398.160937 274.382187 
L 408.160937 274.382187 
L 418.160937 274.382187 
" style="fill: none; stroke: #5e7e66; stroke-width: 1.5; stroke-linecap: square"/>
    </g>
    <g id="text_35">
     <!-- SI -->
     <g transform="translate(426.160937 277.882187)scale(0.1 -0.1)">
      <use xlink:href="#DejaVuSans-53"/>
      <use xlink:href="#DejaVuSans-49" x="63.476562"/>
     </g>
    </g>
    <g id="line2d_52">
     <path d="M 398.160937 289.060313 
L 408.160937 289.060313 
L 418.160937 289.060313 
" style="fill: none; stroke: #9be4ff; stroke-width: 1.5; stroke-linecap: square"/>
    </g>
    <g id="text_36">
     <!-- SK -->
     <g transform="translate(426.160937 292.560313)scale(0.1 -0.1)">
      <use xlink:href="#DejaVuSans-53"/>
      <use xlink:href="#DejaVuSans-4b" x="63.476562"/>
     </g>
    </g>
   </g>
  </g>
 </g>
 <defs>
  <clipPath id="p9e31365f5f">
   <rect x="50.87" y="10.8" width="399.13" height="292.84"/>
  </clipPath>
 </defs>
</svg>
