<?xml version="1.0" encoding="utf-8" standalone="no"?>
<!DOCTYPE svg PUBLIC "-//W3C//DTD SVG 1.1//EN"
  "http://www.w3.org/Graphics/SVG/1.1/DTD/svg11.dtd">
<svg xmlns:xlink="http://www.w3.org/1999/xlink" width="360pt" height="288pt" viewBox="0 0 360 288" xmlns="http://www.w3.org/2000/svg" version="1.1">
 <metadata>
  <rdf:RDF xmlns:dc="http://purl.org/dc/elements/1.1/" xmlns:cc="http://creativecommons.org/ns#" xmlns:rdf="http://www.w3.org/1999/02/22-rdf-syntax-ns#">
   <cc:Work>
    <dc:type rdf:resource="http://purl.org/dc/dcmitype/StillImage"/>
    <dc:date>2024-01-29T16:48:06.688615</dc:date>
    <dc:format>image/svg+xml</dc:format>
    <dc:creator>
     <cc:Agent>
      <dc:title>Matplotlib v3.5.1, https://matplotlib.org/</dc:title>
     </cc:Agent>
    </dc:creator>
   </cc:Work>
  </rdf:RDF>
 </metadata>
 <defs>
  <style type="text/css">*{stroke-linejoin: round; stroke-linecap: butt}</style>
 </defs>
 <g id="figure_1">
  <g id="patch_1">
   <path d="M 0 288 
L 360 288 
L 360 0 
L 0 0 
L 0 288 
z
" style="fill: none"/>
  </g>
  <g id="axes_1">
   <g id="patch_2">
    <path d="M 57.17 246.04 
L 349.2 246.04 
L 349.2 14.76 
L 57.17 14.76 
L 57.17 246.04 
z
" style="fill: none"/>
   </g>
   <g id="matplotlib.axis_1">
    <g id="xtick_1">
     <g id="line2d_1">
      <defs>
       <path id="mcbae42f9c9" d="M 0 0 
L 0 3.5 
" style="stroke: #000000; stroke-width: 0.8"/>
      </defs>
      <g>
       <use xlink:href="#mcbae42f9c9" x="86.038927" y="246.04" style="stroke: #000000; stroke-width: 0.8"/>
      </g>
     </g>
     <g id="text_1">
      <!-- 50 -->
      <g transform="translate(79.676427 260.638438)scale(0.1 -0.1)">
       <defs>
        <path id="DejaVuSans-35" d="M 691 4666 
L 3169 4666 
L 3169 4134 
L 1269 4134 
L 1269 2991 
Q 1406 3038 1543 3061 
Q 1681 3084 1819 3084 
Q 2600 3084 3056 2656 
Q 3513 2228 3513 1497 
Q 3513 744 3044 326 
Q 2575 -91 1722 -91 
Q 1428 -91 1123 -41 
Q 819 9 494 109 
L 494 744 
Q 775 591 1075 516 
Q 1375 441 1709 441 
Q 2250 441 2565 725 
Q 2881 1009 2881 1497 
Q 2881 1984 2565 2268 
Q 2250 2553 1709 2553 
Q 1456 2553 1204 2497 
Q 953 2441 691 2322 
L 691 4666 
z
" transform="scale(0.015625)"/>
        <path id="DejaVuSans-30" d="M 2034 4250 
Q 1547 4250 1301 3770 
Q 1056 3291 1056 2328 
Q 1056 1369 1301 889 
Q 1547 409 2034 409 
Q 2525 409 2770 889 
Q 3016 1369 3016 2328 
Q 3016 3291 2770 3770 
Q 2525 4250 2034 4250 
z
M 2034 4750 
Q 2819 4750 3233 4129 
Q 3647 3509 3647 2328 
Q 3647 1150 3233 529 
Q 2819 -91 2034 -91 
Q 1250 -91 836 529 
Q 422 1150 422 2328 
Q 422 3509 836 4129 
Q 1250 4750 2034 4750 
z
" transform="scale(0.015625)"/>
       </defs>
       <use xlink:href="#DejaVuSans-35"/>
       <use xlink:href="#DejaVuSans-30" x="63.623047"/>
      </g>
     </g>
    </g>
    <g id="xtick_2">
     <g id="line2d_2">
      <g>
       <use xlink:href="#mcbae42f9c9" x="125.434297" y="246.04" style="stroke: #000000; stroke-width: 0.8"/>
      </g>
     </g>
     <g id="text_2">
      <!-- 75 -->
      <g transform="translate(119.071797 260.638438)scale(0.1 -0.1)">
       <defs>
        <path id="DejaVuSans-37" d="M 525 4666 
L 3525 4666 
L 3525 4397 
L 1831 0 
L 1172 0 
L 2766 4134 
L 525 4134 
L 525 4666 
z
" transform="scale(0.015625)"/>
       </defs>
       <use xlink:href="#DejaVuSans-37"/>
       <use xlink:href="#DejaVuSans-35" x="63.623047"/>
      </g>
     </g>
    </g>
    <g id="xtick_3">
     <g id="line2d_3">
      <g>
       <use xlink:href="#mcbae42f9c9" x="164.829668" y="246.04" style="stroke: #000000; stroke-width: 0.8"/>
      </g>
     </g>
     <g id="text_3">
      <!-- 100 -->
      <g transform="translate(155.285918 260.638438)scale(0.1 -0.1)">
       <defs>
        <path id="DejaVuSans-31" d="M 794 531 
L 1825 531 
L 1825 4091 
L 703 3866 
L 703 4441 
L 1819 4666 
L 2450 4666 
L 2450 531 
L 3481 531 
L 3481 0 
L 794 0 
L 794 531 
z
" transform="scale(0.015625)"/>
       </defs>
       <use xlink:href="#DejaVuSans-31"/>
       <use xlink:href="#DejaVuSans-30" x="63.623047"/>
       <use xlink:href="#DejaVuSans-30" x="127.246094"/>
      </g>
     </g>
    </g>
    <g id="xtick_4">
     <g id="line2d_4">
      <g>
       <use xlink:href="#mcbae42f9c9" x="204.225038" y="246.04" style="stroke: #000000; stroke-width: 0.8"/>
      </g>
     </g>
     <g id="text_4">
      <!-- 125 -->
      <g transform="translate(194.681288 260.638438)scale(0.1 -0.1)">
       <defs>
        <path id="DejaVuSans-32" d="M 1228 531 
L 3431 531 
L 3431 0 
L 469 0 
L 469 531 
Q 828 903 1448 1529 
Q 2069 2156 2228 2338 
Q 2531 2678 2651 2914 
Q 2772 3150 2772 3378 
Q 2772 3750 2511 3984 
Q 2250 4219 1831 4219 
Q 1534 4219 1204 4116 
Q 875 4013 500 3803 
L 500 4441 
Q 881 4594 1212 4672 
Q 1544 4750 1819 4750 
Q 2544 4750 2975 4387 
Q 3406 4025 3406 3419 
Q 3406 3131 3298 2873 
Q 3191 2616 2906 2266 
Q 2828 2175 2409 1742 
Q 1991 1309 1228 531 
z
" transform="scale(0.015625)"/>
       </defs>
       <use xlink:href="#DejaVuSans-31"/>
       <use xlink:href="#DejaVuSans-32" x="63.623047"/>
       <use xlink:href="#DejaVuSans-35" x="127.246094"/>
      </g>
     </g>
    </g>
    <g id="xtick_5">
     <g id="line2d_5">
      <g>
       <use xlink:href="#mcbae42f9c9" x="243.620408" y="246.04" style="stroke: #000000; stroke-width: 0.8"/>
      </g>
     </g>
     <g id="text_5">
      <!-- 150 -->
      <g transform="translate(234.076658 260.638438)scale(0.1 -0.1)">
       <use xlink:href="#DejaVuSans-31"/>
       <use xlink:href="#DejaVuSans-35" x="63.623047"/>
       <use xlink:href="#DejaVuSans-30" x="127.246094"/>
      </g>
     </g>
    </g>
    <g id="xtick_6">
     <g id="line2d_6">
      <g>
       <use xlink:href="#mcbae42f9c9" x="283.015778" y="246.04" style="stroke: #000000; stroke-width: 0.8"/>
      </g>
     </g>
     <g id="text_6">
      <!-- 175 -->
      <g transform="translate(273.472028 260.638438)scale(0.1 -0.1)">
       <use xlink:href="#DejaVuSans-31"/>
       <use xlink:href="#DejaVuSans-37" x="63.623047"/>
       <use xlink:href="#DejaVuSans-35" x="127.246094"/>
      </g>
     </g>
    </g>
    <g id="xtick_7">
     <g id="line2d_7">
      <g>
       <use xlink:href="#mcbae42f9c9" x="322.411148" y="246.04" style="stroke: #000000; stroke-width: 0.8"/>
      </g>
     </g>
     <g id="text_7">
      <!-- 200 -->
      <g transform="translate(312.867398 260.638438)scale(0.1 -0.1)">
       <use xlink:href="#DejaVuSans-32"/>
       <use xlink:href="#DejaVuSans-30" x="63.623047"/>
       <use xlink:href="#DejaVuSans-30" x="127.246094"/>
      </g>
     </g>
    </g>
    <g id="text_8">
     <!-- GDP (Purchasing Power Standard, % EU average) -->
     <g transform="translate(80.161562 274.316562)scale(0.1 -0.1)">
      <defs>
       <path id="DejaVuSans-47" d="M 3809 666 
L 3809 1919 
L 2778 1919 
L 2778 2438 
L 4434 2438 
L 4434 434 
Q 4069 175 3628 42 
Q 3188 -91 2688 -91 
Q 1594 -91 976 548 
Q 359 1188 359 2328 
Q 359 3472 976 4111 
Q 1594 4750 2688 4750 
Q 3144 4750 3555 4637 
Q 3966 4525 4313 4306 
L 4313 3634 
Q 3963 3931 3569 4081 
Q 3175 4231 2741 4231 
Q 1884 4231 1454 3753 
Q 1025 3275 1025 2328 
Q 1025 1384 1454 906 
Q 1884 428 2741 428 
Q 3075 428 3337 486 
Q 3600 544 3809 666 
z
" transform="scale(0.015625)"/>
       <path id="DejaVuSans-44" d="M 1259 4147 
L 1259 519 
L 2022 519 
Q 2988 519 3436 956 
Q 3884 1394 3884 2338 
Q 3884 3275 3436 3711 
Q 2988 4147 2022 4147 
L 1259 4147 
z
M 628 4666 
L 1925 4666 
Q 3281 4666 3915 4102 
Q 4550 3538 4550 2338 
Q 4550 1131 3912 565 
Q 3275 0 1925 0 
L 628 0 
L 628 4666 
z
" transform="scale(0.015625)"/>
       <path id="DejaVuSans-50" d="M 1259 4147 
L 1259 2394 
L 2053 2394 
Q 2494 2394 2734 2622 
Q 2975 2850 2975 3272 
Q 2975 3691 2734 3919 
Q 2494 4147 2053 4147 
L 1259 4147 
z
M 628 4666 
L 2053 4666 
Q 2838 4666 3239 4311 
Q 3641 3956 3641 3272 
Q 3641 2581 3239 2228 
Q 2838 1875 2053 1875 
L 1259 1875 
L 1259 0 
L 628 0 
L 628 4666 
z
" transform="scale(0.015625)"/>
       <path id="DejaVuSans-20" transform="scale(0.015625)"/>
       <path id="DejaVuSans-28" d="M 1984 4856 
Q 1566 4138 1362 3434 
Q 1159 2731 1159 2009 
Q 1159 1288 1364 580 
Q 1569 -128 1984 -844 
L 1484 -844 
Q 1016 -109 783 600 
Q 550 1309 550 2009 
Q 550 2706 781 3412 
Q 1013 4119 1484 4856 
L 1984 4856 
z
" transform="scale(0.015625)"/>
       <path id="DejaVuSans-75" d="M 544 1381 
L 544 3500 
L 1119 3500 
L 1119 1403 
Q 1119 906 1312 657 
Q 1506 409 1894 409 
Q 2359 409 2629 706 
Q 2900 1003 2900 1516 
L 2900 3500 
L 3475 3500 
L 3475 0 
L 2900 0 
L 2900 538 
Q 2691 219 2414 64 
Q 2138 -91 1772 -91 
Q 1169 -91 856 284 
Q 544 659 544 1381 
z
M 1991 3584 
L 1991 3584 
z
" transform="scale(0.015625)"/>
       <path id="DejaVuSans-72" d="M 2631 2963 
Q 2534 3019 2420 3045 
Q 2306 3072 2169 3072 
Q 1681 3072 1420 2755 
Q 1159 2438 1159 1844 
L 1159 0 
L 581 0 
L 581 3500 
L 1159 3500 
L 1159 2956 
Q 1341 3275 1631 3429 
Q 1922 3584 2338 3584 
Q 2397 3584 2469 3576 
Q 2541 3569 2628 3553 
L 2631 2963 
z
" transform="scale(0.015625)"/>
       <path id="DejaVuSans-63" d="M 3122 3366 
L 3122 2828 
Q 2878 2963 2633 3030 
Q 2388 3097 2138 3097 
Q 1578 3097 1268 2742 
Q 959 2388 959 1747 
Q 959 1106 1268 751 
Q 1578 397 2138 397 
Q 2388 397 2633 464 
Q 2878 531 3122 666 
L 3122 134 
Q 2881 22 2623 -34 
Q 2366 -91 2075 -91 
Q 1284 -91 818 406 
Q 353 903 353 1747 
Q 353 2603 823 3093 
Q 1294 3584 2113 3584 
Q 2378 3584 2631 3529 
Q 2884 3475 3122 3366 
z
" transform="scale(0.015625)"/>
       <path id="DejaVuSans-68" d="M 3513 2113 
L 3513 0 
L 2938 0 
L 2938 2094 
Q 2938 2591 2744 2837 
Q 2550 3084 2163 3084 
Q 1697 3084 1428 2787 
Q 1159 2491 1159 1978 
L 1159 0 
L 581 0 
L 581 4863 
L 1159 4863 
L 1159 2956 
Q 1366 3272 1645 3428 
Q 1925 3584 2291 3584 
Q 2894 3584 3203 3211 
Q 3513 2838 3513 2113 
z
" transform="scale(0.015625)"/>
       <path id="DejaVuSans-61" d="M 2194 1759 
Q 1497 1759 1228 1600 
Q 959 1441 959 1056 
Q 959 750 1161 570 
Q 1363 391 1709 391 
Q 2188 391 2477 730 
Q 2766 1069 2766 1631 
L 2766 1759 
L 2194 1759 
z
M 3341 1997 
L 3341 0 
L 2766 0 
L 2766 531 
Q 2569 213 2275 61 
Q 1981 -91 1556 -91 
Q 1019 -91 701 211 
Q 384 513 384 1019 
Q 384 1609 779 1909 
Q 1175 2209 1959 2209 
L 2766 2209 
L 2766 2266 
Q 2766 2663 2505 2880 
Q 2244 3097 1772 3097 
Q 1472 3097 1187 3025 
Q 903 2953 641 2809 
L 641 3341 
Q 956 3463 1253 3523 
Q 1550 3584 1831 3584 
Q 2591 3584 2966 3190 
Q 3341 2797 3341 1997 
z
" transform="scale(0.015625)"/>
       <path id="DejaVuSans-73" d="M 2834 3397 
L 2834 2853 
Q 2591 2978 2328 3040 
Q 2066 3103 1784 3103 
Q 1356 3103 1142 2972 
Q 928 2841 928 2578 
Q 928 2378 1081 2264 
Q 1234 2150 1697 2047 
L 1894 2003 
Q 2506 1872 2764 1633 
Q 3022 1394 3022 966 
Q 3022 478 2636 193 
Q 2250 -91 1575 -91 
Q 1294 -91 989 -36 
Q 684 19 347 128 
L 347 722 
Q 666 556 975 473 
Q 1284 391 1588 391 
Q 1994 391 2212 530 
Q 2431 669 2431 922 
Q 2431 1156 2273 1281 
Q 2116 1406 1581 1522 
L 1381 1569 
Q 847 1681 609 1914 
Q 372 2147 372 2553 
Q 372 3047 722 3315 
Q 1072 3584 1716 3584 
Q 2034 3584 2315 3537 
Q 2597 3491 2834 3397 
z
" transform="scale(0.015625)"/>
       <path id="DejaVuSans-69" d="M 603 3500 
L 1178 3500 
L 1178 0 
L 603 0 
L 603 3500 
z
M 603 4863 
L 1178 4863 
L 1178 4134 
L 603 4134 
L 603 4863 
z
" transform="scale(0.015625)"/>
       <path id="DejaVuSans-6e" d="M 3513 2113 
L 3513 0 
L 2938 0 
L 2938 2094 
Q 2938 2591 2744 2837 
Q 2550 3084 2163 3084 
Q 1697 3084 1428 2787 
Q 1159 2491 1159 1978 
L 1159 0 
L 581 0 
L 581 3500 
L 1159 3500 
L 1159 2956 
Q 1366 3272 1645 3428 
Q 1925 3584 2291 3584 
Q 2894 3584 3203 3211 
Q 3513 2838 3513 2113 
z
" transform="scale(0.015625)"/>
       <path id="DejaVuSans-67" d="M 2906 1791 
Q 2906 2416 2648 2759 
Q 2391 3103 1925 3103 
Q 1463 3103 1205 2759 
Q 947 2416 947 1791 
Q 947 1169 1205 825 
Q 1463 481 1925 481 
Q 2391 481 2648 825 
Q 2906 1169 2906 1791 
z
M 3481 434 
Q 3481 -459 3084 -895 
Q 2688 -1331 1869 -1331 
Q 1566 -1331 1297 -1286 
Q 1028 -1241 775 -1147 
L 775 -588 
Q 1028 -725 1275 -790 
Q 1522 -856 1778 -856 
Q 2344 -856 2625 -561 
Q 2906 -266 2906 331 
L 2906 616 
Q 2728 306 2450 153 
Q 2172 0 1784 0 
Q 1141 0 747 490 
Q 353 981 353 1791 
Q 353 2603 747 3093 
Q 1141 3584 1784 3584 
Q 2172 3584 2450 3431 
Q 2728 3278 2906 2969 
L 2906 3500 
L 3481 3500 
L 3481 434 
z
" transform="scale(0.015625)"/>
       <path id="DejaVuSans-6f" d="M 1959 3097 
Q 1497 3097 1228 2736 
Q 959 2375 959 1747 
Q 959 1119 1226 758 
Q 1494 397 1959 397 
Q 2419 397 2687 759 
Q 2956 1122 2956 1747 
Q 2956 2369 2687 2733 
Q 2419 3097 1959 3097 
z
M 1959 3584 
Q 2709 3584 3137 3096 
Q 3566 2609 3566 1747 
Q 3566 888 3137 398 
Q 2709 -91 1959 -91 
Q 1206 -91 779 398 
Q 353 888 353 1747 
Q 353 2609 779 3096 
Q 1206 3584 1959 3584 
z
" transform="scale(0.015625)"/>
       <path id="DejaVuSans-77" d="M 269 3500 
L 844 3500 
L 1563 769 
L 2278 3500 
L 2956 3500 
L 3675 769 
L 4391 3500 
L 4966 3500 
L 4050 0 
L 3372 0 
L 2619 2869 
L 1863 0 
L 1184 0 
L 269 3500 
z
" transform="scale(0.015625)"/>
       <path id="DejaVuSans-65" d="M 3597 1894 
L 3597 1613 
L 953 1613 
Q 991 1019 1311 708 
Q 1631 397 2203 397 
Q 2534 397 2845 478 
Q 3156 559 3463 722 
L 3463 178 
Q 3153 47 2828 -22 
Q 2503 -91 2169 -91 
Q 1331 -91 842 396 
Q 353 884 353 1716 
Q 353 2575 817 3079 
Q 1281 3584 2069 3584 
Q 2775 3584 3186 3129 
Q 3597 2675 3597 1894 
z
M 3022 2063 
Q 3016 2534 2758 2815 
Q 2500 3097 2075 3097 
Q 1594 3097 1305 2825 
Q 1016 2553 972 2059 
L 3022 2063 
z
" transform="scale(0.015625)"/>
       <path id="DejaVuSans-53" d="M 3425 4513 
L 3425 3897 
Q 3066 4069 2747 4153 
Q 2428 4238 2131 4238 
Q 1616 4238 1336 4038 
Q 1056 3838 1056 3469 
Q 1056 3159 1242 3001 
Q 1428 2844 1947 2747 
L 2328 2669 
Q 3034 2534 3370 2195 
Q 3706 1856 3706 1288 
Q 3706 609 3251 259 
Q 2797 -91 1919 -91 
Q 1588 -91 1214 -16 
Q 841 59 441 206 
L 441 856 
Q 825 641 1194 531 
Q 1563 422 1919 422 
Q 2459 422 2753 634 
Q 3047 847 3047 1241 
Q 3047 1584 2836 1778 
Q 2625 1972 2144 2069 
L 1759 2144 
Q 1053 2284 737 2584 
Q 422 2884 422 3419 
Q 422 4038 858 4394 
Q 1294 4750 2059 4750 
Q 2388 4750 2728 4690 
Q 3069 4631 3425 4513 
z
" transform="scale(0.015625)"/>
       <path id="DejaVuSans-74" d="M 1172 4494 
L 1172 3500 
L 2356 3500 
L 2356 3053 
L 1172 3053 
L 1172 1153 
Q 1172 725 1289 603 
Q 1406 481 1766 481 
L 2356 481 
L 2356 0 
L 1766 0 
Q 1100 0 847 248 
Q 594 497 594 1153 
L 594 3053 
L 172 3053 
L 172 3500 
L 594 3500 
L 594 4494 
L 1172 4494 
z
" transform="scale(0.015625)"/>
       <path id="DejaVuSans-64" d="M 2906 2969 
L 2906 4863 
L 3481 4863 
L 3481 0 
L 2906 0 
L 2906 525 
Q 2725 213 2448 61 
Q 2172 -91 1784 -91 
Q 1150 -91 751 415 
Q 353 922 353 1747 
Q 353 2572 751 3078 
Q 1150 3584 1784 3584 
Q 2172 3584 2448 3432 
Q 2725 3281 2906 2969 
z
M 947 1747 
Q 947 1113 1208 752 
Q 1469 391 1925 391 
Q 2381 391 2643 752 
Q 2906 1113 2906 1747 
Q 2906 2381 2643 2742 
Q 2381 3103 1925 3103 
Q 1469 3103 1208 2742 
Q 947 2381 947 1747 
z
" transform="scale(0.015625)"/>
       <path id="DejaVuSans-2c" d="M 750 794 
L 1409 794 
L 1409 256 
L 897 -744 
L 494 -744 
L 750 256 
L 750 794 
z
" transform="scale(0.015625)"/>
       <path id="DejaVuSans-25" d="M 4653 2053 
Q 4381 2053 4226 1822 
Q 4072 1591 4072 1178 
Q 4072 772 4226 539 
Q 4381 306 4653 306 
Q 4919 306 5073 539 
Q 5228 772 5228 1178 
Q 5228 1588 5073 1820 
Q 4919 2053 4653 2053 
z
M 4653 2450 
Q 5147 2450 5437 2106 
Q 5728 1763 5728 1178 
Q 5728 594 5436 251 
Q 5144 -91 4653 -91 
Q 4153 -91 3862 251 
Q 3572 594 3572 1178 
Q 3572 1766 3864 2108 
Q 4156 2450 4653 2450 
z
M 1428 4353 
Q 1159 4353 1004 4120 
Q 850 3888 850 3481 
Q 850 3069 1003 2837 
Q 1156 2606 1428 2606 
Q 1700 2606 1854 2837 
Q 2009 3069 2009 3481 
Q 2009 3884 1853 4118 
Q 1697 4353 1428 4353 
z
M 4250 4750 
L 4750 4750 
L 1831 -91 
L 1331 -91 
L 4250 4750 
z
M 1428 4750 
Q 1922 4750 2215 4408 
Q 2509 4066 2509 3481 
Q 2509 2891 2217 2550 
Q 1925 2209 1428 2209 
Q 931 2209 642 2551 
Q 353 2894 353 3481 
Q 353 4063 643 4406 
Q 934 4750 1428 4750 
z
" transform="scale(0.015625)"/>
       <path id="DejaVuSans-45" d="M 628 4666 
L 3578 4666 
L 3578 4134 
L 1259 4134 
L 1259 2753 
L 3481 2753 
L 3481 2222 
L 1259 2222 
L 1259 531 
L 3634 531 
L 3634 0 
L 628 0 
L 628 4666 
z
" transform="scale(0.015625)"/>
       <path id="DejaVuSans-55" d="M 556 4666 
L 1191 4666 
L 1191 1831 
Q 1191 1081 1462 751 
Q 1734 422 2344 422 
Q 2950 422 3222 751 
Q 3494 1081 3494 1831 
L 3494 4666 
L 4128 4666 
L 4128 1753 
Q 4128 841 3676 375 
Q 3225 -91 2344 -91 
Q 1459 -91 1007 375 
Q 556 841 556 1753 
L 556 4666 
z
" transform="scale(0.015625)"/>
       <path id="DejaVuSans-76" d="M 191 3500 
L 800 3500 
L 1894 563 
L 2988 3500 
L 3597 3500 
L 2284 0 
L 1503 0 
L 191 3500 
z
" transform="scale(0.015625)"/>
       <path id="DejaVuSans-29" d="M 513 4856 
L 1013 4856 
Q 1481 4119 1714 3412 
Q 1947 2706 1947 2009 
Q 1947 1309 1714 600 
Q 1481 -109 1013 -844 
L 513 -844 
Q 928 -128 1133 580 
Q 1338 1288 1338 2009 
Q 1338 2731 1133 3434 
Q 928 4138 513 4856 
z
" transform="scale(0.015625)"/>
      </defs>
      <use xlink:href="#DejaVuSans-47"/>
      <use xlink:href="#DejaVuSans-44" x="77.490234"/>
      <use xlink:href="#DejaVuSans-50" x="154.492188"/>
      <use xlink:href="#DejaVuSans-20" x="214.794922"/>
      <use xlink:href="#DejaVuSans-28" x="246.582031"/>
      <use xlink:href="#DejaVuSans-50" x="285.595703"/>
      <use xlink:href="#DejaVuSans-75" x="344.148438"/>
      <use xlink:href="#DejaVuSans-72" x="407.527344"/>
      <use xlink:href="#DejaVuSans-63" x="446.390625"/>
      <use xlink:href="#DejaVuSans-68" x="501.371094"/>
      <use xlink:href="#DejaVuSans-61" x="564.75"/>
      <use xlink:href="#DejaVuSans-73" x="626.029297"/>
      <use xlink:href="#DejaVuSans-69" x="678.128906"/>
      <use xlink:href="#DejaVuSans-6e" x="705.912109"/>
      <use xlink:href="#DejaVuSans-67" x="769.291016"/>
      <use xlink:href="#DejaVuSans-20" x="832.767578"/>
      <use xlink:href="#DejaVuSans-50" x="864.554688"/>
      <use xlink:href="#DejaVuSans-6f" x="921.232422"/>
      <use xlink:href="#DejaVuSans-77" x="982.414062"/>
      <use xlink:href="#DejaVuSans-65" x="1064.201172"/>
      <use xlink:href="#DejaVuSans-72" x="1125.724609"/>
      <use xlink:href="#DejaVuSans-20" x="1166.837891"/>
      <use xlink:href="#DejaVuSans-53" x="1198.625"/>
      <use xlink:href="#DejaVuSans-74" x="1262.101562"/>
      <use xlink:href="#DejaVuSans-61" x="1301.310547"/>
      <use xlink:href="#DejaVuSans-6e" x="1362.589844"/>
      <use xlink:href="#DejaVuSans-64" x="1425.96875"/>
      <use xlink:href="#DejaVuSans-61" x="1489.445312"/>
      <use xlink:href="#DejaVuSans-72" x="1550.724609"/>
      <use xlink:href="#DejaVuSans-64" x="1590.087891"/>
      <use xlink:href="#DejaVuSans-2c" x="1653.564453"/>
      <use xlink:href="#DejaVuSans-20" x="1685.351562"/>
      <use xlink:href="#DejaVuSans-25" x="1717.138672"/>
      <use xlink:href="#DejaVuSans-20" x="1812.158203"/>
      <use xlink:href="#DejaVuSans-45" x="1843.945312"/>
      <use xlink:href="#DejaVuSans-55" x="1907.128906"/>
      <use xlink:href="#DejaVuSans-20" x="1980.322266"/>
      <use xlink:href="#DejaVuSans-61" x="2012.109375"/>
      <use xlink:href="#DejaVuSans-76" x="2073.388672"/>
      <use xlink:href="#DejaVuSans-65" x="2132.568359"/>
      <use xlink:href="#DejaVuSans-72" x="2194.091797"/>
      <use xlink:href="#DejaVuSans-61" x="2235.205078"/>
      <use xlink:href="#DejaVuSans-67" x="2296.484375"/>
      <use xlink:href="#DejaVuSans-65" x="2359.960938"/>
      <use xlink:href="#DejaVuSans-29" x="2421.484375"/>
     </g>
    </g>
   </g>
   <g id="matplotlib.axis_2">
    <g id="ytick_1">
     <g id="line2d_8">
      <defs>
       <path id="m96c9291c18" d="M 0 0 
L -3.5 0 
" style="stroke: #000000; stroke-width: 0.8"/>
      </defs>
      <g>
       <use xlink:href="#m96c9291c18" x="57.17" y="246.04" style="stroke: #000000; stroke-width: 0.8"/>
      </g>
     </g>
     <g id="text_9">
      <!-- 0 -->
      <g transform="translate(43.8075 249.839219)scale(0.1 -0.1)">
       <use xlink:href="#DejaVuSans-30"/>
      </g>
     </g>
    </g>
    <g id="ytick_2">
     <g id="line2d_9">
      <g>
       <use xlink:href="#m96c9291c18" x="57.17" y="199.784" style="stroke: #000000; stroke-width: 0.8"/>
      </g>
     </g>
     <g id="text_10">
      <!-- 500 -->
      <g transform="translate(31.0825 203.583219)scale(0.1 -0.1)">
       <use xlink:href="#DejaVuSans-35"/>
       <use xlink:href="#DejaVuSans-30" x="63.623047"/>
       <use xlink:href="#DejaVuSans-30" x="127.246094"/>
      </g>
     </g>
    </g>
    <g id="ytick_3">
     <g id="line2d_10">
      <g>
       <use xlink:href="#m96c9291c18" x="57.17" y="153.528" style="stroke: #000000; stroke-width: 0.8"/>
      </g>
     </g>
     <g id="text_11">
      <!-- 1000 -->
      <g transform="translate(24.72 157.327219)scale(0.1 -0.1)">
       <use xlink:href="#DejaVuSans-31"/>
       <use xlink:href="#DejaVuSans-30" x="63.623047"/>
       <use xlink:href="#DejaVuSans-30" x="127.246094"/>
       <use xlink:href="#DejaVuSans-30" x="190.869141"/>
      </g>
     </g>
    </g>
    <g id="ytick_4">
     <g id="line2d_11">
      <g>
       <use xlink:href="#m96c9291c18" x="57.17" y="107.272" style="stroke: #000000; stroke-width: 0.8"/>
      </g>
     </g>
     <g id="text_12">
      <!-- 1500 -->
      <g transform="translate(24.72 111.071219)scale(0.1 -0.1)">
       <use xlink:href="#DejaVuSans-31"/>
       <use xlink:href="#DejaVuSans-35" x="63.623047"/>
       <use xlink:href="#DejaVuSans-30" x="127.246094"/>
       <use xlink:href="#DejaVuSans-30" x="190.869141"/>
      </g>
     </g>
    </g>
    <g id="ytick_5">
     <g id="line2d_12">
      <g>
       <use xlink:href="#m96c9291c18" x="57.17" y="61.016" style="stroke: #000000; stroke-width: 0.8"/>
      </g>
     </g>
     <g id="text_13">
      <!-- 2000 -->
      <g transform="translate(24.72 64.815219)scale(0.1 -0.1)">
       <use xlink:href="#DejaVuSans-32"/>
       <use xlink:href="#DejaVuSans-30" x="63.623047"/>
       <use xlink:href="#DejaVuSans-30" x="127.246094"/>
       <use xlink:href="#DejaVuSans-30" x="190.869141"/>
      </g>
     </g>
    </g>
    <g id="ytick_6">
     <g id="line2d_13">
      <g>
       <use xlink:href="#m96c9291c18" x="57.17" y="14.76" style="stroke: #000000; stroke-width: 0.8"/>
      </g>
     </g>
     <g id="text_14">
      <!-- 2500 -->
      <g transform="translate(24.72 18.559219)scale(0.1 -0.1)">
       <use xlink:href="#DejaVuSans-32"/>
       <use xlink:href="#DejaVuSans-35" x="63.623047"/>
       <use xlink:href="#DejaVuSans-30" x="127.246094"/>
       <use xlink:href="#DejaVuSans-30" x="190.869141"/>
      </g>
     </g>
    </g>
    <g id="text_15">
     <!-- Number of Robberies -->
     <g transform="translate(18.640312 183.342969)rotate(-90)scale(0.1 -0.1)">
      <defs>
       <path id="DejaVuSans-4e" d="M 628 4666 
L 1478 4666 
L 3547 763 
L 3547 4666 
L 4159 4666 
L 4159 0 
L 3309 0 
L 1241 3903 
L 1241 0 
L 628 0 
L 628 4666 
z
" transform="scale(0.015625)"/>
       <path id="DejaVuSans-6d" d="M 3328 2828 
Q 3544 3216 3844 3400 
Q 4144 3584 4550 3584 
Q 5097 3584 5394 3201 
Q 5691 2819 5691 2113 
L 5691 0 
L 5113 0 
L 5113 2094 
Q 5113 2597 4934 2840 
Q 4756 3084 4391 3084 
Q 3944 3084 3684 2787 
Q 3425 2491 3425 1978 
L 3425 0 
L 2847 0 
L 2847 2094 
Q 2847 2600 2669 2842 
Q 2491 3084 2119 3084 
Q 1678 3084 1418 2786 
Q 1159 2488 1159 1978 
L 1159 0 
L 581 0 
L 581 3500 
L 1159 3500 
L 1159 2956 
Q 1356 3278 1631 3431 
Q 1906 3584 2284 3584 
Q 2666 3584 2933 3390 
Q 3200 3197 3328 2828 
z
" transform="scale(0.015625)"/>
       <path id="DejaVuSans-62" d="M 3116 1747 
Q 3116 2381 2855 2742 
Q 2594 3103 2138 3103 
Q 1681 3103 1420 2742 
Q 1159 2381 1159 1747 
Q 1159 1113 1420 752 
Q 1681 391 2138 391 
Q 2594 391 2855 752 
Q 3116 1113 3116 1747 
z
M 1159 2969 
Q 1341 3281 1617 3432 
Q 1894 3584 2278 3584 
Q 2916 3584 3314 3078 
Q 3713 2572 3713 1747 
Q 3713 922 3314 415 
Q 2916 -91 2278 -91 
Q 1894 -91 1617 61 
Q 1341 213 1159 525 
L 1159 0 
L 581 0 
L 581 4863 
L 1159 4863 
L 1159 2969 
z
" transform="scale(0.015625)"/>
       <path id="DejaVuSans-66" d="M 2375 4863 
L 2375 4384 
L 1825 4384 
Q 1516 4384 1395 4259 
Q 1275 4134 1275 3809 
L 1275 3500 
L 2222 3500 
L 2222 3053 
L 1275 3053 
L 1275 0 
L 697 0 
L 697 3053 
L 147 3053 
L 147 3500 
L 697 3500 
L 697 3744 
Q 697 4328 969 4595 
Q 1241 4863 1831 4863 
L 2375 4863 
z
" transform="scale(0.015625)"/>
       <path id="DejaVuSans-52" d="M 2841 2188 
Q 3044 2119 3236 1894 
Q 3428 1669 3622 1275 
L 4263 0 
L 3584 0 
L 2988 1197 
Q 2756 1666 2539 1819 
Q 2322 1972 1947 1972 
L 1259 1972 
L 1259 0 
L 628 0 
L 628 4666 
L 2053 4666 
Q 2853 4666 3247 4331 
Q 3641 3997 3641 3322 
Q 3641 2881 3436 2590 
Q 3231 2300 2841 2188 
z
M 1259 4147 
L 1259 2491 
L 2053 2491 
Q 2509 2491 2742 2702 
Q 2975 2913 2975 3322 
Q 2975 3731 2742 3939 
Q 2509 4147 2053 4147 
L 1259 4147 
z
" transform="scale(0.015625)"/>
      </defs>
      <use xlink:href="#DejaVuSans-4e"/>
      <use xlink:href="#DejaVuSans-75" x="74.804688"/>
      <use xlink:href="#DejaVuSans-6d" x="138.183594"/>
      <use xlink:href="#DejaVuSans-62" x="235.595703"/>
      <use xlink:href="#DejaVuSans-65" x="299.072266"/>
      <use xlink:href="#DejaVuSans-72" x="360.595703"/>
      <use xlink:href="#DejaVuSans-20" x="401.708984"/>
      <use xlink:href="#DejaVuSans-6f" x="433.496094"/>
      <use xlink:href="#DejaVuSans-66" x="494.677734"/>
      <use xlink:href="#DejaVuSans-20" x="529.882812"/>
      <use xlink:href="#DejaVuSans-52" x="561.669922"/>
      <use xlink:href="#DejaVuSans-6f" x="626.652344"/>
      <use xlink:href="#DejaVuSans-62" x="687.833984"/>
      <use xlink:href="#DejaVuSans-62" x="751.310547"/>
      <use xlink:href="#DejaVuSans-65" x="814.787109"/>
      <use xlink:href="#DejaVuSans-72" x="876.310547"/>
      <use xlink:href="#DejaVuSans-69" x="917.423828"/>
      <use xlink:href="#DejaVuSans-65" x="945.207031"/>
      <use xlink:href="#DejaVuSans-73" x="1006.730469"/>
     </g>
    </g>
   </g>
   <g id="line2d_14">
    <path d="M 57.17 267.766914 
L 63.129796 267.481731 
L 69.089592 267.196548 
L 75.049388 266.911365 
L 81.009184 266.626182 
L 86.96898 266.340999 
L 92.928776 266.055816 
L 98.888571 265.770633 
L 104.848367 265.48545 
L 110.808163 265.200267 
L 116.767959 264.915084 
L 122.727755 264.629901 
L 128.687551 264.344718 
L 134.647347 264.059535 
L 140.607143 263.774352 
L 146.566939 263.489169 
L 152.526735 263.203986 
L 158.486531 262.918803 
L 164.446327 262.63362 
L 170.406122 262.348437 
L 176.365918 262.063254 
L 182.325714 261.778071 
L 188.28551 261.492888 
L 194.245306 261.207705 
L 200.205102 260.922522 
L 206.164898 260.637339 
L 212.124694 260.352156 
L 218.08449 260.066973 
L 224.044286 259.78179 
L 230.004082 259.496607 
L 235.963878 259.211424 
L 241.923673 258.926241 
L 247.883469 258.641058 
L 253.843265 258.355875 
L 259.803061 258.070692 
L 265.762857 257.785509 
L 271.722653 257.500326 
L 277.682449 257.215143 
L 283.642245 256.92996 
L 289.602041 256.644777 
L 295.561837 256.359594 
L 301.521633 256.074411 
L 307.481429 255.789228 
L 313.441224 255.504046 
L 319.40102 255.218863 
L 325.360816 254.93368 
L 331.320612 254.648497 
L 337.280408 254.363314 
L 343.240204 254.078131 
L 349.2 253.792948 
" clip-path="url(#p7c37b41a06)" style="fill: none; stroke: #d70000; stroke-width: 1.5; stroke-linecap: square"/>
   </g>
   <g id="line2d_15">
    <path d="M 57.17 235.330059 
L 63.129796 237.586801 
L 69.089592 239.843543 
L 75.049388 242.100285 
L 81.009184 244.357027 
L 86.96898 246.613769 
L 92.928776 248.870511 
L 98.888571 251.127253 
L 104.848367 253.383995 
L 110.808163 255.640737 
L 116.767959 257.89748 
L 122.727755 260.154222 
L 128.687551 262.410964 
L 134.647347 264.667706 
L 140.607143 266.924448 
L 146.566939 269.18119 
L 152.526735 271.437932 
L 158.486531 273.694674 
L 164.446327 275.951416 
L 170.406122 278.208158 
L 176.365918 280.4649 
L 182.325714 282.721642 
L 188.28551 284.978384 
L 194.245306 287.235126 
L 198.906135 289 
" clip-path="url(#p7c37b41a06)" style="fill: none; stroke: #8c3cff; stroke-width: 1.5; stroke-linecap: square"/>
   </g>
   <g id="line2d_16">
    <path d="M 57.17 218.12707 
L 63.129796 217.32922 
L 69.089592 216.531371 
L 75.049388 215.733522 
L 81.009184 214.935673 
L 86.96898 214.137824 
L 92.928776 213.339975 
L 98.888571 212.542126 
L 104.848367 211.744276 
L 110.808163 210.946427 
L 116.767959 210.148578 
L 122.727755 209.350729 
L 128.687551 208.55288 
L 134.647347 207.755031 
L 140.607143 206.957182 
L 146.566939 206.159332 
L 152.526735 205.361483 
L 158.486531 204.563634 
L 164.446327 203.765785 
L 170.406122 202.967936 
L 176.365918 202.170087 
L 182.325714 201.372237 
L 188.28551 200.574388 
L 194.245306 199.776539 
L 200.205102 198.97869 
L 206.164898 198.180841 
L 212.124694 197.382992 
L 218.08449 196.585143 
L 224.044286 195.787293 
L 230.004082 194.989444 
L 235.963878 194.191595 
L 241.923673 193.393746 
L 247.883469 192.595897 
L 253.843265 191.798048 
L 259.803061 191.000199 
L 265.762857 190.202349 
L 271.722653 189.4045 
L 277.682449 188.606651 
L 283.642245 187.808802 
L 289.602041 187.010953 
L 295.561837 186.213104 
L 301.521633 185.415255 
L 307.481429 184.617405 
L 313.441224 183.819556 
L 319.40102 183.021707 
L 325.360816 182.223858 
L 331.320612 181.426009 
L 337.280408 180.62816 
L 343.240204 179.830311 
L 349.2 179.032461 
" clip-path="url(#p7c37b41a06)" style="fill: none; stroke: #028800; stroke-width: 1.5; stroke-linecap: square"/>
   </g>
   <g id="line2d_17">
    <path d="M 57.17 238.828382 
L 63.129796 238.421217 
L 69.089592 238.014051 
L 75.049388 237.606886 
L 81.009184 237.19972 
L 86.96898 236.792555 
L 92.928776 236.38539 
L 98.888571 235.978224 
L 104.848367 235.571059 
L 110.808163 235.163893 
L 116.767959 234.756728 
L 122.727755 234.349563 
L 128.687551 233.942397 
L 134.647347 233.535232 
L 140.607143 233.128067 
L 146.566939 232.720901 
L 152.526735 232.313736 
L 158.486531 231.90657 
L 164.446327 231.499405 
L 170.406122 231.09224 
L 176.365918 230.685074 
L 182.325714 230.277909 
L 188.28551 229.870744 
L 194.245306 229.463578 
L 200.205102 229.056413 
L 206.164898 228.649247 
L 212.124694 228.242082 
L 218.08449 227.834917 
L 224.044286 227.427751 
L 230.004082 227.020586 
L 235.963878 226.61342 
L 241.923673 226.206255 
L 247.883469 225.79909 
L 253.843265 225.391924 
L 259.803061 224.984759 
L 265.762857 224.577594 
L 271.722653 224.170428 
L 277.682449 223.763263 
L 283.642245 223.356097 
L 289.602041 222.948932 
L 295.561837 222.541767 
L 301.521633 222.134601 
L 307.481429 221.727436 
L 313.441224 221.32027 
L 319.40102 220.913105 
L 325.360816 220.50594 
L 331.320612 220.098774 
L 337.280408 219.691609 
L 343.240204 219.284444 
L 349.2 218.877278 
" clip-path="url(#p7c37b41a06)" style="fill: none; stroke: #00acc7; stroke-width: 1.5; stroke-linecap: square"/>
   </g>
   <g id="line2d_18">
    <path d="M 57.17 243.459174 
L 63.129796 243.697443 
L 69.089592 243.935713 
L 75.049388 244.173982 
L 81.009184 244.412251 
L 86.96898 244.650521 
L 92.928776 244.88879 
L 98.888571 245.12706 
L 104.848367 245.365329 
L 110.808163 245.603598 
L 116.767959 245.841868 
L 122.727755 246.080137 
L 128.687551 246.318407 
L 134.647347 246.556676 
L 140.607143 246.794945 
L 146.566939 247.033215 
L 152.526735 247.271484 
L 158.486531 247.509753 
L 164.446327 247.748023 
L 170.406122 247.986292 
L 176.365918 248.224562 
L 182.325714 248.462831 
L 188.28551 248.7011 
L 194.245306 248.93937 
L 200.205102 249.177639 
L 206.164898 249.415909 
L 212.124694 249.654178 
L 218.08449 249.892447 
L 224.044286 250.130717 
L 230.004082 250.368986 
L 235.963878 250.607256 
L 241.923673 250.845525 
L 247.883469 251.083794 
L 253.843265 251.322064 
L 259.803061 251.560333 
L 265.762857 251.798602 
L 271.722653 252.036872 
L 277.682449 252.275141 
L 283.642245 252.513411 
L 289.602041 252.75168 
L 295.561837 252.989949 
L 301.521633 253.228219 
L 307.481429 253.466488 
L 313.441224 253.704758 
L 319.40102 253.943027 
L 325.360816 254.181296 
L 331.320612 254.419566 
L 337.280408 254.657835 
L 343.240204 254.896105 
L 349.2 255.134374 
" clip-path="url(#p7c37b41a06)" style="fill: none; stroke: #98ff00; stroke-width: 1.5; stroke-linecap: square"/>
   </g>
   <g id="line2d_19">
    <path d="M 57.17 222.777086 
L 63.129796 223.680415 
L 69.089592 224.583743 
L 75.049388 225.487072 
L 81.009184 226.3904 
L 86.96898 227.293728 
L 92.928776 228.197057 
L 98.888571 229.100385 
L 104.848367 230.003714 
L 110.808163 230.907042 
L 116.767959 231.81037 
L 122.727755 232.713699 
L 128.687551 233.617027 
L 134.647347 234.520356 
L 140.607143 235.423684 
L 146.566939 236.327013 
L 152.526735 237.230341 
L 158.486531 238.133669 
L 164.446327 239.036998 
L 170.406122 239.940326 
L 176.365918 240.843655 
L 182.325714 241.746983 
L 188.28551 242.650312 
L 194.245306 243.55364 
L 200.205102 244.456968 
L 206.164898 245.360297 
L 212.124694 246.263625 
L 218.08449 247.166954 
L 224.044286 248.070282 
L 230.004082 248.97361 
L 235.963878 249.876939 
L 241.923673 250.780267 
L 247.883469 251.683596 
L 253.843265 252.586924 
L 259.803061 253.490253 
L 265.762857 254.393581 
L 271.722653 255.296909 
L 277.682449 256.200238 
L 283.642245 257.103566 
L 289.602041 258.006895 
L 295.561837 258.910223 
L 301.521633 259.813552 
L 307.481429 260.71688 
L 313.441224 261.620208 
L 319.40102 262.523537 
L 325.360816 263.426865 
L 331.320612 264.330194 
L 337.280408 265.233522 
L 343.240204 266.13685 
L 349.2 267.040179 
" clip-path="url(#p7c37b41a06)" style="fill: none; stroke: #ff7fd1; stroke-width: 1.5; stroke-linecap: square"/>
   </g>
   <g id="line2d_20">
    <path d="M 57.17 231.453628 
L 63.129796 231.603691 
L 69.089592 231.753755 
L 75.049388 231.903818 
L 81.009184 232.053882 
L 86.96898 232.203946 
L 92.928776 232.354009 
L 98.888571 232.504073 
L 104.848367 232.654136 
L 110.808163 232.8042 
L 116.767959 232.954263 
L 122.727755 233.104327 
L 128.687551 233.254391 
L 134.647347 233.404454 
L 140.607143 233.554518 
L 146.566939 233.704581 
L 152.526735 233.854645 
L 158.486531 234.004709 
L 164.446327 234.154772 
L 170.406122 234.304836 
L 176.365918 234.454899 
L 182.325714 234.604963 
L 188.28551 234.755027 
L 194.245306 234.90509 
L 200.205102 235.055154 
L 206.164898 235.205217 
L 212.124694 235.355281 
L 218.08449 235.505344 
L 224.044286 235.655408 
L 230.004082 235.805472 
L 235.963878 235.955535 
L 241.923673 236.105599 
L 247.883469 236.255662 
L 253.843265 236.405726 
L 259.803061 236.55579 
L 265.762857 236.705853 
L 271.722653 236.855917 
L 277.682449 237.00598 
L 283.642245 237.156044 
L 289.602041 237.306107 
L 295.561837 237.456171 
L 301.521633 237.606235 
L 307.481429 237.756298 
L 313.441224 237.906362 
L 319.40102 238.056425 
L 325.360816 238.206489 
L 331.320612 238.356553 
L 337.280408 238.506616 
L 343.240204 238.65668 
L 349.2 238.806743 
" clip-path="url(#p7c37b41a06)" style="fill: none; stroke: #6c004f; stroke-width: 1.5; stroke-linecap: square"/>
   </g>
   <g id="line2d_21">
    <path d="M 57.17 221.042829 
L 63.129796 220.756049 
L 69.089592 220.469269 
L 75.049388 220.182489 
L 81.009184 219.895709 
L 86.96898 219.608929 
L 92.928776 219.322149 
L 98.888571 219.035369 
L 104.848367 218.748589 
L 110.808163 218.461809 
L 116.767959 218.175029 
L 122.727755 217.888249 
L 128.687551 217.601469 
L 134.647347 217.314689 
L 140.607143 217.027909 
L 146.566939 216.741129 
L 152.526735 216.454348 
L 158.486531 216.167568 
L 164.446327 215.880788 
L 170.406122 215.594008 
L 176.365918 215.307228 
L 182.325714 215.020448 
L 188.28551 214.733668 
L 194.245306 214.446888 
L 200.205102 214.160108 
L 206.164898 213.873328 
L 212.124694 213.586548 
L 218.08449 213.299768 
L 224.044286 213.012988 
L 230.004082 212.726208 
L 235.963878 212.439428 
L 241.923673 212.152648 
L 247.883469 211.865868 
L 253.843265 211.579088 
L 259.803061 211.292307 
L 265.762857 211.005527 
L 271.722653 210.718747 
L 277.682449 210.431967 
L 283.642245 210.145187 
L 289.602041 209.858407 
L 295.561837 209.571627 
L 301.521633 209.284847 
L 307.481429 208.998067 
L 313.441224 208.711287 
L 319.40102 208.424507 
L 325.360816 208.137727 
L 331.320612 207.850947 
L 337.280408 207.564167 
L 343.240204 207.277387 
L 349.2 206.990607 
" clip-path="url(#p7c37b41a06)" style="fill: none; stroke: #583b00; stroke-width: 1.5; stroke-linecap: square"/>
   </g>
   <g id="line2d_22">
    <path d="M 57.17 199.39241 
L 63.129796 199.388123 
L 69.089592 199.383837 
L 75.049388 199.37955 
L 81.009184 199.375264 
L 86.96898 199.370977 
L 92.928776 199.36669 
L 98.888571 199.362404 
L 104.848367 199.358117 
L 110.808163 199.353831 
L 116.767959 199.349544 
L 122.727755 199.345258 
L 128.687551 199.340971 
L 134.647347 199.336684 
L 140.607143 199.332398 
L 146.566939 199.328111 
L 152.526735 199.323825 
L 158.486531 199.319538 
L 164.446327 199.315252 
L 170.406122 199.310965 
L 176.365918 199.306678 
L 182.325714 199.302392 
L 188.28551 199.298105 
L 194.245306 199.293819 
L 200.205102 199.289532 
L 206.164898 199.285245 
L 212.124694 199.280959 
L 218.08449 199.276672 
L 224.044286 199.272386 
L 230.004082 199.268099 
L 235.963878 199.263813 
L 241.923673 199.259526 
L 247.883469 199.255239 
L 253.843265 199.250953 
L 259.803061 199.246666 
L 265.762857 199.24238 
L 271.722653 199.238093 
L 277.682449 199.233807 
L 283.642245 199.22952 
L 289.602041 199.225233 
L 295.561837 199.220947 
L 301.521633 199.21666 
L 307.481429 199.212374 
L 313.441224 199.208087 
L 319.40102 199.203801 
L 325.360816 199.199514 
L 331.320612 199.195227 
L 337.280408 199.190941 
L 343.240204 199.186654 
L 349.2 199.182368 
" clip-path="url(#p7c37b41a06)" style="fill: none; stroke: #005759; stroke-width: 1.5; stroke-linecap: square"/>
   </g>
   <g id="line2d_23">
    <path d="M 57.17 221.768018 
L 63.129796 221.152585 
L 69.089592 220.537153 
L 75.049388 219.92172 
L 81.009184 219.306288 
L 86.96898 218.690856 
L 92.928776 218.075423 
L 98.888571 217.459991 
L 104.848367 216.844558 
L 110.808163 216.229126 
L 116.767959 215.613693 
L 122.727755 214.998261 
L 128.687551 214.382828 
L 134.647347 213.767396 
L 140.607143 213.151963 
L 146.566939 212.536531 
L 152.526735 211.921098 
L 158.486531 211.305666 
L 164.446327 210.690233 
L 170.406122 210.074801 
L 176.365918 209.459368 
L 182.325714 208.843936 
L 188.28551 208.228503 
L 194.245306 207.613071 
L 200.205102 206.997638 
L 206.164898 206.382206 
L 212.124694 205.766773 
L 218.08449 205.151341 
L 224.044286 204.535908 
L 230.004082 203.920476 
L 235.963878 203.305043 
L 241.923673 202.689611 
L 247.883469 202.074178 
L 253.843265 201.458746 
L 259.803061 200.843313 
L 265.762857 200.227881 
L 271.722653 199.612448 
L 277.682449 198.997016 
L 283.642245 198.381584 
L 289.602041 197.766151 
L 295.561837 197.150719 
L 301.521633 196.535286 
L 307.481429 195.919854 
L 313.441224 195.304421 
L 319.40102 194.688989 
L 325.360816 194.073556 
L 331.320612 193.458124 
L 337.280408 192.842691 
L 343.240204 192.227259 
L 349.2 191.611826 
" clip-path="url(#p7c37b41a06)" style="fill: none; stroke: #0000dd; stroke-width: 1.5; stroke-linecap: square"/>
   </g>
   <g id="line2d_24">
    <path d="M 57.17 238.141597 
L 63.129796 238.058707 
L 69.089592 237.975818 
L 75.049388 237.892928 
L 81.009184 237.810038 
L 86.96898 237.727148 
L 92.928776 237.644258 
L 98.888571 237.561369 
L 104.848367 237.478479 
L 110.808163 237.395589 
L 116.767959 237.312699 
L 122.727755 237.22981 
L 128.687551 237.14692 
L 134.647347 237.06403 
L 140.607143 236.98114 
L 146.566939 236.898251 
L 152.526735 236.815361 
L 158.486531 236.732471 
L 164.446327 236.649581 
L 170.406122 236.566692 
L 176.365918 236.483802 
L 182.325714 236.400912 
L 188.28551 236.318022 
L 194.245306 236.235133 
L 200.205102 236.152243 
L 206.164898 236.069353 
L 212.124694 235.986463 
L 218.08449 235.903574 
L 224.044286 235.820684 
L 230.004082 235.737794 
L 235.963878 235.654904 
L 241.923673 235.572015 
L 247.883469 235.489125 
L 253.843265 235.406235 
L 259.803061 235.323345 
L 265.762857 235.240456 
L 271.722653 235.157566 
L 277.682449 235.074676 
L 283.642245 234.991786 
L 289.602041 234.908897 
L 295.561837 234.826007 
L 301.521633 234.743117 
L 307.481429 234.660227 
L 313.441224 234.577338 
L 319.40102 234.494448 
L 325.360816 234.411558 
L 331.320612 234.328668 
L 337.280408 234.245778 
L 343.240204 234.162889 
L 349.2 234.079999 
" clip-path="url(#p7c37b41a06)" style="fill: none; stroke: #a1756a; stroke-width: 1.5; stroke-linecap: square"/>
   </g>
   <g id="line2d_25">
    <path d="M 57.17 231.673288 
L 63.129796 230.346727 
L 69.089592 229.020167 
L 75.049388 227.693606 
L 81.009184 226.367046 
L 86.96898 225.040485 
L 92.928776 223.713925 
L 98.888571 222.387364 
L 104.848367 221.060803 
L 110.808163 219.734243 
L 116.767959 218.407682 
L 122.727755 217.081122 
L 128.687551 215.754561 
L 134.647347 214.428001 
L 140.607143 213.10144 
L 146.566939 211.774879 
L 152.526735 210.448319 
L 158.486531 209.121758 
L 164.446327 207.795198 
L 170.406122 206.468637 
L 176.365918 205.142077 
L 182.325714 203.815516 
L 188.28551 202.488955 
L 194.245306 201.162395 
L 200.205102 199.835834 
L 206.164898 198.509274 
L 212.124694 197.182713 
L 218.08449 195.856153 
L 224.044286 194.529592 
L 230.004082 193.203031 
L 235.963878 191.876471 
L 241.923673 190.54991 
L 247.883469 189.22335 
L 253.843265 187.896789 
L 259.803061 186.570229 
L 265.762857 185.243668 
L 271.722653 183.917107 
L 277.682449 182.590547 
L 283.642245 181.263986 
L 289.602041 179.937426 
L 295.561837 178.610865 
L 301.521633 177.284305 
L 307.481429 175.957744 
L 313.441224 174.631183 
L 319.40102 173.304623 
L 325.360816 171.978062 
L 331.320612 170.651502 
L 337.280408 169.324941 
L 343.240204 167.998381 
L 349.2 166.67182 
" clip-path="url(#p7c37b41a06)" style="fill: none; stroke: #bcb7ff; stroke-width: 1.5; stroke-linecap: square"/>
   </g>
   <g id="line2d_26">
    <path d="M 57.17 209.998593 
L 63.129796 210.045423 
L 69.089592 210.092253 
L 75.049388 210.139084 
L 81.009184 210.185914 
L 86.96898 210.232744 
L 92.928776 210.279575 
L 98.888571 210.326405 
L 104.848367 210.373235 
L 110.808163 210.420066 
L 116.767959 210.466896 
L 122.727755 210.513726 
L 128.687551 210.560556 
L 134.647347 210.607387 
L 140.607143 210.654217 
L 146.566939 210.701047 
L 152.526735 210.747878 
L 158.486531 210.794708 
L 164.446327 210.841538 
L 170.406122 210.888369 
L 176.365918 210.935199 
L 182.325714 210.982029 
L 188.28551 211.02886 
L 194.245306 211.07569 
L 200.205102 211.12252 
L 206.164898 211.16935 
L 212.124694 211.216181 
L 218.08449 211.263011 
L 224.044286 211.309841 
L 230.004082 211.356672 
L 235.963878 211.403502 
L 241.923673 211.450332 
L 247.883469 211.497163 
L 253.843265 211.543993 
L 259.803061 211.590823 
L 265.762857 211.637654 
L 271.722653 211.684484 
L 277.682449 211.731314 
L 283.642245 211.778144 
L 289.602041 211.824975 
L 295.561837 211.871805 
L 301.521633 211.918635 
L 307.481429 211.965466 
L 313.441224 212.012296 
L 319.40102 212.059126 
L 325.360816 212.105957 
L 331.320612 212.152787 
L 337.280408 212.199617 
L 343.240204 212.246448 
L 349.2 212.293278 
" clip-path="url(#p7c37b41a06)" style="fill: none; stroke: #95b578; stroke-width: 1.5; stroke-linecap: square"/>
   </g>
   <g id="line2d_27">
    <path d="M 57.17 217.962587 
L 63.129796 217.618149 
L 69.089592 217.273711 
L 75.049388 216.929273 
L 81.009184 216.584834 
L 86.96898 216.240396 
L 92.928776 215.895958 
L 98.888571 215.55152 
L 104.848367 215.207082 
L 110.808163 214.862643 
L 116.767959 214.518205 
L 122.727755 214.173767 
L 128.687551 213.829329 
L 134.647347 213.48489 
L 140.607143 213.140452 
L 146.566939 212.796014 
L 152.526735 212.451576 
L 158.486531 212.107138 
L 164.446327 211.762699 
L 170.406122 211.418261 
L 176.365918 211.073823 
L 182.325714 210.729385 
L 188.28551 210.384947 
L 194.245306 210.040508 
L 200.205102 209.69607 
L 206.164898 209.351632 
L 212.124694 209.007194 
L 218.08449 208.662756 
L 224.044286 208.318317 
L 230.004082 207.973879 
L 235.963878 207.629441 
L 241.923673 207.285003 
L 247.883469 206.940564 
L 253.843265 206.596126 
L 259.803061 206.251688 
L 265.762857 205.90725 
L 271.722653 205.562812 
L 277.682449 205.218373 
L 283.642245 204.873935 
L 289.602041 204.529497 
L 295.561837 204.185059 
L 301.521633 203.840621 
L 307.481429 203.496182 
L 313.441224 203.151744 
L 319.40102 202.807306 
L 325.360816 202.462868 
L 331.320612 202.118429 
L 337.280408 201.773991 
L 343.240204 201.429553 
L 349.2 201.085115 
" clip-path="url(#p7c37b41a06)" style="fill: none; stroke: #c004b9; stroke-width: 1.5; stroke-linecap: square"/>
   </g>
   <g id="line2d_28">
    <path d="M 57.17 221.768626 
L 63.129796 221.253182 
L 69.089592 220.737738 
L 75.049388 220.222294 
L 81.009184 219.70685 
L 86.96898 219.191406 
L 92.928776 218.675962 
L 98.888571 218.160518 
L 104.848367 217.645074 
L 110.808163 217.12963 
L 116.767959 216.614186 
L 122.727755 216.098742 
L 128.687551 215.583298 
L 134.647347 215.067854 
L 140.607143 214.55241 
L 146.566939 214.036966 
L 152.526735 213.521522 
L 158.486531 213.006078 
L 164.446327 212.490634 
L 170.406122 211.97519 
L 176.365918 211.459746 
L 182.325714 210.944302 
L 188.28551 210.428858 
L 194.245306 209.913414 
L 200.205102 209.39797 
L 206.164898 208.882526 
L 212.124694 208.367082 
L 218.08449 207.851638 
L 224.044286 207.336194 
L 230.004082 206.82075 
L 235.963878 206.305306 
L 241.923673 205.789862 
L 247.883469 205.274418 
L 253.843265 204.758974 
L 259.803061 204.24353 
L 265.762857 203.728086 
L 271.722653 203.212642 
L 277.682449 202.697198 
L 283.642245 202.181754 
L 289.602041 201.66631 
L 295.561837 201.150866 
L 301.521633 200.635422 
L 307.481429 200.119978 
L 313.441224 199.604534 
L 319.40102 199.08909 
L 325.360816 198.573646 
L 331.320612 198.058202 
L 337.280408 197.542758 
L 343.240204 197.027314 
L 349.2 196.51187 
" clip-path="url(#p7c37b41a06)" style="fill: none; stroke: #790000; stroke-width: 1.5; stroke-linecap: square"/>
   </g>
   <g id="line2d_29">
    <path d="M 57.17 226.107876 
L 63.129796 225.190778 
L 69.089592 224.27368 
L 75.049388 223.356582 
L 81.009184 222.439484 
L 86.96898 221.522386 
L 92.928776 220.605288 
L 98.888571 219.68819 
L 104.848367 218.771092 
L 110.808163 217.853994 
L 116.767959 216.936896 
L 122.727755 216.019798 
L 128.687551 215.1027 
L 134.647347 214.185602 
L 140.607143 213.268504 
L 146.566939 212.351406 
L 152.526735 211.434308 
L 158.486531 210.51721 
L 164.446327 209.600112 
L 170.406122 208.683014 
L 176.365918 207.765916 
L 182.325714 206.848818 
L 188.28551 205.931721 
L 194.245306 205.014623 
L 200.205102 204.097525 
L 206.164898 203.180427 
L 212.124694 202.263329 
L 218.08449 201.346231 
L 224.044286 200.429133 
L 230.004082 199.512035 
L 235.963878 198.594937 
L 241.923673 197.677839 
L 247.883469 196.760741 
L 253.843265 195.843643 
L 259.803061 194.926545 
L 265.762857 194.009447 
L 271.722653 193.092349 
L 277.682449 192.175251 
L 283.642245 191.258153 
L 289.602041 190.341055 
L 295.561837 189.423957 
L 301.521633 188.506859 
L 307.481429 187.589761 
L 313.441224 186.672663 
L 319.40102 185.755565 
L 325.360816 184.838467 
L 331.320612 183.921369 
L 337.280408 183.004271 
L 343.240204 182.087173 
L 349.2 181.170075 
" clip-path="url(#p7c37b41a06)" style="fill: none; stroke: #0774d8; stroke-width: 1.5; stroke-linecap: square"/>
   </g>
   <g id="line2d_30">
    <path d="M 57.17 211.594678 
L 63.129796 210.175722 
L 69.089592 208.756766 
L 75.049388 207.33781 
L 81.009184 205.918854 
L 86.96898 204.499899 
L 92.928776 203.080943 
L 98.888571 201.661987 
L 104.848367 200.243031 
L 110.808163 198.824075 
L 116.767959 197.40512 
L 122.727755 195.986164 
L 128.687551 194.567208 
L 134.647347 193.148252 
L 140.607143 191.729296 
L 146.566939 190.310341 
L 152.526735 188.891385 
L 158.486531 187.472429 
L 164.446327 186.053473 
L 170.406122 184.634518 
L 176.365918 183.215562 
L 182.325714 181.796606 
L 188.28551 180.37765 
L 194.245306 178.958694 
L 200.205102 177.539739 
L 206.164898 176.120783 
L 212.124694 174.701827 
L 218.08449 173.282871 
L 224.044286 171.863915 
L 230.004082 170.44496 
L 235.963878 169.026004 
L 241.923673 167.607048 
L 247.883469 166.188092 
L 253.843265 164.769136 
L 259.803061 163.350181 
L 265.762857 161.931225 
L 271.722653 160.512269 
L 277.682449 159.093313 
L 283.642245 157.674357 
L 289.602041 156.255402 
L 295.561837 154.836446 
L 301.521633 153.41749 
L 307.481429 151.998534 
L 313.441224 150.579578 
L 319.40102 149.160623 
L 325.360816 147.741667 
L 331.320612 146.322711 
L 337.280408 144.903755 
L 343.240204 143.4848 
L 349.2 142.065844 
" clip-path="url(#p7c37b41a06)" style="fill: none; stroke: #fef590; stroke-width: 1.5; stroke-linecap: square"/>
   </g>
   <g id="line2d_31">
    <path d="M 57.17 189.412651 
L 63.129796 188.705597 
L 69.089592 187.998543 
L 75.049388 187.291489 
L 81.009184 186.584435 
L 86.96898 185.877381 
L 92.928776 185.170328 
L 98.888571 184.463274 
L 104.848367 183.75622 
L 110.808163 183.049166 
L 116.767959 182.342112 
L 122.727755 181.635058 
L 128.687551 180.928004 
L 134.647347 180.22095 
L 140.607143 179.513896 
L 146.566939 178.806842 
L 152.526735 178.099788 
L 158.486531 177.392734 
L 164.446327 176.68568 
L 170.406122 175.978626 
L 176.365918 175.271572 
L 182.325714 174.564518 
L 188.28551 173.857464 
L 194.245306 173.15041 
L 200.205102 172.443356 
L 206.164898 171.736302 
L 212.124694 171.029248 
L 218.08449 170.322194 
L 224.044286 169.615141 
L 230.004082 168.908087 
L 235.963878 168.201033 
L 241.923673 167.493979 
L 247.883469 166.786925 
L 253.843265 166.079871 
L 259.803061 165.372817 
L 265.762857 164.665763 
L 271.722653 163.958709 
L 277.682449 163.251655 
L 283.642245 162.544601 
L 289.602041 161.837547 
L 295.561837 161.130493 
L 301.521633 160.423439 
L 307.481429 159.716385 
L 313.441224 159.009331 
L 319.40102 158.302277 
L 325.360816 157.595223 
L 331.320612 156.888169 
L 337.280408 156.181115 
L 343.240204 155.474061 
L 349.2 154.767007 
" clip-path="url(#p7c37b41a06)" style="fill: none; stroke: #8f7a00; stroke-width: 1.5; stroke-linecap: square"/>
   </g>
   <g id="line2d_32">
    <path d="M 57.17 204.201779 
L 63.129796 203.431697 
L 69.089592 202.661614 
L 75.049388 201.891532 
L 81.009184 201.121449 
L 86.96898 200.351367 
L 92.928776 199.581284 
L 98.888571 198.811201 
L 104.848367 198.041119 
L 110.808163 197.271036 
L 116.767959 196.500954 
L 122.727755 195.730871 
L 128.687551 194.960788 
L 134.647347 194.190706 
L 140.607143 193.420623 
L 146.566939 192.650541 
L 152.526735 191.880458 
L 158.486531 191.110376 
L 164.446327 190.340293 
L 170.406122 189.57021 
L 176.365918 188.800128 
L 182.325714 188.030045 
L 188.28551 187.259963 
L 194.245306 186.48988 
L 200.205102 185.719797 
L 206.164898 184.949715 
L 212.124694 184.179632 
L 218.08449 183.40955 
L 224.044286 182.639467 
L 230.004082 181.869385 
L 235.963878 181.099302 
L 241.923673 180.329219 
L 247.883469 179.559137 
L 253.843265 178.789054 
L 259.803061 178.018972 
L 265.762857 177.248889 
L 271.722653 176.478806 
L 277.682449 175.708724 
L 283.642245 174.938641 
L 289.602041 174.168559 
L 295.561837 173.398476 
L 301.521633 172.628394 
L 307.481429 171.858311 
L 313.441224 171.088228 
L 319.40102 170.318146 
L 325.360816 169.548063 
L 331.320612 168.777981 
L 337.280408 168.007898 
L 343.240204 167.237815 
L 349.2 166.467733 
" clip-path="url(#p7c37b41a06)" style="fill: none; stroke: #ff7266; stroke-width: 1.5; stroke-linecap: square"/>
   </g>
   <g id="line2d_33">
    <path d="M 57.17 182.099207 
L 63.129796 182.475704 
L 69.089592 182.852201 
L 75.049388 183.228699 
L 81.009184 183.605196 
L 86.96898 183.981694 
L 92.928776 184.358191 
L 98.888571 184.734688 
L 104.848367 185.111186 
L 110.808163 185.487683 
L 116.767959 185.864181 
L 122.727755 186.240678 
L 128.687551 186.617175 
L 134.647347 186.993673 
L 140.607143 187.37017 
L 146.566939 187.746667 
L 152.526735 188.123165 
L 158.486531 188.499662 
L 164.446327 188.87616 
L 170.406122 189.252657 
L 176.365918 189.629154 
L 182.325714 190.005652 
L 188.28551 190.382149 
L 194.245306 190.758647 
L 200.205102 191.135144 
L 206.164898 191.511641 
L 212.124694 191.888139 
L 218.08449 192.264636 
L 224.044286 192.641134 
L 230.004082 193.017631 
L 235.963878 193.394128 
L 241.923673 193.770626 
L 247.883469 194.147123 
L 253.843265 194.52362 
L 259.803061 194.900118 
L 265.762857 195.276615 
L 271.722653 195.653113 
L 277.682449 196.02961 
L 283.642245 196.406107 
L 289.602041 196.782605 
L 295.561837 197.159102 
L 301.521633 197.5356 
L 307.481429 197.912097 
L 313.441224 198.288594 
L 319.40102 198.665092 
L 325.360816 199.041589 
L 331.320612 199.418086 
L 337.280408 199.794584 
L 343.240204 200.171081 
L 349.2 200.547579 
" clip-path="url(#p7c37b41a06)" style="fill: none; stroke: #eeb9b9; stroke-width: 1.5; stroke-linecap: square"/>
   </g>
   <g id="line2d_34">
    <path d="M 57.17 235.089725 
L 63.129796 234.336022 
L 69.089592 233.582319 
L 75.049388 232.828616 
L 81.009184 232.074914 
L 86.96898 231.321211 
L 92.928776 230.567508 
L 98.888571 229.813805 
L 104.848367 229.060102 
L 110.808163 228.306399 
L 116.767959 227.552697 
L 122.727755 226.798994 
L 128.687551 226.045291 
L 134.647347 225.291588 
L 140.607143 224.537885 
L 146.566939 223.784182 
L 152.526735 223.030479 
L 158.486531 222.276777 
L 164.446327 221.523074 
L 170.406122 220.769371 
L 176.365918 220.015668 
L 182.325714 219.261965 
L 188.28551 218.508262 
L 194.245306 217.754559 
L 200.205102 217.000857 
L 206.164898 216.247154 
L 212.124694 215.493451 
L 218.08449 214.739748 
L 224.044286 213.986045 
L 230.004082 213.232342 
L 235.963878 212.47864 
L 241.923673 211.724937 
L 247.883469 210.971234 
L 253.843265 210.217531 
L 259.803061 209.463828 
L 265.762857 208.710125 
L 271.722653 207.956422 
L 277.682449 207.20272 
L 283.642245 206.449017 
L 289.602041 205.695314 
L 295.561837 204.941611 
L 301.521633 204.187908 
L 307.481429 203.434205 
L 313.441224 202.680502 
L 319.40102 201.9268 
L 325.360816 201.173097 
L 331.320612 200.419394 
L 337.280408 199.665691 
L 343.240204 198.911988 
L 349.2 198.158285 
" clip-path="url(#p7c37b41a06)" style="fill: none; stroke: #5e7e66; stroke-width: 1.5; stroke-linecap: square"/>
   </g>
   <g id="line2d_35">
    <path d="M 57.17 237.06663 
L 63.129796 237.070417 
L 69.089592 237.074204 
L 75.049388 237.07799 
L 81.009184 237.081777 
L 86.96898 237.085564 
L 92.928776 237.089351 
L 98.888571 237.093138 
L 104.848367 237.096924 
L 110.808163 237.100711 
L 116.767959 237.104498 
L 122.727755 237.108285 
L 128.687551 237.112072 
L 134.647347 237.115858 
L 140.607143 237.119645 
L 146.566939 237.123432 
L 152.526735 237.127219 
L 158.486531 237.131006 
L 164.446327 237.134792 
L 170.406122 237.138579 
L 176.365918 237.142366 
L 182.325714 237.146153 
L 188.28551 237.149939 
L 194.245306 237.153726 
L 200.205102 237.157513 
L 206.164898 237.1613 
L 212.124694 237.165087 
L 218.08449 237.168873 
L 224.044286 237.17266 
L 230.004082 237.176447 
L 235.963878 237.180234 
L 241.923673 237.184021 
L 247.883469 237.187807 
L 253.843265 237.191594 
L 259.803061 237.195381 
L 265.762857 237.199168 
L 271.722653 237.202955 
L 277.682449 237.206741 
L 283.642245 237.210528 
L 289.602041 237.214315 
L 295.561837 237.218102 
L 301.521633 237.221889 
L 307.481429 237.225675 
L 313.441224 237.229462 
L 319.40102 237.233249 
L 325.360816 237.237036 
L 331.320612 237.240823 
L 337.280408 237.244609 
L 343.240204 237.248396 
L 349.2 237.252183 
" clip-path="url(#p7c37b41a06)" style="fill: none; stroke: #9be4ff; stroke-width: 1.5; stroke-linecap: square"/>
   </g>
   <g id="patch_3">
    <path d="M 57.17 246.04 
L 57.17 14.76 
" style="fill: none; stroke: #000000; stroke-width: 0.8; stroke-linejoin: miter; stroke-linecap: square"/>
   </g>
   <g id="patch_4">
    <path d="M 349.2 246.04 
L 349.2 14.76 
" style="fill: none; stroke: #000000; stroke-width: 0.8; stroke-linejoin: miter; stroke-linecap: square"/>
   </g>
   <g id="patch_5">
    <path d="M 57.17 246.04 
L 349.2 246.04 
" style="fill: none; stroke: #000000; stroke-width: 0.8; stroke-linejoin: miter; stroke-linecap: square"/>
   </g>
   <g id="patch_6">
    <path d="M 57.17 14.76 
L 349.2 14.76 
" style="fill: none; stroke: #000000; stroke-width: 0.8; stroke-linejoin: miter; stroke-linecap: square"/>
   </g>
   <g id="legend_1">
    <g id="patch_7">
     <path d="M 64.17 184.219375 
L 173.829375 184.219375 
Q 175.829375 184.219375 175.829375 182.219375 
L 175.829375 21.76 
Q 175.829375 19.76 173.829375 19.76 
L 64.17 19.76 
Q 62.17 19.76 62.17 21.76 
L 62.17 182.219375 
Q 62.17 184.219375 64.17 184.219375 
z
" style="fill: #ffffff; opacity: 0.8; stroke: #cccccc; stroke-linejoin: miter"/>
    </g>
    <g id="line2d_36">
     <path d="M 66.17 27.858437 
L 76.17 27.858437 
L 86.17 27.858437 
" style="fill: none; stroke: #d70000; stroke-width: 1.5; stroke-linecap: square"/>
    </g>
    <g id="text_16">
     <!-- AT -->
     <g transform="translate(94.17 31.358437)scale(0.1 -0.1)">
      <defs>
       <path id="DejaVuSans-41" d="M 2188 4044 
L 1331 1722 
L 3047 1722 
L 2188 4044 
z
M 1831 4666 
L 2547 4666 
L 4325 0 
L 3669 0 
L 3244 1197 
L 1141 1197 
L 716 0 
L 50 0 
L 1831 4666 
z
" transform="scale(0.015625)"/>
       <path id="DejaVuSans-54" d="M -19 4666 
L 3928 4666 
L 3928 4134 
L 2272 4134 
L 2272 0 
L 1638 0 
L 1638 4134 
L -19 4134 
L -19 4666 
z
" transform="scale(0.015625)"/>
      </defs>
      <use xlink:href="#DejaVuSans-41"/>
      <use xlink:href="#DejaVuSans-54" x="60.658203"/>
     </g>
    </g>
    <g id="line2d_37">
     <path d="M 66.17 42.536563 
L 76.17 42.536563 
L 86.17 42.536563 
" style="fill: none; stroke: #8c3cff; stroke-width: 1.5; stroke-linecap: square"/>
    </g>
    <g id="text_17">
     <!-- BE -->
     <g transform="translate(94.17 46.036563)scale(0.1 -0.1)">
      <defs>
       <path id="DejaVuSans-42" d="M 1259 2228 
L 1259 519 
L 2272 519 
Q 2781 519 3026 730 
Q 3272 941 3272 1375 
Q 3272 1813 3026 2020 
Q 2781 2228 2272 2228 
L 1259 2228 
z
M 1259 4147 
L 1259 2741 
L 2194 2741 
Q 2656 2741 2882 2914 
Q 3109 3088 3109 3444 
Q 3109 3797 2882 3972 
Q 2656 4147 2194 4147 
L 1259 4147 
z
M 628 4666 
L 2241 4666 
Q 2963 4666 3353 4366 
Q 3744 4066 3744 3513 
Q 3744 3084 3544 2831 
Q 3344 2578 2956 2516 
Q 3422 2416 3680 2098 
Q 3938 1781 3938 1306 
Q 3938 681 3513 340 
Q 3088 0 2303 0 
L 628 0 
L 628 4666 
z
" transform="scale(0.015625)"/>
      </defs>
      <use xlink:href="#DejaVuSans-42"/>
      <use xlink:href="#DejaVuSans-45" x="68.603516"/>
     </g>
    </g>
    <g id="line2d_38">
     <path d="M 66.17 57.214687 
L 76.17 57.214687 
L 86.17 57.214687 
" style="fill: none; stroke: #028800; stroke-width: 1.5; stroke-linecap: square"/>
    </g>
    <g id="text_18">
     <!-- BG -->
     <g transform="translate(94.17 60.714687)scale(0.1 -0.1)">
      <use xlink:href="#DejaVuSans-42"/>
      <use xlink:href="#DejaVuSans-47" x="66.853516"/>
     </g>
    </g>
    <g id="line2d_39">
     <path d="M 66.17 71.892812 
L 76.17 71.892812 
L 86.17 71.892812 
" style="fill: none; stroke: #00acc7; stroke-width: 1.5; stroke-linecap: square"/>
    </g>
    <g id="text_19">
     <!-- CY -->
     <g transform="translate(94.17 75.392812)scale(0.1 -0.1)">
      <defs>
       <path id="DejaVuSans-43" d="M 4122 4306 
L 4122 3641 
Q 3803 3938 3442 4084 
Q 3081 4231 2675 4231 
Q 1875 4231 1450 3742 
Q 1025 3253 1025 2328 
Q 1025 1406 1450 917 
Q 1875 428 2675 428 
Q 3081 428 3442 575 
Q 3803 722 4122 1019 
L 4122 359 
Q 3791 134 3420 21 
Q 3050 -91 2638 -91 
Q 1578 -91 968 557 
Q 359 1206 359 2328 
Q 359 3453 968 4101 
Q 1578 4750 2638 4750 
Q 3056 4750 3426 4639 
Q 3797 4528 4122 4306 
z
" transform="scale(0.015625)"/>
       <path id="DejaVuSans-59" d="M -13 4666 
L 666 4666 
L 1959 2747 
L 3244 4666 
L 3922 4666 
L 2272 2222 
L 2272 0 
L 1638 0 
L 1638 2222 
L -13 4666 
z
" transform="scale(0.015625)"/>
      </defs>
      <use xlink:href="#DejaVuSans-43"/>
      <use xlink:href="#DejaVuSans-59" x="68.074219"/>
     </g>
    </g>
    <g id="line2d_40">
     <path d="M 66.17 86.570938 
L 76.17 86.570938 
L 86.17 86.570938 
" style="fill: none; stroke: #98ff00; stroke-width: 1.5; stroke-linecap: square"/>
    </g>
    <g id="text_20">
     <!-- CZ -->
     <g transform="translate(94.17 90.070938)scale(0.1 -0.1)">
      <defs>
       <path id="DejaVuSans-5a" d="M 359 4666 
L 4025 4666 
L 4025 4184 
L 1075 531 
L 4097 531 
L 4097 0 
L 288 0 
L 288 481 
L 3238 4134 
L 359 4134 
L 359 4666 
z
" transform="scale(0.015625)"/>
      </defs>
      <use xlink:href="#DejaVuSans-43"/>
      <use xlink:href="#DejaVuSans-5a" x="69.824219"/>
     </g>
    </g>
    <g id="line2d_41">
     <path d="M 66.17 101.249062 
L 76.17 101.249062 
L 86.17 101.249062 
" style="fill: none; stroke: #ff7fd1; stroke-width: 1.5; stroke-linecap: square"/>
    </g>
    <g id="text_21">
     <!-- DE -->
     <g transform="translate(94.17 104.749062)scale(0.1 -0.1)">
      <use xlink:href="#DejaVuSans-44"/>
      <use xlink:href="#DejaVuSans-45" x="77.001953"/>
     </g>
    </g>
    <g id="line2d_42">
     <path d="M 66.17 115.927188 
L 76.17 115.927188 
L 86.17 115.927188 
" style="fill: none; stroke: #6c004f; stroke-width: 1.5; stroke-linecap: square"/>
    </g>
    <g id="text_22">
     <!-- DK -->
     <g transform="translate(94.17 119.427188)scale(0.1 -0.1)">
      <defs>
       <path id="DejaVuSans-4b" d="M 628 4666 
L 1259 4666 
L 1259 2694 
L 3353 4666 
L 4166 4666 
L 1850 2491 
L 4331 0 
L 3500 0 
L 1259 2247 
L 1259 0 
L 628 0 
L 628 4666 
z
" transform="scale(0.015625)"/>
      </defs>
      <use xlink:href="#DejaVuSans-44"/>
      <use xlink:href="#DejaVuSans-4b" x="77.001953"/>
     </g>
    </g>
    <g id="line2d_43">
     <path d="M 66.17 130.605312 
L 76.17 130.605312 
L 86.17 130.605312 
" style="fill: none; stroke: #583b00; stroke-width: 1.5; stroke-linecap: square"/>
    </g>
    <g id="text_23">
     <!-- EL -->
     <g transform="translate(94.17 134.105312)scale(0.1 -0.1)">
      <defs>
       <path id="DejaVuSans-4c" d="M 628 4666 
L 1259 4666 
L 1259 531 
L 3531 531 
L 3531 0 
L 628 0 
L 628 4666 
z
" transform="scale(0.015625)"/>
      </defs>
      <use xlink:href="#DejaVuSans-45"/>
      <use xlink:href="#DejaVuSans-4c" x="63.183594"/>
     </g>
    </g>
    <g id="line2d_44">
     <path d="M 66.17 145.283437 
L 76.17 145.283437 
L 86.17 145.283437 
" style="fill: none; stroke: #005759; stroke-width: 1.5; stroke-linecap: square"/>
    </g>
    <g id="text_24">
     <!-- ES -->
     <g transform="translate(94.17 148.783437)scale(0.1 -0.1)">
      <use xlink:href="#DejaVuSans-45"/>
      <use xlink:href="#DejaVuSans-53" x="63.183594"/>
     </g>
    </g>
    <g id="line2d_45">
     <path d="M 66.17 159.961562 
L 76.17 159.961562 
L 86.17 159.961562 
" style="fill: none; stroke: #0000dd; stroke-width: 1.5; stroke-linecap: square"/>
    </g>
    <g id="text_25">
     <!-- FI -->
     <g transform="translate(94.17 163.461562)scale(0.1 -0.1)">
      <defs>
       <path id="DejaVuSans-46" d="M 628 4666 
L 3309 4666 
L 3309 4134 
L 1259 4134 
L 1259 2759 
L 3109 2759 
L 3109 2228 
L 1259 2228 
L 1259 0 
L 628 0 
L 628 4666 
z
" transform="scale(0.015625)"/>
       <path id="DejaVuSans-49" d="M 628 4666 
L 1259 4666 
L 1259 0 
L 628 0 
L 628 4666 
z
" transform="scale(0.015625)"/>
      </defs>
      <use xlink:href="#DejaVuSans-46"/>
      <use xlink:href="#DejaVuSans-49" x="57.519531"/>
     </g>
    </g>
    <g id="line2d_46">
     <path d="M 66.17 174.639687 
L 76.17 174.639687 
L 86.17 174.639687 
" style="fill: none; stroke: #a1756a; stroke-width: 1.5; stroke-linecap: square"/>
    </g>
    <g id="text_26">
     <!-- HU -->
     <g transform="translate(94.17 178.139687)scale(0.1 -0.1)">
      <defs>
       <path id="DejaVuSans-48" d="M 628 4666 
L 1259 4666 
L 1259 2753 
L 3553 2753 
L 3553 4666 
L 4184 4666 
L 4184 0 
L 3553 0 
L 3553 2222 
L 1259 2222 
L 1259 0 
L 628 0 
L 628 4666 
z
" transform="scale(0.015625)"/>
      </defs>
      <use xlink:href="#DejaVuSans-48"/>
      <use xlink:href="#DejaVuSans-55" x="75.195312"/>
     </g>
    </g>
    <g id="line2d_47">
     <path d="M 129.009062 27.858437 
L 139.009062 27.858437 
L 149.009062 27.858437 
" style="fill: none; stroke: #bcb7ff; stroke-width: 1.5; stroke-linecap: square"/>
    </g>
    <g id="text_27">
     <!-- IE -->
     <g transform="translate(157.009062 31.358437)scale(0.1 -0.1)">
      <use xlink:href="#DejaVuSans-49"/>
      <use xlink:href="#DejaVuSans-45" x="29.492188"/>
     </g>
    </g>
    <g id="line2d_48">
     <path d="M 129.009062 42.536563 
L 139.009062 42.536563 
L 149.009062 42.536563 
" style="fill: none; stroke: #95b578; stroke-width: 1.5; stroke-linecap: square"/>
    </g>
    <g id="text_28">
     <!-- IT -->
     <g transform="translate(157.009062 46.036563)scale(0.1 -0.1)">
      <use xlink:href="#DejaVuSans-49"/>
      <use xlink:href="#DejaVuSans-54" x="29.492188"/>
     </g>
    </g>
    <g id="line2d_49">
     <path d="M 129.009062 57.214687 
L 139.009062 57.214687 
L 149.009062 57.214687 
" style="fill: none; stroke: #c004b9; stroke-width: 1.5; stroke-linecap: square"/>
    </g>
    <g id="text_29">
     <!-- LT -->
     <g transform="translate(157.009062 60.714687)scale(0.1 -0.1)">
      <use xlink:href="#DejaVuSans-4c"/>
      <use xlink:href="#DejaVuSans-54" x="41.962891"/>
     </g>
    </g>
    <g id="line2d_50">
     <path d="M 129.009062 71.892812 
L 139.009062 71.892812 
L 149.009062 71.892812 
" style="fill: none; stroke: #790000; stroke-width: 1.5; stroke-linecap: square"/>
    </g>
    <g id="text_30">
     <!-- LV -->
     <g transform="translate(157.009062 75.392812)scale(0.1 -0.1)">
      <defs>
       <path id="DejaVuSans-56" d="M 1831 0 
L 50 4666 
L 709 4666 
L 2188 738 
L 3669 4666 
L 4325 4666 
L 2547 0 
L 1831 0 
z
" transform="scale(0.015625)"/>
      </defs>
      <use xlink:href="#DejaVuSans-4c"/>
      <use xlink:href="#DejaVuSans-56" x="44.712891"/>
     </g>
    </g>
    <g id="line2d_51">
     <path d="M 129.009062 86.570938 
L 139.009062 86.570938 
L 149.009062 86.570938 
" style="fill: none; stroke: #0774d8; stroke-width: 1.5; stroke-linecap: square"/>
    </g>
    <g id="text_31">
     <!-- MT -->
     <g transform="translate(157.009062 90.070938)scale(0.1 -0.1)">
      <defs>
       <path id="DejaVuSans-4d" d="M 628 4666 
L 1569 4666 
L 2759 1491 
L 3956 4666 
L 4897 4666 
L 4897 0 
L 4281 0 
L 4281 4097 
L 3078 897 
L 2444 897 
L 1241 4097 
L 1241 0 
L 628 0 
L 628 4666 
z
" transform="scale(0.015625)"/>
      </defs>
      <use xlink:href="#DejaVuSans-4d"/>
      <use xlink:href="#DejaVuSans-54" x="86.279297"/>
     </g>
    </g>
    <g id="line2d_52">
     <path d="M 129.009062 101.249062 
L 139.009062 101.249062 
L 149.009062 101.249062 
" style="fill: none; stroke: #fef590; stroke-width: 1.5; stroke-linecap: square"/>
    </g>
    <g id="text_32">
     <!-- NL -->
     <g transform="translate(157.009062 104.749062)scale(0.1 -0.1)">
      <use xlink:href="#DejaVuSans-4e"/>
      <use xlink:href="#DejaVuSans-4c" x="74.804688"/>
     </g>
    </g>
    <g id="line2d_53">
     <path d="M 129.009062 115.927188 
L 139.009062 115.927188 
L 149.009062 115.927188 
" style="fill: none; stroke: #8f7a00; stroke-width: 1.5; stroke-linecap: square"/>
    </g>
    <g id="text_33">
     <!-- PT -->
     <g transform="translate(157.009062 119.427188)scale(0.1 -0.1)">
      <use xlink:href="#DejaVuSans-50"/>
      <use xlink:href="#DejaVuSans-54" x="60.302734"/>
     </g>
    </g>
    <g id="line2d_54">
     <path d="M 129.009062 130.605312 
L 139.009062 130.605312 
L 149.009062 130.605312 
" style="fill: none; stroke: #ff7266; stroke-width: 1.5; stroke-linecap: square"/>
    </g>
    <g id="text_34">
     <!-- RO -->
     <g transform="translate(157.009062 134.105312)scale(0.1 -0.1)">
      <defs>
       <path id="DejaVuSans-4f" d="M 2522 4238 
Q 1834 4238 1429 3725 
Q 1025 3213 1025 2328 
Q 1025 1447 1429 934 
Q 1834 422 2522 422 
Q 3209 422 3611 934 
Q 4013 1447 4013 2328 
Q 4013 3213 3611 3725 
Q 3209 4238 2522 4238 
z
M 2522 4750 
Q 3503 4750 4090 4092 
Q 4678 3434 4678 2328 
Q 4678 1225 4090 567 
Q 3503 -91 2522 -91 
Q 1538 -91 948 565 
Q 359 1222 359 2328 
Q 359 3434 948 4092 
Q 1538 4750 2522 4750 
z
" transform="scale(0.015625)"/>
      </defs>
      <use xlink:href="#DejaVuSans-52"/>
      <use xlink:href="#DejaVuSans-4f" x="69.482422"/>
     </g>
    </g>
    <g id="line2d_55">
     <path d="M 129.009062 145.283437 
L 139.009062 145.283437 
L 149.009062 145.283437 
" style="fill: none; stroke: #eeb9b9; stroke-width: 1.5; stroke-linecap: square"/>
    </g>
    <g id="text_35">
     <!-- SE -->
     <g transform="translate(157.009062 148.783437)scale(0.1 -0.1)">
      <use xlink:href="#DejaVuSans-53"/>
      <use xlink:href="#DejaVuSans-45" x="63.476562"/>
     </g>
    </g>
    <g id="line2d_56">
     <path d="M 129.009062 159.961562 
L 139.009062 159.961562 
L 149.009062 159.961562 
" style="fill: none; stroke: #5e7e66; stroke-width: 1.5; stroke-linecap: square"/>
    </g>
    <g id="text_36">
     <!-- SI -->
     <g transform="translate(157.009062 163.461562)scale(0.1 -0.1)">
      <use xlink:href="#DejaVuSans-53"/>
      <use xlink:href="#DejaVuSans-49" x="63.476562"/>
     </g>
    </g>
    <g id="line2d_57">
     <path d="M 129.009062 174.639687 
L 139.009062 174.639687 
L 149.009062 174.639687 
" style="fill: none; stroke: #9be4ff; stroke-width: 1.5; stroke-linecap: square"/>
    </g>
    <g id="text_37">
     <!-- SK -->
     <g transform="translate(157.009062 178.139687)scale(0.1 -0.1)">
      <use xlink:href="#DejaVuSans-53"/>
      <use xlink:href="#DejaVuSans-4b" x="63.476562"/>
     </g>
    </g>
   </g>
  </g>
 </g>
 <defs>
  <clipPath id="p7c37b41a06">
   <rect x="57.17" y="14.76" width="292.03" height="231.28"/>
  </clipPath>
 </defs>
</svg>
