<?xml version="1.0" encoding="utf-8" standalone="no"?>
<!DOCTYPE svg PUBLIC "-//W3C//DTD SVG 1.1//EN"
  "http://www.w3.org/Graphics/SVG/1.1/DTD/svg11.dtd">
<svg xmlns:xlink="http://www.w3.org/1999/xlink" width="360pt" height="288pt" viewBox="0 0 360 288" xmlns="http://www.w3.org/2000/svg" version="1.1">
 <metadata>
  <rdf:RDF xmlns:dc="http://purl.org/dc/elements/1.1/" xmlns:cc="http://creativecommons.org/ns#" xmlns:rdf="http://www.w3.org/1999/02/22-rdf-syntax-ns#">
   <cc:Work>
    <dc:type rdf:resource="http://purl.org/dc/dcmitype/StillImage"/>
    <dc:date>2024-02-02T17:07:13.146944</dc:date>
    <dc:format>image/svg+xml</dc:format>
    <dc:creator>
     <cc:Agent>
      <dc:title>Matplotlib v3.5.1, https://matplotlib.org/</dc:title>
     </cc:Agent>
    </dc:creator>
   </cc:Work>
  </rdf:RDF>
 </metadata>
 <defs>
  <style type="text/css">*{stroke-linejoin: round; stroke-linecap: butt}</style>
 </defs>
 <g id="figure_1">
  <g id="patch_1">
   <path d="M 0 288 
L 360 288 
L 360 0 
L 0 0 
L 0 288 
z
" style="fill: none"/>
  </g>
  <g id="axes_1">
   <g id="patch_2">
    <path d="M 14.3 246.04 
L 349.2 246.04 
L 349.2 10.8 
L 14.3 10.8 
L 14.3 246.04 
z
" style="fill: none"/>
   </g>
   <g id="patch_3">
    <path d="M 29.522727 128.42 
L 29.522727 128.42 
L 29.522727 128.42 
L 29.522727 128.42 
z
" clip-path="url(#pddaf955d03)" style="fill: #bc1b1b; stroke: #1a1a1a; stroke-linejoin: miter"/>
   </g>
   <g id="patch_4">
    <path d="M 29.522727 128.42 
L 29.522727 128.42 
L 29.522727 128.42 
L 29.522727 128.42 
z
" clip-path="url(#pddaf955d03)" style="fill: #9054e7; stroke: #1a1a1a; stroke-linejoin: miter"/>
   </g>
   <g id="patch_5">
    <path d="M 29.522727 128.42 
L 29.522727 128.42 
L 29.522727 128.42 
L 29.522727 128.42 
z
" clip-path="url(#pddaf955d03)" style="fill: #127711; stroke: #1a1a1a; stroke-linejoin: miter"/>
   </g>
   <g id="patch_6">
    <path d="M 29.522727 128.42 
L 29.522727 128.42 
L 29.522727 128.42 
L 29.522727 128.42 
z
" clip-path="url(#pddaf955d03)" style="fill: #199aae; stroke: #1a1a1a; stroke-linejoin: miter"/>
   </g>
   <g id="patch_7">
    <path d="M 29.522727 128.42 
L 29.522727 128.42 
L 29.522727 128.42 
L 29.522727 128.42 
z
" clip-path="url(#pddaf955d03)" style="fill: #ef8fcd; stroke: #1a1a1a; stroke-linejoin: miter"/>
   </g>
   <g id="patch_8">
    <path d="M 29.522727 128.42 
L 29.522727 128.42 
L 29.522727 128.42 
L 29.522727 128.42 
z
" clip-path="url(#pddaf955d03)" style="fill: #5e0d49; stroke: #1a1a1a; stroke-linejoin: miter"/>
   </g>
   <g id="patch_9">
    <path d="M 29.522727 128.42 
L 29.522727 128.42 
L 29.522727 128.42 
L 29.522727 128.42 
z
" clip-path="url(#pddaf955d03)" style="fill: #4d370b; stroke: #1a1a1a; stroke-linejoin: miter"/>
   </g>
   <g id="patch_10">
    <path d="M 29.522727 128.42 
L 29.522727 128.42 
L 29.522727 128.42 
L 29.522727 128.42 
z
" clip-path="url(#pddaf955d03)" style="fill: #0b4c4e; stroke: #1a1a1a; stroke-linejoin: miter"/>
   </g>
   <g id="patch_11">
    <path d="M 29.522727 128.42 
L 29.522727 128.42 
L 29.522727 128.42 
L 29.522727 128.42 
z
" clip-path="url(#pddaf955d03)" style="fill: #1c1cc1; stroke: #1a1a1a; stroke-linejoin: miter"/>
   </g>
   <g id="patch_12">
    <path d="M 29.522727 128.42 
L 29.522727 128.42 
L 29.522727 128.42 
L 29.522727 128.42 
z
" clip-path="url(#pddaf955d03)" style="fill: #9a7971; stroke: #1a1a1a; stroke-linejoin: miter"/>
   </g>
   <g id="patch_13">
    <path d="M 29.522727 128.42 
L 29.522727 128.42 
L 29.522727 128.42 
L 29.522727 128.42 
z
" clip-path="url(#pddaf955d03)" style="fill: #c4c0f6; stroke: #1a1a1a; stroke-linejoin: miter"/>
   </g>
   <g id="patch_14">
    <path d="M 29.522727 128.42 
L 29.522727 128.42 
L 29.522727 128.42 
L 29.522727 128.42 
z
" clip-path="url(#pddaf955d03)" style="fill: #95ad80; stroke: #1a1a1a; stroke-linejoin: miter"/>
   </g>
   <g id="patch_15">
    <path d="M 29.522727 128.42 
L 29.522727 128.42 
L 29.522727 128.42 
L 29.522727 128.42 
z
" clip-path="url(#pddaf955d03)" style="fill: #a81ba3; stroke: #1a1a1a; stroke-linejoin: miter"/>
   </g>
   <g id="patch_16">
    <path d="M 29.522727 128.42 
L 29.522727 128.42 
L 29.522727 128.42 
L 29.522727 128.42 
z
" clip-path="url(#pddaf955d03)" style="fill: #2173be; stroke: #1a1a1a; stroke-linejoin: miter"/>
   </g>
   <g id="patch_17">
    <path d="M 29.522727 128.42 
L 29.522727 128.42 
L 29.522727 128.42 
L 29.522727 128.42 
z
" clip-path="url(#pddaf955d03)" style="fill: #7d6d12; stroke: #1a1a1a; stroke-linejoin: miter"/>
   </g>
   <g id="patch_18">
    <path d="M 29.522727 128.42 
L 29.522727 128.42 
L 29.522727 128.42 
L 29.522727 128.42 
z
" clip-path="url(#pddaf955d03)" style="fill: #ec8279; stroke: #1a1a1a; stroke-linejoin: miter"/>
   </g>
   <g id="patch_19">
    <path d="M 29.522727 128.42 
L 29.522727 128.42 
L 29.522727 128.42 
L 29.522727 128.42 
z
" clip-path="url(#pddaf955d03)" style="fill: #627a68; stroke: #1a1a1a; stroke-linejoin: miter"/>
   </g>
   <g id="patch_20">
    <path d="M 29.522727 128.42 
L 29.522727 128.42 
L 29.522727 128.42 
L 29.522727 128.42 
z
" clip-path="url(#pddaf955d03)" style="fill: #a7def2; stroke: #1a1a1a; stroke-linejoin: miter"/>
   </g>
   <g id="matplotlib.axis_1">
    <g id="xtick_1">
     <g id="line2d_1">
      <defs>
       <path id="m9dec848393" d="M 0 0 
L 0 3.5 
" style="stroke: #000000; stroke-width: 0.8"/>
      </defs>
      <g>
       <use xlink:href="#m9dec848393" x="29.522727" y="246.04" style="stroke: #000000; stroke-width: 0.8"/>
      </g>
     </g>
     <g id="text_1">
      <!-- 0 -->
      <g transform="translate(26.341477 260.638438)scale(0.1 -0.1)">
       <defs>
        <path id="DejaVuSans-30" d="M 2034 4250 
Q 1547 4250 1301 3770 
Q 1056 3291 1056 2328 
Q 1056 1369 1301 889 
Q 1547 409 2034 409 
Q 2525 409 2770 889 
Q 3016 1369 3016 2328 
Q 3016 3291 2770 3770 
Q 2525 4250 2034 4250 
z
M 2034 4750 
Q 2819 4750 3233 4129 
Q 3647 3509 3647 2328 
Q 3647 1150 3233 529 
Q 2819 -91 2034 -91 
Q 1250 -91 836 529 
Q 422 1150 422 2328 
Q 422 3509 836 4129 
Q 1250 4750 2034 4750 
z
" transform="scale(0.015625)"/>
       </defs>
       <use xlink:href="#DejaVuSans-30"/>
      </g>
     </g>
    </g>
    <g id="xtick_2">
     <g id="line2d_2">
      <g>
       <use xlink:href="#m9dec848393" x="71.798183" y="246.04" style="stroke: #000000; stroke-width: 0.8"/>
      </g>
     </g>
     <g id="text_2">
      <!-- 5 -->
      <g transform="translate(68.616933 260.638438)scale(0.1 -0.1)">
       <defs>
        <path id="DejaVuSans-35" d="M 691 4666 
L 3169 4666 
L 3169 4134 
L 1269 4134 
L 1269 2991 
Q 1406 3038 1543 3061 
Q 1681 3084 1819 3084 
Q 2600 3084 3056 2656 
Q 3513 2228 3513 1497 
Q 3513 744 3044 326 
Q 2575 -91 1722 -91 
Q 1428 -91 1123 -41 
Q 819 9 494 109 
L 494 744 
Q 775 591 1075 516 
Q 1375 441 1709 441 
Q 2250 441 2565 725 
Q 2881 1009 2881 1497 
Q 2881 1984 2565 2268 
Q 2250 2553 1709 2553 
Q 1456 2553 1204 2497 
Q 953 2441 691 2322 
L 691 4666 
z
" transform="scale(0.015625)"/>
       </defs>
       <use xlink:href="#DejaVuSans-35"/>
      </g>
     </g>
    </g>
    <g id="xtick_3">
     <g id="line2d_3">
      <g>
       <use xlink:href="#m9dec848393" x="114.073639" y="246.04" style="stroke: #000000; stroke-width: 0.8"/>
      </g>
     </g>
     <g id="text_3">
      <!-- 10 -->
      <g transform="translate(107.711139 260.638438)scale(0.1 -0.1)">
       <defs>
        <path id="DejaVuSans-31" d="M 794 531 
L 1825 531 
L 1825 4091 
L 703 3866 
L 703 4441 
L 1819 4666 
L 2450 4666 
L 2450 531 
L 3481 531 
L 3481 0 
L 794 0 
L 794 531 
z
" transform="scale(0.015625)"/>
       </defs>
       <use xlink:href="#DejaVuSans-31"/>
       <use xlink:href="#DejaVuSans-30" x="63.623047"/>
      </g>
     </g>
    </g>
    <g id="xtick_4">
     <g id="line2d_4">
      <g>
       <use xlink:href="#m9dec848393" x="156.349095" y="246.04" style="stroke: #000000; stroke-width: 0.8"/>
      </g>
     </g>
     <g id="text_4">
      <!-- 15 -->
      <g transform="translate(149.986595 260.638438)scale(0.1 -0.1)">
       <use xlink:href="#DejaVuSans-31"/>
       <use xlink:href="#DejaVuSans-35" x="63.623047"/>
      </g>
     </g>
    </g>
    <g id="xtick_5">
     <g id="line2d_5">
      <g>
       <use xlink:href="#m9dec848393" x="198.624551" y="246.04" style="stroke: #000000; stroke-width: 0.8"/>
      </g>
     </g>
     <g id="text_5">
      <!-- 20 -->
      <g transform="translate(192.262051 260.638438)scale(0.1 -0.1)">
       <defs>
        <path id="DejaVuSans-32" d="M 1228 531 
L 3431 531 
L 3431 0 
L 469 0 
L 469 531 
Q 828 903 1448 1529 
Q 2069 2156 2228 2338 
Q 2531 2678 2651 2914 
Q 2772 3150 2772 3378 
Q 2772 3750 2511 3984 
Q 2250 4219 1831 4219 
Q 1534 4219 1204 4116 
Q 875 4013 500 3803 
L 500 4441 
Q 881 4594 1212 4672 
Q 1544 4750 1819 4750 
Q 2544 4750 2975 4387 
Q 3406 4025 3406 3419 
Q 3406 3131 3298 2873 
Q 3191 2616 2906 2266 
Q 2828 2175 2409 1742 
Q 1991 1309 1228 531 
z
" transform="scale(0.015625)"/>
       </defs>
       <use xlink:href="#DejaVuSans-32"/>
       <use xlink:href="#DejaVuSans-30" x="63.623047"/>
      </g>
     </g>
    </g>
    <g id="xtick_6">
     <g id="line2d_6">
      <g>
       <use xlink:href="#m9dec848393" x="240.900007" y="246.04" style="stroke: #000000; stroke-width: 0.8"/>
      </g>
     </g>
     <g id="text_6">
      <!-- 25 -->
      <g transform="translate(234.537507 260.638438)scale(0.1 -0.1)">
       <use xlink:href="#DejaVuSans-32"/>
       <use xlink:href="#DejaVuSans-35" x="63.623047"/>
      </g>
     </g>
    </g>
    <g id="xtick_7">
     <g id="line2d_7">
      <g>
       <use xlink:href="#m9dec848393" x="283.175462" y="246.04" style="stroke: #000000; stroke-width: 0.8"/>
      </g>
     </g>
     <g id="text_7">
      <!-- 30 -->
      <g transform="translate(276.812962 260.638438)scale(0.1 -0.1)">
       <defs>
        <path id="DejaVuSans-33" d="M 2597 2516 
Q 3050 2419 3304 2112 
Q 3559 1806 3559 1356 
Q 3559 666 3084 287 
Q 2609 -91 1734 -91 
Q 1441 -91 1130 -33 
Q 819 25 488 141 
L 488 750 
Q 750 597 1062 519 
Q 1375 441 1716 441 
Q 2309 441 2620 675 
Q 2931 909 2931 1356 
Q 2931 1769 2642 2001 
Q 2353 2234 1838 2234 
L 1294 2234 
L 1294 2753 
L 1863 2753 
Q 2328 2753 2575 2939 
Q 2822 3125 2822 3475 
Q 2822 3834 2567 4026 
Q 2313 4219 1838 4219 
Q 1578 4219 1281 4162 
Q 984 4106 628 3988 
L 628 4550 
Q 988 4650 1302 4700 
Q 1616 4750 1894 4750 
Q 2613 4750 3031 4423 
Q 3450 4097 3450 3541 
Q 3450 3153 3228 2886 
Q 3006 2619 2597 2516 
z
" transform="scale(0.015625)"/>
       </defs>
       <use xlink:href="#DejaVuSans-33"/>
       <use xlink:href="#DejaVuSans-30" x="63.623047"/>
      </g>
     </g>
    </g>
    <g id="xtick_8">
     <g id="line2d_8">
      <g>
       <use xlink:href="#m9dec848393" x="325.450918" y="246.04" style="stroke: #000000; stroke-width: 0.8"/>
      </g>
     </g>
     <g id="text_8">
      <!-- 35 -->
      <g transform="translate(319.088418 260.638438)scale(0.1 -0.1)">
       <use xlink:href="#DejaVuSans-33"/>
       <use xlink:href="#DejaVuSans-35" x="63.623047"/>
      </g>
     </g>
    </g>
    <g id="text_9">
     <!-- Number of Homicides -->
     <g transform="translate(127.59375 274.316562)scale(0.1 -0.1)">
      <defs>
       <path id="DejaVuSans-4e" d="M 628 4666 
L 1478 4666 
L 3547 763 
L 3547 4666 
L 4159 4666 
L 4159 0 
L 3309 0 
L 1241 3903 
L 1241 0 
L 628 0 
L 628 4666 
z
" transform="scale(0.015625)"/>
       <path id="DejaVuSans-75" d="M 544 1381 
L 544 3500 
L 1119 3500 
L 1119 1403 
Q 1119 906 1312 657 
Q 1506 409 1894 409 
Q 2359 409 2629 706 
Q 2900 1003 2900 1516 
L 2900 3500 
L 3475 3500 
L 3475 0 
L 2900 0 
L 2900 538 
Q 2691 219 2414 64 
Q 2138 -91 1772 -91 
Q 1169 -91 856 284 
Q 544 659 544 1381 
z
M 1991 3584 
L 1991 3584 
z
" transform="scale(0.015625)"/>
       <path id="DejaVuSans-6d" d="M 3328 2828 
Q 3544 3216 3844 3400 
Q 4144 3584 4550 3584 
Q 5097 3584 5394 3201 
Q 5691 2819 5691 2113 
L 5691 0 
L 5113 0 
L 5113 2094 
Q 5113 2597 4934 2840 
Q 4756 3084 4391 3084 
Q 3944 3084 3684 2787 
Q 3425 2491 3425 1978 
L 3425 0 
L 2847 0 
L 2847 2094 
Q 2847 2600 2669 2842 
Q 2491 3084 2119 3084 
Q 1678 3084 1418 2786 
Q 1159 2488 1159 1978 
L 1159 0 
L 581 0 
L 581 3500 
L 1159 3500 
L 1159 2956 
Q 1356 3278 1631 3431 
Q 1906 3584 2284 3584 
Q 2666 3584 2933 3390 
Q 3200 3197 3328 2828 
z
" transform="scale(0.015625)"/>
       <path id="DejaVuSans-62" d="M 3116 1747 
Q 3116 2381 2855 2742 
Q 2594 3103 2138 3103 
Q 1681 3103 1420 2742 
Q 1159 2381 1159 1747 
Q 1159 1113 1420 752 
Q 1681 391 2138 391 
Q 2594 391 2855 752 
Q 3116 1113 3116 1747 
z
M 1159 2969 
Q 1341 3281 1617 3432 
Q 1894 3584 2278 3584 
Q 2916 3584 3314 3078 
Q 3713 2572 3713 1747 
Q 3713 922 3314 415 
Q 2916 -91 2278 -91 
Q 1894 -91 1617 61 
Q 1341 213 1159 525 
L 1159 0 
L 581 0 
L 581 4863 
L 1159 4863 
L 1159 2969 
z
" transform="scale(0.015625)"/>
       <path id="DejaVuSans-65" d="M 3597 1894 
L 3597 1613 
L 953 1613 
Q 991 1019 1311 708 
Q 1631 397 2203 397 
Q 2534 397 2845 478 
Q 3156 559 3463 722 
L 3463 178 
Q 3153 47 2828 -22 
Q 2503 -91 2169 -91 
Q 1331 -91 842 396 
Q 353 884 353 1716 
Q 353 2575 817 3079 
Q 1281 3584 2069 3584 
Q 2775 3584 3186 3129 
Q 3597 2675 3597 1894 
z
M 3022 2063 
Q 3016 2534 2758 2815 
Q 2500 3097 2075 3097 
Q 1594 3097 1305 2825 
Q 1016 2553 972 2059 
L 3022 2063 
z
" transform="scale(0.015625)"/>
       <path id="DejaVuSans-72" d="M 2631 2963 
Q 2534 3019 2420 3045 
Q 2306 3072 2169 3072 
Q 1681 3072 1420 2755 
Q 1159 2438 1159 1844 
L 1159 0 
L 581 0 
L 581 3500 
L 1159 3500 
L 1159 2956 
Q 1341 3275 1631 3429 
Q 1922 3584 2338 3584 
Q 2397 3584 2469 3576 
Q 2541 3569 2628 3553 
L 2631 2963 
z
" transform="scale(0.015625)"/>
       <path id="DejaVuSans-20" transform="scale(0.015625)"/>
       <path id="DejaVuSans-6f" d="M 1959 3097 
Q 1497 3097 1228 2736 
Q 959 2375 959 1747 
Q 959 1119 1226 758 
Q 1494 397 1959 397 
Q 2419 397 2687 759 
Q 2956 1122 2956 1747 
Q 2956 2369 2687 2733 
Q 2419 3097 1959 3097 
z
M 1959 3584 
Q 2709 3584 3137 3096 
Q 3566 2609 3566 1747 
Q 3566 888 3137 398 
Q 2709 -91 1959 -91 
Q 1206 -91 779 398 
Q 353 888 353 1747 
Q 353 2609 779 3096 
Q 1206 3584 1959 3584 
z
" transform="scale(0.015625)"/>
       <path id="DejaVuSans-66" d="M 2375 4863 
L 2375 4384 
L 1825 4384 
Q 1516 4384 1395 4259 
Q 1275 4134 1275 3809 
L 1275 3500 
L 2222 3500 
L 2222 3053 
L 1275 3053 
L 1275 0 
L 697 0 
L 697 3053 
L 147 3053 
L 147 3500 
L 697 3500 
L 697 3744 
Q 697 4328 969 4595 
Q 1241 4863 1831 4863 
L 2375 4863 
z
" transform="scale(0.015625)"/>
       <path id="DejaVuSans-48" d="M 628 4666 
L 1259 4666 
L 1259 2753 
L 3553 2753 
L 3553 4666 
L 4184 4666 
L 4184 0 
L 3553 0 
L 3553 2222 
L 1259 2222 
L 1259 0 
L 628 0 
L 628 4666 
z
" transform="scale(0.015625)"/>
       <path id="DejaVuSans-69" d="M 603 3500 
L 1178 3500 
L 1178 0 
L 603 0 
L 603 3500 
z
M 603 4863 
L 1178 4863 
L 1178 4134 
L 603 4134 
L 603 4863 
z
" transform="scale(0.015625)"/>
       <path id="DejaVuSans-63" d="M 3122 3366 
L 3122 2828 
Q 2878 2963 2633 3030 
Q 2388 3097 2138 3097 
Q 1578 3097 1268 2742 
Q 959 2388 959 1747 
Q 959 1106 1268 751 
Q 1578 397 2138 397 
Q 2388 397 2633 464 
Q 2878 531 3122 666 
L 3122 134 
Q 2881 22 2623 -34 
Q 2366 -91 2075 -91 
Q 1284 -91 818 406 
Q 353 903 353 1747 
Q 353 2603 823 3093 
Q 1294 3584 2113 3584 
Q 2378 3584 2631 3529 
Q 2884 3475 3122 3366 
z
" transform="scale(0.015625)"/>
       <path id="DejaVuSans-64" d="M 2906 2969 
L 2906 4863 
L 3481 4863 
L 3481 0 
L 2906 0 
L 2906 525 
Q 2725 213 2448 61 
Q 2172 -91 1784 -91 
Q 1150 -91 751 415 
Q 353 922 353 1747 
Q 353 2572 751 3078 
Q 1150 3584 1784 3584 
Q 2172 3584 2448 3432 
Q 2725 3281 2906 2969 
z
M 947 1747 
Q 947 1113 1208 752 
Q 1469 391 1925 391 
Q 2381 391 2643 752 
Q 2906 1113 2906 1747 
Q 2906 2381 2643 2742 
Q 2381 3103 1925 3103 
Q 1469 3103 1208 2742 
Q 947 2381 947 1747 
z
" transform="scale(0.015625)"/>
       <path id="DejaVuSans-73" d="M 2834 3397 
L 2834 2853 
Q 2591 2978 2328 3040 
Q 2066 3103 1784 3103 
Q 1356 3103 1142 2972 
Q 928 2841 928 2578 
Q 928 2378 1081 2264 
Q 1234 2150 1697 2047 
L 1894 2003 
Q 2506 1872 2764 1633 
Q 3022 1394 3022 966 
Q 3022 478 2636 193 
Q 2250 -91 1575 -91 
Q 1294 -91 989 -36 
Q 684 19 347 128 
L 347 722 
Q 666 556 975 473 
Q 1284 391 1588 391 
Q 1994 391 2212 530 
Q 2431 669 2431 922 
Q 2431 1156 2273 1281 
Q 2116 1406 1581 1522 
L 1381 1569 
Q 847 1681 609 1914 
Q 372 2147 372 2553 
Q 372 3047 722 3315 
Q 1072 3584 1716 3584 
Q 2034 3584 2315 3537 
Q 2597 3491 2834 3397 
z
" transform="scale(0.015625)"/>
      </defs>
      <use xlink:href="#DejaVuSans-4e"/>
      <use xlink:href="#DejaVuSans-75" x="74.804688"/>
      <use xlink:href="#DejaVuSans-6d" x="138.183594"/>
      <use xlink:href="#DejaVuSans-62" x="235.595703"/>
      <use xlink:href="#DejaVuSans-65" x="299.072266"/>
      <use xlink:href="#DejaVuSans-72" x="360.595703"/>
      <use xlink:href="#DejaVuSans-20" x="401.708984"/>
      <use xlink:href="#DejaVuSans-6f" x="433.496094"/>
      <use xlink:href="#DejaVuSans-66" x="494.677734"/>
      <use xlink:href="#DejaVuSans-20" x="529.882812"/>
      <use xlink:href="#DejaVuSans-48" x="561.669922"/>
      <use xlink:href="#DejaVuSans-6f" x="636.865234"/>
      <use xlink:href="#DejaVuSans-6d" x="698.046875"/>
      <use xlink:href="#DejaVuSans-69" x="795.458984"/>
      <use xlink:href="#DejaVuSans-63" x="823.242188"/>
      <use xlink:href="#DejaVuSans-69" x="878.222656"/>
      <use xlink:href="#DejaVuSans-64" x="906.005859"/>
      <use xlink:href="#DejaVuSans-65" x="969.482422"/>
      <use xlink:href="#DejaVuSans-73" x="1031.005859"/>
     </g>
    </g>
   </g>
   <g id="matplotlib.axis_2">
    <g id="ytick_1">
     <g id="line2d_9">
      <defs>
       <path id="m5249faf0c5" d="M 0 0 
L -3.5 0 
" style="stroke: #000000; stroke-width: 0.8"/>
      </defs>
      <g>
       <use xlink:href="#m5249faf0c5" x="14.3" y="128.42" style="stroke: #000000; stroke-width: 0.8"/>
      </g>
     </g>
    </g>
   </g>
   <g id="patch_21">
    <path d="M 63.066383 34.324 
L 63.066383 44.779111 
L 94.3312 44.779111 
L 94.3312 34.324 
L 63.066383 34.324 
z
" clip-path="url(#pddaf955d03)" style="fill: #bc1b1b; stroke: #1a1a1a; stroke-linejoin: miter"/>
   </g>
   <g id="line2d_10">
    <path d="M 63.066383 39.551556 
L 29.522727 39.551556 
" clip-path="url(#pddaf955d03)" style="fill: none; stroke: #1a1a1a"/>
   </g>
   <g id="line2d_11">
    <path d="M 94.3312 39.551556 
L 138.120428 39.551556 
" clip-path="url(#pddaf955d03)" style="fill: none; stroke: #1a1a1a"/>
   </g>
   <g id="line2d_12">
    <path d="M 29.522727 36.937778 
L 29.522727 42.165333 
" clip-path="url(#pddaf955d03)" style="fill: none; stroke: #1a1a1a; stroke-linecap: square"/>
   </g>
   <g id="line2d_13">
    <path d="M 138.120428 36.937778 
L 138.120428 42.165333 
" clip-path="url(#pddaf955d03)" style="fill: none; stroke: #1a1a1a; stroke-linecap: square"/>
   </g>
   <g id="line2d_14">
    <defs>
     <path id="m0586a7a323" d="M 0 3 
C 0.795609 3 1.55874 2.683901 2.12132 2.12132 
C 2.683901 1.55874 3 0.795609 3 0 
C 3 -0.795609 2.683901 -1.55874 2.12132 -2.12132 
C 1.55874 -2.683901 0.795609 -3 0 -3 
C -0.795609 -3 -1.55874 -2.683901 -2.12132 -2.12132 
C -2.683901 -1.55874 -3 -0.795609 -3 0 
C -3 0.795609 -2.683901 1.55874 -2.12132 2.12132 
C -1.55874 2.683901 -0.795609 3 0 3 
z
" style="stroke: #1a1a1a"/>
    </defs>
    <g clip-path="url(#pddaf955d03)">
     <use xlink:href="#m0586a7a323" x="151.647672" y="39.551556" style="fill-opacity: 0; stroke: #1a1a1a"/>
     <use xlink:href="#m0586a7a323" x="151.647672" y="39.551556" style="fill-opacity: 0; stroke: #1a1a1a"/>
     <use xlink:href="#m0586a7a323" x="146.292207" y="39.551556" style="fill-opacity: 0; stroke: #1a1a1a"/>
    </g>
   </g>
   <g id="patch_22">
    <path d="M 129.74885 44.779111 
L 129.74885 55.234222 
L 227.331112 55.234222 
L 227.331112 44.779111 
L 129.74885 44.779111 
z
" clip-path="url(#pddaf955d03)" style="fill: #9054e7; stroke: #1a1a1a; stroke-linejoin: miter"/>
   </g>
   <g id="line2d_15">
    <path d="M 129.74885 50.006667 
L 55.544397 50.006667 
" clip-path="url(#pddaf955d03)" style="fill: none; stroke: #1a1a1a"/>
   </g>
   <g id="line2d_16">
    <path d="M 227.331112 50.006667 
L 328.414481 50.006667 
" clip-path="url(#pddaf955d03)" style="fill: none; stroke: #1a1a1a"/>
   </g>
   <g id="line2d_17">
    <path d="M 55.544397 47.392889 
L 55.544397 52.620444 
" clip-path="url(#pddaf955d03)" style="fill: none; stroke: #1a1a1a; stroke-linecap: square"/>
   </g>
   <g id="line2d_18">
    <path d="M 328.414481 47.392889 
L 328.414481 52.620444 
" clip-path="url(#pddaf955d03)" style="fill: none; stroke: #1a1a1a; stroke-linecap: square"/>
   </g>
   <g id="line2d_19"/>
   <g id="patch_23">
    <path d="M 113.56248 55.234222 
L 113.56248 65.689333 
L 155.780073 65.689333 
L 155.780073 55.234222 
L 113.56248 55.234222 
z
" clip-path="url(#pddaf955d03)" style="fill: #127711; stroke: #1a1a1a; stroke-linejoin: miter"/>
   </g>
   <g id="line2d_20">
    <path d="M 113.56248 60.461778 
L 80.243054 60.461778 
" clip-path="url(#pddaf955d03)" style="fill: none; stroke: #1a1a1a"/>
   </g>
   <g id="line2d_21">
    <path d="M 155.780073 60.461778 
L 208.940346 60.461778 
" clip-path="url(#pddaf955d03)" style="fill: none; stroke: #1a1a1a"/>
   </g>
   <g id="line2d_22">
    <path d="M 80.243054 57.848 
L 80.243054 63.075556 
" clip-path="url(#pddaf955d03)" style="fill: none; stroke: #1a1a1a; stroke-linecap: square"/>
   </g>
   <g id="line2d_23">
    <path d="M 208.940346 57.848 
L 208.940346 63.075556 
" clip-path="url(#pddaf955d03)" style="fill: none; stroke: #1a1a1a; stroke-linecap: square"/>
   </g>
   <g id="line2d_24"/>
   <g id="patch_24">
    <path d="M 133.612644 65.689333 
L 133.612644 76.144444 
L 166.489107 76.144444 
L 166.489107 65.689333 
L 133.612644 65.689333 
z
" clip-path="url(#pddaf955d03)" style="fill: #199aae; stroke: #1a1a1a; stroke-linejoin: miter"/>
   </g>
   <g id="line2d_25">
    <path d="M 133.612644 70.916889 
L 98.76173 70.916889 
" clip-path="url(#pddaf955d03)" style="fill: none; stroke: #1a1a1a"/>
   </g>
   <g id="line2d_26">
    <path d="M 166.489107 70.916889 
L 172.344409 70.916889 
" clip-path="url(#pddaf955d03)" style="fill: none; stroke: #1a1a1a"/>
   </g>
   <g id="line2d_27">
    <path d="M 98.76173 68.303111 
L 98.76173 73.530667 
" clip-path="url(#pddaf955d03)" style="fill: none; stroke: #1a1a1a; stroke-linecap: square"/>
   </g>
   <g id="line2d_28">
    <path d="M 172.344409 68.303111 
L 172.344409 73.530667 
" clip-path="url(#pddaf955d03)" style="fill: none; stroke: #1a1a1a; stroke-linecap: square"/>
   </g>
   <g id="line2d_29"/>
   <g id="patch_25">
    <path d="M 78.760293 76.144444 
L 78.760293 86.599556 
L 114.028981 86.599556 
L 114.028981 76.144444 
L 78.760293 76.144444 
z
" clip-path="url(#pddaf955d03)" style="fill: #ef8fcd; stroke: #1a1a1a; stroke-linejoin: miter"/>
   </g>
   <g id="line2d_30">
    <path d="M 78.760293 81.372 
L 29.522727 81.372 
" clip-path="url(#pddaf955d03)" style="fill: none; stroke: #1a1a1a"/>
   </g>
   <g id="line2d_31">
    <path d="M 114.028981 81.372 
L 165.087462 81.372 
" clip-path="url(#pddaf955d03)" style="fill: none; stroke: #1a1a1a"/>
   </g>
   <g id="line2d_32">
    <path d="M 29.522727 78.758222 
L 29.522727 83.985778 
" clip-path="url(#pddaf955d03)" style="fill: none; stroke: #1a1a1a; stroke-linecap: square"/>
   </g>
   <g id="line2d_33">
    <path d="M 165.087462 78.758222 
L 165.087462 83.985778 
" clip-path="url(#pddaf955d03)" style="fill: none; stroke: #1a1a1a; stroke-linecap: square"/>
   </g>
   <g id="line2d_34">
    <g clip-path="url(#pddaf955d03)">
     <use xlink:href="#m0586a7a323" x="168.892253" y="81.372" style="fill-opacity: 0; stroke: #1a1a1a"/>
     <use xlink:href="#m0586a7a323" x="180.97528" y="81.372" style="fill-opacity: 0; stroke: #1a1a1a"/>
     <use xlink:href="#m0586a7a323" x="214.955441" y="81.372" style="fill-opacity: 0; stroke: #1a1a1a"/>
     <use xlink:href="#m0586a7a323" x="182.403248" y="81.372" style="fill-opacity: 0; stroke: #1a1a1a"/>
     <use xlink:href="#m0586a7a323" x="171.488077" y="81.372" style="fill-opacity: 0; stroke: #1a1a1a"/>
     <use xlink:href="#m0586a7a323" x="233.814652" y="81.372" style="fill-opacity: 0; stroke: #1a1a1a"/>
    </g>
   </g>
   <g id="patch_26">
    <path d="M 92.979196 86.599556 
L 92.979196 97.054667 
L 122.468424 97.054667 
L 122.468424 86.599556 
L 92.979196 86.599556 
z
" clip-path="url(#pddaf955d03)" style="fill: #5e0d49; stroke: #1a1a1a; stroke-linejoin: miter"/>
   </g>
   <g id="line2d_35">
    <path d="M 92.979196 91.827111 
L 63.44445 91.827111 
" clip-path="url(#pddaf955d03)" style="fill: none; stroke: #1a1a1a"/>
   </g>
   <g id="line2d_36">
    <path d="M 122.468424 91.827111 
L 148.790179 91.827111 
" clip-path="url(#pddaf955d03)" style="fill: none; stroke: #1a1a1a"/>
   </g>
   <g id="line2d_37">
    <path d="M 63.44445 89.213333 
L 63.44445 94.440889 
" clip-path="url(#pddaf955d03)" style="fill: none; stroke: #1a1a1a; stroke-linecap: square"/>
   </g>
   <g id="line2d_38">
    <path d="M 148.790179 89.213333 
L 148.790179 94.440889 
" clip-path="url(#pddaf955d03)" style="fill: none; stroke: #1a1a1a; stroke-linecap: square"/>
   </g>
   <g id="line2d_39">
    <g clip-path="url(#pddaf955d03)">
     <use xlink:href="#m0586a7a323" x="46.636599" y="91.827111" style="fill-opacity: 0; stroke: #1a1a1a"/>
     <use xlink:href="#m0586a7a323" x="46.636599" y="91.827111" style="fill-opacity: 0; stroke: #1a1a1a"/>
     <use xlink:href="#m0586a7a323" x="46.484439" y="91.827111" style="fill-opacity: 0; stroke: #1a1a1a"/>
     <use xlink:href="#m0586a7a323" x="46.484439" y="91.827111" style="fill-opacity: 0; stroke: #1a1a1a"/>
     <use xlink:href="#m0586a7a323" x="43.859344" y="91.827111" style="fill-opacity: 0; stroke: #1a1a1a"/>
     <use xlink:href="#m0586a7a323" x="43.859344" y="91.827111" style="fill-opacity: 0; stroke: #1a1a1a"/>
     <use xlink:href="#m0586a7a323" x="184.354561" y="91.827111" style="fill-opacity: 0; stroke: #1a1a1a"/>
     <use xlink:href="#m0586a7a323" x="187.875291" y="91.827111" style="fill-opacity: 0; stroke: #1a1a1a"/>
     <use xlink:href="#m0586a7a323" x="187.875291" y="91.827111" style="fill-opacity: 0; stroke: #1a1a1a"/>
    </g>
   </g>
   <g id="patch_27">
    <path d="M 75.316197 97.054667 
L 75.316197 107.509778 
L 94.60095 107.509778 
L 94.60095 97.054667 
L 75.316197 97.054667 
z
" clip-path="url(#pddaf955d03)" style="fill: #4d370b; stroke: #1a1a1a; stroke-linejoin: miter"/>
   </g>
   <g id="line2d_40">
    <path d="M 75.316197 102.282222 
L 60.044181 102.282222 
" clip-path="url(#pddaf955d03)" style="fill: none; stroke: #1a1a1a"/>
   </g>
   <g id="line2d_41">
    <path d="M 94.60095 102.282222 
L 98.448665 102.282222 
" clip-path="url(#pddaf955d03)" style="fill: none; stroke: #1a1a1a"/>
   </g>
   <g id="line2d_42">
    <path d="M 60.044181 99.668444 
L 60.044181 104.896 
" clip-path="url(#pddaf955d03)" style="fill: none; stroke: #1a1a1a; stroke-linecap: square"/>
   </g>
   <g id="line2d_43">
    <path d="M 98.448665 99.668444 
L 98.448665 104.896 
" clip-path="url(#pddaf955d03)" style="fill: none; stroke: #1a1a1a; stroke-linecap: square"/>
   </g>
   <g id="line2d_44">
    <g clip-path="url(#pddaf955d03)">
     <use xlink:href="#m0586a7a323" x="134.865616" y="102.282222" style="fill-opacity: 0; stroke: #1a1a1a"/>
    </g>
   </g>
   <g id="patch_28">
    <path d="M 65.395869 107.509778 
L 65.395869 117.964889 
L 102.947652 117.964889 
L 102.947652 107.509778 
L 65.395869 107.509778 
z
" clip-path="url(#pddaf955d03)" style="fill: #0b4c4e; stroke: #1a1a1a; stroke-linejoin: miter"/>
   </g>
   <g id="line2d_45">
    <path d="M 65.395869 112.737333 
L 29.522727 112.737333 
" clip-path="url(#pddaf955d03)" style="fill: none; stroke: #1a1a1a"/>
   </g>
   <g id="line2d_46">
    <path d="M 102.947652 112.737333 
L 156.782925 112.737333 
" clip-path="url(#pddaf955d03)" style="fill: none; stroke: #1a1a1a"/>
   </g>
   <g id="line2d_47">
    <path d="M 29.522727 110.123556 
L 29.522727 115.351111 
" clip-path="url(#pddaf955d03)" style="fill: none; stroke: #1a1a1a; stroke-linecap: square"/>
   </g>
   <g id="line2d_48">
    <path d="M 156.782925 110.123556 
L 156.782925 115.351111 
" clip-path="url(#pddaf955d03)" style="fill: none; stroke: #1a1a1a; stroke-linecap: square"/>
   </g>
   <g id="line2d_49">
    <g clip-path="url(#pddaf955d03)">
     <use xlink:href="#m0586a7a323" x="160.840287" y="112.737333" style="fill-opacity: 0; stroke: #1a1a1a"/>
     <use xlink:href="#m0586a7a323" x="160.840287" y="112.737333" style="fill-opacity: 0; stroke: #1a1a1a"/>
     <use xlink:href="#m0586a7a323" x="167.214788" y="112.737333" style="fill-opacity: 0; stroke: #1a1a1a"/>
     <use xlink:href="#m0586a7a323" x="167.761387" y="112.737333" style="fill-opacity: 0; stroke: #1a1a1a"/>
     <use xlink:href="#m0586a7a323" x="167.761387" y="112.737333" style="fill-opacity: 0; stroke: #1a1a1a"/>
    </g>
   </g>
   <g id="patch_29">
    <path d="M 124.036748 117.964889 
L 124.036748 128.42 
L 218.026089 128.42 
L 218.026089 117.964889 
L 124.036748 117.964889 
z
" clip-path="url(#pddaf955d03)" style="fill: #1c1cc1; stroke: #1a1a1a; stroke-linejoin: miter"/>
   </g>
   <g id="line2d_50">
    <path d="M 124.036748 123.192444 
L 91.453709 123.192444 
" clip-path="url(#pddaf955d03)" style="fill: none; stroke: #1a1a1a"/>
   </g>
   <g id="line2d_51">
    <path d="M 218.026089 123.192444 
L 228.717581 123.192444 
" clip-path="url(#pddaf955d03)" style="fill: none; stroke: #1a1a1a"/>
   </g>
   <g id="line2d_52">
    <path d="M 91.453709 120.578667 
L 91.453709 125.806222 
" clip-path="url(#pddaf955d03)" style="fill: none; stroke: #1a1a1a; stroke-linecap: square"/>
   </g>
   <g id="line2d_53">
    <path d="M 228.717581 120.578667 
L 228.717581 125.806222 
" clip-path="url(#pddaf955d03)" style="fill: none; stroke: #1a1a1a; stroke-linecap: square"/>
   </g>
   <g id="line2d_54"/>
   <g id="patch_30">
    <path d="M 90.002008 128.42 
L 90.002008 138.875111 
L 105.325494 138.875111 
L 105.325494 128.42 
L 90.002008 128.42 
z
" clip-path="url(#pddaf955d03)" style="fill: #9a7971; stroke: #1a1a1a; stroke-linejoin: miter"/>
   </g>
   <g id="line2d_55">
    <path d="M 90.002008 133.647556 
L 70.104795 133.647556 
" clip-path="url(#pddaf955d03)" style="fill: none; stroke: #1a1a1a"/>
   </g>
   <g id="line2d_56">
    <path d="M 105.325494 133.647556 
L 125.835517 133.647556 
" clip-path="url(#pddaf955d03)" style="fill: none; stroke: #1a1a1a"/>
   </g>
   <g id="line2d_57">
    <path d="M 70.104795 131.033778 
L 70.104795 136.261333 
" clip-path="url(#pddaf955d03)" style="fill: none; stroke: #1a1a1a; stroke-linecap: square"/>
   </g>
   <g id="line2d_58">
    <path d="M 125.835517 131.033778 
L 125.835517 136.261333 
" clip-path="url(#pddaf955d03)" style="fill: none; stroke: #1a1a1a; stroke-linecap: square"/>
   </g>
   <g id="line2d_59">
    <g clip-path="url(#pddaf955d03)">
     <use xlink:href="#m0586a7a323" x="61.550255" y="133.647556" style="fill-opacity: 0; stroke: #1a1a1a"/>
     <use xlink:href="#m0586a7a323" x="173.002683" y="133.647556" style="fill-opacity: 0; stroke: #1a1a1a"/>
     <use xlink:href="#m0586a7a323" x="173.002683" y="133.647556" style="fill-opacity: 0; stroke: #1a1a1a"/>
    </g>
   </g>
   <g id="patch_31">
    <path d="M 69.331529 138.875111 
L 69.331529 149.330222 
L 119.453812 149.330222 
L 119.453812 138.875111 
L 69.331529 138.875111 
z
" clip-path="url(#pddaf955d03)" style="fill: #c4c0f6; stroke: #1a1a1a; stroke-linejoin: miter"/>
   </g>
   <g id="line2d_60">
    <path d="M 69.331529 144.102667 
L 65.574761 144.102667 
" clip-path="url(#pddaf955d03)" style="fill: none; stroke: #1a1a1a"/>
   </g>
   <g id="line2d_61">
    <path d="M 119.453812 144.102667 
L 127.581856 144.102667 
" clip-path="url(#pddaf955d03)" style="fill: none; stroke: #1a1a1a"/>
   </g>
   <g id="line2d_62">
    <path d="M 65.574761 141.488889 
L 65.574761 146.716444 
" clip-path="url(#pddaf955d03)" style="fill: none; stroke: #1a1a1a; stroke-linecap: square"/>
   </g>
   <g id="line2d_63">
    <path d="M 127.581856 141.488889 
L 127.581856 146.716444 
" clip-path="url(#pddaf955d03)" style="fill: none; stroke: #1a1a1a; stroke-linecap: square"/>
   </g>
   <g id="line2d_64"/>
   <g id="patch_32">
    <path d="M 56.670759 149.330222 
L 56.670759 159.785333 
L 82.684929 159.785333 
L 82.684929 149.330222 
L 56.670759 149.330222 
z
" clip-path="url(#pddaf955d03)" style="fill: #95ad80; stroke: #1a1a1a; stroke-linejoin: miter"/>
   </g>
   <g id="line2d_65">
    <path d="M 56.670759 154.557778 
L 29.522727 154.557778 
" clip-path="url(#pddaf955d03)" style="fill: none; stroke: #1a1a1a"/>
   </g>
   <g id="line2d_66">
    <path d="M 82.684929 154.557778 
L 121.484506 154.557778 
" clip-path="url(#pddaf955d03)" style="fill: none; stroke: #1a1a1a"/>
   </g>
   <g id="line2d_67">
    <path d="M 29.522727 151.944 
L 29.522727 157.171556 
" clip-path="url(#pddaf955d03)" style="fill: none; stroke: #1a1a1a; stroke-linecap: square"/>
   </g>
   <g id="line2d_68">
    <path d="M 121.484506 151.944 
L 121.484506 157.171556 
" clip-path="url(#pddaf955d03)" style="fill: none; stroke: #1a1a1a; stroke-linecap: square"/>
   </g>
   <g id="line2d_69">
    <g clip-path="url(#pddaf955d03)">
     <use xlink:href="#m0586a7a323" x="165.931346" y="154.557778" style="fill-opacity: 0; stroke: #1a1a1a"/>
     <use xlink:href="#m0586a7a323" x="127.93307" y="154.557778" style="fill-opacity: 0; stroke: #1a1a1a"/>
     <use xlink:href="#m0586a7a323" x="130.958491" y="154.557778" style="fill-opacity: 0; stroke: #1a1a1a"/>
     <use xlink:href="#m0586a7a323" x="130.958491" y="154.557778" style="fill-opacity: 0; stroke: #1a1a1a"/>
     <use xlink:href="#m0586a7a323" x="130.958491" y="154.557778" style="fill-opacity: 0; stroke: #1a1a1a"/>
     <use xlink:href="#m0586a7a323" x="134.343971" y="154.557778" style="fill-opacity: 0; stroke: #1a1a1a"/>
     <use xlink:href="#m0586a7a323" x="129.683731" y="154.557778" style="fill-opacity: 0; stroke: #1a1a1a"/>
     <use xlink:href="#m0586a7a323" x="123.934158" y="154.557778" style="fill-opacity: 0; stroke: #1a1a1a"/>
     <use xlink:href="#m0586a7a323" x="123.934158" y="154.557778" style="fill-opacity: 0; stroke: #1a1a1a"/>
    </g>
   </g>
   <g id="patch_33">
    <path d="M 261.378195 159.785333 
L 261.378195 170.240444 
L 328.886143 170.240444 
L 328.886143 159.785333 
L 261.378195 159.785333 
z
" clip-path="url(#pddaf955d03)" style="fill: #a81ba3; stroke: #1a1a1a; stroke-linejoin: miter"/>
   </g>
   <g id="line2d_70">
    <path d="M 261.378195 165.012889 
L 250.042932 165.012889 
" clip-path="url(#pddaf955d03)" style="fill: none; stroke: #1a1a1a"/>
   </g>
   <g id="line2d_71">
    <path d="M 328.886143 165.012889 
L 333.977273 165.012889 
" clip-path="url(#pddaf955d03)" style="fill: none; stroke: #1a1a1a"/>
   </g>
   <g id="line2d_72">
    <path d="M 250.042932 162.399111 
L 250.042932 167.626667 
" clip-path="url(#pddaf955d03)" style="fill: none; stroke: #1a1a1a; stroke-linecap: square"/>
   </g>
   <g id="line2d_73">
    <path d="M 333.977273 162.399111 
L 333.977273 167.626667 
" clip-path="url(#pddaf955d03)" style="fill: none; stroke: #1a1a1a; stroke-linecap: square"/>
   </g>
   <g id="line2d_74"/>
   <g id="patch_34">
    <path d="M 29.522727 170.240444 
L 29.522727 180.695556 
L 29.522727 180.695556 
L 29.522727 170.240444 
L 29.522727 170.240444 
z
" clip-path="url(#pddaf955d03)" style="fill: #2173be; stroke: #1a1a1a; stroke-linejoin: miter"/>
   </g>
   <g id="line2d_75">
    <path d="M 29.522727 175.468 
L 29.522727 175.468 
" clip-path="url(#pddaf955d03)" style="fill: none; stroke: #1a1a1a"/>
   </g>
   <g id="line2d_76">
    <path d="M 29.522727 175.468 
L 29.522727 175.468 
" clip-path="url(#pddaf955d03)" style="fill: none; stroke: #1a1a1a"/>
   </g>
   <g id="line2d_77">
    <path d="M 29.522727 172.854222 
L 29.522727 178.081778 
" clip-path="url(#pddaf955d03)" style="fill: none; stroke: #1a1a1a; stroke-linecap: square"/>
   </g>
   <g id="line2d_78">
    <path d="M 29.522727 172.854222 
L 29.522727 178.081778 
" clip-path="url(#pddaf955d03)" style="fill: none; stroke: #1a1a1a; stroke-linecap: square"/>
   </g>
   <g id="line2d_79">
    <g clip-path="url(#pddaf955d03)">
     <use xlink:href="#m0586a7a323" x="295.967475" y="175.468" style="fill-opacity: 0; stroke: #1a1a1a"/>
    </g>
   </g>
   <g id="patch_35">
    <path d="M 73.553902 180.695556 
L 73.553902 191.150667 
L 104.44337 191.150667 
L 104.44337 180.695556 
L 73.553902 180.695556 
z
" clip-path="url(#pddaf955d03)" style="fill: #7d6d12; stroke: #1a1a1a; stroke-linejoin: miter"/>
   </g>
   <g id="line2d_80">
    <path d="M 73.553902 185.923111 
L 29.522727 185.923111 
" clip-path="url(#pddaf955d03)" style="fill: none; stroke: #1a1a1a"/>
   </g>
   <g id="line2d_81">
    <path d="M 104.44337 185.923111 
L 140.886082 185.923111 
" clip-path="url(#pddaf955d03)" style="fill: none; stroke: #1a1a1a"/>
   </g>
   <g id="line2d_82">
    <path d="M 29.522727 183.309333 
L 29.522727 188.536889 
" clip-path="url(#pddaf955d03)" style="fill: none; stroke: #1a1a1a; stroke-linecap: square"/>
   </g>
   <g id="line2d_83">
    <path d="M 140.886082 183.309333 
L 140.886082 188.536889 
" clip-path="url(#pddaf955d03)" style="fill: none; stroke: #1a1a1a; stroke-linecap: square"/>
   </g>
   <g id="line2d_84"/>
   <g id="patch_36">
    <path d="M 101.592845 191.150667 
L 101.592845 201.605778 
L 166.989934 201.605778 
L 166.989934 191.150667 
L 101.592845 191.150667 
z
" clip-path="url(#pddaf955d03)" style="fill: #ec8279; stroke: #1a1a1a; stroke-linejoin: miter"/>
   </g>
   <g id="line2d_85">
    <path d="M 101.592845 196.378222 
L 41.553803 196.378222 
" clip-path="url(#pddaf955d03)" style="fill: none; stroke: #1a1a1a"/>
   </g>
   <g id="line2d_86">
    <path d="M 166.989934 196.378222 
L 261.230275 196.378222 
" clip-path="url(#pddaf955d03)" style="fill: none; stroke: #1a1a1a"/>
   </g>
   <g id="line2d_87">
    <path d="M 41.553803 193.764444 
L 41.553803 198.992 
" clip-path="url(#pddaf955d03)" style="fill: none; stroke: #1a1a1a; stroke-linecap: square"/>
   </g>
   <g id="line2d_88">
    <path d="M 261.230275 193.764444 
L 261.230275 198.992 
" clip-path="url(#pddaf955d03)" style="fill: none; stroke: #1a1a1a; stroke-linecap: square"/>
   </g>
   <g id="line2d_89">
    <g clip-path="url(#pddaf955d03)">
     <use xlink:href="#m0586a7a323" x="305.908342" y="196.378222" style="fill-opacity: 0; stroke: #1a1a1a"/>
    </g>
   </g>
   <g id="patch_37">
    <path d="M 60.314926 201.605778 
L 60.314926 212.060889 
L 107.331747 212.060889 
L 107.331747 201.605778 
L 60.314926 201.605778 
z
" clip-path="url(#pddaf955d03)" style="fill: #627a68; stroke: #1a1a1a; stroke-linejoin: miter"/>
   </g>
   <g id="line2d_90">
    <path d="M 60.314926 206.833333 
L 55.610314 206.833333 
" clip-path="url(#pddaf955d03)" style="fill: none; stroke: #1a1a1a"/>
   </g>
   <g id="line2d_91">
    <path d="M 107.331747 206.833333 
L 171.886166 206.833333 
" clip-path="url(#pddaf955d03)" style="fill: none; stroke: #1a1a1a"/>
   </g>
   <g id="line2d_92">
    <path d="M 55.610314 204.219556 
L 55.610314 209.447111 
" clip-path="url(#pddaf955d03)" style="fill: none; stroke: #1a1a1a; stroke-linecap: square"/>
   </g>
   <g id="line2d_93">
    <path d="M 171.886166 204.219556 
L 171.886166 209.447111 
" clip-path="url(#pddaf955d03)" style="fill: none; stroke: #1a1a1a; stroke-linecap: square"/>
   </g>
   <g id="line2d_94">
    <g clip-path="url(#pddaf955d03)">
     <use xlink:href="#m0586a7a323" x="213.304515" y="206.833333" style="fill-opacity: 0; stroke: #1a1a1a"/>
     <use xlink:href="#m0586a7a323" x="213.304515" y="206.833333" style="fill-opacity: 0; stroke: #1a1a1a"/>
    </g>
   </g>
   <g id="patch_38">
    <path d="M 114.156474 212.060889 
L 114.156474 222.516 
L 186.274392 222.516 
L 186.274392 212.060889 
L 114.156474 212.060889 
z
" clip-path="url(#pddaf955d03)" style="fill: #a7def2; stroke: #1a1a1a; stroke-linejoin: miter"/>
   </g>
   <g id="line2d_95">
    <path d="M 114.156474 217.288444 
L 82.661636 217.288444 
" clip-path="url(#pddaf955d03)" style="fill: none; stroke: #1a1a1a"/>
   </g>
   <g id="line2d_96">
    <path d="M 186.274392 217.288444 
L 263.36224 217.288444 
" clip-path="url(#pddaf955d03)" style="fill: none; stroke: #1a1a1a"/>
   </g>
   <g id="line2d_97">
    <path d="M 82.661636 214.674667 
L 82.661636 219.902222 
" clip-path="url(#pddaf955d03)" style="fill: none; stroke: #1a1a1a; stroke-linecap: square"/>
   </g>
   <g id="line2d_98">
    <path d="M 263.36224 214.674667 
L 263.36224 219.902222 
" clip-path="url(#pddaf955d03)" style="fill: none; stroke: #1a1a1a; stroke-linecap: square"/>
   </g>
   <g id="line2d_99"/>
   <g id="line2d_100">
    <path d="M 82.923078 34.324 
L 82.923078 44.779111 
" clip-path="url(#pddaf955d03)" style="fill: none; stroke: #1a1a1a"/>
   </g>
   <g id="line2d_101">
    <path d="M 154.526414 44.779111 
L 154.526414 55.234222 
" clip-path="url(#pddaf955d03)" style="fill: none; stroke: #1a1a1a"/>
   </g>
   <g id="line2d_102">
    <path d="M 125.179205 55.234222 
L 125.179205 65.689333 
" clip-path="url(#pddaf955d03)" style="fill: none; stroke: #1a1a1a"/>
   </g>
   <g id="line2d_103">
    <path d="M 155.012293 65.689333 
L 155.012293 76.144444 
" clip-path="url(#pddaf955d03)" style="fill: none; stroke: #1a1a1a"/>
   </g>
   <g id="line2d_104">
    <path d="M 94.459402 76.144444 
L 94.459402 86.599556 
" clip-path="url(#pddaf955d03)" style="fill: none; stroke: #1a1a1a"/>
   </g>
   <g id="line2d_105">
    <path d="M 103.942319 86.599556 
L 103.942319 97.054667 
" clip-path="url(#pddaf955d03)" style="fill: none; stroke: #1a1a1a"/>
   </g>
   <g id="line2d_106">
    <path d="M 82.504516 97.054667 
L 82.504516 107.509778 
" clip-path="url(#pddaf955d03)" style="fill: none; stroke: #1a1a1a"/>
   </g>
   <g id="line2d_107">
    <path d="M 82.038407 107.509778 
L 82.038407 117.964889 
" clip-path="url(#pddaf955d03)" style="fill: none; stroke: #1a1a1a"/>
   </g>
   <g id="line2d_108">
    <path d="M 171.761661 117.964889 
L 171.761661 128.42 
" clip-path="url(#pddaf955d03)" style="fill: none; stroke: #1a1a1a"/>
   </g>
   <g id="line2d_109">
    <path d="M 97.385151 128.42 
L 97.385151 138.875111 
" clip-path="url(#pddaf955d03)" style="fill: none; stroke: #1a1a1a"/>
   </g>
   <g id="line2d_110">
    <path d="M 113.948028 138.875111 
L 113.948028 149.330222 
" clip-path="url(#pddaf955d03)" style="fill: none; stroke: #1a1a1a"/>
   </g>
   <g id="line2d_111">
    <path d="M 66.931907 149.330222 
L 66.931907 159.785333 
" clip-path="url(#pddaf955d03)" style="fill: none; stroke: #1a1a1a"/>
   </g>
   <g id="line2d_112">
    <path d="M 287.139358 159.785333 
L 287.139358 170.240444 
" clip-path="url(#pddaf955d03)" style="fill: none; stroke: #1a1a1a"/>
   </g>
   <g id="line2d_113">
    <path d="M 29.522727 170.240444 
L 29.522727 180.695556 
" clip-path="url(#pddaf955d03)" style="fill: none; stroke: #1a1a1a"/>
   </g>
   <g id="line2d_114">
    <path d="M 90.16297 180.695556 
L 90.16297 191.150667 
" clip-path="url(#pddaf955d03)" style="fill: none; stroke: #1a1a1a"/>
   </g>
   <g id="line2d_115">
    <path d="M 146.044125 191.150667 
L 146.044125 201.605778 
" clip-path="url(#pddaf955d03)" style="fill: none; stroke: #1a1a1a"/>
   </g>
   <g id="line2d_116">
    <path d="M 86.229808 201.605778 
L 86.229808 212.060889 
" clip-path="url(#pddaf955d03)" style="fill: none; stroke: #1a1a1a"/>
   </g>
   <g id="line2d_117">
    <path d="M 127.752911 212.060889 
L 127.752911 222.516 
" clip-path="url(#pddaf955d03)" style="fill: none; stroke: #1a1a1a"/>
   </g>
   <g id="patch_39">
    <path d="M 14.3 246.04 
L 14.3 10.8 
" style="fill: none; stroke: #000000; stroke-width: 0.8; stroke-linejoin: miter; stroke-linecap: square"/>
   </g>
   <g id="patch_40">
    <path d="M 349.2 246.04 
L 349.2 10.8 
" style="fill: none; stroke: #000000; stroke-width: 0.8; stroke-linejoin: miter; stroke-linecap: square"/>
   </g>
   <g id="patch_41">
    <path d="M 14.3 246.04 
L 349.2 246.04 
" style="fill: none; stroke: #000000; stroke-width: 0.8; stroke-linejoin: miter; stroke-linecap: square"/>
   </g>
   <g id="patch_42">
    <path d="M 14.3 10.8 
L 349.2 10.8 
" style="fill: none; stroke: #000000; stroke-width: 0.8; stroke-linejoin: miter; stroke-linecap: square"/>
   </g>
   <g id="legend_1">
    <g id="patch_43">
     <path d="M 232.926562 150.903125 
L 342.2 150.903125 
Q 344.2 150.903125 344.2 148.903125 
L 344.2 17.8 
Q 344.2 15.8 342.2 15.8 
L 232.926562 15.8 
Q 230.926562 15.8 230.926562 17.8 
L 230.926562 148.903125 
Q 230.926562 150.903125 232.926562 150.903125 
z
" style="fill: #ffffff; opacity: 0.8; stroke: #cccccc; stroke-linejoin: miter"/>
    </g>
    <g id="patch_44">
     <path d="M 234.926562 27.398438 
L 254.926562 27.398438 
L 254.926562 20.398438 
L 234.926562 20.398438 
z
" style="fill: #bc1b1b; stroke: #1a1a1a; stroke-linejoin: miter"/>
    </g>
    <g id="text_10">
     <!-- AT -->
     <g transform="translate(262.926562 27.398438)scale(0.1 -0.1)">
      <defs>
       <path id="DejaVuSans-41" d="M 2188 4044 
L 1331 1722 
L 3047 1722 
L 2188 4044 
z
M 1831 4666 
L 2547 4666 
L 4325 0 
L 3669 0 
L 3244 1197 
L 1141 1197 
L 716 0 
L 50 0 
L 1831 4666 
z
" transform="scale(0.015625)"/>
       <path id="DejaVuSans-54" d="M -19 4666 
L 3928 4666 
L 3928 4134 
L 2272 4134 
L 2272 0 
L 1638 0 
L 1638 4134 
L -19 4134 
L -19 4666 
z
" transform="scale(0.015625)"/>
      </defs>
      <use xlink:href="#DejaVuSans-41"/>
      <use xlink:href="#DejaVuSans-54" x="60.658203"/>
     </g>
    </g>
    <g id="patch_45">
     <path d="M 234.926562 42.076563 
L 254.926562 42.076563 
L 254.926562 35.076563 
L 234.926562 35.076563 
z
" style="fill: #9054e7; stroke: #1a1a1a; stroke-linejoin: miter"/>
    </g>
    <g id="text_11">
     <!-- BE -->
     <g transform="translate(262.926562 42.076563)scale(0.1 -0.1)">
      <defs>
       <path id="DejaVuSans-42" d="M 1259 2228 
L 1259 519 
L 2272 519 
Q 2781 519 3026 730 
Q 3272 941 3272 1375 
Q 3272 1813 3026 2020 
Q 2781 2228 2272 2228 
L 1259 2228 
z
M 1259 4147 
L 1259 2741 
L 2194 2741 
Q 2656 2741 2882 2914 
Q 3109 3088 3109 3444 
Q 3109 3797 2882 3972 
Q 2656 4147 2194 4147 
L 1259 4147 
z
M 628 4666 
L 2241 4666 
Q 2963 4666 3353 4366 
Q 3744 4066 3744 3513 
Q 3744 3084 3544 2831 
Q 3344 2578 2956 2516 
Q 3422 2416 3680 2098 
Q 3938 1781 3938 1306 
Q 3938 681 3513 340 
Q 3088 0 2303 0 
L 628 0 
L 628 4666 
z
" transform="scale(0.015625)"/>
       <path id="DejaVuSans-45" d="M 628 4666 
L 3578 4666 
L 3578 4134 
L 1259 4134 
L 1259 2753 
L 3481 2753 
L 3481 2222 
L 1259 2222 
L 1259 531 
L 3634 531 
L 3634 0 
L 628 0 
L 628 4666 
z
" transform="scale(0.015625)"/>
      </defs>
      <use xlink:href="#DejaVuSans-42"/>
      <use xlink:href="#DejaVuSans-45" x="68.603516"/>
     </g>
    </g>
    <g id="patch_46">
     <path d="M 234.926562 56.754687 
L 254.926562 56.754687 
L 254.926562 49.754687 
L 234.926562 49.754687 
z
" style="fill: #127711; stroke: #1a1a1a; stroke-linejoin: miter"/>
    </g>
    <g id="text_12">
     <!-- BG -->
     <g transform="translate(262.926562 56.754687)scale(0.1 -0.1)">
      <defs>
       <path id="DejaVuSans-47" d="M 3809 666 
L 3809 1919 
L 2778 1919 
L 2778 2438 
L 4434 2438 
L 4434 434 
Q 4069 175 3628 42 
Q 3188 -91 2688 -91 
Q 1594 -91 976 548 
Q 359 1188 359 2328 
Q 359 3472 976 4111 
Q 1594 4750 2688 4750 
Q 3144 4750 3555 4637 
Q 3966 4525 4313 4306 
L 4313 3634 
Q 3963 3931 3569 4081 
Q 3175 4231 2741 4231 
Q 1884 4231 1454 3753 
Q 1025 3275 1025 2328 
Q 1025 1384 1454 906 
Q 1884 428 2741 428 
Q 3075 428 3337 486 
Q 3600 544 3809 666 
z
" transform="scale(0.015625)"/>
      </defs>
      <use xlink:href="#DejaVuSans-42"/>
      <use xlink:href="#DejaVuSans-47" x="66.853516"/>
     </g>
    </g>
    <g id="patch_47">
     <path d="M 234.926562 71.432813 
L 254.926562 71.432813 
L 254.926562 64.432813 
L 234.926562 64.432813 
z
" style="fill: #199aae; stroke: #1a1a1a; stroke-linejoin: miter"/>
    </g>
    <g id="text_13">
     <!-- CY -->
     <g transform="translate(262.926562 71.432813)scale(0.1 -0.1)">
      <defs>
       <path id="DejaVuSans-43" d="M 4122 4306 
L 4122 3641 
Q 3803 3938 3442 4084 
Q 3081 4231 2675 4231 
Q 1875 4231 1450 3742 
Q 1025 3253 1025 2328 
Q 1025 1406 1450 917 
Q 1875 428 2675 428 
Q 3081 428 3442 575 
Q 3803 722 4122 1019 
L 4122 359 
Q 3791 134 3420 21 
Q 3050 -91 2638 -91 
Q 1578 -91 968 557 
Q 359 1206 359 2328 
Q 359 3453 968 4101 
Q 1578 4750 2638 4750 
Q 3056 4750 3426 4639 
Q 3797 4528 4122 4306 
z
" transform="scale(0.015625)"/>
       <path id="DejaVuSans-59" d="M -13 4666 
L 666 4666 
L 1959 2747 
L 3244 4666 
L 3922 4666 
L 2272 2222 
L 2272 0 
L 1638 0 
L 1638 2222 
L -13 4666 
z
" transform="scale(0.015625)"/>
      </defs>
      <use xlink:href="#DejaVuSans-43"/>
      <use xlink:href="#DejaVuSans-59" x="68.074219"/>
     </g>
    </g>
    <g id="patch_48">
     <path d="M 234.926562 86.110938 
L 254.926562 86.110938 
L 254.926562 79.110938 
L 234.926562 79.110938 
z
" style="fill: #ef8fcd; stroke: #1a1a1a; stroke-linejoin: miter"/>
    </g>
    <g id="text_14">
     <!-- DE -->
     <g transform="translate(262.926562 86.110938)scale(0.1 -0.1)">
      <defs>
       <path id="DejaVuSans-44" d="M 1259 4147 
L 1259 519 
L 2022 519 
Q 2988 519 3436 956 
Q 3884 1394 3884 2338 
Q 3884 3275 3436 3711 
Q 2988 4147 2022 4147 
L 1259 4147 
z
M 628 4666 
L 1925 4666 
Q 3281 4666 3915 4102 
Q 4550 3538 4550 2338 
Q 4550 1131 3912 565 
Q 3275 0 1925 0 
L 628 0 
L 628 4666 
z
" transform="scale(0.015625)"/>
      </defs>
      <use xlink:href="#DejaVuSans-44"/>
      <use xlink:href="#DejaVuSans-45" x="77.001953"/>
     </g>
    </g>
    <g id="patch_49">
     <path d="M 234.926562 100.789062 
L 254.926562 100.789062 
L 254.926562 93.789062 
L 234.926562 93.789062 
z
" style="fill: #5e0d49; stroke: #1a1a1a; stroke-linejoin: miter"/>
    </g>
    <g id="text_15">
     <!-- DK -->
     <g transform="translate(262.926562 100.789062)scale(0.1 -0.1)">
      <defs>
       <path id="DejaVuSans-4b" d="M 628 4666 
L 1259 4666 
L 1259 2694 
L 3353 4666 
L 4166 4666 
L 1850 2491 
L 4331 0 
L 3500 0 
L 1259 2247 
L 1259 0 
L 628 0 
L 628 4666 
z
" transform="scale(0.015625)"/>
      </defs>
      <use xlink:href="#DejaVuSans-44"/>
      <use xlink:href="#DejaVuSans-4b" x="77.001953"/>
     </g>
    </g>
    <g id="patch_50">
     <path d="M 234.926562 115.467187 
L 254.926562 115.467187 
L 254.926562 108.467187 
L 234.926562 108.467187 
z
" style="fill: #4d370b; stroke: #1a1a1a; stroke-linejoin: miter"/>
    </g>
    <g id="text_16">
     <!-- EL -->
     <g transform="translate(262.926562 115.467187)scale(0.1 -0.1)">
      <defs>
       <path id="DejaVuSans-4c" d="M 628 4666 
L 1259 4666 
L 1259 531 
L 3531 531 
L 3531 0 
L 628 0 
L 628 4666 
z
" transform="scale(0.015625)"/>
      </defs>
      <use xlink:href="#DejaVuSans-45"/>
      <use xlink:href="#DejaVuSans-4c" x="63.183594"/>
     </g>
    </g>
    <g id="patch_51">
     <path d="M 234.926562 130.145312 
L 254.926562 130.145312 
L 254.926562 123.145312 
L 234.926562 123.145312 
z
" style="fill: #0b4c4e; stroke: #1a1a1a; stroke-linejoin: miter"/>
    </g>
    <g id="text_17">
     <!-- ES -->
     <g transform="translate(262.926562 130.145312)scale(0.1 -0.1)">
      <defs>
       <path id="DejaVuSans-53" d="M 3425 4513 
L 3425 3897 
Q 3066 4069 2747 4153 
Q 2428 4238 2131 4238 
Q 1616 4238 1336 4038 
Q 1056 3838 1056 3469 
Q 1056 3159 1242 3001 
Q 1428 2844 1947 2747 
L 2328 2669 
Q 3034 2534 3370 2195 
Q 3706 1856 3706 1288 
Q 3706 609 3251 259 
Q 2797 -91 1919 -91 
Q 1588 -91 1214 -16 
Q 841 59 441 206 
L 441 856 
Q 825 641 1194 531 
Q 1563 422 1919 422 
Q 2459 422 2753 634 
Q 3047 847 3047 1241 
Q 3047 1584 2836 1778 
Q 2625 1972 2144 2069 
L 1759 2144 
Q 1053 2284 737 2584 
Q 422 2884 422 3419 
Q 422 4038 858 4394 
Q 1294 4750 2059 4750 
Q 2388 4750 2728 4690 
Q 3069 4631 3425 4513 
z
" transform="scale(0.015625)"/>
      </defs>
      <use xlink:href="#DejaVuSans-45"/>
      <use xlink:href="#DejaVuSans-53" x="63.183594"/>
     </g>
    </g>
    <g id="patch_52">
     <path d="M 234.926562 144.823437 
L 254.926562 144.823437 
L 254.926562 137.823437 
L 234.926562 137.823437 
z
" style="fill: #1c1cc1; stroke: #1a1a1a; stroke-linejoin: miter"/>
    </g>
    <g id="text_18">
     <!-- FI -->
     <g transform="translate(262.926562 144.823437)scale(0.1 -0.1)">
      <defs>
       <path id="DejaVuSans-46" d="M 628 4666 
L 3309 4666 
L 3309 4134 
L 1259 4134 
L 1259 2759 
L 3109 2759 
L 3109 2228 
L 1259 2228 
L 1259 0 
L 628 0 
L 628 4666 
z
" transform="scale(0.015625)"/>
       <path id="DejaVuSans-49" d="M 628 4666 
L 1259 4666 
L 1259 0 
L 628 0 
L 628 4666 
z
" transform="scale(0.015625)"/>
      </defs>
      <use xlink:href="#DejaVuSans-46"/>
      <use xlink:href="#DejaVuSans-49" x="57.519531"/>
     </g>
    </g>
    <g id="patch_53">
     <path d="M 297.360937 27.398438 
L 317.360937 27.398438 
L 317.360937 20.398438 
L 297.360937 20.398438 
z
" style="fill: #9a7971; stroke: #1a1a1a; stroke-linejoin: miter"/>
    </g>
    <g id="text_19">
     <!-- HU -->
     <g transform="translate(325.360937 27.398438)scale(0.1 -0.1)">
      <defs>
       <path id="DejaVuSans-55" d="M 556 4666 
L 1191 4666 
L 1191 1831 
Q 1191 1081 1462 751 
Q 1734 422 2344 422 
Q 2950 422 3222 751 
Q 3494 1081 3494 1831 
L 3494 4666 
L 4128 4666 
L 4128 1753 
Q 4128 841 3676 375 
Q 3225 -91 2344 -91 
Q 1459 -91 1007 375 
Q 556 841 556 1753 
L 556 4666 
z
" transform="scale(0.015625)"/>
      </defs>
      <use xlink:href="#DejaVuSans-48"/>
      <use xlink:href="#DejaVuSans-55" x="75.195312"/>
     </g>
    </g>
    <g id="patch_54">
     <path d="M 297.360937 42.076563 
L 317.360937 42.076563 
L 317.360937 35.076563 
L 297.360937 35.076563 
z
" style="fill: #c4c0f6; stroke: #1a1a1a; stroke-linejoin: miter"/>
    </g>
    <g id="text_20">
     <!-- IE -->
     <g transform="translate(325.360937 42.076563)scale(0.1 -0.1)">
      <use xlink:href="#DejaVuSans-49"/>
      <use xlink:href="#DejaVuSans-45" x="29.492188"/>
     </g>
    </g>
    <g id="patch_55">
     <path d="M 297.360937 56.754687 
L 317.360937 56.754687 
L 317.360937 49.754687 
L 297.360937 49.754687 
z
" style="fill: #95ad80; stroke: #1a1a1a; stroke-linejoin: miter"/>
    </g>
    <g id="text_21">
     <!-- IT -->
     <g transform="translate(325.360937 56.754687)scale(0.1 -0.1)">
      <use xlink:href="#DejaVuSans-49"/>
      <use xlink:href="#DejaVuSans-54" x="29.492188"/>
     </g>
    </g>
    <g id="patch_56">
     <path d="M 297.360937 71.432813 
L 317.360937 71.432813 
L 317.360937 64.432813 
L 297.360937 64.432813 
z
" style="fill: #a81ba3; stroke: #1a1a1a; stroke-linejoin: miter"/>
    </g>
    <g id="text_22">
     <!-- LT -->
     <g transform="translate(325.360937 71.432813)scale(0.1 -0.1)">
      <use xlink:href="#DejaVuSans-4c"/>
      <use xlink:href="#DejaVuSans-54" x="41.962891"/>
     </g>
    </g>
    <g id="patch_57">
     <path d="M 297.360937 86.110938 
L 317.360937 86.110938 
L 317.360937 79.110938 
L 297.360937 79.110938 
z
" style="fill: #2173be; stroke: #1a1a1a; stroke-linejoin: miter"/>
    </g>
    <g id="text_23">
     <!-- MT -->
     <g transform="translate(325.360937 86.110938)scale(0.1 -0.1)">
      <defs>
       <path id="DejaVuSans-4d" d="M 628 4666 
L 1569 4666 
L 2759 1491 
L 3956 4666 
L 4897 4666 
L 4897 0 
L 4281 0 
L 4281 4097 
L 3078 897 
L 2444 897 
L 1241 4097 
L 1241 0 
L 628 0 
L 628 4666 
z
" transform="scale(0.015625)"/>
      </defs>
      <use xlink:href="#DejaVuSans-4d"/>
      <use xlink:href="#DejaVuSans-54" x="86.279297"/>
     </g>
    </g>
    <g id="patch_58">
     <path d="M 297.360937 100.789062 
L 317.360937 100.789062 
L 317.360937 93.789062 
L 297.360937 93.789062 
z
" style="fill: #7d6d12; stroke: #1a1a1a; stroke-linejoin: miter"/>
    </g>
    <g id="text_24">
     <!-- PT -->
     <g transform="translate(325.360937 100.789062)scale(0.1 -0.1)">
      <defs>
       <path id="DejaVuSans-50" d="M 1259 4147 
L 1259 2394 
L 2053 2394 
Q 2494 2394 2734 2622 
Q 2975 2850 2975 3272 
Q 2975 3691 2734 3919 
Q 2494 4147 2053 4147 
L 1259 4147 
z
M 628 4666 
L 2053 4666 
Q 2838 4666 3239 4311 
Q 3641 3956 3641 3272 
Q 3641 2581 3239 2228 
Q 2838 1875 2053 1875 
L 1259 1875 
L 1259 0 
L 628 0 
L 628 4666 
z
" transform="scale(0.015625)"/>
      </defs>
      <use xlink:href="#DejaVuSans-50"/>
      <use xlink:href="#DejaVuSans-54" x="60.302734"/>
     </g>
    </g>
    <g id="patch_59">
     <path d="M 297.360937 115.467187 
L 317.360937 115.467187 
L 317.360937 108.467187 
L 297.360937 108.467187 
z
" style="fill: #ec8279; stroke: #1a1a1a; stroke-linejoin: miter"/>
    </g>
    <g id="text_25">
     <!-- RO -->
     <g transform="translate(325.360937 115.467187)scale(0.1 -0.1)">
      <defs>
       <path id="DejaVuSans-52" d="M 2841 2188 
Q 3044 2119 3236 1894 
Q 3428 1669 3622 1275 
L 4263 0 
L 3584 0 
L 2988 1197 
Q 2756 1666 2539 1819 
Q 2322 1972 1947 1972 
L 1259 1972 
L 1259 0 
L 628 0 
L 628 4666 
L 2053 4666 
Q 2853 4666 3247 4331 
Q 3641 3997 3641 3322 
Q 3641 2881 3436 2590 
Q 3231 2300 2841 2188 
z
M 1259 4147 
L 1259 2491 
L 2053 2491 
Q 2509 2491 2742 2702 
Q 2975 2913 2975 3322 
Q 2975 3731 2742 3939 
Q 2509 4147 2053 4147 
L 1259 4147 
z
" transform="scale(0.015625)"/>
       <path id="DejaVuSans-4f" d="M 2522 4238 
Q 1834 4238 1429 3725 
Q 1025 3213 1025 2328 
Q 1025 1447 1429 934 
Q 1834 422 2522 422 
Q 3209 422 3611 934 
Q 4013 1447 4013 2328 
Q 4013 3213 3611 3725 
Q 3209 4238 2522 4238 
z
M 2522 4750 
Q 3503 4750 4090 4092 
Q 4678 3434 4678 2328 
Q 4678 1225 4090 567 
Q 3503 -91 2522 -91 
Q 1538 -91 948 565 
Q 359 1222 359 2328 
Q 359 3434 948 4092 
Q 1538 4750 2522 4750 
z
" transform="scale(0.015625)"/>
      </defs>
      <use xlink:href="#DejaVuSans-52"/>
      <use xlink:href="#DejaVuSans-4f" x="69.482422"/>
     </g>
    </g>
    <g id="patch_60">
     <path d="M 297.360937 130.145312 
L 317.360937 130.145312 
L 317.360937 123.145312 
L 297.360937 123.145312 
z
" style="fill: #627a68; stroke: #1a1a1a; stroke-linejoin: miter"/>
    </g>
    <g id="text_26">
     <!-- SI -->
     <g transform="translate(325.360937 130.145312)scale(0.1 -0.1)">
      <use xlink:href="#DejaVuSans-53"/>
      <use xlink:href="#DejaVuSans-49" x="63.476562"/>
     </g>
    </g>
    <g id="patch_61">
     <path d="M 297.360937 144.823437 
L 317.360937 144.823437 
L 317.360937 137.823437 
L 297.360937 137.823437 
z
" style="fill: #a7def2; stroke: #1a1a1a; stroke-linejoin: miter"/>
    </g>
    <g id="text_27">
     <!-- SK -->
     <g transform="translate(325.360937 144.823437)scale(0.1 -0.1)">
      <use xlink:href="#DejaVuSans-53"/>
      <use xlink:href="#DejaVuSans-4b" x="63.476562"/>
     </g>
    </g>
   </g>
  </g>
 </g>
 <defs>
  <clipPath id="pddaf955d03">
   <rect x="14.3" y="10.8" width="334.9" height="235.24"/>
  </clipPath>
 </defs>
</svg>
