<?xml version="1.0" encoding="utf-8" standalone="no"?>
<!DOCTYPE svg PUBLIC "-//W3C//DTD SVG 1.1//EN"
  "http://www.w3.org/Graphics/SVG/1.1/DTD/svg11.dtd">
<svg xmlns:xlink="http://www.w3.org/1999/xlink" width="360pt" height="288pt" viewBox="0 0 360 288" xmlns="http://www.w3.org/2000/svg" version="1.1">
 <metadata>
  <rdf:RDF xmlns:dc="http://purl.org/dc/elements/1.1/" xmlns:cc="http://creativecommons.org/ns#" xmlns:rdf="http://www.w3.org/1999/02/22-rdf-syntax-ns#">
   <cc:Work>
    <dc:type rdf:resource="http://purl.org/dc/dcmitype/StillImage"/>
    <dc:date>2024-01-29T16:48:24.068087</dc:date>
    <dc:format>image/svg+xml</dc:format>
    <dc:creator>
     <cc:Agent>
      <dc:title>Matplotlib v3.5.1, https://matplotlib.org/</dc:title>
     </cc:Agent>
    </dc:creator>
   </cc:Work>
  </rdf:RDF>
 </metadata>
 <defs>
  <style type="text/css">*{stroke-linejoin: round; stroke-linecap: butt}</style>
 </defs>
 <g id="figure_1">
  <g id="patch_1">
   <path d="M 0 288 
L 360 288 
L 360 0 
L 0 0 
L 0 288 
z
" style="fill: none"/>
  </g>
  <g id="axes_1">
   <g id="patch_2">
    <path d="M 14.3 246.04 
L 349.2 246.04 
L 349.2 10.8 
L 14.3 10.8 
L 14.3 246.04 
z
" style="fill: none"/>
   </g>
   <g id="patch_3">
    <path d="M 29.212315 128.42 
L 29.212315 128.42 
L 29.212315 128.42 
L 29.212315 128.42 
z
" clip-path="url(#p0fb3116bc2)" style="fill: #bc1b1b; stroke: #171717; stroke-linejoin: miter"/>
   </g>
   <g id="patch_4">
    <path d="M 29.212315 128.42 
L 29.212315 128.42 
L 29.212315 128.42 
L 29.212315 128.42 
z
" clip-path="url(#p0fb3116bc2)" style="fill: #9054e7; stroke: #171717; stroke-linejoin: miter"/>
   </g>
   <g id="patch_5">
    <path d="M 29.212315 128.42 
L 29.212315 128.42 
L 29.212315 128.42 
L 29.212315 128.42 
z
" clip-path="url(#p0fb3116bc2)" style="fill: #127711; stroke: #171717; stroke-linejoin: miter"/>
   </g>
   <g id="patch_6">
    <path d="M 29.212315 128.42 
L 29.212315 128.42 
L 29.212315 128.42 
L 29.212315 128.42 
z
" clip-path="url(#p0fb3116bc2)" style="fill: #92df20; stroke: #171717; stroke-linejoin: miter"/>
   </g>
   <g id="patch_7">
    <path d="M 29.212315 128.42 
L 29.212315 128.42 
L 29.212315 128.42 
L 29.212315 128.42 
z
" clip-path="url(#p0fb3116bc2)" style="fill: #ef8fcd; stroke: #171717; stroke-linejoin: miter"/>
   </g>
   <g id="patch_8">
    <path d="M 29.212315 128.42 
L 29.212315 128.42 
L 29.212315 128.42 
L 29.212315 128.42 
z
" clip-path="url(#p0fb3116bc2)" style="fill: #5e0d49; stroke: #171717; stroke-linejoin: miter"/>
   </g>
   <g id="patch_9">
    <path d="M 29.212315 128.42 
L 29.212315 128.42 
L 29.212315 128.42 
L 29.212315 128.42 
z
" clip-path="url(#p0fb3116bc2)" style="fill: #4d370b; stroke: #171717; stroke-linejoin: miter"/>
   </g>
   <g id="patch_10">
    <path d="M 29.212315 128.42 
L 29.212315 128.42 
L 29.212315 128.42 
L 29.212315 128.42 
z
" clip-path="url(#p0fb3116bc2)" style="fill: #0b4c4e; stroke: #171717; stroke-linejoin: miter"/>
   </g>
   <g id="patch_11">
    <path d="M 29.212315 128.42 
L 29.212315 128.42 
L 29.212315 128.42 
L 29.212315 128.42 
z
" clip-path="url(#p0fb3116bc2)" style="fill: #1c1cc1; stroke: #171717; stroke-linejoin: miter"/>
   </g>
   <g id="patch_12">
    <path d="M 29.212315 128.42 
L 29.212315 128.42 
L 29.212315 128.42 
L 29.212315 128.42 
z
" clip-path="url(#p0fb3116bc2)" style="fill: #c4c0f6; stroke: #171717; stroke-linejoin: miter"/>
   </g>
   <g id="patch_13">
    <path d="M 29.212315 128.42 
L 29.212315 128.42 
L 29.212315 128.42 
L 29.212315 128.42 
z
" clip-path="url(#p0fb3116bc2)" style="fill: #95ad80; stroke: #171717; stroke-linejoin: miter"/>
   </g>
   <g id="patch_14">
    <path d="M 29.212315 128.42 
L 29.212315 128.42 
L 29.212315 128.42 
L 29.212315 128.42 
z
" clip-path="url(#p0fb3116bc2)" style="fill: #a81ba3; stroke: #171717; stroke-linejoin: miter"/>
   </g>
   <g id="patch_15">
    <path d="M 29.212315 128.42 
L 29.212315 128.42 
L 29.212315 128.42 
L 29.212315 128.42 
z
" clip-path="url(#p0fb3116bc2)" style="fill: #6a0f0f; stroke: #171717; stroke-linejoin: miter"/>
   </g>
   <g id="patch_16">
    <path d="M 29.212315 128.42 
L 29.212315 128.42 
L 29.212315 128.42 
L 29.212315 128.42 
z
" clip-path="url(#p0fb3116bc2)" style="fill: #2173be; stroke: #171717; stroke-linejoin: miter"/>
   </g>
   <g id="patch_17">
    <path d="M 29.212315 128.42 
L 29.212315 128.42 
L 29.212315 128.42 
L 29.212315 128.42 
z
" clip-path="url(#p0fb3116bc2)" style="fill: #f0e99e; stroke: #171717; stroke-linejoin: miter"/>
   </g>
   <g id="patch_18">
    <path d="M 29.212315 128.42 
L 29.212315 128.42 
L 29.212315 128.42 
L 29.212315 128.42 
z
" clip-path="url(#p0fb3116bc2)" style="fill: #094209; stroke: #171717; stroke-linejoin: miter"/>
   </g>
   <g id="patch_19">
    <path d="M 29.212315 128.42 
L 29.212315 128.42 
L 29.212315 128.42 
L 29.212315 128.42 
z
" clip-path="url(#p0fb3116bc2)" style="fill: #7d6d12; stroke: #171717; stroke-linejoin: miter"/>
   </g>
   <g id="patch_20">
    <path d="M 29.212315 128.42 
L 29.212315 128.42 
L 29.212315 128.42 
L 29.212315 128.42 
z
" clip-path="url(#p0fb3116bc2)" style="fill: #ec8279; stroke: #171717; stroke-linejoin: miter"/>
   </g>
   <g id="patch_21">
    <path d="M 29.212315 128.42 
L 29.212315 128.42 
L 29.212315 128.42 
L 29.212315 128.42 
z
" clip-path="url(#p0fb3116bc2)" style="fill: #e7c0c0; stroke: #171717; stroke-linejoin: miter"/>
   </g>
   <g id="patch_22">
    <path d="M 29.212315 128.42 
L 29.212315 128.42 
L 29.212315 128.42 
L 29.212315 128.42 
z
" clip-path="url(#p0fb3116bc2)" style="fill: #627a68; stroke: #171717; stroke-linejoin: miter"/>
   </g>
   <g id="patch_23">
    <path d="M 29.212315 128.42 
L 29.212315 128.42 
L 29.212315 128.42 
L 29.212315 128.42 
z
" clip-path="url(#p0fb3116bc2)" style="fill: #a7def2; stroke: #171717; stroke-linejoin: miter"/>
   </g>
   <g id="matplotlib.axis_1">
    <g id="xtick_1">
     <g id="line2d_1">
      <defs>
       <path id="mfe8c0a2044" d="M 0 0 
L 0 3.5 
" style="stroke: #000000; stroke-width: 0.8"/>
      </defs>
      <g>
       <use xlink:href="#mfe8c0a2044" x="29.212315" y="246.04" style="stroke: #000000; stroke-width: 0.8"/>
      </g>
     </g>
     <g id="text_1">
      <!-- 0 -->
      <g transform="translate(26.031065 260.638438)scale(0.1 -0.1)">
       <defs>
        <path id="DejaVuSans-30" d="M 2034 4250 
Q 1547 4250 1301 3770 
Q 1056 3291 1056 2328 
Q 1056 1369 1301 889 
Q 1547 409 2034 409 
Q 2525 409 2770 889 
Q 3016 1369 3016 2328 
Q 3016 3291 2770 3770 
Q 2525 4250 2034 4250 
z
M 2034 4750 
Q 2819 4750 3233 4129 
Q 3647 3509 3647 2328 
Q 3647 1150 3233 529 
Q 2819 -91 2034 -91 
Q 1250 -91 836 529 
Q 422 1150 422 2328 
Q 422 3509 836 4129 
Q 1250 4750 2034 4750 
z
" transform="scale(0.015625)"/>
       </defs>
       <use xlink:href="#DejaVuSans-30"/>
      </g>
     </g>
    </g>
    <g id="xtick_2">
     <g id="line2d_2">
      <g>
       <use xlink:href="#mfe8c0a2044" x="94.230542" y="246.04" style="stroke: #000000; stroke-width: 0.8"/>
      </g>
     </g>
     <g id="text_2">
      <!-- 1000 -->
      <g transform="translate(81.505542 260.638438)scale(0.1 -0.1)">
       <defs>
        <path id="DejaVuSans-31" d="M 794 531 
L 1825 531 
L 1825 4091 
L 703 3866 
L 703 4441 
L 1819 4666 
L 2450 4666 
L 2450 531 
L 3481 531 
L 3481 0 
L 794 0 
L 794 531 
z
" transform="scale(0.015625)"/>
       </defs>
       <use xlink:href="#DejaVuSans-31"/>
       <use xlink:href="#DejaVuSans-30" x="63.623047"/>
       <use xlink:href="#DejaVuSans-30" x="127.246094"/>
       <use xlink:href="#DejaVuSans-30" x="190.869141"/>
      </g>
     </g>
    </g>
    <g id="xtick_3">
     <g id="line2d_3">
      <g>
       <use xlink:href="#mfe8c0a2044" x="159.248769" y="246.04" style="stroke: #000000; stroke-width: 0.8"/>
      </g>
     </g>
     <g id="text_3">
      <!-- 2000 -->
      <g transform="translate(146.523769 260.638438)scale(0.1 -0.1)">
       <defs>
        <path id="DejaVuSans-32" d="M 1228 531 
L 3431 531 
L 3431 0 
L 469 0 
L 469 531 
Q 828 903 1448 1529 
Q 2069 2156 2228 2338 
Q 2531 2678 2651 2914 
Q 2772 3150 2772 3378 
Q 2772 3750 2511 3984 
Q 2250 4219 1831 4219 
Q 1534 4219 1204 4116 
Q 875 4013 500 3803 
L 500 4441 
Q 881 4594 1212 4672 
Q 1544 4750 1819 4750 
Q 2544 4750 2975 4387 
Q 3406 4025 3406 3419 
Q 3406 3131 3298 2873 
Q 3191 2616 2906 2266 
Q 2828 2175 2409 1742 
Q 1991 1309 1228 531 
z
" transform="scale(0.015625)"/>
       </defs>
       <use xlink:href="#DejaVuSans-32"/>
       <use xlink:href="#DejaVuSans-30" x="63.623047"/>
       <use xlink:href="#DejaVuSans-30" x="127.246094"/>
       <use xlink:href="#DejaVuSans-30" x="190.869141"/>
      </g>
     </g>
    </g>
    <g id="xtick_4">
     <g id="line2d_4">
      <g>
       <use xlink:href="#mfe8c0a2044" x="224.266996" y="246.04" style="stroke: #000000; stroke-width: 0.8"/>
      </g>
     </g>
     <g id="text_4">
      <!-- 3000 -->
      <g transform="translate(211.541996 260.638438)scale(0.1 -0.1)">
       <defs>
        <path id="DejaVuSans-33" d="M 2597 2516 
Q 3050 2419 3304 2112 
Q 3559 1806 3559 1356 
Q 3559 666 3084 287 
Q 2609 -91 1734 -91 
Q 1441 -91 1130 -33 
Q 819 25 488 141 
L 488 750 
Q 750 597 1062 519 
Q 1375 441 1716 441 
Q 2309 441 2620 675 
Q 2931 909 2931 1356 
Q 2931 1769 2642 2001 
Q 2353 2234 1838 2234 
L 1294 2234 
L 1294 2753 
L 1863 2753 
Q 2328 2753 2575 2939 
Q 2822 3125 2822 3475 
Q 2822 3834 2567 4026 
Q 2313 4219 1838 4219 
Q 1578 4219 1281 4162 
Q 984 4106 628 3988 
L 628 4550 
Q 988 4650 1302 4700 
Q 1616 4750 1894 4750 
Q 2613 4750 3031 4423 
Q 3450 4097 3450 3541 
Q 3450 3153 3228 2886 
Q 3006 2619 2597 2516 
z
" transform="scale(0.015625)"/>
       </defs>
       <use xlink:href="#DejaVuSans-33"/>
       <use xlink:href="#DejaVuSans-30" x="63.623047"/>
       <use xlink:href="#DejaVuSans-30" x="127.246094"/>
       <use xlink:href="#DejaVuSans-30" x="190.869141"/>
      </g>
     </g>
    </g>
    <g id="xtick_5">
     <g id="line2d_5">
      <g>
       <use xlink:href="#mfe8c0a2044" x="289.285223" y="246.04" style="stroke: #000000; stroke-width: 0.8"/>
      </g>
     </g>
     <g id="text_5">
      <!-- 4000 -->
      <g transform="translate(276.560223 260.638438)scale(0.1 -0.1)">
       <defs>
        <path id="DejaVuSans-34" d="M 2419 4116 
L 825 1625 
L 2419 1625 
L 2419 4116 
z
M 2253 4666 
L 3047 4666 
L 3047 1625 
L 3713 1625 
L 3713 1100 
L 3047 1100 
L 3047 0 
L 2419 0 
L 2419 1100 
L 313 1100 
L 313 1709 
L 2253 4666 
z
" transform="scale(0.015625)"/>
       </defs>
       <use xlink:href="#DejaVuSans-34"/>
       <use xlink:href="#DejaVuSans-30" x="63.623047"/>
       <use xlink:href="#DejaVuSans-30" x="127.246094"/>
       <use xlink:href="#DejaVuSans-30" x="190.869141"/>
      </g>
     </g>
    </g>
    <g id="text_6">
     <!-- Number of Thefts -->
     <g transform="translate(138.129687 274.316562)scale(0.1 -0.1)">
      <defs>
       <path id="DejaVuSans-4e" d="M 628 4666 
L 1478 4666 
L 3547 763 
L 3547 4666 
L 4159 4666 
L 4159 0 
L 3309 0 
L 1241 3903 
L 1241 0 
L 628 0 
L 628 4666 
z
" transform="scale(0.015625)"/>
       <path id="DejaVuSans-75" d="M 544 1381 
L 544 3500 
L 1119 3500 
L 1119 1403 
Q 1119 906 1312 657 
Q 1506 409 1894 409 
Q 2359 409 2629 706 
Q 2900 1003 2900 1516 
L 2900 3500 
L 3475 3500 
L 3475 0 
L 2900 0 
L 2900 538 
Q 2691 219 2414 64 
Q 2138 -91 1772 -91 
Q 1169 -91 856 284 
Q 544 659 544 1381 
z
M 1991 3584 
L 1991 3584 
z
" transform="scale(0.015625)"/>
       <path id="DejaVuSans-6d" d="M 3328 2828 
Q 3544 3216 3844 3400 
Q 4144 3584 4550 3584 
Q 5097 3584 5394 3201 
Q 5691 2819 5691 2113 
L 5691 0 
L 5113 0 
L 5113 2094 
Q 5113 2597 4934 2840 
Q 4756 3084 4391 3084 
Q 3944 3084 3684 2787 
Q 3425 2491 3425 1978 
L 3425 0 
L 2847 0 
L 2847 2094 
Q 2847 2600 2669 2842 
Q 2491 3084 2119 3084 
Q 1678 3084 1418 2786 
Q 1159 2488 1159 1978 
L 1159 0 
L 581 0 
L 581 3500 
L 1159 3500 
L 1159 2956 
Q 1356 3278 1631 3431 
Q 1906 3584 2284 3584 
Q 2666 3584 2933 3390 
Q 3200 3197 3328 2828 
z
" transform="scale(0.015625)"/>
       <path id="DejaVuSans-62" d="M 3116 1747 
Q 3116 2381 2855 2742 
Q 2594 3103 2138 3103 
Q 1681 3103 1420 2742 
Q 1159 2381 1159 1747 
Q 1159 1113 1420 752 
Q 1681 391 2138 391 
Q 2594 391 2855 752 
Q 3116 1113 3116 1747 
z
M 1159 2969 
Q 1341 3281 1617 3432 
Q 1894 3584 2278 3584 
Q 2916 3584 3314 3078 
Q 3713 2572 3713 1747 
Q 3713 922 3314 415 
Q 2916 -91 2278 -91 
Q 1894 -91 1617 61 
Q 1341 213 1159 525 
L 1159 0 
L 581 0 
L 581 4863 
L 1159 4863 
L 1159 2969 
z
" transform="scale(0.015625)"/>
       <path id="DejaVuSans-65" d="M 3597 1894 
L 3597 1613 
L 953 1613 
Q 991 1019 1311 708 
Q 1631 397 2203 397 
Q 2534 397 2845 478 
Q 3156 559 3463 722 
L 3463 178 
Q 3153 47 2828 -22 
Q 2503 -91 2169 -91 
Q 1331 -91 842 396 
Q 353 884 353 1716 
Q 353 2575 817 3079 
Q 1281 3584 2069 3584 
Q 2775 3584 3186 3129 
Q 3597 2675 3597 1894 
z
M 3022 2063 
Q 3016 2534 2758 2815 
Q 2500 3097 2075 3097 
Q 1594 3097 1305 2825 
Q 1016 2553 972 2059 
L 3022 2063 
z
" transform="scale(0.015625)"/>
       <path id="DejaVuSans-72" d="M 2631 2963 
Q 2534 3019 2420 3045 
Q 2306 3072 2169 3072 
Q 1681 3072 1420 2755 
Q 1159 2438 1159 1844 
L 1159 0 
L 581 0 
L 581 3500 
L 1159 3500 
L 1159 2956 
Q 1341 3275 1631 3429 
Q 1922 3584 2338 3584 
Q 2397 3584 2469 3576 
Q 2541 3569 2628 3553 
L 2631 2963 
z
" transform="scale(0.015625)"/>
       <path id="DejaVuSans-20" transform="scale(0.015625)"/>
       <path id="DejaVuSans-6f" d="M 1959 3097 
Q 1497 3097 1228 2736 
Q 959 2375 959 1747 
Q 959 1119 1226 758 
Q 1494 397 1959 397 
Q 2419 397 2687 759 
Q 2956 1122 2956 1747 
Q 2956 2369 2687 2733 
Q 2419 3097 1959 3097 
z
M 1959 3584 
Q 2709 3584 3137 3096 
Q 3566 2609 3566 1747 
Q 3566 888 3137 398 
Q 2709 -91 1959 -91 
Q 1206 -91 779 398 
Q 353 888 353 1747 
Q 353 2609 779 3096 
Q 1206 3584 1959 3584 
z
" transform="scale(0.015625)"/>
       <path id="DejaVuSans-66" d="M 2375 4863 
L 2375 4384 
L 1825 4384 
Q 1516 4384 1395 4259 
Q 1275 4134 1275 3809 
L 1275 3500 
L 2222 3500 
L 2222 3053 
L 1275 3053 
L 1275 0 
L 697 0 
L 697 3053 
L 147 3053 
L 147 3500 
L 697 3500 
L 697 3744 
Q 697 4328 969 4595 
Q 1241 4863 1831 4863 
L 2375 4863 
z
" transform="scale(0.015625)"/>
       <path id="DejaVuSans-54" d="M -19 4666 
L 3928 4666 
L 3928 4134 
L 2272 4134 
L 2272 0 
L 1638 0 
L 1638 4134 
L -19 4134 
L -19 4666 
z
" transform="scale(0.015625)"/>
       <path id="DejaVuSans-68" d="M 3513 2113 
L 3513 0 
L 2938 0 
L 2938 2094 
Q 2938 2591 2744 2837 
Q 2550 3084 2163 3084 
Q 1697 3084 1428 2787 
Q 1159 2491 1159 1978 
L 1159 0 
L 581 0 
L 581 4863 
L 1159 4863 
L 1159 2956 
Q 1366 3272 1645 3428 
Q 1925 3584 2291 3584 
Q 2894 3584 3203 3211 
Q 3513 2838 3513 2113 
z
" transform="scale(0.015625)"/>
       <path id="DejaVuSans-74" d="M 1172 4494 
L 1172 3500 
L 2356 3500 
L 2356 3053 
L 1172 3053 
L 1172 1153 
Q 1172 725 1289 603 
Q 1406 481 1766 481 
L 2356 481 
L 2356 0 
L 1766 0 
Q 1100 0 847 248 
Q 594 497 594 1153 
L 594 3053 
L 172 3053 
L 172 3500 
L 594 3500 
L 594 4494 
L 1172 4494 
z
" transform="scale(0.015625)"/>
       <path id="DejaVuSans-73" d="M 2834 3397 
L 2834 2853 
Q 2591 2978 2328 3040 
Q 2066 3103 1784 3103 
Q 1356 3103 1142 2972 
Q 928 2841 928 2578 
Q 928 2378 1081 2264 
Q 1234 2150 1697 2047 
L 1894 2003 
Q 2506 1872 2764 1633 
Q 3022 1394 3022 966 
Q 3022 478 2636 193 
Q 2250 -91 1575 -91 
Q 1294 -91 989 -36 
Q 684 19 347 128 
L 347 722 
Q 666 556 975 473 
Q 1284 391 1588 391 
Q 1994 391 2212 530 
Q 2431 669 2431 922 
Q 2431 1156 2273 1281 
Q 2116 1406 1581 1522 
L 1381 1569 
Q 847 1681 609 1914 
Q 372 2147 372 2553 
Q 372 3047 722 3315 
Q 1072 3584 1716 3584 
Q 2034 3584 2315 3537 
Q 2597 3491 2834 3397 
z
" transform="scale(0.015625)"/>
      </defs>
      <use xlink:href="#DejaVuSans-4e"/>
      <use xlink:href="#DejaVuSans-75" x="74.804688"/>
      <use xlink:href="#DejaVuSans-6d" x="138.183594"/>
      <use xlink:href="#DejaVuSans-62" x="235.595703"/>
      <use xlink:href="#DejaVuSans-65" x="299.072266"/>
      <use xlink:href="#DejaVuSans-72" x="360.595703"/>
      <use xlink:href="#DejaVuSans-20" x="401.708984"/>
      <use xlink:href="#DejaVuSans-6f" x="433.496094"/>
      <use xlink:href="#DejaVuSans-66" x="494.677734"/>
      <use xlink:href="#DejaVuSans-20" x="529.882812"/>
      <use xlink:href="#DejaVuSans-54" x="561.669922"/>
      <use xlink:href="#DejaVuSans-68" x="622.753906"/>
      <use xlink:href="#DejaVuSans-65" x="686.132812"/>
      <use xlink:href="#DejaVuSans-66" x="747.65625"/>
      <use xlink:href="#DejaVuSans-74" x="781.111328"/>
      <use xlink:href="#DejaVuSans-73" x="820.320312"/>
     </g>
    </g>
   </g>
   <g id="matplotlib.axis_2">
    <g id="ytick_1">
     <g id="line2d_6">
      <defs>
       <path id="m45b0dab0b1" d="M 0 0 
L -3.5 0 
" style="stroke: #000000; stroke-width: 0.8"/>
      </defs>
      <g>
       <use xlink:href="#m45b0dab0b1" x="14.3" y="128.42" style="stroke: #000000; stroke-width: 0.8"/>
      </g>
     </g>
    </g>
   </g>
   <g id="patch_24">
    <path d="M 38.81736 34.324 
L 38.81736 43.285524 
L 41.873698 43.285524 
L 41.873698 34.324 
L 38.81736 34.324 
z
" clip-path="url(#p0fb3116bc2)" style="fill: #bc1b1b; stroke: #171717; stroke-linejoin: miter"/>
   </g>
   <g id="line2d_7">
    <path d="M 38.81736 38.804762 
L 35.200264 38.804762 
" clip-path="url(#p0fb3116bc2)" style="fill: none; stroke: #171717"/>
   </g>
   <g id="line2d_8">
    <path d="M 41.873698 38.804762 
L 45.346546 38.804762 
" clip-path="url(#p0fb3116bc2)" style="fill: none; stroke: #171717"/>
   </g>
   <g id="line2d_9">
    <path d="M 35.200264 36.564381 
L 35.200264 41.045143 
" clip-path="url(#p0fb3116bc2)" style="fill: none; stroke: #171717; stroke-linecap: square"/>
   </g>
   <g id="line2d_10">
    <path d="M 45.346546 36.564381 
L 45.346546 41.045143 
" clip-path="url(#p0fb3116bc2)" style="fill: none; stroke: #171717; stroke-linecap: square"/>
   </g>
   <g id="line2d_11">
    <defs>
     <path id="ma5c2f4f47b" d="M 0 3 
C 0.795609 3 1.55874 2.683901 2.12132 2.12132 
C 2.683901 1.55874 3 0.795609 3 0 
C 3 -0.795609 2.683901 -1.55874 2.12132 -2.12132 
C 1.55874 -2.683901 0.795609 -3 0 -3 
C -0.795609 -3 -1.55874 -2.683901 -2.12132 -2.12132 
C -2.683901 -1.55874 -3 -0.795609 -3 0 
C -3 0.795609 -2.683901 1.55874 -2.12132 2.12132 
C -1.55874 2.683901 -0.795609 3 0 3 
z
" style="stroke: #171717"/>
    </defs>
    <g clip-path="url(#p0fb3116bc2)">
     <use xlink:href="#ma5c2f4f47b" x="47.641908" y="38.804762" style="fill-opacity: 0; stroke: #171717"/>
     <use xlink:href="#ma5c2f4f47b" x="48.461291" y="38.804762" style="fill-opacity: 0; stroke: #171717"/>
    </g>
   </g>
   <g id="patch_25">
    <path d="M 70.910615 43.285524 
L 70.910615 52.247048 
L 106.645537 52.247048 
L 106.645537 43.285524 
L 70.910615 43.285524 
z
" clip-path="url(#p0fb3116bc2)" style="fill: #9054e7; stroke: #171717; stroke-linejoin: miter"/>
   </g>
   <g id="line2d_12">
    <path d="M 70.910615 47.766286 
L 54.175125 47.766286 
" clip-path="url(#p0fb3116bc2)" style="fill: none; stroke: #171717"/>
   </g>
   <g id="line2d_13">
    <path d="M 106.645537 47.766286 
L 149.190504 47.766286 
" clip-path="url(#p0fb3116bc2)" style="fill: none; stroke: #171717"/>
   </g>
   <g id="line2d_14">
    <path d="M 54.175125 45.525905 
L 54.175125 50.006667 
" clip-path="url(#p0fb3116bc2)" style="fill: none; stroke: #171717; stroke-linecap: square"/>
   </g>
   <g id="line2d_15">
    <path d="M 149.190504 45.525905 
L 149.190504 50.006667 
" clip-path="url(#p0fb3116bc2)" style="fill: none; stroke: #171717; stroke-linecap: square"/>
   </g>
   <g id="line2d_16">
    <g clip-path="url(#p0fb3116bc2)">
     <use xlink:href="#ma5c2f4f47b" x="187.173782" y="47.766286" style="fill-opacity: 0; stroke: #171717"/>
     <use xlink:href="#ma5c2f4f47b" x="187.173782" y="47.766286" style="fill-opacity: 0; stroke: #171717"/>
     <use xlink:href="#ma5c2f4f47b" x="187.173782" y="47.766286" style="fill-opacity: 0; stroke: #171717"/>
     <use xlink:href="#ma5c2f4f47b" x="163.070273" y="47.766286" style="fill-opacity: 0; stroke: #171717"/>
     <use xlink:href="#ma5c2f4f47b" x="163.070273" y="47.766286" style="fill-opacity: 0; stroke: #171717"/>
     <use xlink:href="#ma5c2f4f47b" x="163.070273" y="47.766286" style="fill-opacity: 0; stroke: #171717"/>
    </g>
   </g>
   <g id="patch_26">
    <path d="M 31.477743 52.247048 
L 31.477743 61.208571 
L 35.653484 61.208571 
L 35.653484 52.247048 
L 31.477743 52.247048 
z
" clip-path="url(#p0fb3116bc2)" style="fill: #127711; stroke: #171717; stroke-linejoin: miter"/>
   </g>
   <g id="line2d_17">
    <path d="M 31.477743 56.72781 
L 30.08596 56.72781 
" clip-path="url(#p0fb3116bc2)" style="fill: none; stroke: #171717"/>
   </g>
   <g id="line2d_18">
    <path d="M 35.653484 56.72781 
L 40.510046 56.72781 
" clip-path="url(#p0fb3116bc2)" style="fill: none; stroke: #171717"/>
   </g>
   <g id="line2d_19">
    <path d="M 30.08596 54.487429 
L 30.08596 58.96819 
" clip-path="url(#p0fb3116bc2)" style="fill: none; stroke: #171717; stroke-linecap: square"/>
   </g>
   <g id="line2d_20">
    <path d="M 40.510046 54.487429 
L 40.510046 58.96819 
" clip-path="url(#p0fb3116bc2)" style="fill: none; stroke: #171717; stroke-linecap: square"/>
   </g>
   <g id="line2d_21">
    <g clip-path="url(#p0fb3116bc2)">
     <use xlink:href="#ma5c2f4f47b" x="114.279281" y="56.72781" style="fill-opacity: 0; stroke: #171717"/>
    </g>
   </g>
   <g id="patch_27">
    <path d="M 47.467016 61.208571 
L 47.467016 70.170095 
L 63.245504 70.170095 
L 63.245504 61.208571 
L 47.467016 61.208571 
z
" clip-path="url(#p0fb3116bc2)" style="fill: #92df20; stroke: #171717; stroke-linejoin: miter"/>
   </g>
   <g id="line2d_22">
    <path d="M 47.467016 65.689333 
L 41.648802 65.689333 
" clip-path="url(#p0fb3116bc2)" style="fill: none; stroke: #171717"/>
   </g>
   <g id="line2d_23">
    <path d="M 63.245504 65.689333 
L 70.665804 65.689333 
" clip-path="url(#p0fb3116bc2)" style="fill: none; stroke: #171717"/>
   </g>
   <g id="line2d_24">
    <path d="M 41.648802 63.448952 
L 41.648802 67.929714 
" clip-path="url(#p0fb3116bc2)" style="fill: none; stroke: #171717; stroke-linecap: square"/>
   </g>
   <g id="line2d_25">
    <path d="M 70.665804 63.448952 
L 70.665804 67.929714 
" clip-path="url(#p0fb3116bc2)" style="fill: none; stroke: #171717; stroke-linecap: square"/>
   </g>
   <g id="line2d_26">
    <g clip-path="url(#p0fb3116bc2)">
     <use xlink:href="#ma5c2f4f47b" x="145.352005" y="65.689333" style="fill-opacity: 0; stroke: #171717"/>
     <use xlink:href="#ma5c2f4f47b" x="145.352005" y="65.689333" style="fill-opacity: 0; stroke: #171717"/>
     <use xlink:href="#ma5c2f4f47b" x="109.197743" y="65.689333" style="fill-opacity: 0; stroke: #171717"/>
     <use xlink:href="#ma5c2f4f47b" x="109.197743" y="65.689333" style="fill-opacity: 0; stroke: #171717"/>
     <use xlink:href="#ma5c2f4f47b" x="91.290177" y="65.689333" style="fill-opacity: 0; stroke: #171717"/>
     <use xlink:href="#ma5c2f4f47b" x="91.290177" y="65.689333" style="fill-opacity: 0; stroke: #171717"/>
    </g>
   </g>
   <g id="patch_28">
    <path d="M 54.325737 70.170095 
L 54.325737 79.131619 
L 81.854211 79.131619 
L 81.854211 70.170095 
L 54.325737 70.170095 
z
" clip-path="url(#p0fb3116bc2)" style="fill: #ef8fcd; stroke: #171717; stroke-linejoin: miter"/>
   </g>
   <g id="line2d_27">
    <path d="M 54.325737 74.650857 
L 39.521523 74.650857 
" clip-path="url(#p0fb3116bc2)" style="fill: none; stroke: #171717"/>
   </g>
   <g id="line2d_28">
    <path d="M 81.854211 74.650857 
L 114.1961 74.650857 
" clip-path="url(#p0fb3116bc2)" style="fill: none; stroke: #171717"/>
   </g>
   <g id="line2d_29">
    <path d="M 39.521523 72.410476 
L 39.521523 76.891238 
" clip-path="url(#p0fb3116bc2)" style="fill: none; stroke: #171717; stroke-linecap: square"/>
   </g>
   <g id="line2d_30">
    <path d="M 114.1961 72.410476 
L 114.1961 76.891238 
" clip-path="url(#p0fb3116bc2)" style="fill: none; stroke: #171717; stroke-linecap: square"/>
   </g>
   <g id="line2d_31">
    <g clip-path="url(#p0fb3116bc2)">
     <use xlink:href="#ma5c2f4f47b" x="177.768004" y="74.650857" style="fill-opacity: 0; stroke: #171717"/>
     <use xlink:href="#ma5c2f4f47b" x="177.768004" y="74.650857" style="fill-opacity: 0; stroke: #171717"/>
     <use xlink:href="#ma5c2f4f47b" x="159.52555" y="74.650857" style="fill-opacity: 0; stroke: #171717"/>
     <use xlink:href="#ma5c2f4f47b" x="159.52555" y="74.650857" style="fill-opacity: 0; stroke: #171717"/>
     <use xlink:href="#ma5c2f4f47b" x="149.102645" y="74.650857" style="fill-opacity: 0; stroke: #171717"/>
     <use xlink:href="#ma5c2f4f47b" x="149.102645" y="74.650857" style="fill-opacity: 0; stroke: #171717"/>
     <use xlink:href="#ma5c2f4f47b" x="146.932557" y="74.650857" style="fill-opacity: 0; stroke: #171717"/>
     <use xlink:href="#ma5c2f4f47b" x="146.932557" y="74.650857" style="fill-opacity: 0; stroke: #171717"/>
     <use xlink:href="#ma5c2f4f47b" x="152.534491" y="74.650857" style="fill-opacity: 0; stroke: #171717"/>
     <use xlink:href="#ma5c2f4f47b" x="197.53229" y="74.650857" style="fill-opacity: 0; stroke: #171717"/>
     <use xlink:href="#ma5c2f4f47b" x="157.607755" y="74.650857" style="fill-opacity: 0; stroke: #171717"/>
     <use xlink:href="#ma5c2f4f47b" x="134.237895" y="74.650857" style="fill-opacity: 0; stroke: #171717"/>
     <use xlink:href="#ma5c2f4f47b" x="157.85234" y="74.650857" style="fill-opacity: 0; stroke: #171717"/>
    </g>
   </g>
   <g id="patch_29">
    <path d="M 31.422949 79.131619 
L 31.422949 88.093143 
L 34.595449 88.093143 
L 34.595449 79.131619 
L 31.422949 79.131619 
z
" clip-path="url(#p0fb3116bc2)" style="fill: #5e0d49; stroke: #171717; stroke-linejoin: miter"/>
   </g>
   <g id="line2d_32">
    <path d="M 31.422949 83.612381 
L 30.577878 83.612381 
" clip-path="url(#p0fb3116bc2)" style="fill: none; stroke: #171717"/>
   </g>
   <g id="line2d_33">
    <path d="M 34.595449 83.612381 
L 36.819301 83.612381 
" clip-path="url(#p0fb3116bc2)" style="fill: none; stroke: #171717"/>
   </g>
   <g id="line2d_34">
    <path d="M 30.577878 81.372 
L 30.577878 85.852762 
" clip-path="url(#p0fb3116bc2)" style="fill: none; stroke: #171717; stroke-linecap: square"/>
   </g>
   <g id="line2d_35">
    <path d="M 36.819301 81.372 
L 36.819301 85.852762 
" clip-path="url(#p0fb3116bc2)" style="fill: none; stroke: #171717; stroke-linecap: square"/>
   </g>
   <g id="line2d_36"/>
   <g id="patch_30">
    <path d="M 167.501602 88.093143 
L 167.501602 97.054667 
L 185.941728 97.054667 
L 185.941728 88.093143 
L 167.501602 88.093143 
z
" clip-path="url(#p0fb3116bc2)" style="fill: #4d370b; stroke: #171717; stroke-linejoin: miter"/>
   </g>
   <g id="line2d_37">
    <path d="M 167.501602 92.573905 
L 142.564123 92.573905 
" clip-path="url(#p0fb3116bc2)" style="fill: none; stroke: #171717"/>
   </g>
   <g id="line2d_38">
    <path d="M 185.941728 92.573905 
L 191.645269 92.573905 
" clip-path="url(#p0fb3116bc2)" style="fill: none; stroke: #171717"/>
   </g>
   <g id="line2d_39">
    <path d="M 142.564123 90.333524 
L 142.564123 94.814286 
" clip-path="url(#p0fb3116bc2)" style="fill: none; stroke: #171717; stroke-linecap: square"/>
   </g>
   <g id="line2d_40">
    <path d="M 191.645269 90.333524 
L 191.645269 94.814286 
" clip-path="url(#p0fb3116bc2)" style="fill: none; stroke: #171717; stroke-linecap: square"/>
   </g>
   <g id="line2d_41">
    <g clip-path="url(#p0fb3116bc2)">
     <use xlink:href="#ma5c2f4f47b" x="226.951139" y="92.573905" style="fill-opacity: 0; stroke: #171717"/>
     <use xlink:href="#ma5c2f4f47b" x="226.951139" y="92.573905" style="fill-opacity: 0; stroke: #171717"/>
    </g>
   </g>
   <g id="patch_31">
    <path d="M 43.952943 97.054667 
L 43.952943 106.01619 
L 74.404931 106.01619 
L 74.404931 97.054667 
L 43.952943 97.054667 
z
" clip-path="url(#p0fb3116bc2)" style="fill: #0b4c4e; stroke: #171717; stroke-linejoin: miter"/>
   </g>
   <g id="line2d_42">
    <path d="M 43.952943 101.535429 
L 29.522727 101.535429 
" clip-path="url(#p0fb3116bc2)" style="fill: none; stroke: #171717"/>
   </g>
   <g id="line2d_43">
    <path d="M 74.404931 101.535429 
L 119.517999 101.535429 
" clip-path="url(#p0fb3116bc2)" style="fill: none; stroke: #171717"/>
   </g>
   <g id="line2d_44">
    <path d="M 29.522727 99.295048 
L 29.522727 103.77581 
" clip-path="url(#p0fb3116bc2)" style="fill: none; stroke: #171717; stroke-linecap: square"/>
   </g>
   <g id="line2d_45">
    <path d="M 119.517999 99.295048 
L 119.517999 103.77581 
" clip-path="url(#p0fb3116bc2)" style="fill: none; stroke: #171717; stroke-linecap: square"/>
   </g>
   <g id="line2d_46">
    <g clip-path="url(#p0fb3116bc2)">
     <use xlink:href="#ma5c2f4f47b" x="127.474293" y="101.535429" style="fill-opacity: 0; stroke: #171717"/>
     <use xlink:href="#ma5c2f4f47b" x="126.084568" y="101.535429" style="fill-opacity: 0; stroke: #171717"/>
    </g>
   </g>
   <g id="patch_32">
    <path d="M 50.837103 106.01619 
L 50.837103 114.977714 
L 58.507649 114.977714 
L 58.507649 106.01619 
L 50.837103 106.01619 
z
" clip-path="url(#p0fb3116bc2)" style="fill: #1c1cc1; stroke: #171717; stroke-linejoin: miter"/>
   </g>
   <g id="line2d_47">
    <path d="M 50.837103 110.496952 
L 46.090373 110.496952 
" clip-path="url(#p0fb3116bc2)" style="fill: none; stroke: #171717"/>
   </g>
   <g id="line2d_48">
    <path d="M 58.507649 110.496952 
L 65.740431 110.496952 
" clip-path="url(#p0fb3116bc2)" style="fill: none; stroke: #171717"/>
   </g>
   <g id="line2d_49">
    <path d="M 46.090373 108.256571 
L 46.090373 112.737333 
" clip-path="url(#p0fb3116bc2)" style="fill: none; stroke: #171717; stroke-linecap: square"/>
   </g>
   <g id="line2d_50">
    <path d="M 65.740431 108.256571 
L 65.740431 112.737333 
" clip-path="url(#p0fb3116bc2)" style="fill: none; stroke: #171717; stroke-linecap: square"/>
   </g>
   <g id="line2d_51">
    <g clip-path="url(#p0fb3116bc2)">
     <use xlink:href="#ma5c2f4f47b" x="70.497674" y="110.496952" style="fill-opacity: 0; stroke: #171717"/>
    </g>
   </g>
   <g id="patch_33">
    <path d="M 52.040559 114.977714 
L 52.040559 123.939238 
L 103.798389 123.939238 
L 103.798389 114.977714 
L 52.040559 114.977714 
z
" clip-path="url(#p0fb3116bc2)" style="fill: #c4c0f6; stroke: #171717; stroke-linejoin: miter"/>
   </g>
   <g id="line2d_52">
    <path d="M 52.040559 119.458476 
L 46.893688 119.458476 
" clip-path="url(#p0fb3116bc2)" style="fill: none; stroke: #171717"/>
   </g>
   <g id="line2d_53">
    <path d="M 103.798389 119.458476 
L 133.566716 119.458476 
" clip-path="url(#p0fb3116bc2)" style="fill: none; stroke: #171717"/>
   </g>
   <g id="line2d_54">
    <path d="M 46.893688 117.218095 
L 46.893688 121.698857 
" clip-path="url(#p0fb3116bc2)" style="fill: none; stroke: #171717; stroke-linecap: square"/>
   </g>
   <g id="line2d_55">
    <path d="M 133.566716 117.218095 
L 133.566716 121.698857 
" clip-path="url(#p0fb3116bc2)" style="fill: none; stroke: #171717; stroke-linecap: square"/>
   </g>
   <g id="line2d_56"/>
   <g id="patch_34">
    <path d="M 75.153892 123.939238 
L 75.153892 132.900762 
L 168.258368 132.900762 
L 168.258368 123.939238 
L 75.153892 123.939238 
z
" clip-path="url(#p0fb3116bc2)" style="fill: #95ad80; stroke: #171717; stroke-linejoin: miter"/>
   </g>
   <g id="line2d_57">
    <path d="M 75.153892 128.42 
L 51.425607 128.42 
" clip-path="url(#p0fb3116bc2)" style="fill: none; stroke: #171717"/>
   </g>
   <g id="line2d_58">
    <path d="M 168.258368 128.42 
L 301.669707 128.42 
" clip-path="url(#p0fb3116bc2)" style="fill: none; stroke: #171717"/>
   </g>
   <g id="line2d_59">
    <path d="M 51.425607 126.179619 
L 51.425607 130.660381 
" clip-path="url(#p0fb3116bc2)" style="fill: none; stroke: #171717; stroke-linecap: square"/>
   </g>
   <g id="line2d_60">
    <path d="M 301.669707 126.179619 
L 301.669707 130.660381 
" clip-path="url(#p0fb3116bc2)" style="fill: none; stroke: #171717; stroke-linecap: square"/>
   </g>
   <g id="line2d_61">
    <g clip-path="url(#p0fb3116bc2)">
     <use xlink:href="#ma5c2f4f47b" x="331.700189" y="128.42" style="fill-opacity: 0; stroke: #171717"/>
     <use xlink:href="#ma5c2f4f47b" x="333.977273" y="128.42" style="fill-opacity: 0; stroke: #171717"/>
     <use xlink:href="#ma5c2f4f47b" x="333.977273" y="128.42" style="fill-opacity: 0; stroke: #171717"/>
     <use xlink:href="#ma5c2f4f47b" x="333.977273" y="128.42" style="fill-opacity: 0; stroke: #171717"/>
    </g>
   </g>
   <g id="patch_35">
    <path d="M 44.807236 132.900762 
L 44.807236 141.862286 
L 51.58024 141.862286 
L 51.58024 132.900762 
L 44.807236 132.900762 
z
" clip-path="url(#p0fb3116bc2)" style="fill: #a81ba3; stroke: #171717; stroke-linejoin: miter"/>
   </g>
   <g id="line2d_62">
    <path d="M 44.807236 137.381524 
L 36.955115 137.381524 
" clip-path="url(#p0fb3116bc2)" style="fill: none; stroke: #171717"/>
   </g>
   <g id="line2d_63">
    <path d="M 51.58024 137.381524 
L 57.621244 137.381524 
" clip-path="url(#p0fb3116bc2)" style="fill: none; stroke: #171717"/>
   </g>
   <g id="line2d_64">
    <path d="M 36.955115 135.141143 
L 36.955115 139.621905 
" clip-path="url(#p0fb3116bc2)" style="fill: none; stroke: #171717; stroke-linecap: square"/>
   </g>
   <g id="line2d_65">
    <path d="M 57.621244 135.141143 
L 57.621244 139.621905 
" clip-path="url(#p0fb3116bc2)" style="fill: none; stroke: #171717; stroke-linecap: square"/>
   </g>
   <g id="line2d_66">
    <g clip-path="url(#p0fb3116bc2)">
     <use xlink:href="#ma5c2f4f47b" x="66.303079" y="137.381524" style="fill-opacity: 0; stroke: #171717"/>
     <use xlink:href="#ma5c2f4f47b" x="66.303079" y="137.381524" style="fill-opacity: 0; stroke: #171717"/>
     <use xlink:href="#ma5c2f4f47b" x="64.562429" y="137.381524" style="fill-opacity: 0; stroke: #171717"/>
     <use xlink:href="#ma5c2f4f47b" x="64.562429" y="137.381524" style="fill-opacity: 0; stroke: #171717"/>
     <use xlink:href="#ma5c2f4f47b" x="62.996325" y="137.381524" style="fill-opacity: 0; stroke: #171717"/>
     <use xlink:href="#ma5c2f4f47b" x="62.996325" y="137.381524" style="fill-opacity: 0; stroke: #171717"/>
    </g>
   </g>
   <g id="patch_36">
    <path d="M 45.408236 141.862286 
L 45.408236 150.82381 
L 60.751875 150.82381 
L 60.751875 141.862286 
L 45.408236 141.862286 
z
" clip-path="url(#p0fb3116bc2)" style="fill: #6a0f0f; stroke: #171717; stroke-linejoin: miter"/>
   </g>
   <g id="line2d_67">
    <path d="M 45.408236 146.343048 
L 42.190925 146.343048 
" clip-path="url(#p0fb3116bc2)" style="fill: none; stroke: #171717"/>
   </g>
   <g id="line2d_68">
    <path d="M 60.751875 146.343048 
L 79.338928 146.343048 
" clip-path="url(#p0fb3116bc2)" style="fill: none; stroke: #171717"/>
   </g>
   <g id="line2d_69">
    <path d="M 42.190925 144.102667 
L 42.190925 148.583429 
" clip-path="url(#p0fb3116bc2)" style="fill: none; stroke: #171717; stroke-linecap: square"/>
   </g>
   <g id="line2d_70">
    <path d="M 79.338928 144.102667 
L 79.338928 148.583429 
" clip-path="url(#p0fb3116bc2)" style="fill: none; stroke: #171717; stroke-linecap: square"/>
   </g>
   <g id="line2d_71"/>
   <g id="patch_37">
    <path d="M 44.633307 150.82381 
L 44.633307 159.785333 
L 67.1211 159.785333 
L 67.1211 150.82381 
L 44.633307 150.82381 
z
" clip-path="url(#p0fb3116bc2)" style="fill: #2173be; stroke: #171717; stroke-linejoin: miter"/>
   </g>
   <g id="line2d_72">
    <path d="M 44.633307 155.304571 
L 41.325256 155.304571 
" clip-path="url(#p0fb3116bc2)" style="fill: none; stroke: #171717"/>
   </g>
   <g id="line2d_73">
    <path d="M 67.1211 155.304571 
L 67.768937 155.304571 
" clip-path="url(#p0fb3116bc2)" style="fill: none; stroke: #171717"/>
   </g>
   <g id="line2d_74">
    <path d="M 41.325256 153.06419 
L 41.325256 157.544952 
" clip-path="url(#p0fb3116bc2)" style="fill: none; stroke: #171717; stroke-linecap: square"/>
   </g>
   <g id="line2d_75">
    <path d="M 67.768937 153.06419 
L 67.768937 157.544952 
" clip-path="url(#p0fb3116bc2)" style="fill: none; stroke: #171717; stroke-linecap: square"/>
   </g>
   <g id="line2d_76"/>
   <g id="patch_38">
    <path d="M 95.109642 159.785333 
L 95.109642 168.746857 
L 135.169813 168.746857 
L 135.169813 159.785333 
L 95.109642 159.785333 
z
" clip-path="url(#p0fb3116bc2)" style="fill: #f0e99e; stroke: #171717; stroke-linejoin: miter"/>
   </g>
   <g id="line2d_77">
    <path d="M 95.109642 164.266095 
L 51.642545 164.266095 
" clip-path="url(#p0fb3116bc2)" style="fill: none; stroke: #171717"/>
   </g>
   <g id="line2d_78">
    <path d="M 135.169813 164.266095 
L 186.341856 164.266095 
" clip-path="url(#p0fb3116bc2)" style="fill: none; stroke: #171717"/>
   </g>
   <g id="line2d_79">
    <path d="M 51.642545 162.025714 
L 51.642545 166.506476 
" clip-path="url(#p0fb3116bc2)" style="fill: none; stroke: #171717; stroke-linecap: square"/>
   </g>
   <g id="line2d_80">
    <path d="M 186.341856 162.025714 
L 186.341856 166.506476 
" clip-path="url(#p0fb3116bc2)" style="fill: none; stroke: #171717; stroke-linecap: square"/>
   </g>
   <g id="line2d_81">
    <g clip-path="url(#p0fb3116bc2)">
     <use xlink:href="#ma5c2f4f47b" x="217.707123" y="164.266095" style="fill-opacity: 0; stroke: #171717"/>
     <use xlink:href="#ma5c2f4f47b" x="216.351521" y="164.266095" style="fill-opacity: 0; stroke: #171717"/>
    </g>
   </g>
   <g id="patch_39">
    <path d="M 35.881866 168.746857 
L 35.881866 177.708381 
L 61.71761 177.708381 
L 61.71761 168.746857 
L 35.881866 168.746857 
z
" clip-path="url(#p0fb3116bc2)" style="fill: #094209; stroke: #171717; stroke-linejoin: miter"/>
   </g>
   <g id="line2d_82">
    <path d="M 35.881866 173.227619 
L 30.361268 173.227619 
" clip-path="url(#p0fb3116bc2)" style="fill: none; stroke: #171717"/>
   </g>
   <g id="line2d_83">
    <path d="M 61.71761 173.227619 
L 93.930186 173.227619 
" clip-path="url(#p0fb3116bc2)" style="fill: none; stroke: #171717"/>
   </g>
   <g id="line2d_84">
    <path d="M 30.361268 170.987238 
L 30.361268 175.468 
" clip-path="url(#p0fb3116bc2)" style="fill: none; stroke: #171717; stroke-linecap: square"/>
   </g>
   <g id="line2d_85">
    <path d="M 93.930186 170.987238 
L 93.930186 175.468 
" clip-path="url(#p0fb3116bc2)" style="fill: none; stroke: #171717; stroke-linecap: square"/>
   </g>
   <g id="line2d_86">
    <g clip-path="url(#p0fb3116bc2)">
     <use xlink:href="#ma5c2f4f47b" x="108.890691" y="173.227619" style="fill-opacity: 0; stroke: #171717"/>
     <use xlink:href="#ma5c2f4f47b" x="108.890691" y="173.227619" style="fill-opacity: 0; stroke: #171717"/>
    </g>
   </g>
   <g id="patch_40">
    <path d="M 78.802014 177.708381 
L 78.802014 186.669905 
L 140.039823 186.669905 
L 140.039823 177.708381 
L 78.802014 177.708381 
z
" clip-path="url(#p0fb3116bc2)" style="fill: #7d6d12; stroke: #171717; stroke-linejoin: miter"/>
   </g>
   <g id="line2d_87">
    <path d="M 78.802014 182.189143 
L 58.424564 182.189143 
" clip-path="url(#p0fb3116bc2)" style="fill: none; stroke: #171717"/>
   </g>
   <g id="line2d_88">
    <path d="M 140.039823 182.189143 
L 152.072697 182.189143 
" clip-path="url(#p0fb3116bc2)" style="fill: none; stroke: #171717"/>
   </g>
   <g id="line2d_89">
    <path d="M 58.424564 179.948762 
L 58.424564 184.429524 
" clip-path="url(#p0fb3116bc2)" style="fill: none; stroke: #171717; stroke-linecap: square"/>
   </g>
   <g id="line2d_90">
    <path d="M 152.072697 179.948762 
L 152.072697 184.429524 
" clip-path="url(#p0fb3116bc2)" style="fill: none; stroke: #171717; stroke-linecap: square"/>
   </g>
   <g id="line2d_91"/>
   <g id="patch_41">
    <path d="M 33.099389 186.669905 
L 33.099389 195.631429 
L 41.156131 195.631429 
L 41.156131 186.669905 
L 33.099389 186.669905 
z
" clip-path="url(#p0fb3116bc2)" style="fill: #ec8279; stroke: #171717; stroke-linejoin: miter"/>
   </g>
   <g id="line2d_92">
    <path d="M 33.099389 191.150667 
L 30.269484 191.150667 
" clip-path="url(#p0fb3116bc2)" style="fill: none; stroke: #171717"/>
   </g>
   <g id="line2d_93">
    <path d="M 41.156131 191.150667 
L 48.252951 191.150667 
" clip-path="url(#p0fb3116bc2)" style="fill: none; stroke: #171717"/>
   </g>
   <g id="line2d_94">
    <path d="M 30.269484 188.910286 
L 30.269484 193.391048 
" clip-path="url(#p0fb3116bc2)" style="fill: none; stroke: #171717; stroke-linecap: square"/>
   </g>
   <g id="line2d_95">
    <path d="M 48.252951 188.910286 
L 48.252951 193.391048 
" clip-path="url(#p0fb3116bc2)" style="fill: none; stroke: #171717; stroke-linecap: square"/>
   </g>
   <g id="line2d_96">
    <g clip-path="url(#p0fb3116bc2)">
     <use xlink:href="#ma5c2f4f47b" x="118.761103" y="191.150667" style="fill-opacity: 0; stroke: #171717"/>
     <use xlink:href="#ma5c2f4f47b" x="75.889281" y="191.150667" style="fill-opacity: 0; stroke: #171717"/>
     <use xlink:href="#ma5c2f4f47b" x="75.889281" y="191.150667" style="fill-opacity: 0; stroke: #171717"/>
     <use xlink:href="#ma5c2f4f47b" x="68.352404" y="191.150667" style="fill-opacity: 0; stroke: #171717"/>
    </g>
   </g>
   <g id="patch_42">
    <path d="M 147.100154 195.631429 
L 147.100154 204.592952 
L 181.022011 204.592952 
L 181.022011 195.631429 
L 147.100154 195.631429 
z
" clip-path="url(#p0fb3116bc2)" style="fill: #e7c0c0; stroke: #171717; stroke-linejoin: miter"/>
   </g>
   <g id="line2d_97">
    <path d="M 147.100154 200.11219 
L 125.795932 200.11219 
" clip-path="url(#p0fb3116bc2)" style="fill: none; stroke: #171717"/>
   </g>
   <g id="line2d_98">
    <path d="M 181.022011 200.11219 
L 231.462831 200.11219 
" clip-path="url(#p0fb3116bc2)" style="fill: none; stroke: #171717"/>
   </g>
   <g id="line2d_99">
    <path d="M 125.795932 197.87181 
L 125.795932 202.352571 
" clip-path="url(#p0fb3116bc2)" style="fill: none; stroke: #171717; stroke-linecap: square"/>
   </g>
   <g id="line2d_100">
    <path d="M 231.462831 197.87181 
L 231.462831 202.352571 
" clip-path="url(#p0fb3116bc2)" style="fill: none; stroke: #171717; stroke-linecap: square"/>
   </g>
   <g id="line2d_101">
    <g clip-path="url(#p0fb3116bc2)">
     <use xlink:href="#ma5c2f4f47b" x="261.055055" y="200.11219" style="fill-opacity: 0; stroke: #171717"/>
     <use xlink:href="#ma5c2f4f47b" x="245.087439" y="200.11219" style="fill-opacity: 0; stroke: #171717"/>
    </g>
   </g>
   <g id="patch_43">
    <path d="M 39.818676 204.592952 
L 39.818676 213.554476 
L 57.658769 213.554476 
L 57.658769 204.592952 
L 39.818676 204.592952 
z
" clip-path="url(#p0fb3116bc2)" style="fill: #627a68; stroke: #171717; stroke-linejoin: miter"/>
   </g>
   <g id="line2d_102">
    <path d="M 39.818676 209.073714 
L 38.039118 209.073714 
" clip-path="url(#p0fb3116bc2)" style="fill: none; stroke: #171717"/>
   </g>
   <g id="line2d_103">
    <path d="M 57.658769 209.073714 
L 61.583193 209.073714 
" clip-path="url(#p0fb3116bc2)" style="fill: none; stroke: #171717"/>
   </g>
   <g id="line2d_104">
    <path d="M 38.039118 206.833333 
L 38.039118 211.314095 
" clip-path="url(#p0fb3116bc2)" style="fill: none; stroke: #171717; stroke-linecap: square"/>
   </g>
   <g id="line2d_105">
    <path d="M 61.583193 206.833333 
L 61.583193 211.314095 
" clip-path="url(#p0fb3116bc2)" style="fill: none; stroke: #171717; stroke-linecap: square"/>
   </g>
   <g id="line2d_106">
    <g clip-path="url(#p0fb3116bc2)">
     <use xlink:href="#ma5c2f4f47b" x="88.053107" y="209.073714" style="fill-opacity: 0; stroke: #171717"/>
    </g>
   </g>
   <g id="patch_44">
    <path d="M 37.977072 213.554476 
L 37.977072 222.516 
L 52.463903 222.516 
L 52.463903 213.554476 
L 37.977072 213.554476 
z
" clip-path="url(#p0fb3116bc2)" style="fill: #a7def2; stroke: #171717; stroke-linejoin: miter"/>
   </g>
   <g id="line2d_107">
    <path d="M 37.977072 218.035238 
L 36.107917 218.035238 
" clip-path="url(#p0fb3116bc2)" style="fill: none; stroke: #171717"/>
   </g>
   <g id="line2d_108">
    <path d="M 52.463903 218.035238 
L 57.404052 218.035238 
" clip-path="url(#p0fb3116bc2)" style="fill: none; stroke: #171717"/>
   </g>
   <g id="line2d_109">
    <path d="M 36.107917 215.794857 
L 36.107917 220.275619 
" clip-path="url(#p0fb3116bc2)" style="fill: none; stroke: #171717; stroke-linecap: square"/>
   </g>
   <g id="line2d_110">
    <path d="M 57.404052 215.794857 
L 57.404052 220.275619 
" clip-path="url(#p0fb3116bc2)" style="fill: none; stroke: #171717; stroke-linecap: square"/>
   </g>
   <g id="line2d_111">
    <g clip-path="url(#p0fb3116bc2)">
     <use xlink:href="#ma5c2f4f47b" x="117.532297" y="218.035238" style="fill-opacity: 0; stroke: #171717"/>
     <use xlink:href="#ma5c2f4f47b" x="93.381163" y="218.035238" style="fill-opacity: 0; stroke: #171717"/>
     <use xlink:href="#ma5c2f4f47b" x="88.246247" y="218.035238" style="fill-opacity: 0; stroke: #171717"/>
     <use xlink:href="#ma5c2f4f47b" x="77.427087" y="218.035238" style="fill-opacity: 0; stroke: #171717"/>
     <use xlink:href="#ma5c2f4f47b" x="77.427087" y="218.035238" style="fill-opacity: 0; stroke: #171717"/>
     <use xlink:href="#ma5c2f4f47b" x="76.46466" y="218.035238" style="fill-opacity: 0; stroke: #171717"/>
    </g>
   </g>
   <g id="line2d_112">
    <path d="M 40.747232 34.324 
L 40.747232 43.285524 
" clip-path="url(#p0fb3116bc2)" style="fill: none; stroke: #171717"/>
   </g>
   <g id="line2d_113">
    <path d="M 88.142905 43.285524 
L 88.142905 52.247048 
" clip-path="url(#p0fb3116bc2)" style="fill: none; stroke: #171717"/>
   </g>
   <g id="line2d_114">
    <path d="M 33.003659 52.247048 
L 33.003659 61.208571 
" clip-path="url(#p0fb3116bc2)" style="fill: none; stroke: #171717"/>
   </g>
   <g id="line2d_115">
    <path d="M 52.67649 61.208571 
L 52.67649 70.170095 
" clip-path="url(#p0fb3116bc2)" style="fill: none; stroke: #171717"/>
   </g>
   <g id="line2d_116">
    <path d="M 65.570751 70.170095 
L 65.570751 79.131619 
" clip-path="url(#p0fb3116bc2)" style="fill: none; stroke: #171717"/>
   </g>
   <g id="line2d_117">
    <path d="M 32.190107 79.131619 
L 32.190107 88.093143 
" clip-path="url(#p0fb3116bc2)" style="fill: none; stroke: #171717"/>
   </g>
   <g id="line2d_118">
    <path d="M 176.988631 88.093143 
L 176.988631 97.054667 
" clip-path="url(#p0fb3116bc2)" style="fill: none; stroke: #171717"/>
   </g>
   <g id="line2d_119">
    <path d="M 54.238359 97.054667 
L 54.238359 106.01619 
" clip-path="url(#p0fb3116bc2)" style="fill: none; stroke: #171717"/>
   </g>
   <g id="line2d_120">
    <path d="M 53.076087 106.01619 
L 53.076087 114.977714 
" clip-path="url(#p0fb3116bc2)" style="fill: none; stroke: #171717"/>
   </g>
   <g id="line2d_121">
    <path d="M 77.447109 114.977714 
L 77.447109 123.939238 
" clip-path="url(#p0fb3116bc2)" style="fill: none; stroke: #171717"/>
   </g>
   <g id="line2d_122">
    <path d="M 114.676255 123.939238 
L 114.676255 132.900762 
" clip-path="url(#p0fb3116bc2)" style="fill: none; stroke: #171717"/>
   </g>
   <g id="line2d_123">
    <path d="M 46.859865 132.900762 
L 46.859865 141.862286 
" clip-path="url(#p0fb3116bc2)" style="fill: none; stroke: #171717"/>
   </g>
   <g id="line2d_124">
    <path d="M 47.126333 141.862286 
L 47.126333 150.82381 
" clip-path="url(#p0fb3116bc2)" style="fill: none; stroke: #171717"/>
   </g>
   <g id="line2d_125">
    <path d="M 64.274772 150.82381 
L 64.274772 159.785333 
" clip-path="url(#p0fb3116bc2)" style="fill: none; stroke: #171717"/>
   </g>
   <g id="line2d_126">
    <path d="M 108.325173 159.785333 
L 108.325173 168.746857 
" clip-path="url(#p0fb3116bc2)" style="fill: none; stroke: #171717"/>
   </g>
   <g id="line2d_127">
    <path d="M 40.555416 168.746857 
L 40.555416 177.708381 
" clip-path="url(#p0fb3116bc2)" style="fill: none; stroke: #171717"/>
   </g>
   <g id="line2d_128">
    <path d="M 103.38677 177.708381 
L 103.38677 186.669905 
" clip-path="url(#p0fb3116bc2)" style="fill: none; stroke: #171717"/>
   </g>
   <g id="line2d_129">
    <path d="M 34.44055 186.669905 
L 34.44055 195.631429 
" clip-path="url(#p0fb3116bc2)" style="fill: none; stroke: #171717"/>
   </g>
   <g id="line2d_130">
    <path d="M 158.156413 195.631429 
L 158.156413 204.592952 
" clip-path="url(#p0fb3116bc2)" style="fill: none; stroke: #171717"/>
   </g>
   <g id="line2d_131">
    <path d="M 40.114537 204.592952 
L 40.114537 213.554476 
" clip-path="url(#p0fb3116bc2)" style="fill: none; stroke: #171717"/>
   </g>
   <g id="line2d_132">
    <path d="M 40.890661 213.554476 
L 40.890661 222.516 
" clip-path="url(#p0fb3116bc2)" style="fill: none; stroke: #171717"/>
   </g>
   <g id="patch_45">
    <path d="M 14.3 246.04 
L 14.3 10.8 
" style="fill: none; stroke: #000000; stroke-width: 0.8; stroke-linejoin: miter; stroke-linecap: square"/>
   </g>
   <g id="patch_46">
    <path d="M 349.2 246.04 
L 349.2 10.8 
" style="fill: none; stroke: #000000; stroke-width: 0.8; stroke-linejoin: miter; stroke-linecap: square"/>
   </g>
   <g id="patch_47">
    <path d="M 14.3 246.04 
L 349.2 246.04 
" style="fill: none; stroke: #000000; stroke-width: 0.8; stroke-linejoin: miter; stroke-linecap: square"/>
   </g>
   <g id="patch_48">
    <path d="M 14.3 10.8 
L 349.2 10.8 
" style="fill: none; stroke: #000000; stroke-width: 0.8; stroke-linejoin: miter; stroke-linecap: square"/>
   </g>
   <g id="legend_1">
    <g id="patch_49">
     <path d="M 232.945312 180.259375 
L 342.2 180.259375 
Q 344.2 180.259375 344.2 178.259375 
L 344.2 17.8 
Q 344.2 15.8 342.2 15.8 
L 232.945312 15.8 
Q 230.945312 15.8 230.945312 17.8 
L 230.945312 178.259375 
Q 230.945312 180.259375 232.945312 180.259375 
z
" style="fill: #ffffff; opacity: 0.8; stroke: #cccccc; stroke-linejoin: miter"/>
    </g>
    <g id="patch_50">
     <path d="M 234.945312 27.398438 
L 254.945312 27.398438 
L 254.945312 20.398438 
L 234.945312 20.398438 
z
" style="fill: #bc1b1b; stroke: #171717; stroke-linejoin: miter"/>
    </g>
    <g id="text_7">
     <!-- AT -->
     <g transform="translate(262.945312 27.398438)scale(0.1 -0.1)">
      <defs>
       <path id="DejaVuSans-41" d="M 2188 4044 
L 1331 1722 
L 3047 1722 
L 2188 4044 
z
M 1831 4666 
L 2547 4666 
L 4325 0 
L 3669 0 
L 3244 1197 
L 1141 1197 
L 716 0 
L 50 0 
L 1831 4666 
z
" transform="scale(0.015625)"/>
      </defs>
      <use xlink:href="#DejaVuSans-41"/>
      <use xlink:href="#DejaVuSans-54" x="60.658203"/>
     </g>
    </g>
    <g id="patch_51">
     <path d="M 234.945312 42.076563 
L 254.945312 42.076563 
L 254.945312 35.076563 
L 234.945312 35.076563 
z
" style="fill: #9054e7; stroke: #171717; stroke-linejoin: miter"/>
    </g>
    <g id="text_8">
     <!-- BE -->
     <g transform="translate(262.945312 42.076563)scale(0.1 -0.1)">
      <defs>
       <path id="DejaVuSans-42" d="M 1259 2228 
L 1259 519 
L 2272 519 
Q 2781 519 3026 730 
Q 3272 941 3272 1375 
Q 3272 1813 3026 2020 
Q 2781 2228 2272 2228 
L 1259 2228 
z
M 1259 4147 
L 1259 2741 
L 2194 2741 
Q 2656 2741 2882 2914 
Q 3109 3088 3109 3444 
Q 3109 3797 2882 3972 
Q 2656 4147 2194 4147 
L 1259 4147 
z
M 628 4666 
L 2241 4666 
Q 2963 4666 3353 4366 
Q 3744 4066 3744 3513 
Q 3744 3084 3544 2831 
Q 3344 2578 2956 2516 
Q 3422 2416 3680 2098 
Q 3938 1781 3938 1306 
Q 3938 681 3513 340 
Q 3088 0 2303 0 
L 628 0 
L 628 4666 
z
" transform="scale(0.015625)"/>
       <path id="DejaVuSans-45" d="M 628 4666 
L 3578 4666 
L 3578 4134 
L 1259 4134 
L 1259 2753 
L 3481 2753 
L 3481 2222 
L 1259 2222 
L 1259 531 
L 3634 531 
L 3634 0 
L 628 0 
L 628 4666 
z
" transform="scale(0.015625)"/>
      </defs>
      <use xlink:href="#DejaVuSans-42"/>
      <use xlink:href="#DejaVuSans-45" x="68.603516"/>
     </g>
    </g>
    <g id="patch_52">
     <path d="M 234.945312 56.754688 
L 254.945312 56.754688 
L 254.945312 49.754688 
L 234.945312 49.754688 
z
" style="fill: #127711; stroke: #171717; stroke-linejoin: miter"/>
    </g>
    <g id="text_9">
     <!-- BG -->
     <g transform="translate(262.945312 56.754688)scale(0.1 -0.1)">
      <defs>
       <path id="DejaVuSans-47" d="M 3809 666 
L 3809 1919 
L 2778 1919 
L 2778 2438 
L 4434 2438 
L 4434 434 
Q 4069 175 3628 42 
Q 3188 -91 2688 -91 
Q 1594 -91 976 548 
Q 359 1188 359 2328 
Q 359 3472 976 4111 
Q 1594 4750 2688 4750 
Q 3144 4750 3555 4637 
Q 3966 4525 4313 4306 
L 4313 3634 
Q 3963 3931 3569 4081 
Q 3175 4231 2741 4231 
Q 1884 4231 1454 3753 
Q 1025 3275 1025 2328 
Q 1025 1384 1454 906 
Q 1884 428 2741 428 
Q 3075 428 3337 486 
Q 3600 544 3809 666 
z
" transform="scale(0.015625)"/>
      </defs>
      <use xlink:href="#DejaVuSans-42"/>
      <use xlink:href="#DejaVuSans-47" x="66.853516"/>
     </g>
    </g>
    <g id="patch_53">
     <path d="M 234.945312 71.432813 
L 254.945312 71.432813 
L 254.945312 64.432813 
L 234.945312 64.432813 
z
" style="fill: #92df20; stroke: #171717; stroke-linejoin: miter"/>
    </g>
    <g id="text_10">
     <!-- CZ -->
     <g transform="translate(262.945312 71.432813)scale(0.1 -0.1)">
      <defs>
       <path id="DejaVuSans-43" d="M 4122 4306 
L 4122 3641 
Q 3803 3938 3442 4084 
Q 3081 4231 2675 4231 
Q 1875 4231 1450 3742 
Q 1025 3253 1025 2328 
Q 1025 1406 1450 917 
Q 1875 428 2675 428 
Q 3081 428 3442 575 
Q 3803 722 4122 1019 
L 4122 359 
Q 3791 134 3420 21 
Q 3050 -91 2638 -91 
Q 1578 -91 968 557 
Q 359 1206 359 2328 
Q 359 3453 968 4101 
Q 1578 4750 2638 4750 
Q 3056 4750 3426 4639 
Q 3797 4528 4122 4306 
z
" transform="scale(0.015625)"/>
       <path id="DejaVuSans-5a" d="M 359 4666 
L 4025 4666 
L 4025 4184 
L 1075 531 
L 4097 531 
L 4097 0 
L 288 0 
L 288 481 
L 3238 4134 
L 359 4134 
L 359 4666 
z
" transform="scale(0.015625)"/>
      </defs>
      <use xlink:href="#DejaVuSans-43"/>
      <use xlink:href="#DejaVuSans-5a" x="69.824219"/>
     </g>
    </g>
    <g id="patch_54">
     <path d="M 234.945312 86.110938 
L 254.945312 86.110938 
L 254.945312 79.110938 
L 234.945312 79.110938 
z
" style="fill: #ef8fcd; stroke: #171717; stroke-linejoin: miter"/>
    </g>
    <g id="text_11">
     <!-- DE -->
     <g transform="translate(262.945312 86.110938)scale(0.1 -0.1)">
      <defs>
       <path id="DejaVuSans-44" d="M 1259 4147 
L 1259 519 
L 2022 519 
Q 2988 519 3436 956 
Q 3884 1394 3884 2338 
Q 3884 3275 3436 3711 
Q 2988 4147 2022 4147 
L 1259 4147 
z
M 628 4666 
L 1925 4666 
Q 3281 4666 3915 4102 
Q 4550 3538 4550 2338 
Q 4550 1131 3912 565 
Q 3275 0 1925 0 
L 628 0 
L 628 4666 
z
" transform="scale(0.015625)"/>
      </defs>
      <use xlink:href="#DejaVuSans-44"/>
      <use xlink:href="#DejaVuSans-45" x="77.001953"/>
     </g>
    </g>
    <g id="patch_55">
     <path d="M 234.945312 100.789062 
L 254.945312 100.789062 
L 254.945312 93.789062 
L 234.945312 93.789062 
z
" style="fill: #5e0d49; stroke: #171717; stroke-linejoin: miter"/>
    </g>
    <g id="text_12">
     <!-- DK -->
     <g transform="translate(262.945312 100.789062)scale(0.1 -0.1)">
      <defs>
       <path id="DejaVuSans-4b" d="M 628 4666 
L 1259 4666 
L 1259 2694 
L 3353 4666 
L 4166 4666 
L 1850 2491 
L 4331 0 
L 3500 0 
L 1259 2247 
L 1259 0 
L 628 0 
L 628 4666 
z
" transform="scale(0.015625)"/>
      </defs>
      <use xlink:href="#DejaVuSans-44"/>
      <use xlink:href="#DejaVuSans-4b" x="77.001953"/>
     </g>
    </g>
    <g id="patch_56">
     <path d="M 234.945312 115.467188 
L 254.945312 115.467188 
L 254.945312 108.467188 
L 234.945312 108.467188 
z
" style="fill: #4d370b; stroke: #171717; stroke-linejoin: miter"/>
    </g>
    <g id="text_13">
     <!-- EL -->
     <g transform="translate(262.945312 115.467188)scale(0.1 -0.1)">
      <defs>
       <path id="DejaVuSans-4c" d="M 628 4666 
L 1259 4666 
L 1259 531 
L 3531 531 
L 3531 0 
L 628 0 
L 628 4666 
z
" transform="scale(0.015625)"/>
      </defs>
      <use xlink:href="#DejaVuSans-45"/>
      <use xlink:href="#DejaVuSans-4c" x="63.183594"/>
     </g>
    </g>
    <g id="patch_57">
     <path d="M 234.945312 130.145312 
L 254.945312 130.145312 
L 254.945312 123.145312 
L 234.945312 123.145312 
z
" style="fill: #0b4c4e; stroke: #171717; stroke-linejoin: miter"/>
    </g>
    <g id="text_14">
     <!-- ES -->
     <g transform="translate(262.945312 130.145312)scale(0.1 -0.1)">
      <defs>
       <path id="DejaVuSans-53" d="M 3425 4513 
L 3425 3897 
Q 3066 4069 2747 4153 
Q 2428 4238 2131 4238 
Q 1616 4238 1336 4038 
Q 1056 3838 1056 3469 
Q 1056 3159 1242 3001 
Q 1428 2844 1947 2747 
L 2328 2669 
Q 3034 2534 3370 2195 
Q 3706 1856 3706 1288 
Q 3706 609 3251 259 
Q 2797 -91 1919 -91 
Q 1588 -91 1214 -16 
Q 841 59 441 206 
L 441 856 
Q 825 641 1194 531 
Q 1563 422 1919 422 
Q 2459 422 2753 634 
Q 3047 847 3047 1241 
Q 3047 1584 2836 1778 
Q 2625 1972 2144 2069 
L 1759 2144 
Q 1053 2284 737 2584 
Q 422 2884 422 3419 
Q 422 4038 858 4394 
Q 1294 4750 2059 4750 
Q 2388 4750 2728 4690 
Q 3069 4631 3425 4513 
z
" transform="scale(0.015625)"/>
      </defs>
      <use xlink:href="#DejaVuSans-45"/>
      <use xlink:href="#DejaVuSans-53" x="63.183594"/>
     </g>
    </g>
    <g id="patch_58">
     <path d="M 234.945312 144.823438 
L 254.945312 144.823438 
L 254.945312 137.823438 
L 234.945312 137.823438 
z
" style="fill: #1c1cc1; stroke: #171717; stroke-linejoin: miter"/>
    </g>
    <g id="text_15">
     <!-- FI -->
     <g transform="translate(262.945312 144.823438)scale(0.1 -0.1)">
      <defs>
       <path id="DejaVuSans-46" d="M 628 4666 
L 3309 4666 
L 3309 4134 
L 1259 4134 
L 1259 2759 
L 3109 2759 
L 3109 2228 
L 1259 2228 
L 1259 0 
L 628 0 
L 628 4666 
z
" transform="scale(0.015625)"/>
       <path id="DejaVuSans-49" d="M 628 4666 
L 1259 4666 
L 1259 0 
L 628 0 
L 628 4666 
z
" transform="scale(0.015625)"/>
      </defs>
      <use xlink:href="#DejaVuSans-46"/>
      <use xlink:href="#DejaVuSans-49" x="57.519531"/>
     </g>
    </g>
    <g id="patch_59">
     <path d="M 234.945312 159.501562 
L 254.945312 159.501562 
L 254.945312 152.501562 
L 234.945312 152.501562 
z
" style="fill: #c4c0f6; stroke: #171717; stroke-linejoin: miter"/>
    </g>
    <g id="text_16">
     <!-- IE -->
     <g transform="translate(262.945312 159.501562)scale(0.1 -0.1)">
      <use xlink:href="#DejaVuSans-49"/>
      <use xlink:href="#DejaVuSans-45" x="29.492188"/>
     </g>
    </g>
    <g id="patch_60">
     <path d="M 234.945312 174.179687 
L 254.945312 174.179687 
L 254.945312 167.179687 
L 234.945312 167.179687 
z
" style="fill: #95ad80; stroke: #171717; stroke-linejoin: miter"/>
    </g>
    <g id="text_17">
     <!-- IT -->
     <g transform="translate(262.945312 174.179687)scale(0.1 -0.1)">
      <use xlink:href="#DejaVuSans-49"/>
      <use xlink:href="#DejaVuSans-54" x="29.492188"/>
     </g>
    </g>
    <g id="patch_61">
     <path d="M 297.379687 27.398438 
L 317.379687 27.398438 
L 317.379687 20.398438 
L 297.379687 20.398438 
z
" style="fill: #a81ba3; stroke: #171717; stroke-linejoin: miter"/>
    </g>
    <g id="text_18">
     <!-- LT -->
     <g transform="translate(325.379687 27.398438)scale(0.1 -0.1)">
      <use xlink:href="#DejaVuSans-4c"/>
      <use xlink:href="#DejaVuSans-54" x="41.962891"/>
     </g>
    </g>
    <g id="patch_62">
     <path d="M 297.379687 42.076563 
L 317.379687 42.076563 
L 317.379687 35.076563 
L 297.379687 35.076563 
z
" style="fill: #6a0f0f; stroke: #171717; stroke-linejoin: miter"/>
    </g>
    <g id="text_19">
     <!-- LV -->
     <g transform="translate(325.379687 42.076563)scale(0.1 -0.1)">
      <defs>
       <path id="DejaVuSans-56" d="M 1831 0 
L 50 4666 
L 709 4666 
L 2188 738 
L 3669 4666 
L 4325 4666 
L 2547 0 
L 1831 0 
z
" transform="scale(0.015625)"/>
      </defs>
      <use xlink:href="#DejaVuSans-4c"/>
      <use xlink:href="#DejaVuSans-56" x="44.712891"/>
     </g>
    </g>
    <g id="patch_63">
     <path d="M 297.379687 56.754688 
L 317.379687 56.754688 
L 317.379687 49.754688 
L 297.379687 49.754688 
z
" style="fill: #2173be; stroke: #171717; stroke-linejoin: miter"/>
    </g>
    <g id="text_20">
     <!-- MT -->
     <g transform="translate(325.379687 56.754688)scale(0.1 -0.1)">
      <defs>
       <path id="DejaVuSans-4d" d="M 628 4666 
L 1569 4666 
L 2759 1491 
L 3956 4666 
L 4897 4666 
L 4897 0 
L 4281 0 
L 4281 4097 
L 3078 897 
L 2444 897 
L 1241 4097 
L 1241 0 
L 628 0 
L 628 4666 
z
" transform="scale(0.015625)"/>
      </defs>
      <use xlink:href="#DejaVuSans-4d"/>
      <use xlink:href="#DejaVuSans-54" x="86.279297"/>
     </g>
    </g>
    <g id="patch_64">
     <path d="M 297.379687 71.432813 
L 317.379687 71.432813 
L 317.379687 64.432813 
L 297.379687 64.432813 
z
" style="fill: #f0e99e; stroke: #171717; stroke-linejoin: miter"/>
    </g>
    <g id="text_21">
     <!-- NL -->
     <g transform="translate(325.379687 71.432813)scale(0.1 -0.1)">
      <use xlink:href="#DejaVuSans-4e"/>
      <use xlink:href="#DejaVuSans-4c" x="74.804688"/>
     </g>
    </g>
    <g id="patch_65">
     <path d="M 297.379687 86.110938 
L 317.379687 86.110938 
L 317.379687 79.110938 
L 297.379687 79.110938 
z
" style="fill: #094209; stroke: #171717; stroke-linejoin: miter"/>
    </g>
    <g id="text_22">
     <!-- PL -->
     <g transform="translate(325.379687 86.110938)scale(0.1 -0.1)">
      <defs>
       <path id="DejaVuSans-50" d="M 1259 4147 
L 1259 2394 
L 2053 2394 
Q 2494 2394 2734 2622 
Q 2975 2850 2975 3272 
Q 2975 3691 2734 3919 
Q 2494 4147 2053 4147 
L 1259 4147 
z
M 628 4666 
L 2053 4666 
Q 2838 4666 3239 4311 
Q 3641 3956 3641 3272 
Q 3641 2581 3239 2228 
Q 2838 1875 2053 1875 
L 1259 1875 
L 1259 0 
L 628 0 
L 628 4666 
z
" transform="scale(0.015625)"/>
      </defs>
      <use xlink:href="#DejaVuSans-50"/>
      <use xlink:href="#DejaVuSans-4c" x="60.302734"/>
     </g>
    </g>
    <g id="patch_66">
     <path d="M 297.379687 100.789062 
L 317.379687 100.789062 
L 317.379687 93.789062 
L 297.379687 93.789062 
z
" style="fill: #7d6d12; stroke: #171717; stroke-linejoin: miter"/>
    </g>
    <g id="text_23">
     <!-- PT -->
     <g transform="translate(325.379687 100.789062)scale(0.1 -0.1)">
      <use xlink:href="#DejaVuSans-50"/>
      <use xlink:href="#DejaVuSans-54" x="60.302734"/>
     </g>
    </g>
    <g id="patch_67">
     <path d="M 297.379687 115.467188 
L 317.379687 115.467188 
L 317.379687 108.467188 
L 297.379687 108.467188 
z
" style="fill: #ec8279; stroke: #171717; stroke-linejoin: miter"/>
    </g>
    <g id="text_24">
     <!-- RO -->
     <g transform="translate(325.379687 115.467188)scale(0.1 -0.1)">
      <defs>
       <path id="DejaVuSans-52" d="M 2841 2188 
Q 3044 2119 3236 1894 
Q 3428 1669 3622 1275 
L 4263 0 
L 3584 0 
L 2988 1197 
Q 2756 1666 2539 1819 
Q 2322 1972 1947 1972 
L 1259 1972 
L 1259 0 
L 628 0 
L 628 4666 
L 2053 4666 
Q 2853 4666 3247 4331 
Q 3641 3997 3641 3322 
Q 3641 2881 3436 2590 
Q 3231 2300 2841 2188 
z
M 1259 4147 
L 1259 2491 
L 2053 2491 
Q 2509 2491 2742 2702 
Q 2975 2913 2975 3322 
Q 2975 3731 2742 3939 
Q 2509 4147 2053 4147 
L 1259 4147 
z
" transform="scale(0.015625)"/>
       <path id="DejaVuSans-4f" d="M 2522 4238 
Q 1834 4238 1429 3725 
Q 1025 3213 1025 2328 
Q 1025 1447 1429 934 
Q 1834 422 2522 422 
Q 3209 422 3611 934 
Q 4013 1447 4013 2328 
Q 4013 3213 3611 3725 
Q 3209 4238 2522 4238 
z
M 2522 4750 
Q 3503 4750 4090 4092 
Q 4678 3434 4678 2328 
Q 4678 1225 4090 567 
Q 3503 -91 2522 -91 
Q 1538 -91 948 565 
Q 359 1222 359 2328 
Q 359 3434 948 4092 
Q 1538 4750 2522 4750 
z
" transform="scale(0.015625)"/>
      </defs>
      <use xlink:href="#DejaVuSans-52"/>
      <use xlink:href="#DejaVuSans-4f" x="69.482422"/>
     </g>
    </g>
    <g id="patch_68">
     <path d="M 297.379687 130.145312 
L 317.379687 130.145312 
L 317.379687 123.145312 
L 297.379687 123.145312 
z
" style="fill: #e7c0c0; stroke: #171717; stroke-linejoin: miter"/>
    </g>
    <g id="text_25">
     <!-- SE -->
     <g transform="translate(325.379687 130.145312)scale(0.1 -0.1)">
      <use xlink:href="#DejaVuSans-53"/>
      <use xlink:href="#DejaVuSans-45" x="63.476562"/>
     </g>
    </g>
    <g id="patch_69">
     <path d="M 297.379687 144.823438 
L 317.379687 144.823438 
L 317.379687 137.823438 
L 297.379687 137.823438 
z
" style="fill: #627a68; stroke: #171717; stroke-linejoin: miter"/>
    </g>
    <g id="text_26">
     <!-- SI -->
     <g transform="translate(325.379687 144.823438)scale(0.1 -0.1)">
      <use xlink:href="#DejaVuSans-53"/>
      <use xlink:href="#DejaVuSans-49" x="63.476562"/>
     </g>
    </g>
    <g id="patch_70">
     <path d="M 297.379687 159.501562 
L 317.379687 159.501562 
L 317.379687 152.501562 
L 297.379687 152.501562 
z
" style="fill: #a7def2; stroke: #171717; stroke-linejoin: miter"/>
    </g>
    <g id="text_27">
     <!-- SK -->
     <g transform="translate(325.379687 159.501562)scale(0.1 -0.1)">
      <use xlink:href="#DejaVuSans-53"/>
      <use xlink:href="#DejaVuSans-4b" x="63.476562"/>
     </g>
    </g>
   </g>
  </g>
 </g>
 <defs>
  <clipPath id="p0fb3116bc2">
   <rect x="14.3" y="10.8" width="334.9" height="235.24"/>
  </clipPath>
 </defs>
</svg>
