<?xml version="1.0" encoding="utf-8" standalone="no"?>
<!DOCTYPE svg PUBLIC "-//W3C//DTD SVG 1.1//EN"
  "http://www.w3.org/Graphics/SVG/1.1/DTD/svg11.dtd">
<svg xmlns:xlink="http://www.w3.org/1999/xlink" width="460.8pt" height="345.6pt" viewBox="0 0 460.8 345.6" xmlns="http://www.w3.org/2000/svg" version="1.1">
 <metadata>
  <rdf:RDF xmlns:dc="http://purl.org/dc/elements/1.1/" xmlns:cc="http://creativecommons.org/ns#" xmlns:rdf="http://www.w3.org/1999/02/22-rdf-syntax-ns#">
   <cc:Work>
    <dc:type rdf:resource="http://purl.org/dc/dcmitype/StillImage"/>
    <dc:date>2024-02-02T17:08:40.375277</dc:date>
    <dc:format>image/svg+xml</dc:format>
    <dc:creator>
     <cc:Agent>
      <dc:title>Matplotlib v3.5.1, https://matplotlib.org/</dc:title>
     </cc:Agent>
    </dc:creator>
   </cc:Work>
  </rdf:RDF>
 </metadata>
 <defs>
  <style type="text/css">*{stroke-linejoin: round; stroke-linecap: butt}</style>
 </defs>
 <g id="figure_1">
  <g id="patch_1">
   <path d="M 0 345.6 
L 460.8 345.6 
L 460.8 0 
L 0 0 
L 0 345.6 
z
" style="fill: none"/>
  </g>
  <g id="axes_1">
   <g id="patch_2">
    <path d="M 57.17 303.64 
L 450 303.64 
L 450 10.8 
L 57.17 10.8 
L 57.17 303.64 
z
" style="fill: none"/>
   </g>
   <g id="matplotlib.axis_1">
    <g id="xtick_1">
     <g id="line2d_1">
      <defs>
       <path id="m64b903e0cb" d="M 0 0 
L 0 3.5 
" style="stroke: #000000; stroke-width: 0.8"/>
      </defs>
      <g>
       <use xlink:href="#m64b903e0cb" x="136.476561" y="303.64" style="stroke: #000000; stroke-width: 0.8"/>
      </g>
     </g>
     <g id="text_1">
      <!-- 50 -->
      <g transform="translate(130.114061 318.238437)scale(0.1 -0.1)">
       <defs>
        <path id="DejaVuSans-35" d="M 691 4666 
L 3169 4666 
L 3169 4134 
L 1269 4134 
L 1269 2991 
Q 1406 3038 1543 3061 
Q 1681 3084 1819 3084 
Q 2600 3084 3056 2656 
Q 3513 2228 3513 1497 
Q 3513 744 3044 326 
Q 2575 -91 1722 -91 
Q 1428 -91 1123 -41 
Q 819 9 494 109 
L 494 744 
Q 775 591 1075 516 
Q 1375 441 1709 441 
Q 2250 441 2565 725 
Q 2881 1009 2881 1497 
Q 2881 1984 2565 2268 
Q 2250 2553 1709 2553 
Q 1456 2553 1204 2497 
Q 953 2441 691 2322 
L 691 4666 
z
" transform="scale(0.015625)"/>
        <path id="DejaVuSans-30" d="M 2034 4250 
Q 1547 4250 1301 3770 
Q 1056 3291 1056 2328 
Q 1056 1369 1301 889 
Q 1547 409 2034 409 
Q 2525 409 2770 889 
Q 3016 1369 3016 2328 
Q 3016 3291 2770 3770 
Q 2525 4250 2034 4250 
z
M 2034 4750 
Q 2819 4750 3233 4129 
Q 3647 3509 3647 2328 
Q 3647 1150 3233 529 
Q 2819 -91 2034 -91 
Q 1250 -91 836 529 
Q 422 1150 422 2328 
Q 422 3509 836 4129 
Q 1250 4750 2034 4750 
z
" transform="scale(0.015625)"/>
       </defs>
       <use xlink:href="#DejaVuSans-35"/>
       <use xlink:href="#DejaVuSans-30" x="63.623047"/>
      </g>
     </g>
    </g>
    <g id="xtick_2">
     <g id="line2d_2">
      <g>
       <use xlink:href="#m64b903e0cb" x="216.416245" y="303.64" style="stroke: #000000; stroke-width: 0.8"/>
      </g>
     </g>
     <g id="text_2">
      <!-- 100 -->
      <g transform="translate(206.872495 318.238437)scale(0.1 -0.1)">
       <defs>
        <path id="DejaVuSans-31" d="M 794 531 
L 1825 531 
L 1825 4091 
L 703 3866 
L 703 4441 
L 1819 4666 
L 2450 4666 
L 2450 531 
L 3481 531 
L 3481 0 
L 794 0 
L 794 531 
z
" transform="scale(0.015625)"/>
       </defs>
       <use xlink:href="#DejaVuSans-31"/>
       <use xlink:href="#DejaVuSans-30" x="63.623047"/>
       <use xlink:href="#DejaVuSans-30" x="127.246094"/>
      </g>
     </g>
    </g>
    <g id="xtick_3">
     <g id="line2d_3">
      <g>
       <use xlink:href="#m64b903e0cb" x="296.355928" y="303.64" style="stroke: #000000; stroke-width: 0.8"/>
      </g>
     </g>
     <g id="text_3">
      <!-- 150 -->
      <g transform="translate(286.812178 318.238437)scale(0.1 -0.1)">
       <use xlink:href="#DejaVuSans-31"/>
       <use xlink:href="#DejaVuSans-35" x="63.623047"/>
       <use xlink:href="#DejaVuSans-30" x="127.246094"/>
      </g>
     </g>
    </g>
    <g id="xtick_4">
     <g id="line2d_4">
      <g>
       <use xlink:href="#m64b903e0cb" x="376.295612" y="303.64" style="stroke: #000000; stroke-width: 0.8"/>
      </g>
     </g>
     <g id="text_4">
      <!-- 200 -->
      <g transform="translate(366.751862 318.238437)scale(0.1 -0.1)">
       <defs>
        <path id="DejaVuSans-32" d="M 1228 531 
L 3431 531 
L 3431 0 
L 469 0 
L 469 531 
Q 828 903 1448 1529 
Q 2069 2156 2228 2338 
Q 2531 2678 2651 2914 
Q 2772 3150 2772 3378 
Q 2772 3750 2511 3984 
Q 2250 4219 1831 4219 
Q 1534 4219 1204 4116 
Q 875 4013 500 3803 
L 500 4441 
Q 881 4594 1212 4672 
Q 1544 4750 1819 4750 
Q 2544 4750 2975 4387 
Q 3406 4025 3406 3419 
Q 3406 3131 3298 2873 
Q 3191 2616 2906 2266 
Q 2828 2175 2409 1742 
Q 1991 1309 1228 531 
z
" transform="scale(0.015625)"/>
       </defs>
       <use xlink:href="#DejaVuSans-32"/>
       <use xlink:href="#DejaVuSans-30" x="63.623047"/>
       <use xlink:href="#DejaVuSans-30" x="127.246094"/>
      </g>
     </g>
    </g>
    <g id="text_5">
     <!-- Unemployment Rate (per 1000 citizens) -->
     <g transform="translate(153.438906 331.916562)scale(0.1 -0.1)">
      <defs>
       <path id="DejaVuSans-55" d="M 556 4666 
L 1191 4666 
L 1191 1831 
Q 1191 1081 1462 751 
Q 1734 422 2344 422 
Q 2950 422 3222 751 
Q 3494 1081 3494 1831 
L 3494 4666 
L 4128 4666 
L 4128 1753 
Q 4128 841 3676 375 
Q 3225 -91 2344 -91 
Q 1459 -91 1007 375 
Q 556 841 556 1753 
L 556 4666 
z
" transform="scale(0.015625)"/>
       <path id="DejaVuSans-6e" d="M 3513 2113 
L 3513 0 
L 2938 0 
L 2938 2094 
Q 2938 2591 2744 2837 
Q 2550 3084 2163 3084 
Q 1697 3084 1428 2787 
Q 1159 2491 1159 1978 
L 1159 0 
L 581 0 
L 581 3500 
L 1159 3500 
L 1159 2956 
Q 1366 3272 1645 3428 
Q 1925 3584 2291 3584 
Q 2894 3584 3203 3211 
Q 3513 2838 3513 2113 
z
" transform="scale(0.015625)"/>
       <path id="DejaVuSans-65" d="M 3597 1894 
L 3597 1613 
L 953 1613 
Q 991 1019 1311 708 
Q 1631 397 2203 397 
Q 2534 397 2845 478 
Q 3156 559 3463 722 
L 3463 178 
Q 3153 47 2828 -22 
Q 2503 -91 2169 -91 
Q 1331 -91 842 396 
Q 353 884 353 1716 
Q 353 2575 817 3079 
Q 1281 3584 2069 3584 
Q 2775 3584 3186 3129 
Q 3597 2675 3597 1894 
z
M 3022 2063 
Q 3016 2534 2758 2815 
Q 2500 3097 2075 3097 
Q 1594 3097 1305 2825 
Q 1016 2553 972 2059 
L 3022 2063 
z
" transform="scale(0.015625)"/>
       <path id="DejaVuSans-6d" d="M 3328 2828 
Q 3544 3216 3844 3400 
Q 4144 3584 4550 3584 
Q 5097 3584 5394 3201 
Q 5691 2819 5691 2113 
L 5691 0 
L 5113 0 
L 5113 2094 
Q 5113 2597 4934 2840 
Q 4756 3084 4391 3084 
Q 3944 3084 3684 2787 
Q 3425 2491 3425 1978 
L 3425 0 
L 2847 0 
L 2847 2094 
Q 2847 2600 2669 2842 
Q 2491 3084 2119 3084 
Q 1678 3084 1418 2786 
Q 1159 2488 1159 1978 
L 1159 0 
L 581 0 
L 581 3500 
L 1159 3500 
L 1159 2956 
Q 1356 3278 1631 3431 
Q 1906 3584 2284 3584 
Q 2666 3584 2933 3390 
Q 3200 3197 3328 2828 
z
" transform="scale(0.015625)"/>
       <path id="DejaVuSans-70" d="M 1159 525 
L 1159 -1331 
L 581 -1331 
L 581 3500 
L 1159 3500 
L 1159 2969 
Q 1341 3281 1617 3432 
Q 1894 3584 2278 3584 
Q 2916 3584 3314 3078 
Q 3713 2572 3713 1747 
Q 3713 922 3314 415 
Q 2916 -91 2278 -91 
Q 1894 -91 1617 61 
Q 1341 213 1159 525 
z
M 3116 1747 
Q 3116 2381 2855 2742 
Q 2594 3103 2138 3103 
Q 1681 3103 1420 2742 
Q 1159 2381 1159 1747 
Q 1159 1113 1420 752 
Q 1681 391 2138 391 
Q 2594 391 2855 752 
Q 3116 1113 3116 1747 
z
" transform="scale(0.015625)"/>
       <path id="DejaVuSans-6c" d="M 603 4863 
L 1178 4863 
L 1178 0 
L 603 0 
L 603 4863 
z
" transform="scale(0.015625)"/>
       <path id="DejaVuSans-6f" d="M 1959 3097 
Q 1497 3097 1228 2736 
Q 959 2375 959 1747 
Q 959 1119 1226 758 
Q 1494 397 1959 397 
Q 2419 397 2687 759 
Q 2956 1122 2956 1747 
Q 2956 2369 2687 2733 
Q 2419 3097 1959 3097 
z
M 1959 3584 
Q 2709 3584 3137 3096 
Q 3566 2609 3566 1747 
Q 3566 888 3137 398 
Q 2709 -91 1959 -91 
Q 1206 -91 779 398 
Q 353 888 353 1747 
Q 353 2609 779 3096 
Q 1206 3584 1959 3584 
z
" transform="scale(0.015625)"/>
       <path id="DejaVuSans-79" d="M 2059 -325 
Q 1816 -950 1584 -1140 
Q 1353 -1331 966 -1331 
L 506 -1331 
L 506 -850 
L 844 -850 
Q 1081 -850 1212 -737 
Q 1344 -625 1503 -206 
L 1606 56 
L 191 3500 
L 800 3500 
L 1894 763 
L 2988 3500 
L 3597 3500 
L 2059 -325 
z
" transform="scale(0.015625)"/>
       <path id="DejaVuSans-74" d="M 1172 4494 
L 1172 3500 
L 2356 3500 
L 2356 3053 
L 1172 3053 
L 1172 1153 
Q 1172 725 1289 603 
Q 1406 481 1766 481 
L 2356 481 
L 2356 0 
L 1766 0 
Q 1100 0 847 248 
Q 594 497 594 1153 
L 594 3053 
L 172 3053 
L 172 3500 
L 594 3500 
L 594 4494 
L 1172 4494 
z
" transform="scale(0.015625)"/>
       <path id="DejaVuSans-20" transform="scale(0.015625)"/>
       <path id="DejaVuSans-52" d="M 2841 2188 
Q 3044 2119 3236 1894 
Q 3428 1669 3622 1275 
L 4263 0 
L 3584 0 
L 2988 1197 
Q 2756 1666 2539 1819 
Q 2322 1972 1947 1972 
L 1259 1972 
L 1259 0 
L 628 0 
L 628 4666 
L 2053 4666 
Q 2853 4666 3247 4331 
Q 3641 3997 3641 3322 
Q 3641 2881 3436 2590 
Q 3231 2300 2841 2188 
z
M 1259 4147 
L 1259 2491 
L 2053 2491 
Q 2509 2491 2742 2702 
Q 2975 2913 2975 3322 
Q 2975 3731 2742 3939 
Q 2509 4147 2053 4147 
L 1259 4147 
z
" transform="scale(0.015625)"/>
       <path id="DejaVuSans-61" d="M 2194 1759 
Q 1497 1759 1228 1600 
Q 959 1441 959 1056 
Q 959 750 1161 570 
Q 1363 391 1709 391 
Q 2188 391 2477 730 
Q 2766 1069 2766 1631 
L 2766 1759 
L 2194 1759 
z
M 3341 1997 
L 3341 0 
L 2766 0 
L 2766 531 
Q 2569 213 2275 61 
Q 1981 -91 1556 -91 
Q 1019 -91 701 211 
Q 384 513 384 1019 
Q 384 1609 779 1909 
Q 1175 2209 1959 2209 
L 2766 2209 
L 2766 2266 
Q 2766 2663 2505 2880 
Q 2244 3097 1772 3097 
Q 1472 3097 1187 3025 
Q 903 2953 641 2809 
L 641 3341 
Q 956 3463 1253 3523 
Q 1550 3584 1831 3584 
Q 2591 3584 2966 3190 
Q 3341 2797 3341 1997 
z
" transform="scale(0.015625)"/>
       <path id="DejaVuSans-28" d="M 1984 4856 
Q 1566 4138 1362 3434 
Q 1159 2731 1159 2009 
Q 1159 1288 1364 580 
Q 1569 -128 1984 -844 
L 1484 -844 
Q 1016 -109 783 600 
Q 550 1309 550 2009 
Q 550 2706 781 3412 
Q 1013 4119 1484 4856 
L 1984 4856 
z
" transform="scale(0.015625)"/>
       <path id="DejaVuSans-72" d="M 2631 2963 
Q 2534 3019 2420 3045 
Q 2306 3072 2169 3072 
Q 1681 3072 1420 2755 
Q 1159 2438 1159 1844 
L 1159 0 
L 581 0 
L 581 3500 
L 1159 3500 
L 1159 2956 
Q 1341 3275 1631 3429 
Q 1922 3584 2338 3584 
Q 2397 3584 2469 3576 
Q 2541 3569 2628 3553 
L 2631 2963 
z
" transform="scale(0.015625)"/>
       <path id="DejaVuSans-63" d="M 3122 3366 
L 3122 2828 
Q 2878 2963 2633 3030 
Q 2388 3097 2138 3097 
Q 1578 3097 1268 2742 
Q 959 2388 959 1747 
Q 959 1106 1268 751 
Q 1578 397 2138 397 
Q 2388 397 2633 464 
Q 2878 531 3122 666 
L 3122 134 
Q 2881 22 2623 -34 
Q 2366 -91 2075 -91 
Q 1284 -91 818 406 
Q 353 903 353 1747 
Q 353 2603 823 3093 
Q 1294 3584 2113 3584 
Q 2378 3584 2631 3529 
Q 2884 3475 3122 3366 
z
" transform="scale(0.015625)"/>
       <path id="DejaVuSans-69" d="M 603 3500 
L 1178 3500 
L 1178 0 
L 603 0 
L 603 3500 
z
M 603 4863 
L 1178 4863 
L 1178 4134 
L 603 4134 
L 603 4863 
z
" transform="scale(0.015625)"/>
       <path id="DejaVuSans-7a" d="M 353 3500 
L 3084 3500 
L 3084 2975 
L 922 459 
L 3084 459 
L 3084 0 
L 275 0 
L 275 525 
L 2438 3041 
L 353 3041 
L 353 3500 
z
" transform="scale(0.015625)"/>
       <path id="DejaVuSans-73" d="M 2834 3397 
L 2834 2853 
Q 2591 2978 2328 3040 
Q 2066 3103 1784 3103 
Q 1356 3103 1142 2972 
Q 928 2841 928 2578 
Q 928 2378 1081 2264 
Q 1234 2150 1697 2047 
L 1894 2003 
Q 2506 1872 2764 1633 
Q 3022 1394 3022 966 
Q 3022 478 2636 193 
Q 2250 -91 1575 -91 
Q 1294 -91 989 -36 
Q 684 19 347 128 
L 347 722 
Q 666 556 975 473 
Q 1284 391 1588 391 
Q 1994 391 2212 530 
Q 2431 669 2431 922 
Q 2431 1156 2273 1281 
Q 2116 1406 1581 1522 
L 1381 1569 
Q 847 1681 609 1914 
Q 372 2147 372 2553 
Q 372 3047 722 3315 
Q 1072 3584 1716 3584 
Q 2034 3584 2315 3537 
Q 2597 3491 2834 3397 
z
" transform="scale(0.015625)"/>
       <path id="DejaVuSans-29" d="M 513 4856 
L 1013 4856 
Q 1481 4119 1714 3412 
Q 1947 2706 1947 2009 
Q 1947 1309 1714 600 
Q 1481 -109 1013 -844 
L 513 -844 
Q 928 -128 1133 580 
Q 1338 1288 1338 2009 
Q 1338 2731 1133 3434 
Q 928 4138 513 4856 
z
" transform="scale(0.015625)"/>
      </defs>
      <use xlink:href="#DejaVuSans-55"/>
      <use xlink:href="#DejaVuSans-6e" x="73.193359"/>
      <use xlink:href="#DejaVuSans-65" x="136.572266"/>
      <use xlink:href="#DejaVuSans-6d" x="198.095703"/>
      <use xlink:href="#DejaVuSans-70" x="295.507812"/>
      <use xlink:href="#DejaVuSans-6c" x="358.984375"/>
      <use xlink:href="#DejaVuSans-6f" x="386.767578"/>
      <use xlink:href="#DejaVuSans-79" x="447.949219"/>
      <use xlink:href="#DejaVuSans-6d" x="507.128906"/>
      <use xlink:href="#DejaVuSans-65" x="604.541016"/>
      <use xlink:href="#DejaVuSans-6e" x="666.064453"/>
      <use xlink:href="#DejaVuSans-74" x="729.443359"/>
      <use xlink:href="#DejaVuSans-20" x="768.652344"/>
      <use xlink:href="#DejaVuSans-52" x="800.439453"/>
      <use xlink:href="#DejaVuSans-61" x="867.671875"/>
      <use xlink:href="#DejaVuSans-74" x="928.951172"/>
      <use xlink:href="#DejaVuSans-65" x="968.160156"/>
      <use xlink:href="#DejaVuSans-20" x="1029.683594"/>
      <use xlink:href="#DejaVuSans-28" x="1061.470703"/>
      <use xlink:href="#DejaVuSans-70" x="1100.484375"/>
      <use xlink:href="#DejaVuSans-65" x="1163.960938"/>
      <use xlink:href="#DejaVuSans-72" x="1225.484375"/>
      <use xlink:href="#DejaVuSans-20" x="1266.597656"/>
      <use xlink:href="#DejaVuSans-31" x="1298.384766"/>
      <use xlink:href="#DejaVuSans-30" x="1362.007812"/>
      <use xlink:href="#DejaVuSans-30" x="1425.630859"/>
      <use xlink:href="#DejaVuSans-30" x="1489.253906"/>
      <use xlink:href="#DejaVuSans-20" x="1552.876953"/>
      <use xlink:href="#DejaVuSans-63" x="1584.664062"/>
      <use xlink:href="#DejaVuSans-69" x="1639.644531"/>
      <use xlink:href="#DejaVuSans-74" x="1667.427734"/>
      <use xlink:href="#DejaVuSans-69" x="1706.636719"/>
      <use xlink:href="#DejaVuSans-7a" x="1734.419922"/>
      <use xlink:href="#DejaVuSans-65" x="1786.910156"/>
      <use xlink:href="#DejaVuSans-6e" x="1848.433594"/>
      <use xlink:href="#DejaVuSans-73" x="1911.8125"/>
      <use xlink:href="#DejaVuSans-29" x="1963.912109"/>
     </g>
    </g>
   </g>
   <g id="matplotlib.axis_2">
    <g id="ytick_1">
     <g id="line2d_5">
      <defs>
       <path id="m6ae6cb8899" d="M 0 0 
L -3.5 0 
" style="stroke: #000000; stroke-width: 0.8"/>
      </defs>
      <g>
       <use xlink:href="#m6ae6cb8899" x="57.17" y="303.64" style="stroke: #000000; stroke-width: 0.8"/>
      </g>
     </g>
     <g id="text_6">
      <!-- 0 -->
      <g transform="translate(43.8075 307.439219)scale(0.1 -0.1)">
       <use xlink:href="#DejaVuSans-30"/>
      </g>
     </g>
    </g>
    <g id="ytick_2">
     <g id="line2d_6">
      <g>
       <use xlink:href="#m6ae6cb8899" x="57.17" y="262.967778" style="stroke: #000000; stroke-width: 0.8"/>
      </g>
     </g>
     <g id="text_7">
      <!-- 1000 -->
      <g transform="translate(24.72 266.766997)scale(0.1 -0.1)">
       <use xlink:href="#DejaVuSans-31"/>
       <use xlink:href="#DejaVuSans-30" x="63.623047"/>
       <use xlink:href="#DejaVuSans-30" x="127.246094"/>
       <use xlink:href="#DejaVuSans-30" x="190.869141"/>
      </g>
     </g>
    </g>
    <g id="ytick_3">
     <g id="line2d_7">
      <g>
       <use xlink:href="#m6ae6cb8899" x="57.17" y="222.295556" style="stroke: #000000; stroke-width: 0.8"/>
      </g>
     </g>
     <g id="text_8">
      <!-- 2000 -->
      <g transform="translate(24.72 226.094774)scale(0.1 -0.1)">
       <use xlink:href="#DejaVuSans-32"/>
       <use xlink:href="#DejaVuSans-30" x="63.623047"/>
       <use xlink:href="#DejaVuSans-30" x="127.246094"/>
       <use xlink:href="#DejaVuSans-30" x="190.869141"/>
      </g>
     </g>
    </g>
    <g id="ytick_4">
     <g id="line2d_8">
      <g>
       <use xlink:href="#m6ae6cb8899" x="57.17" y="181.623333" style="stroke: #000000; stroke-width: 0.8"/>
      </g>
     </g>
     <g id="text_9">
      <!-- 3000 -->
      <g transform="translate(24.72 185.422552)scale(0.1 -0.1)">
       <defs>
        <path id="DejaVuSans-33" d="M 2597 2516 
Q 3050 2419 3304 2112 
Q 3559 1806 3559 1356 
Q 3559 666 3084 287 
Q 2609 -91 1734 -91 
Q 1441 -91 1130 -33 
Q 819 25 488 141 
L 488 750 
Q 750 597 1062 519 
Q 1375 441 1716 441 
Q 2309 441 2620 675 
Q 2931 909 2931 1356 
Q 2931 1769 2642 2001 
Q 2353 2234 1838 2234 
L 1294 2234 
L 1294 2753 
L 1863 2753 
Q 2328 2753 2575 2939 
Q 2822 3125 2822 3475 
Q 2822 3834 2567 4026 
Q 2313 4219 1838 4219 
Q 1578 4219 1281 4162 
Q 984 4106 628 3988 
L 628 4550 
Q 988 4650 1302 4700 
Q 1616 4750 1894 4750 
Q 2613 4750 3031 4423 
Q 3450 4097 3450 3541 
Q 3450 3153 3228 2886 
Q 3006 2619 2597 2516 
z
" transform="scale(0.015625)"/>
       </defs>
       <use xlink:href="#DejaVuSans-33"/>
       <use xlink:href="#DejaVuSans-30" x="63.623047"/>
       <use xlink:href="#DejaVuSans-30" x="127.246094"/>
       <use xlink:href="#DejaVuSans-30" x="190.869141"/>
      </g>
     </g>
    </g>
    <g id="ytick_5">
     <g id="line2d_9">
      <g>
       <use xlink:href="#m6ae6cb8899" x="57.17" y="140.951111" style="stroke: #000000; stroke-width: 0.8"/>
      </g>
     </g>
     <g id="text_10">
      <!-- 4000 -->
      <g transform="translate(24.72 144.75033)scale(0.1 -0.1)">
       <defs>
        <path id="DejaVuSans-34" d="M 2419 4116 
L 825 1625 
L 2419 1625 
L 2419 4116 
z
M 2253 4666 
L 3047 4666 
L 3047 1625 
L 3713 1625 
L 3713 1100 
L 3047 1100 
L 3047 0 
L 2419 0 
L 2419 1100 
L 313 1100 
L 313 1709 
L 2253 4666 
z
" transform="scale(0.015625)"/>
       </defs>
       <use xlink:href="#DejaVuSans-34"/>
       <use xlink:href="#DejaVuSans-30" x="63.623047"/>
       <use xlink:href="#DejaVuSans-30" x="127.246094"/>
       <use xlink:href="#DejaVuSans-30" x="190.869141"/>
      </g>
     </g>
    </g>
    <g id="ytick_6">
     <g id="line2d_10">
      <g>
       <use xlink:href="#m6ae6cb8899" x="57.17" y="100.278889" style="stroke: #000000; stroke-width: 0.8"/>
      </g>
     </g>
     <g id="text_11">
      <!-- 5000 -->
      <g transform="translate(24.72 104.078108)scale(0.1 -0.1)">
       <use xlink:href="#DejaVuSans-35"/>
       <use xlink:href="#DejaVuSans-30" x="63.623047"/>
       <use xlink:href="#DejaVuSans-30" x="127.246094"/>
       <use xlink:href="#DejaVuSans-30" x="190.869141"/>
      </g>
     </g>
    </g>
    <g id="ytick_7">
     <g id="line2d_11">
      <g>
       <use xlink:href="#m6ae6cb8899" x="57.17" y="59.606667" style="stroke: #000000; stroke-width: 0.8"/>
      </g>
     </g>
     <g id="text_12">
      <!-- 6000 -->
      <g transform="translate(24.72 63.405885)scale(0.1 -0.1)">
       <defs>
        <path id="DejaVuSans-36" d="M 2113 2584 
Q 1688 2584 1439 2293 
Q 1191 2003 1191 1497 
Q 1191 994 1439 701 
Q 1688 409 2113 409 
Q 2538 409 2786 701 
Q 3034 994 3034 1497 
Q 3034 2003 2786 2293 
Q 2538 2584 2113 2584 
z
M 3366 4563 
L 3366 3988 
Q 3128 4100 2886 4159 
Q 2644 4219 2406 4219 
Q 1781 4219 1451 3797 
Q 1122 3375 1075 2522 
Q 1259 2794 1537 2939 
Q 1816 3084 2150 3084 
Q 2853 3084 3261 2657 
Q 3669 2231 3669 1497 
Q 3669 778 3244 343 
Q 2819 -91 2113 -91 
Q 1303 -91 875 529 
Q 447 1150 447 2328 
Q 447 3434 972 4092 
Q 1497 4750 2381 4750 
Q 2619 4750 2861 4703 
Q 3103 4656 3366 4563 
z
" transform="scale(0.015625)"/>
       </defs>
       <use xlink:href="#DejaVuSans-36"/>
       <use xlink:href="#DejaVuSans-30" x="63.623047"/>
       <use xlink:href="#DejaVuSans-30" x="127.246094"/>
       <use xlink:href="#DejaVuSans-30" x="190.869141"/>
      </g>
     </g>
    </g>
    <g id="ytick_8">
     <g id="line2d_12">
      <g>
       <use xlink:href="#m6ae6cb8899" x="57.17" y="18.934444" style="stroke: #000000; stroke-width: 0.8"/>
      </g>
     </g>
     <g id="text_13">
      <!-- 7000 -->
      <g transform="translate(24.72 22.733663)scale(0.1 -0.1)">
       <defs>
        <path id="DejaVuSans-37" d="M 525 4666 
L 3525 4666 
L 3525 4397 
L 1831 0 
L 1172 0 
L 2766 4134 
L 525 4134 
L 525 4666 
z
" transform="scale(0.015625)"/>
       </defs>
       <use xlink:href="#DejaVuSans-37"/>
       <use xlink:href="#DejaVuSans-30" x="63.623047"/>
       <use xlink:href="#DejaVuSans-30" x="127.246094"/>
       <use xlink:href="#DejaVuSans-30" x="190.869141"/>
      </g>
     </g>
    </g>
    <g id="text_14">
     <!-- Number of Burglaries -->
     <g transform="translate(18.640313 210.623906)rotate(-90)scale(0.1 -0.1)">
      <defs>
       <path id="DejaVuSans-4e" d="M 628 4666 
L 1478 4666 
L 3547 763 
L 3547 4666 
L 4159 4666 
L 4159 0 
L 3309 0 
L 1241 3903 
L 1241 0 
L 628 0 
L 628 4666 
z
" transform="scale(0.015625)"/>
       <path id="DejaVuSans-75" d="M 544 1381 
L 544 3500 
L 1119 3500 
L 1119 1403 
Q 1119 906 1312 657 
Q 1506 409 1894 409 
Q 2359 409 2629 706 
Q 2900 1003 2900 1516 
L 2900 3500 
L 3475 3500 
L 3475 0 
L 2900 0 
L 2900 538 
Q 2691 219 2414 64 
Q 2138 -91 1772 -91 
Q 1169 -91 856 284 
Q 544 659 544 1381 
z
M 1991 3584 
L 1991 3584 
z
" transform="scale(0.015625)"/>
       <path id="DejaVuSans-62" d="M 3116 1747 
Q 3116 2381 2855 2742 
Q 2594 3103 2138 3103 
Q 1681 3103 1420 2742 
Q 1159 2381 1159 1747 
Q 1159 1113 1420 752 
Q 1681 391 2138 391 
Q 2594 391 2855 752 
Q 3116 1113 3116 1747 
z
M 1159 2969 
Q 1341 3281 1617 3432 
Q 1894 3584 2278 3584 
Q 2916 3584 3314 3078 
Q 3713 2572 3713 1747 
Q 3713 922 3314 415 
Q 2916 -91 2278 -91 
Q 1894 -91 1617 61 
Q 1341 213 1159 525 
L 1159 0 
L 581 0 
L 581 4863 
L 1159 4863 
L 1159 2969 
z
" transform="scale(0.015625)"/>
       <path id="DejaVuSans-66" d="M 2375 4863 
L 2375 4384 
L 1825 4384 
Q 1516 4384 1395 4259 
Q 1275 4134 1275 3809 
L 1275 3500 
L 2222 3500 
L 2222 3053 
L 1275 3053 
L 1275 0 
L 697 0 
L 697 3053 
L 147 3053 
L 147 3500 
L 697 3500 
L 697 3744 
Q 697 4328 969 4595 
Q 1241 4863 1831 4863 
L 2375 4863 
z
" transform="scale(0.015625)"/>
       <path id="DejaVuSans-42" d="M 1259 2228 
L 1259 519 
L 2272 519 
Q 2781 519 3026 730 
Q 3272 941 3272 1375 
Q 3272 1813 3026 2020 
Q 2781 2228 2272 2228 
L 1259 2228 
z
M 1259 4147 
L 1259 2741 
L 2194 2741 
Q 2656 2741 2882 2914 
Q 3109 3088 3109 3444 
Q 3109 3797 2882 3972 
Q 2656 4147 2194 4147 
L 1259 4147 
z
M 628 4666 
L 2241 4666 
Q 2963 4666 3353 4366 
Q 3744 4066 3744 3513 
Q 3744 3084 3544 2831 
Q 3344 2578 2956 2516 
Q 3422 2416 3680 2098 
Q 3938 1781 3938 1306 
Q 3938 681 3513 340 
Q 3088 0 2303 0 
L 628 0 
L 628 4666 
z
" transform="scale(0.015625)"/>
       <path id="DejaVuSans-67" d="M 2906 1791 
Q 2906 2416 2648 2759 
Q 2391 3103 1925 3103 
Q 1463 3103 1205 2759 
Q 947 2416 947 1791 
Q 947 1169 1205 825 
Q 1463 481 1925 481 
Q 2391 481 2648 825 
Q 2906 1169 2906 1791 
z
M 3481 434 
Q 3481 -459 3084 -895 
Q 2688 -1331 1869 -1331 
Q 1566 -1331 1297 -1286 
Q 1028 -1241 775 -1147 
L 775 -588 
Q 1028 -725 1275 -790 
Q 1522 -856 1778 -856 
Q 2344 -856 2625 -561 
Q 2906 -266 2906 331 
L 2906 616 
Q 2728 306 2450 153 
Q 2172 0 1784 0 
Q 1141 0 747 490 
Q 353 981 353 1791 
Q 353 2603 747 3093 
Q 1141 3584 1784 3584 
Q 2172 3584 2450 3431 
Q 2728 3278 2906 2969 
L 2906 3500 
L 3481 3500 
L 3481 434 
z
" transform="scale(0.015625)"/>
      </defs>
      <use xlink:href="#DejaVuSans-4e"/>
      <use xlink:href="#DejaVuSans-75" x="74.804688"/>
      <use xlink:href="#DejaVuSans-6d" x="138.183594"/>
      <use xlink:href="#DejaVuSans-62" x="235.595703"/>
      <use xlink:href="#DejaVuSans-65" x="299.072266"/>
      <use xlink:href="#DejaVuSans-72" x="360.595703"/>
      <use xlink:href="#DejaVuSans-20" x="401.708984"/>
      <use xlink:href="#DejaVuSans-6f" x="433.496094"/>
      <use xlink:href="#DejaVuSans-66" x="494.677734"/>
      <use xlink:href="#DejaVuSans-20" x="529.882812"/>
      <use xlink:href="#DejaVuSans-42" x="561.669922"/>
      <use xlink:href="#DejaVuSans-75" x="630.273438"/>
      <use xlink:href="#DejaVuSans-72" x="693.652344"/>
      <use xlink:href="#DejaVuSans-67" x="733.015625"/>
      <use xlink:href="#DejaVuSans-6c" x="796.492188"/>
      <use xlink:href="#DejaVuSans-61" x="824.275391"/>
      <use xlink:href="#DejaVuSans-72" x="885.554688"/>
      <use xlink:href="#DejaVuSans-69" x="926.667969"/>
      <use xlink:href="#DejaVuSans-65" x="954.451172"/>
      <use xlink:href="#DejaVuSans-73" x="1015.974609"/>
     </g>
    </g>
   </g>
   <g id="line2d_13">
    <path d="M 57.17 322.252872 
L 65.186939 321.961379 
L 73.203878 321.669885 
L 81.220816 321.378392 
L 89.237755 321.086898 
L 97.254694 320.795405 
L 105.271633 320.503912 
L 113.288571 320.212418 
L 121.30551 319.920925 
L 129.322449 319.629432 
L 137.339388 319.337938 
L 145.356327 319.046445 
L 153.373265 318.754951 
L 161.390204 318.463458 
L 169.407143 318.171965 
L 177.424082 317.880471 
L 185.44102 317.588978 
L 193.457959 317.297484 
L 201.474898 317.005991 
L 209.491837 316.714498 
L 217.508776 316.423004 
L 225.525714 316.131511 
L 233.542653 315.840018 
L 241.559592 315.548524 
L 249.576531 315.257031 
L 257.593469 314.965537 
L 265.610408 314.674044 
L 273.627347 314.382551 
L 281.644286 314.091057 
L 289.661224 313.799564 
L 297.678163 313.50807 
L 305.695102 313.216577 
L 313.712041 312.925084 
L 321.72898 312.63359 
L 329.745918 312.342097 
L 337.762857 312.050604 
L 345.779796 311.75911 
L 353.796735 311.467617 
L 361.813673 311.176123 
L 369.830612 310.88463 
L 377.847551 310.593137 
L 385.86449 310.301643 
L 393.881429 310.01015 
L 401.898367 309.718656 
L 409.915306 309.427163 
L 417.932245 309.13567 
L 425.949184 308.844176 
L 433.966122 308.552683 
L 441.983061 308.26119 
L 450 307.969696 
" clip-path="url(#pd2bf958220)" style="fill: none; stroke: #d70000; stroke-width: 1.5; stroke-linecap: square"/>
   </g>
   <g id="line2d_14">
    <path d="M 57.17 235.252592 
L 65.186939 235.980562 
L 73.203878 236.708531 
L 81.220816 237.436501 
L 89.237755 238.164471 
L 97.254694 238.89244 
L 105.271633 239.62041 
L 113.288571 240.34838 
L 121.30551 241.07635 
L 129.322449 241.804319 
L 137.339388 242.532289 
L 145.356327 243.260259 
L 153.373265 243.988228 
L 161.390204 244.716198 
L 169.407143 245.444168 
L 177.424082 246.172137 
L 185.44102 246.900107 
L 193.457959 247.628077 
L 201.474898 248.356046 
L 209.491837 249.084016 
L 217.508776 249.811986 
L 225.525714 250.539955 
L 233.542653 251.267925 
L 241.559592 251.995895 
L 249.576531 252.723865 
L 257.593469 253.451834 
L 265.610408 254.179804 
L 273.627347 254.907774 
L 281.644286 255.635743 
L 289.661224 256.363713 
L 297.678163 257.091683 
L 305.695102 257.819652 
L 313.712041 258.547622 
L 321.72898 259.275592 
L 329.745918 260.003561 
L 337.762857 260.731531 
L 345.779796 261.459501 
L 353.796735 262.187471 
L 361.813673 262.91544 
L 369.830612 263.64341 
L 377.847551 264.37138 
L 385.86449 265.099349 
L 393.881429 265.827319 
L 401.898367 266.555289 
L 409.915306 267.283258 
L 417.932245 268.011228 
L 425.949184 268.739198 
L 433.966122 269.467167 
L 441.983061 270.195137 
L 450 270.923107 
" clip-path="url(#pd2bf958220)" style="fill: none; stroke: #8c3cff; stroke-width: 1.5; stroke-linecap: square"/>
   </g>
   <g id="line2d_15">
    <path d="M 57.17 282.943303 
L 65.186939 282.937324 
L 73.203878 282.931344 
L 81.220816 282.925364 
L 89.237755 282.919384 
L 97.254694 282.913405 
L 105.271633 282.907425 
L 113.288571 282.901445 
L 121.30551 282.895465 
L 129.322449 282.889485 
L 137.339388 282.883506 
L 145.356327 282.877526 
L 153.373265 282.871546 
L 161.390204 282.865566 
L 169.407143 282.859587 
L 177.424082 282.853607 
L 185.44102 282.847627 
L 193.457959 282.841647 
L 201.474898 282.835668 
L 209.491837 282.829688 
L 217.508776 282.823708 
L 225.525714 282.817728 
L 233.542653 282.811748 
L 241.559592 282.805769 
L 249.576531 282.799789 
L 257.593469 282.793809 
L 265.610408 282.787829 
L 273.627347 282.78185 
L 281.644286 282.77587 
L 289.661224 282.76989 
L 297.678163 282.76391 
L 305.695102 282.757931 
L 313.712041 282.751951 
L 321.72898 282.745971 
L 329.745918 282.739991 
L 337.762857 282.734012 
L 345.779796 282.728032 
L 353.796735 282.722052 
L 361.813673 282.716072 
L 369.830612 282.710092 
L 377.847551 282.704113 
L 385.86449 282.698133 
L 393.881429 282.692153 
L 401.898367 282.686173 
L 409.915306 282.680194 
L 417.932245 282.674214 
L 425.949184 282.668234 
L 433.966122 282.662254 
L 441.983061 282.656275 
L 450 282.650295 
" clip-path="url(#pd2bf958220)" style="fill: none; stroke: #028800; stroke-width: 1.5; stroke-linecap: square"/>
   </g>
   <g id="line2d_16">
    <path d="M 57.17 267.641202 
L 65.186939 267.692686 
L 73.203878 267.74417 
L 81.220816 267.795654 
L 89.237755 267.847137 
L 97.254694 267.898621 
L 105.271633 267.950105 
L 113.288571 268.001589 
L 121.30551 268.053072 
L 129.322449 268.104556 
L 137.339388 268.15604 
L 145.356327 268.207523 
L 153.373265 268.259007 
L 161.390204 268.310491 
L 169.407143 268.361975 
L 177.424082 268.413458 
L 185.44102 268.464942 
L 193.457959 268.516426 
L 201.474898 268.56791 
L 209.491837 268.619393 
L 217.508776 268.670877 
L 225.525714 268.722361 
L 233.542653 268.773844 
L 241.559592 268.825328 
L 249.576531 268.876812 
L 257.593469 268.928296 
L 265.610408 268.979779 
L 273.627347 269.031263 
L 281.644286 269.082747 
L 289.661224 269.13423 
L 297.678163 269.185714 
L 305.695102 269.237198 
L 313.712041 269.288682 
L 321.72898 269.340165 
L 329.745918 269.391649 
L 337.762857 269.443133 
L 345.779796 269.494617 
L 353.796735 269.5461 
L 361.813673 269.597584 
L 369.830612 269.649068 
L 377.847551 269.700551 
L 385.86449 269.752035 
L 393.881429 269.803519 
L 401.898367 269.855003 
L 409.915306 269.906486 
L 417.932245 269.95797 
L 425.949184 270.009454 
L 433.966122 270.060938 
L 441.983061 270.112421 
L 450 270.163905 
" clip-path="url(#pd2bf958220)" style="fill: none; stroke: #00acc7; stroke-width: 1.5; stroke-linecap: square"/>
   </g>
   <g id="line2d_17">
    <path d="M 57.17 277.723614 
L 65.186939 277.62815 
L 73.203878 277.532687 
L 81.220816 277.437223 
L 89.237755 277.341759 
L 97.254694 277.246295 
L 105.271633 277.150831 
L 113.288571 277.055367 
L 121.30551 276.959903 
L 129.322449 276.86444 
L 137.339388 276.768976 
L 145.356327 276.673512 
L 153.373265 276.578048 
L 161.390204 276.482584 
L 169.407143 276.38712 
L 177.424082 276.291656 
L 185.44102 276.196193 
L 193.457959 276.100729 
L 201.474898 276.005265 
L 209.491837 275.909801 
L 217.508776 275.814337 
L 225.525714 275.718873 
L 233.542653 275.623409 
L 241.559592 275.527946 
L 249.576531 275.432482 
L 257.593469 275.337018 
L 265.610408 275.241554 
L 273.627347 275.14609 
L 281.644286 275.050626 
L 289.661224 274.955162 
L 297.678163 274.859699 
L 305.695102 274.764235 
L 313.712041 274.668771 
L 321.72898 274.573307 
L 329.745918 274.477843 
L 337.762857 274.382379 
L 345.779796 274.286915 
L 353.796735 274.191452 
L 361.813673 274.095988 
L 369.830612 274.000524 
L 377.847551 273.90506 
L 385.86449 273.809596 
L 393.881429 273.714132 
L 401.898367 273.618668 
L 409.915306 273.523205 
L 417.932245 273.427741 
L 425.949184 273.332277 
L 433.966122 273.236813 
L 441.983061 273.141349 
L 450 273.045885 
" clip-path="url(#pd2bf958220)" style="fill: none; stroke: #98ff00; stroke-width: 1.5; stroke-linecap: square"/>
   </g>
   <g id="line2d_18">
    <path d="M 57.17 179.452839 
L 65.186939 178.871561 
L 73.203878 178.290284 
L 81.220816 177.709007 
L 89.237755 177.127729 
L 97.254694 176.546452 
L 105.271633 175.965174 
L 113.288571 175.383897 
L 121.30551 174.80262 
L 129.322449 174.221342 
L 137.339388 173.640065 
L 145.356327 173.058787 
L 153.373265 172.47751 
L 161.390204 171.896233 
L 169.407143 171.314955 
L 177.424082 170.733678 
L 185.44102 170.152401 
L 193.457959 169.571123 
L 201.474898 168.989846 
L 209.491837 168.408568 
L 217.508776 167.827291 
L 225.525714 167.246014 
L 233.542653 166.664736 
L 241.559592 166.083459 
L 249.576531 165.502181 
L 257.593469 164.920904 
L 265.610408 164.339627 
L 273.627347 163.758349 
L 281.644286 163.177072 
L 289.661224 162.595795 
L 297.678163 162.014517 
L 305.695102 161.43324 
L 313.712041 160.851962 
L 321.72898 160.270685 
L 329.745918 159.689408 
L 337.762857 159.10813 
L 345.779796 158.526853 
L 353.796735 157.945575 
L 361.813673 157.364298 
L 369.830612 156.783021 
L 377.847551 156.201743 
L 385.86449 155.620466 
L 393.881429 155.039189 
L 401.898367 154.457911 
L 409.915306 153.876634 
L 417.932245 153.295356 
L 425.949184 152.714079 
L 433.966122 152.132802 
L 441.983061 151.551524 
L 450 150.970247 
" clip-path="url(#pd2bf958220)" style="fill: none; stroke: #ff7fd1; stroke-width: 1.5; stroke-linecap: square"/>
   </g>
   <g id="line2d_19">
    <path d="M 57.17 0.06916 
L 65.186939 0.795123 
L 73.203878 1.521086 
L 81.220816 2.247049 
L 89.237755 2.973012 
L 97.254694 3.698975 
L 105.271633 4.424938 
L 113.288571 5.1509 
L 121.30551 5.876863 
L 129.322449 6.602826 
L 137.339388 7.328789 
L 145.356327 8.054752 
L 153.373265 8.780715 
L 161.390204 9.506678 
L 169.407143 10.232641 
L 177.424082 10.958604 
L 185.44102 11.684567 
L 193.457959 12.41053 
L 201.474898 13.136493 
L 209.491837 13.862455 
L 217.508776 14.588418 
L 225.525714 15.314381 
L 233.542653 16.040344 
L 241.559592 16.766307 
L 249.576531 17.49227 
L 257.593469 18.218233 
L 265.610408 18.944196 
L 273.627347 19.670159 
L 281.644286 20.396122 
L 289.661224 21.122085 
L 297.678163 21.848048 
L 305.695102 22.57401 
L 313.712041 23.299973 
L 321.72898 24.025936 
L 329.745918 24.751899 
L 337.762857 25.477862 
L 345.779796 26.203825 
L 353.796735 26.929788 
L 361.813673 27.655751 
L 369.830612 28.381714 
L 377.847551 29.107677 
L 385.86449 29.83364 
L 393.881429 30.559603 
L 401.898367 31.285565 
L 409.915306 32.011528 
L 417.932245 32.737491 
L 425.949184 33.463454 
L 433.966122 34.189417 
L 441.983061 34.91538 
L 450 35.641343 
" clip-path="url(#pd2bf958220)" style="fill: none; stroke: #6c004f; stroke-width: 1.5; stroke-linecap: square"/>
   </g>
   <g id="line2d_20">
    <path d="M 57.17 272.936764 
L 65.186939 273.191195 
L 73.203878 273.445626 
L 81.220816 273.700058 
L 89.237755 273.954489 
L 97.254694 274.20892 
L 105.271633 274.463351 
L 113.288571 274.717782 
L 121.30551 274.972213 
L 129.322449 275.226644 
L 137.339388 275.481075 
L 145.356327 275.735506 
L 153.373265 275.989937 
L 161.390204 276.244368 
L 169.407143 276.4988 
L 177.424082 276.753231 
L 185.44102 277.007662 
L 193.457959 277.262093 
L 201.474898 277.516524 
L 209.491837 277.770955 
L 217.508776 278.025386 
L 225.525714 278.279817 
L 233.542653 278.534248 
L 241.559592 278.788679 
L 249.576531 279.043111 
L 257.593469 279.297542 
L 265.610408 279.551973 
L 273.627347 279.806404 
L 281.644286 280.060835 
L 289.661224 280.315266 
L 297.678163 280.569697 
L 305.695102 280.824128 
L 313.712041 281.078559 
L 321.72898 281.33299 
L 329.745918 281.587421 
L 337.762857 281.841853 
L 345.779796 282.096284 
L 353.796735 282.350715 
L 361.813673 282.605146 
L 369.830612 282.859577 
L 377.847551 283.114008 
L 385.86449 283.368439 
L 393.881429 283.62287 
L 401.898367 283.877301 
L 409.915306 284.131732 
L 417.932245 284.386164 
L 425.949184 284.640595 
L 433.966122 284.895026 
L 441.983061 285.149457 
L 450 285.403888 
" clip-path="url(#pd2bf958220)" style="fill: none; stroke: #583b00; stroke-width: 1.5; stroke-linecap: square"/>
   </g>
   <g id="line2d_21">
    <path d="M 57.17 135.142129 
L 65.186939 134.461758 
L 73.203878 133.781386 
L 81.220816 133.101015 
L 89.237755 132.420644 
L 97.254694 131.740273 
L 105.271633 131.059902 
L 113.288571 130.37953 
L 121.30551 129.699159 
L 129.322449 129.018788 
L 137.339388 128.338417 
L 145.356327 127.658046 
L 153.373265 126.977675 
L 161.390204 126.297303 
L 169.407143 125.616932 
L 177.424082 124.936561 
L 185.44102 124.25619 
L 193.457959 123.575819 
L 201.474898 122.895447 
L 209.491837 122.215076 
L 217.508776 121.534705 
L 225.525714 120.854334 
L 233.542653 120.173963 
L 241.559592 119.493592 
L 249.576531 118.81322 
L 257.593469 118.132849 
L 265.610408 117.452478 
L 273.627347 116.772107 
L 281.644286 116.091736 
L 289.661224 115.411364 
L 297.678163 114.730993 
L 305.695102 114.050622 
L 313.712041 113.370251 
L 321.72898 112.68988 
L 329.745918 112.009509 
L 337.762857 111.329137 
L 345.779796 110.648766 
L 353.796735 109.968395 
L 361.813673 109.288024 
L 369.830612 108.607653 
L 377.847551 107.927281 
L 385.86449 107.24691 
L 393.881429 106.566539 
L 401.898367 105.886168 
L 409.915306 105.205797 
L 417.932245 104.525426 
L 425.949184 103.845054 
L 433.966122 103.164683 
L 441.983061 102.484312 
L 450 101.803941 
" clip-path="url(#pd2bf958220)" style="fill: none; stroke: #005759; stroke-width: 1.5; stroke-linecap: square"/>
   </g>
   <g id="line2d_22">
    <path d="M 57.17 299.02065 
L 65.186939 299.06234 
L 73.203878 299.104029 
L 81.220816 299.145718 
L 89.237755 299.187407 
L 97.254694 299.229096 
L 105.271633 299.270785 
L 113.288571 299.312474 
L 121.30551 299.354164 
L 129.322449 299.395853 
L 137.339388 299.437542 
L 145.356327 299.479231 
L 153.373265 299.52092 
L 161.390204 299.562609 
L 169.407143 299.604298 
L 177.424082 299.645988 
L 185.44102 299.687677 
L 193.457959 299.729366 
L 201.474898 299.771055 
L 209.491837 299.812744 
L 217.508776 299.854433 
L 225.525714 299.896122 
L 233.542653 299.937812 
L 241.559592 299.979501 
L 249.576531 300.02119 
L 257.593469 300.062879 
L 265.610408 300.104568 
L 273.627347 300.146257 
L 281.644286 300.187946 
L 289.661224 300.229636 
L 297.678163 300.271325 
L 305.695102 300.313014 
L 313.712041 300.354703 
L 321.72898 300.396392 
L 329.745918 300.438081 
L 337.762857 300.47977 
L 345.779796 300.52146 
L 353.796735 300.563149 
L 361.813673 300.604838 
L 369.830612 300.646527 
L 377.847551 300.688216 
L 385.86449 300.729905 
L 393.881429 300.771594 
L 401.898367 300.813284 
L 409.915306 300.854973 
L 417.932245 300.896662 
L 425.949184 300.938351 
L 433.966122 300.98004 
L 441.983061 301.021729 
L 450 301.063418 
" clip-path="url(#pd2bf958220)" style="fill: none; stroke: #0000dd; stroke-width: 1.5; stroke-linecap: square"/>
   </g>
   <g id="line2d_23">
    <path d="M 57.17 203.974074 
L 65.186939 204.890948 
L 73.203878 205.807822 
L 81.220816 206.724695 
L 89.237755 207.641569 
L 97.254694 208.558443 
L 105.271633 209.475317 
L 113.288571 210.39219 
L 121.30551 211.309064 
L 129.322449 212.225938 
L 137.339388 213.142812 
L 145.356327 214.059685 
L 153.373265 214.976559 
L 161.390204 215.893433 
L 169.407143 216.810307 
L 177.424082 217.727181 
L 185.44102 218.644054 
L 193.457959 219.560928 
L 201.474898 220.477802 
L 209.491837 221.394676 
L 217.508776 222.311549 
L 225.525714 223.228423 
L 233.542653 224.145297 
L 241.559592 225.062171 
L 249.576531 225.979044 
L 257.593469 226.895918 
L 265.610408 227.812792 
L 273.627347 228.729666 
L 281.644286 229.646539 
L 289.661224 230.563413 
L 297.678163 231.480287 
L 305.695102 232.397161 
L 313.712041 233.314034 
L 321.72898 234.230908 
L 329.745918 235.147782 
L 337.762857 236.064656 
L 345.779796 236.98153 
L 353.796735 237.898403 
L 361.813673 238.815277 
L 369.830612 239.732151 
L 377.847551 240.649025 
L 385.86449 241.565898 
L 393.881429 242.482772 
L 401.898367 243.399646 
L 409.915306 244.31652 
L 417.932245 245.233393 
L 425.949184 246.150267 
L 433.966122 247.067141 
L 441.983061 247.984015 
L 450 248.900888 
" clip-path="url(#pd2bf958220)" style="fill: none; stroke: #95b578; stroke-width: 1.5; stroke-linecap: square"/>
   </g>
   <g id="line2d_24">
    <path d="M 57.17 303.956328 
L 65.186939 303.92203 
L 73.203878 303.887732 
L 81.220816 303.853434 
L 89.237755 303.819136 
L 97.254694 303.784839 
L 105.271633 303.750541 
L 113.288571 303.716243 
L 121.30551 303.681945 
L 129.322449 303.647647 
L 137.339388 303.613349 
L 145.356327 303.579052 
L 153.373265 303.544754 
L 161.390204 303.510456 
L 169.407143 303.476158 
L 177.424082 303.44186 
L 185.44102 303.407562 
L 193.457959 303.373265 
L 201.474898 303.338967 
L 209.491837 303.304669 
L 217.508776 303.270371 
L 225.525714 303.236073 
L 233.542653 303.201775 
L 241.559592 303.167478 
L 249.576531 303.13318 
L 257.593469 303.098882 
L 265.610408 303.064584 
L 273.627347 303.030286 
L 281.644286 302.995988 
L 289.661224 302.961691 
L 297.678163 302.927393 
L 305.695102 302.893095 
L 313.712041 302.858797 
L 321.72898 302.824499 
L 329.745918 302.790201 
L 337.762857 302.755904 
L 345.779796 302.721606 
L 353.796735 302.687308 
L 361.813673 302.65301 
L 369.830612 302.618712 
L 377.847551 302.584414 
L 385.86449 302.550117 
L 393.881429 302.515819 
L 401.898367 302.481521 
L 409.915306 302.447223 
L 417.932245 302.412925 
L 425.949184 302.378627 
L 433.966122 302.34433 
L 441.983061 302.310032 
L 450 302.275734 
" clip-path="url(#pd2bf958220)" style="fill: none; stroke: #c004b9; stroke-width: 1.5; stroke-linecap: square"/>
   </g>
   <g id="line2d_25">
    <path d="M 57.17 279.030583 
L 65.186939 279.001922 
L 73.203878 278.973262 
L 81.220816 278.944601 
L 89.237755 278.91594 
L 97.254694 278.88728 
L 105.271633 278.858619 
L 113.288571 278.829958 
L 121.30551 278.801298 
L 129.322449 278.772637 
L 137.339388 278.743977 
L 145.356327 278.715316 
L 153.373265 278.686655 
L 161.390204 278.657995 
L 169.407143 278.629334 
L 177.424082 278.600673 
L 185.44102 278.572013 
L 193.457959 278.543352 
L 201.474898 278.514692 
L 209.491837 278.486031 
L 217.508776 278.45737 
L 225.525714 278.42871 
L 233.542653 278.400049 
L 241.559592 278.371388 
L 249.576531 278.342728 
L 257.593469 278.314067 
L 265.610408 278.285407 
L 273.627347 278.256746 
L 281.644286 278.228085 
L 289.661224 278.199425 
L 297.678163 278.170764 
L 305.695102 278.142104 
L 313.712041 278.113443 
L 321.72898 278.084782 
L 329.745918 278.056122 
L 337.762857 278.027461 
L 345.779796 277.9988 
L 353.796735 277.97014 
L 361.813673 277.941479 
L 369.830612 277.912819 
L 377.847551 277.884158 
L 385.86449 277.855497 
L 393.881429 277.826837 
L 401.898367 277.798176 
L 409.915306 277.769515 
L 417.932245 277.740855 
L 425.949184 277.712194 
L 433.966122 277.683534 
L 441.983061 277.654873 
L 450 277.626212 
" clip-path="url(#pd2bf958220)" style="fill: none; stroke: #0774d8; stroke-width: 1.5; stroke-linecap: square"/>
   </g>
   <g id="line2d_26">
    <path d="M 57.17 250.270894 
L 65.186939 250.617405 
L 73.203878 250.963915 
L 81.220816 251.310425 
L 89.237755 251.656935 
L 97.254694 252.003446 
L 105.271633 252.349956 
L 113.288571 252.696466 
L 121.30551 253.042977 
L 129.322449 253.389487 
L 137.339388 253.735997 
L 145.356327 254.082507 
L 153.373265 254.429018 
L 161.390204 254.775528 
L 169.407143 255.122038 
L 177.424082 255.468549 
L 185.44102 255.815059 
L 193.457959 256.161569 
L 201.474898 256.508079 
L 209.491837 256.85459 
L 217.508776 257.2011 
L 225.525714 257.54761 
L 233.542653 257.89412 
L 241.559592 258.240631 
L 249.576531 258.587141 
L 257.593469 258.933651 
L 265.610408 259.280162 
L 273.627347 259.626672 
L 281.644286 259.973182 
L 289.661224 260.319692 
L 297.678163 260.666203 
L 305.695102 261.012713 
L 313.712041 261.359223 
L 321.72898 261.705733 
L 329.745918 262.052244 
L 337.762857 262.398754 
L 345.779796 262.745264 
L 353.796735 263.091775 
L 361.813673 263.438285 
L 369.830612 263.784795 
L 377.847551 264.131305 
L 385.86449 264.477816 
L 393.881429 264.824326 
L 401.898367 265.170836 
L 409.915306 265.517347 
L 417.932245 265.863857 
L 425.949184 266.210367 
L 433.966122 266.556877 
L 441.983061 266.903388 
L 450 267.249898 
" clip-path="url(#pd2bf958220)" style="fill: none; stroke: #fef590; stroke-width: 1.5; stroke-linecap: square"/>
   </g>
   <g id="line2d_27">
    <path d="M 57.17 246.175043 
L 65.186939 246.109866 
L 73.203878 246.044689 
L 81.220816 245.979512 
L 89.237755 245.914335 
L 97.254694 245.849158 
L 105.271633 245.783981 
L 113.288571 245.718804 
L 121.30551 245.653627 
L 129.322449 245.58845 
L 137.339388 245.523273 
L 145.356327 245.458096 
L 153.373265 245.392919 
L 161.390204 245.327742 
L 169.407143 245.262565 
L 177.424082 245.197388 
L 185.44102 245.132211 
L 193.457959 245.067034 
L 201.474898 245.001857 
L 209.491837 244.93668 
L 217.508776 244.871503 
L 225.525714 244.806326 
L 233.542653 244.741148 
L 241.559592 244.675971 
L 249.576531 244.610794 
L 257.593469 244.545617 
L 265.610408 244.48044 
L 273.627347 244.415263 
L 281.644286 244.350086 
L 289.661224 244.284909 
L 297.678163 244.219732 
L 305.695102 244.154555 
L 313.712041 244.089378 
L 321.72898 244.024201 
L 329.745918 243.959024 
L 337.762857 243.893847 
L 345.779796 243.82867 
L 353.796735 243.763493 
L 361.813673 243.698316 
L 369.830612 243.633139 
L 377.847551 243.567962 
L 385.86449 243.502785 
L 393.881429 243.437608 
L 401.898367 243.372431 
L 409.915306 243.307254 
L 417.932245 243.242077 
L 425.949184 243.176899 
L 433.966122 243.111722 
L 441.983061 243.046545 
L 450 242.981368 
" clip-path="url(#pd2bf958220)" style="fill: none; stroke: #8f7a00; stroke-width: 1.5; stroke-linecap: square"/>
   </g>
   <g id="line2d_28">
    <path d="M 57.17 246.612702 
L 65.186939 246.611922 
L 73.203878 246.611142 
L 81.220816 246.610362 
L 89.237755 246.609582 
L 97.254694 246.608802 
L 105.271633 246.608022 
L 113.288571 246.607242 
L 121.30551 246.606462 
L 129.322449 246.605682 
L 137.339388 246.604902 
L 145.356327 246.604122 
L 153.373265 246.603342 
L 161.390204 246.602562 
L 169.407143 246.601782 
L 177.424082 246.601002 
L 185.44102 246.600222 
L 193.457959 246.599442 
L 201.474898 246.598662 
L 209.491837 246.597882 
L 217.508776 246.597102 
L 225.525714 246.596322 
L 233.542653 246.595542 
L 241.559592 246.594762 
L 249.576531 246.593982 
L 257.593469 246.593202 
L 265.610408 246.592422 
L 273.627347 246.591642 
L 281.644286 246.590862 
L 289.661224 246.590082 
L 297.678163 246.589302 
L 305.695102 246.588522 
L 313.712041 246.587742 
L 321.72898 246.586962 
L 329.745918 246.586182 
L 337.762857 246.585402 
L 345.779796 246.584622 
L 353.796735 246.583842 
L 361.813673 246.583062 
L 369.830612 246.582282 
L 377.847551 246.581502 
L 385.86449 246.580722 
L 393.881429 246.579942 
L 401.898367 246.579162 
L 409.915306 246.578382 
L 417.932245 246.577602 
L 425.949184 246.576822 
L 433.966122 246.576042 
L 441.983061 246.575262 
L 450 246.574482 
" clip-path="url(#pd2bf958220)" style="fill: none; stroke: #ff7266; stroke-width: 1.5; stroke-linecap: square"/>
   </g>
   <g id="line2d_29">
    <path d="M 57.17 176.519353 
L 65.186939 177.029956 
L 73.203878 177.540559 
L 81.220816 178.051161 
L 89.237755 178.561764 
L 97.254694 179.072367 
L 105.271633 179.582969 
L 113.288571 180.093572 
L 121.30551 180.604175 
L 129.322449 181.114777 
L 137.339388 181.62538 
L 145.356327 182.135983 
L 153.373265 182.646585 
L 161.390204 183.157188 
L 169.407143 183.667791 
L 177.424082 184.178393 
L 185.44102 184.688996 
L 193.457959 185.199599 
L 201.474898 185.710201 
L 209.491837 186.220804 
L 217.508776 186.731407 
L 225.525714 187.242009 
L 233.542653 187.752612 
L 241.559592 188.263215 
L 249.576531 188.773817 
L 257.593469 189.28442 
L 265.610408 189.795022 
L 273.627347 190.305625 
L 281.644286 190.816228 
L 289.661224 191.32683 
L 297.678163 191.837433 
L 305.695102 192.348036 
L 313.712041 192.858638 
L 321.72898 193.369241 
L 329.745918 193.879844 
L 337.762857 194.390446 
L 345.779796 194.901049 
L 353.796735 195.411652 
L 361.813673 195.922254 
L 369.830612 196.432857 
L 377.847551 196.94346 
L 385.86449 197.454062 
L 393.881429 197.964665 
L 401.898367 198.475268 
L 409.915306 198.98587 
L 417.932245 199.496473 
L 425.949184 200.007076 
L 433.966122 200.517678 
L 441.983061 201.028281 
L 450 201.538884 
" clip-path="url(#pd2bf958220)" style="fill: none; stroke: #eeb9b9; stroke-width: 1.5; stroke-linecap: square"/>
   </g>
   <g id="line2d_30">
    <path d="M 57.17 272.58675 
L 65.186939 272.637457 
L 73.203878 272.688165 
L 81.220816 272.738873 
L 89.237755 272.789581 
L 97.254694 272.840289 
L 105.271633 272.890997 
L 113.288571 272.941705 
L 121.30551 272.992413 
L 129.322449 273.043121 
L 137.339388 273.093829 
L 145.356327 273.144536 
L 153.373265 273.195244 
L 161.390204 273.245952 
L 169.407143 273.29666 
L 177.424082 273.347368 
L 185.44102 273.398076 
L 193.457959 273.448784 
L 201.474898 273.499492 
L 209.491837 273.5502 
L 217.508776 273.600908 
L 225.525714 273.651615 
L 233.542653 273.702323 
L 241.559592 273.753031 
L 249.576531 273.803739 
L 257.593469 273.854447 
L 265.610408 273.905155 
L 273.627347 273.955863 
L 281.644286 274.006571 
L 289.661224 274.057279 
L 297.678163 274.107986 
L 305.695102 274.158694 
L 313.712041 274.209402 
L 321.72898 274.26011 
L 329.745918 274.310818 
L 337.762857 274.361526 
L 345.779796 274.412234 
L 353.796735 274.462942 
L 361.813673 274.51365 
L 369.830612 274.564358 
L 377.847551 274.615065 
L 385.86449 274.665773 
L 393.881429 274.716481 
L 401.898367 274.767189 
L 409.915306 274.817897 
L 417.932245 274.868605 
L 425.949184 274.919313 
L 433.966122 274.970021 
L 441.983061 275.020729 
L 450 275.071437 
" clip-path="url(#pd2bf958220)" style="fill: none; stroke: #5e7e66; stroke-width: 1.5; stroke-linecap: square"/>
   </g>
   <g id="line2d_31">
    <path d="M 57.17 339.177001 
L 65.186939 339.13041 
L 73.203878 339.083819 
L 81.220816 339.037228 
L 89.237755 338.990637 
L 97.254694 338.944046 
L 105.271633 338.897455 
L 113.288571 338.850864 
L 121.30551 338.804274 
L 129.322449 338.757683 
L 137.339388 338.711092 
L 145.356327 338.664501 
L 153.373265 338.61791 
L 161.390204 338.571319 
L 169.407143 338.524728 
L 177.424082 338.478137 
L 185.44102 338.431546 
L 193.457959 338.384955 
L 201.474898 338.338364 
L 209.491837 338.291773 
L 217.508776 338.245182 
L 225.525714 338.198591 
L 233.542653 338.152 
L 241.559592 338.105409 
L 249.576531 338.058818 
L 257.593469 338.012227 
L 265.610408 337.965636 
L 273.627347 337.919045 
L 281.644286 337.872454 
L 289.661224 337.825863 
L 297.678163 337.779272 
L 305.695102 337.732681 
L 313.712041 337.68609 
L 321.72898 337.639499 
L 329.745918 337.592908 
L 337.762857 337.546317 
L 345.779796 337.499726 
L 353.796735 337.453135 
L 361.813673 337.406544 
L 369.830612 337.359953 
L 377.847551 337.313362 
L 385.86449 337.266771 
L 393.881429 337.22018 
L 401.898367 337.173589 
L 409.915306 337.126998 
L 417.932245 337.080407 
L 425.949184 337.033816 
L 433.966122 336.987225 
L 441.983061 336.940634 
L 450 336.894043 
" clip-path="url(#pd2bf958220)" style="fill: none; stroke: #9be4ff; stroke-width: 1.5; stroke-linecap: square"/>
   </g>
   <g id="patch_3">
    <path d="M 57.17 303.64 
L 57.17 10.8 
" style="fill: none; stroke: #000000; stroke-width: 0.8; stroke-linejoin: miter; stroke-linecap: square"/>
   </g>
   <g id="patch_4">
    <path d="M 450 303.64 
L 450 10.8 
" style="fill: none; stroke: #000000; stroke-width: 0.8; stroke-linejoin: miter; stroke-linecap: square"/>
   </g>
   <g id="patch_5">
    <path d="M 57.17 303.64 
L 450 303.64 
" style="fill: none; stroke: #000000; stroke-width: 0.8; stroke-linejoin: miter; stroke-linecap: square"/>
   </g>
   <g id="patch_6">
    <path d="M 57.17 10.8 
L 450 10.8 
" style="fill: none; stroke: #000000; stroke-width: 0.8; stroke-linejoin: miter; stroke-linecap: square"/>
   </g>
   <g id="legend_1">
    <g id="patch_7">
     <path d="M 64.17 165.58125 
L 173.424688 165.58125 
Q 175.424688 165.58125 175.424688 163.58125 
L 175.424688 17.8 
Q 175.424688 15.8 173.424688 15.8 
L 64.17 15.8 
Q 62.17 15.8 62.17 17.8 
L 62.17 163.58125 
Q 62.17 165.58125 64.17 165.58125 
z
" style="fill: #ffffff; opacity: 0.8; stroke: #cccccc; stroke-linejoin: miter"/>
    </g>
    <g id="line2d_32">
     <path d="M 66.17 23.898438 
L 76.17 23.898438 
L 86.17 23.898438 
" style="fill: none; stroke: #d70000; stroke-width: 1.5; stroke-linecap: square"/>
    </g>
    <g id="text_15">
     <!-- AT -->
     <g transform="translate(94.17 27.398438)scale(0.1 -0.1)">
      <defs>
       <path id="DejaVuSans-41" d="M 2188 4044 
L 1331 1722 
L 3047 1722 
L 2188 4044 
z
M 1831 4666 
L 2547 4666 
L 4325 0 
L 3669 0 
L 3244 1197 
L 1141 1197 
L 716 0 
L 50 0 
L 1831 4666 
z
" transform="scale(0.015625)"/>
       <path id="DejaVuSans-54" d="M -19 4666 
L 3928 4666 
L 3928 4134 
L 2272 4134 
L 2272 0 
L 1638 0 
L 1638 4134 
L -19 4134 
L -19 4666 
z
" transform="scale(0.015625)"/>
      </defs>
      <use xlink:href="#DejaVuSans-41"/>
      <use xlink:href="#DejaVuSans-54" x="60.658203"/>
     </g>
    </g>
    <g id="line2d_33">
     <path d="M 66.17 38.576563 
L 76.17 38.576563 
L 86.17 38.576563 
" style="fill: none; stroke: #8c3cff; stroke-width: 1.5; stroke-linecap: square"/>
    </g>
    <g id="text_16">
     <!-- BE -->
     <g transform="translate(94.17 42.076563)scale(0.1 -0.1)">
      <defs>
       <path id="DejaVuSans-45" d="M 628 4666 
L 3578 4666 
L 3578 4134 
L 1259 4134 
L 1259 2753 
L 3481 2753 
L 3481 2222 
L 1259 2222 
L 1259 531 
L 3634 531 
L 3634 0 
L 628 0 
L 628 4666 
z
" transform="scale(0.015625)"/>
      </defs>
      <use xlink:href="#DejaVuSans-42"/>
      <use xlink:href="#DejaVuSans-45" x="68.603516"/>
     </g>
    </g>
    <g id="line2d_34">
     <path d="M 66.17 53.254688 
L 76.17 53.254688 
L 86.17 53.254688 
" style="fill: none; stroke: #028800; stroke-width: 1.5; stroke-linecap: square"/>
    </g>
    <g id="text_17">
     <!-- BG -->
     <g transform="translate(94.17 56.754688)scale(0.1 -0.1)">
      <defs>
       <path id="DejaVuSans-47" d="M 3809 666 
L 3809 1919 
L 2778 1919 
L 2778 2438 
L 4434 2438 
L 4434 434 
Q 4069 175 3628 42 
Q 3188 -91 2688 -91 
Q 1594 -91 976 548 
Q 359 1188 359 2328 
Q 359 3472 976 4111 
Q 1594 4750 2688 4750 
Q 3144 4750 3555 4637 
Q 3966 4525 4313 4306 
L 4313 3634 
Q 3963 3931 3569 4081 
Q 3175 4231 2741 4231 
Q 1884 4231 1454 3753 
Q 1025 3275 1025 2328 
Q 1025 1384 1454 906 
Q 1884 428 2741 428 
Q 3075 428 3337 486 
Q 3600 544 3809 666 
z
" transform="scale(0.015625)"/>
      </defs>
      <use xlink:href="#DejaVuSans-42"/>
      <use xlink:href="#DejaVuSans-47" x="66.853516"/>
     </g>
    </g>
    <g id="line2d_35">
     <path d="M 66.17 67.932813 
L 76.17 67.932813 
L 86.17 67.932813 
" style="fill: none; stroke: #00acc7; stroke-width: 1.5; stroke-linecap: square"/>
    </g>
    <g id="text_18">
     <!-- CY -->
     <g transform="translate(94.17 71.432813)scale(0.1 -0.1)">
      <defs>
       <path id="DejaVuSans-43" d="M 4122 4306 
L 4122 3641 
Q 3803 3938 3442 4084 
Q 3081 4231 2675 4231 
Q 1875 4231 1450 3742 
Q 1025 3253 1025 2328 
Q 1025 1406 1450 917 
Q 1875 428 2675 428 
Q 3081 428 3442 575 
Q 3803 722 4122 1019 
L 4122 359 
Q 3791 134 3420 21 
Q 3050 -91 2638 -91 
Q 1578 -91 968 557 
Q 359 1206 359 2328 
Q 359 3453 968 4101 
Q 1578 4750 2638 4750 
Q 3056 4750 3426 4639 
Q 3797 4528 4122 4306 
z
" transform="scale(0.015625)"/>
       <path id="DejaVuSans-59" d="M -13 4666 
L 666 4666 
L 1959 2747 
L 3244 4666 
L 3922 4666 
L 2272 2222 
L 2272 0 
L 1638 0 
L 1638 2222 
L -13 4666 
z
" transform="scale(0.015625)"/>
      </defs>
      <use xlink:href="#DejaVuSans-43"/>
      <use xlink:href="#DejaVuSans-59" x="68.074219"/>
     </g>
    </g>
    <g id="line2d_36">
     <path d="M 66.17 82.610938 
L 76.17 82.610938 
L 86.17 82.610938 
" style="fill: none; stroke: #98ff00; stroke-width: 1.5; stroke-linecap: square"/>
    </g>
    <g id="text_19">
     <!-- CZ -->
     <g transform="translate(94.17 86.110938)scale(0.1 -0.1)">
      <defs>
       <path id="DejaVuSans-5a" d="M 359 4666 
L 4025 4666 
L 4025 4184 
L 1075 531 
L 4097 531 
L 4097 0 
L 288 0 
L 288 481 
L 3238 4134 
L 359 4134 
L 359 4666 
z
" transform="scale(0.015625)"/>
      </defs>
      <use xlink:href="#DejaVuSans-43"/>
      <use xlink:href="#DejaVuSans-5a" x="69.824219"/>
     </g>
    </g>
    <g id="line2d_37">
     <path d="M 66.17 97.289063 
L 76.17 97.289063 
L 86.17 97.289063 
" style="fill: none; stroke: #ff7fd1; stroke-width: 1.5; stroke-linecap: square"/>
    </g>
    <g id="text_20">
     <!-- DE -->
     <g transform="translate(94.17 100.789063)scale(0.1 -0.1)">
      <defs>
       <path id="DejaVuSans-44" d="M 1259 4147 
L 1259 519 
L 2022 519 
Q 2988 519 3436 956 
Q 3884 1394 3884 2338 
Q 3884 3275 3436 3711 
Q 2988 4147 2022 4147 
L 1259 4147 
z
M 628 4666 
L 1925 4666 
Q 3281 4666 3915 4102 
Q 4550 3538 4550 2338 
Q 4550 1131 3912 565 
Q 3275 0 1925 0 
L 628 0 
L 628 4666 
z
" transform="scale(0.015625)"/>
      </defs>
      <use xlink:href="#DejaVuSans-44"/>
      <use xlink:href="#DejaVuSans-45" x="77.001953"/>
     </g>
    </g>
    <g id="line2d_38">
     <path d="M 66.17 111.967188 
L 76.17 111.967188 
L 86.17 111.967188 
" style="fill: none; stroke: #6c004f; stroke-width: 1.5; stroke-linecap: square"/>
    </g>
    <g id="text_21">
     <!-- DK -->
     <g transform="translate(94.17 115.467188)scale(0.1 -0.1)">
      <defs>
       <path id="DejaVuSans-4b" d="M 628 4666 
L 1259 4666 
L 1259 2694 
L 3353 4666 
L 4166 4666 
L 1850 2491 
L 4331 0 
L 3500 0 
L 1259 2247 
L 1259 0 
L 628 0 
L 628 4666 
z
" transform="scale(0.015625)"/>
      </defs>
      <use xlink:href="#DejaVuSans-44"/>
      <use xlink:href="#DejaVuSans-4b" x="77.001953"/>
     </g>
    </g>
    <g id="line2d_39">
     <path d="M 66.17 126.645313 
L 76.17 126.645313 
L 86.17 126.645313 
" style="fill: none; stroke: #583b00; stroke-width: 1.5; stroke-linecap: square"/>
    </g>
    <g id="text_22">
     <!-- EL -->
     <g transform="translate(94.17 130.145313)scale(0.1 -0.1)">
      <defs>
       <path id="DejaVuSans-4c" d="M 628 4666 
L 1259 4666 
L 1259 531 
L 3531 531 
L 3531 0 
L 628 0 
L 628 4666 
z
" transform="scale(0.015625)"/>
      </defs>
      <use xlink:href="#DejaVuSans-45"/>
      <use xlink:href="#DejaVuSans-4c" x="63.183594"/>
     </g>
    </g>
    <g id="line2d_40">
     <path d="M 66.17 141.323438 
L 76.17 141.323438 
L 86.17 141.323438 
" style="fill: none; stroke: #005759; stroke-width: 1.5; stroke-linecap: square"/>
    </g>
    <g id="text_23">
     <!-- ES -->
     <g transform="translate(94.17 144.823438)scale(0.1 -0.1)">
      <defs>
       <path id="DejaVuSans-53" d="M 3425 4513 
L 3425 3897 
Q 3066 4069 2747 4153 
Q 2428 4238 2131 4238 
Q 1616 4238 1336 4038 
Q 1056 3838 1056 3469 
Q 1056 3159 1242 3001 
Q 1428 2844 1947 2747 
L 2328 2669 
Q 3034 2534 3370 2195 
Q 3706 1856 3706 1288 
Q 3706 609 3251 259 
Q 2797 -91 1919 -91 
Q 1588 -91 1214 -16 
Q 841 59 441 206 
L 441 856 
Q 825 641 1194 531 
Q 1563 422 1919 422 
Q 2459 422 2753 634 
Q 3047 847 3047 1241 
Q 3047 1584 2836 1778 
Q 2625 1972 2144 2069 
L 1759 2144 
Q 1053 2284 737 2584 
Q 422 2884 422 3419 
Q 422 4038 858 4394 
Q 1294 4750 2059 4750 
Q 2388 4750 2728 4690 
Q 3069 4631 3425 4513 
z
" transform="scale(0.015625)"/>
      </defs>
      <use xlink:href="#DejaVuSans-45"/>
      <use xlink:href="#DejaVuSans-53" x="63.183594"/>
     </g>
    </g>
    <g id="line2d_41">
     <path d="M 66.17 156.001563 
L 76.17 156.001563 
L 86.17 156.001563 
" style="fill: none; stroke: #0000dd; stroke-width: 1.5; stroke-linecap: square"/>
    </g>
    <g id="text_24">
     <!-- FI -->
     <g transform="translate(94.17 159.501563)scale(0.1 -0.1)">
      <defs>
       <path id="DejaVuSans-46" d="M 628 4666 
L 3309 4666 
L 3309 4134 
L 1259 4134 
L 1259 2759 
L 3109 2759 
L 3109 2228 
L 1259 2228 
L 1259 0 
L 628 0 
L 628 4666 
z
" transform="scale(0.015625)"/>
       <path id="DejaVuSans-49" d="M 628 4666 
L 1259 4666 
L 1259 0 
L 628 0 
L 628 4666 
z
" transform="scale(0.015625)"/>
      </defs>
      <use xlink:href="#DejaVuSans-46"/>
      <use xlink:href="#DejaVuSans-49" x="57.519531"/>
     </g>
    </g>
    <g id="line2d_42">
     <path d="M 128.604375 23.898438 
L 138.604375 23.898438 
L 148.604375 23.898438 
" style="fill: none; stroke: #95b578; stroke-width: 1.5; stroke-linecap: square"/>
    </g>
    <g id="text_25">
     <!-- IT -->
     <g transform="translate(156.604375 27.398438)scale(0.1 -0.1)">
      <use xlink:href="#DejaVuSans-49"/>
      <use xlink:href="#DejaVuSans-54" x="29.492188"/>
     </g>
    </g>
    <g id="line2d_43">
     <path d="M 128.604375 38.576563 
L 138.604375 38.576563 
L 148.604375 38.576563 
" style="fill: none; stroke: #c004b9; stroke-width: 1.5; stroke-linecap: square"/>
    </g>
    <g id="text_26">
     <!-- LT -->
     <g transform="translate(156.604375 42.076563)scale(0.1 -0.1)">
      <use xlink:href="#DejaVuSans-4c"/>
      <use xlink:href="#DejaVuSans-54" x="41.962891"/>
     </g>
    </g>
    <g id="line2d_44">
     <path d="M 128.604375 53.254688 
L 138.604375 53.254688 
L 148.604375 53.254688 
" style="fill: none; stroke: #0774d8; stroke-width: 1.5; stroke-linecap: square"/>
    </g>
    <g id="text_27">
     <!-- MT -->
     <g transform="translate(156.604375 56.754688)scale(0.1 -0.1)">
      <defs>
       <path id="DejaVuSans-4d" d="M 628 4666 
L 1569 4666 
L 2759 1491 
L 3956 4666 
L 4897 4666 
L 4897 0 
L 4281 0 
L 4281 4097 
L 3078 897 
L 2444 897 
L 1241 4097 
L 1241 0 
L 628 0 
L 628 4666 
z
" transform="scale(0.015625)"/>
      </defs>
      <use xlink:href="#DejaVuSans-4d"/>
      <use xlink:href="#DejaVuSans-54" x="86.279297"/>
     </g>
    </g>
    <g id="line2d_45">
     <path d="M 128.604375 67.932813 
L 138.604375 67.932813 
L 148.604375 67.932813 
" style="fill: none; stroke: #fef590; stroke-width: 1.5; stroke-linecap: square"/>
    </g>
    <g id="text_28">
     <!-- NL -->
     <g transform="translate(156.604375 71.432813)scale(0.1 -0.1)">
      <use xlink:href="#DejaVuSans-4e"/>
      <use xlink:href="#DejaVuSans-4c" x="74.804688"/>
     </g>
    </g>
    <g id="line2d_46">
     <path d="M 128.604375 82.610938 
L 138.604375 82.610938 
L 148.604375 82.610938 
" style="fill: none; stroke: #8f7a00; stroke-width: 1.5; stroke-linecap: square"/>
    </g>
    <g id="text_29">
     <!-- PT -->
     <g transform="translate(156.604375 86.110938)scale(0.1 -0.1)">
      <defs>
       <path id="DejaVuSans-50" d="M 1259 4147 
L 1259 2394 
L 2053 2394 
Q 2494 2394 2734 2622 
Q 2975 2850 2975 3272 
Q 2975 3691 2734 3919 
Q 2494 4147 2053 4147 
L 1259 4147 
z
M 628 4666 
L 2053 4666 
Q 2838 4666 3239 4311 
Q 3641 3956 3641 3272 
Q 3641 2581 3239 2228 
Q 2838 1875 2053 1875 
L 1259 1875 
L 1259 0 
L 628 0 
L 628 4666 
z
" transform="scale(0.015625)"/>
      </defs>
      <use xlink:href="#DejaVuSans-50"/>
      <use xlink:href="#DejaVuSans-54" x="60.302734"/>
     </g>
    </g>
    <g id="line2d_47">
     <path d="M 128.604375 97.289063 
L 138.604375 97.289063 
L 148.604375 97.289063 
" style="fill: none; stroke: #ff7266; stroke-width: 1.5; stroke-linecap: square"/>
    </g>
    <g id="text_30">
     <!-- RO -->
     <g transform="translate(156.604375 100.789063)scale(0.1 -0.1)">
      <defs>
       <path id="DejaVuSans-4f" d="M 2522 4238 
Q 1834 4238 1429 3725 
Q 1025 3213 1025 2328 
Q 1025 1447 1429 934 
Q 1834 422 2522 422 
Q 3209 422 3611 934 
Q 4013 1447 4013 2328 
Q 4013 3213 3611 3725 
Q 3209 4238 2522 4238 
z
M 2522 4750 
Q 3503 4750 4090 4092 
Q 4678 3434 4678 2328 
Q 4678 1225 4090 567 
Q 3503 -91 2522 -91 
Q 1538 -91 948 565 
Q 359 1222 359 2328 
Q 359 3434 948 4092 
Q 1538 4750 2522 4750 
z
" transform="scale(0.015625)"/>
      </defs>
      <use xlink:href="#DejaVuSans-52"/>
      <use xlink:href="#DejaVuSans-4f" x="69.482422"/>
     </g>
    </g>
    <g id="line2d_48">
     <path d="M 128.604375 111.967188 
L 138.604375 111.967188 
L 148.604375 111.967188 
" style="fill: none; stroke: #eeb9b9; stroke-width: 1.5; stroke-linecap: square"/>
    </g>
    <g id="text_31">
     <!-- SE -->
     <g transform="translate(156.604375 115.467188)scale(0.1 -0.1)">
      <use xlink:href="#DejaVuSans-53"/>
      <use xlink:href="#DejaVuSans-45" x="63.476562"/>
     </g>
    </g>
    <g id="line2d_49">
     <path d="M 128.604375 126.645313 
L 138.604375 126.645313 
L 148.604375 126.645313 
" style="fill: none; stroke: #5e7e66; stroke-width: 1.5; stroke-linecap: square"/>
    </g>
    <g id="text_32">
     <!-- SI -->
     <g transform="translate(156.604375 130.145313)scale(0.1 -0.1)">
      <use xlink:href="#DejaVuSans-53"/>
      <use xlink:href="#DejaVuSans-49" x="63.476562"/>
     </g>
    </g>
    <g id="line2d_50">
     <path d="M 128.604375 141.323438 
L 138.604375 141.323438 
L 148.604375 141.323438 
" style="fill: none; stroke: #9be4ff; stroke-width: 1.5; stroke-linecap: square"/>
    </g>
    <g id="text_33">
     <!-- SK -->
     <g transform="translate(156.604375 144.823438)scale(0.1 -0.1)">
      <use xlink:href="#DejaVuSans-53"/>
      <use xlink:href="#DejaVuSans-4b" x="63.476562"/>
     </g>
    </g>
   </g>
  </g>
 </g>
 <defs>
  <clipPath id="pd2bf958220">
   <rect x="57.17" y="10.8" width="392.83" height="292.84"/>
  </clipPath>
 </defs>
</svg>
