<?xml version="1.0" encoding="utf-8" standalone="no"?>
<!DOCTYPE svg PUBLIC "-//W3C//DTD SVG 1.1//EN"
  "http://www.w3.org/Graphics/SVG/1.1/DTD/svg11.dtd">
<svg xmlns:xlink="http://www.w3.org/1999/xlink" width="360pt" height="288pt" viewBox="0 0 360 288" xmlns="http://www.w3.org/2000/svg" version="1.1">
 <metadata>
  <rdf:RDF xmlns:dc="http://purl.org/dc/elements/1.1/" xmlns:cc="http://creativecommons.org/ns#" xmlns:rdf="http://www.w3.org/1999/02/22-rdf-syntax-ns#">
   <cc:Work>
    <dc:type rdf:resource="http://purl.org/dc/dcmitype/StillImage"/>
    <dc:date>2024-01-29T16:48:36.356273</dc:date>
    <dc:format>image/svg+xml</dc:format>
    <dc:creator>
     <cc:Agent>
      <dc:title>Matplotlib v3.5.1, https://matplotlib.org/</dc:title>
     </cc:Agent>
    </dc:creator>
   </cc:Work>
  </rdf:RDF>
 </metadata>
 <defs>
  <style type="text/css">*{stroke-linejoin: round; stroke-linecap: butt}</style>
 </defs>
 <g id="figure_1">
  <g id="patch_1">
   <path d="M 0 288 
L 360 288 
L 360 0 
L 0 0 
L 0 288 
z
" style="fill: none"/>
  </g>
  <g id="axes_1">
   <g id="patch_2">
    <path d="M 57.17 246.04 
L 349.2 246.04 
L 349.2 10.8 
L 57.17 10.8 
L 57.17 246.04 
z
" style="fill: none"/>
   </g>
   <g id="matplotlib.axis_1">
    <g id="xtick_1">
     <g id="line2d_1">
      <defs>
       <path id="m50604e8a9d" d="M 0 0 
L 0 3.5 
" style="stroke: #000000; stroke-width: 0.8"/>
      </defs>
      <g>
       <use xlink:href="#m50604e8a9d" x="85.234548" y="246.04" style="stroke: #000000; stroke-width: 0.8"/>
      </g>
     </g>
     <g id="text_1">
      <!-- 50 -->
      <g transform="translate(78.872048 260.638438)scale(0.1 -0.1)">
       <defs>
        <path id="DejaVuSans-35" d="M 691 4666 
L 3169 4666 
L 3169 4134 
L 1269 4134 
L 1269 2991 
Q 1406 3038 1543 3061 
Q 1681 3084 1819 3084 
Q 2600 3084 3056 2656 
Q 3513 2228 3513 1497 
Q 3513 744 3044 326 
Q 2575 -91 1722 -91 
Q 1428 -91 1123 -41 
Q 819 9 494 109 
L 494 744 
Q 775 591 1075 516 
Q 1375 441 1709 441 
Q 2250 441 2565 725 
Q 2881 1009 2881 1497 
Q 2881 1984 2565 2268 
Q 2250 2553 1709 2553 
Q 1456 2553 1204 2497 
Q 953 2441 691 2322 
L 691 4666 
z
" transform="scale(0.015625)"/>
        <path id="DejaVuSans-30" d="M 2034 4250 
Q 1547 4250 1301 3770 
Q 1056 3291 1056 2328 
Q 1056 1369 1301 889 
Q 1547 409 2034 409 
Q 2525 409 2770 889 
Q 3016 1369 3016 2328 
Q 3016 3291 2770 3770 
Q 2525 4250 2034 4250 
z
M 2034 4750 
Q 2819 4750 3233 4129 
Q 3647 3509 3647 2328 
Q 3647 1150 3233 529 
Q 2819 -91 2034 -91 
Q 1250 -91 836 529 
Q 422 1150 422 2328 
Q 422 3509 836 4129 
Q 1250 4750 2034 4750 
z
" transform="scale(0.015625)"/>
       </defs>
       <use xlink:href="#DejaVuSans-35"/>
       <use xlink:href="#DejaVuSans-30" x="63.623047"/>
      </g>
     </g>
    </g>
    <g id="xtick_2">
     <g id="line2d_2">
      <g>
       <use xlink:href="#m50604e8a9d" x="125.720047" y="246.04" style="stroke: #000000; stroke-width: 0.8"/>
      </g>
     </g>
     <g id="text_2">
      <!-- 75 -->
      <g transform="translate(119.357547 260.638438)scale(0.1 -0.1)">
       <defs>
        <path id="DejaVuSans-37" d="M 525 4666 
L 3525 4666 
L 3525 4397 
L 1831 0 
L 1172 0 
L 2766 4134 
L 525 4134 
L 525 4666 
z
" transform="scale(0.015625)"/>
       </defs>
       <use xlink:href="#DejaVuSans-37"/>
       <use xlink:href="#DejaVuSans-35" x="63.623047"/>
      </g>
     </g>
    </g>
    <g id="xtick_3">
     <g id="line2d_3">
      <g>
       <use xlink:href="#m50604e8a9d" x="166.205545" y="246.04" style="stroke: #000000; stroke-width: 0.8"/>
      </g>
     </g>
     <g id="text_3">
      <!-- 100 -->
      <g transform="translate(156.661795 260.638438)scale(0.1 -0.1)">
       <defs>
        <path id="DejaVuSans-31" d="M 794 531 
L 1825 531 
L 1825 4091 
L 703 3866 
L 703 4441 
L 1819 4666 
L 2450 4666 
L 2450 531 
L 3481 531 
L 3481 0 
L 794 0 
L 794 531 
z
" transform="scale(0.015625)"/>
       </defs>
       <use xlink:href="#DejaVuSans-31"/>
       <use xlink:href="#DejaVuSans-30" x="63.623047"/>
       <use xlink:href="#DejaVuSans-30" x="127.246094"/>
      </g>
     </g>
    </g>
    <g id="xtick_4">
     <g id="line2d_4">
      <g>
       <use xlink:href="#m50604e8a9d" x="206.691044" y="246.04" style="stroke: #000000; stroke-width: 0.8"/>
      </g>
     </g>
     <g id="text_4">
      <!-- 125 -->
      <g transform="translate(197.147294 260.638438)scale(0.1 -0.1)">
       <defs>
        <path id="DejaVuSans-32" d="M 1228 531 
L 3431 531 
L 3431 0 
L 469 0 
L 469 531 
Q 828 903 1448 1529 
Q 2069 2156 2228 2338 
Q 2531 2678 2651 2914 
Q 2772 3150 2772 3378 
Q 2772 3750 2511 3984 
Q 2250 4219 1831 4219 
Q 1534 4219 1204 4116 
Q 875 4013 500 3803 
L 500 4441 
Q 881 4594 1212 4672 
Q 1544 4750 1819 4750 
Q 2544 4750 2975 4387 
Q 3406 4025 3406 3419 
Q 3406 3131 3298 2873 
Q 3191 2616 2906 2266 
Q 2828 2175 2409 1742 
Q 1991 1309 1228 531 
z
" transform="scale(0.015625)"/>
       </defs>
       <use xlink:href="#DejaVuSans-31"/>
       <use xlink:href="#DejaVuSans-32" x="63.623047"/>
       <use xlink:href="#DejaVuSans-35" x="127.246094"/>
      </g>
     </g>
    </g>
    <g id="xtick_5">
     <g id="line2d_5">
      <g>
       <use xlink:href="#m50604e8a9d" x="247.176543" y="246.04" style="stroke: #000000; stroke-width: 0.8"/>
      </g>
     </g>
     <g id="text_5">
      <!-- 150 -->
      <g transform="translate(237.632793 260.638438)scale(0.1 -0.1)">
       <use xlink:href="#DejaVuSans-31"/>
       <use xlink:href="#DejaVuSans-35" x="63.623047"/>
       <use xlink:href="#DejaVuSans-30" x="127.246094"/>
      </g>
     </g>
    </g>
    <g id="xtick_6">
     <g id="line2d_6">
      <g>
       <use xlink:href="#m50604e8a9d" x="287.662042" y="246.04" style="stroke: #000000; stroke-width: 0.8"/>
      </g>
     </g>
     <g id="text_6">
      <!-- 175 -->
      <g transform="translate(278.118292 260.638438)scale(0.1 -0.1)">
       <use xlink:href="#DejaVuSans-31"/>
       <use xlink:href="#DejaVuSans-37" x="63.623047"/>
       <use xlink:href="#DejaVuSans-35" x="127.246094"/>
      </g>
     </g>
    </g>
    <g id="xtick_7">
     <g id="line2d_7">
      <g>
       <use xlink:href="#m50604e8a9d" x="328.147541" y="246.04" style="stroke: #000000; stroke-width: 0.8"/>
      </g>
     </g>
     <g id="text_7">
      <!-- 200 -->
      <g transform="translate(318.603791 260.638438)scale(0.1 -0.1)">
       <use xlink:href="#DejaVuSans-32"/>
       <use xlink:href="#DejaVuSans-30" x="63.623047"/>
       <use xlink:href="#DejaVuSans-30" x="127.246094"/>
      </g>
     </g>
    </g>
    <g id="text_8">
     <!-- GDP (Purchasing Power Standard, % EU average) -->
     <g transform="translate(80.161563 274.316562)scale(0.1 -0.1)">
      <defs>
       <path id="DejaVuSans-47" d="M 3809 666 
L 3809 1919 
L 2778 1919 
L 2778 2438 
L 4434 2438 
L 4434 434 
Q 4069 175 3628 42 
Q 3188 -91 2688 -91 
Q 1594 -91 976 548 
Q 359 1188 359 2328 
Q 359 3472 976 4111 
Q 1594 4750 2688 4750 
Q 3144 4750 3555 4637 
Q 3966 4525 4313 4306 
L 4313 3634 
Q 3963 3931 3569 4081 
Q 3175 4231 2741 4231 
Q 1884 4231 1454 3753 
Q 1025 3275 1025 2328 
Q 1025 1384 1454 906 
Q 1884 428 2741 428 
Q 3075 428 3337 486 
Q 3600 544 3809 666 
z
" transform="scale(0.015625)"/>
       <path id="DejaVuSans-44" d="M 1259 4147 
L 1259 519 
L 2022 519 
Q 2988 519 3436 956 
Q 3884 1394 3884 2338 
Q 3884 3275 3436 3711 
Q 2988 4147 2022 4147 
L 1259 4147 
z
M 628 4666 
L 1925 4666 
Q 3281 4666 3915 4102 
Q 4550 3538 4550 2338 
Q 4550 1131 3912 565 
Q 3275 0 1925 0 
L 628 0 
L 628 4666 
z
" transform="scale(0.015625)"/>
       <path id="DejaVuSans-50" d="M 1259 4147 
L 1259 2394 
L 2053 2394 
Q 2494 2394 2734 2622 
Q 2975 2850 2975 3272 
Q 2975 3691 2734 3919 
Q 2494 4147 2053 4147 
L 1259 4147 
z
M 628 4666 
L 2053 4666 
Q 2838 4666 3239 4311 
Q 3641 3956 3641 3272 
Q 3641 2581 3239 2228 
Q 2838 1875 2053 1875 
L 1259 1875 
L 1259 0 
L 628 0 
L 628 4666 
z
" transform="scale(0.015625)"/>
       <path id="DejaVuSans-20" transform="scale(0.015625)"/>
       <path id="DejaVuSans-28" d="M 1984 4856 
Q 1566 4138 1362 3434 
Q 1159 2731 1159 2009 
Q 1159 1288 1364 580 
Q 1569 -128 1984 -844 
L 1484 -844 
Q 1016 -109 783 600 
Q 550 1309 550 2009 
Q 550 2706 781 3412 
Q 1013 4119 1484 4856 
L 1984 4856 
z
" transform="scale(0.015625)"/>
       <path id="DejaVuSans-75" d="M 544 1381 
L 544 3500 
L 1119 3500 
L 1119 1403 
Q 1119 906 1312 657 
Q 1506 409 1894 409 
Q 2359 409 2629 706 
Q 2900 1003 2900 1516 
L 2900 3500 
L 3475 3500 
L 3475 0 
L 2900 0 
L 2900 538 
Q 2691 219 2414 64 
Q 2138 -91 1772 -91 
Q 1169 -91 856 284 
Q 544 659 544 1381 
z
M 1991 3584 
L 1991 3584 
z
" transform="scale(0.015625)"/>
       <path id="DejaVuSans-72" d="M 2631 2963 
Q 2534 3019 2420 3045 
Q 2306 3072 2169 3072 
Q 1681 3072 1420 2755 
Q 1159 2438 1159 1844 
L 1159 0 
L 581 0 
L 581 3500 
L 1159 3500 
L 1159 2956 
Q 1341 3275 1631 3429 
Q 1922 3584 2338 3584 
Q 2397 3584 2469 3576 
Q 2541 3569 2628 3553 
L 2631 2963 
z
" transform="scale(0.015625)"/>
       <path id="DejaVuSans-63" d="M 3122 3366 
L 3122 2828 
Q 2878 2963 2633 3030 
Q 2388 3097 2138 3097 
Q 1578 3097 1268 2742 
Q 959 2388 959 1747 
Q 959 1106 1268 751 
Q 1578 397 2138 397 
Q 2388 397 2633 464 
Q 2878 531 3122 666 
L 3122 134 
Q 2881 22 2623 -34 
Q 2366 -91 2075 -91 
Q 1284 -91 818 406 
Q 353 903 353 1747 
Q 353 2603 823 3093 
Q 1294 3584 2113 3584 
Q 2378 3584 2631 3529 
Q 2884 3475 3122 3366 
z
" transform="scale(0.015625)"/>
       <path id="DejaVuSans-68" d="M 3513 2113 
L 3513 0 
L 2938 0 
L 2938 2094 
Q 2938 2591 2744 2837 
Q 2550 3084 2163 3084 
Q 1697 3084 1428 2787 
Q 1159 2491 1159 1978 
L 1159 0 
L 581 0 
L 581 4863 
L 1159 4863 
L 1159 2956 
Q 1366 3272 1645 3428 
Q 1925 3584 2291 3584 
Q 2894 3584 3203 3211 
Q 3513 2838 3513 2113 
z
" transform="scale(0.015625)"/>
       <path id="DejaVuSans-61" d="M 2194 1759 
Q 1497 1759 1228 1600 
Q 959 1441 959 1056 
Q 959 750 1161 570 
Q 1363 391 1709 391 
Q 2188 391 2477 730 
Q 2766 1069 2766 1631 
L 2766 1759 
L 2194 1759 
z
M 3341 1997 
L 3341 0 
L 2766 0 
L 2766 531 
Q 2569 213 2275 61 
Q 1981 -91 1556 -91 
Q 1019 -91 701 211 
Q 384 513 384 1019 
Q 384 1609 779 1909 
Q 1175 2209 1959 2209 
L 2766 2209 
L 2766 2266 
Q 2766 2663 2505 2880 
Q 2244 3097 1772 3097 
Q 1472 3097 1187 3025 
Q 903 2953 641 2809 
L 641 3341 
Q 956 3463 1253 3523 
Q 1550 3584 1831 3584 
Q 2591 3584 2966 3190 
Q 3341 2797 3341 1997 
z
" transform="scale(0.015625)"/>
       <path id="DejaVuSans-73" d="M 2834 3397 
L 2834 2853 
Q 2591 2978 2328 3040 
Q 2066 3103 1784 3103 
Q 1356 3103 1142 2972 
Q 928 2841 928 2578 
Q 928 2378 1081 2264 
Q 1234 2150 1697 2047 
L 1894 2003 
Q 2506 1872 2764 1633 
Q 3022 1394 3022 966 
Q 3022 478 2636 193 
Q 2250 -91 1575 -91 
Q 1294 -91 989 -36 
Q 684 19 347 128 
L 347 722 
Q 666 556 975 473 
Q 1284 391 1588 391 
Q 1994 391 2212 530 
Q 2431 669 2431 922 
Q 2431 1156 2273 1281 
Q 2116 1406 1581 1522 
L 1381 1569 
Q 847 1681 609 1914 
Q 372 2147 372 2553 
Q 372 3047 722 3315 
Q 1072 3584 1716 3584 
Q 2034 3584 2315 3537 
Q 2597 3491 2834 3397 
z
" transform="scale(0.015625)"/>
       <path id="DejaVuSans-69" d="M 603 3500 
L 1178 3500 
L 1178 0 
L 603 0 
L 603 3500 
z
M 603 4863 
L 1178 4863 
L 1178 4134 
L 603 4134 
L 603 4863 
z
" transform="scale(0.015625)"/>
       <path id="DejaVuSans-6e" d="M 3513 2113 
L 3513 0 
L 2938 0 
L 2938 2094 
Q 2938 2591 2744 2837 
Q 2550 3084 2163 3084 
Q 1697 3084 1428 2787 
Q 1159 2491 1159 1978 
L 1159 0 
L 581 0 
L 581 3500 
L 1159 3500 
L 1159 2956 
Q 1366 3272 1645 3428 
Q 1925 3584 2291 3584 
Q 2894 3584 3203 3211 
Q 3513 2838 3513 2113 
z
" transform="scale(0.015625)"/>
       <path id="DejaVuSans-67" d="M 2906 1791 
Q 2906 2416 2648 2759 
Q 2391 3103 1925 3103 
Q 1463 3103 1205 2759 
Q 947 2416 947 1791 
Q 947 1169 1205 825 
Q 1463 481 1925 481 
Q 2391 481 2648 825 
Q 2906 1169 2906 1791 
z
M 3481 434 
Q 3481 -459 3084 -895 
Q 2688 -1331 1869 -1331 
Q 1566 -1331 1297 -1286 
Q 1028 -1241 775 -1147 
L 775 -588 
Q 1028 -725 1275 -790 
Q 1522 -856 1778 -856 
Q 2344 -856 2625 -561 
Q 2906 -266 2906 331 
L 2906 616 
Q 2728 306 2450 153 
Q 2172 0 1784 0 
Q 1141 0 747 490 
Q 353 981 353 1791 
Q 353 2603 747 3093 
Q 1141 3584 1784 3584 
Q 2172 3584 2450 3431 
Q 2728 3278 2906 2969 
L 2906 3500 
L 3481 3500 
L 3481 434 
z
" transform="scale(0.015625)"/>
       <path id="DejaVuSans-6f" d="M 1959 3097 
Q 1497 3097 1228 2736 
Q 959 2375 959 1747 
Q 959 1119 1226 758 
Q 1494 397 1959 397 
Q 2419 397 2687 759 
Q 2956 1122 2956 1747 
Q 2956 2369 2687 2733 
Q 2419 3097 1959 3097 
z
M 1959 3584 
Q 2709 3584 3137 3096 
Q 3566 2609 3566 1747 
Q 3566 888 3137 398 
Q 2709 -91 1959 -91 
Q 1206 -91 779 398 
Q 353 888 353 1747 
Q 353 2609 779 3096 
Q 1206 3584 1959 3584 
z
" transform="scale(0.015625)"/>
       <path id="DejaVuSans-77" d="M 269 3500 
L 844 3500 
L 1563 769 
L 2278 3500 
L 2956 3500 
L 3675 769 
L 4391 3500 
L 4966 3500 
L 4050 0 
L 3372 0 
L 2619 2869 
L 1863 0 
L 1184 0 
L 269 3500 
z
" transform="scale(0.015625)"/>
       <path id="DejaVuSans-65" d="M 3597 1894 
L 3597 1613 
L 953 1613 
Q 991 1019 1311 708 
Q 1631 397 2203 397 
Q 2534 397 2845 478 
Q 3156 559 3463 722 
L 3463 178 
Q 3153 47 2828 -22 
Q 2503 -91 2169 -91 
Q 1331 -91 842 396 
Q 353 884 353 1716 
Q 353 2575 817 3079 
Q 1281 3584 2069 3584 
Q 2775 3584 3186 3129 
Q 3597 2675 3597 1894 
z
M 3022 2063 
Q 3016 2534 2758 2815 
Q 2500 3097 2075 3097 
Q 1594 3097 1305 2825 
Q 1016 2553 972 2059 
L 3022 2063 
z
" transform="scale(0.015625)"/>
       <path id="DejaVuSans-53" d="M 3425 4513 
L 3425 3897 
Q 3066 4069 2747 4153 
Q 2428 4238 2131 4238 
Q 1616 4238 1336 4038 
Q 1056 3838 1056 3469 
Q 1056 3159 1242 3001 
Q 1428 2844 1947 2747 
L 2328 2669 
Q 3034 2534 3370 2195 
Q 3706 1856 3706 1288 
Q 3706 609 3251 259 
Q 2797 -91 1919 -91 
Q 1588 -91 1214 -16 
Q 841 59 441 206 
L 441 856 
Q 825 641 1194 531 
Q 1563 422 1919 422 
Q 2459 422 2753 634 
Q 3047 847 3047 1241 
Q 3047 1584 2836 1778 
Q 2625 1972 2144 2069 
L 1759 2144 
Q 1053 2284 737 2584 
Q 422 2884 422 3419 
Q 422 4038 858 4394 
Q 1294 4750 2059 4750 
Q 2388 4750 2728 4690 
Q 3069 4631 3425 4513 
z
" transform="scale(0.015625)"/>
       <path id="DejaVuSans-74" d="M 1172 4494 
L 1172 3500 
L 2356 3500 
L 2356 3053 
L 1172 3053 
L 1172 1153 
Q 1172 725 1289 603 
Q 1406 481 1766 481 
L 2356 481 
L 2356 0 
L 1766 0 
Q 1100 0 847 248 
Q 594 497 594 1153 
L 594 3053 
L 172 3053 
L 172 3500 
L 594 3500 
L 594 4494 
L 1172 4494 
z
" transform="scale(0.015625)"/>
       <path id="DejaVuSans-64" d="M 2906 2969 
L 2906 4863 
L 3481 4863 
L 3481 0 
L 2906 0 
L 2906 525 
Q 2725 213 2448 61 
Q 2172 -91 1784 -91 
Q 1150 -91 751 415 
Q 353 922 353 1747 
Q 353 2572 751 3078 
Q 1150 3584 1784 3584 
Q 2172 3584 2448 3432 
Q 2725 3281 2906 2969 
z
M 947 1747 
Q 947 1113 1208 752 
Q 1469 391 1925 391 
Q 2381 391 2643 752 
Q 2906 1113 2906 1747 
Q 2906 2381 2643 2742 
Q 2381 3103 1925 3103 
Q 1469 3103 1208 2742 
Q 947 2381 947 1747 
z
" transform="scale(0.015625)"/>
       <path id="DejaVuSans-2c" d="M 750 794 
L 1409 794 
L 1409 256 
L 897 -744 
L 494 -744 
L 750 256 
L 750 794 
z
" transform="scale(0.015625)"/>
       <path id="DejaVuSans-25" d="M 4653 2053 
Q 4381 2053 4226 1822 
Q 4072 1591 4072 1178 
Q 4072 772 4226 539 
Q 4381 306 4653 306 
Q 4919 306 5073 539 
Q 5228 772 5228 1178 
Q 5228 1588 5073 1820 
Q 4919 2053 4653 2053 
z
M 4653 2450 
Q 5147 2450 5437 2106 
Q 5728 1763 5728 1178 
Q 5728 594 5436 251 
Q 5144 -91 4653 -91 
Q 4153 -91 3862 251 
Q 3572 594 3572 1178 
Q 3572 1766 3864 2108 
Q 4156 2450 4653 2450 
z
M 1428 4353 
Q 1159 4353 1004 4120 
Q 850 3888 850 3481 
Q 850 3069 1003 2837 
Q 1156 2606 1428 2606 
Q 1700 2606 1854 2837 
Q 2009 3069 2009 3481 
Q 2009 3884 1853 4118 
Q 1697 4353 1428 4353 
z
M 4250 4750 
L 4750 4750 
L 1831 -91 
L 1331 -91 
L 4250 4750 
z
M 1428 4750 
Q 1922 4750 2215 4408 
Q 2509 4066 2509 3481 
Q 2509 2891 2217 2550 
Q 1925 2209 1428 2209 
Q 931 2209 642 2551 
Q 353 2894 353 3481 
Q 353 4063 643 4406 
Q 934 4750 1428 4750 
z
" transform="scale(0.015625)"/>
       <path id="DejaVuSans-45" d="M 628 4666 
L 3578 4666 
L 3578 4134 
L 1259 4134 
L 1259 2753 
L 3481 2753 
L 3481 2222 
L 1259 2222 
L 1259 531 
L 3634 531 
L 3634 0 
L 628 0 
L 628 4666 
z
" transform="scale(0.015625)"/>
       <path id="DejaVuSans-55" d="M 556 4666 
L 1191 4666 
L 1191 1831 
Q 1191 1081 1462 751 
Q 1734 422 2344 422 
Q 2950 422 3222 751 
Q 3494 1081 3494 1831 
L 3494 4666 
L 4128 4666 
L 4128 1753 
Q 4128 841 3676 375 
Q 3225 -91 2344 -91 
Q 1459 -91 1007 375 
Q 556 841 556 1753 
L 556 4666 
z
" transform="scale(0.015625)"/>
       <path id="DejaVuSans-76" d="M 191 3500 
L 800 3500 
L 1894 563 
L 2988 3500 
L 3597 3500 
L 2284 0 
L 1503 0 
L 191 3500 
z
" transform="scale(0.015625)"/>
       <path id="DejaVuSans-29" d="M 513 4856 
L 1013 4856 
Q 1481 4119 1714 3412 
Q 1947 2706 1947 2009 
Q 1947 1309 1714 600 
Q 1481 -109 1013 -844 
L 513 -844 
Q 928 -128 1133 580 
Q 1338 1288 1338 2009 
Q 1338 2731 1133 3434 
Q 928 4138 513 4856 
z
" transform="scale(0.015625)"/>
      </defs>
      <use xlink:href="#DejaVuSans-47"/>
      <use xlink:href="#DejaVuSans-44" x="77.490234"/>
      <use xlink:href="#DejaVuSans-50" x="154.492188"/>
      <use xlink:href="#DejaVuSans-20" x="214.794922"/>
      <use xlink:href="#DejaVuSans-28" x="246.582031"/>
      <use xlink:href="#DejaVuSans-50" x="285.595703"/>
      <use xlink:href="#DejaVuSans-75" x="344.148438"/>
      <use xlink:href="#DejaVuSans-72" x="407.527344"/>
      <use xlink:href="#DejaVuSans-63" x="446.390625"/>
      <use xlink:href="#DejaVuSans-68" x="501.371094"/>
      <use xlink:href="#DejaVuSans-61" x="564.75"/>
      <use xlink:href="#DejaVuSans-73" x="626.029297"/>
      <use xlink:href="#DejaVuSans-69" x="678.128906"/>
      <use xlink:href="#DejaVuSans-6e" x="705.912109"/>
      <use xlink:href="#DejaVuSans-67" x="769.291016"/>
      <use xlink:href="#DejaVuSans-20" x="832.767578"/>
      <use xlink:href="#DejaVuSans-50" x="864.554688"/>
      <use xlink:href="#DejaVuSans-6f" x="921.232422"/>
      <use xlink:href="#DejaVuSans-77" x="982.414062"/>
      <use xlink:href="#DejaVuSans-65" x="1064.201172"/>
      <use xlink:href="#DejaVuSans-72" x="1125.724609"/>
      <use xlink:href="#DejaVuSans-20" x="1166.837891"/>
      <use xlink:href="#DejaVuSans-53" x="1198.625"/>
      <use xlink:href="#DejaVuSans-74" x="1262.101562"/>
      <use xlink:href="#DejaVuSans-61" x="1301.310547"/>
      <use xlink:href="#DejaVuSans-6e" x="1362.589844"/>
      <use xlink:href="#DejaVuSans-64" x="1425.96875"/>
      <use xlink:href="#DejaVuSans-61" x="1489.445312"/>
      <use xlink:href="#DejaVuSans-72" x="1550.724609"/>
      <use xlink:href="#DejaVuSans-64" x="1590.087891"/>
      <use xlink:href="#DejaVuSans-2c" x="1653.564453"/>
      <use xlink:href="#DejaVuSans-20" x="1685.351562"/>
      <use xlink:href="#DejaVuSans-25" x="1717.138672"/>
      <use xlink:href="#DejaVuSans-20" x="1812.158203"/>
      <use xlink:href="#DejaVuSans-45" x="1843.945312"/>
      <use xlink:href="#DejaVuSans-55" x="1907.128906"/>
      <use xlink:href="#DejaVuSans-20" x="1980.322266"/>
      <use xlink:href="#DejaVuSans-61" x="2012.109375"/>
      <use xlink:href="#DejaVuSans-76" x="2073.388672"/>
      <use xlink:href="#DejaVuSans-65" x="2132.568359"/>
      <use xlink:href="#DejaVuSans-72" x="2194.091797"/>
      <use xlink:href="#DejaVuSans-61" x="2235.205078"/>
      <use xlink:href="#DejaVuSans-67" x="2296.484375"/>
      <use xlink:href="#DejaVuSans-65" x="2359.960938"/>
      <use xlink:href="#DejaVuSans-29" x="2421.484375"/>
     </g>
    </g>
   </g>
   <g id="matplotlib.axis_2">
    <g id="ytick_1">
     <g id="line2d_8">
      <defs>
       <path id="m69d1e9a365" d="M 0 0 
L -3.5 0 
" style="stroke: #000000; stroke-width: 0.8"/>
      </defs>
      <g>
       <use xlink:href="#m69d1e9a365" x="57.17" y="246.04" style="stroke: #000000; stroke-width: 0.8"/>
      </g>
     </g>
     <g id="text_9">
      <!-- 0 -->
      <g transform="translate(43.8075 249.839219)scale(0.1 -0.1)">
       <use xlink:href="#DejaVuSans-30"/>
      </g>
     </g>
    </g>
    <g id="ytick_2">
     <g id="line2d_9">
      <g>
       <use xlink:href="#m69d1e9a365" x="57.17" y="198.031837" style="stroke: #000000; stroke-width: 0.8"/>
      </g>
     </g>
     <g id="text_10">
      <!-- 1000 -->
      <g transform="translate(24.72 201.831055)scale(0.1 -0.1)">
       <use xlink:href="#DejaVuSans-31"/>
       <use xlink:href="#DejaVuSans-30" x="63.623047"/>
       <use xlink:href="#DejaVuSans-30" x="127.246094"/>
       <use xlink:href="#DejaVuSans-30" x="190.869141"/>
      </g>
     </g>
    </g>
    <g id="ytick_3">
     <g id="line2d_10">
      <g>
       <use xlink:href="#m69d1e9a365" x="57.17" y="150.023673" style="stroke: #000000; stroke-width: 0.8"/>
      </g>
     </g>
     <g id="text_11">
      <!-- 2000 -->
      <g transform="translate(24.72 153.822892)scale(0.1 -0.1)">
       <use xlink:href="#DejaVuSans-32"/>
       <use xlink:href="#DejaVuSans-30" x="63.623047"/>
       <use xlink:href="#DejaVuSans-30" x="127.246094"/>
       <use xlink:href="#DejaVuSans-30" x="190.869141"/>
      </g>
     </g>
    </g>
    <g id="ytick_4">
     <g id="line2d_11">
      <g>
       <use xlink:href="#m69d1e9a365" x="57.17" y="102.01551" style="stroke: #000000; stroke-width: 0.8"/>
      </g>
     </g>
     <g id="text_12">
      <!-- 3000 -->
      <g transform="translate(24.72 105.814729)scale(0.1 -0.1)">
       <defs>
        <path id="DejaVuSans-33" d="M 2597 2516 
Q 3050 2419 3304 2112 
Q 3559 1806 3559 1356 
Q 3559 666 3084 287 
Q 2609 -91 1734 -91 
Q 1441 -91 1130 -33 
Q 819 25 488 141 
L 488 750 
Q 750 597 1062 519 
Q 1375 441 1716 441 
Q 2309 441 2620 675 
Q 2931 909 2931 1356 
Q 2931 1769 2642 2001 
Q 2353 2234 1838 2234 
L 1294 2234 
L 1294 2753 
L 1863 2753 
Q 2328 2753 2575 2939 
Q 2822 3125 2822 3475 
Q 2822 3834 2567 4026 
Q 2313 4219 1838 4219 
Q 1578 4219 1281 4162 
Q 984 4106 628 3988 
L 628 4550 
Q 988 4650 1302 4700 
Q 1616 4750 1894 4750 
Q 2613 4750 3031 4423 
Q 3450 4097 3450 3541 
Q 3450 3153 3228 2886 
Q 3006 2619 2597 2516 
z
" transform="scale(0.015625)"/>
       </defs>
       <use xlink:href="#DejaVuSans-33"/>
       <use xlink:href="#DejaVuSans-30" x="63.623047"/>
       <use xlink:href="#DejaVuSans-30" x="127.246094"/>
       <use xlink:href="#DejaVuSans-30" x="190.869141"/>
      </g>
     </g>
    </g>
    <g id="ytick_5">
     <g id="line2d_12">
      <g>
       <use xlink:href="#m69d1e9a365" x="57.17" y="54.007347" style="stroke: #000000; stroke-width: 0.8"/>
      </g>
     </g>
     <g id="text_13">
      <!-- 4000 -->
      <g transform="translate(24.72 57.806566)scale(0.1 -0.1)">
       <defs>
        <path id="DejaVuSans-34" d="M 2419 4116 
L 825 1625 
L 2419 1625 
L 2419 4116 
z
M 2253 4666 
L 3047 4666 
L 3047 1625 
L 3713 1625 
L 3713 1100 
L 3047 1100 
L 3047 0 
L 2419 0 
L 2419 1100 
L 313 1100 
L 313 1709 
L 2253 4666 
z
" transform="scale(0.015625)"/>
       </defs>
       <use xlink:href="#DejaVuSans-34"/>
       <use xlink:href="#DejaVuSans-30" x="63.623047"/>
       <use xlink:href="#DejaVuSans-30" x="127.246094"/>
       <use xlink:href="#DejaVuSans-30" x="190.869141"/>
      </g>
     </g>
    </g>
    <g id="text_14">
     <!-- Number of Thefts -->
     <g transform="translate(18.640312 172.040313)rotate(-90)scale(0.1 -0.1)">
      <defs>
       <path id="DejaVuSans-4e" d="M 628 4666 
L 1478 4666 
L 3547 763 
L 3547 4666 
L 4159 4666 
L 4159 0 
L 3309 0 
L 1241 3903 
L 1241 0 
L 628 0 
L 628 4666 
z
" transform="scale(0.015625)"/>
       <path id="DejaVuSans-6d" d="M 3328 2828 
Q 3544 3216 3844 3400 
Q 4144 3584 4550 3584 
Q 5097 3584 5394 3201 
Q 5691 2819 5691 2113 
L 5691 0 
L 5113 0 
L 5113 2094 
Q 5113 2597 4934 2840 
Q 4756 3084 4391 3084 
Q 3944 3084 3684 2787 
Q 3425 2491 3425 1978 
L 3425 0 
L 2847 0 
L 2847 2094 
Q 2847 2600 2669 2842 
Q 2491 3084 2119 3084 
Q 1678 3084 1418 2786 
Q 1159 2488 1159 1978 
L 1159 0 
L 581 0 
L 581 3500 
L 1159 3500 
L 1159 2956 
Q 1356 3278 1631 3431 
Q 1906 3584 2284 3584 
Q 2666 3584 2933 3390 
Q 3200 3197 3328 2828 
z
" transform="scale(0.015625)"/>
       <path id="DejaVuSans-62" d="M 3116 1747 
Q 3116 2381 2855 2742 
Q 2594 3103 2138 3103 
Q 1681 3103 1420 2742 
Q 1159 2381 1159 1747 
Q 1159 1113 1420 752 
Q 1681 391 2138 391 
Q 2594 391 2855 752 
Q 3116 1113 3116 1747 
z
M 1159 2969 
Q 1341 3281 1617 3432 
Q 1894 3584 2278 3584 
Q 2916 3584 3314 3078 
Q 3713 2572 3713 1747 
Q 3713 922 3314 415 
Q 2916 -91 2278 -91 
Q 1894 -91 1617 61 
Q 1341 213 1159 525 
L 1159 0 
L 581 0 
L 581 4863 
L 1159 4863 
L 1159 2969 
z
" transform="scale(0.015625)"/>
       <path id="DejaVuSans-66" d="M 2375 4863 
L 2375 4384 
L 1825 4384 
Q 1516 4384 1395 4259 
Q 1275 4134 1275 3809 
L 1275 3500 
L 2222 3500 
L 2222 3053 
L 1275 3053 
L 1275 0 
L 697 0 
L 697 3053 
L 147 3053 
L 147 3500 
L 697 3500 
L 697 3744 
Q 697 4328 969 4595 
Q 1241 4863 1831 4863 
L 2375 4863 
z
" transform="scale(0.015625)"/>
       <path id="DejaVuSans-54" d="M -19 4666 
L 3928 4666 
L 3928 4134 
L 2272 4134 
L 2272 0 
L 1638 0 
L 1638 4134 
L -19 4134 
L -19 4666 
z
" transform="scale(0.015625)"/>
      </defs>
      <use xlink:href="#DejaVuSans-4e"/>
      <use xlink:href="#DejaVuSans-75" x="74.804688"/>
      <use xlink:href="#DejaVuSans-6d" x="138.183594"/>
      <use xlink:href="#DejaVuSans-62" x="235.595703"/>
      <use xlink:href="#DejaVuSans-65" x="299.072266"/>
      <use xlink:href="#DejaVuSans-72" x="360.595703"/>
      <use xlink:href="#DejaVuSans-20" x="401.708984"/>
      <use xlink:href="#DejaVuSans-6f" x="433.496094"/>
      <use xlink:href="#DejaVuSans-66" x="494.677734"/>
      <use xlink:href="#DejaVuSans-20" x="529.882812"/>
      <use xlink:href="#DejaVuSans-54" x="561.669922"/>
      <use xlink:href="#DejaVuSans-68" x="622.753906"/>
      <use xlink:href="#DejaVuSans-65" x="686.132812"/>
      <use xlink:href="#DejaVuSans-66" x="747.65625"/>
      <use xlink:href="#DejaVuSans-74" x="781.111328"/>
      <use xlink:href="#DejaVuSans-73" x="820.320312"/>
     </g>
    </g>
   </g>
   <g id="line2d_13">
    <path d="M 57.17 226.342324 
L 63.129796 226.49877 
L 69.089592 226.655216 
L 75.049388 226.811661 
L 81.009184 226.968107 
L 86.96898 227.124553 
L 92.928776 227.280998 
L 98.888571 227.437444 
L 104.848367 227.59389 
L 110.808163 227.750336 
L 116.767959 227.906781 
L 122.727755 228.063227 
L 128.687551 228.219673 
L 134.647347 228.376118 
L 140.607143 228.532564 
L 146.566939 228.68901 
L 152.526735 228.845456 
L 158.486531 229.001901 
L 164.446327 229.158347 
L 170.406122 229.314793 
L 176.365918 229.471239 
L 182.325714 229.627684 
L 188.28551 229.78413 
L 194.245306 229.940576 
L 200.205102 230.097021 
L 206.164898 230.253467 
L 212.124694 230.409913 
L 218.08449 230.566359 
L 224.044286 230.722804 
L 230.004082 230.87925 
L 235.963878 231.035696 
L 241.923673 231.192141 
L 247.883469 231.348587 
L 253.843265 231.505033 
L 259.803061 231.661479 
L 265.762857 231.817924 
L 271.722653 231.97437 
L 277.682449 232.130816 
L 283.642245 232.287261 
L 289.602041 232.443707 
L 295.561837 232.600153 
L 301.521633 232.756599 
L 307.481429 232.913044 
L 313.441224 233.06949 
L 319.40102 233.225936 
L 325.360816 233.382382 
L 331.320612 233.538827 
L 337.280408 233.695273 
L 343.240204 233.851719 
L 349.2 234.008164 
" clip-path="url(#p43755293cf)" style="fill: none; stroke: #d70000; stroke-width: 1.5; stroke-linecap: square"/>
   </g>
   <g id="line2d_14">
    <path d="M 57.17 211.068573 
L 63.129796 213.182925 
L 69.089592 215.297276 
L 75.049388 217.411628 
L 81.009184 219.525979 
L 86.96898 221.640331 
L 92.928776 223.754682 
L 98.888571 225.869034 
L 104.848367 227.983385 
L 110.808163 230.097737 
L 116.767959 232.212088 
L 122.727755 234.32644 
L 128.687551 236.440791 
L 134.647347 238.555143 
L 140.607143 240.669494 
L 146.566939 242.783846 
L 152.526735 244.898197 
L 158.486531 247.012549 
L 164.446327 249.1269 
L 170.406122 251.241251 
L 176.365918 253.355603 
L 182.325714 255.469954 
L 188.28551 257.584306 
L 194.245306 259.698657 
L 200.205102 261.813009 
L 206.164898 263.92736 
L 212.124694 266.041712 
L 218.08449 268.156063 
L 224.044286 270.270415 
L 230.004082 272.384766 
L 235.963878 274.499118 
L 241.923673 276.613469 
L 247.883469 278.727821 
L 253.843265 280.842172 
L 259.803061 282.956524 
L 265.762857 285.070875 
L 271.722653 287.185227 
L 276.838018 289 
" clip-path="url(#p43755293cf)" style="fill: none; stroke: #8c3cff; stroke-width: 1.5; stroke-linecap: square"/>
   </g>
   <g id="line2d_15">
    <path d="M 57.17 225.857682 
L 63.129796 225.345951 
L 69.089592 224.83422 
L 75.049388 224.322489 
L 81.009184 223.810758 
L 86.96898 223.299027 
L 92.928776 222.787296 
L 98.888571 222.275565 
L 104.848367 221.763834 
L 110.808163 221.252103 
L 116.767959 220.740372 
L 122.727755 220.228641 
L 128.687551 219.71691 
L 134.647347 219.20518 
L 140.607143 218.693449 
L 146.566939 218.181718 
L 152.526735 217.669987 
L 158.486531 217.158256 
L 164.446327 216.646525 
L 170.406122 216.134794 
L 176.365918 215.623063 
L 182.325714 215.111332 
L 188.28551 214.599601 
L 194.245306 214.08787 
L 200.205102 213.576139 
L 206.164898 213.064408 
L 212.124694 212.552677 
L 218.08449 212.040946 
L 224.044286 211.529216 
L 230.004082 211.017485 
L 235.963878 210.505754 
L 241.923673 209.994023 
L 247.883469 209.482292 
L 253.843265 208.970561 
L 259.803061 208.45883 
L 265.762857 207.947099 
L 271.722653 207.435368 
L 277.682449 206.923637 
L 283.642245 206.411906 
L 289.602041 205.900175 
L 295.561837 205.388444 
L 301.521633 204.876713 
L 307.481429 204.364983 
L 313.441224 203.853252 
L 319.40102 203.341521 
L 325.360816 202.82979 
L 331.320612 202.318059 
L 337.280408 201.806328 
L 343.240204 201.294597 
L 349.2 200.782866 
" clip-path="url(#p43755293cf)" style="fill: none; stroke: #028800; stroke-width: 1.5; stroke-linecap: square"/>
   </g>
   <g id="line2d_16">
    <path d="M 57.17 220.431608 
L 63.129796 219.264099 
L 69.089592 218.09659 
L 75.049388 216.929081 
L 81.009184 215.761572 
L 86.96898 214.594063 
L 92.928776 213.426554 
L 98.888571 212.259045 
L 104.848367 211.091536 
L 110.808163 209.924027 
L 116.767959 208.756518 
L 122.727755 207.58901 
L 128.687551 206.421501 
L 134.647347 205.253992 
L 140.607143 204.086483 
L 146.566939 202.918974 
L 152.526735 201.751465 
L 158.486531 200.583956 
L 164.446327 199.416447 
L 170.406122 198.248938 
L 176.365918 197.081429 
L 182.325714 195.91392 
L 188.28551 194.746411 
L 194.245306 193.578902 
L 200.205102 192.411393 
L 206.164898 191.243884 
L 212.124694 190.076376 
L 218.08449 188.908867 
L 224.044286 187.741358 
L 230.004082 186.573849 
L 235.963878 185.40634 
L 241.923673 184.238831 
L 247.883469 183.071322 
L 253.843265 181.903813 
L 259.803061 180.736304 
L 265.762857 179.568795 
L 271.722653 178.401286 
L 277.682449 177.233777 
L 283.642245 176.066268 
L 289.602041 174.898759 
L 295.561837 173.73125 
L 301.521633 172.563741 
L 307.481429 171.396233 
L 313.441224 170.228724 
L 319.40102 169.061215 
L 325.360816 167.893706 
L 331.320612 166.726197 
L 337.280408 165.558688 
L 343.240204 164.391179 
L 349.2 163.22367 
" clip-path="url(#p43755293cf)" style="fill: none; stroke: #98ff00; stroke-width: 1.5; stroke-linecap: square"/>
   </g>
   <g id="line2d_17">
    <path d="M 57.17 189.128335 
L 63.129796 189.759866 
L 69.089592 190.391396 
L 75.049388 191.022926 
L 81.009184 191.654457 
L 86.96898 192.285987 
L 92.928776 192.917517 
L 98.888571 193.549048 
L 104.848367 194.180578 
L 110.808163 194.812108 
L 116.767959 195.443638 
L 122.727755 196.075169 
L 128.687551 196.706699 
L 134.647347 197.338229 
L 140.607143 197.96976 
L 146.566939 198.60129 
L 152.526735 199.23282 
L 158.486531 199.864351 
L 164.446327 200.495881 
L 170.406122 201.127411 
L 176.365918 201.758941 
L 182.325714 202.390472 
L 188.28551 203.022002 
L 194.245306 203.653532 
L 200.205102 204.285063 
L 206.164898 204.916593 
L 212.124694 205.548123 
L 218.08449 206.179654 
L 224.044286 206.811184 
L 230.004082 207.442714 
L 235.963878 208.074244 
L 241.923673 208.705775 
L 247.883469 209.337305 
L 253.843265 209.968835 
L 259.803061 210.600366 
L 265.762857 211.231896 
L 271.722653 211.863426 
L 277.682449 212.494957 
L 283.642245 213.126487 
L 289.602041 213.758017 
L 295.561837 214.389547 
L 301.521633 215.021078 
L 307.481429 215.652608 
L 313.441224 216.284138 
L 319.40102 216.915669 
L 325.360816 217.547199 
L 331.320612 218.178729 
L 337.280408 218.81026 
L 343.240204 219.44179 
L 349.2 220.07332 
" clip-path="url(#p43755293cf)" style="fill: none; stroke: #ff7fd1; stroke-width: 1.5; stroke-linecap: square"/>
   </g>
   <g id="line2d_18">
    <path d="M 57.17 233.068052 
L 63.129796 233.453397 
L 69.089592 233.838742 
L 75.049388 234.224088 
L 81.009184 234.609433 
L 86.96898 234.994778 
L 92.928776 235.380123 
L 98.888571 235.765469 
L 104.848367 236.150814 
L 110.808163 236.536159 
L 116.767959 236.921504 
L 122.727755 237.30685 
L 128.687551 237.692195 
L 134.647347 238.07754 
L 140.607143 238.462885 
L 146.566939 238.848231 
L 152.526735 239.233576 
L 158.486531 239.618921 
L 164.446327 240.004267 
L 170.406122 240.389612 
L 176.365918 240.774957 
L 182.325714 241.160302 
L 188.28551 241.545648 
L 194.245306 241.930993 
L 200.205102 242.316338 
L 206.164898 242.701683 
L 212.124694 243.087029 
L 218.08449 243.472374 
L 224.044286 243.857719 
L 230.004082 244.243064 
L 235.963878 244.62841 
L 241.923673 245.013755 
L 247.883469 245.3991 
L 253.843265 245.784445 
L 259.803061 246.169791 
L 265.762857 246.555136 
L 271.722653 246.940481 
L 277.682449 247.325826 
L 283.642245 247.711172 
L 289.602041 248.096517 
L 295.561837 248.481862 
L 301.521633 248.867207 
L 307.481429 249.252553 
L 313.441224 249.637898 
L 319.40102 250.023243 
L 325.360816 250.408588 
L 331.320612 250.793934 
L 337.280408 251.179279 
L 343.240204 251.564624 
L 349.2 251.94997 
" clip-path="url(#p43755293cf)" style="fill: none; stroke: #6c004f; stroke-width: 1.5; stroke-linecap: square"/>
   </g>
   <g id="line2d_19">
    <path d="M 57.17 191.191049 
L 63.129796 191.187808 
L 69.089592 191.184566 
L 75.049388 191.181325 
L 81.009184 191.178084 
L 86.96898 191.174843 
L 92.928776 191.171601 
L 98.888571 191.16836 
L 104.848367 191.165119 
L 110.808163 191.161877 
L 116.767959 191.158636 
L 122.727755 191.155395 
L 128.687551 191.152154 
L 134.647347 191.148912 
L 140.607143 191.145671 
L 146.566939 191.14243 
L 152.526735 191.139189 
L 158.486531 191.135947 
L 164.446327 191.132706 
L 170.406122 191.129465 
L 176.365918 191.126223 
L 182.325714 191.122982 
L 188.28551 191.119741 
L 194.245306 191.1165 
L 200.205102 191.113258 
L 206.164898 191.110017 
L 212.124694 191.106776 
L 218.08449 191.103535 
L 224.044286 191.100293 
L 230.004082 191.097052 
L 235.963878 191.093811 
L 241.923673 191.090569 
L 247.883469 191.087328 
L 253.843265 191.084087 
L 259.803061 191.080846 
L 265.762857 191.077604 
L 271.722653 191.074363 
L 277.682449 191.071122 
L 283.642245 191.067881 
L 289.602041 191.064639 
L 295.561837 191.061398 
L 301.521633 191.058157 
L 307.481429 191.054915 
L 313.441224 191.051674 
L 319.40102 191.048433 
L 325.360816 191.045192 
L 331.320612 191.04195 
L 337.280408 191.038709 
L 343.240204 191.035468 
L 349.2 191.032227 
" clip-path="url(#p43755293cf)" style="fill: none; stroke: #583b00; stroke-width: 1.5; stroke-linecap: square"/>
   </g>
   <g id="line2d_20">
    <path d="M 57.17 263.147188 
L 63.129796 263.605879 
L 69.089592 264.06457 
L 75.049388 264.523261 
L 81.009184 264.981952 
L 86.96898 265.440643 
L 92.928776 265.899335 
L 98.888571 266.358026 
L 104.848367 266.816717 
L 110.808163 267.275408 
L 116.767959 267.734099 
L 122.727755 268.19279 
L 128.687551 268.651481 
L 134.647347 269.110173 
L 140.607143 269.568864 
L 146.566939 270.027555 
L 152.526735 270.486246 
L 158.486531 270.944937 
L 164.446327 271.403628 
L 170.406122 271.86232 
L 176.365918 272.321011 
L 182.325714 272.779702 
L 188.28551 273.238393 
L 194.245306 273.697084 
L 200.205102 274.155775 
L 206.164898 274.614467 
L 212.124694 275.073158 
L 218.08449 275.531849 
L 224.044286 275.99054 
L 230.004082 276.449231 
L 235.963878 276.907922 
L 241.923673 277.366613 
L 247.883469 277.825305 
L 253.843265 278.283996 
L 259.803061 278.742687 
L 265.762857 279.201378 
L 271.722653 279.660069 
L 277.682449 280.11876 
L 283.642245 280.577452 
L 289.602041 281.036143 
L 295.561837 281.494834 
L 301.521633 281.953525 
L 307.481429 282.412216 
L 313.441224 282.870907 
L 319.40102 283.329598 
L 325.360816 283.78829 
L 331.320612 284.246981 
L 337.280408 284.705672 
L 343.240204 285.164363 
L 349.2 285.623054 
" clip-path="url(#p43755293cf)" style="fill: none; stroke: #005759; stroke-width: 1.5; stroke-linecap: square"/>
   </g>
   <g id="line2d_21">
    <path d="M 57.17 223.835737 
L 63.129796 223.869219 
L 69.089592 223.902701 
L 75.049388 223.936183 
L 81.009184 223.969666 
L 86.96898 224.003148 
L 92.928776 224.03663 
L 98.888571 224.070112 
L 104.848367 224.103595 
L 110.808163 224.137077 
L 116.767959 224.170559 
L 122.727755 224.204041 
L 128.687551 224.237524 
L 134.647347 224.271006 
L 140.607143 224.304488 
L 146.566939 224.33797 
L 152.526735 224.371453 
L 158.486531 224.404935 
L 164.446327 224.438417 
L 170.406122 224.471899 
L 176.365918 224.505382 
L 182.325714 224.538864 
L 188.28551 224.572346 
L 194.245306 224.605829 
L 200.205102 224.639311 
L 206.164898 224.672793 
L 212.124694 224.706275 
L 218.08449 224.739758 
L 224.044286 224.77324 
L 230.004082 224.806722 
L 235.963878 224.840204 
L 241.923673 224.873687 
L 247.883469 224.907169 
L 253.843265 224.940651 
L 259.803061 224.974133 
L 265.762857 225.007616 
L 271.722653 225.041098 
L 277.682449 225.07458 
L 283.642245 225.108062 
L 289.602041 225.141545 
L 295.561837 225.175027 
L 301.521633 225.208509 
L 307.481429 225.241991 
L 313.441224 225.275474 
L 319.40102 225.308956 
L 325.360816 225.342438 
L 331.320612 225.37592 
L 337.280408 225.409403 
L 343.240204 225.442885 
L 349.2 225.476367 
" clip-path="url(#p43755293cf)" style="fill: none; stroke: #0000dd; stroke-width: 1.5; stroke-linecap: square"/>
   </g>
   <g id="line2d_22">
    <path d="M 57.17 224.704661 
L 63.129796 223.534161 
L 69.089592 222.363661 
L 75.049388 221.193161 
L 81.009184 220.022661 
L 86.96898 218.852161 
L 92.928776 217.681661 
L 98.888571 216.511162 
L 104.848367 215.340662 
L 110.808163 214.170162 
L 116.767959 212.999662 
L 122.727755 211.829162 
L 128.687551 210.658662 
L 134.647347 209.488162 
L 140.607143 208.317662 
L 146.566939 207.147162 
L 152.526735 205.976662 
L 158.486531 204.806162 
L 164.446327 203.635662 
L 170.406122 202.465162 
L 176.365918 201.294662 
L 182.325714 200.124162 
L 188.28551 198.953663 
L 194.245306 197.783163 
L 200.205102 196.612663 
L 206.164898 195.442163 
L 212.124694 194.271663 
L 218.08449 193.101163 
L 224.044286 191.930663 
L 230.004082 190.760163 
L 235.963878 189.589663 
L 241.923673 188.419163 
L 247.883469 187.248663 
L 253.843265 186.078163 
L 259.803061 184.907663 
L 265.762857 183.737163 
L 271.722653 182.566663 
L 277.682449 181.396164 
L 283.642245 180.225664 
L 289.602041 179.055164 
L 295.561837 177.884664 
L 301.521633 176.714164 
L 307.481429 175.543664 
L 313.441224 174.373164 
L 319.40102 173.202664 
L 325.360816 172.032164 
L 331.320612 170.861664 
L 337.280408 169.691164 
L 343.240204 168.520664 
L 349.2 167.350164 
" clip-path="url(#p43755293cf)" style="fill: none; stroke: #bcb7ff; stroke-width: 1.5; stroke-linecap: square"/>
   </g>
   <g id="line2d_23">
    <path d="M 57.17 249.788886 
L 63.129796 252.845881 
L 69.089592 255.902877 
L 75.049388 258.959872 
L 81.009184 262.016867 
L 86.96898 265.073862 
L 92.928776 268.130857 
L 98.888571 271.187852 
L 104.848367 274.244847 
L 110.808163 277.301842 
L 116.767959 280.358837 
L 122.727755 283.415832 
L 128.687551 286.472827 
L 133.614426 289 
" clip-path="url(#p43755293cf)" style="fill: none; stroke: #95b578; stroke-width: 1.5; stroke-linecap: square"/>
   </g>
   <g id="line2d_24">
    <path d="M 57.17 227.506973 
L 63.129796 227.582882 
L 69.089592 227.658791 
L 75.049388 227.7347 
L 81.009184 227.810609 
L 86.96898 227.886517 
L 92.928776 227.962426 
L 98.888571 228.038335 
L 104.848367 228.114244 
L 110.808163 228.190153 
L 116.767959 228.266062 
L 122.727755 228.341971 
L 128.687551 228.41788 
L 134.647347 228.493789 
L 140.607143 228.569697 
L 146.566939 228.645606 
L 152.526735 228.721515 
L 158.486531 228.797424 
L 164.446327 228.873333 
L 170.406122 228.949242 
L 176.365918 229.025151 
L 182.325714 229.10106 
L 188.28551 229.176969 
L 194.245306 229.252877 
L 200.205102 229.328786 
L 206.164898 229.404695 
L 212.124694 229.480604 
L 218.08449 229.556513 
L 224.044286 229.632422 
L 230.004082 229.708331 
L 235.963878 229.78424 
L 241.923673 229.860149 
L 247.883469 229.936057 
L 253.843265 230.011966 
L 259.803061 230.087875 
L 265.762857 230.163784 
L 271.722653 230.239693 
L 277.682449 230.315602 
L 283.642245 230.391511 
L 289.602041 230.46742 
L 295.561837 230.543329 
L 301.521633 230.619237 
L 307.481429 230.695146 
L 313.441224 230.771055 
L 319.40102 230.846964 
L 325.360816 230.922873 
L 331.320612 230.998782 
L 337.280408 231.074691 
L 343.240204 231.1506 
L 349.2 231.226508 
" clip-path="url(#p43755293cf)" style="fill: none; stroke: #c004b9; stroke-width: 1.5; stroke-linecap: square"/>
   </g>
   <g id="line2d_25">
    <path d="M 57.17 222.2147 
L 63.129796 221.764122 
L 69.089592 221.313545 
L 75.049388 220.862968 
L 81.009184 220.41239 
L 86.96898 219.961813 
L 92.928776 219.511235 
L 98.888571 219.060658 
L 104.848367 218.610081 
L 110.808163 218.159503 
L 116.767959 217.708926 
L 122.727755 217.258349 
L 128.687551 216.807771 
L 134.647347 216.357194 
L 140.607143 215.906617 
L 146.566939 215.456039 
L 152.526735 215.005462 
L 158.486531 214.554884 
L 164.446327 214.104307 
L 170.406122 213.65373 
L 176.365918 213.203152 
L 182.325714 212.752575 
L 188.28551 212.301998 
L 194.245306 211.85142 
L 200.205102 211.400843 
L 206.164898 210.950266 
L 212.124694 210.499688 
L 218.08449 210.049111 
L 224.044286 209.598534 
L 230.004082 209.147956 
L 235.963878 208.697379 
L 241.923673 208.246801 
L 247.883469 207.796224 
L 253.843265 207.345647 
L 259.803061 206.895069 
L 265.762857 206.444492 
L 271.722653 205.993915 
L 277.682449 205.543337 
L 283.642245 205.09276 
L 289.602041 204.642183 
L 295.561837 204.191605 
L 301.521633 203.741028 
L 307.481429 203.29045 
L 313.441224 202.839873 
L 319.40102 202.389296 
L 325.360816 201.938718 
L 331.320612 201.488141 
L 337.280408 201.037564 
L 343.240204 200.586986 
L 349.2 200.136409 
" clip-path="url(#p43755293cf)" style="fill: none; stroke: #790000; stroke-width: 1.5; stroke-linecap: square"/>
   </g>
   <g id="line2d_26">
    <path d="M 57.17 223.632338 
L 63.129796 223.543482 
L 69.089592 223.454626 
L 75.049388 223.36577 
L 81.009184 223.276915 
L 86.96898 223.188059 
L 92.928776 223.099203 
L 98.888571 223.010348 
L 104.848367 222.921492 
L 110.808163 222.832636 
L 116.767959 222.74378 
L 122.727755 222.654925 
L 128.687551 222.566069 
L 134.647347 222.477213 
L 140.607143 222.388358 
L 146.566939 222.299502 
L 152.526735 222.210646 
L 158.486531 222.12179 
L 164.446327 222.032935 
L 170.406122 221.944079 
L 176.365918 221.855223 
L 182.325714 221.766367 
L 188.28551 221.677512 
L 194.245306 221.588656 
L 200.205102 221.4998 
L 206.164898 221.410945 
L 212.124694 221.322089 
L 218.08449 221.233233 
L 224.044286 221.144377 
L 230.004082 221.055522 
L 235.963878 220.966666 
L 241.923673 220.87781 
L 247.883469 220.788955 
L 253.843265 220.700099 
L 259.803061 220.611243 
L 265.762857 220.522387 
L 271.722653 220.433532 
L 277.682449 220.344676 
L 283.642245 220.25582 
L 289.602041 220.166964 
L 295.561837 220.078109 
L 301.521633 219.989253 
L 307.481429 219.900397 
L 313.441224 219.811542 
L 319.40102 219.722686 
L 325.360816 219.63383 
L 331.320612 219.544974 
L 337.280408 219.456119 
L 343.240204 219.367263 
L 349.2 219.278407 
" clip-path="url(#p43755293cf)" style="fill: none; stroke: #0774d8; stroke-width: 1.5; stroke-linecap: square"/>
   </g>
   <g id="line2d_27">
    <path d="M 57.17 206.725736 
L 63.129796 205.411834 
L 69.089592 204.097932 
L 75.049388 202.78403 
L 81.009184 201.470128 
L 86.96898 200.156226 
L 92.928776 198.842324 
L 98.888571 197.528422 
L 104.848367 196.21452 
L 110.808163 194.900618 
L 116.767959 193.586716 
L 122.727755 192.272814 
L 128.687551 190.958912 
L 134.647347 189.64501 
L 140.607143 188.331108 
L 146.566939 187.017206 
L 152.526735 185.703304 
L 158.486531 184.389402 
L 164.446327 183.0755 
L 170.406122 181.761598 
L 176.365918 180.447697 
L 182.325714 179.133795 
L 188.28551 177.819893 
L 194.245306 176.505991 
L 200.205102 175.192089 
L 206.164898 173.878187 
L 212.124694 172.564285 
L 218.08449 171.250383 
L 224.044286 169.936481 
L 230.004082 168.622579 
L 235.963878 167.308677 
L 241.923673 165.994775 
L 247.883469 164.680873 
L 253.843265 163.366971 
L 259.803061 162.053069 
L 265.762857 160.739167 
L 271.722653 159.425265 
L 277.682449 158.111363 
L 283.642245 156.797461 
L 289.602041 155.483559 
L 295.561837 154.169657 
L 301.521633 152.855755 
L 307.481429 151.541853 
L 313.441224 150.227951 
L 319.40102 148.914049 
L 325.360816 147.600147 
L 331.320612 146.286245 
L 337.280408 144.972343 
L 343.240204 143.658441 
L 349.2 142.344539 
" clip-path="url(#p43755293cf)" style="fill: none; stroke: #fef590; stroke-width: 1.5; stroke-linecap: square"/>
   </g>
   <g id="line2d_28">
    <path d="M 57.17 203.308638 
L 63.129796 201.893433 
L 69.089592 200.478229 
L 75.049388 199.063024 
L 81.009184 197.64782 
L 86.96898 196.232615 
L 92.928776 194.817411 
L 98.888571 193.402207 
L 104.848367 191.987002 
L 110.808163 190.571798 
L 116.767959 189.156593 
L 122.727755 187.741389 
L 128.687551 186.326184 
L 134.647347 184.91098 
L 140.607143 183.495776 
L 146.566939 182.080571 
L 152.526735 180.665367 
L 158.486531 179.250162 
L 164.446327 177.834958 
L 170.406122 176.419753 
L 176.365918 175.004549 
L 182.325714 173.589345 
L 188.28551 172.17414 
L 194.245306 170.758936 
L 200.205102 169.343731 
L 206.164898 167.928527 
L 212.124694 166.513322 
L 218.08449 165.098118 
L 224.044286 163.682913 
L 230.004082 162.267709 
L 235.963878 160.852505 
L 241.923673 159.4373 
L 247.883469 158.022096 
L 253.843265 156.606891 
L 259.803061 155.191687 
L 265.762857 153.776482 
L 271.722653 152.361278 
L 277.682449 150.946074 
L 283.642245 149.530869 
L 289.602041 148.115665 
L 295.561837 146.70046 
L 301.521633 145.285256 
L 307.481429 143.870051 
L 313.441224 142.454847 
L 319.40102 141.039643 
L 325.360816 139.624438 
L 331.320612 138.209234 
L 337.280408 136.794029 
L 343.240204 135.378825 
L 349.2 133.96362 
" clip-path="url(#p43755293cf)" style="fill: none; stroke: #004b00; stroke-width: 1.5; stroke-linecap: square"/>
   </g>
   <g id="line2d_29">
    <path d="M 57.17 232.787998 
L 63.129796 234.876193 
L 69.089592 236.964387 
L 75.049388 239.052582 
L 81.009184 241.140777 
L 86.96898 243.228972 
L 92.928776 245.317166 
L 98.888571 247.405361 
L 104.848367 249.493556 
L 110.808163 251.581751 
L 116.767959 253.669946 
L 122.727755 255.75814 
L 128.687551 257.846335 
L 134.647347 259.93453 
L 140.607143 262.022725 
L 146.566939 264.110919 
L 152.526735 266.199114 
L 158.486531 268.287309 
L 164.446327 270.375504 
L 170.406122 272.463698 
L 176.365918 274.551893 
L 182.325714 276.640088 
L 188.28551 278.728283 
L 194.245306 280.816478 
L 200.205102 282.904672 
L 206.164898 284.992867 
L 212.124694 287.081062 
L 217.601424 289 
" clip-path="url(#p43755293cf)" style="fill: none; stroke: #8f7a00; stroke-width: 1.5; stroke-linecap: square"/>
   </g>
   <g id="line2d_30">
    <path d="M 57.17 229.680412 
L 63.129796 229.554924 
L 69.089592 229.429436 
L 75.049388 229.303948 
L 81.009184 229.178459 
L 86.96898 229.052971 
L 92.928776 228.927483 
L 98.888571 228.801995 
L 104.848367 228.676507 
L 110.808163 228.551019 
L 116.767959 228.425531 
L 122.727755 228.300043 
L 128.687551 228.174555 
L 134.647347 228.049067 
L 140.607143 227.923578 
L 146.566939 227.79809 
L 152.526735 227.672602 
L 158.486531 227.547114 
L 164.446327 227.421626 
L 170.406122 227.296138 
L 176.365918 227.17065 
L 182.325714 227.045162 
L 188.28551 226.919674 
L 194.245306 226.794186 
L 200.205102 226.668697 
L 206.164898 226.543209 
L 212.124694 226.417721 
L 218.08449 226.292233 
L 224.044286 226.166745 
L 230.004082 226.041257 
L 235.963878 225.915769 
L 241.923673 225.790281 
L 247.883469 225.664793 
L 253.843265 225.539305 
L 259.803061 225.413817 
L 265.762857 225.288328 
L 271.722653 225.16284 
L 277.682449 225.037352 
L 283.642245 224.911864 
L 289.602041 224.786376 
L 295.561837 224.660888 
L 301.521633 224.5354 
L 307.481429 224.409912 
L 313.441224 224.284424 
L 319.40102 224.158936 
L 325.360816 224.033447 
L 331.320612 223.907959 
L 337.280408 223.782471 
L 343.240204 223.656983 
L 349.2 223.531495 
" clip-path="url(#p43755293cf)" style="fill: none; stroke: #ff7266; stroke-width: 1.5; stroke-linecap: square"/>
   </g>
   <g id="line2d_31">
    <path d="M 57.17 161.023726 
L 63.129796 159.341822 
L 69.089592 157.659918 
L 75.049388 155.978015 
L 81.009184 154.296111 
L 86.96898 152.614208 
L 92.928776 150.932304 
L 98.888571 149.250401 
L 104.848367 147.568497 
L 110.808163 145.886594 
L 116.767959 144.20469 
L 122.727755 142.522787 
L 128.687551 140.840883 
L 134.647347 139.15898 
L 140.607143 137.477076 
L 146.566939 135.795173 
L 152.526735 134.113269 
L 158.486531 132.431366 
L 164.446327 130.749462 
L 170.406122 129.067558 
L 176.365918 127.385655 
L 182.325714 125.703751 
L 188.28551 124.021848 
L 194.245306 122.339944 
L 200.205102 120.658041 
L 206.164898 118.976137 
L 212.124694 117.294234 
L 218.08449 115.61233 
L 224.044286 113.930427 
L 230.004082 112.248523 
L 235.963878 110.56662 
L 241.923673 108.884716 
L 247.883469 107.202813 
L 253.843265 105.520909 
L 259.803061 103.839006 
L 265.762857 102.157102 
L 271.722653 100.475198 
L 277.682449 98.793295 
L 283.642245 97.111391 
L 289.602041 95.429488 
L 295.561837 93.747584 
L 301.521633 92.065681 
L 307.481429 90.383777 
L 313.441224 88.701874 
L 319.40102 87.01997 
L 325.360816 85.338067 
L 331.320612 83.656163 
L 337.280408 81.97426 
L 343.240204 80.292356 
L 349.2 78.610453 
" clip-path="url(#p43755293cf)" style="fill: none; stroke: #eeb9b9; stroke-width: 1.5; stroke-linecap: square"/>
   </g>
   <g id="line2d_32">
    <path d="M 57.17 226.073257 
L 63.129796 225.238745 
L 69.089592 224.404234 
L 75.049388 223.569723 
L 81.009184 222.735212 
L 86.96898 221.900701 
L 92.928776 221.066189 
L 98.888571 220.231678 
L 104.848367 219.397167 
L 110.808163 218.562656 
L 116.767959 217.728145 
L 122.727755 216.893633 
L 128.687551 216.059122 
L 134.647347 215.224611 
L 140.607143 214.3901 
L 146.566939 213.555589 
L 152.526735 212.721077 
L 158.486531 211.886566 
L 164.446327 211.052055 
L 170.406122 210.217544 
L 176.365918 209.383033 
L 182.325714 208.548522 
L 188.28551 207.71401 
L 194.245306 206.879499 
L 200.205102 206.044988 
L 206.164898 205.210477 
L 212.124694 204.375966 
L 218.08449 203.541454 
L 224.044286 202.706943 
L 230.004082 201.872432 
L 235.963878 201.037921 
L 241.923673 200.20341 
L 247.883469 199.368898 
L 253.843265 198.534387 
L 259.803061 197.699876 
L 265.762857 196.865365 
L 271.722653 196.030854 
L 277.682449 195.196342 
L 283.642245 194.361831 
L 289.602041 193.52732 
L 295.561837 192.692809 
L 301.521633 191.858298 
L 307.481429 191.023787 
L 313.441224 190.189275 
L 319.40102 189.354764 
L 325.360816 188.520253 
L 331.320612 187.685742 
L 337.280408 186.851231 
L 343.240204 186.016719 
L 349.2 185.182208 
" clip-path="url(#p43755293cf)" style="fill: none; stroke: #5e7e66; stroke-width: 1.5; stroke-linecap: square"/>
   </g>
   <g id="line2d_33">
    <path d="M 57.17 220.993295 
L 63.129796 220.11428 
L 69.089592 219.235265 
L 75.049388 218.356251 
L 81.009184 217.477236 
L 86.96898 216.598221 
L 92.928776 215.719207 
L 98.888571 214.840192 
L 104.848367 213.961177 
L 110.808163 213.082163 
L 116.767959 212.203148 
L 122.727755 211.324133 
L 128.687551 210.445119 
L 134.647347 209.566104 
L 140.607143 208.687089 
L 146.566939 207.808075 
L 152.526735 206.92906 
L 158.486531 206.050045 
L 164.446327 205.171031 
L 170.406122 204.292016 
L 176.365918 203.413001 
L 182.325714 202.533987 
L 188.28551 201.654972 
L 194.245306 200.775957 
L 200.205102 199.896942 
L 206.164898 199.017928 
L 212.124694 198.138913 
L 218.08449 197.259898 
L 224.044286 196.380884 
L 230.004082 195.501869 
L 235.963878 194.622854 
L 241.923673 193.74384 
L 247.883469 192.864825 
L 253.843265 191.98581 
L 259.803061 191.106796 
L 265.762857 190.227781 
L 271.722653 189.348766 
L 277.682449 188.469752 
L 283.642245 187.590737 
L 289.602041 186.711722 
L 295.561837 185.832708 
L 301.521633 184.953693 
L 307.481429 184.074678 
L 313.441224 183.195664 
L 319.40102 182.316649 
L 325.360816 181.437634 
L 331.320612 180.55862 
L 337.280408 179.679605 
L 343.240204 178.80059 
L 349.2 177.921575 
" clip-path="url(#p43755293cf)" style="fill: none; stroke: #9be4ff; stroke-width: 1.5; stroke-linecap: square"/>
   </g>
   <g id="patch_3">
    <path d="M 57.17 246.04 
L 57.17 10.8 
" style="fill: none; stroke: #000000; stroke-width: 0.8; stroke-linejoin: miter; stroke-linecap: square"/>
   </g>
   <g id="patch_4">
    <path d="M 349.2 246.04 
L 349.2 10.8 
" style="fill: none; stroke: #000000; stroke-width: 0.8; stroke-linejoin: miter; stroke-linecap: square"/>
   </g>
   <g id="patch_5">
    <path d="M 57.17 246.04 
L 349.2 246.04 
" style="fill: none; stroke: #000000; stroke-width: 0.8; stroke-linejoin: miter; stroke-linecap: square"/>
   </g>
   <g id="patch_6">
    <path d="M 57.17 10.8 
L 349.2 10.8 
" style="fill: none; stroke: #000000; stroke-width: 0.8; stroke-linejoin: miter; stroke-linecap: square"/>
   </g>
   <g id="legend_1">
    <g id="patch_7">
     <path d="M 64.17 180.259375 
L 173.424688 180.259375 
Q 175.424688 180.259375 175.424688 178.259375 
L 175.424688 17.8 
Q 175.424688 15.8 173.424688 15.8 
L 64.17 15.8 
Q 62.17 15.8 62.17 17.8 
L 62.17 178.259375 
Q 62.17 180.259375 64.17 180.259375 
z
" style="fill: #ffffff; opacity: 0.8; stroke: #cccccc; stroke-linejoin: miter"/>
    </g>
    <g id="line2d_34">
     <path d="M 66.17 23.898438 
L 76.17 23.898438 
L 86.17 23.898438 
" style="fill: none; stroke: #d70000; stroke-width: 1.5; stroke-linecap: square"/>
    </g>
    <g id="text_15">
     <!-- AT -->
     <g transform="translate(94.17 27.398438)scale(0.1 -0.1)">
      <defs>
       <path id="DejaVuSans-41" d="M 2188 4044 
L 1331 1722 
L 3047 1722 
L 2188 4044 
z
M 1831 4666 
L 2547 4666 
L 4325 0 
L 3669 0 
L 3244 1197 
L 1141 1197 
L 716 0 
L 50 0 
L 1831 4666 
z
" transform="scale(0.015625)"/>
      </defs>
      <use xlink:href="#DejaVuSans-41"/>
      <use xlink:href="#DejaVuSans-54" x="60.658203"/>
     </g>
    </g>
    <g id="line2d_35">
     <path d="M 66.17 38.576563 
L 76.17 38.576563 
L 86.17 38.576563 
" style="fill: none; stroke: #8c3cff; stroke-width: 1.5; stroke-linecap: square"/>
    </g>
    <g id="text_16">
     <!-- BE -->
     <g transform="translate(94.17 42.076563)scale(0.1 -0.1)">
      <defs>
       <path id="DejaVuSans-42" d="M 1259 2228 
L 1259 519 
L 2272 519 
Q 2781 519 3026 730 
Q 3272 941 3272 1375 
Q 3272 1813 3026 2020 
Q 2781 2228 2272 2228 
L 1259 2228 
z
M 1259 4147 
L 1259 2741 
L 2194 2741 
Q 2656 2741 2882 2914 
Q 3109 3088 3109 3444 
Q 3109 3797 2882 3972 
Q 2656 4147 2194 4147 
L 1259 4147 
z
M 628 4666 
L 2241 4666 
Q 2963 4666 3353 4366 
Q 3744 4066 3744 3513 
Q 3744 3084 3544 2831 
Q 3344 2578 2956 2516 
Q 3422 2416 3680 2098 
Q 3938 1781 3938 1306 
Q 3938 681 3513 340 
Q 3088 0 2303 0 
L 628 0 
L 628 4666 
z
" transform="scale(0.015625)"/>
      </defs>
      <use xlink:href="#DejaVuSans-42"/>
      <use xlink:href="#DejaVuSans-45" x="68.603516"/>
     </g>
    </g>
    <g id="line2d_36">
     <path d="M 66.17 53.254688 
L 76.17 53.254688 
L 86.17 53.254688 
" style="fill: none; stroke: #028800; stroke-width: 1.5; stroke-linecap: square"/>
    </g>
    <g id="text_17">
     <!-- BG -->
     <g transform="translate(94.17 56.754688)scale(0.1 -0.1)">
      <use xlink:href="#DejaVuSans-42"/>
      <use xlink:href="#DejaVuSans-47" x="66.853516"/>
     </g>
    </g>
    <g id="line2d_37">
     <path d="M 66.17 67.932813 
L 76.17 67.932813 
L 86.17 67.932813 
" style="fill: none; stroke: #98ff00; stroke-width: 1.5; stroke-linecap: square"/>
    </g>
    <g id="text_18">
     <!-- CZ -->
     <g transform="translate(94.17 71.432813)scale(0.1 -0.1)">
      <defs>
       <path id="DejaVuSans-43" d="M 4122 4306 
L 4122 3641 
Q 3803 3938 3442 4084 
Q 3081 4231 2675 4231 
Q 1875 4231 1450 3742 
Q 1025 3253 1025 2328 
Q 1025 1406 1450 917 
Q 1875 428 2675 428 
Q 3081 428 3442 575 
Q 3803 722 4122 1019 
L 4122 359 
Q 3791 134 3420 21 
Q 3050 -91 2638 -91 
Q 1578 -91 968 557 
Q 359 1206 359 2328 
Q 359 3453 968 4101 
Q 1578 4750 2638 4750 
Q 3056 4750 3426 4639 
Q 3797 4528 4122 4306 
z
" transform="scale(0.015625)"/>
       <path id="DejaVuSans-5a" d="M 359 4666 
L 4025 4666 
L 4025 4184 
L 1075 531 
L 4097 531 
L 4097 0 
L 288 0 
L 288 481 
L 3238 4134 
L 359 4134 
L 359 4666 
z
" transform="scale(0.015625)"/>
      </defs>
      <use xlink:href="#DejaVuSans-43"/>
      <use xlink:href="#DejaVuSans-5a" x="69.824219"/>
     </g>
    </g>
    <g id="line2d_38">
     <path d="M 66.17 82.610938 
L 76.17 82.610938 
L 86.17 82.610938 
" style="fill: none; stroke: #ff7fd1; stroke-width: 1.5; stroke-linecap: square"/>
    </g>
    <g id="text_19">
     <!-- DE -->
     <g transform="translate(94.17 86.110938)scale(0.1 -0.1)">
      <use xlink:href="#DejaVuSans-44"/>
      <use xlink:href="#DejaVuSans-45" x="77.001953"/>
     </g>
    </g>
    <g id="line2d_39">
     <path d="M 66.17 97.289062 
L 76.17 97.289062 
L 86.17 97.289062 
" style="fill: none; stroke: #6c004f; stroke-width: 1.5; stroke-linecap: square"/>
    </g>
    <g id="text_20">
     <!-- DK -->
     <g transform="translate(94.17 100.789062)scale(0.1 -0.1)">
      <defs>
       <path id="DejaVuSans-4b" d="M 628 4666 
L 1259 4666 
L 1259 2694 
L 3353 4666 
L 4166 4666 
L 1850 2491 
L 4331 0 
L 3500 0 
L 1259 2247 
L 1259 0 
L 628 0 
L 628 4666 
z
" transform="scale(0.015625)"/>
      </defs>
      <use xlink:href="#DejaVuSans-44"/>
      <use xlink:href="#DejaVuSans-4b" x="77.001953"/>
     </g>
    </g>
    <g id="line2d_40">
     <path d="M 66.17 111.967188 
L 76.17 111.967188 
L 86.17 111.967188 
" style="fill: none; stroke: #583b00; stroke-width: 1.5; stroke-linecap: square"/>
    </g>
    <g id="text_21">
     <!-- EL -->
     <g transform="translate(94.17 115.467188)scale(0.1 -0.1)">
      <defs>
       <path id="DejaVuSans-4c" d="M 628 4666 
L 1259 4666 
L 1259 531 
L 3531 531 
L 3531 0 
L 628 0 
L 628 4666 
z
" transform="scale(0.015625)"/>
      </defs>
      <use xlink:href="#DejaVuSans-45"/>
      <use xlink:href="#DejaVuSans-4c" x="63.183594"/>
     </g>
    </g>
    <g id="line2d_41">
     <path d="M 66.17 126.645312 
L 76.17 126.645312 
L 86.17 126.645312 
" style="fill: none; stroke: #005759; stroke-width: 1.5; stroke-linecap: square"/>
    </g>
    <g id="text_22">
     <!-- ES -->
     <g transform="translate(94.17 130.145312)scale(0.1 -0.1)">
      <use xlink:href="#DejaVuSans-45"/>
      <use xlink:href="#DejaVuSans-53" x="63.183594"/>
     </g>
    </g>
    <g id="line2d_42">
     <path d="M 66.17 141.323438 
L 76.17 141.323438 
L 86.17 141.323438 
" style="fill: none; stroke: #0000dd; stroke-width: 1.5; stroke-linecap: square"/>
    </g>
    <g id="text_23">
     <!-- FI -->
     <g transform="translate(94.17 144.823438)scale(0.1 -0.1)">
      <defs>
       <path id="DejaVuSans-46" d="M 628 4666 
L 3309 4666 
L 3309 4134 
L 1259 4134 
L 1259 2759 
L 3109 2759 
L 3109 2228 
L 1259 2228 
L 1259 0 
L 628 0 
L 628 4666 
z
" transform="scale(0.015625)"/>
       <path id="DejaVuSans-49" d="M 628 4666 
L 1259 4666 
L 1259 0 
L 628 0 
L 628 4666 
z
" transform="scale(0.015625)"/>
      </defs>
      <use xlink:href="#DejaVuSans-46"/>
      <use xlink:href="#DejaVuSans-49" x="57.519531"/>
     </g>
    </g>
    <g id="line2d_43">
     <path d="M 66.17 156.001562 
L 76.17 156.001562 
L 86.17 156.001562 
" style="fill: none; stroke: #bcb7ff; stroke-width: 1.5; stroke-linecap: square"/>
    </g>
    <g id="text_24">
     <!-- IE -->
     <g transform="translate(94.17 159.501562)scale(0.1 -0.1)">
      <use xlink:href="#DejaVuSans-49"/>
      <use xlink:href="#DejaVuSans-45" x="29.492188"/>
     </g>
    </g>
    <g id="line2d_44">
     <path d="M 66.17 170.679687 
L 76.17 170.679687 
L 86.17 170.679687 
" style="fill: none; stroke: #95b578; stroke-width: 1.5; stroke-linecap: square"/>
    </g>
    <g id="text_25">
     <!-- IT -->
     <g transform="translate(94.17 174.179687)scale(0.1 -0.1)">
      <use xlink:href="#DejaVuSans-49"/>
      <use xlink:href="#DejaVuSans-54" x="29.492188"/>
     </g>
    </g>
    <g id="line2d_45">
     <path d="M 128.604375 23.898438 
L 138.604375 23.898438 
L 148.604375 23.898438 
" style="fill: none; stroke: #c004b9; stroke-width: 1.5; stroke-linecap: square"/>
    </g>
    <g id="text_26">
     <!-- LT -->
     <g transform="translate(156.604375 27.398438)scale(0.1 -0.1)">
      <use xlink:href="#DejaVuSans-4c"/>
      <use xlink:href="#DejaVuSans-54" x="41.962891"/>
     </g>
    </g>
    <g id="line2d_46">
     <path d="M 128.604375 38.576563 
L 138.604375 38.576563 
L 148.604375 38.576563 
" style="fill: none; stroke: #790000; stroke-width: 1.5; stroke-linecap: square"/>
    </g>
    <g id="text_27">
     <!-- LV -->
     <g transform="translate(156.604375 42.076563)scale(0.1 -0.1)">
      <defs>
       <path id="DejaVuSans-56" d="M 1831 0 
L 50 4666 
L 709 4666 
L 2188 738 
L 3669 4666 
L 4325 4666 
L 2547 0 
L 1831 0 
z
" transform="scale(0.015625)"/>
      </defs>
      <use xlink:href="#DejaVuSans-4c"/>
      <use xlink:href="#DejaVuSans-56" x="44.712891"/>
     </g>
    </g>
    <g id="line2d_47">
     <path d="M 128.604375 53.254688 
L 138.604375 53.254688 
L 148.604375 53.254688 
" style="fill: none; stroke: #0774d8; stroke-width: 1.5; stroke-linecap: square"/>
    </g>
    <g id="text_28">
     <!-- MT -->
     <g transform="translate(156.604375 56.754688)scale(0.1 -0.1)">
      <defs>
       <path id="DejaVuSans-4d" d="M 628 4666 
L 1569 4666 
L 2759 1491 
L 3956 4666 
L 4897 4666 
L 4897 0 
L 4281 0 
L 4281 4097 
L 3078 897 
L 2444 897 
L 1241 4097 
L 1241 0 
L 628 0 
L 628 4666 
z
" transform="scale(0.015625)"/>
      </defs>
      <use xlink:href="#DejaVuSans-4d"/>
      <use xlink:href="#DejaVuSans-54" x="86.279297"/>
     </g>
    </g>
    <g id="line2d_48">
     <path d="M 128.604375 67.932813 
L 138.604375 67.932813 
L 148.604375 67.932813 
" style="fill: none; stroke: #fef590; stroke-width: 1.5; stroke-linecap: square"/>
    </g>
    <g id="text_29">
     <!-- NL -->
     <g transform="translate(156.604375 71.432813)scale(0.1 -0.1)">
      <use xlink:href="#DejaVuSans-4e"/>
      <use xlink:href="#DejaVuSans-4c" x="74.804688"/>
     </g>
    </g>
    <g id="line2d_49">
     <path d="M 128.604375 82.610938 
L 138.604375 82.610938 
L 148.604375 82.610938 
" style="fill: none; stroke: #004b00; stroke-width: 1.5; stroke-linecap: square"/>
    </g>
    <g id="text_30">
     <!-- PL -->
     <g transform="translate(156.604375 86.110938)scale(0.1 -0.1)">
      <use xlink:href="#DejaVuSans-50"/>
      <use xlink:href="#DejaVuSans-4c" x="60.302734"/>
     </g>
    </g>
    <g id="line2d_50">
     <path d="M 128.604375 97.289062 
L 138.604375 97.289062 
L 148.604375 97.289062 
" style="fill: none; stroke: #8f7a00; stroke-width: 1.5; stroke-linecap: square"/>
    </g>
    <g id="text_31">
     <!-- PT -->
     <g transform="translate(156.604375 100.789062)scale(0.1 -0.1)">
      <use xlink:href="#DejaVuSans-50"/>
      <use xlink:href="#DejaVuSans-54" x="60.302734"/>
     </g>
    </g>
    <g id="line2d_51">
     <path d="M 128.604375 111.967188 
L 138.604375 111.967188 
L 148.604375 111.967188 
" style="fill: none; stroke: #ff7266; stroke-width: 1.5; stroke-linecap: square"/>
    </g>
    <g id="text_32">
     <!-- RO -->
     <g transform="translate(156.604375 115.467188)scale(0.1 -0.1)">
      <defs>
       <path id="DejaVuSans-52" d="M 2841 2188 
Q 3044 2119 3236 1894 
Q 3428 1669 3622 1275 
L 4263 0 
L 3584 0 
L 2988 1197 
Q 2756 1666 2539 1819 
Q 2322 1972 1947 1972 
L 1259 1972 
L 1259 0 
L 628 0 
L 628 4666 
L 2053 4666 
Q 2853 4666 3247 4331 
Q 3641 3997 3641 3322 
Q 3641 2881 3436 2590 
Q 3231 2300 2841 2188 
z
M 1259 4147 
L 1259 2491 
L 2053 2491 
Q 2509 2491 2742 2702 
Q 2975 2913 2975 3322 
Q 2975 3731 2742 3939 
Q 2509 4147 2053 4147 
L 1259 4147 
z
" transform="scale(0.015625)"/>
       <path id="DejaVuSans-4f" d="M 2522 4238 
Q 1834 4238 1429 3725 
Q 1025 3213 1025 2328 
Q 1025 1447 1429 934 
Q 1834 422 2522 422 
Q 3209 422 3611 934 
Q 4013 1447 4013 2328 
Q 4013 3213 3611 3725 
Q 3209 4238 2522 4238 
z
M 2522 4750 
Q 3503 4750 4090 4092 
Q 4678 3434 4678 2328 
Q 4678 1225 4090 567 
Q 3503 -91 2522 -91 
Q 1538 -91 948 565 
Q 359 1222 359 2328 
Q 359 3434 948 4092 
Q 1538 4750 2522 4750 
z
" transform="scale(0.015625)"/>
      </defs>
      <use xlink:href="#DejaVuSans-52"/>
      <use xlink:href="#DejaVuSans-4f" x="69.482422"/>
     </g>
    </g>
    <g id="line2d_52">
     <path d="M 128.604375 126.645312 
L 138.604375 126.645312 
L 148.604375 126.645312 
" style="fill: none; stroke: #eeb9b9; stroke-width: 1.5; stroke-linecap: square"/>
    </g>
    <g id="text_33">
     <!-- SE -->
     <g transform="translate(156.604375 130.145312)scale(0.1 -0.1)">
      <use xlink:href="#DejaVuSans-53"/>
      <use xlink:href="#DejaVuSans-45" x="63.476562"/>
     </g>
    </g>
    <g id="line2d_53">
     <path d="M 128.604375 141.323438 
L 138.604375 141.323438 
L 148.604375 141.323438 
" style="fill: none; stroke: #5e7e66; stroke-width: 1.5; stroke-linecap: square"/>
    </g>
    <g id="text_34">
     <!-- SI -->
     <g transform="translate(156.604375 144.823438)scale(0.1 -0.1)">
      <use xlink:href="#DejaVuSans-53"/>
      <use xlink:href="#DejaVuSans-49" x="63.476562"/>
     </g>
    </g>
    <g id="line2d_54">
     <path d="M 128.604375 156.001562 
L 138.604375 156.001562 
L 148.604375 156.001562 
" style="fill: none; stroke: #9be4ff; stroke-width: 1.5; stroke-linecap: square"/>
    </g>
    <g id="text_35">
     <!-- SK -->
     <g transform="translate(156.604375 159.501562)scale(0.1 -0.1)">
      <use xlink:href="#DejaVuSans-53"/>
      <use xlink:href="#DejaVuSans-4b" x="63.476562"/>
     </g>
    </g>
   </g>
  </g>
 </g>
 <defs>
  <clipPath id="p43755293cf">
   <rect x="57.17" y="10.8" width="292.03" height="235.24"/>
  </clipPath>
 </defs>
</svg>
