<?xml version="1.0" encoding="utf-8" standalone="no"?>
<!DOCTYPE svg PUBLIC "-//W3C//DTD SVG 1.1//EN"
  "http://www.w3.org/Graphics/SVG/1.1/DTD/svg11.dtd">
<svg xmlns:xlink="http://www.w3.org/1999/xlink" width="460.8pt" height="345.6pt" viewBox="0 0 460.8 345.6" xmlns="http://www.w3.org/2000/svg" version="1.1">
 <metadata>
  <rdf:RDF xmlns:dc="http://purl.org/dc/elements/1.1/" xmlns:cc="http://creativecommons.org/ns#" xmlns:rdf="http://www.w3.org/1999/02/22-rdf-syntax-ns#">
   <cc:Work>
    <dc:type rdf:resource="http://purl.org/dc/dcmitype/StillImage"/>
    <dc:date>2024-02-02T17:09:13.642008</dc:date>
    <dc:format>image/svg+xml</dc:format>
    <dc:creator>
     <cc:Agent>
      <dc:title>Matplotlib v3.5.1, https://matplotlib.org/</dc:title>
     </cc:Agent>
    </dc:creator>
   </cc:Work>
  </rdf:RDF>
 </metadata>
 <defs>
  <style type="text/css">*{stroke-linejoin: round; stroke-linecap: butt}</style>
 </defs>
 <g id="figure_1">
  <g id="patch_1">
   <path d="M 0 345.6 
L 460.8 345.6 
L 460.8 0 
L 0 0 
L 0 345.6 
z
" style="fill: none"/>
  </g>
  <g id="axes_1">
   <g id="patch_2">
    <path d="M 57.17 303.64 
L 450 303.64 
L 450 10.8 
L 57.17 10.8 
L 57.17 303.64 
z
" style="fill: none"/>
   </g>
   <g id="matplotlib.axis_1">
    <g id="xtick_1">
     <g id="line2d_1">
      <defs>
       <path id="mceb768c3f0" d="M 0 0 
L 0 3.5 
" style="stroke: #000000; stroke-width: 0.8"/>
      </defs>
      <g>
       <use xlink:href="#mceb768c3f0" x="132.960106" y="303.64" style="stroke: #000000; stroke-width: 0.8"/>
      </g>
     </g>
     <g id="text_1">
      <!-- 50 -->
      <g transform="translate(126.597606 318.238437)scale(0.1 -0.1)">
       <defs>
        <path id="DejaVuSans-35" d="M 691 4666 
L 3169 4666 
L 3169 4134 
L 1269 4134 
L 1269 2991 
Q 1406 3038 1543 3061 
Q 1681 3084 1819 3084 
Q 2600 3084 3056 2656 
Q 3513 2228 3513 1497 
Q 3513 744 3044 326 
Q 2575 -91 1722 -91 
Q 1428 -91 1123 -41 
Q 819 9 494 109 
L 494 744 
Q 775 591 1075 516 
Q 1375 441 1709 441 
Q 2250 441 2565 725 
Q 2881 1009 2881 1497 
Q 2881 1984 2565 2268 
Q 2250 2553 1709 2553 
Q 1456 2553 1204 2497 
Q 953 2441 691 2322 
L 691 4666 
z
" transform="scale(0.015625)"/>
        <path id="DejaVuSans-30" d="M 2034 4250 
Q 1547 4250 1301 3770 
Q 1056 3291 1056 2328 
Q 1056 1369 1301 889 
Q 1547 409 2034 409 
Q 2525 409 2770 889 
Q 3016 1369 3016 2328 
Q 3016 3291 2770 3770 
Q 2525 4250 2034 4250 
z
M 2034 4750 
Q 2819 4750 3233 4129 
Q 3647 3509 3647 2328 
Q 3647 1150 3233 529 
Q 2819 -91 2034 -91 
Q 1250 -91 836 529 
Q 422 1150 422 2328 
Q 422 3509 836 4129 
Q 1250 4750 2034 4750 
z
" transform="scale(0.015625)"/>
       </defs>
       <use xlink:href="#DejaVuSans-35"/>
       <use xlink:href="#DejaVuSans-30" x="63.623047"/>
      </g>
     </g>
    </g>
    <g id="xtick_2">
     <g id="line2d_2">
      <g>
       <use xlink:href="#mceb768c3f0" x="209.355261" y="303.64" style="stroke: #000000; stroke-width: 0.8"/>
      </g>
     </g>
     <g id="text_2">
      <!-- 100 -->
      <g transform="translate(199.811511 318.238437)scale(0.1 -0.1)">
       <defs>
        <path id="DejaVuSans-31" d="M 794 531 
L 1825 531 
L 1825 4091 
L 703 3866 
L 703 4441 
L 1819 4666 
L 2450 4666 
L 2450 531 
L 3481 531 
L 3481 0 
L 794 0 
L 794 531 
z
" transform="scale(0.015625)"/>
       </defs>
       <use xlink:href="#DejaVuSans-31"/>
       <use xlink:href="#DejaVuSans-30" x="63.623047"/>
       <use xlink:href="#DejaVuSans-30" x="127.246094"/>
      </g>
     </g>
    </g>
    <g id="xtick_3">
     <g id="line2d_3">
      <g>
       <use xlink:href="#mceb768c3f0" x="285.750416" y="303.64" style="stroke: #000000; stroke-width: 0.8"/>
      </g>
     </g>
     <g id="text_3">
      <!-- 150 -->
      <g transform="translate(276.206666 318.238437)scale(0.1 -0.1)">
       <use xlink:href="#DejaVuSans-31"/>
       <use xlink:href="#DejaVuSans-35" x="63.623047"/>
       <use xlink:href="#DejaVuSans-30" x="127.246094"/>
      </g>
     </g>
    </g>
    <g id="xtick_4">
     <g id="line2d_4">
      <g>
       <use xlink:href="#mceb768c3f0" x="362.145571" y="303.64" style="stroke: #000000; stroke-width: 0.8"/>
      </g>
     </g>
     <g id="text_4">
      <!-- 200 -->
      <g transform="translate(352.601821 318.238437)scale(0.1 -0.1)">
       <defs>
        <path id="DejaVuSans-32" d="M 1228 531 
L 3431 531 
L 3431 0 
L 469 0 
L 469 531 
Q 828 903 1448 1529 
Q 2069 2156 2228 2338 
Q 2531 2678 2651 2914 
Q 2772 3150 2772 3378 
Q 2772 3750 2511 3984 
Q 2250 4219 1831 4219 
Q 1534 4219 1204 4116 
Q 875 4013 500 3803 
L 500 4441 
Q 881 4594 1212 4672 
Q 1544 4750 1819 4750 
Q 2544 4750 2975 4387 
Q 3406 4025 3406 3419 
Q 3406 3131 3298 2873 
Q 3191 2616 2906 2266 
Q 2828 2175 2409 1742 
Q 1991 1309 1228 531 
z
" transform="scale(0.015625)"/>
       </defs>
       <use xlink:href="#DejaVuSans-32"/>
       <use xlink:href="#DejaVuSans-30" x="63.623047"/>
       <use xlink:href="#DejaVuSans-30" x="127.246094"/>
      </g>
     </g>
    </g>
    <g id="xtick_5">
     <g id="line2d_5">
      <g>
       <use xlink:href="#mceb768c3f0" x="438.540727" y="303.64" style="stroke: #000000; stroke-width: 0.8"/>
      </g>
     </g>
     <g id="text_5">
      <!-- 250 -->
      <g transform="translate(428.996977 318.238437)scale(0.1 -0.1)">
       <use xlink:href="#DejaVuSans-32"/>
       <use xlink:href="#DejaVuSans-35" x="63.623047"/>
       <use xlink:href="#DejaVuSans-30" x="127.246094"/>
      </g>
     </g>
    </g>
    <g id="text_6">
     <!-- Unemployment Rate (per 1000 citizens) -->
     <g transform="translate(153.438906 331.916562)scale(0.1 -0.1)">
      <defs>
       <path id="DejaVuSans-55" d="M 556 4666 
L 1191 4666 
L 1191 1831 
Q 1191 1081 1462 751 
Q 1734 422 2344 422 
Q 2950 422 3222 751 
Q 3494 1081 3494 1831 
L 3494 4666 
L 4128 4666 
L 4128 1753 
Q 4128 841 3676 375 
Q 3225 -91 2344 -91 
Q 1459 -91 1007 375 
Q 556 841 556 1753 
L 556 4666 
z
" transform="scale(0.015625)"/>
       <path id="DejaVuSans-6e" d="M 3513 2113 
L 3513 0 
L 2938 0 
L 2938 2094 
Q 2938 2591 2744 2837 
Q 2550 3084 2163 3084 
Q 1697 3084 1428 2787 
Q 1159 2491 1159 1978 
L 1159 0 
L 581 0 
L 581 3500 
L 1159 3500 
L 1159 2956 
Q 1366 3272 1645 3428 
Q 1925 3584 2291 3584 
Q 2894 3584 3203 3211 
Q 3513 2838 3513 2113 
z
" transform="scale(0.015625)"/>
       <path id="DejaVuSans-65" d="M 3597 1894 
L 3597 1613 
L 953 1613 
Q 991 1019 1311 708 
Q 1631 397 2203 397 
Q 2534 397 2845 478 
Q 3156 559 3463 722 
L 3463 178 
Q 3153 47 2828 -22 
Q 2503 -91 2169 -91 
Q 1331 -91 842 396 
Q 353 884 353 1716 
Q 353 2575 817 3079 
Q 1281 3584 2069 3584 
Q 2775 3584 3186 3129 
Q 3597 2675 3597 1894 
z
M 3022 2063 
Q 3016 2534 2758 2815 
Q 2500 3097 2075 3097 
Q 1594 3097 1305 2825 
Q 1016 2553 972 2059 
L 3022 2063 
z
" transform="scale(0.015625)"/>
       <path id="DejaVuSans-6d" d="M 3328 2828 
Q 3544 3216 3844 3400 
Q 4144 3584 4550 3584 
Q 5097 3584 5394 3201 
Q 5691 2819 5691 2113 
L 5691 0 
L 5113 0 
L 5113 2094 
Q 5113 2597 4934 2840 
Q 4756 3084 4391 3084 
Q 3944 3084 3684 2787 
Q 3425 2491 3425 1978 
L 3425 0 
L 2847 0 
L 2847 2094 
Q 2847 2600 2669 2842 
Q 2491 3084 2119 3084 
Q 1678 3084 1418 2786 
Q 1159 2488 1159 1978 
L 1159 0 
L 581 0 
L 581 3500 
L 1159 3500 
L 1159 2956 
Q 1356 3278 1631 3431 
Q 1906 3584 2284 3584 
Q 2666 3584 2933 3390 
Q 3200 3197 3328 2828 
z
" transform="scale(0.015625)"/>
       <path id="DejaVuSans-70" d="M 1159 525 
L 1159 -1331 
L 581 -1331 
L 581 3500 
L 1159 3500 
L 1159 2969 
Q 1341 3281 1617 3432 
Q 1894 3584 2278 3584 
Q 2916 3584 3314 3078 
Q 3713 2572 3713 1747 
Q 3713 922 3314 415 
Q 2916 -91 2278 -91 
Q 1894 -91 1617 61 
Q 1341 213 1159 525 
z
M 3116 1747 
Q 3116 2381 2855 2742 
Q 2594 3103 2138 3103 
Q 1681 3103 1420 2742 
Q 1159 2381 1159 1747 
Q 1159 1113 1420 752 
Q 1681 391 2138 391 
Q 2594 391 2855 752 
Q 3116 1113 3116 1747 
z
" transform="scale(0.015625)"/>
       <path id="DejaVuSans-6c" d="M 603 4863 
L 1178 4863 
L 1178 0 
L 603 0 
L 603 4863 
z
" transform="scale(0.015625)"/>
       <path id="DejaVuSans-6f" d="M 1959 3097 
Q 1497 3097 1228 2736 
Q 959 2375 959 1747 
Q 959 1119 1226 758 
Q 1494 397 1959 397 
Q 2419 397 2687 759 
Q 2956 1122 2956 1747 
Q 2956 2369 2687 2733 
Q 2419 3097 1959 3097 
z
M 1959 3584 
Q 2709 3584 3137 3096 
Q 3566 2609 3566 1747 
Q 3566 888 3137 398 
Q 2709 -91 1959 -91 
Q 1206 -91 779 398 
Q 353 888 353 1747 
Q 353 2609 779 3096 
Q 1206 3584 1959 3584 
z
" transform="scale(0.015625)"/>
       <path id="DejaVuSans-79" d="M 2059 -325 
Q 1816 -950 1584 -1140 
Q 1353 -1331 966 -1331 
L 506 -1331 
L 506 -850 
L 844 -850 
Q 1081 -850 1212 -737 
Q 1344 -625 1503 -206 
L 1606 56 
L 191 3500 
L 800 3500 
L 1894 763 
L 2988 3500 
L 3597 3500 
L 2059 -325 
z
" transform="scale(0.015625)"/>
       <path id="DejaVuSans-74" d="M 1172 4494 
L 1172 3500 
L 2356 3500 
L 2356 3053 
L 1172 3053 
L 1172 1153 
Q 1172 725 1289 603 
Q 1406 481 1766 481 
L 2356 481 
L 2356 0 
L 1766 0 
Q 1100 0 847 248 
Q 594 497 594 1153 
L 594 3053 
L 172 3053 
L 172 3500 
L 594 3500 
L 594 4494 
L 1172 4494 
z
" transform="scale(0.015625)"/>
       <path id="DejaVuSans-20" transform="scale(0.015625)"/>
       <path id="DejaVuSans-52" d="M 2841 2188 
Q 3044 2119 3236 1894 
Q 3428 1669 3622 1275 
L 4263 0 
L 3584 0 
L 2988 1197 
Q 2756 1666 2539 1819 
Q 2322 1972 1947 1972 
L 1259 1972 
L 1259 0 
L 628 0 
L 628 4666 
L 2053 4666 
Q 2853 4666 3247 4331 
Q 3641 3997 3641 3322 
Q 3641 2881 3436 2590 
Q 3231 2300 2841 2188 
z
M 1259 4147 
L 1259 2491 
L 2053 2491 
Q 2509 2491 2742 2702 
Q 2975 2913 2975 3322 
Q 2975 3731 2742 3939 
Q 2509 4147 2053 4147 
L 1259 4147 
z
" transform="scale(0.015625)"/>
       <path id="DejaVuSans-61" d="M 2194 1759 
Q 1497 1759 1228 1600 
Q 959 1441 959 1056 
Q 959 750 1161 570 
Q 1363 391 1709 391 
Q 2188 391 2477 730 
Q 2766 1069 2766 1631 
L 2766 1759 
L 2194 1759 
z
M 3341 1997 
L 3341 0 
L 2766 0 
L 2766 531 
Q 2569 213 2275 61 
Q 1981 -91 1556 -91 
Q 1019 -91 701 211 
Q 384 513 384 1019 
Q 384 1609 779 1909 
Q 1175 2209 1959 2209 
L 2766 2209 
L 2766 2266 
Q 2766 2663 2505 2880 
Q 2244 3097 1772 3097 
Q 1472 3097 1187 3025 
Q 903 2953 641 2809 
L 641 3341 
Q 956 3463 1253 3523 
Q 1550 3584 1831 3584 
Q 2591 3584 2966 3190 
Q 3341 2797 3341 1997 
z
" transform="scale(0.015625)"/>
       <path id="DejaVuSans-28" d="M 1984 4856 
Q 1566 4138 1362 3434 
Q 1159 2731 1159 2009 
Q 1159 1288 1364 580 
Q 1569 -128 1984 -844 
L 1484 -844 
Q 1016 -109 783 600 
Q 550 1309 550 2009 
Q 550 2706 781 3412 
Q 1013 4119 1484 4856 
L 1984 4856 
z
" transform="scale(0.015625)"/>
       <path id="DejaVuSans-72" d="M 2631 2963 
Q 2534 3019 2420 3045 
Q 2306 3072 2169 3072 
Q 1681 3072 1420 2755 
Q 1159 2438 1159 1844 
L 1159 0 
L 581 0 
L 581 3500 
L 1159 3500 
L 1159 2956 
Q 1341 3275 1631 3429 
Q 1922 3584 2338 3584 
Q 2397 3584 2469 3576 
Q 2541 3569 2628 3553 
L 2631 2963 
z
" transform="scale(0.015625)"/>
       <path id="DejaVuSans-63" d="M 3122 3366 
L 3122 2828 
Q 2878 2963 2633 3030 
Q 2388 3097 2138 3097 
Q 1578 3097 1268 2742 
Q 959 2388 959 1747 
Q 959 1106 1268 751 
Q 1578 397 2138 397 
Q 2388 397 2633 464 
Q 2878 531 3122 666 
L 3122 134 
Q 2881 22 2623 -34 
Q 2366 -91 2075 -91 
Q 1284 -91 818 406 
Q 353 903 353 1747 
Q 353 2603 823 3093 
Q 1294 3584 2113 3584 
Q 2378 3584 2631 3529 
Q 2884 3475 3122 3366 
z
" transform="scale(0.015625)"/>
       <path id="DejaVuSans-69" d="M 603 3500 
L 1178 3500 
L 1178 0 
L 603 0 
L 603 3500 
z
M 603 4863 
L 1178 4863 
L 1178 4134 
L 603 4134 
L 603 4863 
z
" transform="scale(0.015625)"/>
       <path id="DejaVuSans-7a" d="M 353 3500 
L 3084 3500 
L 3084 2975 
L 922 459 
L 3084 459 
L 3084 0 
L 275 0 
L 275 525 
L 2438 3041 
L 353 3041 
L 353 3500 
z
" transform="scale(0.015625)"/>
       <path id="DejaVuSans-73" d="M 2834 3397 
L 2834 2853 
Q 2591 2978 2328 3040 
Q 2066 3103 1784 3103 
Q 1356 3103 1142 2972 
Q 928 2841 928 2578 
Q 928 2378 1081 2264 
Q 1234 2150 1697 2047 
L 1894 2003 
Q 2506 1872 2764 1633 
Q 3022 1394 3022 966 
Q 3022 478 2636 193 
Q 2250 -91 1575 -91 
Q 1294 -91 989 -36 
Q 684 19 347 128 
L 347 722 
Q 666 556 975 473 
Q 1284 391 1588 391 
Q 1994 391 2212 530 
Q 2431 669 2431 922 
Q 2431 1156 2273 1281 
Q 2116 1406 1581 1522 
L 1381 1569 
Q 847 1681 609 1914 
Q 372 2147 372 2553 
Q 372 3047 722 3315 
Q 1072 3584 1716 3584 
Q 2034 3584 2315 3537 
Q 2597 3491 2834 3397 
z
" transform="scale(0.015625)"/>
       <path id="DejaVuSans-29" d="M 513 4856 
L 1013 4856 
Q 1481 4119 1714 3412 
Q 1947 2706 1947 2009 
Q 1947 1309 1714 600 
Q 1481 -109 1013 -844 
L 513 -844 
Q 928 -128 1133 580 
Q 1338 1288 1338 2009 
Q 1338 2731 1133 3434 
Q 928 4138 513 4856 
z
" transform="scale(0.015625)"/>
      </defs>
      <use xlink:href="#DejaVuSans-55"/>
      <use xlink:href="#DejaVuSans-6e" x="73.193359"/>
      <use xlink:href="#DejaVuSans-65" x="136.572266"/>
      <use xlink:href="#DejaVuSans-6d" x="198.095703"/>
      <use xlink:href="#DejaVuSans-70" x="295.507812"/>
      <use xlink:href="#DejaVuSans-6c" x="358.984375"/>
      <use xlink:href="#DejaVuSans-6f" x="386.767578"/>
      <use xlink:href="#DejaVuSans-79" x="447.949219"/>
      <use xlink:href="#DejaVuSans-6d" x="507.128906"/>
      <use xlink:href="#DejaVuSans-65" x="604.541016"/>
      <use xlink:href="#DejaVuSans-6e" x="666.064453"/>
      <use xlink:href="#DejaVuSans-74" x="729.443359"/>
      <use xlink:href="#DejaVuSans-20" x="768.652344"/>
      <use xlink:href="#DejaVuSans-52" x="800.439453"/>
      <use xlink:href="#DejaVuSans-61" x="867.671875"/>
      <use xlink:href="#DejaVuSans-74" x="928.951172"/>
      <use xlink:href="#DejaVuSans-65" x="968.160156"/>
      <use xlink:href="#DejaVuSans-20" x="1029.683594"/>
      <use xlink:href="#DejaVuSans-28" x="1061.470703"/>
      <use xlink:href="#DejaVuSans-70" x="1100.484375"/>
      <use xlink:href="#DejaVuSans-65" x="1163.960938"/>
      <use xlink:href="#DejaVuSans-72" x="1225.484375"/>
      <use xlink:href="#DejaVuSans-20" x="1266.597656"/>
      <use xlink:href="#DejaVuSans-31" x="1298.384766"/>
      <use xlink:href="#DejaVuSans-30" x="1362.007812"/>
      <use xlink:href="#DejaVuSans-30" x="1425.630859"/>
      <use xlink:href="#DejaVuSans-30" x="1489.253906"/>
      <use xlink:href="#DejaVuSans-20" x="1552.876953"/>
      <use xlink:href="#DejaVuSans-63" x="1584.664062"/>
      <use xlink:href="#DejaVuSans-69" x="1639.644531"/>
      <use xlink:href="#DejaVuSans-74" x="1667.427734"/>
      <use xlink:href="#DejaVuSans-69" x="1706.636719"/>
      <use xlink:href="#DejaVuSans-7a" x="1734.419922"/>
      <use xlink:href="#DejaVuSans-65" x="1786.910156"/>
      <use xlink:href="#DejaVuSans-6e" x="1848.433594"/>
      <use xlink:href="#DejaVuSans-73" x="1911.8125"/>
      <use xlink:href="#DejaVuSans-29" x="1963.912109"/>
     </g>
    </g>
   </g>
   <g id="matplotlib.axis_2">
    <g id="ytick_1">
     <g id="line2d_6">
      <defs>
       <path id="m389d7c1df8" d="M 0 0 
L -3.5 0 
" style="stroke: #000000; stroke-width: 0.8"/>
      </defs>
      <g>
       <use xlink:href="#m389d7c1df8" x="57.17" y="303.64" style="stroke: #000000; stroke-width: 0.8"/>
      </g>
     </g>
     <g id="text_7">
      <!-- 0 -->
      <g transform="translate(43.8075 307.439219)scale(0.1 -0.1)">
       <use xlink:href="#DejaVuSans-30"/>
      </g>
     </g>
    </g>
    <g id="ytick_2">
     <g id="line2d_7">
      <g>
       <use xlink:href="#m389d7c1df8" x="57.17" y="243.876735" style="stroke: #000000; stroke-width: 0.8"/>
      </g>
     </g>
     <g id="text_8">
      <!-- 1000 -->
      <g transform="translate(24.72 247.675953)scale(0.1 -0.1)">
       <use xlink:href="#DejaVuSans-31"/>
       <use xlink:href="#DejaVuSans-30" x="63.623047"/>
       <use xlink:href="#DejaVuSans-30" x="127.246094"/>
       <use xlink:href="#DejaVuSans-30" x="190.869141"/>
      </g>
     </g>
    </g>
    <g id="ytick_3">
     <g id="line2d_8">
      <g>
       <use xlink:href="#m389d7c1df8" x="57.17" y="184.113469" style="stroke: #000000; stroke-width: 0.8"/>
      </g>
     </g>
     <g id="text_9">
      <!-- 2000 -->
      <g transform="translate(24.72 187.912688)scale(0.1 -0.1)">
       <use xlink:href="#DejaVuSans-32"/>
       <use xlink:href="#DejaVuSans-30" x="63.623047"/>
       <use xlink:href="#DejaVuSans-30" x="127.246094"/>
       <use xlink:href="#DejaVuSans-30" x="190.869141"/>
      </g>
     </g>
    </g>
    <g id="ytick_4">
     <g id="line2d_9">
      <g>
       <use xlink:href="#m389d7c1df8" x="57.17" y="124.350204" style="stroke: #000000; stroke-width: 0.8"/>
      </g>
     </g>
     <g id="text_10">
      <!-- 3000 -->
      <g transform="translate(24.72 128.149423)scale(0.1 -0.1)">
       <defs>
        <path id="DejaVuSans-33" d="M 2597 2516 
Q 3050 2419 3304 2112 
Q 3559 1806 3559 1356 
Q 3559 666 3084 287 
Q 2609 -91 1734 -91 
Q 1441 -91 1130 -33 
Q 819 25 488 141 
L 488 750 
Q 750 597 1062 519 
Q 1375 441 1716 441 
Q 2309 441 2620 675 
Q 2931 909 2931 1356 
Q 2931 1769 2642 2001 
Q 2353 2234 1838 2234 
L 1294 2234 
L 1294 2753 
L 1863 2753 
Q 2328 2753 2575 2939 
Q 2822 3125 2822 3475 
Q 2822 3834 2567 4026 
Q 2313 4219 1838 4219 
Q 1578 4219 1281 4162 
Q 984 4106 628 3988 
L 628 4550 
Q 988 4650 1302 4700 
Q 1616 4750 1894 4750 
Q 2613 4750 3031 4423 
Q 3450 4097 3450 3541 
Q 3450 3153 3228 2886 
Q 3006 2619 2597 2516 
z
" transform="scale(0.015625)"/>
       </defs>
       <use xlink:href="#DejaVuSans-33"/>
       <use xlink:href="#DejaVuSans-30" x="63.623047"/>
       <use xlink:href="#DejaVuSans-30" x="127.246094"/>
       <use xlink:href="#DejaVuSans-30" x="190.869141"/>
      </g>
     </g>
    </g>
    <g id="ytick_5">
     <g id="line2d_10">
      <g>
       <use xlink:href="#m389d7c1df8" x="57.17" y="64.586939" style="stroke: #000000; stroke-width: 0.8"/>
      </g>
     </g>
     <g id="text_11">
      <!-- 4000 -->
      <g transform="translate(24.72 68.386158)scale(0.1 -0.1)">
       <defs>
        <path id="DejaVuSans-34" d="M 2419 4116 
L 825 1625 
L 2419 1625 
L 2419 4116 
z
M 2253 4666 
L 3047 4666 
L 3047 1625 
L 3713 1625 
L 3713 1100 
L 3047 1100 
L 3047 0 
L 2419 0 
L 2419 1100 
L 313 1100 
L 313 1709 
L 2253 4666 
z
" transform="scale(0.015625)"/>
       </defs>
       <use xlink:href="#DejaVuSans-34"/>
       <use xlink:href="#DejaVuSans-30" x="63.623047"/>
       <use xlink:href="#DejaVuSans-30" x="127.246094"/>
       <use xlink:href="#DejaVuSans-30" x="190.869141"/>
      </g>
     </g>
    </g>
    <g id="text_12">
     <!-- Number of Thefts -->
     <g transform="translate(18.640313 200.840313)rotate(-90)scale(0.1 -0.1)">
      <defs>
       <path id="DejaVuSans-4e" d="M 628 4666 
L 1478 4666 
L 3547 763 
L 3547 4666 
L 4159 4666 
L 4159 0 
L 3309 0 
L 1241 3903 
L 1241 0 
L 628 0 
L 628 4666 
z
" transform="scale(0.015625)"/>
       <path id="DejaVuSans-75" d="M 544 1381 
L 544 3500 
L 1119 3500 
L 1119 1403 
Q 1119 906 1312 657 
Q 1506 409 1894 409 
Q 2359 409 2629 706 
Q 2900 1003 2900 1516 
L 2900 3500 
L 3475 3500 
L 3475 0 
L 2900 0 
L 2900 538 
Q 2691 219 2414 64 
Q 2138 -91 1772 -91 
Q 1169 -91 856 284 
Q 544 659 544 1381 
z
M 1991 3584 
L 1991 3584 
z
" transform="scale(0.015625)"/>
       <path id="DejaVuSans-62" d="M 3116 1747 
Q 3116 2381 2855 2742 
Q 2594 3103 2138 3103 
Q 1681 3103 1420 2742 
Q 1159 2381 1159 1747 
Q 1159 1113 1420 752 
Q 1681 391 2138 391 
Q 2594 391 2855 752 
Q 3116 1113 3116 1747 
z
M 1159 2969 
Q 1341 3281 1617 3432 
Q 1894 3584 2278 3584 
Q 2916 3584 3314 3078 
Q 3713 2572 3713 1747 
Q 3713 922 3314 415 
Q 2916 -91 2278 -91 
Q 1894 -91 1617 61 
Q 1341 213 1159 525 
L 1159 0 
L 581 0 
L 581 4863 
L 1159 4863 
L 1159 2969 
z
" transform="scale(0.015625)"/>
       <path id="DejaVuSans-66" d="M 2375 4863 
L 2375 4384 
L 1825 4384 
Q 1516 4384 1395 4259 
Q 1275 4134 1275 3809 
L 1275 3500 
L 2222 3500 
L 2222 3053 
L 1275 3053 
L 1275 0 
L 697 0 
L 697 3053 
L 147 3053 
L 147 3500 
L 697 3500 
L 697 3744 
Q 697 4328 969 4595 
Q 1241 4863 1831 4863 
L 2375 4863 
z
" transform="scale(0.015625)"/>
       <path id="DejaVuSans-54" d="M -19 4666 
L 3928 4666 
L 3928 4134 
L 2272 4134 
L 2272 0 
L 1638 0 
L 1638 4134 
L -19 4134 
L -19 4666 
z
" transform="scale(0.015625)"/>
       <path id="DejaVuSans-68" d="M 3513 2113 
L 3513 0 
L 2938 0 
L 2938 2094 
Q 2938 2591 2744 2837 
Q 2550 3084 2163 3084 
Q 1697 3084 1428 2787 
Q 1159 2491 1159 1978 
L 1159 0 
L 581 0 
L 581 4863 
L 1159 4863 
L 1159 2956 
Q 1366 3272 1645 3428 
Q 1925 3584 2291 3584 
Q 2894 3584 3203 3211 
Q 3513 2838 3513 2113 
z
" transform="scale(0.015625)"/>
      </defs>
      <use xlink:href="#DejaVuSans-4e"/>
      <use xlink:href="#DejaVuSans-75" x="74.804688"/>
      <use xlink:href="#DejaVuSans-6d" x="138.183594"/>
      <use xlink:href="#DejaVuSans-62" x="235.595703"/>
      <use xlink:href="#DejaVuSans-65" x="299.072266"/>
      <use xlink:href="#DejaVuSans-72" x="360.595703"/>
      <use xlink:href="#DejaVuSans-20" x="401.708984"/>
      <use xlink:href="#DejaVuSans-6f" x="433.496094"/>
      <use xlink:href="#DejaVuSans-66" x="494.677734"/>
      <use xlink:href="#DejaVuSans-20" x="529.882812"/>
      <use xlink:href="#DejaVuSans-54" x="561.669922"/>
      <use xlink:href="#DejaVuSans-68" x="622.753906"/>
      <use xlink:href="#DejaVuSans-65" x="686.132812"/>
      <use xlink:href="#DejaVuSans-66" x="747.65625"/>
      <use xlink:href="#DejaVuSans-74" x="781.111328"/>
      <use xlink:href="#DejaVuSans-73" x="820.320312"/>
     </g>
    </g>
   </g>
   <g id="line2d_11">
    <path d="M 57.17 279.184237 
L 65.186939 279.283374 
L 73.203878 279.382511 
L 81.220816 279.481647 
L 89.237755 279.580784 
L 97.254694 279.67992 
L 105.271633 279.779057 
L 113.288571 279.878193 
L 121.30551 279.97733 
L 129.322449 280.076466 
L 137.339388 280.175603 
L 145.356327 280.274739 
L 153.373265 280.373876 
L 161.390204 280.473012 
L 169.407143 280.572149 
L 177.424082 280.671285 
L 185.44102 280.770422 
L 193.457959 280.869558 
L 201.474898 280.968695 
L 209.491837 281.067831 
L 217.508776 281.166968 
L 225.525714 281.266104 
L 233.542653 281.365241 
L 241.559592 281.464377 
L 249.576531 281.563514 
L 257.593469 281.66265 
L 265.610408 281.761787 
L 273.627347 281.860923 
L 281.644286 281.96006 
L 289.661224 282.059196 
L 297.678163 282.158333 
L 305.695102 282.257469 
L 313.712041 282.356606 
L 321.72898 282.455742 
L 329.745918 282.554879 
L 337.762857 282.654015 
L 345.779796 282.753152 
L 353.796735 282.852288 
L 361.813673 282.951425 
L 369.830612 283.050561 
L 377.847551 283.149698 
L 385.86449 283.248834 
L 393.881429 283.347971 
L 401.898367 283.447107 
L 409.915306 283.546244 
L 417.932245 283.64538 
L 425.949184 283.744517 
L 433.966122 283.843653 
L 441.983061 283.94279 
L 450 284.041926 
" clip-path="url(#p23442dff36)" style="fill: none; stroke: #d70000; stroke-width: 1.5; stroke-linecap: square"/>
   </g>
   <g id="line2d_12">
    <path d="M 57.17 240.956363 
L 65.186939 241.081111 
L 73.203878 241.205859 
L 81.220816 241.330607 
L 89.237755 241.455355 
L 97.254694 241.580103 
L 105.271633 241.704851 
L 113.288571 241.829599 
L 121.30551 241.954347 
L 129.322449 242.079095 
L 137.339388 242.203843 
L 145.356327 242.328591 
L 153.373265 242.453339 
L 161.390204 242.578087 
L 169.407143 242.702835 
L 177.424082 242.827583 
L 185.44102 242.952331 
L 193.457959 243.077079 
L 201.474898 243.201827 
L 209.491837 243.326575 
L 217.508776 243.451323 
L 225.525714 243.576071 
L 233.542653 243.70082 
L 241.559592 243.825568 
L 249.576531 243.950316 
L 257.593469 244.075064 
L 265.610408 244.199812 
L 273.627347 244.32456 
L 281.644286 244.449308 
L 289.661224 244.574056 
L 297.678163 244.698804 
L 305.695102 244.823552 
L 313.712041 244.9483 
L 321.72898 245.073048 
L 329.745918 245.197796 
L 337.762857 245.322544 
L 345.779796 245.447292 
L 353.796735 245.57204 
L 361.813673 245.696788 
L 369.830612 245.821536 
L 377.847551 245.946284 
L 385.86449 246.071032 
L 393.881429 246.19578 
L 401.898367 246.320528 
L 409.915306 246.445276 
L 417.932245 246.570024 
L 425.949184 246.694772 
L 433.966122 246.81952 
L 441.983061 246.944268 
L 450 247.069017 
" clip-path="url(#p23442dff36)" style="fill: none; stroke: #8c3cff; stroke-width: 1.5; stroke-linecap: square"/>
   </g>
   <g id="line2d_13">
    <path d="M 57.17 288.450619 
L 65.186939 288.47871 
L 73.203878 288.506801 
L 81.220816 288.534892 
L 89.237755 288.562983 
L 97.254694 288.591074 
L 105.271633 288.619165 
L 113.288571 288.647256 
L 121.30551 288.675346 
L 129.322449 288.703437 
L 137.339388 288.731528 
L 145.356327 288.759619 
L 153.373265 288.78771 
L 161.390204 288.815801 
L 169.407143 288.843892 
L 177.424082 288.871983 
L 185.44102 288.900074 
L 193.457959 288.928165 
L 201.474898 288.956256 
L 209.491837 288.984346 
L 217.508776 289.012437 
L 225.525714 289.040528 
L 233.542653 289.068619 
L 241.559592 289.09671 
L 249.576531 289.124801 
L 257.593469 289.152892 
L 265.610408 289.180983 
L 273.627347 289.209074 
L 281.644286 289.237165 
L 289.661224 289.265256 
L 297.678163 289.293346 
L 305.695102 289.321437 
L 313.712041 289.349528 
L 321.72898 289.377619 
L 329.745918 289.40571 
L 337.762857 289.433801 
L 345.779796 289.461892 
L 353.796735 289.489983 
L 361.813673 289.518074 
L 369.830612 289.546165 
L 377.847551 289.574256 
L 385.86449 289.602346 
L 393.881429 289.630437 
L 401.898367 289.658528 
L 409.915306 289.686619 
L 417.932245 289.71471 
L 425.949184 289.742801 
L 433.966122 289.770892 
L 441.983061 289.798983 
L 450 289.827074 
" clip-path="url(#p23442dff36)" style="fill: none; stroke: #028800; stroke-width: 1.5; stroke-linecap: square"/>
   </g>
   <g id="line2d_14">
    <path d="M 57.17 280.262419 
L 65.186939 279.664227 
L 73.203878 279.066035 
L 81.220816 278.467843 
L 89.237755 277.86965 
L 97.254694 277.271458 
L 105.271633 276.673266 
L 113.288571 276.075074 
L 121.30551 275.476882 
L 129.322449 274.87869 
L 137.339388 274.280498 
L 145.356327 273.682305 
L 153.373265 273.084113 
L 161.390204 272.485921 
L 169.407143 271.887729 
L 177.424082 271.289537 
L 185.44102 270.691345 
L 193.457959 270.093153 
L 201.474898 269.494961 
L 209.491837 268.896768 
L 217.508776 268.298576 
L 225.525714 267.700384 
L 233.542653 267.102192 
L 241.559592 266.504 
L 249.576531 265.905808 
L 257.593469 265.307616 
L 265.610408 264.709423 
L 273.627347 264.111231 
L 281.644286 263.513039 
L 289.661224 262.914847 
L 297.678163 262.316655 
L 305.695102 261.718463 
L 313.712041 261.120271 
L 321.72898 260.522079 
L 329.745918 259.923886 
L 337.762857 259.325694 
L 345.779796 258.727502 
L 353.796735 258.12931 
L 361.813673 257.531118 
L 369.830612 256.932926 
L 377.847551 256.334734 
L 385.86449 255.736541 
L 393.881429 255.138349 
L 401.898367 254.540157 
L 409.915306 253.941965 
L 417.932245 253.343773 
L 425.949184 252.745581 
L 433.966122 252.147389 
L 441.983061 251.549197 
L 450 250.951004 
" clip-path="url(#p23442dff36)" style="fill: none; stroke: #98ff00; stroke-width: 1.5; stroke-linecap: square"/>
   </g>
   <g id="line2d_15">
    <path d="M 57.17 247.682612 
L 65.186939 246.261699 
L 73.203878 244.840787 
L 81.220816 243.419874 
L 89.237755 241.998962 
L 97.254694 240.578049 
L 105.271633 239.157137 
L 113.288571 237.736224 
L 121.30551 236.315312 
L 129.322449 234.894399 
L 137.339388 233.473487 
L 145.356327 232.052574 
L 153.373265 230.631662 
L 161.390204 229.210749 
L 169.407143 227.789837 
L 177.424082 226.368924 
L 185.44102 224.948012 
L 193.457959 223.527099 
L 201.474898 222.106187 
L 209.491837 220.685274 
L 217.508776 219.264362 
L 225.525714 217.843449 
L 233.542653 216.422537 
L 241.559592 215.001624 
L 249.576531 213.580712 
L 257.593469 212.159799 
L 265.610408 210.738887 
L 273.627347 209.317974 
L 281.644286 207.897062 
L 289.661224 206.476149 
L 297.678163 205.055237 
L 305.695102 203.634324 
L 313.712041 202.213412 
L 321.72898 200.792499 
L 329.745918 199.371587 
L 337.762857 197.950674 
L 345.779796 196.529762 
L 353.796735 195.108849 
L 361.813673 193.687937 
L 369.830612 192.267024 
L 377.847551 190.846112 
L 385.86449 189.425199 
L 393.881429 188.004287 
L 401.898367 186.583374 
L 409.915306 185.162462 
L 417.932245 183.741549 
L 425.949184 182.320637 
L 433.966122 180.899724 
L 441.983061 179.478812 
L 450 178.057899 
" clip-path="url(#p23442dff36)" style="fill: none; stroke: #ff7fd1; stroke-width: 1.5; stroke-linecap: square"/>
   </g>
   <g id="line2d_16">
    <path d="M 57.17 291.740079 
L 65.186939 291.60447 
L 73.203878 291.46886 
L 81.220816 291.333251 
L 89.237755 291.197642 
L 97.254694 291.062033 
L 105.271633 290.926424 
L 113.288571 290.790815 
L 121.30551 290.655206 
L 129.322449 290.519597 
L 137.339388 290.383988 
L 145.356327 290.248379 
L 153.373265 290.11277 
L 161.390204 289.97716 
L 169.407143 289.841551 
L 177.424082 289.705942 
L 185.44102 289.570333 
L 193.457959 289.434724 
L 201.474898 289.299115 
L 209.491837 289.163506 
L 217.508776 289.027897 
L 225.525714 288.892288 
L 233.542653 288.756679 
L 241.559592 288.62107 
L 249.576531 288.48546 
L 257.593469 288.349851 
L 265.610408 288.214242 
L 273.627347 288.078633 
L 281.644286 287.943024 
L 289.661224 287.807415 
L 297.678163 287.671806 
L 305.695102 287.536197 
L 313.712041 287.400588 
L 321.72898 287.264979 
L 329.745918 287.12937 
L 337.762857 286.99376 
L 345.779796 286.858151 
L 353.796735 286.722542 
L 361.813673 286.586933 
L 369.830612 286.451324 
L 377.847551 286.315715 
L 385.86449 286.180106 
L 393.881429 286.044497 
L 401.898367 285.908888 
L 409.915306 285.773279 
L 417.932245 285.63767 
L 425.949184 285.50206 
L 433.966122 285.366451 
L 441.983061 285.230842 
L 450 285.095233 
" clip-path="url(#p23442dff36)" style="fill: none; stroke: #6c004f; stroke-width: 1.5; stroke-linecap: square"/>
   </g>
   <g id="line2d_17">
    <path d="M 57.17 198.156682 
L 65.186939 197.052991 
L 73.203878 195.9493 
L 81.220816 194.845609 
L 89.237755 193.741918 
L 97.254694 192.638227 
L 105.271633 191.534536 
L 113.288571 190.430845 
L 121.30551 189.327154 
L 129.322449 188.223463 
L 137.339388 187.119772 
L 145.356327 186.016081 
L 153.373265 184.91239 
L 161.390204 183.808699 
L 169.407143 182.705008 
L 177.424082 181.601317 
L 185.44102 180.497626 
L 193.457959 179.393935 
L 201.474898 178.290244 
L 209.491837 177.186553 
L 217.508776 176.082862 
L 225.525714 174.979171 
L 233.542653 173.87548 
L 241.559592 172.771789 
L 249.576531 171.668098 
L 257.593469 170.564407 
L 265.610408 169.460716 
L 273.627347 168.357025 
L 281.644286 167.253334 
L 289.661224 166.149643 
L 297.678163 165.045952 
L 305.695102 163.942261 
L 313.712041 162.83857 
L 321.72898 161.734879 
L 329.745918 160.631188 
L 337.762857 159.527497 
L 345.779796 158.423806 
L 353.796735 157.320115 
L 361.813673 156.216424 
L 369.830612 155.112733 
L 377.847551 154.009042 
L 385.86449 152.905351 
L 393.881429 151.80166 
L 401.898367 150.697969 
L 409.915306 149.594278 
L 417.932245 148.490587 
L 425.949184 147.386896 
L 433.966122 146.283205 
L 441.983061 145.179514 
L 450 144.075823 
" clip-path="url(#p23442dff36)" style="fill: none; stroke: #583b00; stroke-width: 1.5; stroke-linecap: square"/>
   </g>
   <g id="line2d_18">
    <path d="M 57.17 300.922698 
L 65.186939 300.456841 
L 73.203878 299.990984 
L 81.220816 299.525127 
L 89.237755 299.05927 
L 97.254694 298.593413 
L 105.271633 298.127556 
L 113.288571 297.661699 
L 121.30551 297.195842 
L 129.322449 296.729985 
L 137.339388 296.264128 
L 145.356327 295.798271 
L 153.373265 295.332414 
L 161.390204 294.866556 
L 169.407143 294.400699 
L 177.424082 293.934842 
L 185.44102 293.468985 
L 193.457959 293.003128 
L 201.474898 292.537271 
L 209.491837 292.071414 
L 217.508776 291.605557 
L 225.525714 291.1397 
L 233.542653 290.673843 
L 241.559592 290.207986 
L 249.576531 289.742129 
L 257.593469 289.276272 
L 265.610408 288.810415 
L 273.627347 288.344557 
L 281.644286 287.8787 
L 289.661224 287.412843 
L 297.678163 286.946986 
L 305.695102 286.481129 
L 313.712041 286.015272 
L 321.72898 285.549415 
L 329.745918 285.083558 
L 337.762857 284.617701 
L 345.779796 284.151844 
L 353.796735 283.685987 
L 361.813673 283.22013 
L 369.830612 282.754273 
L 377.847551 282.288415 
L 385.86449 281.822558 
L 393.881429 281.356701 
L 401.898367 280.890844 
L 409.915306 280.424987 
L 417.932245 279.95913 
L 425.949184 279.493273 
L 433.966122 279.027416 
L 441.983061 278.561559 
L 450 278.095702 
" clip-path="url(#p23442dff36)" style="fill: none; stroke: #005759; stroke-width: 1.5; stroke-linecap: square"/>
   </g>
   <g id="line2d_19">
    <path d="M 57.17 271.186829 
L 65.186939 271.145295 
L 73.203878 271.10376 
L 81.220816 271.062225 
L 89.237755 271.020691 
L 97.254694 270.979156 
L 105.271633 270.937622 
L 113.288571 270.896087 
L 121.30551 270.854552 
L 129.322449 270.813018 
L 137.339388 270.771483 
L 145.356327 270.729949 
L 153.373265 270.688414 
L 161.390204 270.646879 
L 169.407143 270.605345 
L 177.424082 270.56381 
L 185.44102 270.522276 
L 193.457959 270.480741 
L 201.474898 270.439206 
L 209.491837 270.397672 
L 217.508776 270.356137 
L 225.525714 270.314603 
L 233.542653 270.273068 
L 241.559592 270.231533 
L 249.576531 270.189999 
L 257.593469 270.148464 
L 265.610408 270.10693 
L 273.627347 270.065395 
L 281.644286 270.02386 
L 289.661224 269.982326 
L 297.678163 269.940791 
L 305.695102 269.899257 
L 313.712041 269.857722 
L 321.72898 269.816188 
L 329.745918 269.774653 
L 337.762857 269.733118 
L 345.779796 269.691584 
L 353.796735 269.650049 
L 361.813673 269.608515 
L 369.830612 269.56698 
L 377.847551 269.525445 
L 385.86449 269.483911 
L 393.881429 269.442376 
L 401.898367 269.400842 
L 409.915306 269.359307 
L 417.932245 269.317772 
L 425.949184 269.276238 
L 433.966122 269.234703 
L 441.983061 269.193169 
L 450 269.151634 
" clip-path="url(#p23442dff36)" style="fill: none; stroke: #0000dd; stroke-width: 1.5; stroke-linecap: square"/>
   </g>
   <g id="line2d_20">
    <path d="M 57.17 285.340787 
L 65.186939 285.178368 
L 73.203878 285.015949 
L 81.220816 284.85353 
L 89.237755 284.691112 
L 97.254694 284.528693 
L 105.271633 284.366274 
L 113.288571 284.203855 
L 121.30551 284.041436 
L 129.322449 283.879017 
L 137.339388 283.716598 
L 145.356327 283.554179 
L 153.373265 283.391761 
L 161.390204 283.229342 
L 169.407143 283.066923 
L 177.424082 282.904504 
L 185.44102 282.742085 
L 193.457959 282.579666 
L 201.474898 282.417247 
L 209.491837 282.254828 
L 217.508776 282.092409 
L 225.525714 281.929991 
L 233.542653 281.767572 
L 241.559592 281.605153 
L 249.576531 281.442734 
L 257.593469 281.280315 
L 265.610408 281.117896 
L 273.627347 280.955477 
L 281.644286 280.793058 
L 289.661224 280.63064 
L 297.678163 280.468221 
L 305.695102 280.305802 
L 313.712041 280.143383 
L 321.72898 279.980964 
L 329.745918 279.818545 
L 337.762857 279.656126 
L 345.779796 279.493707 
L 353.796735 279.331289 
L 361.813673 279.16887 
L 369.830612 279.006451 
L 377.847551 278.844032 
L 385.86449 278.681613 
L 393.881429 278.519194 
L 401.898367 278.356775 
L 409.915306 278.194356 
L 417.932245 278.031937 
L 425.949184 277.869519 
L 433.966122 277.7071 
L 441.983061 277.544681 
L 450 277.382262 
" clip-path="url(#p23442dff36)" style="fill: none; stroke: #bcb7ff; stroke-width: 1.5; stroke-linecap: square"/>
   </g>
   <g id="line2d_21">
    <path d="M 57.17 263.948276 
L 65.186939 260.300507 
L 73.203878 256.652739 
L 81.220816 253.00497 
L 89.237755 249.357202 
L 97.254694 245.709433 
L 105.271633 242.061665 
L 113.288571 238.413896 
L 121.30551 234.766127 
L 129.322449 231.118359 
L 137.339388 227.47059 
L 145.356327 223.822822 
L 153.373265 220.175053 
L 161.390204 216.527285 
L 169.407143 212.879516 
L 177.424082 209.231747 
L 185.44102 205.583979 
L 193.457959 201.93621 
L 201.474898 198.288442 
L 209.491837 194.640673 
L 217.508776 190.992905 
L 225.525714 187.345136 
L 233.542653 183.697367 
L 241.559592 180.049599 
L 249.576531 176.40183 
L 257.593469 172.754062 
L 265.610408 169.106293 
L 273.627347 165.458525 
L 281.644286 161.810756 
L 289.661224 158.162988 
L 297.678163 154.515219 
L 305.695102 150.86745 
L 313.712041 147.219682 
L 321.72898 143.571913 
L 329.745918 139.924145 
L 337.762857 136.276376 
L 345.779796 132.628608 
L 353.796735 128.980839 
L 361.813673 125.33307 
L 369.830612 121.685302 
L 377.847551 118.037533 
L 385.86449 114.389765 
L 393.881429 110.741996 
L 401.898367 107.094228 
L 409.915306 103.446459 
L 417.932245 99.79869 
L 425.949184 96.150922 
L 433.966122 92.503153 
L 441.983061 88.855385 
L 450 85.207616 
" clip-path="url(#p23442dff36)" style="fill: none; stroke: #95b578; stroke-width: 1.5; stroke-linecap: square"/>
   </g>
   <g id="line2d_22">
    <path d="M 57.17 280.583429 
L 65.186939 280.679282 
L 73.203878 280.775136 
L 81.220816 280.870989 
L 89.237755 280.966843 
L 97.254694 281.062696 
L 105.271633 281.15855 
L 113.288571 281.254404 
L 121.30551 281.350257 
L 129.322449 281.446111 
L 137.339388 281.541964 
L 145.356327 281.637818 
L 153.373265 281.733671 
L 161.390204 281.829525 
L 169.407143 281.925378 
L 177.424082 282.021232 
L 185.44102 282.117085 
L 193.457959 282.212939 
L 201.474898 282.308793 
L 209.491837 282.404646 
L 217.508776 282.5005 
L 225.525714 282.596353 
L 233.542653 282.692207 
L 241.559592 282.78806 
L 249.576531 282.883914 
L 257.593469 282.979767 
L 265.610408 283.075621 
L 273.627347 283.171475 
L 281.644286 283.267328 
L 289.661224 283.363182 
L 297.678163 283.459035 
L 305.695102 283.554889 
L 313.712041 283.650742 
L 321.72898 283.746596 
L 329.745918 283.842449 
L 337.762857 283.938303 
L 345.779796 284.034156 
L 353.796735 284.13001 
L 361.813673 284.225864 
L 369.830612 284.321717 
L 377.847551 284.417571 
L 385.86449 284.513424 
L 393.881429 284.609278 
L 401.898367 284.705131 
L 409.915306 284.800985 
L 417.932245 284.896838 
L 425.949184 284.992692 
L 433.966122 285.088545 
L 441.983061 285.184399 
L 450 285.280253 
" clip-path="url(#p23442dff36)" style="fill: none; stroke: #c004b9; stroke-width: 1.5; stroke-linecap: square"/>
   </g>
   <g id="line2d_23">
    <path d="M 57.17 274.889529 
L 65.186939 274.609692 
L 73.203878 274.329854 
L 81.220816 274.050016 
L 89.237755 273.770179 
L 97.254694 273.490341 
L 105.271633 273.210503 
L 113.288571 272.930666 
L 121.30551 272.650828 
L 129.322449 272.370991 
L 137.339388 272.091153 
L 145.356327 271.811315 
L 153.373265 271.531478 
L 161.390204 271.25164 
L 169.407143 270.971802 
L 177.424082 270.691965 
L 185.44102 270.412127 
L 193.457959 270.132289 
L 201.474898 269.852452 
L 209.491837 269.572614 
L 217.508776 269.292776 
L 225.525714 269.012939 
L 233.542653 268.733101 
L 241.559592 268.453263 
L 249.576531 268.173426 
L 257.593469 267.893588 
L 265.610408 267.61375 
L 273.627347 267.333913 
L 281.644286 267.054075 
L 289.661224 266.774237 
L 297.678163 266.4944 
L 305.695102 266.214562 
L 313.712041 265.934724 
L 321.72898 265.654887 
L 329.745918 265.375049 
L 337.762857 265.095211 
L 345.779796 264.815374 
L 353.796735 264.535536 
L 361.813673 264.255698 
L 369.830612 263.975861 
L 377.847551 263.696023 
L 385.86449 263.416186 
L 393.881429 263.136348 
L 401.898367 262.85651 
L 409.915306 262.576673 
L 417.932245 262.296835 
L 425.949184 262.016997 
L 433.966122 261.73716 
L 441.983061 261.457322 
L 450 261.177484 
" clip-path="url(#p23442dff36)" style="fill: none; stroke: #790000; stroke-width: 1.5; stroke-linecap: square"/>
   </g>
   <g id="line2d_24">
    <path d="M 57.17 278.644543 
L 65.186939 278.36888 
L 73.203878 278.093218 
L 81.220816 277.817555 
L 89.237755 277.541893 
L 97.254694 277.266231 
L 105.271633 276.990568 
L 113.288571 276.714906 
L 121.30551 276.439243 
L 129.322449 276.163581 
L 137.339388 275.887918 
L 145.356327 275.612256 
L 153.373265 275.336593 
L 161.390204 275.060931 
L 169.407143 274.785269 
L 177.424082 274.509606 
L 185.44102 274.233944 
L 193.457959 273.958281 
L 201.474898 273.682619 
L 209.491837 273.406956 
L 217.508776 273.131294 
L 225.525714 272.855632 
L 233.542653 272.579969 
L 241.559592 272.304307 
L 249.576531 272.028644 
L 257.593469 271.752982 
L 265.610408 271.477319 
L 273.627347 271.201657 
L 281.644286 270.925994 
L 289.661224 270.650332 
L 297.678163 270.37467 
L 305.695102 270.099007 
L 313.712041 269.823345 
L 321.72898 269.547682 
L 329.745918 269.27202 
L 337.762857 268.996357 
L 345.779796 268.720695 
L 353.796735 268.445032 
L 361.813673 268.16937 
L 369.830612 267.893708 
L 377.847551 267.618045 
L 385.86449 267.342383 
L 393.881429 267.06672 
L 401.898367 266.791058 
L 409.915306 266.515395 
L 417.932245 266.239733 
L 425.949184 265.964071 
L 433.966122 265.688408 
L 441.983061 265.412746 
L 450 265.137083 
" clip-path="url(#p23442dff36)" style="fill: none; stroke: #0774d8; stroke-width: 1.5; stroke-linecap: square"/>
   </g>
   <g id="line2d_25">
    <path d="M 57.17 243.172347 
L 65.186939 242.186256 
L 73.203878 241.200165 
L 81.220816 240.214073 
L 89.237755 239.227982 
L 97.254694 238.241891 
L 105.271633 237.2558 
L 113.288571 236.269708 
L 121.30551 235.283617 
L 129.322449 234.297526 
L 137.339388 233.311435 
L 145.356327 232.325343 
L 153.373265 231.339252 
L 161.390204 230.353161 
L 169.407143 229.36707 
L 177.424082 228.380978 
L 185.44102 227.394887 
L 193.457959 226.408796 
L 201.474898 225.422705 
L 209.491837 224.436613 
L 217.508776 223.450522 
L 225.525714 222.464431 
L 233.542653 221.478339 
L 241.559592 220.492248 
L 249.576531 219.506157 
L 257.593469 218.520066 
L 265.610408 217.533974 
L 273.627347 216.547883 
L 281.644286 215.561792 
L 289.661224 214.575701 
L 297.678163 213.589609 
L 305.695102 212.603518 
L 313.712041 211.617427 
L 321.72898 210.631336 
L 329.745918 209.645244 
L 337.762857 208.659153 
L 345.779796 207.673062 
L 353.796735 206.686971 
L 361.813673 205.700879 
L 369.830612 204.714788 
L 377.847551 203.728697 
L 385.86449 202.742606 
L 393.881429 201.756514 
L 401.898367 200.770423 
L 409.915306 199.784332 
L 417.932245 198.798241 
L 425.949184 197.812149 
L 433.966122 196.826058 
L 441.983061 195.839967 
L 450 194.853876 
" clip-path="url(#p23442dff36)" style="fill: none; stroke: #fef590; stroke-width: 1.5; stroke-linecap: square"/>
   </g>
   <g id="line2d_26">
    <path d="M 57.17 259.178274 
L 65.186939 258.862091 
L 73.203878 258.545907 
L 81.220816 258.229723 
L 89.237755 257.91354 
L 97.254694 257.597356 
L 105.271633 257.281172 
L 113.288571 256.964989 
L 121.30551 256.648805 
L 129.322449 256.332621 
L 137.339388 256.016438 
L 145.356327 255.700254 
L 153.373265 255.38407 
L 161.390204 255.067886 
L 169.407143 254.751703 
L 177.424082 254.435519 
L 185.44102 254.119335 
L 193.457959 253.803152 
L 201.474898 253.486968 
L 209.491837 253.170784 
L 217.508776 252.854601 
L 225.525714 252.538417 
L 233.542653 252.222233 
L 241.559592 251.906049 
L 249.576531 251.589866 
L 257.593469 251.273682 
L 265.610408 250.957498 
L 273.627347 250.641315 
L 281.644286 250.325131 
L 289.661224 250.008947 
L 297.678163 249.692764 
L 305.695102 249.37658 
L 313.712041 249.060396 
L 321.72898 248.744212 
L 329.745918 248.428029 
L 337.762857 248.111845 
L 345.779796 247.795661 
L 353.796735 247.479478 
L 361.813673 247.163294 
L 369.830612 246.84711 
L 377.847551 246.530927 
L 385.86449 246.214743 
L 393.881429 245.898559 
L 401.898367 245.582375 
L 409.915306 245.266192 
L 417.932245 244.950008 
L 425.949184 244.633824 
L 433.966122 244.317641 
L 441.983061 244.001457 
L 450 243.685273 
" clip-path="url(#p23442dff36)" style="fill: none; stroke: #004b00; stroke-width: 1.5; stroke-linecap: square"/>
   </g>
   <g id="line2d_27">
    <path d="M 57.17 269.268357 
L 65.186939 269.353 
L 73.203878 269.437644 
L 81.220816 269.522288 
L 89.237755 269.606931 
L 97.254694 269.691575 
L 105.271633 269.776219 
L 113.288571 269.860862 
L 121.30551 269.945506 
L 129.322449 270.03015 
L 137.339388 270.114793 
L 145.356327 270.199437 
L 153.373265 270.284081 
L 161.390204 270.368724 
L 169.407143 270.453368 
L 177.424082 270.538011 
L 185.44102 270.622655 
L 193.457959 270.707299 
L 201.474898 270.791942 
L 209.491837 270.876586 
L 217.508776 270.96123 
L 225.525714 271.045873 
L 233.542653 271.130517 
L 241.559592 271.215161 
L 249.576531 271.299804 
L 257.593469 271.384448 
L 265.610408 271.469092 
L 273.627347 271.553735 
L 281.644286 271.638379 
L 289.661224 271.723023 
L 297.678163 271.807666 
L 305.695102 271.89231 
L 313.712041 271.976953 
L 321.72898 272.061597 
L 329.745918 272.146241 
L 337.762857 272.230884 
L 345.779796 272.315528 
L 353.796735 272.400172 
L 361.813673 272.484815 
L 369.830612 272.569459 
L 377.847551 272.654103 
L 385.86449 272.738746 
L 393.881429 272.82339 
L 401.898367 272.908034 
L 409.915306 272.992677 
L 417.932245 273.077321 
L 425.949184 273.161964 
L 433.966122 273.246608 
L 441.983061 273.331252 
L 450 273.415895 
" clip-path="url(#p23442dff36)" style="fill: none; stroke: #8f7a00; stroke-width: 1.5; stroke-linecap: square"/>
   </g>
   <g id="line2d_28">
    <path d="M 57.17 289.874481 
L 65.186939 289.936946 
L 73.203878 289.999411 
L 81.220816 290.061876 
L 89.237755 290.124341 
L 97.254694 290.186806 
L 105.271633 290.249271 
L 113.288571 290.311736 
L 121.30551 290.374201 
L 129.322449 290.436666 
L 137.339388 290.499131 
L 145.356327 290.561596 
L 153.373265 290.624061 
L 161.390204 290.686526 
L 169.407143 290.748991 
L 177.424082 290.811456 
L 185.44102 290.873921 
L 193.457959 290.936386 
L 201.474898 290.998851 
L 209.491837 291.061316 
L 217.508776 291.123781 
L 225.525714 291.186246 
L 233.542653 291.248711 
L 241.559592 291.311176 
L 249.576531 291.373641 
L 257.593469 291.436106 
L 265.610408 291.498571 
L 273.627347 291.561036 
L 281.644286 291.623501 
L 289.661224 291.685966 
L 297.678163 291.748431 
L 305.695102 291.810896 
L 313.712041 291.873361 
L 321.72898 291.935826 
L 329.745918 291.998291 
L 337.762857 292.060756 
L 345.779796 292.123221 
L 353.796735 292.185686 
L 361.813673 292.248151 
L 369.830612 292.310616 
L 377.847551 292.373081 
L 385.86449 292.435546 
L 393.881429 292.498011 
L 401.898367 292.560476 
L 409.915306 292.622941 
L 417.932245 292.685406 
L 425.949184 292.747871 
L 433.966122 292.810336 
L 441.983061 292.872801 
L 450 292.935266 
" clip-path="url(#p23442dff36)" style="fill: none; stroke: #ff7266; stroke-width: 1.5; stroke-linecap: square"/>
   </g>
   <g id="line2d_29">
    <path d="M 57.17 153.159544 
L 65.186939 152.869214 
L 73.203878 152.578884 
L 81.220816 152.288553 
L 89.237755 151.998223 
L 97.254694 151.707893 
L 105.271633 151.417562 
L 113.288571 151.127232 
L 121.30551 150.836902 
L 129.322449 150.546571 
L 137.339388 150.256241 
L 145.356327 149.965911 
L 153.373265 149.675581 
L 161.390204 149.38525 
L 169.407143 149.09492 
L 177.424082 148.80459 
L 185.44102 148.514259 
L 193.457959 148.223929 
L 201.474898 147.933599 
L 209.491837 147.643268 
L 217.508776 147.352938 
L 225.525714 147.062608 
L 233.542653 146.772277 
L 241.559592 146.481947 
L 249.576531 146.191617 
L 257.593469 145.901286 
L 265.610408 145.610956 
L 273.627347 145.320626 
L 281.644286 145.030296 
L 289.661224 144.739965 
L 297.678163 144.449635 
L 305.695102 144.159305 
L 313.712041 143.868974 
L 321.72898 143.578644 
L 329.745918 143.288314 
L 337.762857 142.997983 
L 345.779796 142.707653 
L 353.796735 142.417323 
L 361.813673 142.126992 
L 369.830612 141.836662 
L 377.847551 141.546332 
L 385.86449 141.256002 
L 393.881429 140.965671 
L 401.898367 140.675341 
L 409.915306 140.385011 
L 417.932245 140.09468 
L 425.949184 139.80435 
L 433.966122 139.51402 
L 441.983061 139.223689 
L 450 138.933359 
" clip-path="url(#p23442dff36)" style="fill: none; stroke: #eeb9b9; stroke-width: 1.5; stroke-linecap: square"/>
   </g>
   <g id="line2d_30">
    <path d="M 57.17 289.026042 
L 65.186939 288.904897 
L 73.203878 288.783752 
L 81.220816 288.662607 
L 89.237755 288.541462 
L 97.254694 288.420317 
L 105.271633 288.299172 
L 113.288571 288.178027 
L 121.30551 288.056882 
L 129.322449 287.935737 
L 137.339388 287.814592 
L 145.356327 287.693447 
L 153.373265 287.572302 
L 161.390204 287.451157 
L 169.407143 287.330012 
L 177.424082 287.208868 
L 185.44102 287.087723 
L 193.457959 286.966578 
L 201.474898 286.845433 
L 209.491837 286.724288 
L 217.508776 286.603143 
L 225.525714 286.481998 
L 233.542653 286.360853 
L 241.559592 286.239708 
L 249.576531 286.118563 
L 257.593469 285.997418 
L 265.610408 285.876273 
L 273.627347 285.755128 
L 281.644286 285.633983 
L 289.661224 285.512838 
L 297.678163 285.391694 
L 305.695102 285.270549 
L 313.712041 285.149404 
L 321.72898 285.028259 
L 329.745918 284.907114 
L 337.762857 284.785969 
L 345.779796 284.664824 
L 353.796735 284.543679 
L 361.813673 284.422534 
L 369.830612 284.301389 
L 377.847551 284.180244 
L 385.86449 284.059099 
L 393.881429 283.937954 
L 401.898367 283.816809 
L 409.915306 283.695664 
L 417.932245 283.57452 
L 425.949184 283.453375 
L 433.966122 283.33223 
L 441.983061 283.211085 
L 450 283.08994 
" clip-path="url(#p23442dff36)" style="fill: none; stroke: #5e7e66; stroke-width: 1.5; stroke-linecap: square"/>
   </g>
   <g id="line2d_31">
    <path d="M 57.17 282.903484 
L 65.186939 282.758403 
L 73.203878 282.613322 
L 81.220816 282.46824 
L 89.237755 282.323159 
L 97.254694 282.178078 
L 105.271633 282.032997 
L 113.288571 281.887916 
L 121.30551 281.742835 
L 129.322449 281.597754 
L 137.339388 281.452672 
L 145.356327 281.307591 
L 153.373265 281.16251 
L 161.390204 281.017429 
L 169.407143 280.872348 
L 177.424082 280.727267 
L 185.44102 280.582185 
L 193.457959 280.437104 
L 201.474898 280.292023 
L 209.491837 280.146942 
L 217.508776 280.001861 
L 225.525714 279.85678 
L 233.542653 279.711698 
L 241.559592 279.566617 
L 249.576531 279.421536 
L 257.593469 279.276455 
L 265.610408 279.131374 
L 273.627347 278.986293 
L 281.644286 278.841211 
L 289.661224 278.69613 
L 297.678163 278.551049 
L 305.695102 278.405968 
L 313.712041 278.260887 
L 321.72898 278.115806 
L 329.745918 277.970724 
L 337.762857 277.825643 
L 345.779796 277.680562 
L 353.796735 277.535481 
L 361.813673 277.3904 
L 369.830612 277.245319 
L 377.847551 277.100237 
L 385.86449 276.955156 
L 393.881429 276.810075 
L 401.898367 276.664994 
L 409.915306 276.519913 
L 417.932245 276.374832 
L 425.949184 276.22975 
L 433.966122 276.084669 
L 441.983061 275.939588 
L 450 275.794507 
" clip-path="url(#p23442dff36)" style="fill: none; stroke: #9be4ff; stroke-width: 1.5; stroke-linecap: square"/>
   </g>
   <g id="patch_3">
    <path d="M 57.17 303.64 
L 57.17 10.8 
" style="fill: none; stroke: #000000; stroke-width: 0.8; stroke-linejoin: miter; stroke-linecap: square"/>
   </g>
   <g id="patch_4">
    <path d="M 450 303.64 
L 450 10.8 
" style="fill: none; stroke: #000000; stroke-width: 0.8; stroke-linejoin: miter; stroke-linecap: square"/>
   </g>
   <g id="patch_5">
    <path d="M 57.17 303.64 
L 450 303.64 
" style="fill: none; stroke: #000000; stroke-width: 0.8; stroke-linejoin: miter; stroke-linecap: square"/>
   </g>
   <g id="patch_6">
    <path d="M 57.17 10.8 
L 450 10.8 
" style="fill: none; stroke: #000000; stroke-width: 0.8; stroke-linejoin: miter; stroke-linecap: square"/>
   </g>
   <g id="legend_1">
    <g id="patch_7">
     <path d="M 64.17 180.259375 
L 173.424688 180.259375 
Q 175.424688 180.259375 175.424688 178.259375 
L 175.424688 17.8 
Q 175.424688 15.8 173.424688 15.8 
L 64.17 15.8 
Q 62.17 15.8 62.17 17.8 
L 62.17 178.259375 
Q 62.17 180.259375 64.17 180.259375 
z
" style="fill: #ffffff; opacity: 0.8; stroke: #cccccc; stroke-linejoin: miter"/>
    </g>
    <g id="line2d_32">
     <path d="M 66.17 23.898438 
L 76.17 23.898438 
L 86.17 23.898438 
" style="fill: none; stroke: #d70000; stroke-width: 1.5; stroke-linecap: square"/>
    </g>
    <g id="text_13">
     <!-- AT -->
     <g transform="translate(94.17 27.398438)scale(0.1 -0.1)">
      <defs>
       <path id="DejaVuSans-41" d="M 2188 4044 
L 1331 1722 
L 3047 1722 
L 2188 4044 
z
M 1831 4666 
L 2547 4666 
L 4325 0 
L 3669 0 
L 3244 1197 
L 1141 1197 
L 716 0 
L 50 0 
L 1831 4666 
z
" transform="scale(0.015625)"/>
      </defs>
      <use xlink:href="#DejaVuSans-41"/>
      <use xlink:href="#DejaVuSans-54" x="60.658203"/>
     </g>
    </g>
    <g id="line2d_33">
     <path d="M 66.17 38.576563 
L 76.17 38.576563 
L 86.17 38.576563 
" style="fill: none; stroke: #8c3cff; stroke-width: 1.5; stroke-linecap: square"/>
    </g>
    <g id="text_14">
     <!-- BE -->
     <g transform="translate(94.17 42.076563)scale(0.1 -0.1)">
      <defs>
       <path id="DejaVuSans-42" d="M 1259 2228 
L 1259 519 
L 2272 519 
Q 2781 519 3026 730 
Q 3272 941 3272 1375 
Q 3272 1813 3026 2020 
Q 2781 2228 2272 2228 
L 1259 2228 
z
M 1259 4147 
L 1259 2741 
L 2194 2741 
Q 2656 2741 2882 2914 
Q 3109 3088 3109 3444 
Q 3109 3797 2882 3972 
Q 2656 4147 2194 4147 
L 1259 4147 
z
M 628 4666 
L 2241 4666 
Q 2963 4666 3353 4366 
Q 3744 4066 3744 3513 
Q 3744 3084 3544 2831 
Q 3344 2578 2956 2516 
Q 3422 2416 3680 2098 
Q 3938 1781 3938 1306 
Q 3938 681 3513 340 
Q 3088 0 2303 0 
L 628 0 
L 628 4666 
z
" transform="scale(0.015625)"/>
       <path id="DejaVuSans-45" d="M 628 4666 
L 3578 4666 
L 3578 4134 
L 1259 4134 
L 1259 2753 
L 3481 2753 
L 3481 2222 
L 1259 2222 
L 1259 531 
L 3634 531 
L 3634 0 
L 628 0 
L 628 4666 
z
" transform="scale(0.015625)"/>
      </defs>
      <use xlink:href="#DejaVuSans-42"/>
      <use xlink:href="#DejaVuSans-45" x="68.603516"/>
     </g>
    </g>
    <g id="line2d_34">
     <path d="M 66.17 53.254688 
L 76.17 53.254688 
L 86.17 53.254688 
" style="fill: none; stroke: #028800; stroke-width: 1.5; stroke-linecap: square"/>
    </g>
    <g id="text_15">
     <!-- BG -->
     <g transform="translate(94.17 56.754688)scale(0.1 -0.1)">
      <defs>
       <path id="DejaVuSans-47" d="M 3809 666 
L 3809 1919 
L 2778 1919 
L 2778 2438 
L 4434 2438 
L 4434 434 
Q 4069 175 3628 42 
Q 3188 -91 2688 -91 
Q 1594 -91 976 548 
Q 359 1188 359 2328 
Q 359 3472 976 4111 
Q 1594 4750 2688 4750 
Q 3144 4750 3555 4637 
Q 3966 4525 4313 4306 
L 4313 3634 
Q 3963 3931 3569 4081 
Q 3175 4231 2741 4231 
Q 1884 4231 1454 3753 
Q 1025 3275 1025 2328 
Q 1025 1384 1454 906 
Q 1884 428 2741 428 
Q 3075 428 3337 486 
Q 3600 544 3809 666 
z
" transform="scale(0.015625)"/>
      </defs>
      <use xlink:href="#DejaVuSans-42"/>
      <use xlink:href="#DejaVuSans-47" x="66.853516"/>
     </g>
    </g>
    <g id="line2d_35">
     <path d="M 66.17 67.932813 
L 76.17 67.932813 
L 86.17 67.932813 
" style="fill: none; stroke: #98ff00; stroke-width: 1.5; stroke-linecap: square"/>
    </g>
    <g id="text_16">
     <!-- CZ -->
     <g transform="translate(94.17 71.432813)scale(0.1 -0.1)">
      <defs>
       <path id="DejaVuSans-43" d="M 4122 4306 
L 4122 3641 
Q 3803 3938 3442 4084 
Q 3081 4231 2675 4231 
Q 1875 4231 1450 3742 
Q 1025 3253 1025 2328 
Q 1025 1406 1450 917 
Q 1875 428 2675 428 
Q 3081 428 3442 575 
Q 3803 722 4122 1019 
L 4122 359 
Q 3791 134 3420 21 
Q 3050 -91 2638 -91 
Q 1578 -91 968 557 
Q 359 1206 359 2328 
Q 359 3453 968 4101 
Q 1578 4750 2638 4750 
Q 3056 4750 3426 4639 
Q 3797 4528 4122 4306 
z
" transform="scale(0.015625)"/>
       <path id="DejaVuSans-5a" d="M 359 4666 
L 4025 4666 
L 4025 4184 
L 1075 531 
L 4097 531 
L 4097 0 
L 288 0 
L 288 481 
L 3238 4134 
L 359 4134 
L 359 4666 
z
" transform="scale(0.015625)"/>
      </defs>
      <use xlink:href="#DejaVuSans-43"/>
      <use xlink:href="#DejaVuSans-5a" x="69.824219"/>
     </g>
    </g>
    <g id="line2d_36">
     <path d="M 66.17 82.610938 
L 76.17 82.610938 
L 86.17 82.610938 
" style="fill: none; stroke: #ff7fd1; stroke-width: 1.5; stroke-linecap: square"/>
    </g>
    <g id="text_17">
     <!-- DE -->
     <g transform="translate(94.17 86.110938)scale(0.1 -0.1)">
      <defs>
       <path id="DejaVuSans-44" d="M 1259 4147 
L 1259 519 
L 2022 519 
Q 2988 519 3436 956 
Q 3884 1394 3884 2338 
Q 3884 3275 3436 3711 
Q 2988 4147 2022 4147 
L 1259 4147 
z
M 628 4666 
L 1925 4666 
Q 3281 4666 3915 4102 
Q 4550 3538 4550 2338 
Q 4550 1131 3912 565 
Q 3275 0 1925 0 
L 628 0 
L 628 4666 
z
" transform="scale(0.015625)"/>
      </defs>
      <use xlink:href="#DejaVuSans-44"/>
      <use xlink:href="#DejaVuSans-45" x="77.001953"/>
     </g>
    </g>
    <g id="line2d_37">
     <path d="M 66.17 97.289063 
L 76.17 97.289063 
L 86.17 97.289063 
" style="fill: none; stroke: #6c004f; stroke-width: 1.5; stroke-linecap: square"/>
    </g>
    <g id="text_18">
     <!-- DK -->
     <g transform="translate(94.17 100.789063)scale(0.1 -0.1)">
      <defs>
       <path id="DejaVuSans-4b" d="M 628 4666 
L 1259 4666 
L 1259 2694 
L 3353 4666 
L 4166 4666 
L 1850 2491 
L 4331 0 
L 3500 0 
L 1259 2247 
L 1259 0 
L 628 0 
L 628 4666 
z
" transform="scale(0.015625)"/>
      </defs>
      <use xlink:href="#DejaVuSans-44"/>
      <use xlink:href="#DejaVuSans-4b" x="77.001953"/>
     </g>
    </g>
    <g id="line2d_38">
     <path d="M 66.17 111.967188 
L 76.17 111.967188 
L 86.17 111.967188 
" style="fill: none; stroke: #583b00; stroke-width: 1.5; stroke-linecap: square"/>
    </g>
    <g id="text_19">
     <!-- EL -->
     <g transform="translate(94.17 115.467188)scale(0.1 -0.1)">
      <defs>
       <path id="DejaVuSans-4c" d="M 628 4666 
L 1259 4666 
L 1259 531 
L 3531 531 
L 3531 0 
L 628 0 
L 628 4666 
z
" transform="scale(0.015625)"/>
      </defs>
      <use xlink:href="#DejaVuSans-45"/>
      <use xlink:href="#DejaVuSans-4c" x="63.183594"/>
     </g>
    </g>
    <g id="line2d_39">
     <path d="M 66.17 126.645313 
L 76.17 126.645313 
L 86.17 126.645313 
" style="fill: none; stroke: #005759; stroke-width: 1.5; stroke-linecap: square"/>
    </g>
    <g id="text_20">
     <!-- ES -->
     <g transform="translate(94.17 130.145313)scale(0.1 -0.1)">
      <defs>
       <path id="DejaVuSans-53" d="M 3425 4513 
L 3425 3897 
Q 3066 4069 2747 4153 
Q 2428 4238 2131 4238 
Q 1616 4238 1336 4038 
Q 1056 3838 1056 3469 
Q 1056 3159 1242 3001 
Q 1428 2844 1947 2747 
L 2328 2669 
Q 3034 2534 3370 2195 
Q 3706 1856 3706 1288 
Q 3706 609 3251 259 
Q 2797 -91 1919 -91 
Q 1588 -91 1214 -16 
Q 841 59 441 206 
L 441 856 
Q 825 641 1194 531 
Q 1563 422 1919 422 
Q 2459 422 2753 634 
Q 3047 847 3047 1241 
Q 3047 1584 2836 1778 
Q 2625 1972 2144 2069 
L 1759 2144 
Q 1053 2284 737 2584 
Q 422 2884 422 3419 
Q 422 4038 858 4394 
Q 1294 4750 2059 4750 
Q 2388 4750 2728 4690 
Q 3069 4631 3425 4513 
z
" transform="scale(0.015625)"/>
      </defs>
      <use xlink:href="#DejaVuSans-45"/>
      <use xlink:href="#DejaVuSans-53" x="63.183594"/>
     </g>
    </g>
    <g id="line2d_40">
     <path d="M 66.17 141.323438 
L 76.17 141.323438 
L 86.17 141.323438 
" style="fill: none; stroke: #0000dd; stroke-width: 1.5; stroke-linecap: square"/>
    </g>
    <g id="text_21">
     <!-- FI -->
     <g transform="translate(94.17 144.823438)scale(0.1 -0.1)">
      <defs>
       <path id="DejaVuSans-46" d="M 628 4666 
L 3309 4666 
L 3309 4134 
L 1259 4134 
L 1259 2759 
L 3109 2759 
L 3109 2228 
L 1259 2228 
L 1259 0 
L 628 0 
L 628 4666 
z
" transform="scale(0.015625)"/>
       <path id="DejaVuSans-49" d="M 628 4666 
L 1259 4666 
L 1259 0 
L 628 0 
L 628 4666 
z
" transform="scale(0.015625)"/>
      </defs>
      <use xlink:href="#DejaVuSans-46"/>
      <use xlink:href="#DejaVuSans-49" x="57.519531"/>
     </g>
    </g>
    <g id="line2d_41">
     <path d="M 66.17 156.001563 
L 76.17 156.001563 
L 86.17 156.001563 
" style="fill: none; stroke: #bcb7ff; stroke-width: 1.5; stroke-linecap: square"/>
    </g>
    <g id="text_22">
     <!-- IE -->
     <g transform="translate(94.17 159.501563)scale(0.1 -0.1)">
      <use xlink:href="#DejaVuSans-49"/>
      <use xlink:href="#DejaVuSans-45" x="29.492188"/>
     </g>
    </g>
    <g id="line2d_42">
     <path d="M 66.17 170.679688 
L 76.17 170.679688 
L 86.17 170.679688 
" style="fill: none; stroke: #95b578; stroke-width: 1.5; stroke-linecap: square"/>
    </g>
    <g id="text_23">
     <!-- IT -->
     <g transform="translate(94.17 174.179688)scale(0.1 -0.1)">
      <use xlink:href="#DejaVuSans-49"/>
      <use xlink:href="#DejaVuSans-54" x="29.492188"/>
     </g>
    </g>
    <g id="line2d_43">
     <path d="M 128.604375 23.898438 
L 138.604375 23.898438 
L 148.604375 23.898438 
" style="fill: none; stroke: #c004b9; stroke-width: 1.5; stroke-linecap: square"/>
    </g>
    <g id="text_24">
     <!-- LT -->
     <g transform="translate(156.604375 27.398438)scale(0.1 -0.1)">
      <use xlink:href="#DejaVuSans-4c"/>
      <use xlink:href="#DejaVuSans-54" x="41.962891"/>
     </g>
    </g>
    <g id="line2d_44">
     <path d="M 128.604375 38.576563 
L 138.604375 38.576563 
L 148.604375 38.576563 
" style="fill: none; stroke: #790000; stroke-width: 1.5; stroke-linecap: square"/>
    </g>
    <g id="text_25">
     <!-- LV -->
     <g transform="translate(156.604375 42.076563)scale(0.1 -0.1)">
      <defs>
       <path id="DejaVuSans-56" d="M 1831 0 
L 50 4666 
L 709 4666 
L 2188 738 
L 3669 4666 
L 4325 4666 
L 2547 0 
L 1831 0 
z
" transform="scale(0.015625)"/>
      </defs>
      <use xlink:href="#DejaVuSans-4c"/>
      <use xlink:href="#DejaVuSans-56" x="44.712891"/>
     </g>
    </g>
    <g id="line2d_45">
     <path d="M 128.604375 53.254688 
L 138.604375 53.254688 
L 148.604375 53.254688 
" style="fill: none; stroke: #0774d8; stroke-width: 1.5; stroke-linecap: square"/>
    </g>
    <g id="text_26">
     <!-- MT -->
     <g transform="translate(156.604375 56.754688)scale(0.1 -0.1)">
      <defs>
       <path id="DejaVuSans-4d" d="M 628 4666 
L 1569 4666 
L 2759 1491 
L 3956 4666 
L 4897 4666 
L 4897 0 
L 4281 0 
L 4281 4097 
L 3078 897 
L 2444 897 
L 1241 4097 
L 1241 0 
L 628 0 
L 628 4666 
z
" transform="scale(0.015625)"/>
      </defs>
      <use xlink:href="#DejaVuSans-4d"/>
      <use xlink:href="#DejaVuSans-54" x="86.279297"/>
     </g>
    </g>
    <g id="line2d_46">
     <path d="M 128.604375 67.932813 
L 138.604375 67.932813 
L 148.604375 67.932813 
" style="fill: none; stroke: #fef590; stroke-width: 1.5; stroke-linecap: square"/>
    </g>
    <g id="text_27">
     <!-- NL -->
     <g transform="translate(156.604375 71.432813)scale(0.1 -0.1)">
      <use xlink:href="#DejaVuSans-4e"/>
      <use xlink:href="#DejaVuSans-4c" x="74.804688"/>
     </g>
    </g>
    <g id="line2d_47">
     <path d="M 128.604375 82.610938 
L 138.604375 82.610938 
L 148.604375 82.610938 
" style="fill: none; stroke: #004b00; stroke-width: 1.5; stroke-linecap: square"/>
    </g>
    <g id="text_28">
     <!-- PL -->
     <g transform="translate(156.604375 86.110938)scale(0.1 -0.1)">
      <defs>
       <path id="DejaVuSans-50" d="M 1259 4147 
L 1259 2394 
L 2053 2394 
Q 2494 2394 2734 2622 
Q 2975 2850 2975 3272 
Q 2975 3691 2734 3919 
Q 2494 4147 2053 4147 
L 1259 4147 
z
M 628 4666 
L 2053 4666 
Q 2838 4666 3239 4311 
Q 3641 3956 3641 3272 
Q 3641 2581 3239 2228 
Q 2838 1875 2053 1875 
L 1259 1875 
L 1259 0 
L 628 0 
L 628 4666 
z
" transform="scale(0.015625)"/>
      </defs>
      <use xlink:href="#DejaVuSans-50"/>
      <use xlink:href="#DejaVuSans-4c" x="60.302734"/>
     </g>
    </g>
    <g id="line2d_48">
     <path d="M 128.604375 97.289063 
L 138.604375 97.289063 
L 148.604375 97.289063 
" style="fill: none; stroke: #8f7a00; stroke-width: 1.5; stroke-linecap: square"/>
    </g>
    <g id="text_29">
     <!-- PT -->
     <g transform="translate(156.604375 100.789063)scale(0.1 -0.1)">
      <use xlink:href="#DejaVuSans-50"/>
      <use xlink:href="#DejaVuSans-54" x="60.302734"/>
     </g>
    </g>
    <g id="line2d_49">
     <path d="M 128.604375 111.967188 
L 138.604375 111.967188 
L 148.604375 111.967188 
" style="fill: none; stroke: #ff7266; stroke-width: 1.5; stroke-linecap: square"/>
    </g>
    <g id="text_30">
     <!-- RO -->
     <g transform="translate(156.604375 115.467188)scale(0.1 -0.1)">
      <defs>
       <path id="DejaVuSans-4f" d="M 2522 4238 
Q 1834 4238 1429 3725 
Q 1025 3213 1025 2328 
Q 1025 1447 1429 934 
Q 1834 422 2522 422 
Q 3209 422 3611 934 
Q 4013 1447 4013 2328 
Q 4013 3213 3611 3725 
Q 3209 4238 2522 4238 
z
M 2522 4750 
Q 3503 4750 4090 4092 
Q 4678 3434 4678 2328 
Q 4678 1225 4090 567 
Q 3503 -91 2522 -91 
Q 1538 -91 948 565 
Q 359 1222 359 2328 
Q 359 3434 948 4092 
Q 1538 4750 2522 4750 
z
" transform="scale(0.015625)"/>
      </defs>
      <use xlink:href="#DejaVuSans-52"/>
      <use xlink:href="#DejaVuSans-4f" x="69.482422"/>
     </g>
    </g>
    <g id="line2d_50">
     <path d="M 128.604375 126.645313 
L 138.604375 126.645313 
L 148.604375 126.645313 
" style="fill: none; stroke: #eeb9b9; stroke-width: 1.5; stroke-linecap: square"/>
    </g>
    <g id="text_31">
     <!-- SE -->
     <g transform="translate(156.604375 130.145313)scale(0.1 -0.1)">
      <use xlink:href="#DejaVuSans-53"/>
      <use xlink:href="#DejaVuSans-45" x="63.476562"/>
     </g>
    </g>
    <g id="line2d_51">
     <path d="M 128.604375 141.323438 
L 138.604375 141.323438 
L 148.604375 141.323438 
" style="fill: none; stroke: #5e7e66; stroke-width: 1.5; stroke-linecap: square"/>
    </g>
    <g id="text_32">
     <!-- SI -->
     <g transform="translate(156.604375 144.823438)scale(0.1 -0.1)">
      <use xlink:href="#DejaVuSans-53"/>
      <use xlink:href="#DejaVuSans-49" x="63.476562"/>
     </g>
    </g>
    <g id="line2d_52">
     <path d="M 128.604375 156.001563 
L 138.604375 156.001563 
L 148.604375 156.001563 
" style="fill: none; stroke: #9be4ff; stroke-width: 1.5; stroke-linecap: square"/>
    </g>
    <g id="text_33">
     <!-- SK -->
     <g transform="translate(156.604375 159.501563)scale(0.1 -0.1)">
      <use xlink:href="#DejaVuSans-53"/>
      <use xlink:href="#DejaVuSans-4b" x="63.476562"/>
     </g>
    </g>
   </g>
  </g>
 </g>
 <defs>
  <clipPath id="p23442dff36">
   <rect x="57.17" y="10.8" width="392.83" height="292.84"/>
  </clipPath>
 </defs>
</svg>
