<?xml version="1.0" encoding="utf-8" standalone="no"?>
<!DOCTYPE svg PUBLIC "-//W3C//DTD SVG 1.1//EN"
  "http://www.w3.org/Graphics/SVG/1.1/DTD/svg11.dtd">
<svg xmlns:xlink="http://www.w3.org/1999/xlink" width="460.8pt" height="345.6pt" viewBox="0 0 460.8 345.6" xmlns="http://www.w3.org/2000/svg" version="1.1">
 <metadata>
  <rdf:RDF xmlns:dc="http://purl.org/dc/elements/1.1/" xmlns:cc="http://creativecommons.org/ns#" xmlns:rdf="http://www.w3.org/1999/02/22-rdf-syntax-ns#">
   <cc:Work>
    <dc:type rdf:resource="http://purl.org/dc/dcmitype/StillImage"/>
    <dc:date>2024-02-02T17:07:28.496948</dc:date>
    <dc:format>image/svg+xml</dc:format>
    <dc:creator>
     <cc:Agent>
      <dc:title>Matplotlib v3.5.1, https://matplotlib.org/</dc:title>
     </cc:Agent>
    </dc:creator>
   </cc:Work>
  </rdf:RDF>
 </metadata>
 <defs>
  <style type="text/css">*{stroke-linejoin: round; stroke-linecap: butt}</style>
 </defs>
 <g id="figure_1">
  <g id="patch_1">
   <path d="M 0 345.6 
L 460.8 345.6 
L 460.8 0 
L 0 0 
L 0 345.6 
z
" style="fill: none"/>
  </g>
  <g id="axes_1">
   <g id="patch_2">
    <path d="M 50.87 303.64 
L 448.659881 303.64 
L 448.659881 10.8 
L 50.87 10.8 
L 50.87 303.64 
z
" style="fill: none"/>
   </g>
   <g id="matplotlib.axis_1">
    <g id="xtick_1">
     <g id="line2d_1">
      <defs>
       <path id="m57074a34f3" d="M 0 0 
L 0 3.5 
" style="stroke: #000000; stroke-width: 0.8"/>
      </defs>
      <g>
       <use xlink:href="#m57074a34f3" x="128.127871" y="303.64" style="stroke: #000000; stroke-width: 0.8"/>
      </g>
     </g>
     <g id="text_1">
      <!-- 50 -->
      <g transform="translate(121.765371 318.238437)scale(0.1 -0.1)">
       <defs>
        <path id="DejaVuSans-35" d="M 691 4666 
L 3169 4666 
L 3169 4134 
L 1269 4134 
L 1269 2991 
Q 1406 3038 1543 3061 
Q 1681 3084 1819 3084 
Q 2600 3084 3056 2656 
Q 3513 2228 3513 1497 
Q 3513 744 3044 326 
Q 2575 -91 1722 -91 
Q 1428 -91 1123 -41 
Q 819 9 494 109 
L 494 744 
Q 775 591 1075 516 
Q 1375 441 1709 441 
Q 2250 441 2565 725 
Q 2881 1009 2881 1497 
Q 2881 1984 2565 2268 
Q 2250 2553 1709 2553 
Q 1456 2553 1204 2497 
Q 953 2441 691 2322 
L 691 4666 
z
" transform="scale(0.015625)"/>
        <path id="DejaVuSans-30" d="M 2034 4250 
Q 1547 4250 1301 3770 
Q 1056 3291 1056 2328 
Q 1056 1369 1301 889 
Q 1547 409 2034 409 
Q 2525 409 2770 889 
Q 3016 1369 3016 2328 
Q 3016 3291 2770 3770 
Q 2525 4250 2034 4250 
z
M 2034 4750 
Q 2819 4750 3233 4129 
Q 3647 3509 3647 2328 
Q 3647 1150 3233 529 
Q 2819 -91 2034 -91 
Q 1250 -91 836 529 
Q 422 1150 422 2328 
Q 422 3509 836 4129 
Q 1250 4750 2034 4750 
z
" transform="scale(0.015625)"/>
       </defs>
       <use xlink:href="#DejaVuSans-35"/>
       <use xlink:href="#DejaVuSans-30" x="63.623047"/>
      </g>
     </g>
    </g>
    <g id="xtick_2">
     <g id="line2d_2">
      <g>
       <use xlink:href="#m57074a34f3" x="206.002509" y="303.64" style="stroke: #000000; stroke-width: 0.8"/>
      </g>
     </g>
     <g id="text_2">
      <!-- 100 -->
      <g transform="translate(196.458759 318.238437)scale(0.1 -0.1)">
       <defs>
        <path id="DejaVuSans-31" d="M 794 531 
L 1825 531 
L 1825 4091 
L 703 3866 
L 703 4441 
L 1819 4666 
L 2450 4666 
L 2450 531 
L 3481 531 
L 3481 0 
L 794 0 
L 794 531 
z
" transform="scale(0.015625)"/>
       </defs>
       <use xlink:href="#DejaVuSans-31"/>
       <use xlink:href="#DejaVuSans-30" x="63.623047"/>
       <use xlink:href="#DejaVuSans-30" x="127.246094"/>
      </g>
     </g>
    </g>
    <g id="xtick_3">
     <g id="line2d_3">
      <g>
       <use xlink:href="#m57074a34f3" x="283.877147" y="303.64" style="stroke: #000000; stroke-width: 0.8"/>
      </g>
     </g>
     <g id="text_3">
      <!-- 150 -->
      <g transform="translate(274.333397 318.238437)scale(0.1 -0.1)">
       <use xlink:href="#DejaVuSans-31"/>
       <use xlink:href="#DejaVuSans-35" x="63.623047"/>
       <use xlink:href="#DejaVuSans-30" x="127.246094"/>
      </g>
     </g>
    </g>
    <g id="xtick_4">
     <g id="line2d_4">
      <g>
       <use xlink:href="#m57074a34f3" x="361.751785" y="303.64" style="stroke: #000000; stroke-width: 0.8"/>
      </g>
     </g>
     <g id="text_4">
      <!-- 200 -->
      <g transform="translate(352.208035 318.238437)scale(0.1 -0.1)">
       <defs>
        <path id="DejaVuSans-32" d="M 1228 531 
L 3431 531 
L 3431 0 
L 469 0 
L 469 531 
Q 828 903 1448 1529 
Q 2069 2156 2228 2338 
Q 2531 2678 2651 2914 
Q 2772 3150 2772 3378 
Q 2772 3750 2511 3984 
Q 2250 4219 1831 4219 
Q 1534 4219 1204 4116 
Q 875 4013 500 3803 
L 500 4441 
Q 881 4594 1212 4672 
Q 1544 4750 1819 4750 
Q 2544 4750 2975 4387 
Q 3406 4025 3406 3419 
Q 3406 3131 3298 2873 
Q 3191 2616 2906 2266 
Q 2828 2175 2409 1742 
Q 1991 1309 1228 531 
z
" transform="scale(0.015625)"/>
       </defs>
       <use xlink:href="#DejaVuSans-32"/>
       <use xlink:href="#DejaVuSans-30" x="63.623047"/>
       <use xlink:href="#DejaVuSans-30" x="127.246094"/>
      </g>
     </g>
    </g>
    <g id="xtick_5">
     <g id="line2d_5">
      <g>
       <use xlink:href="#m57074a34f3" x="439.626423" y="303.64" style="stroke: #000000; stroke-width: 0.8"/>
      </g>
     </g>
     <g id="text_5">
      <!-- 250 -->
      <g transform="translate(430.082673 318.238437)scale(0.1 -0.1)">
       <use xlink:href="#DejaVuSans-32"/>
       <use xlink:href="#DejaVuSans-35" x="63.623047"/>
       <use xlink:href="#DejaVuSans-30" x="127.246094"/>
      </g>
     </g>
    </g>
    <g id="text_6">
     <!-- Unemployment Rate (per 1000 citizens) -->
     <g transform="translate(149.618847 331.916562)scale(0.1 -0.1)">
      <defs>
       <path id="DejaVuSans-55" d="M 556 4666 
L 1191 4666 
L 1191 1831 
Q 1191 1081 1462 751 
Q 1734 422 2344 422 
Q 2950 422 3222 751 
Q 3494 1081 3494 1831 
L 3494 4666 
L 4128 4666 
L 4128 1753 
Q 4128 841 3676 375 
Q 3225 -91 2344 -91 
Q 1459 -91 1007 375 
Q 556 841 556 1753 
L 556 4666 
z
" transform="scale(0.015625)"/>
       <path id="DejaVuSans-6e" d="M 3513 2113 
L 3513 0 
L 2938 0 
L 2938 2094 
Q 2938 2591 2744 2837 
Q 2550 3084 2163 3084 
Q 1697 3084 1428 2787 
Q 1159 2491 1159 1978 
L 1159 0 
L 581 0 
L 581 3500 
L 1159 3500 
L 1159 2956 
Q 1366 3272 1645 3428 
Q 1925 3584 2291 3584 
Q 2894 3584 3203 3211 
Q 3513 2838 3513 2113 
z
" transform="scale(0.015625)"/>
       <path id="DejaVuSans-65" d="M 3597 1894 
L 3597 1613 
L 953 1613 
Q 991 1019 1311 708 
Q 1631 397 2203 397 
Q 2534 397 2845 478 
Q 3156 559 3463 722 
L 3463 178 
Q 3153 47 2828 -22 
Q 2503 -91 2169 -91 
Q 1331 -91 842 396 
Q 353 884 353 1716 
Q 353 2575 817 3079 
Q 1281 3584 2069 3584 
Q 2775 3584 3186 3129 
Q 3597 2675 3597 1894 
z
M 3022 2063 
Q 3016 2534 2758 2815 
Q 2500 3097 2075 3097 
Q 1594 3097 1305 2825 
Q 1016 2553 972 2059 
L 3022 2063 
z
" transform="scale(0.015625)"/>
       <path id="DejaVuSans-6d" d="M 3328 2828 
Q 3544 3216 3844 3400 
Q 4144 3584 4550 3584 
Q 5097 3584 5394 3201 
Q 5691 2819 5691 2113 
L 5691 0 
L 5113 0 
L 5113 2094 
Q 5113 2597 4934 2840 
Q 4756 3084 4391 3084 
Q 3944 3084 3684 2787 
Q 3425 2491 3425 1978 
L 3425 0 
L 2847 0 
L 2847 2094 
Q 2847 2600 2669 2842 
Q 2491 3084 2119 3084 
Q 1678 3084 1418 2786 
Q 1159 2488 1159 1978 
L 1159 0 
L 581 0 
L 581 3500 
L 1159 3500 
L 1159 2956 
Q 1356 3278 1631 3431 
Q 1906 3584 2284 3584 
Q 2666 3584 2933 3390 
Q 3200 3197 3328 2828 
z
" transform="scale(0.015625)"/>
       <path id="DejaVuSans-70" d="M 1159 525 
L 1159 -1331 
L 581 -1331 
L 581 3500 
L 1159 3500 
L 1159 2969 
Q 1341 3281 1617 3432 
Q 1894 3584 2278 3584 
Q 2916 3584 3314 3078 
Q 3713 2572 3713 1747 
Q 3713 922 3314 415 
Q 2916 -91 2278 -91 
Q 1894 -91 1617 61 
Q 1341 213 1159 525 
z
M 3116 1747 
Q 3116 2381 2855 2742 
Q 2594 3103 2138 3103 
Q 1681 3103 1420 2742 
Q 1159 2381 1159 1747 
Q 1159 1113 1420 752 
Q 1681 391 2138 391 
Q 2594 391 2855 752 
Q 3116 1113 3116 1747 
z
" transform="scale(0.015625)"/>
       <path id="DejaVuSans-6c" d="M 603 4863 
L 1178 4863 
L 1178 0 
L 603 0 
L 603 4863 
z
" transform="scale(0.015625)"/>
       <path id="DejaVuSans-6f" d="M 1959 3097 
Q 1497 3097 1228 2736 
Q 959 2375 959 1747 
Q 959 1119 1226 758 
Q 1494 397 1959 397 
Q 2419 397 2687 759 
Q 2956 1122 2956 1747 
Q 2956 2369 2687 2733 
Q 2419 3097 1959 3097 
z
M 1959 3584 
Q 2709 3584 3137 3096 
Q 3566 2609 3566 1747 
Q 3566 888 3137 398 
Q 2709 -91 1959 -91 
Q 1206 -91 779 398 
Q 353 888 353 1747 
Q 353 2609 779 3096 
Q 1206 3584 1959 3584 
z
" transform="scale(0.015625)"/>
       <path id="DejaVuSans-79" d="M 2059 -325 
Q 1816 -950 1584 -1140 
Q 1353 -1331 966 -1331 
L 506 -1331 
L 506 -850 
L 844 -850 
Q 1081 -850 1212 -737 
Q 1344 -625 1503 -206 
L 1606 56 
L 191 3500 
L 800 3500 
L 1894 763 
L 2988 3500 
L 3597 3500 
L 2059 -325 
z
" transform="scale(0.015625)"/>
       <path id="DejaVuSans-74" d="M 1172 4494 
L 1172 3500 
L 2356 3500 
L 2356 3053 
L 1172 3053 
L 1172 1153 
Q 1172 725 1289 603 
Q 1406 481 1766 481 
L 2356 481 
L 2356 0 
L 1766 0 
Q 1100 0 847 248 
Q 594 497 594 1153 
L 594 3053 
L 172 3053 
L 172 3500 
L 594 3500 
L 594 4494 
L 1172 4494 
z
" transform="scale(0.015625)"/>
       <path id="DejaVuSans-20" transform="scale(0.015625)"/>
       <path id="DejaVuSans-52" d="M 2841 2188 
Q 3044 2119 3236 1894 
Q 3428 1669 3622 1275 
L 4263 0 
L 3584 0 
L 2988 1197 
Q 2756 1666 2539 1819 
Q 2322 1972 1947 1972 
L 1259 1972 
L 1259 0 
L 628 0 
L 628 4666 
L 2053 4666 
Q 2853 4666 3247 4331 
Q 3641 3997 3641 3322 
Q 3641 2881 3436 2590 
Q 3231 2300 2841 2188 
z
M 1259 4147 
L 1259 2491 
L 2053 2491 
Q 2509 2491 2742 2702 
Q 2975 2913 2975 3322 
Q 2975 3731 2742 3939 
Q 2509 4147 2053 4147 
L 1259 4147 
z
" transform="scale(0.015625)"/>
       <path id="DejaVuSans-61" d="M 2194 1759 
Q 1497 1759 1228 1600 
Q 959 1441 959 1056 
Q 959 750 1161 570 
Q 1363 391 1709 391 
Q 2188 391 2477 730 
Q 2766 1069 2766 1631 
L 2766 1759 
L 2194 1759 
z
M 3341 1997 
L 3341 0 
L 2766 0 
L 2766 531 
Q 2569 213 2275 61 
Q 1981 -91 1556 -91 
Q 1019 -91 701 211 
Q 384 513 384 1019 
Q 384 1609 779 1909 
Q 1175 2209 1959 2209 
L 2766 2209 
L 2766 2266 
Q 2766 2663 2505 2880 
Q 2244 3097 1772 3097 
Q 1472 3097 1187 3025 
Q 903 2953 641 2809 
L 641 3341 
Q 956 3463 1253 3523 
Q 1550 3584 1831 3584 
Q 2591 3584 2966 3190 
Q 3341 2797 3341 1997 
z
" transform="scale(0.015625)"/>
       <path id="DejaVuSans-28" d="M 1984 4856 
Q 1566 4138 1362 3434 
Q 1159 2731 1159 2009 
Q 1159 1288 1364 580 
Q 1569 -128 1984 -844 
L 1484 -844 
Q 1016 -109 783 600 
Q 550 1309 550 2009 
Q 550 2706 781 3412 
Q 1013 4119 1484 4856 
L 1984 4856 
z
" transform="scale(0.015625)"/>
       <path id="DejaVuSans-72" d="M 2631 2963 
Q 2534 3019 2420 3045 
Q 2306 3072 2169 3072 
Q 1681 3072 1420 2755 
Q 1159 2438 1159 1844 
L 1159 0 
L 581 0 
L 581 3500 
L 1159 3500 
L 1159 2956 
Q 1341 3275 1631 3429 
Q 1922 3584 2338 3584 
Q 2397 3584 2469 3576 
Q 2541 3569 2628 3553 
L 2631 2963 
z
" transform="scale(0.015625)"/>
       <path id="DejaVuSans-63" d="M 3122 3366 
L 3122 2828 
Q 2878 2963 2633 3030 
Q 2388 3097 2138 3097 
Q 1578 3097 1268 2742 
Q 959 2388 959 1747 
Q 959 1106 1268 751 
Q 1578 397 2138 397 
Q 2388 397 2633 464 
Q 2878 531 3122 666 
L 3122 134 
Q 2881 22 2623 -34 
Q 2366 -91 2075 -91 
Q 1284 -91 818 406 
Q 353 903 353 1747 
Q 353 2603 823 3093 
Q 1294 3584 2113 3584 
Q 2378 3584 2631 3529 
Q 2884 3475 3122 3366 
z
" transform="scale(0.015625)"/>
       <path id="DejaVuSans-69" d="M 603 3500 
L 1178 3500 
L 1178 0 
L 603 0 
L 603 3500 
z
M 603 4863 
L 1178 4863 
L 1178 4134 
L 603 4134 
L 603 4863 
z
" transform="scale(0.015625)"/>
       <path id="DejaVuSans-7a" d="M 353 3500 
L 3084 3500 
L 3084 2975 
L 922 459 
L 3084 459 
L 3084 0 
L 275 0 
L 275 525 
L 2438 3041 
L 353 3041 
L 353 3500 
z
" transform="scale(0.015625)"/>
       <path id="DejaVuSans-73" d="M 2834 3397 
L 2834 2853 
Q 2591 2978 2328 3040 
Q 2066 3103 1784 3103 
Q 1356 3103 1142 2972 
Q 928 2841 928 2578 
Q 928 2378 1081 2264 
Q 1234 2150 1697 2047 
L 1894 2003 
Q 2506 1872 2764 1633 
Q 3022 1394 3022 966 
Q 3022 478 2636 193 
Q 2250 -91 1575 -91 
Q 1294 -91 989 -36 
Q 684 19 347 128 
L 347 722 
Q 666 556 975 473 
Q 1284 391 1588 391 
Q 1994 391 2212 530 
Q 2431 669 2431 922 
Q 2431 1156 2273 1281 
Q 2116 1406 1581 1522 
L 1381 1569 
Q 847 1681 609 1914 
Q 372 2147 372 2553 
Q 372 3047 722 3315 
Q 1072 3584 1716 3584 
Q 2034 3584 2315 3537 
Q 2597 3491 2834 3397 
z
" transform="scale(0.015625)"/>
       <path id="DejaVuSans-29" d="M 513 4856 
L 1013 4856 
Q 1481 4119 1714 3412 
Q 1947 2706 1947 2009 
Q 1947 1309 1714 600 
Q 1481 -109 1013 -844 
L 513 -844 
Q 928 -128 1133 580 
Q 1338 1288 1338 2009 
Q 1338 2731 1133 3434 
Q 928 4138 513 4856 
z
" transform="scale(0.015625)"/>
      </defs>
      <use xlink:href="#DejaVuSans-55"/>
      <use xlink:href="#DejaVuSans-6e" x="73.193359"/>
      <use xlink:href="#DejaVuSans-65" x="136.572266"/>
      <use xlink:href="#DejaVuSans-6d" x="198.095703"/>
      <use xlink:href="#DejaVuSans-70" x="295.507812"/>
      <use xlink:href="#DejaVuSans-6c" x="358.984375"/>
      <use xlink:href="#DejaVuSans-6f" x="386.767578"/>
      <use xlink:href="#DejaVuSans-79" x="447.949219"/>
      <use xlink:href="#DejaVuSans-6d" x="507.128906"/>
      <use xlink:href="#DejaVuSans-65" x="604.541016"/>
      <use xlink:href="#DejaVuSans-6e" x="666.064453"/>
      <use xlink:href="#DejaVuSans-74" x="729.443359"/>
      <use xlink:href="#DejaVuSans-20" x="768.652344"/>
      <use xlink:href="#DejaVuSans-52" x="800.439453"/>
      <use xlink:href="#DejaVuSans-61" x="867.671875"/>
      <use xlink:href="#DejaVuSans-74" x="928.951172"/>
      <use xlink:href="#DejaVuSans-65" x="968.160156"/>
      <use xlink:href="#DejaVuSans-20" x="1029.683594"/>
      <use xlink:href="#DejaVuSans-28" x="1061.470703"/>
      <use xlink:href="#DejaVuSans-70" x="1100.484375"/>
      <use xlink:href="#DejaVuSans-65" x="1163.960938"/>
      <use xlink:href="#DejaVuSans-72" x="1225.484375"/>
      <use xlink:href="#DejaVuSans-20" x="1266.597656"/>
      <use xlink:href="#DejaVuSans-31" x="1298.384766"/>
      <use xlink:href="#DejaVuSans-30" x="1362.007812"/>
      <use xlink:href="#DejaVuSans-30" x="1425.630859"/>
      <use xlink:href="#DejaVuSans-30" x="1489.253906"/>
      <use xlink:href="#DejaVuSans-20" x="1552.876953"/>
      <use xlink:href="#DejaVuSans-63" x="1584.664062"/>
      <use xlink:href="#DejaVuSans-69" x="1639.644531"/>
      <use xlink:href="#DejaVuSans-74" x="1667.427734"/>
      <use xlink:href="#DejaVuSans-69" x="1706.636719"/>
      <use xlink:href="#DejaVuSans-7a" x="1734.419922"/>
      <use xlink:href="#DejaVuSans-65" x="1786.910156"/>
      <use xlink:href="#DejaVuSans-6e" x="1848.433594"/>
      <use xlink:href="#DejaVuSans-73" x="1911.8125"/>
      <use xlink:href="#DejaVuSans-29" x="1963.912109"/>
     </g>
    </g>
   </g>
   <g id="matplotlib.axis_2">
    <g id="ytick_1">
     <g id="line2d_6">
      <defs>
       <path id="m68e969da78" d="M 0 0 
L -3.5 0 
" style="stroke: #000000; stroke-width: 0.8"/>
      </defs>
      <g>
       <use xlink:href="#m68e969da78" x="50.87" y="303.64" style="stroke: #000000; stroke-width: 0.8"/>
      </g>
     </g>
     <g id="text_7">
      <!-- 0 -->
      <g transform="translate(37.5075 307.439219)scale(0.1 -0.1)">
       <use xlink:href="#DejaVuSans-30"/>
      </g>
     </g>
    </g>
    <g id="ytick_2">
     <g id="line2d_7">
      <g>
       <use xlink:href="#m68e969da78" x="50.87" y="239.79765" style="stroke: #000000; stroke-width: 0.8"/>
      </g>
     </g>
     <g id="text_8">
      <!-- 50 -->
      <g transform="translate(31.145 243.596869)scale(0.1 -0.1)">
       <use xlink:href="#DejaVuSans-35"/>
       <use xlink:href="#DejaVuSans-30" x="63.623047"/>
      </g>
     </g>
    </g>
    <g id="ytick_3">
     <g id="line2d_8">
      <g>
       <use xlink:href="#m68e969da78" x="50.87" y="175.9553" style="stroke: #000000; stroke-width: 0.8"/>
      </g>
     </g>
     <g id="text_9">
      <!-- 100 -->
      <g transform="translate(24.7825 179.754519)scale(0.1 -0.1)">
       <use xlink:href="#DejaVuSans-31"/>
       <use xlink:href="#DejaVuSans-30" x="63.623047"/>
       <use xlink:href="#DejaVuSans-30" x="127.246094"/>
      </g>
     </g>
    </g>
    <g id="ytick_4">
     <g id="line2d_9">
      <g>
       <use xlink:href="#m68e969da78" x="50.87" y="112.112951" style="stroke: #000000; stroke-width: 0.8"/>
      </g>
     </g>
     <g id="text_10">
      <!-- 150 -->
      <g transform="translate(24.7825 115.912169)scale(0.1 -0.1)">
       <use xlink:href="#DejaVuSans-31"/>
       <use xlink:href="#DejaVuSans-35" x="63.623047"/>
       <use xlink:href="#DejaVuSans-30" x="127.246094"/>
      </g>
     </g>
    </g>
    <g id="ytick_5">
     <g id="line2d_10">
      <g>
       <use xlink:href="#m68e969da78" x="50.87" y="48.270601" style="stroke: #000000; stroke-width: 0.8"/>
      </g>
     </g>
     <g id="text_11">
      <!-- 200 -->
      <g transform="translate(24.7825 52.06982)scale(0.1 -0.1)">
       <use xlink:href="#DejaVuSans-32"/>
       <use xlink:href="#DejaVuSans-30" x="63.623047"/>
       <use xlink:href="#DejaVuSans-30" x="127.246094"/>
      </g>
     </g>
    </g>
    <g id="text_12">
     <!-- Number of Homicides -->
     <g transform="translate(18.702813 211.37625)rotate(-90)scale(0.1 -0.1)">
      <defs>
       <path id="DejaVuSans-4e" d="M 628 4666 
L 1478 4666 
L 3547 763 
L 3547 4666 
L 4159 4666 
L 4159 0 
L 3309 0 
L 1241 3903 
L 1241 0 
L 628 0 
L 628 4666 
z
" transform="scale(0.015625)"/>
       <path id="DejaVuSans-75" d="M 544 1381 
L 544 3500 
L 1119 3500 
L 1119 1403 
Q 1119 906 1312 657 
Q 1506 409 1894 409 
Q 2359 409 2629 706 
Q 2900 1003 2900 1516 
L 2900 3500 
L 3475 3500 
L 3475 0 
L 2900 0 
L 2900 538 
Q 2691 219 2414 64 
Q 2138 -91 1772 -91 
Q 1169 -91 856 284 
Q 544 659 544 1381 
z
M 1991 3584 
L 1991 3584 
z
" transform="scale(0.015625)"/>
       <path id="DejaVuSans-62" d="M 3116 1747 
Q 3116 2381 2855 2742 
Q 2594 3103 2138 3103 
Q 1681 3103 1420 2742 
Q 1159 2381 1159 1747 
Q 1159 1113 1420 752 
Q 1681 391 2138 391 
Q 2594 391 2855 752 
Q 3116 1113 3116 1747 
z
M 1159 2969 
Q 1341 3281 1617 3432 
Q 1894 3584 2278 3584 
Q 2916 3584 3314 3078 
Q 3713 2572 3713 1747 
Q 3713 922 3314 415 
Q 2916 -91 2278 -91 
Q 1894 -91 1617 61 
Q 1341 213 1159 525 
L 1159 0 
L 581 0 
L 581 4863 
L 1159 4863 
L 1159 2969 
z
" transform="scale(0.015625)"/>
       <path id="DejaVuSans-66" d="M 2375 4863 
L 2375 4384 
L 1825 4384 
Q 1516 4384 1395 4259 
Q 1275 4134 1275 3809 
L 1275 3500 
L 2222 3500 
L 2222 3053 
L 1275 3053 
L 1275 0 
L 697 0 
L 697 3053 
L 147 3053 
L 147 3500 
L 697 3500 
L 697 3744 
Q 697 4328 969 4595 
Q 1241 4863 1831 4863 
L 2375 4863 
z
" transform="scale(0.015625)"/>
       <path id="DejaVuSans-48" d="M 628 4666 
L 1259 4666 
L 1259 2753 
L 3553 2753 
L 3553 4666 
L 4184 4666 
L 4184 0 
L 3553 0 
L 3553 2222 
L 1259 2222 
L 1259 0 
L 628 0 
L 628 4666 
z
" transform="scale(0.015625)"/>
       <path id="DejaVuSans-64" d="M 2906 2969 
L 2906 4863 
L 3481 4863 
L 3481 0 
L 2906 0 
L 2906 525 
Q 2725 213 2448 61 
Q 2172 -91 1784 -91 
Q 1150 -91 751 415 
Q 353 922 353 1747 
Q 353 2572 751 3078 
Q 1150 3584 1784 3584 
Q 2172 3584 2448 3432 
Q 2725 3281 2906 2969 
z
M 947 1747 
Q 947 1113 1208 752 
Q 1469 391 1925 391 
Q 2381 391 2643 752 
Q 2906 1113 2906 1747 
Q 2906 2381 2643 2742 
Q 2381 3103 1925 3103 
Q 1469 3103 1208 2742 
Q 947 2381 947 1747 
z
" transform="scale(0.015625)"/>
      </defs>
      <use xlink:href="#DejaVuSans-4e"/>
      <use xlink:href="#DejaVuSans-75" x="74.804688"/>
      <use xlink:href="#DejaVuSans-6d" x="138.183594"/>
      <use xlink:href="#DejaVuSans-62" x="235.595703"/>
      <use xlink:href="#DejaVuSans-65" x="299.072266"/>
      <use xlink:href="#DejaVuSans-72" x="360.595703"/>
      <use xlink:href="#DejaVuSans-20" x="401.708984"/>
      <use xlink:href="#DejaVuSans-6f" x="433.496094"/>
      <use xlink:href="#DejaVuSans-66" x="494.677734"/>
      <use xlink:href="#DejaVuSans-20" x="529.882812"/>
      <use xlink:href="#DejaVuSans-48" x="561.669922"/>
      <use xlink:href="#DejaVuSans-6f" x="636.865234"/>
      <use xlink:href="#DejaVuSans-6d" x="698.046875"/>
      <use xlink:href="#DejaVuSans-69" x="795.458984"/>
      <use xlink:href="#DejaVuSans-63" x="823.242188"/>
      <use xlink:href="#DejaVuSans-69" x="878.222656"/>
      <use xlink:href="#DejaVuSans-64" x="906.005859"/>
      <use xlink:href="#DejaVuSans-65" x="969.482422"/>
      <use xlink:href="#DejaVuSans-73" x="1031.005859"/>
     </g>
    </g>
   </g>
   <g id="line2d_11">
    <path d="M 50.87 119.850178 
L 58.988161 119.831542 
L 67.106322 119.812906 
L 75.224482 119.79427 
L 83.342643 119.775634 
L 91.460804 119.756998 
L 99.578965 119.738362 
L 107.697126 119.719725 
L 115.815287 119.701089 
L 123.933447 119.682453 
L 132.051608 119.663817 
L 140.169769 119.645181 
L 148.28793 119.626545 
L 156.406091 119.607909 
L 164.524252 119.589273 
L 172.642412 119.570637 
L 180.760573 119.552001 
L 188.878734 119.533365 
L 196.996895 119.514729 
L 205.115056 119.496093 
L 213.233217 119.477457 
L 221.351377 119.45882 
L 229.469538 119.440184 
L 237.587699 119.421548 
L 245.70586 119.402912 
L 253.824021 119.384276 
L 261.942182 119.36564 
L 270.060342 119.347004 
L 278.178503 119.328368 
L 286.296664 119.309732 
L 294.414825 119.291096 
L 302.532986 119.27246 
L 310.651147 119.253824 
L 318.769307 119.235188 
L 326.887468 119.216552 
L 335.005629 119.197915 
L 343.12379 119.179279 
L 351.241951 119.160643 
L 359.360112 119.142007 
L 367.478272 119.123371 
L 375.596433 119.104735 
L 383.714594 119.086099 
L 391.832755 119.067463 
L 399.950916 119.048827 
L 408.069077 119.030191 
L 416.187237 119.011555 
L 424.305398 118.992919 
L 432.423559 118.974283 
L 440.54172 118.955646 
L 448.659881 118.93701 
" clip-path="url(#pdf3adadd15)" style="fill: none; stroke: #d70000; stroke-width: 1.5; stroke-linecap: square"/>
   </g>
   <g id="line2d_12">
    <path d="M 50.87 20.834865 
L 58.988161 20.816229 
L 67.106322 20.797592 
L 75.224482 20.778956 
L 83.342643 20.76032 
L 91.460804 20.741684 
L 99.578965 20.723048 
L 107.697126 20.704412 
L 115.815287 20.685776 
L 123.933447 20.66714 
L 132.051608 20.648504 
L 140.169769 20.629868 
L 148.28793 20.611232 
L 156.406091 20.592596 
L 164.524252 20.57396 
L 172.642412 20.555324 
L 180.760573 20.536688 
L 188.878734 20.518052 
L 196.996895 20.499416 
L 205.115056 20.48078 
L 213.233217 20.462144 
L 221.351377 20.443508 
L 229.469538 20.424872 
L 237.587699 20.406236 
L 245.70586 20.3876 
L 253.824021 20.368964 
L 261.942182 20.350328 
L 270.060342 20.331692 
L 278.178503 20.313056 
L 286.296664 20.29442 
L 294.414825 20.275784 
L 302.532986 20.257148 
L 310.651147 20.238512 
L 318.769307 20.219876 
L 326.887468 20.201239 
L 335.005629 20.182603 
L 343.12379 20.163967 
L 351.241951 20.145331 
L 359.360112 20.126695 
L 367.478272 20.108059 
L 375.596433 20.089423 
L 383.714594 20.070787 
L 391.832755 20.052151 
L 399.950916 20.033515 
L 408.069077 20.014879 
L 416.187237 19.996243 
L 424.305398 19.977607 
L 432.423559 19.958971 
L 440.54172 19.940335 
L 448.659881 19.921699 
" clip-path="url(#pdf3adadd15)" style="fill: none; stroke: #8c3cff; stroke-width: 1.5; stroke-linecap: square"/>
   </g>
   <g id="line2d_13">
    <path d="M 50.87 202.355679 
L 58.988161 202.337043 
L 67.106322 202.318407 
L 75.224482 202.299771 
L 83.342643 202.281135 
L 91.460804 202.262499 
L 99.578965 202.243863 
L 107.697126 202.225227 
L 115.815287 202.206591 
L 123.933447 202.187955 
L 132.051608 202.169319 
L 140.169769 202.150683 
L 148.28793 202.132047 
L 156.406091 202.113411 
L 164.524252 202.094775 
L 172.642412 202.076139 
L 180.760573 202.057503 
L 188.878734 202.038867 
L 196.996895 202.020231 
L 205.115056 202.001594 
L 213.233217 201.982958 
L 221.351377 201.964322 
L 229.469538 201.945686 
L 237.587699 201.92705 
L 245.70586 201.908414 
L 253.824021 201.889778 
L 261.942182 201.871142 
L 270.060342 201.852506 
L 278.178503 201.83387 
L 286.296664 201.815234 
L 294.414825 201.796598 
L 302.532986 201.777962 
L 310.651147 201.759326 
L 318.769307 201.74069 
L 326.887468 201.722054 
L 335.005629 201.703418 
L 343.12379 201.684782 
L 351.241951 201.666146 
L 359.360112 201.64751 
L 367.478272 201.628874 
L 375.596433 201.610238 
L 383.714594 201.591602 
L 391.832755 201.572965 
L 399.950916 201.554329 
L 408.069077 201.535693 
L 416.187237 201.517057 
L 424.305398 201.498421 
L 432.423559 201.479785 
L 440.54172 201.461149 
L 448.659881 201.442513 
" clip-path="url(#pdf3adadd15)" style="fill: none; stroke: #028800; stroke-width: 1.5; stroke-linecap: square"/>
   </g>
   <g id="line2d_14">
    <path d="M 50.87 151.629363 
L 58.988161 151.610727 
L 67.106322 151.592091 
L 75.224482 151.573455 
L 83.342643 151.554819 
L 91.460804 151.536183 
L 99.578965 151.517547 
L 107.697126 151.498911 
L 115.815287 151.480275 
L 123.933447 151.461639 
L 132.051608 151.443003 
L 140.169769 151.424367 
L 148.28793 151.405731 
L 156.406091 151.387095 
L 164.524252 151.368459 
L 172.642412 151.349823 
L 180.760573 151.331187 
L 188.878734 151.312551 
L 196.996895 151.293915 
L 205.115056 151.275279 
L 213.233217 151.256642 
L 221.351377 151.238006 
L 229.469538 151.21937 
L 237.587699 151.200734 
L 245.70586 151.182098 
L 253.824021 151.163462 
L 261.942182 151.144826 
L 270.060342 151.12619 
L 278.178503 151.107554 
L 286.296664 151.088918 
L 294.414825 151.070282 
L 302.532986 151.051646 
L 310.651147 151.03301 
L 318.769307 151.014374 
L 326.887468 150.995738 
L 335.005629 150.977102 
L 343.12379 150.958466 
L 351.241951 150.93983 
L 359.360112 150.921194 
L 367.478272 150.902558 
L 375.596433 150.883922 
L 383.714594 150.865286 
L 391.832755 150.84665 
L 399.950916 150.828014 
L 408.069077 150.809378 
L 416.187237 150.790742 
L 424.305398 150.772105 
L 432.423559 150.753469 
L 440.54172 150.734833 
L 448.659881 150.716197 
" clip-path="url(#pdf3adadd15)" style="fill: none; stroke: #00acc7; stroke-width: 1.5; stroke-linecap: square"/>
   </g>
   <g id="line2d_15">
    <path d="M 50.87 61.297271 
L 58.988161 61.278635 
L 67.106322 61.259999 
L 75.224482 61.241363 
L 83.342643 61.222727 
L 91.460804 61.204091 
L 99.578965 61.185455 
L 107.697126 61.166819 
L 115.815287 61.148183 
L 123.933447 61.129547 
L 132.051608 61.110911 
L 140.169769 61.092275 
L 148.28793 61.073639 
L 156.406091 61.055003 
L 164.524252 61.036367 
L 172.642412 61.017731 
L 180.760573 60.999095 
L 188.878734 60.980459 
L 196.996895 60.961823 
L 205.115056 60.943187 
L 213.233217 60.924551 
L 221.351377 60.905915 
L 229.469538 60.887278 
L 237.587699 60.868642 
L 245.70586 60.850006 
L 253.824021 60.83137 
L 261.942182 60.812734 
L 270.060342 60.794098 
L 278.178503 60.775462 
L 286.296664 60.756826 
L 294.414825 60.73819 
L 302.532986 60.719554 
L 310.651147 60.700918 
L 318.769307 60.682282 
L 326.887468 60.663646 
L 335.005629 60.64501 
L 343.12379 60.626374 
L 351.241951 60.607738 
L 359.360112 60.589102 
L 367.478272 60.570466 
L 375.596433 60.55183 
L 383.714594 60.533194 
L 391.832755 60.514558 
L 399.950916 60.495922 
L 408.069077 60.477286 
L 416.187237 60.45865 
L 424.305398 60.440014 
L 432.423559 60.421378 
L 440.54172 60.402742 
L 448.659881 60.384105 
" clip-path="url(#pdf3adadd15)" style="fill: none; stroke: #ff7fd1; stroke-width: 1.5; stroke-linecap: square"/>
   </g>
   <g id="line2d_16">
    <path d="M 50.87 105.360291 
L 58.988161 105.341655 
L 67.106322 105.323019 
L 75.224482 105.304383 
L 83.342643 105.285747 
L 91.460804 105.267111 
L 99.578965 105.248475 
L 107.697126 105.229839 
L 115.815287 105.211203 
L 123.933447 105.192567 
L 132.051608 105.173931 
L 140.169769 105.155295 
L 148.28793 105.136659 
L 156.406091 105.118023 
L 164.524252 105.099387 
L 172.642412 105.080751 
L 180.760573 105.062115 
L 188.878734 105.043479 
L 196.996895 105.024843 
L 205.115056 105.006206 
L 213.233217 104.98757 
L 221.351377 104.968934 
L 229.469538 104.950298 
L 237.587699 104.931662 
L 245.70586 104.913026 
L 253.824021 104.89439 
L 261.942182 104.875754 
L 270.060342 104.857118 
L 278.178503 104.838482 
L 286.296664 104.819846 
L 294.414825 104.80121 
L 302.532986 104.782574 
L 310.651147 104.763938 
L 318.769307 104.745302 
L 326.887468 104.726666 
L 335.005629 104.70803 
L 343.12379 104.689394 
L 351.241951 104.670758 
L 359.360112 104.652122 
L 367.478272 104.633486 
L 375.596433 104.614849 
L 383.714594 104.596213 
L 391.832755 104.577577 
L 399.950916 104.558941 
L 408.069077 104.540305 
L 416.187237 104.521669 
L 424.305398 104.503033 
L 432.423559 104.484397 
L 440.54172 104.465761 
L 448.659881 104.447125 
" clip-path="url(#pdf3adadd15)" style="fill: none; stroke: #6c004f; stroke-width: 1.5; stroke-linecap: square"/>
   </g>
   <g id="line2d_17">
    <path d="M 50.87 194.327135 
L 58.988161 194.308499 
L 67.106322 194.289863 
L 75.224482 194.271227 
L 83.342643 194.252591 
L 91.460804 194.233954 
L 99.578965 194.215318 
L 107.697126 194.196682 
L 115.815287 194.178046 
L 123.933447 194.15941 
L 132.051608 194.140774 
L 140.169769 194.122138 
L 148.28793 194.103502 
L 156.406091 194.084866 
L 164.524252 194.06623 
L 172.642412 194.047594 
L 180.760573 194.028958 
L 188.878734 194.010322 
L 196.996895 193.991686 
L 205.115056 193.97305 
L 213.233217 193.954414 
L 221.351377 193.935777 
L 229.469538 193.917141 
L 237.587699 193.898505 
L 245.70586 193.879869 
L 253.824021 193.861233 
L 261.942182 193.842597 
L 270.060342 193.823961 
L 278.178503 193.805325 
L 286.296664 193.786689 
L 294.414825 193.768053 
L 302.532986 193.749417 
L 310.651147 193.730781 
L 318.769307 193.712145 
L 326.887468 193.693509 
L 335.005629 193.674873 
L 343.12379 193.656237 
L 351.241951 193.6376 
L 359.360112 193.618964 
L 367.478272 193.600328 
L 375.596433 193.581692 
L 383.714594 193.563056 
L 391.832755 193.54442 
L 399.950916 193.525784 
L 408.069077 193.507148 
L 416.187237 193.488512 
L 424.305398 193.469876 
L 432.423559 193.45124 
L 440.54172 193.432604 
L 448.659881 193.413968 
" clip-path="url(#pdf3adadd15)" style="fill: none; stroke: #583b00; stroke-width: 1.5; stroke-linecap: square"/>
   </g>
   <g id="line2d_18">
    <path d="M 50.87 162.482866 
L 58.988161 162.46423 
L 67.106322 162.445594 
L 75.224482 162.426958 
L 83.342643 162.408322 
L 91.460804 162.389686 
L 99.578965 162.37105 
L 107.697126 162.352414 
L 115.815287 162.333778 
L 123.933447 162.315142 
L 132.051608 162.296506 
L 140.169769 162.27787 
L 148.28793 162.259233 
L 156.406091 162.240597 
L 164.524252 162.221961 
L 172.642412 162.203325 
L 180.760573 162.184689 
L 188.878734 162.166053 
L 196.996895 162.147417 
L 205.115056 162.128781 
L 213.233217 162.110145 
L 221.351377 162.091509 
L 229.469538 162.072873 
L 237.587699 162.054237 
L 245.70586 162.035601 
L 253.824021 162.016965 
L 261.942182 161.998329 
L 270.060342 161.979693 
L 278.178503 161.961056 
L 286.296664 161.94242 
L 294.414825 161.923784 
L 302.532986 161.905148 
L 310.651147 161.886512 
L 318.769307 161.867876 
L 326.887468 161.84924 
L 335.005629 161.830604 
L 343.12379 161.811968 
L 351.241951 161.793332 
L 359.360112 161.774696 
L 367.478272 161.75606 
L 375.596433 161.737424 
L 383.714594 161.718788 
L 391.832755 161.700152 
L 399.950916 161.681516 
L 408.069077 161.66288 
L 416.187237 161.644243 
L 424.305398 161.625607 
L 432.423559 161.606971 
L 440.54172 161.588335 
L 448.659881 161.569699 
" clip-path="url(#pdf3adadd15)" style="fill: none; stroke: #005759; stroke-width: 1.5; stroke-linecap: square"/>
   </g>
   <g id="line2d_19">
    <path d="M 50.87 93.620721 
L 58.988161 93.602085 
L 67.106322 93.583449 
L 75.224482 93.564813 
L 83.342643 93.546177 
L 91.460804 93.527541 
L 99.578965 93.508905 
L 107.697126 93.490269 
L 115.815287 93.471633 
L 123.933447 93.452997 
L 132.051608 93.434361 
L 140.169769 93.415725 
L 148.28793 93.397089 
L 156.406091 93.378453 
L 164.524252 93.359817 
L 172.642412 93.341181 
L 180.760573 93.322545 
L 188.878734 93.303909 
L 196.996895 93.285273 
L 205.115056 93.266637 
L 213.233217 93.248001 
L 221.351377 93.229365 
L 229.469538 93.210729 
L 237.587699 93.192093 
L 245.70586 93.173457 
L 253.824021 93.154821 
L 261.942182 93.136185 
L 270.060342 93.117549 
L 278.178503 93.098913 
L 286.296664 93.080277 
L 294.414825 93.061641 
L 302.532986 93.043005 
L 310.651147 93.024369 
L 318.769307 93.005733 
L 326.887468 92.987097 
L 335.005629 92.968461 
L 343.12379 92.949825 
L 351.241951 92.931189 
L 359.360112 92.912553 
L 367.478272 92.893916 
L 375.596433 92.87528 
L 383.714594 92.856644 
L 391.832755 92.838008 
L 399.950916 92.819372 
L 408.069077 92.800736 
L 416.187237 92.7821 
L 424.305398 92.763464 
L 432.423559 92.744828 
L 440.54172 92.726192 
L 448.659881 92.707556 
" clip-path="url(#pdf3adadd15)" style="fill: none; stroke: #0000dd; stroke-width: 1.5; stroke-linecap: square"/>
   </g>
   <g id="line2d_20">
    <path d="M 50.87 195.725603 
L 58.988161 195.706967 
L 67.106322 195.688331 
L 75.224482 195.669695 
L 83.342643 195.651059 
L 91.460804 195.632423 
L 99.578965 195.613787 
L 107.697126 195.595151 
L 115.815287 195.576515 
L 123.933447 195.557879 
L 132.051608 195.539242 
L 140.169769 195.520606 
L 148.28793 195.50197 
L 156.406091 195.483334 
L 164.524252 195.464698 
L 172.642412 195.446062 
L 180.760573 195.427426 
L 188.878734 195.40879 
L 196.996895 195.390154 
L 205.115056 195.371518 
L 213.233217 195.352882 
L 221.351377 195.334246 
L 229.469538 195.31561 
L 237.587699 195.296974 
L 245.70586 195.278338 
L 253.824021 195.259702 
L 261.942182 195.241066 
L 270.060342 195.222429 
L 278.178503 195.203793 
L 286.296664 195.185157 
L 294.414825 195.166521 
L 302.532986 195.147885 
L 310.651147 195.129249 
L 318.769307 195.110613 
L 326.887468 195.091977 
L 335.005629 195.073341 
L 343.12379 195.054705 
L 351.241951 195.036069 
L 359.360112 195.017433 
L 367.478272 194.998797 
L 375.596433 194.980161 
L 383.714594 194.961525 
L 391.832755 194.942889 
L 399.950916 194.924253 
L 408.069077 194.905617 
L 416.187237 194.88698 
L 424.305398 194.868344 
L 432.423559 194.849708 
L 440.54172 194.831072 
L 448.659881 194.812436 
" clip-path="url(#pdf3adadd15)" style="fill: none; stroke: #a1756a; stroke-width: 1.5; stroke-linecap: square"/>
   </g>
   <g id="line2d_21">
    <path d="M 50.87 73.025221 
L 58.988161 73.006585 
L 67.106322 72.987949 
L 75.224482 72.969313 
L 83.342643 72.950677 
L 91.460804 72.932041 
L 99.578965 72.913404 
L 107.697126 72.894768 
L 115.815287 72.876132 
L 123.933447 72.857496 
L 132.051608 72.83886 
L 140.169769 72.820224 
L 148.28793 72.801588 
L 156.406091 72.782952 
L 164.524252 72.764316 
L 172.642412 72.74568 
L 180.760573 72.727044 
L 188.878734 72.708408 
L 196.996895 72.689772 
L 205.115056 72.671135 
L 213.233217 72.652499 
L 221.351377 72.633863 
L 229.469538 72.615227 
L 237.587699 72.596591 
L 245.70586 72.577955 
L 253.824021 72.559319 
L 261.942182 72.540683 
L 270.060342 72.522047 
L 278.178503 72.503411 
L 286.296664 72.484775 
L 294.414825 72.466139 
L 302.532986 72.447503 
L 310.651147 72.428867 
L 318.769307 72.41023 
L 326.887468 72.391594 
L 335.005629 72.372958 
L 343.12379 72.354322 
L 351.241951 72.335686 
L 359.360112 72.31705 
L 367.478272 72.298414 
L 375.596433 72.279778 
L 383.714594 72.261142 
L 391.832755 72.242506 
L 399.950916 72.22387 
L 408.069077 72.205234 
L 416.187237 72.186598 
L 424.305398 72.167961 
L 432.423559 72.149325 
L 440.54172 72.130689 
L 448.659881 72.112053 
" clip-path="url(#pdf3adadd15)" style="fill: none; stroke: #bcb7ff; stroke-width: 1.5; stroke-linecap: square"/>
   </g>
   <g id="line2d_22">
    <path d="M 50.87 126.227682 
L 58.988161 126.209046 
L 67.106322 126.19041 
L 75.224482 126.171774 
L 83.342643 126.153138 
L 91.460804 126.134502 
L 99.578965 126.115866 
L 107.697126 126.09723 
L 115.815287 126.078594 
L 123.933447 126.059958 
L 132.051608 126.041322 
L 140.169769 126.022686 
L 148.28793 126.00405 
L 156.406091 125.985414 
L 164.524252 125.966778 
L 172.642412 125.948142 
L 180.760573 125.929505 
L 188.878734 125.910869 
L 196.996895 125.892233 
L 205.115056 125.873597 
L 213.233217 125.854961 
L 221.351377 125.836325 
L 229.469538 125.817689 
L 237.587699 125.799053 
L 245.70586 125.780417 
L 253.824021 125.761781 
L 261.942182 125.743145 
L 270.060342 125.724509 
L 278.178503 125.705873 
L 286.296664 125.687237 
L 294.414825 125.668601 
L 302.532986 125.649964 
L 310.651147 125.631328 
L 318.769307 125.612692 
L 326.887468 125.594056 
L 335.005629 125.57542 
L 343.12379 125.556784 
L 351.241951 125.538148 
L 359.360112 125.519512 
L 367.478272 125.500876 
L 375.596433 125.48224 
L 383.714594 125.463604 
L 391.832755 125.444968 
L 399.950916 125.426332 
L 408.069077 125.407696 
L 416.187237 125.38906 
L 424.305398 125.370423 
L 432.423559 125.351787 
L 440.54172 125.333151 
L 448.659881 125.314515 
" clip-path="url(#pdf3adadd15)" style="fill: none; stroke: #95b578; stroke-width: 1.5; stroke-linecap: square"/>
   </g>
   <g id="line2d_23">
    <path d="M 50.87 86.709123 
L 58.988161 86.690487 
L 67.106322 86.671851 
L 75.224482 86.653215 
L 83.342643 86.634579 
L 91.460804 86.615943 
L 99.578965 86.597307 
L 107.697126 86.578671 
L 115.815287 86.560035 
L 123.933447 86.541399 
L 132.051608 86.522763 
L 140.169769 86.504127 
L 148.28793 86.485491 
L 156.406091 86.466855 
L 164.524252 86.448219 
L 172.642412 86.429583 
L 180.760573 86.410947 
L 188.878734 86.392311 
L 196.996895 86.373675 
L 205.115056 86.355039 
L 213.233217 86.336403 
L 221.351377 86.317767 
L 229.469538 86.299131 
L 237.587699 86.280495 
L 245.70586 86.261859 
L 253.824021 86.243223 
L 261.942182 86.224587 
L 270.060342 86.205951 
L 278.178503 86.187315 
L 286.296664 86.16868 
L 294.414825 86.150044 
L 302.532986 86.131408 
L 310.651147 86.112772 
L 318.769307 86.094136 
L 326.887468 86.0755 
L 335.005629 86.056864 
L 343.12379 86.038228 
L 351.241951 86.019592 
L 359.360112 86.000956 
L 367.478272 85.98232 
L 375.596433 85.963684 
L 383.714594 85.945048 
L 391.832755 85.926412 
L 399.950916 85.907776 
L 408.069077 85.88914 
L 416.187237 85.870504 
L 424.305398 85.851868 
L 432.423559 85.833232 
L 440.54172 85.814596 
L 448.659881 85.79596 
" clip-path="url(#pdf3adadd15)" style="fill: none; stroke: #c004b9; stroke-width: 1.5; stroke-linecap: square"/>
   </g>
   <g id="line2d_24">
    <path d="M 50.87 174.150933 
L 58.988161 174.132297 
L 67.106322 174.113661 
L 75.224482 174.095025 
L 83.342643 174.076389 
L 91.460804 174.057753 
L 99.578965 174.039117 
L 107.697126 174.020481 
L 115.815287 174.001845 
L 123.933447 173.983209 
L 132.051608 173.964573 
L 140.169769 173.945937 
L 148.28793 173.927301 
L 156.406091 173.908664 
L 164.524252 173.890028 
L 172.642412 173.871392 
L 180.760573 173.852756 
L 188.878734 173.83412 
L 196.996895 173.815484 
L 205.115056 173.796848 
L 213.233217 173.778212 
L 221.351377 173.759576 
L 229.469538 173.74094 
L 237.587699 173.722304 
L 245.70586 173.703668 
L 253.824021 173.685032 
L 261.942182 173.666396 
L 270.060342 173.64776 
L 278.178503 173.629124 
L 286.296664 173.610487 
L 294.414825 173.591851 
L 302.532986 173.573215 
L 310.651147 173.554579 
L 318.769307 173.535943 
L 326.887468 173.517307 
L 335.005629 173.498671 
L 343.12379 173.480035 
L 351.241951 173.461399 
L 359.360112 173.442763 
L 367.478272 173.424127 
L 375.596433 173.405491 
L 383.714594 173.386855 
L 391.832755 173.368219 
L 399.950916 173.349583 
L 408.069077 173.330947 
L 416.187237 173.31231 
L 424.305398 173.293674 
L 432.423559 173.275038 
L 440.54172 173.256402 
L 448.659881 173.237766 
" clip-path="url(#pdf3adadd15)" style="fill: none; stroke: #0774d8; stroke-width: 1.5; stroke-linecap: square"/>
   </g>
   <g id="line2d_25">
    <path d="M 50.87 115.235745 
L 58.988161 115.217109 
L 67.106322 115.198472 
L 75.224482 115.179836 
L 83.342643 115.1612 
L 91.460804 115.142564 
L 99.578965 115.123928 
L 107.697126 115.105292 
L 115.815287 115.086656 
L 123.933447 115.06802 
L 132.051608 115.049384 
L 140.169769 115.030748 
L 148.28793 115.012112 
L 156.406091 114.993476 
L 164.524252 114.97484 
L 172.642412 114.956204 
L 180.760573 114.937568 
L 188.878734 114.918932 
L 196.996895 114.900296 
L 205.115056 114.88166 
L 213.233217 114.863024 
L 221.351377 114.844388 
L 229.469538 114.825751 
L 237.587699 114.807115 
L 245.70586 114.788479 
L 253.824021 114.769843 
L 261.942182 114.751207 
L 270.060342 114.732571 
L 278.178503 114.713935 
L 286.296664 114.695299 
L 294.414825 114.676663 
L 302.532986 114.658027 
L 310.651147 114.639391 
L 318.769307 114.620755 
L 326.887468 114.602119 
L 335.005629 114.583483 
L 343.12379 114.564847 
L 351.241951 114.546211 
L 359.360112 114.527575 
L 367.478272 114.508939 
L 375.596433 114.490303 
L 383.714594 114.471667 
L 391.832755 114.45303 
L 399.950916 114.434394 
L 408.069077 114.415758 
L 416.187237 114.397122 
L 424.305398 114.378486 
L 432.423559 114.35985 
L 440.54172 114.341214 
L 448.659881 114.322578 
" clip-path="url(#pdf3adadd15)" style="fill: none; stroke: #8f7a00; stroke-width: 1.5; stroke-linecap: square"/>
   </g>
   <g id="line2d_26">
    <path d="M 50.87 154.321814 
L 58.988161 154.303178 
L 67.106322 154.284542 
L 75.224482 154.265906 
L 83.342643 154.247269 
L 91.460804 154.228633 
L 99.578965 154.209997 
L 107.697126 154.191361 
L 115.815287 154.172725 
L 123.933447 154.154089 
L 132.051608 154.135453 
L 140.169769 154.116817 
L 148.28793 154.098181 
L 156.406091 154.079545 
L 164.524252 154.060909 
L 172.642412 154.042273 
L 180.760573 154.023637 
L 188.878734 154.005001 
L 196.996895 153.986365 
L 205.115056 153.967729 
L 213.233217 153.949093 
L 221.351377 153.930457 
L 229.469538 153.911821 
L 237.587699 153.893184 
L 245.70586 153.874548 
L 253.824021 153.855912 
L 261.942182 153.837276 
L 270.060342 153.81864 
L 278.178503 153.800004 
L 286.296664 153.781368 
L 294.414825 153.762732 
L 302.532986 153.744096 
L 310.651147 153.72546 
L 318.769307 153.706824 
L 326.887468 153.688188 
L 335.005629 153.669552 
L 343.12379 153.650916 
L 351.241951 153.63228 
L 359.360112 153.613644 
L 367.478272 153.595008 
L 375.596433 153.576372 
L 383.714594 153.557735 
L 391.832755 153.539099 
L 399.950916 153.520463 
L 408.069077 153.501827 
L 416.187237 153.483191 
L 424.305398 153.464555 
L 432.423559 153.445919 
L 440.54172 153.427283 
L 448.659881 153.408647 
" clip-path="url(#pdf3adadd15)" style="fill: none; stroke: #ff7266; stroke-width: 1.5; stroke-linecap: square"/>
   </g>
   <g id="line2d_27">
    <path d="M 50.87 172.848175 
L 58.988161 172.829539 
L 67.106322 172.810903 
L 75.224482 172.792267 
L 83.342643 172.773631 
L 91.460804 172.754995 
L 99.578965 172.736359 
L 107.697126 172.717723 
L 115.815287 172.699087 
L 123.933447 172.68045 
L 132.051608 172.661814 
L 140.169769 172.643178 
L 148.28793 172.624542 
L 156.406091 172.605906 
L 164.524252 172.58727 
L 172.642412 172.568634 
L 180.760573 172.549998 
L 188.878734 172.531362 
L 196.996895 172.512726 
L 205.115056 172.49409 
L 213.233217 172.475454 
L 221.351377 172.456818 
L 229.469538 172.438182 
L 237.587699 172.419546 
L 245.70586 172.400909 
L 253.824021 172.382273 
L 261.942182 172.363637 
L 270.060342 172.345001 
L 278.178503 172.326365 
L 286.296664 172.307729 
L 294.414825 172.289093 
L 302.532986 172.270457 
L 310.651147 172.251821 
L 318.769307 172.233185 
L 326.887468 172.214549 
L 335.005629 172.195913 
L 343.12379 172.177277 
L 351.241951 172.158641 
L 359.360112 172.140005 
L 367.478272 172.121369 
L 375.596433 172.102732 
L 383.714594 172.084096 
L 391.832755 172.06546 
L 399.950916 172.046824 
L 408.069077 172.028188 
L 416.187237 172.009552 
L 424.305398 171.990916 
L 432.423559 171.97228 
L 440.54172 171.953644 
L 448.659881 171.935008 
" clip-path="url(#pdf3adadd15)" style="fill: none; stroke: #5e7e66; stroke-width: 1.5; stroke-linecap: square"/>
   </g>
   <g id="line2d_28">
    <path d="M 50.87 148.454895 
L 58.988161 148.436259 
L 67.106322 148.417623 
L 75.224482 148.398987 
L 83.342643 148.380351 
L 91.460804 148.361715 
L 99.578965 148.343079 
L 107.697126 148.324443 
L 115.815287 148.305807 
L 123.933447 148.287171 
L 132.051608 148.268535 
L 140.169769 148.249899 
L 148.28793 148.231263 
L 156.406091 148.212627 
L 164.524252 148.193991 
L 172.642412 148.175355 
L 180.760573 148.156719 
L 188.878734 148.138083 
L 196.996895 148.119447 
L 205.115056 148.100811 
L 213.233217 148.082175 
L 221.351377 148.063538 
L 229.469538 148.044902 
L 237.587699 148.026266 
L 245.70586 148.00763 
L 253.824021 147.988994 
L 261.942182 147.970358 
L 270.060342 147.951722 
L 278.178503 147.933086 
L 286.296664 147.91445 
L 294.414825 147.895814 
L 302.532986 147.877178 
L 310.651147 147.858542 
L 318.769307 147.839906 
L 326.887468 147.82127 
L 335.005629 147.802634 
L 343.12379 147.783998 
L 351.241951 147.765362 
L 359.360112 147.746726 
L 367.478272 147.72809 
L 375.596433 147.709454 
L 383.714594 147.690818 
L 391.832755 147.672182 
L 399.950916 147.653546 
L 408.069077 147.634909 
L 416.187237 147.616273 
L 424.305398 147.597637 
L 432.423559 147.579001 
L 440.54172 147.560365 
L 448.659881 147.541729 
" clip-path="url(#pdf3adadd15)" style="fill: none; stroke: #9be4ff; stroke-width: 1.5; stroke-linecap: square"/>
   </g>
   <g id="patch_3">
    <path d="M 50.87 303.64 
L 50.87 10.8 
" style="fill: none; stroke: #000000; stroke-width: 0.8; stroke-linejoin: miter; stroke-linecap: square"/>
   </g>
   <g id="patch_4">
    <path d="M 448.659881 303.64 
L 448.659881 10.8 
" style="fill: none; stroke: #000000; stroke-width: 0.8; stroke-linejoin: miter; stroke-linecap: square"/>
   </g>
   <g id="patch_5">
    <path d="M 50.87 303.64 
L 448.659881 303.64 
" style="fill: none; stroke: #000000; stroke-width: 0.8; stroke-linejoin: miter; stroke-linecap: square"/>
   </g>
   <g id="patch_6">
    <path d="M 50.87 10.8 
L 448.659881 10.8 
" style="fill: none; stroke: #000000; stroke-width: 0.8; stroke-linejoin: miter; stroke-linecap: square"/>
   </g>
   <g id="legend_1">
    <g id="patch_7">
     <path d="M 57.87 298.64 
L 167.143438 298.64 
Q 169.143438 298.64 169.143438 296.64 
L 169.143438 165.536875 
Q 169.143438 163.536875 167.143438 163.536875 
L 57.87 163.536875 
Q 55.87 163.536875 55.87 165.536875 
L 55.87 296.64 
Q 55.87 298.64 57.87 298.64 
z
" style="fill: #ffffff; opacity: 0.8; stroke: #cccccc; stroke-linejoin: miter"/>
    </g>
    <g id="line2d_29">
     <path d="M 59.87 171.635312 
L 69.87 171.635312 
L 79.87 171.635312 
" style="fill: none; stroke: #d70000; stroke-width: 1.5; stroke-linecap: square"/>
    </g>
    <g id="text_13">
     <!-- AT -->
     <g transform="translate(87.87 175.135312)scale(0.1 -0.1)">
      <defs>
       <path id="DejaVuSans-41" d="M 2188 4044 
L 1331 1722 
L 3047 1722 
L 2188 4044 
z
M 1831 4666 
L 2547 4666 
L 4325 0 
L 3669 0 
L 3244 1197 
L 1141 1197 
L 716 0 
L 50 0 
L 1831 4666 
z
" transform="scale(0.015625)"/>
       <path id="DejaVuSans-54" d="M -19 4666 
L 3928 4666 
L 3928 4134 
L 2272 4134 
L 2272 0 
L 1638 0 
L 1638 4134 
L -19 4134 
L -19 4666 
z
" transform="scale(0.015625)"/>
      </defs>
      <use xlink:href="#DejaVuSans-41"/>
      <use xlink:href="#DejaVuSans-54" x="60.658203"/>
     </g>
    </g>
    <g id="line2d_30">
     <path d="M 59.87 186.313438 
L 69.87 186.313438 
L 79.87 186.313438 
" style="fill: none; stroke: #8c3cff; stroke-width: 1.5; stroke-linecap: square"/>
    </g>
    <g id="text_14">
     <!-- BE -->
     <g transform="translate(87.87 189.813438)scale(0.1 -0.1)">
      <defs>
       <path id="DejaVuSans-42" d="M 1259 2228 
L 1259 519 
L 2272 519 
Q 2781 519 3026 730 
Q 3272 941 3272 1375 
Q 3272 1813 3026 2020 
Q 2781 2228 2272 2228 
L 1259 2228 
z
M 1259 4147 
L 1259 2741 
L 2194 2741 
Q 2656 2741 2882 2914 
Q 3109 3088 3109 3444 
Q 3109 3797 2882 3972 
Q 2656 4147 2194 4147 
L 1259 4147 
z
M 628 4666 
L 2241 4666 
Q 2963 4666 3353 4366 
Q 3744 4066 3744 3513 
Q 3744 3084 3544 2831 
Q 3344 2578 2956 2516 
Q 3422 2416 3680 2098 
Q 3938 1781 3938 1306 
Q 3938 681 3513 340 
Q 3088 0 2303 0 
L 628 0 
L 628 4666 
z
" transform="scale(0.015625)"/>
       <path id="DejaVuSans-45" d="M 628 4666 
L 3578 4666 
L 3578 4134 
L 1259 4134 
L 1259 2753 
L 3481 2753 
L 3481 2222 
L 1259 2222 
L 1259 531 
L 3634 531 
L 3634 0 
L 628 0 
L 628 4666 
z
" transform="scale(0.015625)"/>
      </defs>
      <use xlink:href="#DejaVuSans-42"/>
      <use xlink:href="#DejaVuSans-45" x="68.603516"/>
     </g>
    </g>
    <g id="line2d_31">
     <path d="M 59.87 200.991562 
L 69.87 200.991562 
L 79.87 200.991562 
" style="fill: none; stroke: #028800; stroke-width: 1.5; stroke-linecap: square"/>
    </g>
    <g id="text_15">
     <!-- BG -->
     <g transform="translate(87.87 204.491562)scale(0.1 -0.1)">
      <defs>
       <path id="DejaVuSans-47" d="M 3809 666 
L 3809 1919 
L 2778 1919 
L 2778 2438 
L 4434 2438 
L 4434 434 
Q 4069 175 3628 42 
Q 3188 -91 2688 -91 
Q 1594 -91 976 548 
Q 359 1188 359 2328 
Q 359 3472 976 4111 
Q 1594 4750 2688 4750 
Q 3144 4750 3555 4637 
Q 3966 4525 4313 4306 
L 4313 3634 
Q 3963 3931 3569 4081 
Q 3175 4231 2741 4231 
Q 1884 4231 1454 3753 
Q 1025 3275 1025 2328 
Q 1025 1384 1454 906 
Q 1884 428 2741 428 
Q 3075 428 3337 486 
Q 3600 544 3809 666 
z
" transform="scale(0.015625)"/>
      </defs>
      <use xlink:href="#DejaVuSans-42"/>
      <use xlink:href="#DejaVuSans-47" x="66.853516"/>
     </g>
    </g>
    <g id="line2d_32">
     <path d="M 59.87 215.669688 
L 69.87 215.669688 
L 79.87 215.669688 
" style="fill: none; stroke: #00acc7; stroke-width: 1.5; stroke-linecap: square"/>
    </g>
    <g id="text_16">
     <!-- CY -->
     <g transform="translate(87.87 219.169688)scale(0.1 -0.1)">
      <defs>
       <path id="DejaVuSans-43" d="M 4122 4306 
L 4122 3641 
Q 3803 3938 3442 4084 
Q 3081 4231 2675 4231 
Q 1875 4231 1450 3742 
Q 1025 3253 1025 2328 
Q 1025 1406 1450 917 
Q 1875 428 2675 428 
Q 3081 428 3442 575 
Q 3803 722 4122 1019 
L 4122 359 
Q 3791 134 3420 21 
Q 3050 -91 2638 -91 
Q 1578 -91 968 557 
Q 359 1206 359 2328 
Q 359 3453 968 4101 
Q 1578 4750 2638 4750 
Q 3056 4750 3426 4639 
Q 3797 4528 4122 4306 
z
" transform="scale(0.015625)"/>
       <path id="DejaVuSans-59" d="M -13 4666 
L 666 4666 
L 1959 2747 
L 3244 4666 
L 3922 4666 
L 2272 2222 
L 2272 0 
L 1638 0 
L 1638 2222 
L -13 4666 
z
" transform="scale(0.015625)"/>
      </defs>
      <use xlink:href="#DejaVuSans-43"/>
      <use xlink:href="#DejaVuSans-59" x="68.074219"/>
     </g>
    </g>
    <g id="line2d_33">
     <path d="M 59.87 230.347813 
L 69.87 230.347813 
L 79.87 230.347813 
" style="fill: none; stroke: #ff7fd1; stroke-width: 1.5; stroke-linecap: square"/>
    </g>
    <g id="text_17">
     <!-- DE -->
     <g transform="translate(87.87 233.847813)scale(0.1 -0.1)">
      <defs>
       <path id="DejaVuSans-44" d="M 1259 4147 
L 1259 519 
L 2022 519 
Q 2988 519 3436 956 
Q 3884 1394 3884 2338 
Q 3884 3275 3436 3711 
Q 2988 4147 2022 4147 
L 1259 4147 
z
M 628 4666 
L 1925 4666 
Q 3281 4666 3915 4102 
Q 4550 3538 4550 2338 
Q 4550 1131 3912 565 
Q 3275 0 1925 0 
L 628 0 
L 628 4666 
z
" transform="scale(0.015625)"/>
      </defs>
      <use xlink:href="#DejaVuSans-44"/>
      <use xlink:href="#DejaVuSans-45" x="77.001953"/>
     </g>
    </g>
    <g id="line2d_34">
     <path d="M 59.87 245.025937 
L 69.87 245.025937 
L 79.87 245.025937 
" style="fill: none; stroke: #6c004f; stroke-width: 1.5; stroke-linecap: square"/>
    </g>
    <g id="text_18">
     <!-- DK -->
     <g transform="translate(87.87 248.525937)scale(0.1 -0.1)">
      <defs>
       <path id="DejaVuSans-4b" d="M 628 4666 
L 1259 4666 
L 1259 2694 
L 3353 4666 
L 4166 4666 
L 1850 2491 
L 4331 0 
L 3500 0 
L 1259 2247 
L 1259 0 
L 628 0 
L 628 4666 
z
" transform="scale(0.015625)"/>
      </defs>
      <use xlink:href="#DejaVuSans-44"/>
      <use xlink:href="#DejaVuSans-4b" x="77.001953"/>
     </g>
    </g>
    <g id="line2d_35">
     <path d="M 59.87 259.704062 
L 69.87 259.704062 
L 79.87 259.704062 
" style="fill: none; stroke: #583b00; stroke-width: 1.5; stroke-linecap: square"/>
    </g>
    <g id="text_19">
     <!-- EL -->
     <g transform="translate(87.87 263.204062)scale(0.1 -0.1)">
      <defs>
       <path id="DejaVuSans-4c" d="M 628 4666 
L 1259 4666 
L 1259 531 
L 3531 531 
L 3531 0 
L 628 0 
L 628 4666 
z
" transform="scale(0.015625)"/>
      </defs>
      <use xlink:href="#DejaVuSans-45"/>
      <use xlink:href="#DejaVuSans-4c" x="63.183594"/>
     </g>
    </g>
    <g id="line2d_36">
     <path d="M 59.87 274.382187 
L 69.87 274.382187 
L 79.87 274.382187 
" style="fill: none; stroke: #005759; stroke-width: 1.5; stroke-linecap: square"/>
    </g>
    <g id="text_20">
     <!-- ES -->
     <g transform="translate(87.87 277.882187)scale(0.1 -0.1)">
      <defs>
       <path id="DejaVuSans-53" d="M 3425 4513 
L 3425 3897 
Q 3066 4069 2747 4153 
Q 2428 4238 2131 4238 
Q 1616 4238 1336 4038 
Q 1056 3838 1056 3469 
Q 1056 3159 1242 3001 
Q 1428 2844 1947 2747 
L 2328 2669 
Q 3034 2534 3370 2195 
Q 3706 1856 3706 1288 
Q 3706 609 3251 259 
Q 2797 -91 1919 -91 
Q 1588 -91 1214 -16 
Q 841 59 441 206 
L 441 856 
Q 825 641 1194 531 
Q 1563 422 1919 422 
Q 2459 422 2753 634 
Q 3047 847 3047 1241 
Q 3047 1584 2836 1778 
Q 2625 1972 2144 2069 
L 1759 2144 
Q 1053 2284 737 2584 
Q 422 2884 422 3419 
Q 422 4038 858 4394 
Q 1294 4750 2059 4750 
Q 2388 4750 2728 4690 
Q 3069 4631 3425 4513 
z
" transform="scale(0.015625)"/>
      </defs>
      <use xlink:href="#DejaVuSans-45"/>
      <use xlink:href="#DejaVuSans-53" x="63.183594"/>
     </g>
    </g>
    <g id="line2d_37">
     <path d="M 59.87 289.060313 
L 69.87 289.060313 
L 79.87 289.060313 
" style="fill: none; stroke: #0000dd; stroke-width: 1.5; stroke-linecap: square"/>
    </g>
    <g id="text_21">
     <!-- FI -->
     <g transform="translate(87.87 292.560313)scale(0.1 -0.1)">
      <defs>
       <path id="DejaVuSans-46" d="M 628 4666 
L 3309 4666 
L 3309 4134 
L 1259 4134 
L 1259 2759 
L 3109 2759 
L 3109 2228 
L 1259 2228 
L 1259 0 
L 628 0 
L 628 4666 
z
" transform="scale(0.015625)"/>
       <path id="DejaVuSans-49" d="M 628 4666 
L 1259 4666 
L 1259 0 
L 628 0 
L 628 4666 
z
" transform="scale(0.015625)"/>
      </defs>
      <use xlink:href="#DejaVuSans-46"/>
      <use xlink:href="#DejaVuSans-49" x="57.519531"/>
     </g>
    </g>
    <g id="line2d_38">
     <path d="M 122.304375 171.635312 
L 132.304375 171.635312 
L 142.304375 171.635312 
" style="fill: none; stroke: #a1756a; stroke-width: 1.5; stroke-linecap: square"/>
    </g>
    <g id="text_22">
     <!-- HU -->
     <g transform="translate(150.304375 175.135312)scale(0.1 -0.1)">
      <use xlink:href="#DejaVuSans-48"/>
      <use xlink:href="#DejaVuSans-55" x="75.195312"/>
     </g>
    </g>
    <g id="line2d_39">
     <path d="M 122.304375 186.313438 
L 132.304375 186.313438 
L 142.304375 186.313438 
" style="fill: none; stroke: #bcb7ff; stroke-width: 1.5; stroke-linecap: square"/>
    </g>
    <g id="text_23">
     <!-- IE -->
     <g transform="translate(150.304375 189.813438)scale(0.1 -0.1)">
      <use xlink:href="#DejaVuSans-49"/>
      <use xlink:href="#DejaVuSans-45" x="29.492188"/>
     </g>
    </g>
    <g id="line2d_40">
     <path d="M 122.304375 200.991562 
L 132.304375 200.991562 
L 142.304375 200.991562 
" style="fill: none; stroke: #95b578; stroke-width: 1.5; stroke-linecap: square"/>
    </g>
    <g id="text_24">
     <!-- IT -->
     <g transform="translate(150.304375 204.491562)scale(0.1 -0.1)">
      <use xlink:href="#DejaVuSans-49"/>
      <use xlink:href="#DejaVuSans-54" x="29.492188"/>
     </g>
    </g>
    <g id="line2d_41">
     <path d="M 122.304375 215.669688 
L 132.304375 215.669688 
L 142.304375 215.669688 
" style="fill: none; stroke: #c004b9; stroke-width: 1.5; stroke-linecap: square"/>
    </g>
    <g id="text_25">
     <!-- LT -->
     <g transform="translate(150.304375 219.169688)scale(0.1 -0.1)">
      <use xlink:href="#DejaVuSans-4c"/>
      <use xlink:href="#DejaVuSans-54" x="41.962891"/>
     </g>
    </g>
    <g id="line2d_42">
     <path d="M 122.304375 230.347813 
L 132.304375 230.347813 
L 142.304375 230.347813 
" style="fill: none; stroke: #0774d8; stroke-width: 1.5; stroke-linecap: square"/>
    </g>
    <g id="text_26">
     <!-- MT -->
     <g transform="translate(150.304375 233.847813)scale(0.1 -0.1)">
      <defs>
       <path id="DejaVuSans-4d" d="M 628 4666 
L 1569 4666 
L 2759 1491 
L 3956 4666 
L 4897 4666 
L 4897 0 
L 4281 0 
L 4281 4097 
L 3078 897 
L 2444 897 
L 1241 4097 
L 1241 0 
L 628 0 
L 628 4666 
z
" transform="scale(0.015625)"/>
      </defs>
      <use xlink:href="#DejaVuSans-4d"/>
      <use xlink:href="#DejaVuSans-54" x="86.279297"/>
     </g>
    </g>
    <g id="line2d_43">
     <path d="M 122.304375 245.025937 
L 132.304375 245.025937 
L 142.304375 245.025937 
" style="fill: none; stroke: #8f7a00; stroke-width: 1.5; stroke-linecap: square"/>
    </g>
    <g id="text_27">
     <!-- PT -->
     <g transform="translate(150.304375 248.525937)scale(0.1 -0.1)">
      <defs>
       <path id="DejaVuSans-50" d="M 1259 4147 
L 1259 2394 
L 2053 2394 
Q 2494 2394 2734 2622 
Q 2975 2850 2975 3272 
Q 2975 3691 2734 3919 
Q 2494 4147 2053 4147 
L 1259 4147 
z
M 628 4666 
L 2053 4666 
Q 2838 4666 3239 4311 
Q 3641 3956 3641 3272 
Q 3641 2581 3239 2228 
Q 2838 1875 2053 1875 
L 1259 1875 
L 1259 0 
L 628 0 
L 628 4666 
z
" transform="scale(0.015625)"/>
      </defs>
      <use xlink:href="#DejaVuSans-50"/>
      <use xlink:href="#DejaVuSans-54" x="60.302734"/>
     </g>
    </g>
    <g id="line2d_44">
     <path d="M 122.304375 259.704062 
L 132.304375 259.704062 
L 142.304375 259.704062 
" style="fill: none; stroke: #ff7266; stroke-width: 1.5; stroke-linecap: square"/>
    </g>
    <g id="text_28">
     <!-- RO -->
     <g transform="translate(150.304375 263.204062)scale(0.1 -0.1)">
      <defs>
       <path id="DejaVuSans-4f" d="M 2522 4238 
Q 1834 4238 1429 3725 
Q 1025 3213 1025 2328 
Q 1025 1447 1429 934 
Q 1834 422 2522 422 
Q 3209 422 3611 934 
Q 4013 1447 4013 2328 
Q 4013 3213 3611 3725 
Q 3209 4238 2522 4238 
z
M 2522 4750 
Q 3503 4750 4090 4092 
Q 4678 3434 4678 2328 
Q 4678 1225 4090 567 
Q 3503 -91 2522 -91 
Q 1538 -91 948 565 
Q 359 1222 359 2328 
Q 359 3434 948 4092 
Q 1538 4750 2522 4750 
z
" transform="scale(0.015625)"/>
      </defs>
      <use xlink:href="#DejaVuSans-52"/>
      <use xlink:href="#DejaVuSans-4f" x="69.482422"/>
     </g>
    </g>
    <g id="line2d_45">
     <path d="M 122.304375 274.382187 
L 132.304375 274.382187 
L 142.304375 274.382187 
" style="fill: none; stroke: #5e7e66; stroke-width: 1.5; stroke-linecap: square"/>
    </g>
    <g id="text_29">
     <!-- SI -->
     <g transform="translate(150.304375 277.882187)scale(0.1 -0.1)">
      <use xlink:href="#DejaVuSans-53"/>
      <use xlink:href="#DejaVuSans-49" x="63.476562"/>
     </g>
    </g>
    <g id="line2d_46">
     <path d="M 122.304375 289.060313 
L 132.304375 289.060313 
L 142.304375 289.060313 
" style="fill: none; stroke: #9be4ff; stroke-width: 1.5; stroke-linecap: square"/>
    </g>
    <g id="text_30">
     <!-- SK -->
     <g transform="translate(150.304375 292.560313)scale(0.1 -0.1)">
      <use xlink:href="#DejaVuSans-53"/>
      <use xlink:href="#DejaVuSans-4b" x="63.476562"/>
     </g>
    </g>
   </g>
  </g>
 </g>
 <defs>
  <clipPath id="pdf3adadd15">
   <rect x="50.87" y="10.8" width="397.789881" height="292.84"/>
  </clipPath>
 </defs>
</svg>
