<?xml version="1.0" encoding="utf-8" standalone="no"?>
<!DOCTYPE svg PUBLIC "-//W3C//DTD SVG 1.1//EN"
  "http://www.w3.org/Graphics/SVG/1.1/DTD/svg11.dtd">
<svg xmlns:xlink="http://www.w3.org/1999/xlink" width="460.8pt" height="345.6pt" viewBox="0 0 460.8 345.6" xmlns="http://www.w3.org/2000/svg" version="1.1">
 <metadata>
  <rdf:RDF xmlns:dc="http://purl.org/dc/elements/1.1/" xmlns:cc="http://creativecommons.org/ns#" xmlns:rdf="http://www.w3.org/1999/02/22-rdf-syntax-ns#">
   <cc:Work>
    <dc:type rdf:resource="http://purl.org/dc/dcmitype/StillImage"/>
    <dc:date>2024-02-02T17:08:47.176024</dc:date>
    <dc:format>image/svg+xml</dc:format>
    <dc:creator>
     <cc:Agent>
      <dc:title>Matplotlib v3.5.1, https://matplotlib.org/</dc:title>
     </cc:Agent>
    </dc:creator>
   </cc:Work>
  </rdf:RDF>
 </metadata>
 <defs>
  <style type="text/css">*{stroke-linejoin: round; stroke-linecap: butt}</style>
 </defs>
 <g id="figure_1">
  <g id="patch_1">
   <path d="M 0 345.6 
L 460.8 345.6 
L 460.8 0 
L 0 0 
L 0 345.6 
z
" style="fill: none"/>
  </g>
  <g id="axes_1">
   <g id="patch_2">
    <path d="M 57.17 303.64 
L 446.839908 303.64 
L 446.839908 10.8 
L 57.17 10.8 
L 57.17 303.64 
z
" style="fill: none"/>
   </g>
   <g id="matplotlib.axis_1">
    <g id="xtick_1">
     <g id="line2d_1">
      <defs>
       <path id="m7f40fc9ab5" d="M 0 0 
L 0 3.5 
" style="stroke: #000000; stroke-width: 0.8"/>
      </defs>
      <g>
       <use xlink:href="#m7f40fc9ab5" x="73.939098" y="303.64" style="stroke: #000000; stroke-width: 0.8"/>
      </g>
     </g>
     <g id="text_1">
      <!-- 40 -->
      <g transform="translate(67.576598 318.238437)scale(0.1 -0.1)">
       <defs>
        <path id="DejaVuSans-34" d="M 2419 4116 
L 825 1625 
L 2419 1625 
L 2419 4116 
z
M 2253 4666 
L 3047 4666 
L 3047 1625 
L 3713 1625 
L 3713 1100 
L 3047 1100 
L 3047 0 
L 2419 0 
L 2419 1100 
L 313 1100 
L 313 1709 
L 2253 4666 
z
" transform="scale(0.015625)"/>
        <path id="DejaVuSans-30" d="M 2034 4250 
Q 1547 4250 1301 3770 
Q 1056 3291 1056 2328 
Q 1056 1369 1301 889 
Q 1547 409 2034 409 
Q 2525 409 2770 889 
Q 3016 1369 3016 2328 
Q 3016 3291 2770 3770 
Q 2525 4250 2034 4250 
z
M 2034 4750 
Q 2819 4750 3233 4129 
Q 3647 3509 3647 2328 
Q 3647 1150 3233 529 
Q 2819 -91 2034 -91 
Q 1250 -91 836 529 
Q 422 1150 422 2328 
Q 422 3509 836 4129 
Q 1250 4750 2034 4750 
z
" transform="scale(0.015625)"/>
       </defs>
       <use xlink:href="#DejaVuSans-34"/>
       <use xlink:href="#DejaVuSans-30" x="63.623047"/>
      </g>
     </g>
    </g>
    <g id="xtick_2">
     <g id="line2d_2">
      <g>
       <use xlink:href="#m7f40fc9ab5" x="119.693798" y="303.64" style="stroke: #000000; stroke-width: 0.8"/>
      </g>
     </g>
     <g id="text_2">
      <!-- 60 -->
      <g transform="translate(113.331298 318.238437)scale(0.1 -0.1)">
       <defs>
        <path id="DejaVuSans-36" d="M 2113 2584 
Q 1688 2584 1439 2293 
Q 1191 2003 1191 1497 
Q 1191 994 1439 701 
Q 1688 409 2113 409 
Q 2538 409 2786 701 
Q 3034 994 3034 1497 
Q 3034 2003 2786 2293 
Q 2538 2584 2113 2584 
z
M 3366 4563 
L 3366 3988 
Q 3128 4100 2886 4159 
Q 2644 4219 2406 4219 
Q 1781 4219 1451 3797 
Q 1122 3375 1075 2522 
Q 1259 2794 1537 2939 
Q 1816 3084 2150 3084 
Q 2853 3084 3261 2657 
Q 3669 2231 3669 1497 
Q 3669 778 3244 343 
Q 2819 -91 2113 -91 
Q 1303 -91 875 529 
Q 447 1150 447 2328 
Q 447 3434 972 4092 
Q 1497 4750 2381 4750 
Q 2619 4750 2861 4703 
Q 3103 4656 3366 4563 
z
" transform="scale(0.015625)"/>
       </defs>
       <use xlink:href="#DejaVuSans-36"/>
       <use xlink:href="#DejaVuSans-30" x="63.623047"/>
      </g>
     </g>
    </g>
    <g id="xtick_3">
     <g id="line2d_3">
      <g>
       <use xlink:href="#m7f40fc9ab5" x="165.448499" y="303.64" style="stroke: #000000; stroke-width: 0.8"/>
      </g>
     </g>
     <g id="text_3">
      <!-- 80 -->
      <g transform="translate(159.085999 318.238437)scale(0.1 -0.1)">
       <defs>
        <path id="DejaVuSans-38" d="M 2034 2216 
Q 1584 2216 1326 1975 
Q 1069 1734 1069 1313 
Q 1069 891 1326 650 
Q 1584 409 2034 409 
Q 2484 409 2743 651 
Q 3003 894 3003 1313 
Q 3003 1734 2745 1975 
Q 2488 2216 2034 2216 
z
M 1403 2484 
Q 997 2584 770 2862 
Q 544 3141 544 3541 
Q 544 4100 942 4425 
Q 1341 4750 2034 4750 
Q 2731 4750 3128 4425 
Q 3525 4100 3525 3541 
Q 3525 3141 3298 2862 
Q 3072 2584 2669 2484 
Q 3125 2378 3379 2068 
Q 3634 1759 3634 1313 
Q 3634 634 3220 271 
Q 2806 -91 2034 -91 
Q 1263 -91 848 271 
Q 434 634 434 1313 
Q 434 1759 690 2068 
Q 947 2378 1403 2484 
z
M 1172 3481 
Q 1172 3119 1398 2916 
Q 1625 2713 2034 2713 
Q 2441 2713 2670 2916 
Q 2900 3119 2900 3481 
Q 2900 3844 2670 4047 
Q 2441 4250 2034 4250 
Q 1625 4250 1398 4047 
Q 1172 3844 1172 3481 
z
" transform="scale(0.015625)"/>
       </defs>
       <use xlink:href="#DejaVuSans-38"/>
       <use xlink:href="#DejaVuSans-30" x="63.623047"/>
      </g>
     </g>
    </g>
    <g id="xtick_4">
     <g id="line2d_4">
      <g>
       <use xlink:href="#m7f40fc9ab5" x="211.2032" y="303.64" style="stroke: #000000; stroke-width: 0.8"/>
      </g>
     </g>
     <g id="text_4">
      <!-- 100 -->
      <g transform="translate(201.65945 318.238437)scale(0.1 -0.1)">
       <defs>
        <path id="DejaVuSans-31" d="M 794 531 
L 1825 531 
L 1825 4091 
L 703 3866 
L 703 4441 
L 1819 4666 
L 2450 4666 
L 2450 531 
L 3481 531 
L 3481 0 
L 794 0 
L 794 531 
z
" transform="scale(0.015625)"/>
       </defs>
       <use xlink:href="#DejaVuSans-31"/>
       <use xlink:href="#DejaVuSans-30" x="63.623047"/>
       <use xlink:href="#DejaVuSans-30" x="127.246094"/>
      </g>
     </g>
    </g>
    <g id="xtick_5">
     <g id="line2d_5">
      <g>
       <use xlink:href="#m7f40fc9ab5" x="256.9579" y="303.64" style="stroke: #000000; stroke-width: 0.8"/>
      </g>
     </g>
     <g id="text_5">
      <!-- 120 -->
      <g transform="translate(247.41415 318.238437)scale(0.1 -0.1)">
       <defs>
        <path id="DejaVuSans-32" d="M 1228 531 
L 3431 531 
L 3431 0 
L 469 0 
L 469 531 
Q 828 903 1448 1529 
Q 2069 2156 2228 2338 
Q 2531 2678 2651 2914 
Q 2772 3150 2772 3378 
Q 2772 3750 2511 3984 
Q 2250 4219 1831 4219 
Q 1534 4219 1204 4116 
Q 875 4013 500 3803 
L 500 4441 
Q 881 4594 1212 4672 
Q 1544 4750 1819 4750 
Q 2544 4750 2975 4387 
Q 3406 4025 3406 3419 
Q 3406 3131 3298 2873 
Q 3191 2616 2906 2266 
Q 2828 2175 2409 1742 
Q 1991 1309 1228 531 
z
" transform="scale(0.015625)"/>
       </defs>
       <use xlink:href="#DejaVuSans-31"/>
       <use xlink:href="#DejaVuSans-32" x="63.623047"/>
       <use xlink:href="#DejaVuSans-30" x="127.246094"/>
      </g>
     </g>
    </g>
    <g id="xtick_6">
     <g id="line2d_6">
      <g>
       <use xlink:href="#m7f40fc9ab5" x="302.712601" y="303.64" style="stroke: #000000; stroke-width: 0.8"/>
      </g>
     </g>
     <g id="text_6">
      <!-- 140 -->
      <g transform="translate(293.168851 318.238437)scale(0.1 -0.1)">
       <use xlink:href="#DejaVuSans-31"/>
       <use xlink:href="#DejaVuSans-34" x="63.623047"/>
       <use xlink:href="#DejaVuSans-30" x="127.246094"/>
      </g>
     </g>
    </g>
    <g id="xtick_7">
     <g id="line2d_7">
      <g>
       <use xlink:href="#m7f40fc9ab5" x="348.467301" y="303.64" style="stroke: #000000; stroke-width: 0.8"/>
      </g>
     </g>
     <g id="text_7">
      <!-- 160 -->
      <g transform="translate(338.923551 318.238437)scale(0.1 -0.1)">
       <use xlink:href="#DejaVuSans-31"/>
       <use xlink:href="#DejaVuSans-36" x="63.623047"/>
       <use xlink:href="#DejaVuSans-30" x="127.246094"/>
      </g>
     </g>
    </g>
    <g id="xtick_8">
     <g id="line2d_8">
      <g>
       <use xlink:href="#m7f40fc9ab5" x="394.222002" y="303.64" style="stroke: #000000; stroke-width: 0.8"/>
      </g>
     </g>
     <g id="text_8">
      <!-- 180 -->
      <g transform="translate(384.678252 318.238437)scale(0.1 -0.1)">
       <use xlink:href="#DejaVuSans-31"/>
       <use xlink:href="#DejaVuSans-38" x="63.623047"/>
       <use xlink:href="#DejaVuSans-30" x="127.246094"/>
      </g>
     </g>
    </g>
    <g id="xtick_9">
     <g id="line2d_9">
      <g>
       <use xlink:href="#m7f40fc9ab5" x="439.976703" y="303.64" style="stroke: #000000; stroke-width: 0.8"/>
      </g>
     </g>
     <g id="text_9">
      <!-- 200 -->
      <g transform="translate(430.432953 318.238437)scale(0.1 -0.1)">
       <use xlink:href="#DejaVuSans-32"/>
       <use xlink:href="#DejaVuSans-30" x="63.623047"/>
       <use xlink:href="#DejaVuSans-30" x="127.246094"/>
      </g>
     </g>
    </g>
    <g id="text_10">
     <!-- GDP (Purchasing Power Standard, % EU average) -->
     <g transform="translate(128.981516 331.916562)scale(0.1 -0.1)">
      <defs>
       <path id="DejaVuSans-47" d="M 3809 666 
L 3809 1919 
L 2778 1919 
L 2778 2438 
L 4434 2438 
L 4434 434 
Q 4069 175 3628 42 
Q 3188 -91 2688 -91 
Q 1594 -91 976 548 
Q 359 1188 359 2328 
Q 359 3472 976 4111 
Q 1594 4750 2688 4750 
Q 3144 4750 3555 4637 
Q 3966 4525 4313 4306 
L 4313 3634 
Q 3963 3931 3569 4081 
Q 3175 4231 2741 4231 
Q 1884 4231 1454 3753 
Q 1025 3275 1025 2328 
Q 1025 1384 1454 906 
Q 1884 428 2741 428 
Q 3075 428 3337 486 
Q 3600 544 3809 666 
z
" transform="scale(0.015625)"/>
       <path id="DejaVuSans-44" d="M 1259 4147 
L 1259 519 
L 2022 519 
Q 2988 519 3436 956 
Q 3884 1394 3884 2338 
Q 3884 3275 3436 3711 
Q 2988 4147 2022 4147 
L 1259 4147 
z
M 628 4666 
L 1925 4666 
Q 3281 4666 3915 4102 
Q 4550 3538 4550 2338 
Q 4550 1131 3912 565 
Q 3275 0 1925 0 
L 628 0 
L 628 4666 
z
" transform="scale(0.015625)"/>
       <path id="DejaVuSans-50" d="M 1259 4147 
L 1259 2394 
L 2053 2394 
Q 2494 2394 2734 2622 
Q 2975 2850 2975 3272 
Q 2975 3691 2734 3919 
Q 2494 4147 2053 4147 
L 1259 4147 
z
M 628 4666 
L 2053 4666 
Q 2838 4666 3239 4311 
Q 3641 3956 3641 3272 
Q 3641 2581 3239 2228 
Q 2838 1875 2053 1875 
L 1259 1875 
L 1259 0 
L 628 0 
L 628 4666 
z
" transform="scale(0.015625)"/>
       <path id="DejaVuSans-20" transform="scale(0.015625)"/>
       <path id="DejaVuSans-28" d="M 1984 4856 
Q 1566 4138 1362 3434 
Q 1159 2731 1159 2009 
Q 1159 1288 1364 580 
Q 1569 -128 1984 -844 
L 1484 -844 
Q 1016 -109 783 600 
Q 550 1309 550 2009 
Q 550 2706 781 3412 
Q 1013 4119 1484 4856 
L 1984 4856 
z
" transform="scale(0.015625)"/>
       <path id="DejaVuSans-75" d="M 544 1381 
L 544 3500 
L 1119 3500 
L 1119 1403 
Q 1119 906 1312 657 
Q 1506 409 1894 409 
Q 2359 409 2629 706 
Q 2900 1003 2900 1516 
L 2900 3500 
L 3475 3500 
L 3475 0 
L 2900 0 
L 2900 538 
Q 2691 219 2414 64 
Q 2138 -91 1772 -91 
Q 1169 -91 856 284 
Q 544 659 544 1381 
z
M 1991 3584 
L 1991 3584 
z
" transform="scale(0.015625)"/>
       <path id="DejaVuSans-72" d="M 2631 2963 
Q 2534 3019 2420 3045 
Q 2306 3072 2169 3072 
Q 1681 3072 1420 2755 
Q 1159 2438 1159 1844 
L 1159 0 
L 581 0 
L 581 3500 
L 1159 3500 
L 1159 2956 
Q 1341 3275 1631 3429 
Q 1922 3584 2338 3584 
Q 2397 3584 2469 3576 
Q 2541 3569 2628 3553 
L 2631 2963 
z
" transform="scale(0.015625)"/>
       <path id="DejaVuSans-63" d="M 3122 3366 
L 3122 2828 
Q 2878 2963 2633 3030 
Q 2388 3097 2138 3097 
Q 1578 3097 1268 2742 
Q 959 2388 959 1747 
Q 959 1106 1268 751 
Q 1578 397 2138 397 
Q 2388 397 2633 464 
Q 2878 531 3122 666 
L 3122 134 
Q 2881 22 2623 -34 
Q 2366 -91 2075 -91 
Q 1284 -91 818 406 
Q 353 903 353 1747 
Q 353 2603 823 3093 
Q 1294 3584 2113 3584 
Q 2378 3584 2631 3529 
Q 2884 3475 3122 3366 
z
" transform="scale(0.015625)"/>
       <path id="DejaVuSans-68" d="M 3513 2113 
L 3513 0 
L 2938 0 
L 2938 2094 
Q 2938 2591 2744 2837 
Q 2550 3084 2163 3084 
Q 1697 3084 1428 2787 
Q 1159 2491 1159 1978 
L 1159 0 
L 581 0 
L 581 4863 
L 1159 4863 
L 1159 2956 
Q 1366 3272 1645 3428 
Q 1925 3584 2291 3584 
Q 2894 3584 3203 3211 
Q 3513 2838 3513 2113 
z
" transform="scale(0.015625)"/>
       <path id="DejaVuSans-61" d="M 2194 1759 
Q 1497 1759 1228 1600 
Q 959 1441 959 1056 
Q 959 750 1161 570 
Q 1363 391 1709 391 
Q 2188 391 2477 730 
Q 2766 1069 2766 1631 
L 2766 1759 
L 2194 1759 
z
M 3341 1997 
L 3341 0 
L 2766 0 
L 2766 531 
Q 2569 213 2275 61 
Q 1981 -91 1556 -91 
Q 1019 -91 701 211 
Q 384 513 384 1019 
Q 384 1609 779 1909 
Q 1175 2209 1959 2209 
L 2766 2209 
L 2766 2266 
Q 2766 2663 2505 2880 
Q 2244 3097 1772 3097 
Q 1472 3097 1187 3025 
Q 903 2953 641 2809 
L 641 3341 
Q 956 3463 1253 3523 
Q 1550 3584 1831 3584 
Q 2591 3584 2966 3190 
Q 3341 2797 3341 1997 
z
" transform="scale(0.015625)"/>
       <path id="DejaVuSans-73" d="M 2834 3397 
L 2834 2853 
Q 2591 2978 2328 3040 
Q 2066 3103 1784 3103 
Q 1356 3103 1142 2972 
Q 928 2841 928 2578 
Q 928 2378 1081 2264 
Q 1234 2150 1697 2047 
L 1894 2003 
Q 2506 1872 2764 1633 
Q 3022 1394 3022 966 
Q 3022 478 2636 193 
Q 2250 -91 1575 -91 
Q 1294 -91 989 -36 
Q 684 19 347 128 
L 347 722 
Q 666 556 975 473 
Q 1284 391 1588 391 
Q 1994 391 2212 530 
Q 2431 669 2431 922 
Q 2431 1156 2273 1281 
Q 2116 1406 1581 1522 
L 1381 1569 
Q 847 1681 609 1914 
Q 372 2147 372 2553 
Q 372 3047 722 3315 
Q 1072 3584 1716 3584 
Q 2034 3584 2315 3537 
Q 2597 3491 2834 3397 
z
" transform="scale(0.015625)"/>
       <path id="DejaVuSans-69" d="M 603 3500 
L 1178 3500 
L 1178 0 
L 603 0 
L 603 3500 
z
M 603 4863 
L 1178 4863 
L 1178 4134 
L 603 4134 
L 603 4863 
z
" transform="scale(0.015625)"/>
       <path id="DejaVuSans-6e" d="M 3513 2113 
L 3513 0 
L 2938 0 
L 2938 2094 
Q 2938 2591 2744 2837 
Q 2550 3084 2163 3084 
Q 1697 3084 1428 2787 
Q 1159 2491 1159 1978 
L 1159 0 
L 581 0 
L 581 3500 
L 1159 3500 
L 1159 2956 
Q 1366 3272 1645 3428 
Q 1925 3584 2291 3584 
Q 2894 3584 3203 3211 
Q 3513 2838 3513 2113 
z
" transform="scale(0.015625)"/>
       <path id="DejaVuSans-67" d="M 2906 1791 
Q 2906 2416 2648 2759 
Q 2391 3103 1925 3103 
Q 1463 3103 1205 2759 
Q 947 2416 947 1791 
Q 947 1169 1205 825 
Q 1463 481 1925 481 
Q 2391 481 2648 825 
Q 2906 1169 2906 1791 
z
M 3481 434 
Q 3481 -459 3084 -895 
Q 2688 -1331 1869 -1331 
Q 1566 -1331 1297 -1286 
Q 1028 -1241 775 -1147 
L 775 -588 
Q 1028 -725 1275 -790 
Q 1522 -856 1778 -856 
Q 2344 -856 2625 -561 
Q 2906 -266 2906 331 
L 2906 616 
Q 2728 306 2450 153 
Q 2172 0 1784 0 
Q 1141 0 747 490 
Q 353 981 353 1791 
Q 353 2603 747 3093 
Q 1141 3584 1784 3584 
Q 2172 3584 2450 3431 
Q 2728 3278 2906 2969 
L 2906 3500 
L 3481 3500 
L 3481 434 
z
" transform="scale(0.015625)"/>
       <path id="DejaVuSans-6f" d="M 1959 3097 
Q 1497 3097 1228 2736 
Q 959 2375 959 1747 
Q 959 1119 1226 758 
Q 1494 397 1959 397 
Q 2419 397 2687 759 
Q 2956 1122 2956 1747 
Q 2956 2369 2687 2733 
Q 2419 3097 1959 3097 
z
M 1959 3584 
Q 2709 3584 3137 3096 
Q 3566 2609 3566 1747 
Q 3566 888 3137 398 
Q 2709 -91 1959 -91 
Q 1206 -91 779 398 
Q 353 888 353 1747 
Q 353 2609 779 3096 
Q 1206 3584 1959 3584 
z
" transform="scale(0.015625)"/>
       <path id="DejaVuSans-77" d="M 269 3500 
L 844 3500 
L 1563 769 
L 2278 3500 
L 2956 3500 
L 3675 769 
L 4391 3500 
L 4966 3500 
L 4050 0 
L 3372 0 
L 2619 2869 
L 1863 0 
L 1184 0 
L 269 3500 
z
" transform="scale(0.015625)"/>
       <path id="DejaVuSans-65" d="M 3597 1894 
L 3597 1613 
L 953 1613 
Q 991 1019 1311 708 
Q 1631 397 2203 397 
Q 2534 397 2845 478 
Q 3156 559 3463 722 
L 3463 178 
Q 3153 47 2828 -22 
Q 2503 -91 2169 -91 
Q 1331 -91 842 396 
Q 353 884 353 1716 
Q 353 2575 817 3079 
Q 1281 3584 2069 3584 
Q 2775 3584 3186 3129 
Q 3597 2675 3597 1894 
z
M 3022 2063 
Q 3016 2534 2758 2815 
Q 2500 3097 2075 3097 
Q 1594 3097 1305 2825 
Q 1016 2553 972 2059 
L 3022 2063 
z
" transform="scale(0.015625)"/>
       <path id="DejaVuSans-53" d="M 3425 4513 
L 3425 3897 
Q 3066 4069 2747 4153 
Q 2428 4238 2131 4238 
Q 1616 4238 1336 4038 
Q 1056 3838 1056 3469 
Q 1056 3159 1242 3001 
Q 1428 2844 1947 2747 
L 2328 2669 
Q 3034 2534 3370 2195 
Q 3706 1856 3706 1288 
Q 3706 609 3251 259 
Q 2797 -91 1919 -91 
Q 1588 -91 1214 -16 
Q 841 59 441 206 
L 441 856 
Q 825 641 1194 531 
Q 1563 422 1919 422 
Q 2459 422 2753 634 
Q 3047 847 3047 1241 
Q 3047 1584 2836 1778 
Q 2625 1972 2144 2069 
L 1759 2144 
Q 1053 2284 737 2584 
Q 422 2884 422 3419 
Q 422 4038 858 4394 
Q 1294 4750 2059 4750 
Q 2388 4750 2728 4690 
Q 3069 4631 3425 4513 
z
" transform="scale(0.015625)"/>
       <path id="DejaVuSans-74" d="M 1172 4494 
L 1172 3500 
L 2356 3500 
L 2356 3053 
L 1172 3053 
L 1172 1153 
Q 1172 725 1289 603 
Q 1406 481 1766 481 
L 2356 481 
L 2356 0 
L 1766 0 
Q 1100 0 847 248 
Q 594 497 594 1153 
L 594 3053 
L 172 3053 
L 172 3500 
L 594 3500 
L 594 4494 
L 1172 4494 
z
" transform="scale(0.015625)"/>
       <path id="DejaVuSans-64" d="M 2906 2969 
L 2906 4863 
L 3481 4863 
L 3481 0 
L 2906 0 
L 2906 525 
Q 2725 213 2448 61 
Q 2172 -91 1784 -91 
Q 1150 -91 751 415 
Q 353 922 353 1747 
Q 353 2572 751 3078 
Q 1150 3584 1784 3584 
Q 2172 3584 2448 3432 
Q 2725 3281 2906 2969 
z
M 947 1747 
Q 947 1113 1208 752 
Q 1469 391 1925 391 
Q 2381 391 2643 752 
Q 2906 1113 2906 1747 
Q 2906 2381 2643 2742 
Q 2381 3103 1925 3103 
Q 1469 3103 1208 2742 
Q 947 2381 947 1747 
z
" transform="scale(0.015625)"/>
       <path id="DejaVuSans-2c" d="M 750 794 
L 1409 794 
L 1409 256 
L 897 -744 
L 494 -744 
L 750 256 
L 750 794 
z
" transform="scale(0.015625)"/>
       <path id="DejaVuSans-25" d="M 4653 2053 
Q 4381 2053 4226 1822 
Q 4072 1591 4072 1178 
Q 4072 772 4226 539 
Q 4381 306 4653 306 
Q 4919 306 5073 539 
Q 5228 772 5228 1178 
Q 5228 1588 5073 1820 
Q 4919 2053 4653 2053 
z
M 4653 2450 
Q 5147 2450 5437 2106 
Q 5728 1763 5728 1178 
Q 5728 594 5436 251 
Q 5144 -91 4653 -91 
Q 4153 -91 3862 251 
Q 3572 594 3572 1178 
Q 3572 1766 3864 2108 
Q 4156 2450 4653 2450 
z
M 1428 4353 
Q 1159 4353 1004 4120 
Q 850 3888 850 3481 
Q 850 3069 1003 2837 
Q 1156 2606 1428 2606 
Q 1700 2606 1854 2837 
Q 2009 3069 2009 3481 
Q 2009 3884 1853 4118 
Q 1697 4353 1428 4353 
z
M 4250 4750 
L 4750 4750 
L 1831 -91 
L 1331 -91 
L 4250 4750 
z
M 1428 4750 
Q 1922 4750 2215 4408 
Q 2509 4066 2509 3481 
Q 2509 2891 2217 2550 
Q 1925 2209 1428 2209 
Q 931 2209 642 2551 
Q 353 2894 353 3481 
Q 353 4063 643 4406 
Q 934 4750 1428 4750 
z
" transform="scale(0.015625)"/>
       <path id="DejaVuSans-45" d="M 628 4666 
L 3578 4666 
L 3578 4134 
L 1259 4134 
L 1259 2753 
L 3481 2753 
L 3481 2222 
L 1259 2222 
L 1259 531 
L 3634 531 
L 3634 0 
L 628 0 
L 628 4666 
z
" transform="scale(0.015625)"/>
       <path id="DejaVuSans-55" d="M 556 4666 
L 1191 4666 
L 1191 1831 
Q 1191 1081 1462 751 
Q 1734 422 2344 422 
Q 2950 422 3222 751 
Q 3494 1081 3494 1831 
L 3494 4666 
L 4128 4666 
L 4128 1753 
Q 4128 841 3676 375 
Q 3225 -91 2344 -91 
Q 1459 -91 1007 375 
Q 556 841 556 1753 
L 556 4666 
z
" transform="scale(0.015625)"/>
       <path id="DejaVuSans-76" d="M 191 3500 
L 800 3500 
L 1894 563 
L 2988 3500 
L 3597 3500 
L 2284 0 
L 1503 0 
L 191 3500 
z
" transform="scale(0.015625)"/>
       <path id="DejaVuSans-29" d="M 513 4856 
L 1013 4856 
Q 1481 4119 1714 3412 
Q 1947 2706 1947 2009 
Q 1947 1309 1714 600 
Q 1481 -109 1013 -844 
L 513 -844 
Q 928 -128 1133 580 
Q 1338 1288 1338 2009 
Q 1338 2731 1133 3434 
Q 928 4138 513 4856 
z
" transform="scale(0.015625)"/>
      </defs>
      <use xlink:href="#DejaVuSans-47"/>
      <use xlink:href="#DejaVuSans-44" x="77.490234"/>
      <use xlink:href="#DejaVuSans-50" x="154.492188"/>
      <use xlink:href="#DejaVuSans-20" x="214.794922"/>
      <use xlink:href="#DejaVuSans-28" x="246.582031"/>
      <use xlink:href="#DejaVuSans-50" x="285.595703"/>
      <use xlink:href="#DejaVuSans-75" x="344.148438"/>
      <use xlink:href="#DejaVuSans-72" x="407.527344"/>
      <use xlink:href="#DejaVuSans-63" x="446.390625"/>
      <use xlink:href="#DejaVuSans-68" x="501.371094"/>
      <use xlink:href="#DejaVuSans-61" x="564.75"/>
      <use xlink:href="#DejaVuSans-73" x="626.029297"/>
      <use xlink:href="#DejaVuSans-69" x="678.128906"/>
      <use xlink:href="#DejaVuSans-6e" x="705.912109"/>
      <use xlink:href="#DejaVuSans-67" x="769.291016"/>
      <use xlink:href="#DejaVuSans-20" x="832.767578"/>
      <use xlink:href="#DejaVuSans-50" x="864.554688"/>
      <use xlink:href="#DejaVuSans-6f" x="921.232422"/>
      <use xlink:href="#DejaVuSans-77" x="982.414062"/>
      <use xlink:href="#DejaVuSans-65" x="1064.201172"/>
      <use xlink:href="#DejaVuSans-72" x="1125.724609"/>
      <use xlink:href="#DejaVuSans-20" x="1166.837891"/>
      <use xlink:href="#DejaVuSans-53" x="1198.625"/>
      <use xlink:href="#DejaVuSans-74" x="1262.101562"/>
      <use xlink:href="#DejaVuSans-61" x="1301.310547"/>
      <use xlink:href="#DejaVuSans-6e" x="1362.589844"/>
      <use xlink:href="#DejaVuSans-64" x="1425.96875"/>
      <use xlink:href="#DejaVuSans-61" x="1489.445312"/>
      <use xlink:href="#DejaVuSans-72" x="1550.724609"/>
      <use xlink:href="#DejaVuSans-64" x="1590.087891"/>
      <use xlink:href="#DejaVuSans-2c" x="1653.564453"/>
      <use xlink:href="#DejaVuSans-20" x="1685.351562"/>
      <use xlink:href="#DejaVuSans-25" x="1717.138672"/>
      <use xlink:href="#DejaVuSans-20" x="1812.158203"/>
      <use xlink:href="#DejaVuSans-45" x="1843.945312"/>
      <use xlink:href="#DejaVuSans-55" x="1907.128906"/>
      <use xlink:href="#DejaVuSans-20" x="1980.322266"/>
      <use xlink:href="#DejaVuSans-61" x="2012.109375"/>
      <use xlink:href="#DejaVuSans-76" x="2073.388672"/>
      <use xlink:href="#DejaVuSans-65" x="2132.568359"/>
      <use xlink:href="#DejaVuSans-72" x="2194.091797"/>
      <use xlink:href="#DejaVuSans-61" x="2235.205078"/>
      <use xlink:href="#DejaVuSans-67" x="2296.484375"/>
      <use xlink:href="#DejaVuSans-65" x="2359.960938"/>
      <use xlink:href="#DejaVuSans-29" x="2421.484375"/>
     </g>
    </g>
   </g>
   <g id="matplotlib.axis_2">
    <g id="ytick_1">
     <g id="line2d_10">
      <defs>
       <path id="mca1581115a" d="M 0 0 
L -3.5 0 
" style="stroke: #000000; stroke-width: 0.8"/>
      </defs>
      <g>
       <use xlink:href="#mca1581115a" x="57.17" y="303.64" style="stroke: #000000; stroke-width: 0.8"/>
      </g>
     </g>
     <g id="text_11">
      <!-- 0 -->
      <g transform="translate(43.8075 307.439219)scale(0.1 -0.1)">
       <use xlink:href="#DejaVuSans-30"/>
      </g>
     </g>
    </g>
    <g id="ytick_2">
     <g id="line2d_11">
      <g>
       <use xlink:href="#mca1581115a" x="57.17" y="262.967778" style="stroke: #000000; stroke-width: 0.8"/>
      </g>
     </g>
     <g id="text_12">
      <!-- 1000 -->
      <g transform="translate(24.72 266.766997)scale(0.1 -0.1)">
       <use xlink:href="#DejaVuSans-31"/>
       <use xlink:href="#DejaVuSans-30" x="63.623047"/>
       <use xlink:href="#DejaVuSans-30" x="127.246094"/>
       <use xlink:href="#DejaVuSans-30" x="190.869141"/>
      </g>
     </g>
    </g>
    <g id="ytick_3">
     <g id="line2d_12">
      <g>
       <use xlink:href="#mca1581115a" x="57.17" y="222.295556" style="stroke: #000000; stroke-width: 0.8"/>
      </g>
     </g>
     <g id="text_13">
      <!-- 2000 -->
      <g transform="translate(24.72 226.094774)scale(0.1 -0.1)">
       <use xlink:href="#DejaVuSans-32"/>
       <use xlink:href="#DejaVuSans-30" x="63.623047"/>
       <use xlink:href="#DejaVuSans-30" x="127.246094"/>
       <use xlink:href="#DejaVuSans-30" x="190.869141"/>
      </g>
     </g>
    </g>
    <g id="ytick_4">
     <g id="line2d_13">
      <g>
       <use xlink:href="#mca1581115a" x="57.17" y="181.623333" style="stroke: #000000; stroke-width: 0.8"/>
      </g>
     </g>
     <g id="text_14">
      <!-- 3000 -->
      <g transform="translate(24.72 185.422552)scale(0.1 -0.1)">
       <defs>
        <path id="DejaVuSans-33" d="M 2597 2516 
Q 3050 2419 3304 2112 
Q 3559 1806 3559 1356 
Q 3559 666 3084 287 
Q 2609 -91 1734 -91 
Q 1441 -91 1130 -33 
Q 819 25 488 141 
L 488 750 
Q 750 597 1062 519 
Q 1375 441 1716 441 
Q 2309 441 2620 675 
Q 2931 909 2931 1356 
Q 2931 1769 2642 2001 
Q 2353 2234 1838 2234 
L 1294 2234 
L 1294 2753 
L 1863 2753 
Q 2328 2753 2575 2939 
Q 2822 3125 2822 3475 
Q 2822 3834 2567 4026 
Q 2313 4219 1838 4219 
Q 1578 4219 1281 4162 
Q 984 4106 628 3988 
L 628 4550 
Q 988 4650 1302 4700 
Q 1616 4750 1894 4750 
Q 2613 4750 3031 4423 
Q 3450 4097 3450 3541 
Q 3450 3153 3228 2886 
Q 3006 2619 2597 2516 
z
" transform="scale(0.015625)"/>
       </defs>
       <use xlink:href="#DejaVuSans-33"/>
       <use xlink:href="#DejaVuSans-30" x="63.623047"/>
       <use xlink:href="#DejaVuSans-30" x="127.246094"/>
       <use xlink:href="#DejaVuSans-30" x="190.869141"/>
      </g>
     </g>
    </g>
    <g id="ytick_5">
     <g id="line2d_14">
      <g>
       <use xlink:href="#mca1581115a" x="57.17" y="140.951111" style="stroke: #000000; stroke-width: 0.8"/>
      </g>
     </g>
     <g id="text_15">
      <!-- 4000 -->
      <g transform="translate(24.72 144.75033)scale(0.1 -0.1)">
       <use xlink:href="#DejaVuSans-34"/>
       <use xlink:href="#DejaVuSans-30" x="63.623047"/>
       <use xlink:href="#DejaVuSans-30" x="127.246094"/>
       <use xlink:href="#DejaVuSans-30" x="190.869141"/>
      </g>
     </g>
    </g>
    <g id="ytick_6">
     <g id="line2d_15">
      <g>
       <use xlink:href="#mca1581115a" x="57.17" y="100.278889" style="stroke: #000000; stroke-width: 0.8"/>
      </g>
     </g>
     <g id="text_16">
      <!-- 5000 -->
      <g transform="translate(24.72 104.078108)scale(0.1 -0.1)">
       <defs>
        <path id="DejaVuSans-35" d="M 691 4666 
L 3169 4666 
L 3169 4134 
L 1269 4134 
L 1269 2991 
Q 1406 3038 1543 3061 
Q 1681 3084 1819 3084 
Q 2600 3084 3056 2656 
Q 3513 2228 3513 1497 
Q 3513 744 3044 326 
Q 2575 -91 1722 -91 
Q 1428 -91 1123 -41 
Q 819 9 494 109 
L 494 744 
Q 775 591 1075 516 
Q 1375 441 1709 441 
Q 2250 441 2565 725 
Q 2881 1009 2881 1497 
Q 2881 1984 2565 2268 
Q 2250 2553 1709 2553 
Q 1456 2553 1204 2497 
Q 953 2441 691 2322 
L 691 4666 
z
" transform="scale(0.015625)"/>
       </defs>
       <use xlink:href="#DejaVuSans-35"/>
       <use xlink:href="#DejaVuSans-30" x="63.623047"/>
       <use xlink:href="#DejaVuSans-30" x="127.246094"/>
       <use xlink:href="#DejaVuSans-30" x="190.869141"/>
      </g>
     </g>
    </g>
    <g id="ytick_7">
     <g id="line2d_16">
      <g>
       <use xlink:href="#mca1581115a" x="57.17" y="59.606667" style="stroke: #000000; stroke-width: 0.8"/>
      </g>
     </g>
     <g id="text_17">
      <!-- 6000 -->
      <g transform="translate(24.72 63.405885)scale(0.1 -0.1)">
       <use xlink:href="#DejaVuSans-36"/>
       <use xlink:href="#DejaVuSans-30" x="63.623047"/>
       <use xlink:href="#DejaVuSans-30" x="127.246094"/>
       <use xlink:href="#DejaVuSans-30" x="190.869141"/>
      </g>
     </g>
    </g>
    <g id="ytick_8">
     <g id="line2d_17">
      <g>
       <use xlink:href="#mca1581115a" x="57.17" y="18.934444" style="stroke: #000000; stroke-width: 0.8"/>
      </g>
     </g>
     <g id="text_18">
      <!-- 7000 -->
      <g transform="translate(24.72 22.733663)scale(0.1 -0.1)">
       <defs>
        <path id="DejaVuSans-37" d="M 525 4666 
L 3525 4666 
L 3525 4397 
L 1831 0 
L 1172 0 
L 2766 4134 
L 525 4134 
L 525 4666 
z
" transform="scale(0.015625)"/>
       </defs>
       <use xlink:href="#DejaVuSans-37"/>
       <use xlink:href="#DejaVuSans-30" x="63.623047"/>
       <use xlink:href="#DejaVuSans-30" x="127.246094"/>
       <use xlink:href="#DejaVuSans-30" x="190.869141"/>
      </g>
     </g>
    </g>
    <g id="text_19">
     <!-- Number of Burglaries -->
     <g transform="translate(18.640313 210.623906)rotate(-90)scale(0.1 -0.1)">
      <defs>
       <path id="DejaVuSans-4e" d="M 628 4666 
L 1478 4666 
L 3547 763 
L 3547 4666 
L 4159 4666 
L 4159 0 
L 3309 0 
L 1241 3903 
L 1241 0 
L 628 0 
L 628 4666 
z
" transform="scale(0.015625)"/>
       <path id="DejaVuSans-6d" d="M 3328 2828 
Q 3544 3216 3844 3400 
Q 4144 3584 4550 3584 
Q 5097 3584 5394 3201 
Q 5691 2819 5691 2113 
L 5691 0 
L 5113 0 
L 5113 2094 
Q 5113 2597 4934 2840 
Q 4756 3084 4391 3084 
Q 3944 3084 3684 2787 
Q 3425 2491 3425 1978 
L 3425 0 
L 2847 0 
L 2847 2094 
Q 2847 2600 2669 2842 
Q 2491 3084 2119 3084 
Q 1678 3084 1418 2786 
Q 1159 2488 1159 1978 
L 1159 0 
L 581 0 
L 581 3500 
L 1159 3500 
L 1159 2956 
Q 1356 3278 1631 3431 
Q 1906 3584 2284 3584 
Q 2666 3584 2933 3390 
Q 3200 3197 3328 2828 
z
" transform="scale(0.015625)"/>
       <path id="DejaVuSans-62" d="M 3116 1747 
Q 3116 2381 2855 2742 
Q 2594 3103 2138 3103 
Q 1681 3103 1420 2742 
Q 1159 2381 1159 1747 
Q 1159 1113 1420 752 
Q 1681 391 2138 391 
Q 2594 391 2855 752 
Q 3116 1113 3116 1747 
z
M 1159 2969 
Q 1341 3281 1617 3432 
Q 1894 3584 2278 3584 
Q 2916 3584 3314 3078 
Q 3713 2572 3713 1747 
Q 3713 922 3314 415 
Q 2916 -91 2278 -91 
Q 1894 -91 1617 61 
Q 1341 213 1159 525 
L 1159 0 
L 581 0 
L 581 4863 
L 1159 4863 
L 1159 2969 
z
" transform="scale(0.015625)"/>
       <path id="DejaVuSans-66" d="M 2375 4863 
L 2375 4384 
L 1825 4384 
Q 1516 4384 1395 4259 
Q 1275 4134 1275 3809 
L 1275 3500 
L 2222 3500 
L 2222 3053 
L 1275 3053 
L 1275 0 
L 697 0 
L 697 3053 
L 147 3053 
L 147 3500 
L 697 3500 
L 697 3744 
Q 697 4328 969 4595 
Q 1241 4863 1831 4863 
L 2375 4863 
z
" transform="scale(0.015625)"/>
       <path id="DejaVuSans-42" d="M 1259 2228 
L 1259 519 
L 2272 519 
Q 2781 519 3026 730 
Q 3272 941 3272 1375 
Q 3272 1813 3026 2020 
Q 2781 2228 2272 2228 
L 1259 2228 
z
M 1259 4147 
L 1259 2741 
L 2194 2741 
Q 2656 2741 2882 2914 
Q 3109 3088 3109 3444 
Q 3109 3797 2882 3972 
Q 2656 4147 2194 4147 
L 1259 4147 
z
M 628 4666 
L 2241 4666 
Q 2963 4666 3353 4366 
Q 3744 4066 3744 3513 
Q 3744 3084 3544 2831 
Q 3344 2578 2956 2516 
Q 3422 2416 3680 2098 
Q 3938 1781 3938 1306 
Q 3938 681 3513 340 
Q 3088 0 2303 0 
L 628 0 
L 628 4666 
z
" transform="scale(0.015625)"/>
       <path id="DejaVuSans-6c" d="M 603 4863 
L 1178 4863 
L 1178 0 
L 603 0 
L 603 4863 
z
" transform="scale(0.015625)"/>
      </defs>
      <use xlink:href="#DejaVuSans-4e"/>
      <use xlink:href="#DejaVuSans-75" x="74.804688"/>
      <use xlink:href="#DejaVuSans-6d" x="138.183594"/>
      <use xlink:href="#DejaVuSans-62" x="235.595703"/>
      <use xlink:href="#DejaVuSans-65" x="299.072266"/>
      <use xlink:href="#DejaVuSans-72" x="360.595703"/>
      <use xlink:href="#DejaVuSans-20" x="401.708984"/>
      <use xlink:href="#DejaVuSans-6f" x="433.496094"/>
      <use xlink:href="#DejaVuSans-66" x="494.677734"/>
      <use xlink:href="#DejaVuSans-20" x="529.882812"/>
      <use xlink:href="#DejaVuSans-42" x="561.669922"/>
      <use xlink:href="#DejaVuSans-75" x="630.273438"/>
      <use xlink:href="#DejaVuSans-72" x="693.652344"/>
      <use xlink:href="#DejaVuSans-67" x="733.015625"/>
      <use xlink:href="#DejaVuSans-6c" x="796.492188"/>
      <use xlink:href="#DejaVuSans-61" x="824.275391"/>
      <use xlink:href="#DejaVuSans-72" x="885.554688"/>
      <use xlink:href="#DejaVuSans-69" x="926.667969"/>
      <use xlink:href="#DejaVuSans-65" x="954.451172"/>
      <use xlink:href="#DejaVuSans-73" x="1015.974609"/>
     </g>
    </g>
   </g>
   <g id="line2d_18">
    <path d="M 57.17 318.091053 
L 65.122447 317.178634 
L 73.074894 316.266215 
L 81.027341 315.353795 
L 88.979788 314.441376 
L 96.932235 313.528956 
L 104.884683 312.616537 
L 112.83713 311.704118 
L 120.789577 310.791698 
L 128.742024 309.879279 
L 136.694471 308.966859 
L 144.646918 308.05444 
L 152.599365 307.142021 
L 160.551812 306.229601 
L 168.504259 305.317182 
L 176.456706 304.404762 
L 184.409154 303.492343 
L 192.361601 302.579923 
L 200.314048 301.667504 
L 208.266495 300.755085 
L 216.218942 299.842665 
L 224.171389 298.930246 
L 232.123836 298.017826 
L 240.076283 297.105407 
L 248.02873 296.192988 
L 255.981177 295.280568 
L 263.933625 294.368149 
L 271.886072 293.455729 
L 279.838519 292.54331 
L 287.790966 291.63089 
L 295.743413 290.718471 
L 303.69586 289.806052 
L 311.648307 288.893632 
L 319.600754 287.981213 
L 327.553201 287.068793 
L 335.505648 286.156374 
L 343.458096 285.243955 
L 351.410543 284.331535 
L 359.36299 283.419116 
L 367.315437 282.506696 
L 375.267884 281.594277 
L 383.220331 280.681858 
L 391.172778 279.769438 
L 399.125225 278.857019 
L 407.077672 277.944599 
L 415.030119 277.03218 
L 422.982567 276.11976 
L 430.935014 275.207341 
L 438.887461 274.294922 
L 446.839908 273.382502 
" clip-path="url(#p37200c3807)" style="fill: none; stroke: #d70000; stroke-width: 1.5; stroke-linecap: square"/>
   </g>
   <g id="line2d_19">
    <path d="M 57.17 265.081554 
L 65.122447 267.82841 
L 73.074894 270.575266 
L 81.027341 273.322122 
L 88.979788 276.068978 
L 96.932235 278.815834 
L 104.884683 281.56269 
L 112.83713 284.309546 
L 120.789577 287.056401 
L 128.742024 289.803257 
L 136.694471 292.550113 
L 144.646918 295.296969 
L 152.599365 298.043825 
L 160.551812 300.790681 
L 168.504259 303.537537 
L 176.456706 306.284393 
L 184.409154 309.031249 
L 192.361601 311.778104 
L 200.314048 314.52496 
L 208.266495 317.271816 
L 216.218942 320.018672 
L 224.171389 322.765528 
L 232.123836 325.512384 
L 240.076283 328.25924 
L 248.02873 331.006096 
L 255.981177 333.752952 
L 263.933625 336.499808 
L 271.886072 339.246663 
L 279.838519 341.993519 
L 287.790966 344.740375 
L 293.174782 346.6 
" clip-path="url(#p37200c3807)" style="fill: none; stroke: #8c3cff; stroke-width: 1.5; stroke-linecap: square"/>
   </g>
   <g id="line2d_20">
    <path d="M 57.17 277.69418 
L 65.122447 277.036828 
L 73.074894 276.379476 
L 81.027341 275.722124 
L 88.979788 275.064772 
L 96.932235 274.407419 
L 104.884683 273.750067 
L 112.83713 273.092715 
L 120.789577 272.435363 
L 128.742024 271.778011 
L 136.694471 271.120659 
L 144.646918 270.463306 
L 152.599365 269.805954 
L 160.551812 269.148602 
L 168.504259 268.49125 
L 176.456706 267.833898 
L 184.409154 267.176545 
L 192.361601 266.519193 
L 200.314048 265.861841 
L 208.266495 265.204489 
L 216.218942 264.547137 
L 224.171389 263.889785 
L 232.123836 263.232432 
L 240.076283 262.57508 
L 248.02873 261.917728 
L 255.981177 261.260376 
L 263.933625 260.603024 
L 271.886072 259.945671 
L 279.838519 259.288319 
L 287.790966 258.630967 
L 295.743413 257.973615 
L 303.69586 257.316263 
L 311.648307 256.658911 
L 319.600754 256.001558 
L 327.553201 255.344206 
L 335.505648 254.686854 
L 343.458096 254.029502 
L 351.410543 253.37215 
L 359.36299 252.714797 
L 367.315437 252.057445 
L 375.267884 251.400093 
L 383.220331 250.742741 
L 391.172778 250.085389 
L 399.125225 249.428037 
L 407.077672 248.770684 
L 415.030119 248.113332 
L 422.982567 247.45598 
L 430.935014 246.798628 
L 438.887461 246.141276 
L 446.839908 245.483924 
" clip-path="url(#p37200c3807)" style="fill: none; stroke: #028800; stroke-width: 1.5; stroke-linecap: square"/>
   </g>
   <g id="line2d_21">
    <path d="M 57.17 267.918349 
L 65.122447 267.65538 
L 73.074894 267.392412 
L 81.027341 267.129443 
L 88.979788 266.866475 
L 96.932235 266.603506 
L 104.884683 266.340538 
L 112.83713 266.077569 
L 120.789577 265.814601 
L 128.742024 265.551632 
L 136.694471 265.288664 
L 144.646918 265.025695 
L 152.599365 264.762727 
L 160.551812 264.499759 
L 168.504259 264.23679 
L 176.456706 263.973822 
L 184.409154 263.710853 
L 192.361601 263.447885 
L 200.314048 263.184916 
L 208.266495 262.921948 
L 216.218942 262.658979 
L 224.171389 262.396011 
L 232.123836 262.133042 
L 240.076283 261.870074 
L 248.02873 261.607105 
L 255.981177 261.344137 
L 263.933625 261.081168 
L 271.886072 260.8182 
L 279.838519 260.555231 
L 287.790966 260.292263 
L 295.743413 260.029294 
L 303.69586 259.766326 
L 311.648307 259.503357 
L 319.600754 259.240389 
L 327.553201 258.97742 
L 335.505648 258.714452 
L 343.458096 258.451483 
L 351.410543 258.188515 
L 359.36299 257.925546 
L 367.315437 257.662578 
L 375.267884 257.399609 
L 383.220331 257.136641 
L 391.172778 256.873673 
L 399.125225 256.610704 
L 407.077672 256.347736 
L 415.030119 256.084767 
L 422.982567 255.821799 
L 430.935014 255.55883 
L 438.887461 255.295862 
L 446.839908 255.032893 
" clip-path="url(#p37200c3807)" style="fill: none; stroke: #00acc7; stroke-width: 1.5; stroke-linecap: square"/>
   </g>
   <g id="line2d_22">
    <path d="M 57.17 270.653505 
L 65.122447 269.604844 
L 73.074894 268.556184 
L 81.027341 267.507523 
L 88.979788 266.458862 
L 96.932235 265.410202 
L 104.884683 264.361541 
L 112.83713 263.31288 
L 120.789577 262.26422 
L 128.742024 261.215559 
L 136.694471 260.166899 
L 144.646918 259.118238 
L 152.599365 258.069577 
L 160.551812 257.020917 
L 168.504259 255.972256 
L 176.456706 254.923595 
L 184.409154 253.874935 
L 192.361601 252.826274 
L 200.314048 251.777613 
L 208.266495 250.728953 
L 216.218942 249.680292 
L 224.171389 248.631631 
L 232.123836 247.582971 
L 240.076283 246.53431 
L 248.02873 245.485649 
L 255.981177 244.436989 
L 263.933625 243.388328 
L 271.886072 242.339668 
L 279.838519 241.291007 
L 287.790966 240.242346 
L 295.743413 239.193686 
L 303.69586 238.145025 
L 311.648307 237.096364 
L 319.600754 236.047704 
L 327.553201 234.999043 
L 335.505648 233.950382 
L 343.458096 232.901722 
L 351.410543 231.853061 
L 359.36299 230.8044 
L 367.315437 229.75574 
L 375.267884 228.707079 
L 383.220331 227.658418 
L 391.172778 226.609758 
L 399.125225 225.561097 
L 407.077672 224.512437 
L 415.030119 223.463776 
L 422.982567 222.415115 
L 430.935014 221.366455 
L 438.887461 220.317794 
L 446.839908 219.269133 
" clip-path="url(#p37200c3807)" style="fill: none; stroke: #98ff00; stroke-width: 1.5; stroke-linecap: square"/>
   </g>
   <g id="line2d_23">
    <path d="M 57.17 189.282334 
L 65.122447 189.882783 
L 73.074894 190.483232 
L 81.027341 191.08368 
L 88.979788 191.684129 
L 96.932235 192.284578 
L 104.884683 192.885026 
L 112.83713 193.485475 
L 120.789577 194.085924 
L 128.742024 194.686372 
L 136.694471 195.286821 
L 144.646918 195.88727 
L 152.599365 196.487718 
L 160.551812 197.088167 
L 168.504259 197.688616 
L 176.456706 198.289064 
L 184.409154 198.889513 
L 192.361601 199.489962 
L 200.314048 200.09041 
L 208.266495 200.690859 
L 216.218942 201.291308 
L 224.171389 201.891756 
L 232.123836 202.492205 
L 240.076283 203.092654 
L 248.02873 203.693102 
L 255.981177 204.293551 
L 263.933625 204.893999 
L 271.886072 205.494448 
L 279.838519 206.094897 
L 287.790966 206.695345 
L 295.743413 207.295794 
L 303.69586 207.896243 
L 311.648307 208.496691 
L 319.600754 209.09714 
L 327.553201 209.697589 
L 335.505648 210.298037 
L 343.458096 210.898486 
L 351.410543 211.498935 
L 359.36299 212.099383 
L 367.315437 212.699832 
L 375.267884 213.300281 
L 383.220331 213.900729 
L 391.172778 214.501178 
L 399.125225 215.101627 
L 407.077672 215.702075 
L 415.030119 216.302524 
L 422.982567 216.902973 
L 430.935014 217.503421 
L 438.887461 218.10387 
L 446.839908 218.704319 
" clip-path="url(#p37200c3807)" style="fill: none; stroke: #ff7fd1; stroke-width: 1.5; stroke-linecap: square"/>
   </g>
   <g id="line2d_24">
    <path d="M 57.17 19.733171 
L 65.122447 21.410065 
L 73.074894 23.086959 
L 81.027341 24.763852 
L 88.979788 26.440746 
L 96.932235 28.117639 
L 104.884683 29.794533 
L 112.83713 31.471427 
L 120.789577 33.14832 
L 128.742024 34.825214 
L 136.694471 36.502108 
L 144.646918 38.179001 
L 152.599365 39.855895 
L 160.551812 41.532789 
L 168.504259 43.209682 
L 176.456706 44.886576 
L 184.409154 46.56347 
L 192.361601 48.240363 
L 200.314048 49.917257 
L 208.266495 51.59415 
L 216.218942 53.271044 
L 224.171389 54.947938 
L 232.123836 56.624831 
L 240.076283 58.301725 
L 248.02873 59.978619 
L 255.981177 61.655512 
L 263.933625 63.332406 
L 271.886072 65.0093 
L 279.838519 66.686193 
L 287.790966 68.363087 
L 295.743413 70.039981 
L 303.69586 71.716874 
L 311.648307 73.393768 
L 319.600754 75.070662 
L 327.553201 76.747555 
L 335.505648 78.424449 
L 343.458096 80.101342 
L 351.410543 81.778236 
L 359.36299 83.45513 
L 367.315437 85.132023 
L 375.267884 86.808917 
L 383.220331 88.485811 
L 391.172778 90.162704 
L 399.125225 91.839598 
L 407.077672 93.516492 
L 415.030119 95.193385 
L 422.982567 96.870279 
L 430.935014 98.547173 
L 438.887461 100.224066 
L 446.839908 101.90096 
" clip-path="url(#p37200c3807)" style="fill: none; stroke: #6c004f; stroke-width: 1.5; stroke-linecap: square"/>
   </g>
   <g id="line2d_25">
    <path d="M 57.17 265.59636 
L 65.122447 264.739431 
L 73.074894 263.882502 
L 81.027341 263.025573 
L 88.979788 262.168643 
L 96.932235 261.311714 
L 104.884683 260.454785 
L 112.83713 259.597856 
L 120.789577 258.740926 
L 128.742024 257.883997 
L 136.694471 257.027068 
L 144.646918 256.170139 
L 152.599365 255.313209 
L 160.551812 254.45628 
L 168.504259 253.599351 
L 176.456706 252.742422 
L 184.409154 251.885493 
L 192.361601 251.028563 
L 200.314048 250.171634 
L 208.266495 249.314705 
L 216.218942 248.457776 
L 224.171389 247.600846 
L 232.123836 246.743917 
L 240.076283 245.886988 
L 248.02873 245.030059 
L 255.981177 244.173129 
L 263.933625 243.3162 
L 271.886072 242.459271 
L 279.838519 241.602342 
L 287.790966 240.745412 
L 295.743413 239.888483 
L 303.69586 239.031554 
L 311.648307 238.174625 
L 319.600754 237.317695 
L 327.553201 236.460766 
L 335.505648 235.603837 
L 343.458096 234.746908 
L 351.410543 233.889979 
L 359.36299 233.033049 
L 367.315437 232.17612 
L 375.267884 231.319191 
L 383.220331 230.462262 
L 391.172778 229.605332 
L 399.125225 228.748403 
L 407.077672 227.891474 
L 415.030119 227.034545 
L 422.982567 226.177615 
L 430.935014 225.320686 
L 438.887461 224.463757 
L 446.839908 223.606828 
" clip-path="url(#p37200c3807)" style="fill: none; stroke: #583b00; stroke-width: 1.5; stroke-linecap: square"/>
   </g>
   <g id="line2d_26">
    <path d="M 57.17 139.002139 
L 65.122447 139.251623 
L 73.074894 139.501107 
L 81.027341 139.75059 
L 88.979788 140.000074 
L 96.932235 140.249558 
L 104.884683 140.499041 
L 112.83713 140.748525 
L 120.789577 140.998009 
L 128.742024 141.247492 
L 136.694471 141.496976 
L 144.646918 141.74646 
L 152.599365 141.995944 
L 160.551812 142.245427 
L 168.504259 142.494911 
L 176.456706 142.744395 
L 184.409154 142.993878 
L 192.361601 143.243362 
L 200.314048 143.492846 
L 208.266495 143.742329 
L 216.218942 143.991813 
L 224.171389 144.241297 
L 232.123836 144.49078 
L 240.076283 144.740264 
L 248.02873 144.989748 
L 255.981177 145.239231 
L 263.933625 145.488715 
L 271.886072 145.738199 
L 279.838519 145.987682 
L 287.790966 146.237166 
L 295.743413 146.48665 
L 303.69586 146.736133 
L 311.648307 146.985617 
L 319.600754 147.235101 
L 327.553201 147.484584 
L 335.505648 147.734068 
L 343.458096 147.983552 
L 351.410543 148.233036 
L 359.36299 148.482519 
L 367.315437 148.732003 
L 375.267884 148.981487 
L 383.220331 149.23097 
L 391.172778 149.480454 
L 399.125225 149.729938 
L 407.077672 149.979421 
L 415.030119 150.228905 
L 422.982567 150.478389 
L 430.935014 150.727872 
L 438.887461 150.977356 
L 446.839908 151.22684 
" clip-path="url(#p37200c3807)" style="fill: none; stroke: #005759; stroke-width: 1.5; stroke-linecap: square"/>
   </g>
   <g id="line2d_27">
    <path d="M 57.17 304.762611 
L 65.122447 304.99464 
L 73.074894 305.226668 
L 81.027341 305.458697 
L 88.979788 305.690725 
L 96.932235 305.922754 
L 104.884683 306.154783 
L 112.83713 306.386811 
L 120.789577 306.61884 
L 128.742024 306.850868 
L 136.694471 307.082897 
L 144.646918 307.314925 
L 152.599365 307.546954 
L 160.551812 307.778982 
L 168.504259 308.011011 
L 176.456706 308.24304 
L 184.409154 308.475068 
L 192.361601 308.707097 
L 200.314048 308.939125 
L 208.266495 309.171154 
L 216.218942 309.403182 
L 224.171389 309.635211 
L 232.123836 309.867239 
L 240.076283 310.099268 
L 248.02873 310.331297 
L 255.981177 310.563325 
L 263.933625 310.795354 
L 271.886072 311.027382 
L 279.838519 311.259411 
L 287.790966 311.491439 
L 295.743413 311.723468 
L 303.69586 311.955496 
L 311.648307 312.187525 
L 319.600754 312.419553 
L 327.553201 312.651582 
L 335.505648 312.883611 
L 343.458096 313.115639 
L 351.410543 313.347668 
L 359.36299 313.579696 
L 367.315437 313.811725 
L 375.267884 314.043753 
L 383.220331 314.275782 
L 391.172778 314.50781 
L 399.125225 314.739839 
L 407.077672 314.971868 
L 415.030119 315.203896 
L 422.982567 315.435925 
L 430.935014 315.667953 
L 438.887461 315.899982 
L 446.839908 316.13201 
" clip-path="url(#p37200c3807)" style="fill: none; stroke: #0000dd; stroke-width: 1.5; stroke-linecap: square"/>
   </g>
   <g id="line2d_28">
    <path d="M 57.17 159.83089 
L 65.122447 154.792698 
L 73.074894 149.754507 
L 81.027341 144.716316 
L 88.979788 139.678125 
L 96.932235 134.639933 
L 104.884683 129.601742 
L 112.83713 124.563551 
L 120.789577 119.52536 
L 128.742024 114.487169 
L 136.694471 109.448977 
L 144.646918 104.410786 
L 152.599365 99.372595 
L 160.551812 94.334404 
L 168.504259 89.296212 
L 176.456706 84.258021 
L 184.409154 79.21983 
L 192.361601 74.181639 
L 200.314048 69.143447 
L 208.266495 64.105256 
L 216.218942 59.067065 
L 224.171389 54.028874 
L 232.123836 48.990682 
L 240.076283 43.952491 
L 248.02873 38.9143 
L 255.981177 33.876109 
L 263.933625 28.837917 
L 271.886072 23.799726 
L 279.838519 18.761535 
L 287.790966 13.723344 
L 295.743413 8.685153 
L 303.69586 3.646961 
L 311.030777 -1 
" clip-path="url(#p37200c3807)" style="fill: none; stroke: #95b578; stroke-width: 1.5; stroke-linecap: square"/>
   </g>
   <g id="line2d_29">
    <path d="M 57.17 308.224781 
L 65.122447 308.405941 
L 73.074894 308.587102 
L 81.027341 308.768262 
L 88.979788 308.949423 
L 96.932235 309.130584 
L 104.884683 309.311744 
L 112.83713 309.492905 
L 120.789577 309.674065 
L 128.742024 309.855226 
L 136.694471 310.036386 
L 144.646918 310.217547 
L 152.599365 310.398707 
L 160.551812 310.579868 
L 168.504259 310.761028 
L 176.456706 310.942189 
L 184.409154 311.123349 
L 192.361601 311.30451 
L 200.314048 311.485671 
L 208.266495 311.666831 
L 216.218942 311.847992 
L 224.171389 312.029152 
L 232.123836 312.210313 
L 240.076283 312.391473 
L 248.02873 312.572634 
L 255.981177 312.753794 
L 263.933625 312.934955 
L 271.886072 313.116115 
L 279.838519 313.297276 
L 287.790966 313.478437 
L 295.743413 313.659597 
L 303.69586 313.840758 
L 311.648307 314.021918 
L 319.600754 314.203079 
L 327.553201 314.384239 
L 335.505648 314.5654 
L 343.458096 314.74656 
L 351.410543 314.927721 
L 359.36299 315.108881 
L 367.315437 315.290042 
L 375.267884 315.471202 
L 383.220331 315.652363 
L 391.172778 315.833524 
L 399.125225 316.014684 
L 407.077672 316.195845 
L 415.030119 316.377005 
L 422.982567 316.558166 
L 430.935014 316.739326 
L 438.887461 316.920487 
L 446.839908 317.101647 
" clip-path="url(#p37200c3807)" style="fill: none; stroke: #c004b9; stroke-width: 1.5; stroke-linecap: square"/>
   </g>
   <g id="line2d_30">
    <path d="M 57.17 277.933627 
L 65.122447 277.489347 
L 73.074894 277.045068 
L 81.027341 276.600788 
L 88.979788 276.156509 
L 96.932235 275.712229 
L 104.884683 275.26795 
L 112.83713 274.82367 
L 120.789577 274.37939 
L 128.742024 273.935111 
L 136.694471 273.490831 
L 144.646918 273.046552 
L 152.599365 272.602272 
L 160.551812 272.157993 
L 168.504259 271.713713 
L 176.456706 271.269434 
L 184.409154 270.825154 
L 192.361601 270.380874 
L 200.314048 269.936595 
L 208.266495 269.492315 
L 216.218942 269.048036 
L 224.171389 268.603756 
L 232.123836 268.159477 
L 240.076283 267.715197 
L 248.02873 267.270918 
L 255.981177 266.826638 
L 263.933625 266.382358 
L 271.886072 265.938079 
L 279.838519 265.493799 
L 287.790966 265.04952 
L 295.743413 264.60524 
L 303.69586 264.160961 
L 311.648307 263.716681 
L 319.600754 263.272402 
L 327.553201 262.828122 
L 335.505648 262.383842 
L 343.458096 261.939563 
L 351.410543 261.495283 
L 359.36299 261.051004 
L 367.315437 260.606724 
L 375.267884 260.162445 
L 383.220331 259.718165 
L 391.172778 259.273886 
L 399.125225 258.829606 
L 407.077672 258.385326 
L 415.030119 257.941047 
L 422.982567 257.496767 
L 430.935014 257.052488 
L 438.887461 256.608208 
L 446.839908 256.163929 
" clip-path="url(#p37200c3807)" style="fill: none; stroke: #0774d8; stroke-width: 1.5; stroke-linecap: square"/>
   </g>
   <g id="line2d_31">
    <path d="M 57.17 235.535974 
L 65.122447 233.488082 
L 73.074894 231.440191 
L 81.027341 229.392299 
L 88.979788 227.344407 
L 96.932235 225.296515 
L 104.884683 223.248623 
L 112.83713 221.200731 
L 120.789577 219.152839 
L 128.742024 217.104947 
L 136.694471 215.057055 
L 144.646918 213.009163 
L 152.599365 210.961271 
L 160.551812 208.913379 
L 168.504259 206.865487 
L 176.456706 204.817595 
L 184.409154 202.769703 
L 192.361601 200.721811 
L 200.314048 198.67392 
L 208.266495 196.626028 
L 216.218942 194.578136 
L 224.171389 192.530244 
L 232.123836 190.482352 
L 240.076283 188.43446 
L 248.02873 186.386568 
L 255.981177 184.338676 
L 263.933625 182.290784 
L 271.886072 180.242892 
L 279.838519 178.195 
L 287.790966 176.147108 
L 295.743413 174.099216 
L 303.69586 172.051324 
L 311.648307 170.003432 
L 319.600754 167.95554 
L 327.553201 165.907648 
L 335.505648 163.859757 
L 343.458096 161.811865 
L 351.410543 159.763973 
L 359.36299 157.716081 
L 367.315437 155.668189 
L 375.267884 153.620297 
L 383.220331 151.572405 
L 391.172778 149.524513 
L 399.125225 147.476621 
L 407.077672 145.428729 
L 415.030119 143.380837 
L 422.982567 141.332945 
L 430.935014 139.285053 
L 438.887461 137.237161 
L 446.839908 135.189269 
" clip-path="url(#p37200c3807)" style="fill: none; stroke: #fef590; stroke-width: 1.5; stroke-linecap: square"/>
   </g>
   <g id="line2d_32">
    <path d="M 57.17 247.366432 
L 65.122447 247.434399 
L 73.074894 247.502365 
L 81.027341 247.570332 
L 88.979788 247.638298 
L 96.932235 247.706265 
L 104.884683 247.774231 
L 112.83713 247.842198 
L 120.789577 247.910164 
L 128.742024 247.978131 
L 136.694471 248.046097 
L 144.646918 248.114064 
L 152.599365 248.18203 
L 160.551812 248.249997 
L 168.504259 248.317963 
L 176.456706 248.38593 
L 184.409154 248.453896 
L 192.361601 248.521863 
L 200.314048 248.589829 
L 208.266495 248.657796 
L 216.218942 248.725762 
L 224.171389 248.793729 
L 232.123836 248.861695 
L 240.076283 248.929662 
L 248.02873 248.997628 
L 255.981177 249.065595 
L 263.933625 249.133561 
L 271.886072 249.201528 
L 279.838519 249.269494 
L 287.790966 249.337461 
L 295.743413 249.405427 
L 303.69586 249.473394 
L 311.648307 249.54136 
L 319.600754 249.609327 
L 327.553201 249.677293 
L 335.505648 249.74526 
L 343.458096 249.813226 
L 351.410543 249.881193 
L 359.36299 249.949159 
L 367.315437 250.017126 
L 375.267884 250.085092 
L 383.220331 250.153059 
L 391.172778 250.221025 
L 399.125225 250.288992 
L 407.077672 250.356958 
L 415.030119 250.424925 
L 422.982567 250.492891 
L 430.935014 250.560858 
L 438.887461 250.628824 
L 446.839908 250.696791 
" clip-path="url(#p37200c3807)" style="fill: none; stroke: #8f7a00; stroke-width: 1.5; stroke-linecap: square"/>
   </g>
   <g id="line2d_33">
    <path d="M 57.17 234.683959 
L 65.122447 233.219589 
L 73.074894 231.755219 
L 81.027341 230.290848 
L 88.979788 228.826478 
L 96.932235 227.362108 
L 104.884683 225.897737 
L 112.83713 224.433367 
L 120.789577 222.968996 
L 128.742024 221.504626 
L 136.694471 220.040256 
L 144.646918 218.575885 
L 152.599365 217.111515 
L 160.551812 215.647145 
L 168.504259 214.182774 
L 176.456706 212.718404 
L 184.409154 211.254034 
L 192.361601 209.789663 
L 200.314048 208.325293 
L 208.266495 206.860923 
L 216.218942 205.396552 
L 224.171389 203.932182 
L 232.123836 202.467812 
L 240.076283 201.003441 
L 248.02873 199.539071 
L 255.981177 198.074701 
L 263.933625 196.61033 
L 271.886072 195.14596 
L 279.838519 193.68159 
L 287.790966 192.217219 
L 295.743413 190.752849 
L 303.69586 189.288479 
L 311.648307 187.824108 
L 319.600754 186.359738 
L 327.553201 184.895368 
L 335.505648 183.430997 
L 343.458096 181.966627 
L 351.410543 180.502257 
L 359.36299 179.037886 
L 367.315437 177.573516 
L 375.267884 176.109145 
L 383.220331 174.644775 
L 391.172778 173.180405 
L 399.125225 171.716034 
L 407.077672 170.251664 
L 415.030119 168.787294 
L 422.982567 167.322923 
L 430.935014 165.858553 
L 438.887461 164.394183 
L 446.839908 162.929812 
" clip-path="url(#p37200c3807)" style="fill: none; stroke: #ff7266; stroke-width: 1.5; stroke-linecap: square"/>
   </g>
   <g id="line2d_34">
    <path d="M 57.17 174.573423 
L 65.122447 174.028913 
L 73.074894 173.484402 
L 81.027341 172.939892 
L 88.979788 172.395381 
L 96.932235 171.850871 
L 104.884683 171.30636 
L 112.83713 170.76185 
L 120.789577 170.217339 
L 128.742024 169.672829 
L 136.694471 169.128318 
L 144.646918 168.583808 
L 152.599365 168.039297 
L 160.551812 167.494787 
L 168.504259 166.950276 
L 176.456706 166.405766 
L 184.409154 165.861255 
L 192.361601 165.316745 
L 200.314048 164.772234 
L 208.266495 164.227724 
L 216.218942 163.683214 
L 224.171389 163.138703 
L 232.123836 162.594193 
L 240.076283 162.049682 
L 248.02873 161.505172 
L 255.981177 160.960661 
L 263.933625 160.416151 
L 271.886072 159.87164 
L 279.838519 159.32713 
L 287.790966 158.782619 
L 295.743413 158.238109 
L 303.69586 157.693598 
L 311.648307 157.149088 
L 319.600754 156.604577 
L 327.553201 156.060067 
L 335.505648 155.515556 
L 343.458096 154.971046 
L 351.410543 154.426535 
L 359.36299 153.882025 
L 367.315437 153.337515 
L 375.267884 152.793004 
L 383.220331 152.248494 
L 391.172778 151.703983 
L 399.125225 151.159473 
L 407.077672 150.614962 
L 415.030119 150.070452 
L 422.982567 149.525941 
L 430.935014 148.981431 
L 438.887461 148.43692 
L 446.839908 147.89241 
" clip-path="url(#p37200c3807)" style="fill: none; stroke: #eeb9b9; stroke-width: 1.5; stroke-linecap: square"/>
   </g>
   <g id="line2d_35">
    <path d="M 57.17 257.286082 
L 65.122447 255.309554 
L 73.074894 253.333027 
L 81.027341 251.3565 
L 88.979788 249.379972 
L 96.932235 247.403445 
L 104.884683 245.426918 
L 112.83713 243.450391 
L 120.789577 241.473863 
L 128.742024 239.497336 
L 136.694471 237.520809 
L 144.646918 235.544281 
L 152.599365 233.567754 
L 160.551812 231.591227 
L 168.504259 229.6147 
L 176.456706 227.638172 
L 184.409154 225.661645 
L 192.361601 223.685118 
L 200.314048 221.70859 
L 208.266495 219.732063 
L 216.218942 217.755536 
L 224.171389 215.779009 
L 232.123836 213.802481 
L 240.076283 211.825954 
L 248.02873 209.849427 
L 255.981177 207.872899 
L 263.933625 205.896372 
L 271.886072 203.919845 
L 279.838519 201.943318 
L 287.790966 199.96679 
L 295.743413 197.990263 
L 303.69586 196.013736 
L 311.648307 194.037208 
L 319.600754 192.060681 
L 327.553201 190.084154 
L 335.505648 188.107626 
L 343.458096 186.131099 
L 351.410543 184.154572 
L 359.36299 182.178045 
L 367.315437 180.201517 
L 375.267884 178.22499 
L 383.220331 176.248463 
L 391.172778 174.271935 
L 399.125225 172.295408 
L 407.077672 170.318881 
L 415.030119 168.342354 
L 422.982567 166.365826 
L 430.935014 164.389299 
L 438.887461 162.412772 
L 446.839908 160.436244 
" clip-path="url(#p37200c3807)" style="fill: none; stroke: #5e7e66; stroke-width: 1.5; stroke-linecap: square"/>
   </g>
   <g id="line2d_36">
    <path d="M 57.17 341.24323 
L 65.122447 341.222204 
L 73.074894 341.201178 
L 81.027341 341.180153 
L 88.979788 341.159127 
L 96.932235 341.138102 
L 104.884683 341.117076 
L 112.83713 341.096051 
L 120.789577 341.075025 
L 128.742024 341.054 
L 136.694471 341.032974 
L 144.646918 341.011948 
L 152.599365 340.990923 
L 160.551812 340.969897 
L 168.504259 340.948872 
L 176.456706 340.927846 
L 184.409154 340.906821 
L 192.361601 340.885795 
L 200.314048 340.86477 
L 208.266495 340.843744 
L 216.218942 340.822718 
L 224.171389 340.801693 
L 232.123836 340.780667 
L 240.076283 340.759642 
L 248.02873 340.738616 
L 255.981177 340.717591 
L 263.933625 340.696565 
L 271.886072 340.67554 
L 279.838519 340.654514 
L 287.790966 340.633488 
L 295.743413 340.612463 
L 303.69586 340.591437 
L 311.648307 340.570412 
L 319.600754 340.549386 
L 327.553201 340.528361 
L 335.505648 340.507335 
L 343.458096 340.48631 
L 351.410543 340.465284 
L 359.36299 340.444258 
L 367.315437 340.423233 
L 375.267884 340.402207 
L 383.220331 340.381182 
L 391.172778 340.360156 
L 399.125225 340.339131 
L 407.077672 340.318105 
L 415.030119 340.29708 
L 422.982567 340.276054 
L 430.935014 340.255028 
L 438.887461 340.234003 
L 446.839908 340.212977 
" clip-path="url(#p37200c3807)" style="fill: none; stroke: #9be4ff; stroke-width: 1.5; stroke-linecap: square"/>
   </g>
   <g id="patch_3">
    <path d="M 57.17 303.64 
L 57.17 10.8 
" style="fill: none; stroke: #000000; stroke-width: 0.8; stroke-linejoin: miter; stroke-linecap: square"/>
   </g>
   <g id="patch_4">
    <path d="M 446.839908 303.64 
L 446.839908 10.8 
" style="fill: none; stroke: #000000; stroke-width: 0.8; stroke-linejoin: miter; stroke-linecap: square"/>
   </g>
   <g id="patch_5">
    <path d="M 57.17 303.64 
L 446.839908 303.64 
" style="fill: none; stroke: #000000; stroke-width: 0.8; stroke-linejoin: miter; stroke-linecap: square"/>
   </g>
   <g id="patch_6">
    <path d="M 57.17 10.8 
L 446.839908 10.8 
" style="fill: none; stroke: #000000; stroke-width: 0.8; stroke-linejoin: miter; stroke-linecap: square"/>
   </g>
   <g id="legend_1">
    <g id="patch_7">
     <path d="M 64.17 165.58125 
L 173.424688 165.58125 
Q 175.424688 165.58125 175.424688 163.58125 
L 175.424688 17.8 
Q 175.424688 15.8 173.424688 15.8 
L 64.17 15.8 
Q 62.17 15.8 62.17 17.8 
L 62.17 163.58125 
Q 62.17 165.58125 64.17 165.58125 
z
" style="fill: #ffffff; opacity: 0.8; stroke: #cccccc; stroke-linejoin: miter"/>
    </g>
    <g id="line2d_37">
     <path d="M 66.17 23.898438 
L 76.17 23.898438 
L 86.17 23.898438 
" style="fill: none; stroke: #d70000; stroke-width: 1.5; stroke-linecap: square"/>
    </g>
    <g id="text_20">
     <!-- AT -->
     <g transform="translate(94.17 27.398438)scale(0.1 -0.1)">
      <defs>
       <path id="DejaVuSans-41" d="M 2188 4044 
L 1331 1722 
L 3047 1722 
L 2188 4044 
z
M 1831 4666 
L 2547 4666 
L 4325 0 
L 3669 0 
L 3244 1197 
L 1141 1197 
L 716 0 
L 50 0 
L 1831 4666 
z
" transform="scale(0.015625)"/>
       <path id="DejaVuSans-54" d="M -19 4666 
L 3928 4666 
L 3928 4134 
L 2272 4134 
L 2272 0 
L 1638 0 
L 1638 4134 
L -19 4134 
L -19 4666 
z
" transform="scale(0.015625)"/>
      </defs>
      <use xlink:href="#DejaVuSans-41"/>
      <use xlink:href="#DejaVuSans-54" x="60.658203"/>
     </g>
    </g>
    <g id="line2d_38">
     <path d="M 66.17 38.576563 
L 76.17 38.576563 
L 86.17 38.576563 
" style="fill: none; stroke: #8c3cff; stroke-width: 1.5; stroke-linecap: square"/>
    </g>
    <g id="text_21">
     <!-- BE -->
     <g transform="translate(94.17 42.076563)scale(0.1 -0.1)">
      <use xlink:href="#DejaVuSans-42"/>
      <use xlink:href="#DejaVuSans-45" x="68.603516"/>
     </g>
    </g>
    <g id="line2d_39">
     <path d="M 66.17 53.254688 
L 76.17 53.254688 
L 86.17 53.254688 
" style="fill: none; stroke: #028800; stroke-width: 1.5; stroke-linecap: square"/>
    </g>
    <g id="text_22">
     <!-- BG -->
     <g transform="translate(94.17 56.754688)scale(0.1 -0.1)">
      <use xlink:href="#DejaVuSans-42"/>
      <use xlink:href="#DejaVuSans-47" x="66.853516"/>
     </g>
    </g>
    <g id="line2d_40">
     <path d="M 66.17 67.932813 
L 76.17 67.932813 
L 86.17 67.932813 
" style="fill: none; stroke: #00acc7; stroke-width: 1.5; stroke-linecap: square"/>
    </g>
    <g id="text_23">
     <!-- CY -->
     <g transform="translate(94.17 71.432813)scale(0.1 -0.1)">
      <defs>
       <path id="DejaVuSans-43" d="M 4122 4306 
L 4122 3641 
Q 3803 3938 3442 4084 
Q 3081 4231 2675 4231 
Q 1875 4231 1450 3742 
Q 1025 3253 1025 2328 
Q 1025 1406 1450 917 
Q 1875 428 2675 428 
Q 3081 428 3442 575 
Q 3803 722 4122 1019 
L 4122 359 
Q 3791 134 3420 21 
Q 3050 -91 2638 -91 
Q 1578 -91 968 557 
Q 359 1206 359 2328 
Q 359 3453 968 4101 
Q 1578 4750 2638 4750 
Q 3056 4750 3426 4639 
Q 3797 4528 4122 4306 
z
" transform="scale(0.015625)"/>
       <path id="DejaVuSans-59" d="M -13 4666 
L 666 4666 
L 1959 2747 
L 3244 4666 
L 3922 4666 
L 2272 2222 
L 2272 0 
L 1638 0 
L 1638 2222 
L -13 4666 
z
" transform="scale(0.015625)"/>
      </defs>
      <use xlink:href="#DejaVuSans-43"/>
      <use xlink:href="#DejaVuSans-59" x="68.074219"/>
     </g>
    </g>
    <g id="line2d_41">
     <path d="M 66.17 82.610938 
L 76.17 82.610938 
L 86.17 82.610938 
" style="fill: none; stroke: #98ff00; stroke-width: 1.5; stroke-linecap: square"/>
    </g>
    <g id="text_24">
     <!-- CZ -->
     <g transform="translate(94.17 86.110938)scale(0.1 -0.1)">
      <defs>
       <path id="DejaVuSans-5a" d="M 359 4666 
L 4025 4666 
L 4025 4184 
L 1075 531 
L 4097 531 
L 4097 0 
L 288 0 
L 288 481 
L 3238 4134 
L 359 4134 
L 359 4666 
z
" transform="scale(0.015625)"/>
      </defs>
      <use xlink:href="#DejaVuSans-43"/>
      <use xlink:href="#DejaVuSans-5a" x="69.824219"/>
     </g>
    </g>
    <g id="line2d_42">
     <path d="M 66.17 97.289063 
L 76.17 97.289063 
L 86.17 97.289063 
" style="fill: none; stroke: #ff7fd1; stroke-width: 1.5; stroke-linecap: square"/>
    </g>
    <g id="text_25">
     <!-- DE -->
     <g transform="translate(94.17 100.789063)scale(0.1 -0.1)">
      <use xlink:href="#DejaVuSans-44"/>
      <use xlink:href="#DejaVuSans-45" x="77.001953"/>
     </g>
    </g>
    <g id="line2d_43">
     <path d="M 66.17 111.967188 
L 76.17 111.967188 
L 86.17 111.967188 
" style="fill: none; stroke: #6c004f; stroke-width: 1.5; stroke-linecap: square"/>
    </g>
    <g id="text_26">
     <!-- DK -->
     <g transform="translate(94.17 115.467188)scale(0.1 -0.1)">
      <defs>
       <path id="DejaVuSans-4b" d="M 628 4666 
L 1259 4666 
L 1259 2694 
L 3353 4666 
L 4166 4666 
L 1850 2491 
L 4331 0 
L 3500 0 
L 1259 2247 
L 1259 0 
L 628 0 
L 628 4666 
z
" transform="scale(0.015625)"/>
      </defs>
      <use xlink:href="#DejaVuSans-44"/>
      <use xlink:href="#DejaVuSans-4b" x="77.001953"/>
     </g>
    </g>
    <g id="line2d_44">
     <path d="M 66.17 126.645313 
L 76.17 126.645313 
L 86.17 126.645313 
" style="fill: none; stroke: #583b00; stroke-width: 1.5; stroke-linecap: square"/>
    </g>
    <g id="text_27">
     <!-- EL -->
     <g transform="translate(94.17 130.145313)scale(0.1 -0.1)">
      <defs>
       <path id="DejaVuSans-4c" d="M 628 4666 
L 1259 4666 
L 1259 531 
L 3531 531 
L 3531 0 
L 628 0 
L 628 4666 
z
" transform="scale(0.015625)"/>
      </defs>
      <use xlink:href="#DejaVuSans-45"/>
      <use xlink:href="#DejaVuSans-4c" x="63.183594"/>
     </g>
    </g>
    <g id="line2d_45">
     <path d="M 66.17 141.323438 
L 76.17 141.323438 
L 86.17 141.323438 
" style="fill: none; stroke: #005759; stroke-width: 1.5; stroke-linecap: square"/>
    </g>
    <g id="text_28">
     <!-- ES -->
     <g transform="translate(94.17 144.823438)scale(0.1 -0.1)">
      <use xlink:href="#DejaVuSans-45"/>
      <use xlink:href="#DejaVuSans-53" x="63.183594"/>
     </g>
    </g>
    <g id="line2d_46">
     <path d="M 66.17 156.001563 
L 76.17 156.001563 
L 86.17 156.001563 
" style="fill: none; stroke: #0000dd; stroke-width: 1.5; stroke-linecap: square"/>
    </g>
    <g id="text_29">
     <!-- FI -->
     <g transform="translate(94.17 159.501563)scale(0.1 -0.1)">
      <defs>
       <path id="DejaVuSans-46" d="M 628 4666 
L 3309 4666 
L 3309 4134 
L 1259 4134 
L 1259 2759 
L 3109 2759 
L 3109 2228 
L 1259 2228 
L 1259 0 
L 628 0 
L 628 4666 
z
" transform="scale(0.015625)"/>
       <path id="DejaVuSans-49" d="M 628 4666 
L 1259 4666 
L 1259 0 
L 628 0 
L 628 4666 
z
" transform="scale(0.015625)"/>
      </defs>
      <use xlink:href="#DejaVuSans-46"/>
      <use xlink:href="#DejaVuSans-49" x="57.519531"/>
     </g>
    </g>
    <g id="line2d_47">
     <path d="M 128.604375 23.898438 
L 138.604375 23.898438 
L 148.604375 23.898438 
" style="fill: none; stroke: #95b578; stroke-width: 1.5; stroke-linecap: square"/>
    </g>
    <g id="text_30">
     <!-- IT -->
     <g transform="translate(156.604375 27.398438)scale(0.1 -0.1)">
      <use xlink:href="#DejaVuSans-49"/>
      <use xlink:href="#DejaVuSans-54" x="29.492188"/>
     </g>
    </g>
    <g id="line2d_48">
     <path d="M 128.604375 38.576563 
L 138.604375 38.576563 
L 148.604375 38.576563 
" style="fill: none; stroke: #c004b9; stroke-width: 1.5; stroke-linecap: square"/>
    </g>
    <g id="text_31">
     <!-- LT -->
     <g transform="translate(156.604375 42.076563)scale(0.1 -0.1)">
      <use xlink:href="#DejaVuSans-4c"/>
      <use xlink:href="#DejaVuSans-54" x="41.962891"/>
     </g>
    </g>
    <g id="line2d_49">
     <path d="M 128.604375 53.254688 
L 138.604375 53.254688 
L 148.604375 53.254688 
" style="fill: none; stroke: #0774d8; stroke-width: 1.5; stroke-linecap: square"/>
    </g>
    <g id="text_32">
     <!-- MT -->
     <g transform="translate(156.604375 56.754688)scale(0.1 -0.1)">
      <defs>
       <path id="DejaVuSans-4d" d="M 628 4666 
L 1569 4666 
L 2759 1491 
L 3956 4666 
L 4897 4666 
L 4897 0 
L 4281 0 
L 4281 4097 
L 3078 897 
L 2444 897 
L 1241 4097 
L 1241 0 
L 628 0 
L 628 4666 
z
" transform="scale(0.015625)"/>
      </defs>
      <use xlink:href="#DejaVuSans-4d"/>
      <use xlink:href="#DejaVuSans-54" x="86.279297"/>
     </g>
    </g>
    <g id="line2d_50">
     <path d="M 128.604375 67.932813 
L 138.604375 67.932813 
L 148.604375 67.932813 
" style="fill: none; stroke: #fef590; stroke-width: 1.5; stroke-linecap: square"/>
    </g>
    <g id="text_33">
     <!-- NL -->
     <g transform="translate(156.604375 71.432813)scale(0.1 -0.1)">
      <use xlink:href="#DejaVuSans-4e"/>
      <use xlink:href="#DejaVuSans-4c" x="74.804688"/>
     </g>
    </g>
    <g id="line2d_51">
     <path d="M 128.604375 82.610938 
L 138.604375 82.610938 
L 148.604375 82.610938 
" style="fill: none; stroke: #8f7a00; stroke-width: 1.5; stroke-linecap: square"/>
    </g>
    <g id="text_34">
     <!-- PT -->
     <g transform="translate(156.604375 86.110938)scale(0.1 -0.1)">
      <use xlink:href="#DejaVuSans-50"/>
      <use xlink:href="#DejaVuSans-54" x="60.302734"/>
     </g>
    </g>
    <g id="line2d_52">
     <path d="M 128.604375 97.289063 
L 138.604375 97.289063 
L 148.604375 97.289063 
" style="fill: none; stroke: #ff7266; stroke-width: 1.5; stroke-linecap: square"/>
    </g>
    <g id="text_35">
     <!-- RO -->
     <g transform="translate(156.604375 100.789063)scale(0.1 -0.1)">
      <defs>
       <path id="DejaVuSans-52" d="M 2841 2188 
Q 3044 2119 3236 1894 
Q 3428 1669 3622 1275 
L 4263 0 
L 3584 0 
L 2988 1197 
Q 2756 1666 2539 1819 
Q 2322 1972 1947 1972 
L 1259 1972 
L 1259 0 
L 628 0 
L 628 4666 
L 2053 4666 
Q 2853 4666 3247 4331 
Q 3641 3997 3641 3322 
Q 3641 2881 3436 2590 
Q 3231 2300 2841 2188 
z
M 1259 4147 
L 1259 2491 
L 2053 2491 
Q 2509 2491 2742 2702 
Q 2975 2913 2975 3322 
Q 2975 3731 2742 3939 
Q 2509 4147 2053 4147 
L 1259 4147 
z
" transform="scale(0.015625)"/>
       <path id="DejaVuSans-4f" d="M 2522 4238 
Q 1834 4238 1429 3725 
Q 1025 3213 1025 2328 
Q 1025 1447 1429 934 
Q 1834 422 2522 422 
Q 3209 422 3611 934 
Q 4013 1447 4013 2328 
Q 4013 3213 3611 3725 
Q 3209 4238 2522 4238 
z
M 2522 4750 
Q 3503 4750 4090 4092 
Q 4678 3434 4678 2328 
Q 4678 1225 4090 567 
Q 3503 -91 2522 -91 
Q 1538 -91 948 565 
Q 359 1222 359 2328 
Q 359 3434 948 4092 
Q 1538 4750 2522 4750 
z
" transform="scale(0.015625)"/>
      </defs>
      <use xlink:href="#DejaVuSans-52"/>
      <use xlink:href="#DejaVuSans-4f" x="69.482422"/>
     </g>
    </g>
    <g id="line2d_53">
     <path d="M 128.604375 111.967188 
L 138.604375 111.967188 
L 148.604375 111.967188 
" style="fill: none; stroke: #eeb9b9; stroke-width: 1.5; stroke-linecap: square"/>
    </g>
    <g id="text_36">
     <!-- SE -->
     <g transform="translate(156.604375 115.467188)scale(0.1 -0.1)">
      <use xlink:href="#DejaVuSans-53"/>
      <use xlink:href="#DejaVuSans-45" x="63.476562"/>
     </g>
    </g>
    <g id="line2d_54">
     <path d="M 128.604375 126.645313 
L 138.604375 126.645313 
L 148.604375 126.645313 
" style="fill: none; stroke: #5e7e66; stroke-width: 1.5; stroke-linecap: square"/>
    </g>
    <g id="text_37">
     <!-- SI -->
     <g transform="translate(156.604375 130.145313)scale(0.1 -0.1)">
      <use xlink:href="#DejaVuSans-53"/>
      <use xlink:href="#DejaVuSans-49" x="63.476562"/>
     </g>
    </g>
    <g id="line2d_55">
     <path d="M 128.604375 141.323438 
L 138.604375 141.323438 
L 148.604375 141.323438 
" style="fill: none; stroke: #9be4ff; stroke-width: 1.5; stroke-linecap: square"/>
    </g>
    <g id="text_38">
     <!-- SK -->
     <g transform="translate(156.604375 144.823438)scale(0.1 -0.1)">
      <use xlink:href="#DejaVuSans-53"/>
      <use xlink:href="#DejaVuSans-4b" x="63.476562"/>
     </g>
    </g>
   </g>
  </g>
 </g>
 <defs>
  <clipPath id="p37200c3807">
   <rect x="57.17" y="10.8" width="389.669908" height="292.84"/>
  </clipPath>
 </defs>
</svg>
