<?xml version="1.0" encoding="utf-8" standalone="no"?>
<!DOCTYPE svg PUBLIC "-//W3C//DTD SVG 1.1//EN"
  "http://www.w3.org/Graphics/SVG/1.1/DTD/svg11.dtd">
<svg xmlns:xlink="http://www.w3.org/1999/xlink" width="460.8pt" height="345.6pt" viewBox="0 0 460.8 345.6" xmlns="http://www.w3.org/2000/svg" version="1.1">
 <metadata>
  <rdf:RDF xmlns:dc="http://purl.org/dc/elements/1.1/" xmlns:cc="http://creativecommons.org/ns#" xmlns:rdf="http://www.w3.org/1999/02/22-rdf-syntax-ns#">
   <cc:Work>
    <dc:type rdf:resource="http://purl.org/dc/dcmitype/StillImage"/>
    <dc:date>2024-02-02T17:08:18.896530</dc:date>
    <dc:format>image/svg+xml</dc:format>
    <dc:creator>
     <cc:Agent>
      <dc:title>Matplotlib v3.5.1, https://matplotlib.org/</dc:title>
     </cc:Agent>
    </dc:creator>
   </cc:Work>
  </rdf:RDF>
 </metadata>
 <defs>
  <style type="text/css">*{stroke-linejoin: round; stroke-linecap: butt}</style>
 </defs>
 <g id="figure_1">
  <g id="patch_1">
   <path d="M 0 345.6 
L 460.8 345.6 
L 460.8 0 
L 0 0 
L 0 345.6 
z
" style="fill: none"/>
  </g>
  <g id="axes_1">
   <g id="patch_2">
    <path d="M 57.17 303.64 
L 450 303.64 
L 450 14.76 
L 57.17 14.76 
L 57.17 303.64 
z
" style="fill: none"/>
   </g>
   <g id="matplotlib.axis_1">
    <g id="xtick_1">
     <g id="line2d_1">
      <defs>
       <path id="mecd3c91dd8" d="M 0 0 
L 0 3.5 
" style="stroke: #000000; stroke-width: 0.8"/>
      </defs>
      <g>
       <use xlink:href="#mecd3c91dd8" x="100.633461" y="303.64" style="stroke: #000000; stroke-width: 0.8"/>
      </g>
     </g>
     <g id="text_1">
      <!-- 20 -->
      <g transform="translate(94.270961 318.238437)scale(0.1 -0.1)">
       <defs>
        <path id="DejaVuSans-32" d="M 1228 531 
L 3431 531 
L 3431 0 
L 469 0 
L 469 531 
Q 828 903 1448 1529 
Q 2069 2156 2228 2338 
Q 2531 2678 2651 2914 
Q 2772 3150 2772 3378 
Q 2772 3750 2511 3984 
Q 2250 4219 1831 4219 
Q 1534 4219 1204 4116 
Q 875 4013 500 3803 
L 500 4441 
Q 881 4594 1212 4672 
Q 1544 4750 1819 4750 
Q 2544 4750 2975 4387 
Q 3406 4025 3406 3419 
Q 3406 3131 3298 2873 
Q 3191 2616 2906 2266 
Q 2828 2175 2409 1742 
Q 1991 1309 1228 531 
z
" transform="scale(0.015625)"/>
        <path id="DejaVuSans-30" d="M 2034 4250 
Q 1547 4250 1301 3770 
Q 1056 3291 1056 2328 
Q 1056 1369 1301 889 
Q 1547 409 2034 409 
Q 2525 409 2770 889 
Q 3016 1369 3016 2328 
Q 3016 3291 2770 3770 
Q 2525 4250 2034 4250 
z
M 2034 4750 
Q 2819 4750 3233 4129 
Q 3647 3509 3647 2328 
Q 3647 1150 3233 529 
Q 2819 -91 2034 -91 
Q 1250 -91 836 529 
Q 422 1150 422 2328 
Q 422 3509 836 4129 
Q 1250 4750 2034 4750 
z
" transform="scale(0.015625)"/>
       </defs>
       <use xlink:href="#DejaVuSans-32"/>
       <use xlink:href="#DejaVuSans-30" x="63.623047"/>
      </g>
     </g>
    </g>
    <g id="xtick_2">
     <g id="line2d_2">
      <g>
       <use xlink:href="#mecd3c91dd8" x="146.208104" y="303.64" style="stroke: #000000; stroke-width: 0.8"/>
      </g>
     </g>
     <g id="text_2">
      <!-- 40 -->
      <g transform="translate(139.845604 318.238437)scale(0.1 -0.1)">
       <defs>
        <path id="DejaVuSans-34" d="M 2419 4116 
L 825 1625 
L 2419 1625 
L 2419 4116 
z
M 2253 4666 
L 3047 4666 
L 3047 1625 
L 3713 1625 
L 3713 1100 
L 3047 1100 
L 3047 0 
L 2419 0 
L 2419 1100 
L 313 1100 
L 313 1709 
L 2253 4666 
z
" transform="scale(0.015625)"/>
       </defs>
       <use xlink:href="#DejaVuSans-34"/>
       <use xlink:href="#DejaVuSans-30" x="63.623047"/>
      </g>
     </g>
    </g>
    <g id="xtick_3">
     <g id="line2d_3">
      <g>
       <use xlink:href="#mecd3c91dd8" x="191.782747" y="303.64" style="stroke: #000000; stroke-width: 0.8"/>
      </g>
     </g>
     <g id="text_3">
      <!-- 60 -->
      <g transform="translate(185.420247 318.238437)scale(0.1 -0.1)">
       <defs>
        <path id="DejaVuSans-36" d="M 2113 2584 
Q 1688 2584 1439 2293 
Q 1191 2003 1191 1497 
Q 1191 994 1439 701 
Q 1688 409 2113 409 
Q 2538 409 2786 701 
Q 3034 994 3034 1497 
Q 3034 2003 2786 2293 
Q 2538 2584 2113 2584 
z
M 3366 4563 
L 3366 3988 
Q 3128 4100 2886 4159 
Q 2644 4219 2406 4219 
Q 1781 4219 1451 3797 
Q 1122 3375 1075 2522 
Q 1259 2794 1537 2939 
Q 1816 3084 2150 3084 
Q 2853 3084 3261 2657 
Q 3669 2231 3669 1497 
Q 3669 778 3244 343 
Q 2819 -91 2113 -91 
Q 1303 -91 875 529 
Q 447 1150 447 2328 
Q 447 3434 972 4092 
Q 1497 4750 2381 4750 
Q 2619 4750 2861 4703 
Q 3103 4656 3366 4563 
z
" transform="scale(0.015625)"/>
       </defs>
       <use xlink:href="#DejaVuSans-36"/>
       <use xlink:href="#DejaVuSans-30" x="63.623047"/>
      </g>
     </g>
    </g>
    <g id="xtick_4">
     <g id="line2d_4">
      <g>
       <use xlink:href="#mecd3c91dd8" x="237.357389" y="303.64" style="stroke: #000000; stroke-width: 0.8"/>
      </g>
     </g>
     <g id="text_4">
      <!-- 80 -->
      <g transform="translate(230.994889 318.238437)scale(0.1 -0.1)">
       <defs>
        <path id="DejaVuSans-38" d="M 2034 2216 
Q 1584 2216 1326 1975 
Q 1069 1734 1069 1313 
Q 1069 891 1326 650 
Q 1584 409 2034 409 
Q 2484 409 2743 651 
Q 3003 894 3003 1313 
Q 3003 1734 2745 1975 
Q 2488 2216 2034 2216 
z
M 1403 2484 
Q 997 2584 770 2862 
Q 544 3141 544 3541 
Q 544 4100 942 4425 
Q 1341 4750 2034 4750 
Q 2731 4750 3128 4425 
Q 3525 4100 3525 3541 
Q 3525 3141 3298 2862 
Q 3072 2584 2669 2484 
Q 3125 2378 3379 2068 
Q 3634 1759 3634 1313 
Q 3634 634 3220 271 
Q 2806 -91 2034 -91 
Q 1263 -91 848 271 
Q 434 634 434 1313 
Q 434 1759 690 2068 
Q 947 2378 1403 2484 
z
M 1172 3481 
Q 1172 3119 1398 2916 
Q 1625 2713 2034 2713 
Q 2441 2713 2670 2916 
Q 2900 3119 2900 3481 
Q 2900 3844 2670 4047 
Q 2441 4250 2034 4250 
Q 1625 4250 1398 4047 
Q 1172 3844 1172 3481 
z
" transform="scale(0.015625)"/>
       </defs>
       <use xlink:href="#DejaVuSans-38"/>
       <use xlink:href="#DejaVuSans-30" x="63.623047"/>
      </g>
     </g>
    </g>
    <g id="xtick_5">
     <g id="line2d_5">
      <g>
       <use xlink:href="#mecd3c91dd8" x="282.932032" y="303.64" style="stroke: #000000; stroke-width: 0.8"/>
      </g>
     </g>
     <g id="text_5">
      <!-- 100 -->
      <g transform="translate(273.388282 318.238437)scale(0.1 -0.1)">
       <defs>
        <path id="DejaVuSans-31" d="M 794 531 
L 1825 531 
L 1825 4091 
L 703 3866 
L 703 4441 
L 1819 4666 
L 2450 4666 
L 2450 531 
L 3481 531 
L 3481 0 
L 794 0 
L 794 531 
z
" transform="scale(0.015625)"/>
       </defs>
       <use xlink:href="#DejaVuSans-31"/>
       <use xlink:href="#DejaVuSans-30" x="63.623047"/>
       <use xlink:href="#DejaVuSans-30" x="127.246094"/>
      </g>
     </g>
    </g>
    <g id="xtick_6">
     <g id="line2d_6">
      <g>
       <use xlink:href="#mecd3c91dd8" x="328.506675" y="303.64" style="stroke: #000000; stroke-width: 0.8"/>
      </g>
     </g>
     <g id="text_6">
      <!-- 120 -->
      <g transform="translate(318.962925 318.238437)scale(0.1 -0.1)">
       <use xlink:href="#DejaVuSans-31"/>
       <use xlink:href="#DejaVuSans-32" x="63.623047"/>
       <use xlink:href="#DejaVuSans-30" x="127.246094"/>
      </g>
     </g>
    </g>
    <g id="xtick_7">
     <g id="line2d_7">
      <g>
       <use xlink:href="#mecd3c91dd8" x="374.081317" y="303.64" style="stroke: #000000; stroke-width: 0.8"/>
      </g>
     </g>
     <g id="text_7">
      <!-- 140 -->
      <g transform="translate(364.537567 318.238437)scale(0.1 -0.1)">
       <use xlink:href="#DejaVuSans-31"/>
       <use xlink:href="#DejaVuSans-34" x="63.623047"/>
       <use xlink:href="#DejaVuSans-30" x="127.246094"/>
      </g>
     </g>
    </g>
    <g id="xtick_8">
     <g id="line2d_8">
      <g>
       <use xlink:href="#mecd3c91dd8" x="419.65596" y="303.64" style="stroke: #000000; stroke-width: 0.8"/>
      </g>
     </g>
     <g id="text_8">
      <!-- 160 -->
      <g transform="translate(410.11221 318.238437)scale(0.1 -0.1)">
       <use xlink:href="#DejaVuSans-31"/>
       <use xlink:href="#DejaVuSans-36" x="63.623047"/>
       <use xlink:href="#DejaVuSans-30" x="127.246094"/>
      </g>
     </g>
    </g>
    <g id="text_9">
     <!-- Urban Density (inhabitants per 10 km²) -->
     <g transform="translate(155.056875 331.916562)scale(0.1 -0.1)">
      <defs>
       <path id="DejaVuSans-55" d="M 556 4666 
L 1191 4666 
L 1191 1831 
Q 1191 1081 1462 751 
Q 1734 422 2344 422 
Q 2950 422 3222 751 
Q 3494 1081 3494 1831 
L 3494 4666 
L 4128 4666 
L 4128 1753 
Q 4128 841 3676 375 
Q 3225 -91 2344 -91 
Q 1459 -91 1007 375 
Q 556 841 556 1753 
L 556 4666 
z
" transform="scale(0.015625)"/>
       <path id="DejaVuSans-72" d="M 2631 2963 
Q 2534 3019 2420 3045 
Q 2306 3072 2169 3072 
Q 1681 3072 1420 2755 
Q 1159 2438 1159 1844 
L 1159 0 
L 581 0 
L 581 3500 
L 1159 3500 
L 1159 2956 
Q 1341 3275 1631 3429 
Q 1922 3584 2338 3584 
Q 2397 3584 2469 3576 
Q 2541 3569 2628 3553 
L 2631 2963 
z
" transform="scale(0.015625)"/>
       <path id="DejaVuSans-62" d="M 3116 1747 
Q 3116 2381 2855 2742 
Q 2594 3103 2138 3103 
Q 1681 3103 1420 2742 
Q 1159 2381 1159 1747 
Q 1159 1113 1420 752 
Q 1681 391 2138 391 
Q 2594 391 2855 752 
Q 3116 1113 3116 1747 
z
M 1159 2969 
Q 1341 3281 1617 3432 
Q 1894 3584 2278 3584 
Q 2916 3584 3314 3078 
Q 3713 2572 3713 1747 
Q 3713 922 3314 415 
Q 2916 -91 2278 -91 
Q 1894 -91 1617 61 
Q 1341 213 1159 525 
L 1159 0 
L 581 0 
L 581 4863 
L 1159 4863 
L 1159 2969 
z
" transform="scale(0.015625)"/>
       <path id="DejaVuSans-61" d="M 2194 1759 
Q 1497 1759 1228 1600 
Q 959 1441 959 1056 
Q 959 750 1161 570 
Q 1363 391 1709 391 
Q 2188 391 2477 730 
Q 2766 1069 2766 1631 
L 2766 1759 
L 2194 1759 
z
M 3341 1997 
L 3341 0 
L 2766 0 
L 2766 531 
Q 2569 213 2275 61 
Q 1981 -91 1556 -91 
Q 1019 -91 701 211 
Q 384 513 384 1019 
Q 384 1609 779 1909 
Q 1175 2209 1959 2209 
L 2766 2209 
L 2766 2266 
Q 2766 2663 2505 2880 
Q 2244 3097 1772 3097 
Q 1472 3097 1187 3025 
Q 903 2953 641 2809 
L 641 3341 
Q 956 3463 1253 3523 
Q 1550 3584 1831 3584 
Q 2591 3584 2966 3190 
Q 3341 2797 3341 1997 
z
" transform="scale(0.015625)"/>
       <path id="DejaVuSans-6e" d="M 3513 2113 
L 3513 0 
L 2938 0 
L 2938 2094 
Q 2938 2591 2744 2837 
Q 2550 3084 2163 3084 
Q 1697 3084 1428 2787 
Q 1159 2491 1159 1978 
L 1159 0 
L 581 0 
L 581 3500 
L 1159 3500 
L 1159 2956 
Q 1366 3272 1645 3428 
Q 1925 3584 2291 3584 
Q 2894 3584 3203 3211 
Q 3513 2838 3513 2113 
z
" transform="scale(0.015625)"/>
       <path id="DejaVuSans-20" transform="scale(0.015625)"/>
       <path id="DejaVuSans-44" d="M 1259 4147 
L 1259 519 
L 2022 519 
Q 2988 519 3436 956 
Q 3884 1394 3884 2338 
Q 3884 3275 3436 3711 
Q 2988 4147 2022 4147 
L 1259 4147 
z
M 628 4666 
L 1925 4666 
Q 3281 4666 3915 4102 
Q 4550 3538 4550 2338 
Q 4550 1131 3912 565 
Q 3275 0 1925 0 
L 628 0 
L 628 4666 
z
" transform="scale(0.015625)"/>
       <path id="DejaVuSans-65" d="M 3597 1894 
L 3597 1613 
L 953 1613 
Q 991 1019 1311 708 
Q 1631 397 2203 397 
Q 2534 397 2845 478 
Q 3156 559 3463 722 
L 3463 178 
Q 3153 47 2828 -22 
Q 2503 -91 2169 -91 
Q 1331 -91 842 396 
Q 353 884 353 1716 
Q 353 2575 817 3079 
Q 1281 3584 2069 3584 
Q 2775 3584 3186 3129 
Q 3597 2675 3597 1894 
z
M 3022 2063 
Q 3016 2534 2758 2815 
Q 2500 3097 2075 3097 
Q 1594 3097 1305 2825 
Q 1016 2553 972 2059 
L 3022 2063 
z
" transform="scale(0.015625)"/>
       <path id="DejaVuSans-73" d="M 2834 3397 
L 2834 2853 
Q 2591 2978 2328 3040 
Q 2066 3103 1784 3103 
Q 1356 3103 1142 2972 
Q 928 2841 928 2578 
Q 928 2378 1081 2264 
Q 1234 2150 1697 2047 
L 1894 2003 
Q 2506 1872 2764 1633 
Q 3022 1394 3022 966 
Q 3022 478 2636 193 
Q 2250 -91 1575 -91 
Q 1294 -91 989 -36 
Q 684 19 347 128 
L 347 722 
Q 666 556 975 473 
Q 1284 391 1588 391 
Q 1994 391 2212 530 
Q 2431 669 2431 922 
Q 2431 1156 2273 1281 
Q 2116 1406 1581 1522 
L 1381 1569 
Q 847 1681 609 1914 
Q 372 2147 372 2553 
Q 372 3047 722 3315 
Q 1072 3584 1716 3584 
Q 2034 3584 2315 3537 
Q 2597 3491 2834 3397 
z
" transform="scale(0.015625)"/>
       <path id="DejaVuSans-69" d="M 603 3500 
L 1178 3500 
L 1178 0 
L 603 0 
L 603 3500 
z
M 603 4863 
L 1178 4863 
L 1178 4134 
L 603 4134 
L 603 4863 
z
" transform="scale(0.015625)"/>
       <path id="DejaVuSans-74" d="M 1172 4494 
L 1172 3500 
L 2356 3500 
L 2356 3053 
L 1172 3053 
L 1172 1153 
Q 1172 725 1289 603 
Q 1406 481 1766 481 
L 2356 481 
L 2356 0 
L 1766 0 
Q 1100 0 847 248 
Q 594 497 594 1153 
L 594 3053 
L 172 3053 
L 172 3500 
L 594 3500 
L 594 4494 
L 1172 4494 
z
" transform="scale(0.015625)"/>
       <path id="DejaVuSans-79" d="M 2059 -325 
Q 1816 -950 1584 -1140 
Q 1353 -1331 966 -1331 
L 506 -1331 
L 506 -850 
L 844 -850 
Q 1081 -850 1212 -737 
Q 1344 -625 1503 -206 
L 1606 56 
L 191 3500 
L 800 3500 
L 1894 763 
L 2988 3500 
L 3597 3500 
L 2059 -325 
z
" transform="scale(0.015625)"/>
       <path id="DejaVuSans-28" d="M 1984 4856 
Q 1566 4138 1362 3434 
Q 1159 2731 1159 2009 
Q 1159 1288 1364 580 
Q 1569 -128 1984 -844 
L 1484 -844 
Q 1016 -109 783 600 
Q 550 1309 550 2009 
Q 550 2706 781 3412 
Q 1013 4119 1484 4856 
L 1984 4856 
z
" transform="scale(0.015625)"/>
       <path id="DejaVuSans-68" d="M 3513 2113 
L 3513 0 
L 2938 0 
L 2938 2094 
Q 2938 2591 2744 2837 
Q 2550 3084 2163 3084 
Q 1697 3084 1428 2787 
Q 1159 2491 1159 1978 
L 1159 0 
L 581 0 
L 581 4863 
L 1159 4863 
L 1159 2956 
Q 1366 3272 1645 3428 
Q 1925 3584 2291 3584 
Q 2894 3584 3203 3211 
Q 3513 2838 3513 2113 
z
" transform="scale(0.015625)"/>
       <path id="DejaVuSans-70" d="M 1159 525 
L 1159 -1331 
L 581 -1331 
L 581 3500 
L 1159 3500 
L 1159 2969 
Q 1341 3281 1617 3432 
Q 1894 3584 2278 3584 
Q 2916 3584 3314 3078 
Q 3713 2572 3713 1747 
Q 3713 922 3314 415 
Q 2916 -91 2278 -91 
Q 1894 -91 1617 61 
Q 1341 213 1159 525 
z
M 3116 1747 
Q 3116 2381 2855 2742 
Q 2594 3103 2138 3103 
Q 1681 3103 1420 2742 
Q 1159 2381 1159 1747 
Q 1159 1113 1420 752 
Q 1681 391 2138 391 
Q 2594 391 2855 752 
Q 3116 1113 3116 1747 
z
" transform="scale(0.015625)"/>
       <path id="DejaVuSans-6b" d="M 581 4863 
L 1159 4863 
L 1159 1991 
L 2875 3500 
L 3609 3500 
L 1753 1863 
L 3688 0 
L 2938 0 
L 1159 1709 
L 1159 0 
L 581 0 
L 581 4863 
z
" transform="scale(0.015625)"/>
       <path id="DejaVuSans-6d" d="M 3328 2828 
Q 3544 3216 3844 3400 
Q 4144 3584 4550 3584 
Q 5097 3584 5394 3201 
Q 5691 2819 5691 2113 
L 5691 0 
L 5113 0 
L 5113 2094 
Q 5113 2597 4934 2840 
Q 4756 3084 4391 3084 
Q 3944 3084 3684 2787 
Q 3425 2491 3425 1978 
L 3425 0 
L 2847 0 
L 2847 2094 
Q 2847 2600 2669 2842 
Q 2491 3084 2119 3084 
Q 1678 3084 1418 2786 
Q 1159 2488 1159 1978 
L 1159 0 
L 581 0 
L 581 3500 
L 1159 3500 
L 1159 2956 
Q 1356 3278 1631 3431 
Q 1906 3584 2284 3584 
Q 2666 3584 2933 3390 
Q 3200 3197 3328 2828 
z
" transform="scale(0.015625)"/>
       <path id="DejaVuSans-b2" d="M 838 2444 
L 2163 2444 
L 2163 2088 
L 294 2088 
L 294 2431 
Q 400 2528 597 2703 
Q 1672 3656 1672 3950 
Q 1672 4156 1509 4282 
Q 1347 4409 1081 4409 
Q 919 4409 728 4354 
Q 538 4300 313 4191 
L 313 4575 
Q 553 4663 761 4706 
Q 969 4750 1147 4750 
Q 1600 4750 1872 4544 
Q 2144 4338 2144 4000 
Q 2144 3566 1109 2678 
Q 934 2528 838 2444 
z
" transform="scale(0.015625)"/>
       <path id="DejaVuSans-29" d="M 513 4856 
L 1013 4856 
Q 1481 4119 1714 3412 
Q 1947 2706 1947 2009 
Q 1947 1309 1714 600 
Q 1481 -109 1013 -844 
L 513 -844 
Q 928 -128 1133 580 
Q 1338 1288 1338 2009 
Q 1338 2731 1133 3434 
Q 928 4138 513 4856 
z
" transform="scale(0.015625)"/>
      </defs>
      <use xlink:href="#DejaVuSans-55"/>
      <use xlink:href="#DejaVuSans-72" x="73.193359"/>
      <use xlink:href="#DejaVuSans-62" x="114.306641"/>
      <use xlink:href="#DejaVuSans-61" x="177.783203"/>
      <use xlink:href="#DejaVuSans-6e" x="239.0625"/>
      <use xlink:href="#DejaVuSans-20" x="302.441406"/>
      <use xlink:href="#DejaVuSans-44" x="334.228516"/>
      <use xlink:href="#DejaVuSans-65" x="411.230469"/>
      <use xlink:href="#DejaVuSans-6e" x="472.753906"/>
      <use xlink:href="#DejaVuSans-73" x="536.132812"/>
      <use xlink:href="#DejaVuSans-69" x="588.232422"/>
      <use xlink:href="#DejaVuSans-74" x="616.015625"/>
      <use xlink:href="#DejaVuSans-79" x="655.224609"/>
      <use xlink:href="#DejaVuSans-20" x="714.404297"/>
      <use xlink:href="#DejaVuSans-28" x="746.191406"/>
      <use xlink:href="#DejaVuSans-69" x="785.205078"/>
      <use xlink:href="#DejaVuSans-6e" x="812.988281"/>
      <use xlink:href="#DejaVuSans-68" x="876.367188"/>
      <use xlink:href="#DejaVuSans-61" x="939.746094"/>
      <use xlink:href="#DejaVuSans-62" x="1001.025391"/>
      <use xlink:href="#DejaVuSans-69" x="1064.501953"/>
      <use xlink:href="#DejaVuSans-74" x="1092.285156"/>
      <use xlink:href="#DejaVuSans-61" x="1131.494141"/>
      <use xlink:href="#DejaVuSans-6e" x="1192.773438"/>
      <use xlink:href="#DejaVuSans-74" x="1256.152344"/>
      <use xlink:href="#DejaVuSans-73" x="1295.361328"/>
      <use xlink:href="#DejaVuSans-20" x="1347.460938"/>
      <use xlink:href="#DejaVuSans-70" x="1379.248047"/>
      <use xlink:href="#DejaVuSans-65" x="1442.724609"/>
      <use xlink:href="#DejaVuSans-72" x="1504.248047"/>
      <use xlink:href="#DejaVuSans-20" x="1545.361328"/>
      <use xlink:href="#DejaVuSans-31" x="1577.148438"/>
      <use xlink:href="#DejaVuSans-30" x="1640.771484"/>
      <use xlink:href="#DejaVuSans-20" x="1704.394531"/>
      <use xlink:href="#DejaVuSans-6b" x="1736.181641"/>
      <use xlink:href="#DejaVuSans-6d" x="1794.091797"/>
      <use xlink:href="#DejaVuSans-b2" x="1891.503906"/>
      <use xlink:href="#DejaVuSans-29" x="1931.591797"/>
     </g>
    </g>
   </g>
   <g id="matplotlib.axis_2">
    <g id="ytick_1">
     <g id="line2d_9">
      <defs>
       <path id="mbf21ce1d54" d="M 0 0 
L -3.5 0 
" style="stroke: #000000; stroke-width: 0.8"/>
      </defs>
      <g>
       <use xlink:href="#mbf21ce1d54" x="57.17" y="303.64" style="stroke: #000000; stroke-width: 0.8"/>
      </g>
     </g>
     <g id="text_10">
      <!-- 0 -->
      <g transform="translate(43.8075 307.439219)scale(0.1 -0.1)">
       <use xlink:href="#DejaVuSans-30"/>
      </g>
     </g>
    </g>
    <g id="ytick_2">
     <g id="line2d_10">
      <g>
       <use xlink:href="#mbf21ce1d54" x="57.17" y="245.864" style="stroke: #000000; stroke-width: 0.8"/>
      </g>
     </g>
     <g id="text_11">
      <!-- 500 -->
      <g transform="translate(31.0825 249.663219)scale(0.1 -0.1)">
       <defs>
        <path id="DejaVuSans-35" d="M 691 4666 
L 3169 4666 
L 3169 4134 
L 1269 4134 
L 1269 2991 
Q 1406 3038 1543 3061 
Q 1681 3084 1819 3084 
Q 2600 3084 3056 2656 
Q 3513 2228 3513 1497 
Q 3513 744 3044 326 
Q 2575 -91 1722 -91 
Q 1428 -91 1123 -41 
Q 819 9 494 109 
L 494 744 
Q 775 591 1075 516 
Q 1375 441 1709 441 
Q 2250 441 2565 725 
Q 2881 1009 2881 1497 
Q 2881 1984 2565 2268 
Q 2250 2553 1709 2553 
Q 1456 2553 1204 2497 
Q 953 2441 691 2322 
L 691 4666 
z
" transform="scale(0.015625)"/>
       </defs>
       <use xlink:href="#DejaVuSans-35"/>
       <use xlink:href="#DejaVuSans-30" x="63.623047"/>
       <use xlink:href="#DejaVuSans-30" x="127.246094"/>
      </g>
     </g>
    </g>
    <g id="ytick_3">
     <g id="line2d_11">
      <g>
       <use xlink:href="#mbf21ce1d54" x="57.17" y="188.088" style="stroke: #000000; stroke-width: 0.8"/>
      </g>
     </g>
     <g id="text_12">
      <!-- 1000 -->
      <g transform="translate(24.72 191.887219)scale(0.1 -0.1)">
       <use xlink:href="#DejaVuSans-31"/>
       <use xlink:href="#DejaVuSans-30" x="63.623047"/>
       <use xlink:href="#DejaVuSans-30" x="127.246094"/>
       <use xlink:href="#DejaVuSans-30" x="190.869141"/>
      </g>
     </g>
    </g>
    <g id="ytick_4">
     <g id="line2d_12">
      <g>
       <use xlink:href="#mbf21ce1d54" x="57.17" y="130.312" style="stroke: #000000; stroke-width: 0.8"/>
      </g>
     </g>
     <g id="text_13">
      <!-- 1500 -->
      <g transform="translate(24.72 134.111219)scale(0.1 -0.1)">
       <use xlink:href="#DejaVuSans-31"/>
       <use xlink:href="#DejaVuSans-35" x="63.623047"/>
       <use xlink:href="#DejaVuSans-30" x="127.246094"/>
       <use xlink:href="#DejaVuSans-30" x="190.869141"/>
      </g>
     </g>
    </g>
    <g id="ytick_5">
     <g id="line2d_13">
      <g>
       <use xlink:href="#mbf21ce1d54" x="57.17" y="72.536" style="stroke: #000000; stroke-width: 0.8"/>
      </g>
     </g>
     <g id="text_14">
      <!-- 2000 -->
      <g transform="translate(24.72 76.335219)scale(0.1 -0.1)">
       <use xlink:href="#DejaVuSans-32"/>
       <use xlink:href="#DejaVuSans-30" x="63.623047"/>
       <use xlink:href="#DejaVuSans-30" x="127.246094"/>
       <use xlink:href="#DejaVuSans-30" x="190.869141"/>
      </g>
     </g>
    </g>
    <g id="ytick_6">
     <g id="line2d_14">
      <g>
       <use xlink:href="#mbf21ce1d54" x="57.17" y="14.76" style="stroke: #000000; stroke-width: 0.8"/>
      </g>
     </g>
     <g id="text_15">
      <!-- 2500 -->
      <g transform="translate(24.72 18.559219)scale(0.1 -0.1)">
       <use xlink:href="#DejaVuSans-32"/>
       <use xlink:href="#DejaVuSans-35" x="63.623047"/>
       <use xlink:href="#DejaVuSans-30" x="127.246094"/>
       <use xlink:href="#DejaVuSans-30" x="190.869141"/>
      </g>
     </g>
    </g>
    <g id="text_16">
     <!-- Number of Robberies -->
     <g transform="translate(18.640313 212.142969)rotate(-90)scale(0.1 -0.1)">
      <defs>
       <path id="DejaVuSans-4e" d="M 628 4666 
L 1478 4666 
L 3547 763 
L 3547 4666 
L 4159 4666 
L 4159 0 
L 3309 0 
L 1241 3903 
L 1241 0 
L 628 0 
L 628 4666 
z
" transform="scale(0.015625)"/>
       <path id="DejaVuSans-75" d="M 544 1381 
L 544 3500 
L 1119 3500 
L 1119 1403 
Q 1119 906 1312 657 
Q 1506 409 1894 409 
Q 2359 409 2629 706 
Q 2900 1003 2900 1516 
L 2900 3500 
L 3475 3500 
L 3475 0 
L 2900 0 
L 2900 538 
Q 2691 219 2414 64 
Q 2138 -91 1772 -91 
Q 1169 -91 856 284 
Q 544 659 544 1381 
z
M 1991 3584 
L 1991 3584 
z
" transform="scale(0.015625)"/>
       <path id="DejaVuSans-6f" d="M 1959 3097 
Q 1497 3097 1228 2736 
Q 959 2375 959 1747 
Q 959 1119 1226 758 
Q 1494 397 1959 397 
Q 2419 397 2687 759 
Q 2956 1122 2956 1747 
Q 2956 2369 2687 2733 
Q 2419 3097 1959 3097 
z
M 1959 3584 
Q 2709 3584 3137 3096 
Q 3566 2609 3566 1747 
Q 3566 888 3137 398 
Q 2709 -91 1959 -91 
Q 1206 -91 779 398 
Q 353 888 353 1747 
Q 353 2609 779 3096 
Q 1206 3584 1959 3584 
z
" transform="scale(0.015625)"/>
       <path id="DejaVuSans-66" d="M 2375 4863 
L 2375 4384 
L 1825 4384 
Q 1516 4384 1395 4259 
Q 1275 4134 1275 3809 
L 1275 3500 
L 2222 3500 
L 2222 3053 
L 1275 3053 
L 1275 0 
L 697 0 
L 697 3053 
L 147 3053 
L 147 3500 
L 697 3500 
L 697 3744 
Q 697 4328 969 4595 
Q 1241 4863 1831 4863 
L 2375 4863 
z
" transform="scale(0.015625)"/>
       <path id="DejaVuSans-52" d="M 2841 2188 
Q 3044 2119 3236 1894 
Q 3428 1669 3622 1275 
L 4263 0 
L 3584 0 
L 2988 1197 
Q 2756 1666 2539 1819 
Q 2322 1972 1947 1972 
L 1259 1972 
L 1259 0 
L 628 0 
L 628 4666 
L 2053 4666 
Q 2853 4666 3247 4331 
Q 3641 3997 3641 3322 
Q 3641 2881 3436 2590 
Q 3231 2300 2841 2188 
z
M 1259 4147 
L 1259 2491 
L 2053 2491 
Q 2509 2491 2742 2702 
Q 2975 2913 2975 3322 
Q 2975 3731 2742 3939 
Q 2509 4147 2053 4147 
L 1259 4147 
z
" transform="scale(0.015625)"/>
      </defs>
      <use xlink:href="#DejaVuSans-4e"/>
      <use xlink:href="#DejaVuSans-75" x="74.804688"/>
      <use xlink:href="#DejaVuSans-6d" x="138.183594"/>
      <use xlink:href="#DejaVuSans-62" x="235.595703"/>
      <use xlink:href="#DejaVuSans-65" x="299.072266"/>
      <use xlink:href="#DejaVuSans-72" x="360.595703"/>
      <use xlink:href="#DejaVuSans-20" x="401.708984"/>
      <use xlink:href="#DejaVuSans-6f" x="433.496094"/>
      <use xlink:href="#DejaVuSans-66" x="494.677734"/>
      <use xlink:href="#DejaVuSans-20" x="529.882812"/>
      <use xlink:href="#DejaVuSans-52" x="561.669922"/>
      <use xlink:href="#DejaVuSans-6f" x="626.652344"/>
      <use xlink:href="#DejaVuSans-62" x="687.833984"/>
      <use xlink:href="#DejaVuSans-62" x="751.310547"/>
      <use xlink:href="#DejaVuSans-65" x="814.787109"/>
      <use xlink:href="#DejaVuSans-72" x="876.310547"/>
      <use xlink:href="#DejaVuSans-69" x="917.423828"/>
      <use xlink:href="#DejaVuSans-65" x="945.207031"/>
      <use xlink:href="#DejaVuSans-73" x="1006.730469"/>
     </g>
    </g>
   </g>
   <g id="line2d_15">
    <path d="M 57.17 313.802767 
L 65.186939 307.981113 
L 73.203878 302.159459 
L 81.220816 296.337805 
L 89.237755 290.516151 
L 97.254694 284.694497 
L 105.271633 278.872843 
L 113.288571 273.051189 
L 121.30551 267.229535 
L 129.322449 261.407881 
L 137.339388 255.586227 
L 145.356327 249.764573 
L 153.373265 243.942919 
L 161.390204 238.121265 
L 169.407143 232.299611 
L 177.424082 226.477957 
L 185.44102 220.656303 
L 193.457959 214.834649 
L 201.474898 209.012995 
L 209.491837 203.19134 
L 217.508776 197.369686 
L 225.525714 191.548032 
L 233.542653 185.726378 
L 241.559592 179.904724 
L 249.576531 174.08307 
L 257.593469 168.261416 
L 265.610408 162.439762 
L 273.627347 156.618108 
L 281.644286 150.796454 
L 289.661224 144.9748 
L 297.678163 139.153146 
L 305.695102 133.331492 
L 313.712041 127.509838 
L 321.72898 121.688184 
L 329.745918 115.86653 
L 337.762857 110.044876 
L 345.779796 104.223222 
L 353.796735 98.401568 
L 361.813673 92.579913 
L 369.830612 86.758259 
L 377.847551 80.936605 
L 385.86449 75.114951 
L 393.881429 69.293297 
L 401.898367 63.471643 
L 409.915306 57.649989 
L 417.932245 51.828335 
L 425.949184 46.006681 
L 433.966122 40.185027 
L 441.983061 34.363373 
L 450 28.541719 
" clip-path="url(#p4136dc55ff)" style="fill: none; stroke: #d70000; stroke-width: 1.5; stroke-linecap: square"/>
   </g>
   <g id="line2d_16">
    <path d="M 57.17 256.007926 
L 65.186939 250.930441 
L 73.203878 245.852955 
L 81.220816 240.77547 
L 89.237755 235.697984 
L 97.254694 230.620499 
L 105.271633 225.543014 
L 113.288571 220.465528 
L 121.30551 215.388043 
L 129.322449 210.310557 
L 137.339388 205.233072 
L 145.356327 200.155586 
L 153.373265 195.078101 
L 161.390204 190.000615 
L 169.407143 184.92313 
L 177.424082 179.845644 
L 185.44102 174.768159 
L 193.457959 169.690673 
L 201.474898 164.613188 
L 209.491837 159.535702 
L 217.508776 154.458217 
L 225.525714 149.380731 
L 233.542653 144.303246 
L 241.559592 139.22576 
L 249.576531 134.148275 
L 257.593469 129.070789 
L 265.610408 123.993304 
L 273.627347 118.915818 
L 281.644286 113.838333 
L 289.661224 108.760848 
L 297.678163 103.683362 
L 305.695102 98.605877 
L 313.712041 93.528391 
L 321.72898 88.450906 
L 329.745918 83.37342 
L 337.762857 78.295935 
L 345.779796 73.218449 
L 353.796735 68.140964 
L 361.813673 63.063478 
L 369.830612 57.985993 
L 377.847551 52.908507 
L 385.86449 47.831022 
L 393.881429 42.753536 
L 401.898367 37.676051 
L 409.915306 32.598565 
L 417.932245 27.52108 
L 425.949184 22.443594 
L 433.966122 17.366109 
L 441.983061 12.288623 
L 450 7.211138 
" clip-path="url(#p4136dc55ff)" style="fill: none; stroke: #8c3cff; stroke-width: 1.5; stroke-linecap: square"/>
   </g>
   <g id="line2d_17">
    <path d="M 57.17 271.885675 
L 65.186939 267.987987 
L 73.203878 264.0903 
L 81.220816 260.192613 
L 89.237755 256.294925 
L 97.254694 252.397238 
L 105.271633 248.49955 
L 113.288571 244.601863 
L 121.30551 240.704175 
L 129.322449 236.806488 
L 137.339388 232.908801 
L 145.356327 229.011113 
L 153.373265 225.113426 
L 161.390204 221.215738 
L 169.407143 217.318051 
L 177.424082 213.420363 
L 185.44102 209.522676 
L 193.457959 205.624989 
L 201.474898 201.727301 
L 209.491837 197.829614 
L 217.508776 193.931926 
L 225.525714 190.034239 
L 233.542653 186.136551 
L 241.559592 182.238864 
L 249.576531 178.341177 
L 257.593469 174.443489 
L 265.610408 170.545802 
L 273.627347 166.648114 
L 281.644286 162.750427 
L 289.661224 158.852739 
L 297.678163 154.955052 
L 305.695102 151.057365 
L 313.712041 147.159677 
L 321.72898 143.26199 
L 329.745918 139.364302 
L 337.762857 135.466615 
L 345.779796 131.568927 
L 353.796735 127.67124 
L 361.813673 123.773553 
L 369.830612 119.875865 
L 377.847551 115.978178 
L 385.86449 112.08049 
L 393.881429 108.182803 
L 401.898367 104.285115 
L 409.915306 100.387428 
L 417.932245 96.489741 
L 425.949184 92.592053 
L 433.966122 88.694366 
L 441.983061 84.796678 
L 450 80.898991 
" clip-path="url(#p4136dc55ff)" style="fill: none; stroke: #028800; stroke-width: 1.5; stroke-linecap: square"/>
   </g>
   <g id="line2d_18">
    <path d="M 57.17 284.148622 
L 65.186939 282.568855 
L 73.203878 280.989087 
L 81.220816 279.40932 
L 89.237755 277.829552 
L 97.254694 276.249785 
L 105.271633 274.670017 
L 113.288571 273.09025 
L 121.30551 271.510483 
L 129.322449 269.930715 
L 137.339388 268.350948 
L 145.356327 266.77118 
L 153.373265 265.191413 
L 161.390204 263.611646 
L 169.407143 262.031878 
L 177.424082 260.452111 
L 185.44102 258.872343 
L 193.457959 257.292576 
L 201.474898 255.712808 
L 209.491837 254.133041 
L 217.508776 252.553274 
L 225.525714 250.973506 
L 233.542653 249.393739 
L 241.559592 247.813971 
L 249.576531 246.234204 
L 257.593469 244.654436 
L 265.610408 243.074669 
L 273.627347 241.494902 
L 281.644286 239.915134 
L 289.661224 238.335367 
L 297.678163 236.755599 
L 305.695102 235.175832 
L 313.712041 233.596065 
L 321.72898 232.016297 
L 329.745918 230.43653 
L 337.762857 228.856762 
L 345.779796 227.276995 
L 353.796735 225.697227 
L 361.813673 224.11746 
L 369.830612 222.537693 
L 377.847551 220.957925 
L 385.86449 219.378158 
L 393.881429 217.79839 
L 401.898367 216.218623 
L 409.915306 214.638855 
L 417.932245 213.059088 
L 425.949184 211.479321 
L 433.966122 209.899553 
L 441.983061 208.319786 
L 450 206.740018 
" clip-path="url(#p4136dc55ff)" style="fill: none; stroke: #00acc7; stroke-width: 1.5; stroke-linecap: square"/>
   </g>
   <g id="line2d_19">
    <path d="M 57.17 282.069964 
L 65.186939 280.352401 
L 73.203878 278.634838 
L 81.220816 276.917275 
L 89.237755 275.199712 
L 97.254694 273.482149 
L 105.271633 271.764586 
L 113.288571 270.047023 
L 121.30551 268.32946 
L 129.322449 266.611897 
L 137.339388 264.894334 
L 145.356327 263.176771 
L 153.373265 261.459208 
L 161.390204 259.741645 
L 169.407143 258.024082 
L 177.424082 256.306519 
L 185.44102 254.588956 
L 193.457959 252.871394 
L 201.474898 251.153831 
L 209.491837 249.436268 
L 217.508776 247.718705 
L 225.525714 246.001142 
L 233.542653 244.283579 
L 241.559592 242.566016 
L 249.576531 240.848453 
L 257.593469 239.13089 
L 265.610408 237.413327 
L 273.627347 235.695764 
L 281.644286 233.978201 
L 289.661224 232.260638 
L 297.678163 230.543075 
L 305.695102 228.825512 
L 313.712041 227.107949 
L 321.72898 225.390386 
L 329.745918 223.672823 
L 337.762857 221.95526 
L 345.779796 220.237697 
L 353.796735 218.520134 
L 361.813673 216.802571 
L 369.830612 215.085008 
L 377.847551 213.367446 
L 385.86449 211.649883 
L 393.881429 209.93232 
L 401.898367 208.214757 
L 409.915306 206.497194 
L 417.932245 204.779631 
L 425.949184 203.062068 
L 433.966122 201.344505 
L 441.983061 199.626942 
L 450 197.909379 
" clip-path="url(#p4136dc55ff)" style="fill: none; stroke: #98ff00; stroke-width: 1.5; stroke-linecap: square"/>
   </g>
   <g id="line2d_20">
    <path d="M 57.17 257.96094 
L 65.186939 256.851523 
L 73.203878 255.742106 
L 81.220816 254.632689 
L 89.237755 253.523272 
L 97.254694 252.413855 
L 105.271633 251.304437 
L 113.288571 250.19502 
L 121.30551 249.085603 
L 129.322449 247.976186 
L 137.339388 246.866769 
L 145.356327 245.757352 
L 153.373265 244.647935 
L 161.390204 243.538518 
L 169.407143 242.429101 
L 177.424082 241.319683 
L 185.44102 240.210266 
L 193.457959 239.100849 
L 201.474898 237.991432 
L 209.491837 236.882015 
L 217.508776 235.772598 
L 225.525714 234.663181 
L 233.542653 233.553764 
L 241.559592 232.444347 
L 249.576531 231.334929 
L 257.593469 230.225512 
L 265.610408 229.116095 
L 273.627347 228.006678 
L 281.644286 226.897261 
L 289.661224 225.787844 
L 297.678163 224.678427 
L 305.695102 223.56901 
L 313.712041 222.459593 
L 321.72898 221.350175 
L 329.745918 220.240758 
L 337.762857 219.131341 
L 345.779796 218.021924 
L 353.796735 216.912507 
L 361.813673 215.80309 
L 369.830612 214.693673 
L 377.847551 213.584256 
L 385.86449 212.474839 
L 393.881429 211.365421 
L 401.898367 210.256004 
L 409.915306 209.146587 
L 417.932245 208.03717 
L 425.949184 206.927753 
L 433.966122 205.818336 
L 441.983061 204.708919 
L 450 203.599502 
" clip-path="url(#p4136dc55ff)" style="fill: none; stroke: #ff7fd1; stroke-width: 1.5; stroke-linecap: square"/>
   </g>
   <g id="line2d_21">
    <path d="M 57.17 267.156722 
L 65.186939 265.016757 
L 73.203878 262.876791 
L 81.220816 260.736826 
L 89.237755 258.596861 
L 97.254694 256.456895 
L 105.271633 254.31693 
L 113.288571 252.176965 
L 121.30551 250.036999 
L 129.322449 247.897034 
L 137.339388 245.757069 
L 145.356327 243.617103 
L 153.373265 241.477138 
L 161.390204 239.337173 
L 169.407143 237.197207 
L 177.424082 235.057242 
L 185.44102 232.917277 
L 193.457959 230.777311 
L 201.474898 228.637346 
L 209.491837 226.49738 
L 217.508776 224.357415 
L 225.525714 222.21745 
L 233.542653 220.077484 
L 241.559592 217.937519 
L 249.576531 215.797554 
L 257.593469 213.657588 
L 265.610408 211.517623 
L 273.627347 209.377658 
L 281.644286 207.237692 
L 289.661224 205.097727 
L 297.678163 202.957762 
L 305.695102 200.817796 
L 313.712041 198.677831 
L 321.72898 196.537866 
L 329.745918 194.3979 
L 337.762857 192.257935 
L 345.779796 190.11797 
L 353.796735 187.978004 
L 361.813673 185.838039 
L 369.830612 183.698074 
L 377.847551 181.558108 
L 385.86449 179.418143 
L 393.881429 177.278178 
L 401.898367 175.138212 
L 409.915306 172.998247 
L 417.932245 170.858282 
L 425.949184 168.718316 
L 433.966122 166.578351 
L 441.983061 164.438386 
L 450 162.29842 
" clip-path="url(#p4136dc55ff)" style="fill: none; stroke: #6c004f; stroke-width: 1.5; stroke-linecap: square"/>
   </g>
   <g id="line2d_22">
    <path d="M 57.17 271.141926 
L 65.186939 268.248225 
L 73.203878 265.354524 
L 81.220816 262.460824 
L 89.237755 259.567123 
L 97.254694 256.673422 
L 105.271633 253.779722 
L 113.288571 250.886021 
L 121.30551 247.99232 
L 129.322449 245.09862 
L 137.339388 242.204919 
L 145.356327 239.311218 
L 153.373265 236.417518 
L 161.390204 233.523817 
L 169.407143 230.630116 
L 177.424082 227.736416 
L 185.44102 224.842715 
L 193.457959 221.949014 
L 201.474898 219.055314 
L 209.491837 216.161613 
L 217.508776 213.267912 
L 225.525714 210.374212 
L 233.542653 207.480511 
L 241.559592 204.58681 
L 249.576531 201.69311 
L 257.593469 198.799409 
L 265.610408 195.905708 
L 273.627347 193.012008 
L 281.644286 190.118307 
L 289.661224 187.224606 
L 297.678163 184.330906 
L 305.695102 181.437205 
L 313.712041 178.543504 
L 321.72898 175.649804 
L 329.745918 172.756103 
L 337.762857 169.862402 
L 345.779796 166.968702 
L 353.796735 164.075001 
L 361.813673 161.1813 
L 369.830612 158.2876 
L 377.847551 155.393899 
L 385.86449 152.500198 
L 393.881429 149.606497 
L 401.898367 146.712797 
L 409.915306 143.819096 
L 417.932245 140.925395 
L 425.949184 138.031695 
L 433.966122 135.137994 
L 441.983061 132.244293 
L 450 129.350593 
" clip-path="url(#p4136dc55ff)" style="fill: none; stroke: #583b00; stroke-width: 1.5; stroke-linecap: square"/>
   </g>
   <g id="line2d_23">
    <path d="M 57.17 247.006836 
L 65.186939 244.35749 
L 73.203878 241.708144 
L 81.220816 239.058798 
L 89.237755 236.409453 
L 97.254694 233.760107 
L 105.271633 231.110761 
L 113.288571 228.461415 
L 121.30551 225.812069 
L 129.322449 223.162723 
L 137.339388 220.513377 
L 145.356327 217.864031 
L 153.373265 215.214685 
L 161.390204 212.56534 
L 169.407143 209.915994 
L 177.424082 207.266648 
L 185.44102 204.617302 
L 193.457959 201.967956 
L 201.474898 199.31861 
L 209.491837 196.669264 
L 217.508776 194.019918 
L 225.525714 191.370572 
L 233.542653 188.721226 
L 241.559592 186.071881 
L 249.576531 183.422535 
L 257.593469 180.773189 
L 265.610408 178.123843 
L 273.627347 175.474497 
L 281.644286 172.825151 
L 289.661224 170.175805 
L 297.678163 167.526459 
L 305.695102 164.877113 
L 313.712041 162.227768 
L 321.72898 159.578422 
L 329.745918 156.929076 
L 337.762857 154.27973 
L 345.779796 151.630384 
L 353.796735 148.981038 
L 361.813673 146.331692 
L 369.830612 143.682346 
L 377.847551 141.033 
L 385.86449 138.383654 
L 393.881429 135.734309 
L 401.898367 133.084963 
L 409.915306 130.435617 
L 417.932245 127.786271 
L 425.949184 125.136925 
L 433.966122 122.487579 
L 441.983061 119.838233 
L 450 117.188887 
" clip-path="url(#p4136dc55ff)" style="fill: none; stroke: #005759; stroke-width: 1.5; stroke-linecap: square"/>
   </g>
   <g id="line2d_24">
    <path d="M 57.17 267.515738 
L 65.186939 263.879815 
L 73.203878 260.243892 
L 81.220816 256.60797 
L 89.237755 252.972047 
L 97.254694 249.336124 
L 105.271633 245.700201 
L 113.288571 242.064278 
L 121.30551 238.428355 
L 129.322449 234.792432 
L 137.339388 231.156509 
L 145.356327 227.520587 
L 153.373265 223.884664 
L 161.390204 220.248741 
L 169.407143 216.612818 
L 177.424082 212.976895 
L 185.44102 209.340972 
L 193.457959 205.705049 
L 201.474898 202.069126 
L 209.491837 198.433203 
L 217.508776 194.797281 
L 225.525714 191.161358 
L 233.542653 187.525435 
L 241.559592 183.889512 
L 249.576531 180.253589 
L 257.593469 176.617666 
L 265.610408 172.981743 
L 273.627347 169.34582 
L 281.644286 165.709898 
L 289.661224 162.073975 
L 297.678163 158.438052 
L 305.695102 154.802129 
L 313.712041 151.166206 
L 321.72898 147.530283 
L 329.745918 143.89436 
L 337.762857 140.258437 
L 345.779796 136.622515 
L 353.796735 132.986592 
L 361.813673 129.350669 
L 369.830612 125.714746 
L 377.847551 122.078823 
L 385.86449 118.4429 
L 393.881429 114.806977 
L 401.898367 111.171054 
L 409.915306 107.535131 
L 417.932245 103.899209 
L 425.949184 100.263286 
L 433.966122 96.627363 
L 441.983061 92.99144 
L 450 89.355517 
" clip-path="url(#p4136dc55ff)" style="fill: none; stroke: #0000dd; stroke-width: 1.5; stroke-linecap: square"/>
   </g>
   <g id="line2d_25">
    <path d="M 57.17 283.750291 
L 65.186939 283.177694 
L 73.203878 282.605098 
L 81.220816 282.032502 
L 89.237755 281.459906 
L 97.254694 280.88731 
L 105.271633 280.314714 
L 113.288571 279.742118 
L 121.30551 279.169522 
L 129.322449 278.596926 
L 137.339388 278.024329 
L 145.356327 277.451733 
L 153.373265 276.879137 
L 161.390204 276.306541 
L 169.407143 275.733945 
L 177.424082 275.161349 
L 185.44102 274.588753 
L 193.457959 274.016157 
L 201.474898 273.443561 
L 209.491837 272.870965 
L 217.508776 272.298368 
L 225.525714 271.725772 
L 233.542653 271.153176 
L 241.559592 270.58058 
L 249.576531 270.007984 
L 257.593469 269.435388 
L 265.610408 268.862792 
L 273.627347 268.290196 
L 281.644286 267.7176 
L 289.661224 267.145004 
L 297.678163 266.572407 
L 305.695102 265.999811 
L 313.712041 265.427215 
L 321.72898 264.854619 
L 329.745918 264.282023 
L 337.762857 263.709427 
L 345.779796 263.136831 
L 353.796735 262.564235 
L 361.813673 261.991639 
L 369.830612 261.419042 
L 377.847551 260.846446 
L 385.86449 260.27385 
L 393.881429 259.701254 
L 401.898367 259.128658 
L 409.915306 258.556062 
L 417.932245 257.983466 
L 425.949184 257.41087 
L 433.966122 256.838274 
L 441.983061 256.265678 
L 450 255.693081 
" clip-path="url(#p4136dc55ff)" style="fill: none; stroke: #a1756a; stroke-width: 1.5; stroke-linecap: square"/>
   </g>
   <g id="line2d_26">
    <path d="M 57.17 278.996518 
L 65.186939 275.027717 
L 73.203878 271.058916 
L 81.220816 267.090116 
L 89.237755 263.121315 
L 97.254694 259.152514 
L 105.271633 255.183713 
L 113.288571 251.214912 
L 121.30551 247.246111 
L 129.322449 243.277311 
L 137.339388 239.30851 
L 145.356327 235.339709 
L 153.373265 231.370908 
L 161.390204 227.402107 
L 169.407143 223.433307 
L 177.424082 219.464506 
L 185.44102 215.495705 
L 193.457959 211.526904 
L 201.474898 207.558103 
L 209.491837 203.589302 
L 217.508776 199.620502 
L 225.525714 195.651701 
L 233.542653 191.6829 
L 241.559592 187.714099 
L 249.576531 183.745298 
L 257.593469 179.776498 
L 265.610408 175.807697 
L 273.627347 171.838896 
L 281.644286 167.870095 
L 289.661224 163.901294 
L 297.678163 159.932493 
L 305.695102 155.963693 
L 313.712041 151.994892 
L 321.72898 148.026091 
L 329.745918 144.05729 
L 337.762857 140.088489 
L 345.779796 136.119688 
L 353.796735 132.150888 
L 361.813673 128.182087 
L 369.830612 124.213286 
L 377.847551 120.244485 
L 385.86449 116.275684 
L 393.881429 112.306884 
L 401.898367 108.338083 
L 409.915306 104.369282 
L 417.932245 100.400481 
L 425.949184 96.43168 
L 433.966122 92.462879 
L 441.983061 88.494079 
L 450 84.525278 
" clip-path="url(#p4136dc55ff)" style="fill: none; stroke: #bcb7ff; stroke-width: 1.5; stroke-linecap: square"/>
   </g>
   <g id="line2d_27">
    <path d="M 57.17 250.14435 
L 65.186939 248.808562 
L 73.203878 247.472773 
L 81.220816 246.136985 
L 89.237755 244.801196 
L 97.254694 243.465408 
L 105.271633 242.129619 
L 113.288571 240.793831 
L 121.30551 239.458043 
L 129.322449 238.122254 
L 137.339388 236.786466 
L 145.356327 235.450677 
L 153.373265 234.114889 
L 161.390204 232.7791 
L 169.407143 231.443312 
L 177.424082 230.107524 
L 185.44102 228.771735 
L 193.457959 227.435947 
L 201.474898 226.100158 
L 209.491837 224.76437 
L 217.508776 223.428581 
L 225.525714 222.092793 
L 233.542653 220.757004 
L 241.559592 219.421216 
L 249.576531 218.085428 
L 257.593469 216.749639 
L 265.610408 215.413851 
L 273.627347 214.078062 
L 281.644286 212.742274 
L 289.661224 211.406485 
L 297.678163 210.070697 
L 305.695102 208.734908 
L 313.712041 207.39912 
L 321.72898 206.063332 
L 329.745918 204.727543 
L 337.762857 203.391755 
L 345.779796 202.055966 
L 353.796735 200.720178 
L 361.813673 199.384389 
L 369.830612 198.048601 
L 377.847551 196.712813 
L 385.86449 195.377024 
L 393.881429 194.041236 
L 401.898367 192.705447 
L 409.915306 191.369659 
L 417.932245 190.03387 
L 425.949184 188.698082 
L 433.966122 187.362293 
L 441.983061 186.026505 
L 450 184.690717 
" clip-path="url(#p4136dc55ff)" style="fill: none; stroke: #95b578; stroke-width: 1.5; stroke-linecap: square"/>
   </g>
   <g id="line2d_28">
    <path d="M 57.17 264.679497 
L 65.186939 259.512098 
L 73.203878 254.344699 
L 81.220816 249.1773 
L 89.237755 244.009901 
L 97.254694 238.842502 
L 105.271633 233.675103 
L 113.288571 228.507704 
L 121.30551 223.340305 
L 129.322449 218.172906 
L 137.339388 213.005507 
L 145.356327 207.838108 
L 153.373265 202.670709 
L 161.390204 197.50331 
L 169.407143 192.335911 
L 177.424082 187.168512 
L 185.44102 182.001113 
L 193.457959 176.833714 
L 201.474898 171.666315 
L 209.491837 166.498916 
L 217.508776 161.331517 
L 225.525714 156.164118 
L 233.542653 150.996719 
L 241.559592 145.82932 
L 249.576531 140.661921 
L 257.593469 135.494522 
L 265.610408 130.327123 
L 273.627347 125.159724 
L 281.644286 119.992325 
L 289.661224 114.824926 
L 297.678163 109.657527 
L 305.695102 104.490128 
L 313.712041 99.322729 
L 321.72898 94.15533 
L 329.745918 88.987931 
L 337.762857 83.820532 
L 345.779796 78.653133 
L 353.796735 73.485734 
L 361.813673 68.318335 
L 369.830612 63.150936 
L 377.847551 57.983537 
L 385.86449 52.816138 
L 393.881429 47.648739 
L 401.898367 42.48134 
L 409.915306 37.313941 
L 417.932245 32.146542 
L 425.949184 26.979143 
L 433.966122 21.811744 
L 441.983061 16.644345 
L 450 11.476946 
" clip-path="url(#p4136dc55ff)" style="fill: none; stroke: #c004b9; stroke-width: 1.5; stroke-linecap: square"/>
   </g>
   <g id="line2d_29">
    <path d="M 57.17 271.98228 
L 65.186939 268.631233 
L 73.203878 265.280186 
L 81.220816 261.92914 
L 89.237755 258.578093 
L 97.254694 255.227046 
L 105.271633 251.876 
L 113.288571 248.524953 
L 121.30551 245.173907 
L 129.322449 241.82286 
L 137.339388 238.471813 
L 145.356327 235.120767 
L 153.373265 231.76972 
L 161.390204 228.418673 
L 169.407143 225.067627 
L 177.424082 221.71658 
L 185.44102 218.365534 
L 193.457959 215.014487 
L 201.474898 211.66344 
L 209.491837 208.312394 
L 217.508776 204.961347 
L 225.525714 201.6103 
L 233.542653 198.259254 
L 241.559592 194.908207 
L 249.576531 191.55716 
L 257.593469 188.206114 
L 265.610408 184.855067 
L 273.627347 181.504021 
L 281.644286 178.152974 
L 289.661224 174.801927 
L 297.678163 171.450881 
L 305.695102 168.099834 
L 313.712041 164.748787 
L 321.72898 161.397741 
L 329.745918 158.046694 
L 337.762857 154.695647 
L 345.779796 151.344601 
L 353.796735 147.993554 
L 361.813673 144.642508 
L 369.830612 141.291461 
L 377.847551 137.940414 
L 385.86449 134.589368 
L 393.881429 131.238321 
L 401.898367 127.887274 
L 409.915306 124.536228 
L 417.932245 121.185181 
L 425.949184 117.834135 
L 433.966122 114.483088 
L 441.983061 111.132041 
L 450 107.780995 
" clip-path="url(#p4136dc55ff)" style="fill: none; stroke: #790000; stroke-width: 1.5; stroke-linecap: square"/>
   </g>
   <g id="line2d_30">
    <path d="M 57.17 290.056985 
L 65.186939 288.862467 
L 73.203878 287.667949 
L 81.220816 286.473431 
L 89.237755 285.278913 
L 97.254694 284.084395 
L 105.271633 282.889877 
L 113.288571 281.695359 
L 121.30551 280.500841 
L 129.322449 279.306323 
L 137.339388 278.111804 
L 145.356327 276.917286 
L 153.373265 275.722768 
L 161.390204 274.52825 
L 169.407143 273.333732 
L 177.424082 272.139214 
L 185.44102 270.944696 
L 193.457959 269.750178 
L 201.474898 268.55566 
L 209.491837 267.361142 
L 217.508776 266.166624 
L 225.525714 264.972105 
L 233.542653 263.777587 
L 241.559592 262.583069 
L 249.576531 261.388551 
L 257.593469 260.194033 
L 265.610408 258.999515 
L 273.627347 257.804997 
L 281.644286 256.610479 
L 289.661224 255.415961 
L 297.678163 254.221443 
L 305.695102 253.026924 
L 313.712041 251.832406 
L 321.72898 250.637888 
L 329.745918 249.44337 
L 337.762857 248.248852 
L 345.779796 247.054334 
L 353.796735 245.859816 
L 361.813673 244.665298 
L 369.830612 243.47078 
L 377.847551 242.276262 
L 385.86449 241.081744 
L 393.881429 239.887225 
L 401.898367 238.692707 
L 409.915306 237.498189 
L 417.932245 236.303671 
L 425.949184 235.109153 
L 433.966122 233.914635 
L 441.983061 232.720117 
L 450 231.525599 
" clip-path="url(#p4136dc55ff)" style="fill: none; stroke: #0774d8; stroke-width: 1.5; stroke-linecap: square"/>
   </g>
   <g id="line2d_31">
    <path d="M 57.17 271.265198 
L 65.186939 270.917836 
L 73.203878 270.570475 
L 81.220816 270.223113 
L 89.237755 269.875751 
L 97.254694 269.528389 
L 105.271633 269.181027 
L 113.288571 268.833665 
L 121.30551 268.486303 
L 129.322449 268.138941 
L 137.339388 267.79158 
L 145.356327 267.444218 
L 153.373265 267.096856 
L 161.390204 266.749494 
L 169.407143 266.402132 
L 177.424082 266.05477 
L 185.44102 265.707408 
L 193.457959 265.360046 
L 201.474898 265.012685 
L 209.491837 264.665323 
L 217.508776 264.317961 
L 225.525714 263.970599 
L 233.542653 263.623237 
L 241.559592 263.275875 
L 249.576531 262.928513 
L 257.593469 262.581151 
L 265.610408 262.23379 
L 273.627347 261.886428 
L 281.644286 261.539066 
L 289.661224 261.191704 
L 297.678163 260.844342 
L 305.695102 260.49698 
L 313.712041 260.149618 
L 321.72898 259.802256 
L 329.745918 259.454895 
L 337.762857 259.107533 
L 345.779796 258.760171 
L 353.796735 258.412809 
L 361.813673 258.065447 
L 369.830612 257.718085 
L 377.847551 257.370723 
L 385.86449 257.023361 
L 393.881429 256.676 
L 401.898367 256.328638 
L 409.915306 255.981276 
L 417.932245 255.633914 
L 425.949184 255.286552 
L 433.966122 254.93919 
L 441.983061 254.591828 
L 450 254.244466 
" clip-path="url(#p4136dc55ff)" style="fill: none; stroke: #fef590; stroke-width: 1.5; stroke-linecap: square"/>
   </g>
   <g id="line2d_32">
    <path d="M 57.17 241.339748 
L 65.186939 237.365125 
L 73.203878 233.390503 
L 81.220816 229.41588 
L 89.237755 225.441257 
L 97.254694 221.466634 
L 105.271633 217.492012 
L 113.288571 213.517389 
L 121.30551 209.542766 
L 129.322449 205.568143 
L 137.339388 201.59352 
L 145.356327 197.618898 
L 153.373265 193.644275 
L 161.390204 189.669652 
L 169.407143 185.695029 
L 177.424082 181.720406 
L 185.44102 177.745784 
L 193.457959 173.771161 
L 201.474898 169.796538 
L 209.491837 165.821915 
L 217.508776 161.847293 
L 225.525714 157.87267 
L 233.542653 153.898047 
L 241.559592 149.923424 
L 249.576531 145.948801 
L 257.593469 141.974179 
L 265.610408 137.999556 
L 273.627347 134.024933 
L 281.644286 130.05031 
L 289.661224 126.075688 
L 297.678163 122.101065 
L 305.695102 118.126442 
L 313.712041 114.151819 
L 321.72898 110.177196 
L 329.745918 106.202574 
L 337.762857 102.227951 
L 345.779796 98.253328 
L 353.796735 94.278705 
L 361.813673 90.304083 
L 369.830612 86.32946 
L 377.847551 82.354837 
L 385.86449 78.380214 
L 393.881429 74.405591 
L 401.898367 70.430969 
L 409.915306 66.456346 
L 417.932245 62.481723 
L 425.949184 58.5071 
L 433.966122 54.532478 
L 441.983061 50.557855 
L 450 46.583232 
" clip-path="url(#p4136dc55ff)" style="fill: none; stroke: #8f7a00; stroke-width: 1.5; stroke-linecap: square"/>
   </g>
   <g id="line2d_33">
    <path d="M 57.17 253.871765 
L 65.186939 253.573459 
L 73.203878 253.275152 
L 81.220816 252.976845 
L 89.237755 252.678539 
L 97.254694 252.380232 
L 105.271633 252.081926 
L 113.288571 251.783619 
L 121.30551 251.485313 
L 129.322449 251.187006 
L 137.339388 250.888699 
L 145.356327 250.590393 
L 153.373265 250.292086 
L 161.390204 249.99378 
L 169.407143 249.695473 
L 177.424082 249.397166 
L 185.44102 249.09886 
L 193.457959 248.800553 
L 201.474898 248.502247 
L 209.491837 248.20394 
L 217.508776 247.905633 
L 225.525714 247.607327 
L 233.542653 247.30902 
L 241.559592 247.010714 
L 249.576531 246.712407 
L 257.593469 246.414101 
L 265.610408 246.115794 
L 273.627347 245.817487 
L 281.644286 245.519181 
L 289.661224 245.220874 
L 297.678163 244.922568 
L 305.695102 244.624261 
L 313.712041 244.325954 
L 321.72898 244.027648 
L 329.745918 243.729341 
L 337.762857 243.431035 
L 345.779796 243.132728 
L 353.796735 242.834422 
L 361.813673 242.536115 
L 369.830612 242.237808 
L 377.847551 241.939502 
L 385.86449 241.641195 
L 393.881429 241.342889 
L 401.898367 241.044582 
L 409.915306 240.746275 
L 417.932245 240.447969 
L 425.949184 240.149662 
L 433.966122 239.851356 
L 441.983061 239.553049 
L 450 239.254742 
" clip-path="url(#p4136dc55ff)" style="fill: none; stroke: #ff7266; stroke-width: 1.5; stroke-linecap: square"/>
   </g>
   <g id="line2d_34">
    <path d="M 57.17 214.059182 
L 65.186939 204.75074 
L 73.203878 195.442298 
L 81.220816 186.133856 
L 89.237755 176.825414 
L 97.254694 167.516972 
L 105.271633 158.20853 
L 113.288571 148.900088 
L 121.30551 139.591646 
L 129.322449 130.283203 
L 137.339388 120.974761 
L 145.356327 111.666319 
L 153.373265 102.357877 
L 161.390204 93.049435 
L 169.407143 83.740993 
L 177.424082 74.432551 
L 185.44102 65.124109 
L 193.457959 55.815667 
L 201.474898 46.507224 
L 209.491837 37.198782 
L 217.508776 27.89034 
L 225.525714 18.581898 
L 233.542653 9.273456 
L 241.559592 -0.034986 
L 242.390714 -1 
" clip-path="url(#p4136dc55ff)" style="fill: none; stroke: #eeb9b9; stroke-width: 1.5; stroke-linecap: square"/>
   </g>
   <g id="line2d_35">
    <path d="M 57.17 285.249142 
L 65.186939 283.211632 
L 73.203878 281.174122 
L 81.220816 279.136611 
L 89.237755 277.099101 
L 97.254694 275.061591 
L 105.271633 273.024081 
L 113.288571 270.986571 
L 121.30551 268.94906 
L 129.322449 266.91155 
L 137.339388 264.87404 
L 145.356327 262.83653 
L 153.373265 260.79902 
L 161.390204 258.76151 
L 169.407143 256.723999 
L 177.424082 254.686489 
L 185.44102 252.648979 
L 193.457959 250.611469 
L 201.474898 248.573959 
L 209.491837 246.536448 
L 217.508776 244.498938 
L 225.525714 242.461428 
L 233.542653 240.423918 
L 241.559592 238.386408 
L 249.576531 236.348898 
L 257.593469 234.311387 
L 265.610408 232.273877 
L 273.627347 230.236367 
L 281.644286 228.198857 
L 289.661224 226.161347 
L 297.678163 224.123836 
L 305.695102 222.086326 
L 313.712041 220.048816 
L 321.72898 218.011306 
L 329.745918 215.973796 
L 337.762857 213.936286 
L 345.779796 211.898775 
L 353.796735 209.861265 
L 361.813673 207.823755 
L 369.830612 205.786245 
L 377.847551 203.748735 
L 385.86449 201.711224 
L 393.881429 199.673714 
L 401.898367 197.636204 
L 409.915306 195.598694 
L 417.932245 193.561184 
L 425.949184 191.523674 
L 433.966122 189.486163 
L 441.983061 187.448653 
L 450 185.411143 
" clip-path="url(#p4136dc55ff)" style="fill: none; stroke: #5e7e66; stroke-width: 1.5; stroke-linecap: square"/>
   </g>
   <g id="line2d_36">
    <path d="M 57.17 278.348881 
L 65.186939 277.216098 
L 73.203878 276.083315 
L 81.220816 274.950532 
L 89.237755 273.817749 
L 97.254694 272.684966 
L 105.271633 271.552182 
L 113.288571 270.419399 
L 121.30551 269.286616 
L 129.322449 268.153833 
L 137.339388 267.02105 
L 145.356327 265.888267 
L 153.373265 264.755484 
L 161.390204 263.622701 
L 169.407143 262.489917 
L 177.424082 261.357134 
L 185.44102 260.224351 
L 193.457959 259.091568 
L 201.474898 257.958785 
L 209.491837 256.826002 
L 217.508776 255.693219 
L 225.525714 254.560435 
L 233.542653 253.427652 
L 241.559592 252.294869 
L 249.576531 251.162086 
L 257.593469 250.029303 
L 265.610408 248.89652 
L 273.627347 247.763737 
L 281.644286 246.630954 
L 289.661224 245.49817 
L 297.678163 244.365387 
L 305.695102 243.232604 
L 313.712041 242.099821 
L 321.72898 240.967038 
L 329.745918 239.834255 
L 337.762857 238.701472 
L 345.779796 237.568688 
L 353.796735 236.435905 
L 361.813673 235.303122 
L 369.830612 234.170339 
L 377.847551 233.037556 
L 385.86449 231.904773 
L 393.881429 230.77199 
L 401.898367 229.639207 
L 409.915306 228.506423 
L 417.932245 227.37364 
L 425.949184 226.240857 
L 433.966122 225.108074 
L 441.983061 223.975291 
L 450 222.842508 
" clip-path="url(#p4136dc55ff)" style="fill: none; stroke: #9be4ff; stroke-width: 1.5; stroke-linecap: square"/>
   </g>
   <g id="patch_3">
    <path d="M 57.17 303.64 
L 57.17 14.76 
" style="fill: none; stroke: #000000; stroke-width: 0.8; stroke-linejoin: miter; stroke-linecap: square"/>
   </g>
   <g id="patch_4">
    <path d="M 450 303.64 
L 450 14.76 
" style="fill: none; stroke: #000000; stroke-width: 0.8; stroke-linejoin: miter; stroke-linecap: square"/>
   </g>
   <g id="patch_5">
    <path d="M 57.17 303.64 
L 450 303.64 
" style="fill: none; stroke: #000000; stroke-width: 0.8; stroke-linejoin: miter; stroke-linecap: square"/>
   </g>
   <g id="patch_6">
    <path d="M 57.17 14.76 
L 450 14.76 
" style="fill: none; stroke: #000000; stroke-width: 0.8; stroke-linejoin: miter; stroke-linecap: square"/>
   </g>
   <g id="legend_1">
    <g id="patch_7">
     <path d="M 64.17 184.219375 
L 173.829375 184.219375 
Q 175.829375 184.219375 175.829375 182.219375 
L 175.829375 21.76 
Q 175.829375 19.76 173.829375 19.76 
L 64.17 19.76 
Q 62.17 19.76 62.17 21.76 
L 62.17 182.219375 
Q 62.17 184.219375 64.17 184.219375 
z
" style="fill: #ffffff; opacity: 0.8; stroke: #cccccc; stroke-linejoin: miter"/>
    </g>
    <g id="line2d_37">
     <path d="M 66.17 27.858437 
L 76.17 27.858437 
L 86.17 27.858437 
" style="fill: none; stroke: #d70000; stroke-width: 1.5; stroke-linecap: square"/>
    </g>
    <g id="text_17">
     <!-- AT -->
     <g transform="translate(94.17 31.358437)scale(0.1 -0.1)">
      <defs>
       <path id="DejaVuSans-41" d="M 2188 4044 
L 1331 1722 
L 3047 1722 
L 2188 4044 
z
M 1831 4666 
L 2547 4666 
L 4325 0 
L 3669 0 
L 3244 1197 
L 1141 1197 
L 716 0 
L 50 0 
L 1831 4666 
z
" transform="scale(0.015625)"/>
       <path id="DejaVuSans-54" d="M -19 4666 
L 3928 4666 
L 3928 4134 
L 2272 4134 
L 2272 0 
L 1638 0 
L 1638 4134 
L -19 4134 
L -19 4666 
z
" transform="scale(0.015625)"/>
      </defs>
      <use xlink:href="#DejaVuSans-41"/>
      <use xlink:href="#DejaVuSans-54" x="60.658203"/>
     </g>
    </g>
    <g id="line2d_38">
     <path d="M 66.17 42.536563 
L 76.17 42.536563 
L 86.17 42.536563 
" style="fill: none; stroke: #8c3cff; stroke-width: 1.5; stroke-linecap: square"/>
    </g>
    <g id="text_18">
     <!-- BE -->
     <g transform="translate(94.17 46.036563)scale(0.1 -0.1)">
      <defs>
       <path id="DejaVuSans-42" d="M 1259 2228 
L 1259 519 
L 2272 519 
Q 2781 519 3026 730 
Q 3272 941 3272 1375 
Q 3272 1813 3026 2020 
Q 2781 2228 2272 2228 
L 1259 2228 
z
M 1259 4147 
L 1259 2741 
L 2194 2741 
Q 2656 2741 2882 2914 
Q 3109 3088 3109 3444 
Q 3109 3797 2882 3972 
Q 2656 4147 2194 4147 
L 1259 4147 
z
M 628 4666 
L 2241 4666 
Q 2963 4666 3353 4366 
Q 3744 4066 3744 3513 
Q 3744 3084 3544 2831 
Q 3344 2578 2956 2516 
Q 3422 2416 3680 2098 
Q 3938 1781 3938 1306 
Q 3938 681 3513 340 
Q 3088 0 2303 0 
L 628 0 
L 628 4666 
z
" transform="scale(0.015625)"/>
       <path id="DejaVuSans-45" d="M 628 4666 
L 3578 4666 
L 3578 4134 
L 1259 4134 
L 1259 2753 
L 3481 2753 
L 3481 2222 
L 1259 2222 
L 1259 531 
L 3634 531 
L 3634 0 
L 628 0 
L 628 4666 
z
" transform="scale(0.015625)"/>
      </defs>
      <use xlink:href="#DejaVuSans-42"/>
      <use xlink:href="#DejaVuSans-45" x="68.603516"/>
     </g>
    </g>
    <g id="line2d_39">
     <path d="M 66.17 57.214688 
L 76.17 57.214688 
L 86.17 57.214688 
" style="fill: none; stroke: #028800; stroke-width: 1.5; stroke-linecap: square"/>
    </g>
    <g id="text_19">
     <!-- BG -->
     <g transform="translate(94.17 60.714688)scale(0.1 -0.1)">
      <defs>
       <path id="DejaVuSans-47" d="M 3809 666 
L 3809 1919 
L 2778 1919 
L 2778 2438 
L 4434 2438 
L 4434 434 
Q 4069 175 3628 42 
Q 3188 -91 2688 -91 
Q 1594 -91 976 548 
Q 359 1188 359 2328 
Q 359 3472 976 4111 
Q 1594 4750 2688 4750 
Q 3144 4750 3555 4637 
Q 3966 4525 4313 4306 
L 4313 3634 
Q 3963 3931 3569 4081 
Q 3175 4231 2741 4231 
Q 1884 4231 1454 3753 
Q 1025 3275 1025 2328 
Q 1025 1384 1454 906 
Q 1884 428 2741 428 
Q 3075 428 3337 486 
Q 3600 544 3809 666 
z
" transform="scale(0.015625)"/>
      </defs>
      <use xlink:href="#DejaVuSans-42"/>
      <use xlink:href="#DejaVuSans-47" x="66.853516"/>
     </g>
    </g>
    <g id="line2d_40">
     <path d="M 66.17 71.892812 
L 76.17 71.892812 
L 86.17 71.892812 
" style="fill: none; stroke: #00acc7; stroke-width: 1.5; stroke-linecap: square"/>
    </g>
    <g id="text_20">
     <!-- CY -->
     <g transform="translate(94.17 75.392812)scale(0.1 -0.1)">
      <defs>
       <path id="DejaVuSans-43" d="M 4122 4306 
L 4122 3641 
Q 3803 3938 3442 4084 
Q 3081 4231 2675 4231 
Q 1875 4231 1450 3742 
Q 1025 3253 1025 2328 
Q 1025 1406 1450 917 
Q 1875 428 2675 428 
Q 3081 428 3442 575 
Q 3803 722 4122 1019 
L 4122 359 
Q 3791 134 3420 21 
Q 3050 -91 2638 -91 
Q 1578 -91 968 557 
Q 359 1206 359 2328 
Q 359 3453 968 4101 
Q 1578 4750 2638 4750 
Q 3056 4750 3426 4639 
Q 3797 4528 4122 4306 
z
" transform="scale(0.015625)"/>
       <path id="DejaVuSans-59" d="M -13 4666 
L 666 4666 
L 1959 2747 
L 3244 4666 
L 3922 4666 
L 2272 2222 
L 2272 0 
L 1638 0 
L 1638 2222 
L -13 4666 
z
" transform="scale(0.015625)"/>
      </defs>
      <use xlink:href="#DejaVuSans-43"/>
      <use xlink:href="#DejaVuSans-59" x="68.074219"/>
     </g>
    </g>
    <g id="line2d_41">
     <path d="M 66.17 86.570938 
L 76.17 86.570938 
L 86.17 86.570938 
" style="fill: none; stroke: #98ff00; stroke-width: 1.5; stroke-linecap: square"/>
    </g>
    <g id="text_21">
     <!-- CZ -->
     <g transform="translate(94.17 90.070938)scale(0.1 -0.1)">
      <defs>
       <path id="DejaVuSans-5a" d="M 359 4666 
L 4025 4666 
L 4025 4184 
L 1075 531 
L 4097 531 
L 4097 0 
L 288 0 
L 288 481 
L 3238 4134 
L 359 4134 
L 359 4666 
z
" transform="scale(0.015625)"/>
      </defs>
      <use xlink:href="#DejaVuSans-43"/>
      <use xlink:href="#DejaVuSans-5a" x="69.824219"/>
     </g>
    </g>
    <g id="line2d_42">
     <path d="M 66.17 101.249062 
L 76.17 101.249062 
L 86.17 101.249062 
" style="fill: none; stroke: #ff7fd1; stroke-width: 1.5; stroke-linecap: square"/>
    </g>
    <g id="text_22">
     <!-- DE -->
     <g transform="translate(94.17 104.749062)scale(0.1 -0.1)">
      <use xlink:href="#DejaVuSans-44"/>
      <use xlink:href="#DejaVuSans-45" x="77.001953"/>
     </g>
    </g>
    <g id="line2d_43">
     <path d="M 66.17 115.927188 
L 76.17 115.927188 
L 86.17 115.927188 
" style="fill: none; stroke: #6c004f; stroke-width: 1.5; stroke-linecap: square"/>
    </g>
    <g id="text_23">
     <!-- DK -->
     <g transform="translate(94.17 119.427188)scale(0.1 -0.1)">
      <defs>
       <path id="DejaVuSans-4b" d="M 628 4666 
L 1259 4666 
L 1259 2694 
L 3353 4666 
L 4166 4666 
L 1850 2491 
L 4331 0 
L 3500 0 
L 1259 2247 
L 1259 0 
L 628 0 
L 628 4666 
z
" transform="scale(0.015625)"/>
      </defs>
      <use xlink:href="#DejaVuSans-44"/>
      <use xlink:href="#DejaVuSans-4b" x="77.001953"/>
     </g>
    </g>
    <g id="line2d_44">
     <path d="M 66.17 130.605312 
L 76.17 130.605312 
L 86.17 130.605312 
" style="fill: none; stroke: #583b00; stroke-width: 1.5; stroke-linecap: square"/>
    </g>
    <g id="text_24">
     <!-- EL -->
     <g transform="translate(94.17 134.105312)scale(0.1 -0.1)">
      <defs>
       <path id="DejaVuSans-4c" d="M 628 4666 
L 1259 4666 
L 1259 531 
L 3531 531 
L 3531 0 
L 628 0 
L 628 4666 
z
" transform="scale(0.015625)"/>
      </defs>
      <use xlink:href="#DejaVuSans-45"/>
      <use xlink:href="#DejaVuSans-4c" x="63.183594"/>
     </g>
    </g>
    <g id="line2d_45">
     <path d="M 66.17 145.283437 
L 76.17 145.283437 
L 86.17 145.283437 
" style="fill: none; stroke: #005759; stroke-width: 1.5; stroke-linecap: square"/>
    </g>
    <g id="text_25">
     <!-- ES -->
     <g transform="translate(94.17 148.783437)scale(0.1 -0.1)">
      <defs>
       <path id="DejaVuSans-53" d="M 3425 4513 
L 3425 3897 
Q 3066 4069 2747 4153 
Q 2428 4238 2131 4238 
Q 1616 4238 1336 4038 
Q 1056 3838 1056 3469 
Q 1056 3159 1242 3001 
Q 1428 2844 1947 2747 
L 2328 2669 
Q 3034 2534 3370 2195 
Q 3706 1856 3706 1288 
Q 3706 609 3251 259 
Q 2797 -91 1919 -91 
Q 1588 -91 1214 -16 
Q 841 59 441 206 
L 441 856 
Q 825 641 1194 531 
Q 1563 422 1919 422 
Q 2459 422 2753 634 
Q 3047 847 3047 1241 
Q 3047 1584 2836 1778 
Q 2625 1972 2144 2069 
L 1759 2144 
Q 1053 2284 737 2584 
Q 422 2884 422 3419 
Q 422 4038 858 4394 
Q 1294 4750 2059 4750 
Q 2388 4750 2728 4690 
Q 3069 4631 3425 4513 
z
" transform="scale(0.015625)"/>
      </defs>
      <use xlink:href="#DejaVuSans-45"/>
      <use xlink:href="#DejaVuSans-53" x="63.183594"/>
     </g>
    </g>
    <g id="line2d_46">
     <path d="M 66.17 159.961562 
L 76.17 159.961562 
L 86.17 159.961562 
" style="fill: none; stroke: #0000dd; stroke-width: 1.5; stroke-linecap: square"/>
    </g>
    <g id="text_26">
     <!-- FI -->
     <g transform="translate(94.17 163.461562)scale(0.1 -0.1)">
      <defs>
       <path id="DejaVuSans-46" d="M 628 4666 
L 3309 4666 
L 3309 4134 
L 1259 4134 
L 1259 2759 
L 3109 2759 
L 3109 2228 
L 1259 2228 
L 1259 0 
L 628 0 
L 628 4666 
z
" transform="scale(0.015625)"/>
       <path id="DejaVuSans-49" d="M 628 4666 
L 1259 4666 
L 1259 0 
L 628 0 
L 628 4666 
z
" transform="scale(0.015625)"/>
      </defs>
      <use xlink:href="#DejaVuSans-46"/>
      <use xlink:href="#DejaVuSans-49" x="57.519531"/>
     </g>
    </g>
    <g id="line2d_47">
     <path d="M 66.17 174.639687 
L 76.17 174.639687 
L 86.17 174.639687 
" style="fill: none; stroke: #a1756a; stroke-width: 1.5; stroke-linecap: square"/>
    </g>
    <g id="text_27">
     <!-- HU -->
     <g transform="translate(94.17 178.139687)scale(0.1 -0.1)">
      <defs>
       <path id="DejaVuSans-48" d="M 628 4666 
L 1259 4666 
L 1259 2753 
L 3553 2753 
L 3553 4666 
L 4184 4666 
L 4184 0 
L 3553 0 
L 3553 2222 
L 1259 2222 
L 1259 0 
L 628 0 
L 628 4666 
z
" transform="scale(0.015625)"/>
      </defs>
      <use xlink:href="#DejaVuSans-48"/>
      <use xlink:href="#DejaVuSans-55" x="75.195312"/>
     </g>
    </g>
    <g id="line2d_48">
     <path d="M 129.009063 27.858437 
L 139.009063 27.858437 
L 149.009063 27.858437 
" style="fill: none; stroke: #bcb7ff; stroke-width: 1.5; stroke-linecap: square"/>
    </g>
    <g id="text_28">
     <!-- IE -->
     <g transform="translate(157.009063 31.358437)scale(0.1 -0.1)">
      <use xlink:href="#DejaVuSans-49"/>
      <use xlink:href="#DejaVuSans-45" x="29.492188"/>
     </g>
    </g>
    <g id="line2d_49">
     <path d="M 129.009063 42.536563 
L 139.009063 42.536563 
L 149.009063 42.536563 
" style="fill: none; stroke: #95b578; stroke-width: 1.5; stroke-linecap: square"/>
    </g>
    <g id="text_29">
     <!-- IT -->
     <g transform="translate(157.009063 46.036563)scale(0.1 -0.1)">
      <use xlink:href="#DejaVuSans-49"/>
      <use xlink:href="#DejaVuSans-54" x="29.492188"/>
     </g>
    </g>
    <g id="line2d_50">
     <path d="M 129.009063 57.214688 
L 139.009063 57.214688 
L 149.009063 57.214688 
" style="fill: none; stroke: #c004b9; stroke-width: 1.5; stroke-linecap: square"/>
    </g>
    <g id="text_30">
     <!-- LT -->
     <g transform="translate(157.009063 60.714688)scale(0.1 -0.1)">
      <use xlink:href="#DejaVuSans-4c"/>
      <use xlink:href="#DejaVuSans-54" x="41.962891"/>
     </g>
    </g>
    <g id="line2d_51">
     <path d="M 129.009063 71.892812 
L 139.009063 71.892812 
L 149.009063 71.892812 
" style="fill: none; stroke: #790000; stroke-width: 1.5; stroke-linecap: square"/>
    </g>
    <g id="text_31">
     <!-- LV -->
     <g transform="translate(157.009063 75.392812)scale(0.1 -0.1)">
      <defs>
       <path id="DejaVuSans-56" d="M 1831 0 
L 50 4666 
L 709 4666 
L 2188 738 
L 3669 4666 
L 4325 4666 
L 2547 0 
L 1831 0 
z
" transform="scale(0.015625)"/>
      </defs>
      <use xlink:href="#DejaVuSans-4c"/>
      <use xlink:href="#DejaVuSans-56" x="44.712891"/>
     </g>
    </g>
    <g id="line2d_52">
     <path d="M 129.009063 86.570938 
L 139.009063 86.570938 
L 149.009063 86.570938 
" style="fill: none; stroke: #0774d8; stroke-width: 1.5; stroke-linecap: square"/>
    </g>
    <g id="text_32">
     <!-- MT -->
     <g transform="translate(157.009063 90.070938)scale(0.1 -0.1)">
      <defs>
       <path id="DejaVuSans-4d" d="M 628 4666 
L 1569 4666 
L 2759 1491 
L 3956 4666 
L 4897 4666 
L 4897 0 
L 4281 0 
L 4281 4097 
L 3078 897 
L 2444 897 
L 1241 4097 
L 1241 0 
L 628 0 
L 628 4666 
z
" transform="scale(0.015625)"/>
      </defs>
      <use xlink:href="#DejaVuSans-4d"/>
      <use xlink:href="#DejaVuSans-54" x="86.279297"/>
     </g>
    </g>
    <g id="line2d_53">
     <path d="M 129.009063 101.249062 
L 139.009063 101.249062 
L 149.009063 101.249062 
" style="fill: none; stroke: #fef590; stroke-width: 1.5; stroke-linecap: square"/>
    </g>
    <g id="text_33">
     <!-- NL -->
     <g transform="translate(157.009063 104.749062)scale(0.1 -0.1)">
      <use xlink:href="#DejaVuSans-4e"/>
      <use xlink:href="#DejaVuSans-4c" x="74.804688"/>
     </g>
    </g>
    <g id="line2d_54">
     <path d="M 129.009063 115.927188 
L 139.009063 115.927188 
L 149.009063 115.927188 
" style="fill: none; stroke: #8f7a00; stroke-width: 1.5; stroke-linecap: square"/>
    </g>
    <g id="text_34">
     <!-- PT -->
     <g transform="translate(157.009063 119.427188)scale(0.1 -0.1)">
      <defs>
       <path id="DejaVuSans-50" d="M 1259 4147 
L 1259 2394 
L 2053 2394 
Q 2494 2394 2734 2622 
Q 2975 2850 2975 3272 
Q 2975 3691 2734 3919 
Q 2494 4147 2053 4147 
L 1259 4147 
z
M 628 4666 
L 2053 4666 
Q 2838 4666 3239 4311 
Q 3641 3956 3641 3272 
Q 3641 2581 3239 2228 
Q 2838 1875 2053 1875 
L 1259 1875 
L 1259 0 
L 628 0 
L 628 4666 
z
" transform="scale(0.015625)"/>
      </defs>
      <use xlink:href="#DejaVuSans-50"/>
      <use xlink:href="#DejaVuSans-54" x="60.302734"/>
     </g>
    </g>
    <g id="line2d_55">
     <path d="M 129.009063 130.605312 
L 139.009063 130.605312 
L 149.009063 130.605312 
" style="fill: none; stroke: #ff7266; stroke-width: 1.5; stroke-linecap: square"/>
    </g>
    <g id="text_35">
     <!-- RO -->
     <g transform="translate(157.009063 134.105312)scale(0.1 -0.1)">
      <defs>
       <path id="DejaVuSans-4f" d="M 2522 4238 
Q 1834 4238 1429 3725 
Q 1025 3213 1025 2328 
Q 1025 1447 1429 934 
Q 1834 422 2522 422 
Q 3209 422 3611 934 
Q 4013 1447 4013 2328 
Q 4013 3213 3611 3725 
Q 3209 4238 2522 4238 
z
M 2522 4750 
Q 3503 4750 4090 4092 
Q 4678 3434 4678 2328 
Q 4678 1225 4090 567 
Q 3503 -91 2522 -91 
Q 1538 -91 948 565 
Q 359 1222 359 2328 
Q 359 3434 948 4092 
Q 1538 4750 2522 4750 
z
" transform="scale(0.015625)"/>
      </defs>
      <use xlink:href="#DejaVuSans-52"/>
      <use xlink:href="#DejaVuSans-4f" x="69.482422"/>
     </g>
    </g>
    <g id="line2d_56">
     <path d="M 129.009063 145.283437 
L 139.009063 145.283437 
L 149.009063 145.283437 
" style="fill: none; stroke: #eeb9b9; stroke-width: 1.5; stroke-linecap: square"/>
    </g>
    <g id="text_36">
     <!-- SE -->
     <g transform="translate(157.009063 148.783437)scale(0.1 -0.1)">
      <use xlink:href="#DejaVuSans-53"/>
      <use xlink:href="#DejaVuSans-45" x="63.476562"/>
     </g>
    </g>
    <g id="line2d_57">
     <path d="M 129.009063 159.961562 
L 139.009063 159.961562 
L 149.009063 159.961562 
" style="fill: none; stroke: #5e7e66; stroke-width: 1.5; stroke-linecap: square"/>
    </g>
    <g id="text_37">
     <!-- SI -->
     <g transform="translate(157.009063 163.461562)scale(0.1 -0.1)">
      <use xlink:href="#DejaVuSans-53"/>
      <use xlink:href="#DejaVuSans-49" x="63.476562"/>
     </g>
    </g>
    <g id="line2d_58">
     <path d="M 129.009063 174.639687 
L 139.009063 174.639687 
L 149.009063 174.639687 
" style="fill: none; stroke: #9be4ff; stroke-width: 1.5; stroke-linecap: square"/>
    </g>
    <g id="text_38">
     <!-- SK -->
     <g transform="translate(157.009063 178.139687)scale(0.1 -0.1)">
      <use xlink:href="#DejaVuSans-53"/>
      <use xlink:href="#DejaVuSans-4b" x="63.476562"/>
     </g>
    </g>
   </g>
  </g>
 </g>
 <defs>
  <clipPath id="p4136dc55ff">
   <rect x="57.17" y="14.76" width="392.83" height="288.88"/>
  </clipPath>
 </defs>
</svg>
