<?xml version="1.0" encoding="utf-8" standalone="no"?>
<!DOCTYPE svg PUBLIC "-//W3C//DTD SVG 1.1//EN"
  "http://www.w3.org/Graphics/SVG/1.1/DTD/svg11.dtd">
<svg xmlns:xlink="http://www.w3.org/1999/xlink" width="460.8pt" height="345.6pt" viewBox="0 0 460.8 345.6" xmlns="http://www.w3.org/2000/svg" version="1.1">
 <metadata>
  <rdf:RDF xmlns:dc="http://purl.org/dc/elements/1.1/" xmlns:cc="http://creativecommons.org/ns#" xmlns:rdf="http://www.w3.org/1999/02/22-rdf-syntax-ns#">
   <cc:Work>
    <dc:type rdf:resource="http://purl.org/dc/dcmitype/StillImage"/>
    <dc:date>2024-02-02T17:07:34.714171</dc:date>
    <dc:format>image/svg+xml</dc:format>
    <dc:creator>
     <cc:Agent>
      <dc:title>Matplotlib v3.5.1, https://matplotlib.org/</dc:title>
     </cc:Agent>
    </dc:creator>
   </cc:Work>
  </rdf:RDF>
 </metadata>
 <defs>
  <style type="text/css">*{stroke-linejoin: round; stroke-linecap: butt}</style>
 </defs>
 <g id="figure_1">
  <g id="patch_1">
   <path d="M 0 345.6 
L 460.8 345.6 
L 460.8 0 
L 0 0 
L 0 345.6 
z
" style="fill: none"/>
  </g>
  <g id="axes_1">
   <g id="patch_2">
    <path d="M 50.87 303.64 
L 450 303.64 
L 450 10.8 
L 50.87 10.8 
L 50.87 303.64 
z
" style="fill: none"/>
   </g>
   <g id="matplotlib.axis_1">
    <g id="xtick_1">
     <g id="line2d_1">
      <defs>
       <path id="mdf15dbe8ad" d="M 0 0 
L 0 3.5 
" style="stroke: #000000; stroke-width: 0.8"/>
      </defs>
      <g>
       <use xlink:href="#mdf15dbe8ad" x="90.326408" y="303.64" style="stroke: #000000; stroke-width: 0.8"/>
      </g>
     </g>
     <g id="text_1">
      <!-- 50 -->
      <g transform="translate(83.963908 318.238437)scale(0.1 -0.1)">
       <defs>
        <path id="DejaVuSans-35" d="M 691 4666 
L 3169 4666 
L 3169 4134 
L 1269 4134 
L 1269 2991 
Q 1406 3038 1543 3061 
Q 1681 3084 1819 3084 
Q 2600 3084 3056 2656 
Q 3513 2228 3513 1497 
Q 3513 744 3044 326 
Q 2575 -91 1722 -91 
Q 1428 -91 1123 -41 
Q 819 9 494 109 
L 494 744 
Q 775 591 1075 516 
Q 1375 441 1709 441 
Q 2250 441 2565 725 
Q 2881 1009 2881 1497 
Q 2881 1984 2565 2268 
Q 2250 2553 1709 2553 
Q 1456 2553 1204 2497 
Q 953 2441 691 2322 
L 691 4666 
z
" transform="scale(0.015625)"/>
        <path id="DejaVuSans-30" d="M 2034 4250 
Q 1547 4250 1301 3770 
Q 1056 3291 1056 2328 
Q 1056 1369 1301 889 
Q 1547 409 2034 409 
Q 2525 409 2770 889 
Q 3016 1369 3016 2328 
Q 3016 3291 2770 3770 
Q 2525 4250 2034 4250 
z
M 2034 4750 
Q 2819 4750 3233 4129 
Q 3647 3509 3647 2328 
Q 3647 1150 3233 529 
Q 2819 -91 2034 -91 
Q 1250 -91 836 529 
Q 422 1150 422 2328 
Q 422 3509 836 4129 
Q 1250 4750 2034 4750 
z
" transform="scale(0.015625)"/>
       </defs>
       <use xlink:href="#DejaVuSans-35"/>
       <use xlink:href="#DejaVuSans-30" x="63.623047"/>
      </g>
     </g>
    </g>
    <g id="xtick_2">
     <g id="line2d_2">
      <g>
       <use xlink:href="#mdf15dbe8ad" x="144.16976" y="303.64" style="stroke: #000000; stroke-width: 0.8"/>
      </g>
     </g>
     <g id="text_2">
      <!-- 75 -->
      <g transform="translate(137.80726 318.238437)scale(0.1 -0.1)">
       <defs>
        <path id="DejaVuSans-37" d="M 525 4666 
L 3525 4666 
L 3525 4397 
L 1831 0 
L 1172 0 
L 2766 4134 
L 525 4134 
L 525 4666 
z
" transform="scale(0.015625)"/>
       </defs>
       <use xlink:href="#DejaVuSans-37"/>
       <use xlink:href="#DejaVuSans-35" x="63.623047"/>
      </g>
     </g>
    </g>
    <g id="xtick_3">
     <g id="line2d_3">
      <g>
       <use xlink:href="#mdf15dbe8ad" x="198.013112" y="303.64" style="stroke: #000000; stroke-width: 0.8"/>
      </g>
     </g>
     <g id="text_3">
      <!-- 100 -->
      <g transform="translate(188.469362 318.238437)scale(0.1 -0.1)">
       <defs>
        <path id="DejaVuSans-31" d="M 794 531 
L 1825 531 
L 1825 4091 
L 703 3866 
L 703 4441 
L 1819 4666 
L 2450 4666 
L 2450 531 
L 3481 531 
L 3481 0 
L 794 0 
L 794 531 
z
" transform="scale(0.015625)"/>
       </defs>
       <use xlink:href="#DejaVuSans-31"/>
       <use xlink:href="#DejaVuSans-30" x="63.623047"/>
       <use xlink:href="#DejaVuSans-30" x="127.246094"/>
      </g>
     </g>
    </g>
    <g id="xtick_4">
     <g id="line2d_4">
      <g>
       <use xlink:href="#mdf15dbe8ad" x="251.856464" y="303.64" style="stroke: #000000; stroke-width: 0.8"/>
      </g>
     </g>
     <g id="text_4">
      <!-- 125 -->
      <g transform="translate(242.312714 318.238437)scale(0.1 -0.1)">
       <defs>
        <path id="DejaVuSans-32" d="M 1228 531 
L 3431 531 
L 3431 0 
L 469 0 
L 469 531 
Q 828 903 1448 1529 
Q 2069 2156 2228 2338 
Q 2531 2678 2651 2914 
Q 2772 3150 2772 3378 
Q 2772 3750 2511 3984 
Q 2250 4219 1831 4219 
Q 1534 4219 1204 4116 
Q 875 4013 500 3803 
L 500 4441 
Q 881 4594 1212 4672 
Q 1544 4750 1819 4750 
Q 2544 4750 2975 4387 
Q 3406 4025 3406 3419 
Q 3406 3131 3298 2873 
Q 3191 2616 2906 2266 
Q 2828 2175 2409 1742 
Q 1991 1309 1228 531 
z
" transform="scale(0.015625)"/>
       </defs>
       <use xlink:href="#DejaVuSans-31"/>
       <use xlink:href="#DejaVuSans-32" x="63.623047"/>
       <use xlink:href="#DejaVuSans-35" x="127.246094"/>
      </g>
     </g>
    </g>
    <g id="xtick_5">
     <g id="line2d_5">
      <g>
       <use xlink:href="#mdf15dbe8ad" x="305.699817" y="303.64" style="stroke: #000000; stroke-width: 0.8"/>
      </g>
     </g>
     <g id="text_5">
      <!-- 150 -->
      <g transform="translate(296.156067 318.238437)scale(0.1 -0.1)">
       <use xlink:href="#DejaVuSans-31"/>
       <use xlink:href="#DejaVuSans-35" x="63.623047"/>
       <use xlink:href="#DejaVuSans-30" x="127.246094"/>
      </g>
     </g>
    </g>
    <g id="xtick_6">
     <g id="line2d_6">
      <g>
       <use xlink:href="#mdf15dbe8ad" x="359.543169" y="303.64" style="stroke: #000000; stroke-width: 0.8"/>
      </g>
     </g>
     <g id="text_6">
      <!-- 175 -->
      <g transform="translate(349.999419 318.238437)scale(0.1 -0.1)">
       <use xlink:href="#DejaVuSans-31"/>
       <use xlink:href="#DejaVuSans-37" x="63.623047"/>
       <use xlink:href="#DejaVuSans-35" x="127.246094"/>
      </g>
     </g>
    </g>
    <g id="xtick_7">
     <g id="line2d_7">
      <g>
       <use xlink:href="#mdf15dbe8ad" x="413.386521" y="303.64" style="stroke: #000000; stroke-width: 0.8"/>
      </g>
     </g>
     <g id="text_7">
      <!-- 200 -->
      <g transform="translate(403.842771 318.238437)scale(0.1 -0.1)">
       <use xlink:href="#DejaVuSans-32"/>
       <use xlink:href="#DejaVuSans-30" x="63.623047"/>
       <use xlink:href="#DejaVuSans-30" x="127.246094"/>
      </g>
     </g>
    </g>
    <g id="text_8">
     <!-- GDP (Purchasing Power Standard, % EU average) -->
     <g transform="translate(127.411562 331.916562)scale(0.1 -0.1)">
      <defs>
       <path id="DejaVuSans-47" d="M 3809 666 
L 3809 1919 
L 2778 1919 
L 2778 2438 
L 4434 2438 
L 4434 434 
Q 4069 175 3628 42 
Q 3188 -91 2688 -91 
Q 1594 -91 976 548 
Q 359 1188 359 2328 
Q 359 3472 976 4111 
Q 1594 4750 2688 4750 
Q 3144 4750 3555 4637 
Q 3966 4525 4313 4306 
L 4313 3634 
Q 3963 3931 3569 4081 
Q 3175 4231 2741 4231 
Q 1884 4231 1454 3753 
Q 1025 3275 1025 2328 
Q 1025 1384 1454 906 
Q 1884 428 2741 428 
Q 3075 428 3337 486 
Q 3600 544 3809 666 
z
" transform="scale(0.015625)"/>
       <path id="DejaVuSans-44" d="M 1259 4147 
L 1259 519 
L 2022 519 
Q 2988 519 3436 956 
Q 3884 1394 3884 2338 
Q 3884 3275 3436 3711 
Q 2988 4147 2022 4147 
L 1259 4147 
z
M 628 4666 
L 1925 4666 
Q 3281 4666 3915 4102 
Q 4550 3538 4550 2338 
Q 4550 1131 3912 565 
Q 3275 0 1925 0 
L 628 0 
L 628 4666 
z
" transform="scale(0.015625)"/>
       <path id="DejaVuSans-50" d="M 1259 4147 
L 1259 2394 
L 2053 2394 
Q 2494 2394 2734 2622 
Q 2975 2850 2975 3272 
Q 2975 3691 2734 3919 
Q 2494 4147 2053 4147 
L 1259 4147 
z
M 628 4666 
L 2053 4666 
Q 2838 4666 3239 4311 
Q 3641 3956 3641 3272 
Q 3641 2581 3239 2228 
Q 2838 1875 2053 1875 
L 1259 1875 
L 1259 0 
L 628 0 
L 628 4666 
z
" transform="scale(0.015625)"/>
       <path id="DejaVuSans-20" transform="scale(0.015625)"/>
       <path id="DejaVuSans-28" d="M 1984 4856 
Q 1566 4138 1362 3434 
Q 1159 2731 1159 2009 
Q 1159 1288 1364 580 
Q 1569 -128 1984 -844 
L 1484 -844 
Q 1016 -109 783 600 
Q 550 1309 550 2009 
Q 550 2706 781 3412 
Q 1013 4119 1484 4856 
L 1984 4856 
z
" transform="scale(0.015625)"/>
       <path id="DejaVuSans-75" d="M 544 1381 
L 544 3500 
L 1119 3500 
L 1119 1403 
Q 1119 906 1312 657 
Q 1506 409 1894 409 
Q 2359 409 2629 706 
Q 2900 1003 2900 1516 
L 2900 3500 
L 3475 3500 
L 3475 0 
L 2900 0 
L 2900 538 
Q 2691 219 2414 64 
Q 2138 -91 1772 -91 
Q 1169 -91 856 284 
Q 544 659 544 1381 
z
M 1991 3584 
L 1991 3584 
z
" transform="scale(0.015625)"/>
       <path id="DejaVuSans-72" d="M 2631 2963 
Q 2534 3019 2420 3045 
Q 2306 3072 2169 3072 
Q 1681 3072 1420 2755 
Q 1159 2438 1159 1844 
L 1159 0 
L 581 0 
L 581 3500 
L 1159 3500 
L 1159 2956 
Q 1341 3275 1631 3429 
Q 1922 3584 2338 3584 
Q 2397 3584 2469 3576 
Q 2541 3569 2628 3553 
L 2631 2963 
z
" transform="scale(0.015625)"/>
       <path id="DejaVuSans-63" d="M 3122 3366 
L 3122 2828 
Q 2878 2963 2633 3030 
Q 2388 3097 2138 3097 
Q 1578 3097 1268 2742 
Q 959 2388 959 1747 
Q 959 1106 1268 751 
Q 1578 397 2138 397 
Q 2388 397 2633 464 
Q 2878 531 3122 666 
L 3122 134 
Q 2881 22 2623 -34 
Q 2366 -91 2075 -91 
Q 1284 -91 818 406 
Q 353 903 353 1747 
Q 353 2603 823 3093 
Q 1294 3584 2113 3584 
Q 2378 3584 2631 3529 
Q 2884 3475 3122 3366 
z
" transform="scale(0.015625)"/>
       <path id="DejaVuSans-68" d="M 3513 2113 
L 3513 0 
L 2938 0 
L 2938 2094 
Q 2938 2591 2744 2837 
Q 2550 3084 2163 3084 
Q 1697 3084 1428 2787 
Q 1159 2491 1159 1978 
L 1159 0 
L 581 0 
L 581 4863 
L 1159 4863 
L 1159 2956 
Q 1366 3272 1645 3428 
Q 1925 3584 2291 3584 
Q 2894 3584 3203 3211 
Q 3513 2838 3513 2113 
z
" transform="scale(0.015625)"/>
       <path id="DejaVuSans-61" d="M 2194 1759 
Q 1497 1759 1228 1600 
Q 959 1441 959 1056 
Q 959 750 1161 570 
Q 1363 391 1709 391 
Q 2188 391 2477 730 
Q 2766 1069 2766 1631 
L 2766 1759 
L 2194 1759 
z
M 3341 1997 
L 3341 0 
L 2766 0 
L 2766 531 
Q 2569 213 2275 61 
Q 1981 -91 1556 -91 
Q 1019 -91 701 211 
Q 384 513 384 1019 
Q 384 1609 779 1909 
Q 1175 2209 1959 2209 
L 2766 2209 
L 2766 2266 
Q 2766 2663 2505 2880 
Q 2244 3097 1772 3097 
Q 1472 3097 1187 3025 
Q 903 2953 641 2809 
L 641 3341 
Q 956 3463 1253 3523 
Q 1550 3584 1831 3584 
Q 2591 3584 2966 3190 
Q 3341 2797 3341 1997 
z
" transform="scale(0.015625)"/>
       <path id="DejaVuSans-73" d="M 2834 3397 
L 2834 2853 
Q 2591 2978 2328 3040 
Q 2066 3103 1784 3103 
Q 1356 3103 1142 2972 
Q 928 2841 928 2578 
Q 928 2378 1081 2264 
Q 1234 2150 1697 2047 
L 1894 2003 
Q 2506 1872 2764 1633 
Q 3022 1394 3022 966 
Q 3022 478 2636 193 
Q 2250 -91 1575 -91 
Q 1294 -91 989 -36 
Q 684 19 347 128 
L 347 722 
Q 666 556 975 473 
Q 1284 391 1588 391 
Q 1994 391 2212 530 
Q 2431 669 2431 922 
Q 2431 1156 2273 1281 
Q 2116 1406 1581 1522 
L 1381 1569 
Q 847 1681 609 1914 
Q 372 2147 372 2553 
Q 372 3047 722 3315 
Q 1072 3584 1716 3584 
Q 2034 3584 2315 3537 
Q 2597 3491 2834 3397 
z
" transform="scale(0.015625)"/>
       <path id="DejaVuSans-69" d="M 603 3500 
L 1178 3500 
L 1178 0 
L 603 0 
L 603 3500 
z
M 603 4863 
L 1178 4863 
L 1178 4134 
L 603 4134 
L 603 4863 
z
" transform="scale(0.015625)"/>
       <path id="DejaVuSans-6e" d="M 3513 2113 
L 3513 0 
L 2938 0 
L 2938 2094 
Q 2938 2591 2744 2837 
Q 2550 3084 2163 3084 
Q 1697 3084 1428 2787 
Q 1159 2491 1159 1978 
L 1159 0 
L 581 0 
L 581 3500 
L 1159 3500 
L 1159 2956 
Q 1366 3272 1645 3428 
Q 1925 3584 2291 3584 
Q 2894 3584 3203 3211 
Q 3513 2838 3513 2113 
z
" transform="scale(0.015625)"/>
       <path id="DejaVuSans-67" d="M 2906 1791 
Q 2906 2416 2648 2759 
Q 2391 3103 1925 3103 
Q 1463 3103 1205 2759 
Q 947 2416 947 1791 
Q 947 1169 1205 825 
Q 1463 481 1925 481 
Q 2391 481 2648 825 
Q 2906 1169 2906 1791 
z
M 3481 434 
Q 3481 -459 3084 -895 
Q 2688 -1331 1869 -1331 
Q 1566 -1331 1297 -1286 
Q 1028 -1241 775 -1147 
L 775 -588 
Q 1028 -725 1275 -790 
Q 1522 -856 1778 -856 
Q 2344 -856 2625 -561 
Q 2906 -266 2906 331 
L 2906 616 
Q 2728 306 2450 153 
Q 2172 0 1784 0 
Q 1141 0 747 490 
Q 353 981 353 1791 
Q 353 2603 747 3093 
Q 1141 3584 1784 3584 
Q 2172 3584 2450 3431 
Q 2728 3278 2906 2969 
L 2906 3500 
L 3481 3500 
L 3481 434 
z
" transform="scale(0.015625)"/>
       <path id="DejaVuSans-6f" d="M 1959 3097 
Q 1497 3097 1228 2736 
Q 959 2375 959 1747 
Q 959 1119 1226 758 
Q 1494 397 1959 397 
Q 2419 397 2687 759 
Q 2956 1122 2956 1747 
Q 2956 2369 2687 2733 
Q 2419 3097 1959 3097 
z
M 1959 3584 
Q 2709 3584 3137 3096 
Q 3566 2609 3566 1747 
Q 3566 888 3137 398 
Q 2709 -91 1959 -91 
Q 1206 -91 779 398 
Q 353 888 353 1747 
Q 353 2609 779 3096 
Q 1206 3584 1959 3584 
z
" transform="scale(0.015625)"/>
       <path id="DejaVuSans-77" d="M 269 3500 
L 844 3500 
L 1563 769 
L 2278 3500 
L 2956 3500 
L 3675 769 
L 4391 3500 
L 4966 3500 
L 4050 0 
L 3372 0 
L 2619 2869 
L 1863 0 
L 1184 0 
L 269 3500 
z
" transform="scale(0.015625)"/>
       <path id="DejaVuSans-65" d="M 3597 1894 
L 3597 1613 
L 953 1613 
Q 991 1019 1311 708 
Q 1631 397 2203 397 
Q 2534 397 2845 478 
Q 3156 559 3463 722 
L 3463 178 
Q 3153 47 2828 -22 
Q 2503 -91 2169 -91 
Q 1331 -91 842 396 
Q 353 884 353 1716 
Q 353 2575 817 3079 
Q 1281 3584 2069 3584 
Q 2775 3584 3186 3129 
Q 3597 2675 3597 1894 
z
M 3022 2063 
Q 3016 2534 2758 2815 
Q 2500 3097 2075 3097 
Q 1594 3097 1305 2825 
Q 1016 2553 972 2059 
L 3022 2063 
z
" transform="scale(0.015625)"/>
       <path id="DejaVuSans-53" d="M 3425 4513 
L 3425 3897 
Q 3066 4069 2747 4153 
Q 2428 4238 2131 4238 
Q 1616 4238 1336 4038 
Q 1056 3838 1056 3469 
Q 1056 3159 1242 3001 
Q 1428 2844 1947 2747 
L 2328 2669 
Q 3034 2534 3370 2195 
Q 3706 1856 3706 1288 
Q 3706 609 3251 259 
Q 2797 -91 1919 -91 
Q 1588 -91 1214 -16 
Q 841 59 441 206 
L 441 856 
Q 825 641 1194 531 
Q 1563 422 1919 422 
Q 2459 422 2753 634 
Q 3047 847 3047 1241 
Q 3047 1584 2836 1778 
Q 2625 1972 2144 2069 
L 1759 2144 
Q 1053 2284 737 2584 
Q 422 2884 422 3419 
Q 422 4038 858 4394 
Q 1294 4750 2059 4750 
Q 2388 4750 2728 4690 
Q 3069 4631 3425 4513 
z
" transform="scale(0.015625)"/>
       <path id="DejaVuSans-74" d="M 1172 4494 
L 1172 3500 
L 2356 3500 
L 2356 3053 
L 1172 3053 
L 1172 1153 
Q 1172 725 1289 603 
Q 1406 481 1766 481 
L 2356 481 
L 2356 0 
L 1766 0 
Q 1100 0 847 248 
Q 594 497 594 1153 
L 594 3053 
L 172 3053 
L 172 3500 
L 594 3500 
L 594 4494 
L 1172 4494 
z
" transform="scale(0.015625)"/>
       <path id="DejaVuSans-64" d="M 2906 2969 
L 2906 4863 
L 3481 4863 
L 3481 0 
L 2906 0 
L 2906 525 
Q 2725 213 2448 61 
Q 2172 -91 1784 -91 
Q 1150 -91 751 415 
Q 353 922 353 1747 
Q 353 2572 751 3078 
Q 1150 3584 1784 3584 
Q 2172 3584 2448 3432 
Q 2725 3281 2906 2969 
z
M 947 1747 
Q 947 1113 1208 752 
Q 1469 391 1925 391 
Q 2381 391 2643 752 
Q 2906 1113 2906 1747 
Q 2906 2381 2643 2742 
Q 2381 3103 1925 3103 
Q 1469 3103 1208 2742 
Q 947 2381 947 1747 
z
" transform="scale(0.015625)"/>
       <path id="DejaVuSans-2c" d="M 750 794 
L 1409 794 
L 1409 256 
L 897 -744 
L 494 -744 
L 750 256 
L 750 794 
z
" transform="scale(0.015625)"/>
       <path id="DejaVuSans-25" d="M 4653 2053 
Q 4381 2053 4226 1822 
Q 4072 1591 4072 1178 
Q 4072 772 4226 539 
Q 4381 306 4653 306 
Q 4919 306 5073 539 
Q 5228 772 5228 1178 
Q 5228 1588 5073 1820 
Q 4919 2053 4653 2053 
z
M 4653 2450 
Q 5147 2450 5437 2106 
Q 5728 1763 5728 1178 
Q 5728 594 5436 251 
Q 5144 -91 4653 -91 
Q 4153 -91 3862 251 
Q 3572 594 3572 1178 
Q 3572 1766 3864 2108 
Q 4156 2450 4653 2450 
z
M 1428 4353 
Q 1159 4353 1004 4120 
Q 850 3888 850 3481 
Q 850 3069 1003 2837 
Q 1156 2606 1428 2606 
Q 1700 2606 1854 2837 
Q 2009 3069 2009 3481 
Q 2009 3884 1853 4118 
Q 1697 4353 1428 4353 
z
M 4250 4750 
L 4750 4750 
L 1831 -91 
L 1331 -91 
L 4250 4750 
z
M 1428 4750 
Q 1922 4750 2215 4408 
Q 2509 4066 2509 3481 
Q 2509 2891 2217 2550 
Q 1925 2209 1428 2209 
Q 931 2209 642 2551 
Q 353 2894 353 3481 
Q 353 4063 643 4406 
Q 934 4750 1428 4750 
z
" transform="scale(0.015625)"/>
       <path id="DejaVuSans-45" d="M 628 4666 
L 3578 4666 
L 3578 4134 
L 1259 4134 
L 1259 2753 
L 3481 2753 
L 3481 2222 
L 1259 2222 
L 1259 531 
L 3634 531 
L 3634 0 
L 628 0 
L 628 4666 
z
" transform="scale(0.015625)"/>
       <path id="DejaVuSans-55" d="M 556 4666 
L 1191 4666 
L 1191 1831 
Q 1191 1081 1462 751 
Q 1734 422 2344 422 
Q 2950 422 3222 751 
Q 3494 1081 3494 1831 
L 3494 4666 
L 4128 4666 
L 4128 1753 
Q 4128 841 3676 375 
Q 3225 -91 2344 -91 
Q 1459 -91 1007 375 
Q 556 841 556 1753 
L 556 4666 
z
" transform="scale(0.015625)"/>
       <path id="DejaVuSans-76" d="M 191 3500 
L 800 3500 
L 1894 563 
L 2988 3500 
L 3597 3500 
L 2284 0 
L 1503 0 
L 191 3500 
z
" transform="scale(0.015625)"/>
       <path id="DejaVuSans-29" d="M 513 4856 
L 1013 4856 
Q 1481 4119 1714 3412 
Q 1947 2706 1947 2009 
Q 1947 1309 1714 600 
Q 1481 -109 1013 -844 
L 513 -844 
Q 928 -128 1133 580 
Q 1338 1288 1338 2009 
Q 1338 2731 1133 3434 
Q 928 4138 513 4856 
z
" transform="scale(0.015625)"/>
      </defs>
      <use xlink:href="#DejaVuSans-47"/>
      <use xlink:href="#DejaVuSans-44" x="77.490234"/>
      <use xlink:href="#DejaVuSans-50" x="154.492188"/>
      <use xlink:href="#DejaVuSans-20" x="214.794922"/>
      <use xlink:href="#DejaVuSans-28" x="246.582031"/>
      <use xlink:href="#DejaVuSans-50" x="285.595703"/>
      <use xlink:href="#DejaVuSans-75" x="344.148438"/>
      <use xlink:href="#DejaVuSans-72" x="407.527344"/>
      <use xlink:href="#DejaVuSans-63" x="446.390625"/>
      <use xlink:href="#DejaVuSans-68" x="501.371094"/>
      <use xlink:href="#DejaVuSans-61" x="564.75"/>
      <use xlink:href="#DejaVuSans-73" x="626.029297"/>
      <use xlink:href="#DejaVuSans-69" x="678.128906"/>
      <use xlink:href="#DejaVuSans-6e" x="705.912109"/>
      <use xlink:href="#DejaVuSans-67" x="769.291016"/>
      <use xlink:href="#DejaVuSans-20" x="832.767578"/>
      <use xlink:href="#DejaVuSans-50" x="864.554688"/>
      <use xlink:href="#DejaVuSans-6f" x="921.232422"/>
      <use xlink:href="#DejaVuSans-77" x="982.414062"/>
      <use xlink:href="#DejaVuSans-65" x="1064.201172"/>
      <use xlink:href="#DejaVuSans-72" x="1125.724609"/>
      <use xlink:href="#DejaVuSans-20" x="1166.837891"/>
      <use xlink:href="#DejaVuSans-53" x="1198.625"/>
      <use xlink:href="#DejaVuSans-74" x="1262.101562"/>
      <use xlink:href="#DejaVuSans-61" x="1301.310547"/>
      <use xlink:href="#DejaVuSans-6e" x="1362.589844"/>
      <use xlink:href="#DejaVuSans-64" x="1425.96875"/>
      <use xlink:href="#DejaVuSans-61" x="1489.445312"/>
      <use xlink:href="#DejaVuSans-72" x="1550.724609"/>
      <use xlink:href="#DejaVuSans-64" x="1590.087891"/>
      <use xlink:href="#DejaVuSans-2c" x="1653.564453"/>
      <use xlink:href="#DejaVuSans-20" x="1685.351562"/>
      <use xlink:href="#DejaVuSans-25" x="1717.138672"/>
      <use xlink:href="#DejaVuSans-20" x="1812.158203"/>
      <use xlink:href="#DejaVuSans-45" x="1843.945312"/>
      <use xlink:href="#DejaVuSans-55" x="1907.128906"/>
      <use xlink:href="#DejaVuSans-20" x="1980.322266"/>
      <use xlink:href="#DejaVuSans-61" x="2012.109375"/>
      <use xlink:href="#DejaVuSans-76" x="2073.388672"/>
      <use xlink:href="#DejaVuSans-65" x="2132.568359"/>
      <use xlink:href="#DejaVuSans-72" x="2194.091797"/>
      <use xlink:href="#DejaVuSans-61" x="2235.205078"/>
      <use xlink:href="#DejaVuSans-67" x="2296.484375"/>
      <use xlink:href="#DejaVuSans-65" x="2359.960938"/>
      <use xlink:href="#DejaVuSans-29" x="2421.484375"/>
     </g>
    </g>
   </g>
   <g id="matplotlib.axis_2">
    <g id="ytick_1">
     <g id="line2d_8">
      <defs>
       <path id="mfe1b540180" d="M 0 0 
L -3.5 0 
" style="stroke: #000000; stroke-width: 0.8"/>
      </defs>
      <g>
       <use xlink:href="#mfe1b540180" x="50.87" y="303.64" style="stroke: #000000; stroke-width: 0.8"/>
      </g>
     </g>
     <g id="text_9">
      <!-- 0 -->
      <g transform="translate(37.5075 307.439219)scale(0.1 -0.1)">
       <use xlink:href="#DejaVuSans-30"/>
      </g>
     </g>
    </g>
    <g id="ytick_2">
     <g id="line2d_9">
      <g>
       <use xlink:href="#mfe1b540180" x="50.87" y="266.881867" style="stroke: #000000; stroke-width: 0.8"/>
      </g>
     </g>
     <g id="text_10">
      <!-- 20 -->
      <g transform="translate(31.145 270.681086)scale(0.1 -0.1)">
       <use xlink:href="#DejaVuSans-32"/>
       <use xlink:href="#DejaVuSans-30" x="63.623047"/>
      </g>
     </g>
    </g>
    <g id="ytick_3">
     <g id="line2d_10">
      <g>
       <use xlink:href="#mfe1b540180" x="50.87" y="230.123735" style="stroke: #000000; stroke-width: 0.8"/>
      </g>
     </g>
     <g id="text_11">
      <!-- 40 -->
      <g transform="translate(31.145 233.922953)scale(0.1 -0.1)">
       <defs>
        <path id="DejaVuSans-34" d="M 2419 4116 
L 825 1625 
L 2419 1625 
L 2419 4116 
z
M 2253 4666 
L 3047 4666 
L 3047 1625 
L 3713 1625 
L 3713 1100 
L 3047 1100 
L 3047 0 
L 2419 0 
L 2419 1100 
L 313 1100 
L 313 1709 
L 2253 4666 
z
" transform="scale(0.015625)"/>
       </defs>
       <use xlink:href="#DejaVuSans-34"/>
       <use xlink:href="#DejaVuSans-30" x="63.623047"/>
      </g>
     </g>
    </g>
    <g id="ytick_4">
     <g id="line2d_11">
      <g>
       <use xlink:href="#mfe1b540180" x="50.87" y="193.365602" style="stroke: #000000; stroke-width: 0.8"/>
      </g>
     </g>
     <g id="text_12">
      <!-- 60 -->
      <g transform="translate(31.145 197.164821)scale(0.1 -0.1)">
       <defs>
        <path id="DejaVuSans-36" d="M 2113 2584 
Q 1688 2584 1439 2293 
Q 1191 2003 1191 1497 
Q 1191 994 1439 701 
Q 1688 409 2113 409 
Q 2538 409 2786 701 
Q 3034 994 3034 1497 
Q 3034 2003 2786 2293 
Q 2538 2584 2113 2584 
z
M 3366 4563 
L 3366 3988 
Q 3128 4100 2886 4159 
Q 2644 4219 2406 4219 
Q 1781 4219 1451 3797 
Q 1122 3375 1075 2522 
Q 1259 2794 1537 2939 
Q 1816 3084 2150 3084 
Q 2853 3084 3261 2657 
Q 3669 2231 3669 1497 
Q 3669 778 3244 343 
Q 2819 -91 2113 -91 
Q 1303 -91 875 529 
Q 447 1150 447 2328 
Q 447 3434 972 4092 
Q 1497 4750 2381 4750 
Q 2619 4750 2861 4703 
Q 3103 4656 3366 4563 
z
" transform="scale(0.015625)"/>
       </defs>
       <use xlink:href="#DejaVuSans-36"/>
       <use xlink:href="#DejaVuSans-30" x="63.623047"/>
      </g>
     </g>
    </g>
    <g id="ytick_5">
     <g id="line2d_12">
      <g>
       <use xlink:href="#mfe1b540180" x="50.87" y="156.607469" style="stroke: #000000; stroke-width: 0.8"/>
      </g>
     </g>
     <g id="text_13">
      <!-- 80 -->
      <g transform="translate(31.145 160.406688)scale(0.1 -0.1)">
       <defs>
        <path id="DejaVuSans-38" d="M 2034 2216 
Q 1584 2216 1326 1975 
Q 1069 1734 1069 1313 
Q 1069 891 1326 650 
Q 1584 409 2034 409 
Q 2484 409 2743 651 
Q 3003 894 3003 1313 
Q 3003 1734 2745 1975 
Q 2488 2216 2034 2216 
z
M 1403 2484 
Q 997 2584 770 2862 
Q 544 3141 544 3541 
Q 544 4100 942 4425 
Q 1341 4750 2034 4750 
Q 2731 4750 3128 4425 
Q 3525 4100 3525 3541 
Q 3525 3141 3298 2862 
Q 3072 2584 2669 2484 
Q 3125 2378 3379 2068 
Q 3634 1759 3634 1313 
Q 3634 634 3220 271 
Q 2806 -91 2034 -91 
Q 1263 -91 848 271 
Q 434 634 434 1313 
Q 434 1759 690 2068 
Q 947 2378 1403 2484 
z
M 1172 3481 
Q 1172 3119 1398 2916 
Q 1625 2713 2034 2713 
Q 2441 2713 2670 2916 
Q 2900 3119 2900 3481 
Q 2900 3844 2670 4047 
Q 2441 4250 2034 4250 
Q 1625 4250 1398 4047 
Q 1172 3844 1172 3481 
z
" transform="scale(0.015625)"/>
       </defs>
       <use xlink:href="#DejaVuSans-38"/>
       <use xlink:href="#DejaVuSans-30" x="63.623047"/>
      </g>
     </g>
    </g>
    <g id="ytick_6">
     <g id="line2d_13">
      <g>
       <use xlink:href="#mfe1b540180" x="50.87" y="119.849336" style="stroke: #000000; stroke-width: 0.8"/>
      </g>
     </g>
     <g id="text_14">
      <!-- 100 -->
      <g transform="translate(24.7825 123.648555)scale(0.1 -0.1)">
       <use xlink:href="#DejaVuSans-31"/>
       <use xlink:href="#DejaVuSans-30" x="63.623047"/>
       <use xlink:href="#DejaVuSans-30" x="127.246094"/>
      </g>
     </g>
    </g>
    <g id="ytick_7">
     <g id="line2d_14">
      <g>
       <use xlink:href="#mfe1b540180" x="50.87" y="83.091204" style="stroke: #000000; stroke-width: 0.8"/>
      </g>
     </g>
     <g id="text_15">
      <!-- 120 -->
      <g transform="translate(24.7825 86.890423)scale(0.1 -0.1)">
       <use xlink:href="#DejaVuSans-31"/>
       <use xlink:href="#DejaVuSans-32" x="63.623047"/>
       <use xlink:href="#DejaVuSans-30" x="127.246094"/>
      </g>
     </g>
    </g>
    <g id="ytick_8">
     <g id="line2d_15">
      <g>
       <use xlink:href="#mfe1b540180" x="50.87" y="46.333071" style="stroke: #000000; stroke-width: 0.8"/>
      </g>
     </g>
     <g id="text_16">
      <!-- 140 -->
      <g transform="translate(24.7825 50.13229)scale(0.1 -0.1)">
       <use xlink:href="#DejaVuSans-31"/>
       <use xlink:href="#DejaVuSans-34" x="63.623047"/>
       <use xlink:href="#DejaVuSans-30" x="127.246094"/>
      </g>
     </g>
    </g>
    <g id="text_17">
     <!-- Number of Homicides -->
     <g transform="translate(18.702813 211.37625)rotate(-90)scale(0.1 -0.1)">
      <defs>
       <path id="DejaVuSans-4e" d="M 628 4666 
L 1478 4666 
L 3547 763 
L 3547 4666 
L 4159 4666 
L 4159 0 
L 3309 0 
L 1241 3903 
L 1241 0 
L 628 0 
L 628 4666 
z
" transform="scale(0.015625)"/>
       <path id="DejaVuSans-6d" d="M 3328 2828 
Q 3544 3216 3844 3400 
Q 4144 3584 4550 3584 
Q 5097 3584 5394 3201 
Q 5691 2819 5691 2113 
L 5691 0 
L 5113 0 
L 5113 2094 
Q 5113 2597 4934 2840 
Q 4756 3084 4391 3084 
Q 3944 3084 3684 2787 
Q 3425 2491 3425 1978 
L 3425 0 
L 2847 0 
L 2847 2094 
Q 2847 2600 2669 2842 
Q 2491 3084 2119 3084 
Q 1678 3084 1418 2786 
Q 1159 2488 1159 1978 
L 1159 0 
L 581 0 
L 581 3500 
L 1159 3500 
L 1159 2956 
Q 1356 3278 1631 3431 
Q 1906 3584 2284 3584 
Q 2666 3584 2933 3390 
Q 3200 3197 3328 2828 
z
" transform="scale(0.015625)"/>
       <path id="DejaVuSans-62" d="M 3116 1747 
Q 3116 2381 2855 2742 
Q 2594 3103 2138 3103 
Q 1681 3103 1420 2742 
Q 1159 2381 1159 1747 
Q 1159 1113 1420 752 
Q 1681 391 2138 391 
Q 2594 391 2855 752 
Q 3116 1113 3116 1747 
z
M 1159 2969 
Q 1341 3281 1617 3432 
Q 1894 3584 2278 3584 
Q 2916 3584 3314 3078 
Q 3713 2572 3713 1747 
Q 3713 922 3314 415 
Q 2916 -91 2278 -91 
Q 1894 -91 1617 61 
Q 1341 213 1159 525 
L 1159 0 
L 581 0 
L 581 4863 
L 1159 4863 
L 1159 2969 
z
" transform="scale(0.015625)"/>
       <path id="DejaVuSans-66" d="M 2375 4863 
L 2375 4384 
L 1825 4384 
Q 1516 4384 1395 4259 
Q 1275 4134 1275 3809 
L 1275 3500 
L 2222 3500 
L 2222 3053 
L 1275 3053 
L 1275 0 
L 697 0 
L 697 3053 
L 147 3053 
L 147 3500 
L 697 3500 
L 697 3744 
Q 697 4328 969 4595 
Q 1241 4863 1831 4863 
L 2375 4863 
z
" transform="scale(0.015625)"/>
       <path id="DejaVuSans-48" d="M 628 4666 
L 1259 4666 
L 1259 2753 
L 3553 2753 
L 3553 4666 
L 4184 4666 
L 4184 0 
L 3553 0 
L 3553 2222 
L 1259 2222 
L 1259 0 
L 628 0 
L 628 4666 
z
" transform="scale(0.015625)"/>
      </defs>
      <use xlink:href="#DejaVuSans-4e"/>
      <use xlink:href="#DejaVuSans-75" x="74.804688"/>
      <use xlink:href="#DejaVuSans-6d" x="138.183594"/>
      <use xlink:href="#DejaVuSans-62" x="235.595703"/>
      <use xlink:href="#DejaVuSans-65" x="299.072266"/>
      <use xlink:href="#DejaVuSans-72" x="360.595703"/>
      <use xlink:href="#DejaVuSans-20" x="401.708984"/>
      <use xlink:href="#DejaVuSans-6f" x="433.496094"/>
      <use xlink:href="#DejaVuSans-66" x="494.677734"/>
      <use xlink:href="#DejaVuSans-20" x="529.882812"/>
      <use xlink:href="#DejaVuSans-48" x="561.669922"/>
      <use xlink:href="#DejaVuSans-6f" x="636.865234"/>
      <use xlink:href="#DejaVuSans-6d" x="698.046875"/>
      <use xlink:href="#DejaVuSans-69" x="795.458984"/>
      <use xlink:href="#DejaVuSans-63" x="823.242188"/>
      <use xlink:href="#DejaVuSans-69" x="878.222656"/>
      <use xlink:href="#DejaVuSans-64" x="906.005859"/>
      <use xlink:href="#DejaVuSans-65" x="969.482422"/>
      <use xlink:href="#DejaVuSans-73" x="1031.005859"/>
     </g>
    </g>
   </g>
   <g id="line2d_16">
    <path d="M 50.87 238.471248 
L 59.01551 238.588427 
L 67.16102 238.705606 
L 75.306531 238.822786 
L 83.452041 238.939965 
L 91.597551 239.057145 
L 99.743061 239.174324 
L 107.888571 239.291503 
L 116.034082 239.408683 
L 124.179592 239.525862 
L 132.325102 239.643042 
L 140.470612 239.760221 
L 148.616122 239.8774 
L 156.761633 239.99458 
L 164.907143 240.111759 
L 173.052653 240.228939 
L 181.198163 240.346118 
L 189.343673 240.463297 
L 197.489184 240.580477 
L 205.634694 240.697656 
L 213.780204 240.814836 
L 221.925714 240.932015 
L 230.071224 241.049194 
L 238.216735 241.166374 
L 246.362245 241.283553 
L 254.507755 241.400733 
L 262.653265 241.517912 
L 270.798776 241.635091 
L 278.944286 241.752271 
L 287.089796 241.86945 
L 295.235306 241.98663 
L 303.380816 242.103809 
L 311.526327 242.220988 
L 319.671837 242.338168 
L 327.817347 242.455347 
L 335.962857 242.572527 
L 344.108367 242.689706 
L 352.253878 242.806885 
L 360.399388 242.924065 
L 368.544898 243.041244 
L 376.690408 243.158424 
L 384.835918 243.275603 
L 392.981429 243.392782 
L 401.126939 243.509962 
L 409.272449 243.627141 
L 417.417959 243.744321 
L 425.563469 243.8615 
L 433.70898 243.978679 
L 441.85449 244.095859 
L 450 244.213038 
" clip-path="url(#p8af53b835c)" style="fill: none; stroke: #d70000; stroke-width: 1.5; stroke-linecap: square"/>
   </g>
   <g id="line2d_17">
    <path d="M 50.87 76.370941 
L 59.01551 77.828604 
L 67.16102 79.286267 
L 75.306531 80.743931 
L 83.452041 82.201594 
L 91.597551 83.659257 
L 99.743061 85.116921 
L 107.888571 86.574584 
L 116.034082 88.032248 
L 124.179592 89.489911 
L 132.325102 90.947574 
L 140.470612 92.405238 
L 148.616122 93.862901 
L 156.761633 95.320565 
L 164.907143 96.778228 
L 173.052653 98.235891 
L 181.198163 99.693555 
L 189.343673 101.151218 
L 197.489184 102.608882 
L 205.634694 104.066545 
L 213.780204 105.524208 
L 221.925714 106.981872 
L 230.071224 108.439535 
L 238.216735 109.897199 
L 246.362245 111.354862 
L 254.507755 112.812525 
L 262.653265 114.270189 
L 270.798776 115.727852 
L 278.944286 117.185515 
L 287.089796 118.643179 
L 295.235306 120.100842 
L 303.380816 121.558506 
L 311.526327 123.016169 
L 319.671837 124.473832 
L 327.817347 125.931496 
L 335.962857 127.389159 
L 344.108367 128.846823 
L 352.253878 130.304486 
L 360.399388 131.762149 
L 368.544898 133.219813 
L 376.690408 134.677476 
L 384.835918 136.13514 
L 392.981429 137.592803 
L 401.126939 139.050466 
L 409.272449 140.50813 
L 417.417959 141.965793 
L 425.563469 143.423457 
L 433.70898 144.88112 
L 441.85449 146.338783 
L 450 147.796447 
" clip-path="url(#p8af53b835c)" style="fill: none; stroke: #8c3cff; stroke-width: 1.5; stroke-linecap: square"/>
   </g>
   <g id="line2d_18">
    <path d="M 50.87 206.965818 
L 59.01551 207.062768 
L 67.16102 207.159718 
L 75.306531 207.256668 
L 83.452041 207.353618 
L 91.597551 207.450568 
L 99.743061 207.547518 
L 107.888571 207.644468 
L 116.034082 207.741419 
L 124.179592 207.838369 
L 132.325102 207.935319 
L 140.470612 208.032269 
L 148.616122 208.129219 
L 156.761633 208.226169 
L 164.907143 208.323119 
L 173.052653 208.420069 
L 181.198163 208.517019 
L 189.343673 208.613969 
L 197.489184 208.710919 
L 205.634694 208.80787 
L 213.780204 208.90482 
L 221.925714 209.00177 
L 230.071224 209.09872 
L 238.216735 209.19567 
L 246.362245 209.29262 
L 254.507755 209.38957 
L 262.653265 209.48652 
L 270.798776 209.58347 
L 278.944286 209.68042 
L 287.089796 209.77737 
L 295.235306 209.874321 
L 303.380816 209.971271 
L 311.526327 210.068221 
L 319.671837 210.165171 
L 327.817347 210.262121 
L 335.962857 210.359071 
L 344.108367 210.456021 
L 352.253878 210.552971 
L 360.399388 210.649921 
L 368.544898 210.746871 
L 376.690408 210.843822 
L 384.835918 210.940772 
L 392.981429 211.037722 
L 401.126939 211.134672 
L 409.272449 211.231622 
L 417.417959 211.328572 
L 425.563469 211.425522 
L 433.70898 211.522472 
L 441.85449 211.619422 
L 450 211.716372 
" clip-path="url(#p8af53b835c)" style="fill: none; stroke: #028800; stroke-width: 1.5; stroke-linecap: square"/>
   </g>
   <g id="line2d_19">
    <path d="M 50.87 213.046257 
L 59.01551 213.116971 
L 67.16102 213.187685 
L 75.306531 213.2584 
L 83.452041 213.329114 
L 91.597551 213.399828 
L 99.743061 213.470542 
L 107.888571 213.541256 
L 116.034082 213.61197 
L 124.179592 213.682684 
L 132.325102 213.753399 
L 140.470612 213.824113 
L 148.616122 213.894827 
L 156.761633 213.965541 
L 164.907143 214.036255 
L 173.052653 214.106969 
L 181.198163 214.177684 
L 189.343673 214.248398 
L 197.489184 214.319112 
L 205.634694 214.389826 
L 213.780204 214.46054 
L 221.925714 214.531254 
L 230.071224 214.601969 
L 238.216735 214.672683 
L 246.362245 214.743397 
L 254.507755 214.814111 
L 262.653265 214.884825 
L 270.798776 214.955539 
L 278.944286 215.026253 
L 287.089796 215.096968 
L 295.235306 215.167682 
L 303.380816 215.238396 
L 311.526327 215.30911 
L 319.671837 215.379824 
L 327.817347 215.450538 
L 335.962857 215.521253 
L 344.108367 215.591967 
L 352.253878 215.662681 
L 360.399388 215.733395 
L 368.544898 215.804109 
L 376.690408 215.874823 
L 384.835918 215.945538 
L 392.981429 216.016252 
L 401.126939 216.086966 
L 409.272449 216.15768 
L 417.417959 216.228394 
L 425.563469 216.299108 
L 433.70898 216.369822 
L 441.85449 216.440537 
L 450 216.511251 
" clip-path="url(#p8af53b835c)" style="fill: none; stroke: #00acc7; stroke-width: 1.5; stroke-linecap: square"/>
   </g>
   <g id="line2d_20">
    <path d="M 50.87 147.319533 
L 59.01551 147.430998 
L 67.16102 147.542463 
L 75.306531 147.653927 
L 83.452041 147.765392 
L 91.597551 147.876857 
L 99.743061 147.988322 
L 107.888571 148.099787 
L 116.034082 148.211251 
L 124.179592 148.322716 
L 132.325102 148.434181 
L 140.470612 148.545646 
L 148.616122 148.657111 
L 156.761633 148.768575 
L 164.907143 148.88004 
L 173.052653 148.991505 
L 181.198163 149.10297 
L 189.343673 149.214435 
L 197.489184 149.3259 
L 205.634694 149.437364 
L 213.780204 149.548829 
L 221.925714 149.660294 
L 230.071224 149.771759 
L 238.216735 149.883224 
L 246.362245 149.994688 
L 254.507755 150.106153 
L 262.653265 150.217618 
L 270.798776 150.329083 
L 278.944286 150.440548 
L 287.089796 150.552012 
L 295.235306 150.663477 
L 303.380816 150.774942 
L 311.526327 150.886407 
L 319.671837 150.997872 
L 327.817347 151.109336 
L 335.962857 151.220801 
L 344.108367 151.332266 
L 352.253878 151.443731 
L 360.399388 151.555196 
L 368.544898 151.66666 
L 376.690408 151.778125 
L 384.835918 151.88959 
L 392.981429 152.001055 
L 401.126939 152.11252 
L 409.272449 152.223984 
L 417.417959 152.335449 
L 425.563469 152.446914 
L 433.70898 152.558379 
L 441.85449 152.669844 
L 450 152.781308 
" clip-path="url(#p8af53b835c)" style="fill: none; stroke: #ff7fd1; stroke-width: 1.5; stroke-linecap: square"/>
   </g>
   <g id="line2d_21">
    <path d="M 50.87 201.503955 
L 59.01551 201.33101 
L 67.16102 201.158064 
L 75.306531 200.985119 
L 83.452041 200.812173 
L 91.597551 200.639228 
L 99.743061 200.466283 
L 107.888571 200.293337 
L 116.034082 200.120392 
L 124.179592 199.947447 
L 132.325102 199.774501 
L 140.470612 199.601556 
L 148.616122 199.428611 
L 156.761633 199.255665 
L 164.907143 199.08272 
L 173.052653 198.909774 
L 181.198163 198.736829 
L 189.343673 198.563884 
L 197.489184 198.390938 
L 205.634694 198.217993 
L 213.780204 198.045048 
L 221.925714 197.872102 
L 230.071224 197.699157 
L 238.216735 197.526211 
L 246.362245 197.353266 
L 254.507755 197.180321 
L 262.653265 197.007375 
L 270.798776 196.83443 
L 278.944286 196.661485 
L 287.089796 196.488539 
L 295.235306 196.315594 
L 303.380816 196.142649 
L 311.526327 195.969703 
L 319.671837 195.796758 
L 327.817347 195.623812 
L 335.962857 195.450867 
L 344.108367 195.277922 
L 352.253878 195.104976 
L 360.399388 194.932031 
L 368.544898 194.759086 
L 376.690408 194.58614 
L 384.835918 194.413195 
L 392.981429 194.24025 
L 401.126939 194.067304 
L 409.272449 193.894359 
L 417.417959 193.721413 
L 425.563469 193.548468 
L 433.70898 193.375523 
L 441.85449 193.202577 
L 450 193.029632 
" clip-path="url(#p8af53b835c)" style="fill: none; stroke: #6c004f; stroke-width: 1.5; stroke-linecap: square"/>
   </g>
   <g id="line2d_22">
    <path d="M 50.87 172.995678 
L 59.01551 173.155243 
L 67.16102 173.314808 
L 75.306531 173.474373 
L 83.452041 173.633938 
L 91.597551 173.793503 
L 99.743061 173.953068 
L 107.888571 174.112633 
L 116.034082 174.272198 
L 124.179592 174.431763 
L 132.325102 174.591328 
L 140.470612 174.750893 
L 148.616122 174.910458 
L 156.761633 175.070023 
L 164.907143 175.229588 
L 173.052653 175.389153 
L 181.198163 175.548718 
L 189.343673 175.708283 
L 197.489184 175.867848 
L 205.634694 176.027413 
L 213.780204 176.186978 
L 221.925714 176.346543 
L 230.071224 176.506109 
L 238.216735 176.665674 
L 246.362245 176.825239 
L 254.507755 176.984804 
L 262.653265 177.144369 
L 270.798776 177.303934 
L 278.944286 177.463499 
L 287.089796 177.623064 
L 295.235306 177.782629 
L 303.380816 177.942194 
L 311.526327 178.101759 
L 319.671837 178.261324 
L 327.817347 178.420889 
L 335.962857 178.580454 
L 344.108367 178.740019 
L 352.253878 178.899584 
L 360.399388 179.059149 
L 368.544898 179.218714 
L 376.690408 179.378279 
L 384.835918 179.537844 
L 392.981429 179.697409 
L 401.126939 179.856974 
L 409.272449 180.016539 
L 417.417959 180.176104 
L 425.563469 180.335669 
L 433.70898 180.495234 
L 441.85449 180.654799 
L 450 180.814364 
" clip-path="url(#p8af53b835c)" style="fill: none; stroke: #583b00; stroke-width: 1.5; stroke-linecap: square"/>
   </g>
   <g id="line2d_23">
    <path d="M 50.87 168.420982 
L 59.01551 168.839762 
L 67.16102 169.258543 
L 75.306531 169.677323 
L 83.452041 170.096103 
L 91.597551 170.514884 
L 99.743061 170.933664 
L 107.888571 171.352444 
L 116.034082 171.771225 
L 124.179592 172.190005 
L 132.325102 172.608785 
L 140.470612 173.027566 
L 148.616122 173.446346 
L 156.761633 173.865126 
L 164.907143 174.283907 
L 173.052653 174.702687 
L 181.198163 175.121468 
L 189.343673 175.540248 
L 197.489184 175.959028 
L 205.634694 176.377809 
L 213.780204 176.796589 
L 221.925714 177.215369 
L 230.071224 177.63415 
L 238.216735 178.05293 
L 246.362245 178.47171 
L 254.507755 178.890491 
L 262.653265 179.309271 
L 270.798776 179.728051 
L 278.944286 180.146832 
L 287.089796 180.565612 
L 295.235306 180.984392 
L 303.380816 181.403173 
L 311.526327 181.821953 
L 319.671837 182.240733 
L 327.817347 182.659514 
L 335.962857 183.078294 
L 344.108367 183.497074 
L 352.253878 183.915855 
L 360.399388 184.334635 
L 368.544898 184.753415 
L 376.690408 185.172196 
L 384.835918 185.590976 
L 392.981429 186.009756 
L 401.126939 186.428537 
L 409.272449 186.847317 
L 417.417959 187.266097 
L 425.563469 187.684878 
L 433.70898 188.103658 
L 441.85449 188.522438 
L 450 188.941219 
" clip-path="url(#p8af53b835c)" style="fill: none; stroke: #005759; stroke-width: 1.5; stroke-linecap: square"/>
   </g>
   <g id="line2d_24">
    <path d="M 50.87 158.677368 
L 59.01551 159.444113 
L 67.16102 160.210859 
L 75.306531 160.977604 
L 83.452041 161.74435 
L 91.597551 162.511095 
L 99.743061 163.277841 
L 107.888571 164.044586 
L 116.034082 164.811332 
L 124.179592 165.578077 
L 132.325102 166.344823 
L 140.470612 167.111568 
L 148.616122 167.878314 
L 156.761633 168.645059 
L 164.907143 169.411805 
L 173.052653 170.17855 
L 181.198163 170.945296 
L 189.343673 171.712041 
L 197.489184 172.478787 
L 205.634694 173.245532 
L 213.780204 174.012278 
L 221.925714 174.779023 
L 230.071224 175.545769 
L 238.216735 176.312514 
L 246.362245 177.07926 
L 254.507755 177.846005 
L 262.653265 178.612751 
L 270.798776 179.379496 
L 278.944286 180.146242 
L 287.089796 180.912987 
L 295.235306 181.679733 
L 303.380816 182.446478 
L 311.526327 183.213223 
L 319.671837 183.979969 
L 327.817347 184.746714 
L 335.962857 185.51346 
L 344.108367 186.280205 
L 352.253878 187.046951 
L 360.399388 187.813696 
L 368.544898 188.580442 
L 376.690408 189.347187 
L 384.835918 190.113933 
L 392.981429 190.880678 
L 401.126939 191.647424 
L 409.272449 192.414169 
L 417.417959 193.180915 
L 425.563469 193.94766 
L 433.70898 194.714406 
L 441.85449 195.481151 
L 450 196.247897 
" clip-path="url(#p8af53b835c)" style="fill: none; stroke: #0000dd; stroke-width: 1.5; stroke-linecap: square"/>
   </g>
   <g id="line2d_25">
    <path d="M 50.87 231.251829 
L 59.01551 231.456212 
L 67.16102 231.660595 
L 75.306531 231.864978 
L 83.452041 232.069361 
L 91.597551 232.273744 
L 99.743061 232.478127 
L 107.888571 232.68251 
L 116.034082 232.886893 
L 124.179592 233.091276 
L 132.325102 233.295659 
L 140.470612 233.500042 
L 148.616122 233.704425 
L 156.761633 233.908808 
L 164.907143 234.113191 
L 173.052653 234.317574 
L 181.198163 234.521957 
L 189.343673 234.72634 
L 197.489184 234.930723 
L 205.634694 235.135106 
L 213.780204 235.339489 
L 221.925714 235.543872 
L 230.071224 235.748255 
L 238.216735 235.952638 
L 246.362245 236.157021 
L 254.507755 236.361404 
L 262.653265 236.565787 
L 270.798776 236.77017 
L 278.944286 236.974553 
L 287.089796 237.178936 
L 295.235306 237.383319 
L 303.380816 237.587702 
L 311.526327 237.792085 
L 319.671837 237.996468 
L 327.817347 238.200851 
L 335.962857 238.405234 
L 344.108367 238.609617 
L 352.253878 238.814 
L 360.399388 239.018383 
L 368.544898 239.222766 
L 376.690408 239.427149 
L 384.835918 239.631532 
L 392.981429 239.835915 
L 401.126939 240.040298 
L 409.272449 240.244681 
L 417.417959 240.449064 
L 425.563469 240.653447 
L 433.70898 240.85783 
L 441.85449 241.062213 
L 450 241.266596 
" clip-path="url(#p8af53b835c)" style="fill: none; stroke: #a1756a; stroke-width: 1.5; stroke-linecap: square"/>
   </g>
   <g id="line2d_26">
    <path d="M 50.87 210.818398 
L 59.01551 210.484089 
L 67.16102 210.149781 
L 75.306531 209.815472 
L 83.452041 209.481163 
L 91.597551 209.146854 
L 99.743061 208.812546 
L 107.888571 208.478237 
L 116.034082 208.143928 
L 124.179592 207.809619 
L 132.325102 207.475311 
L 140.470612 207.141002 
L 148.616122 206.806693 
L 156.761633 206.472384 
L 164.907143 206.138076 
L 173.052653 205.803767 
L 181.198163 205.469458 
L 189.343673 205.135149 
L 197.489184 204.800841 
L 205.634694 204.466532 
L 213.780204 204.132223 
L 221.925714 203.797914 
L 230.071224 203.463606 
L 238.216735 203.129297 
L 246.362245 202.794988 
L 254.507755 202.460679 
L 262.653265 202.126371 
L 270.798776 201.792062 
L 278.944286 201.457753 
L 287.089796 201.123444 
L 295.235306 200.789136 
L 303.380816 200.454827 
L 311.526327 200.120518 
L 319.671837 199.786209 
L 327.817347 199.451901 
L 335.962857 199.117592 
L 344.108367 198.783283 
L 352.253878 198.448974 
L 360.399388 198.114666 
L 368.544898 197.780357 
L 376.690408 197.446048 
L 384.835918 197.111739 
L 392.981429 196.777431 
L 401.126939 196.443122 
L 409.272449 196.108813 
L 417.417959 195.774504 
L 425.563469 195.440196 
L 433.70898 195.105887 
L 441.85449 194.771578 
L 450 194.437269 
" clip-path="url(#p8af53b835c)" style="fill: none; stroke: #bcb7ff; stroke-width: 1.5; stroke-linecap: square"/>
   </g>
   <g id="line2d_27">
    <path d="M 50.87 197.189056 
L 59.01551 197.375811 
L 67.16102 197.562567 
L 75.306531 197.749323 
L 83.452041 197.936078 
L 91.597551 198.122834 
L 99.743061 198.30959 
L 107.888571 198.496345 
L 116.034082 198.683101 
L 124.179592 198.869857 
L 132.325102 199.056612 
L 140.470612 199.243368 
L 148.616122 199.430124 
L 156.761633 199.616879 
L 164.907143 199.803635 
L 173.052653 199.990391 
L 181.198163 200.177146 
L 189.343673 200.363902 
L 197.489184 200.550658 
L 205.634694 200.737413 
L 213.780204 200.924169 
L 221.925714 201.110925 
L 230.071224 201.29768 
L 238.216735 201.484436 
L 246.362245 201.671192 
L 254.507755 201.857948 
L 262.653265 202.044703 
L 270.798776 202.231459 
L 278.944286 202.418215 
L 287.089796 202.60497 
L 295.235306 202.791726 
L 303.380816 202.978482 
L 311.526327 203.165237 
L 319.671837 203.351993 
L 327.817347 203.538749 
L 335.962857 203.725504 
L 344.108367 203.91226 
L 352.253878 204.099016 
L 360.399388 204.285771 
L 368.544898 204.472527 
L 376.690408 204.659283 
L 384.835918 204.846038 
L 392.981429 205.032794 
L 401.126939 205.21955 
L 409.272449 205.406305 
L 417.417959 205.593061 
L 425.563469 205.779817 
L 433.70898 205.966572 
L 441.85449 206.153328 
L 450 206.340084 
" clip-path="url(#p8af53b835c)" style="fill: none; stroke: #95b578; stroke-width: 1.5; stroke-linecap: square"/>
   </g>
   <g id="line2d_28">
    <path d="M 50.87 118.519125 
L 59.01551 118.863797 
L 67.16102 119.20847 
L 75.306531 119.553142 
L 83.452041 119.897814 
L 91.597551 120.242487 
L 99.743061 120.587159 
L 107.888571 120.931831 
L 116.034082 121.276504 
L 124.179592 121.621176 
L 132.325102 121.965848 
L 140.470612 122.310521 
L 148.616122 122.655193 
L 156.761633 122.999865 
L 164.907143 123.344538 
L 173.052653 123.68921 
L 181.198163 124.033882 
L 189.343673 124.378555 
L 197.489184 124.723227 
L 205.634694 125.067899 
L 213.780204 125.412571 
L 221.925714 125.757244 
L 230.071224 126.101916 
L 238.216735 126.446588 
L 246.362245 126.791261 
L 254.507755 127.135933 
L 262.653265 127.480605 
L 270.798776 127.825278 
L 278.944286 128.16995 
L 287.089796 128.514622 
L 295.235306 128.859295 
L 303.380816 129.203967 
L 311.526327 129.548639 
L 319.671837 129.893312 
L 327.817347 130.237984 
L 335.962857 130.582656 
L 344.108367 130.927329 
L 352.253878 131.272001 
L 360.399388 131.616673 
L 368.544898 131.961346 
L 376.690408 132.306018 
L 384.835918 132.65069 
L 392.981429 132.995363 
L 401.126939 133.340035 
L 409.272449 133.684707 
L 417.417959 134.02938 
L 425.563469 134.374052 
L 433.70898 134.718724 
L 441.85449 135.063397 
L 450 135.408069 
" clip-path="url(#p8af53b835c)" style="fill: none; stroke: #c004b9; stroke-width: 1.5; stroke-linecap: square"/>
   </g>
   <g id="line2d_29">
    <path d="M 50.87 220.453737 
L 59.01551 220.609656 
L 67.16102 220.765574 
L 75.306531 220.921493 
L 83.452041 221.077412 
L 91.597551 221.233331 
L 99.743061 221.38925 
L 107.888571 221.545169 
L 116.034082 221.701087 
L 124.179592 221.857006 
L 132.325102 222.012925 
L 140.470612 222.168844 
L 148.616122 222.324763 
L 156.761633 222.480681 
L 164.907143 222.6366 
L 173.052653 222.792519 
L 181.198163 222.948438 
L 189.343673 223.104357 
L 197.489184 223.260276 
L 205.634694 223.416194 
L 213.780204 223.572113 
L 221.925714 223.728032 
L 230.071224 223.883951 
L 238.216735 224.03987 
L 246.362245 224.195788 
L 254.507755 224.351707 
L 262.653265 224.507626 
L 270.798776 224.663545 
L 278.944286 224.819464 
L 287.089796 224.975383 
L 295.235306 225.131301 
L 303.380816 225.28722 
L 311.526327 225.443139 
L 319.671837 225.599058 
L 327.817347 225.754977 
L 335.962857 225.910895 
L 344.108367 226.066814 
L 352.253878 226.222733 
L 360.399388 226.378652 
L 368.544898 226.534571 
L 376.690408 226.69049 
L 384.835918 226.846408 
L 392.981429 227.002327 
L 401.126939 227.158246 
L 409.272449 227.314165 
L 417.417959 227.470084 
L 425.563469 227.626002 
L 433.70898 227.781921 
L 441.85449 227.93784 
L 450 228.093759 
" clip-path="url(#p8af53b835c)" style="fill: none; stroke: #0774d8; stroke-width: 1.5; stroke-linecap: square"/>
   </g>
   <g id="line2d_30">
    <path d="M 50.87 52.223616 
L 59.01551 51.630714 
L 67.16102 51.037813 
L 75.306531 50.444911 
L 83.452041 49.85201 
L 91.597551 49.259109 
L 99.743061 48.666207 
L 107.888571 48.073306 
L 116.034082 47.480404 
L 124.179592 46.887503 
L 132.325102 46.294601 
L 140.470612 45.7017 
L 148.616122 45.108798 
L 156.761633 44.515897 
L 164.907143 43.922995 
L 173.052653 43.330094 
L 181.198163 42.737193 
L 189.343673 42.144291 
L 197.489184 41.55139 
L 205.634694 40.958488 
L 213.780204 40.365587 
L 221.925714 39.772685 
L 230.071224 39.179784 
L 238.216735 38.586882 
L 246.362245 37.993981 
L 254.507755 37.401079 
L 262.653265 36.808178 
L 270.798776 36.215276 
L 278.944286 35.622375 
L 287.089796 35.029474 
L 295.235306 34.436572 
L 303.380816 33.843671 
L 311.526327 33.250769 
L 319.671837 32.657868 
L 327.817347 32.064966 
L 335.962857 31.472065 
L 344.108367 30.879163 
L 352.253878 30.286262 
L 360.399388 29.69336 
L 368.544898 29.100459 
L 376.690408 28.507558 
L 384.835918 27.914656 
L 392.981429 27.321755 
L 401.126939 26.728853 
L 409.272449 26.135952 
L 417.417959 25.54305 
L 425.563469 24.950149 
L 433.70898 24.357247 
L 441.85449 23.764346 
L 450 23.171444 
" clip-path="url(#p8af53b835c)" style="fill: none; stroke: #8f7a00; stroke-width: 1.5; stroke-linecap: square"/>
   </g>
   <g id="line2d_31">
    <path d="M 50.87 178.988999 
L 59.01551 179.872979 
L 67.16102 180.756958 
L 75.306531 181.640938 
L 83.452041 182.524918 
L 91.597551 183.408898 
L 99.743061 184.292877 
L 107.888571 185.176857 
L 116.034082 186.060837 
L 124.179592 186.944817 
L 132.325102 187.828796 
L 140.470612 188.712776 
L 148.616122 189.596756 
L 156.761633 190.480736 
L 164.907143 191.364715 
L 173.052653 192.248695 
L 181.198163 193.132675 
L 189.343673 194.016654 
L 197.489184 194.900634 
L 205.634694 195.784614 
L 213.780204 196.668594 
L 221.925714 197.552573 
L 230.071224 198.436553 
L 238.216735 199.320533 
L 246.362245 200.204513 
L 254.507755 201.088492 
L 262.653265 201.972472 
L 270.798776 202.856452 
L 278.944286 203.740432 
L 287.089796 204.624411 
L 295.235306 205.508391 
L 303.380816 206.392371 
L 311.526327 207.276351 
L 319.671837 208.16033 
L 327.817347 209.04431 
L 335.962857 209.92829 
L 344.108367 210.812269 
L 352.253878 211.696249 
L 360.399388 212.580229 
L 368.544898 213.464209 
L 376.690408 214.348188 
L 384.835918 215.232168 
L 392.981429 216.116148 
L 401.126939 217.000128 
L 409.272449 217.884107 
L 417.417959 218.768087 
L 425.563469 219.652067 
L 433.70898 220.536047 
L 441.85449 221.420026 
L 450 222.304006 
" clip-path="url(#p8af53b835c)" style="fill: none; stroke: #ff7266; stroke-width: 1.5; stroke-linecap: square"/>
   </g>
   <g id="line2d_32">
    <path d="M 50.87 264.245274 
L 59.01551 264.374969 
L 67.16102 264.504665 
L 75.306531 264.63436 
L 83.452041 264.764055 
L 91.597551 264.89375 
L 99.743061 265.023445 
L 107.888571 265.15314 
L 116.034082 265.282835 
L 124.179592 265.41253 
L 132.325102 265.542225 
L 140.470612 265.67192 
L 148.616122 265.801615 
L 156.761633 265.931311 
L 164.907143 266.061006 
L 173.052653 266.190701 
L 181.198163 266.320396 
L 189.343673 266.450091 
L 197.489184 266.579786 
L 205.634694 266.709481 
L 213.780204 266.839176 
L 221.925714 266.968871 
L 230.071224 267.098566 
L 238.216735 267.228261 
L 246.362245 267.357957 
L 254.507755 267.487652 
L 262.653265 267.617347 
L 270.798776 267.747042 
L 278.944286 267.876737 
L 287.089796 268.006432 
L 295.235306 268.136127 
L 303.380816 268.265822 
L 311.526327 268.395517 
L 319.671837 268.525212 
L 327.817347 268.654907 
L 335.962857 268.784603 
L 344.108367 268.914298 
L 352.253878 269.043993 
L 360.399388 269.173688 
L 368.544898 269.303383 
L 376.690408 269.433078 
L 384.835918 269.562773 
L 392.981429 269.692468 
L 401.126939 269.822163 
L 409.272449 269.951858 
L 417.417959 270.081553 
L 425.563469 270.211249 
L 433.70898 270.340944 
L 441.85449 270.470639 
L 450 270.600334 
" clip-path="url(#p8af53b835c)" style="fill: none; stroke: #5e7e66; stroke-width: 1.5; stroke-linecap: square"/>
   </g>
   <g id="line2d_33">
    <path d="M 50.87 177.764398 
L 59.01551 177.211049 
L 67.16102 176.657701 
L 75.306531 176.104353 
L 83.452041 175.551004 
L 91.597551 174.997656 
L 99.743061 174.444308 
L 107.888571 173.890959 
L 116.034082 173.337611 
L 124.179592 172.784263 
L 132.325102 172.230914 
L 140.470612 171.677566 
L 148.616122 171.124217 
L 156.761633 170.570869 
L 164.907143 170.017521 
L 173.052653 169.464172 
L 181.198163 168.910824 
L 189.343673 168.357476 
L 197.489184 167.804127 
L 205.634694 167.250779 
L 213.780204 166.697431 
L 221.925714 166.144082 
L 230.071224 165.590734 
L 238.216735 165.037385 
L 246.362245 164.484037 
L 254.507755 163.930689 
L 262.653265 163.37734 
L 270.798776 162.823992 
L 278.944286 162.270644 
L 287.089796 161.717295 
L 295.235306 161.163947 
L 303.380816 160.610599 
L 311.526327 160.05725 
L 319.671837 159.503902 
L 327.817347 158.950553 
L 335.962857 158.397205 
L 344.108367 157.843857 
L 352.253878 157.290508 
L 360.399388 156.73716 
L 368.544898 156.183812 
L 376.690408 155.630463 
L 384.835918 155.077115 
L 392.981429 154.523767 
L 401.126939 153.970418 
L 409.272449 153.41707 
L 417.417959 152.863721 
L 425.563469 152.310373 
L 433.70898 151.757025 
L 441.85449 151.203676 
L 450 150.650328 
" clip-path="url(#p8af53b835c)" style="fill: none; stroke: #9be4ff; stroke-width: 1.5; stroke-linecap: square"/>
   </g>
   <g id="patch_3">
    <path d="M 50.87 303.64 
L 50.87 10.8 
" style="fill: none; stroke: #000000; stroke-width: 0.8; stroke-linejoin: miter; stroke-linecap: square"/>
   </g>
   <g id="patch_4">
    <path d="M 450 303.64 
L 450 10.8 
" style="fill: none; stroke: #000000; stroke-width: 0.8; stroke-linejoin: miter; stroke-linecap: square"/>
   </g>
   <g id="patch_5">
    <path d="M 50.87 303.64 
L 450 303.64 
" style="fill: none; stroke: #000000; stroke-width: 0.8; stroke-linejoin: miter; stroke-linecap: square"/>
   </g>
   <g id="patch_6">
    <path d="M 50.87 10.8 
L 450 10.8 
" style="fill: none; stroke: #000000; stroke-width: 0.8; stroke-linejoin: miter; stroke-linecap: square"/>
   </g>
   <g id="legend_1">
    <g id="patch_7">
     <path d="M 333.726562 150.903125 
L 443 150.903125 
Q 445 150.903125 445 148.903125 
L 445 17.8 
Q 445 15.8 443 15.8 
L 333.726562 15.8 
Q 331.726562 15.8 331.726562 17.8 
L 331.726562 148.903125 
Q 331.726562 150.903125 333.726562 150.903125 
z
" style="fill: #ffffff; opacity: 0.8; stroke: #cccccc; stroke-linejoin: miter"/>
    </g>
    <g id="line2d_34">
     <path d="M 335.726562 23.898438 
L 345.726562 23.898438 
L 355.726562 23.898438 
" style="fill: none; stroke: #d70000; stroke-width: 1.5; stroke-linecap: square"/>
    </g>
    <g id="text_18">
     <!-- AT -->
     <g transform="translate(363.726562 27.398438)scale(0.1 -0.1)">
      <defs>
       <path id="DejaVuSans-41" d="M 2188 4044 
L 1331 1722 
L 3047 1722 
L 2188 4044 
z
M 1831 4666 
L 2547 4666 
L 4325 0 
L 3669 0 
L 3244 1197 
L 1141 1197 
L 716 0 
L 50 0 
L 1831 4666 
z
" transform="scale(0.015625)"/>
       <path id="DejaVuSans-54" d="M -19 4666 
L 3928 4666 
L 3928 4134 
L 2272 4134 
L 2272 0 
L 1638 0 
L 1638 4134 
L -19 4134 
L -19 4666 
z
" transform="scale(0.015625)"/>
      </defs>
      <use xlink:href="#DejaVuSans-41"/>
      <use xlink:href="#DejaVuSans-54" x="60.658203"/>
     </g>
    </g>
    <g id="line2d_35">
     <path d="M 335.726562 38.576563 
L 345.726562 38.576563 
L 355.726562 38.576563 
" style="fill: none; stroke: #8c3cff; stroke-width: 1.5; stroke-linecap: square"/>
    </g>
    <g id="text_19">
     <!-- BE -->
     <g transform="translate(363.726562 42.076563)scale(0.1 -0.1)">
      <defs>
       <path id="DejaVuSans-42" d="M 1259 2228 
L 1259 519 
L 2272 519 
Q 2781 519 3026 730 
Q 3272 941 3272 1375 
Q 3272 1813 3026 2020 
Q 2781 2228 2272 2228 
L 1259 2228 
z
M 1259 4147 
L 1259 2741 
L 2194 2741 
Q 2656 2741 2882 2914 
Q 3109 3088 3109 3444 
Q 3109 3797 2882 3972 
Q 2656 4147 2194 4147 
L 1259 4147 
z
M 628 4666 
L 2241 4666 
Q 2963 4666 3353 4366 
Q 3744 4066 3744 3513 
Q 3744 3084 3544 2831 
Q 3344 2578 2956 2516 
Q 3422 2416 3680 2098 
Q 3938 1781 3938 1306 
Q 3938 681 3513 340 
Q 3088 0 2303 0 
L 628 0 
L 628 4666 
z
" transform="scale(0.015625)"/>
      </defs>
      <use xlink:href="#DejaVuSans-42"/>
      <use xlink:href="#DejaVuSans-45" x="68.603516"/>
     </g>
    </g>
    <g id="line2d_36">
     <path d="M 335.726562 53.254688 
L 345.726562 53.254688 
L 355.726562 53.254688 
" style="fill: none; stroke: #028800; stroke-width: 1.5; stroke-linecap: square"/>
    </g>
    <g id="text_20">
     <!-- BG -->
     <g transform="translate(363.726562 56.754688)scale(0.1 -0.1)">
      <use xlink:href="#DejaVuSans-42"/>
      <use xlink:href="#DejaVuSans-47" x="66.853516"/>
     </g>
    </g>
    <g id="line2d_37">
     <path d="M 335.726562 67.932813 
L 345.726562 67.932813 
L 355.726562 67.932813 
" style="fill: none; stroke: #00acc7; stroke-width: 1.5; stroke-linecap: square"/>
    </g>
    <g id="text_21">
     <!-- CY -->
     <g transform="translate(363.726562 71.432813)scale(0.1 -0.1)">
      <defs>
       <path id="DejaVuSans-43" d="M 4122 4306 
L 4122 3641 
Q 3803 3938 3442 4084 
Q 3081 4231 2675 4231 
Q 1875 4231 1450 3742 
Q 1025 3253 1025 2328 
Q 1025 1406 1450 917 
Q 1875 428 2675 428 
Q 3081 428 3442 575 
Q 3803 722 4122 1019 
L 4122 359 
Q 3791 134 3420 21 
Q 3050 -91 2638 -91 
Q 1578 -91 968 557 
Q 359 1206 359 2328 
Q 359 3453 968 4101 
Q 1578 4750 2638 4750 
Q 3056 4750 3426 4639 
Q 3797 4528 4122 4306 
z
" transform="scale(0.015625)"/>
       <path id="DejaVuSans-59" d="M -13 4666 
L 666 4666 
L 1959 2747 
L 3244 4666 
L 3922 4666 
L 2272 2222 
L 2272 0 
L 1638 0 
L 1638 2222 
L -13 4666 
z
" transform="scale(0.015625)"/>
      </defs>
      <use xlink:href="#DejaVuSans-43"/>
      <use xlink:href="#DejaVuSans-59" x="68.074219"/>
     </g>
    </g>
    <g id="line2d_38">
     <path d="M 335.726562 82.610938 
L 345.726562 82.610938 
L 355.726562 82.610938 
" style="fill: none; stroke: #ff7fd1; stroke-width: 1.5; stroke-linecap: square"/>
    </g>
    <g id="text_22">
     <!-- DE -->
     <g transform="translate(363.726562 86.110938)scale(0.1 -0.1)">
      <use xlink:href="#DejaVuSans-44"/>
      <use xlink:href="#DejaVuSans-45" x="77.001953"/>
     </g>
    </g>
    <g id="line2d_39">
     <path d="M 335.726562 97.289063 
L 345.726562 97.289063 
L 355.726562 97.289063 
" style="fill: none; stroke: #6c004f; stroke-width: 1.5; stroke-linecap: square"/>
    </g>
    <g id="text_23">
     <!-- DK -->
     <g transform="translate(363.726562 100.789063)scale(0.1 -0.1)">
      <defs>
       <path id="DejaVuSans-4b" d="M 628 4666 
L 1259 4666 
L 1259 2694 
L 3353 4666 
L 4166 4666 
L 1850 2491 
L 4331 0 
L 3500 0 
L 1259 2247 
L 1259 0 
L 628 0 
L 628 4666 
z
" transform="scale(0.015625)"/>
      </defs>
      <use xlink:href="#DejaVuSans-44"/>
      <use xlink:href="#DejaVuSans-4b" x="77.001953"/>
     </g>
    </g>
    <g id="line2d_40">
     <path d="M 335.726562 111.967188 
L 345.726562 111.967188 
L 355.726562 111.967188 
" style="fill: none; stroke: #583b00; stroke-width: 1.5; stroke-linecap: square"/>
    </g>
    <g id="text_24">
     <!-- EL -->
     <g transform="translate(363.726562 115.467188)scale(0.1 -0.1)">
      <defs>
       <path id="DejaVuSans-4c" d="M 628 4666 
L 1259 4666 
L 1259 531 
L 3531 531 
L 3531 0 
L 628 0 
L 628 4666 
z
" transform="scale(0.015625)"/>
      </defs>
      <use xlink:href="#DejaVuSans-45"/>
      <use xlink:href="#DejaVuSans-4c" x="63.183594"/>
     </g>
    </g>
    <g id="line2d_41">
     <path d="M 335.726562 126.645313 
L 345.726562 126.645313 
L 355.726562 126.645313 
" style="fill: none; stroke: #005759; stroke-width: 1.5; stroke-linecap: square"/>
    </g>
    <g id="text_25">
     <!-- ES -->
     <g transform="translate(363.726562 130.145313)scale(0.1 -0.1)">
      <use xlink:href="#DejaVuSans-45"/>
      <use xlink:href="#DejaVuSans-53" x="63.183594"/>
     </g>
    </g>
    <g id="line2d_42">
     <path d="M 335.726562 141.323438 
L 345.726562 141.323438 
L 355.726562 141.323438 
" style="fill: none; stroke: #0000dd; stroke-width: 1.5; stroke-linecap: square"/>
    </g>
    <g id="text_26">
     <!-- FI -->
     <g transform="translate(363.726562 144.823438)scale(0.1 -0.1)">
      <defs>
       <path id="DejaVuSans-46" d="M 628 4666 
L 3309 4666 
L 3309 4134 
L 1259 4134 
L 1259 2759 
L 3109 2759 
L 3109 2228 
L 1259 2228 
L 1259 0 
L 628 0 
L 628 4666 
z
" transform="scale(0.015625)"/>
       <path id="DejaVuSans-49" d="M 628 4666 
L 1259 4666 
L 1259 0 
L 628 0 
L 628 4666 
z
" transform="scale(0.015625)"/>
      </defs>
      <use xlink:href="#DejaVuSans-46"/>
      <use xlink:href="#DejaVuSans-49" x="57.519531"/>
     </g>
    </g>
    <g id="line2d_43">
     <path d="M 398.160937 23.898438 
L 408.160937 23.898438 
L 418.160937 23.898438 
" style="fill: none; stroke: #a1756a; stroke-width: 1.5; stroke-linecap: square"/>
    </g>
    <g id="text_27">
     <!-- HU -->
     <g transform="translate(426.160937 27.398438)scale(0.1 -0.1)">
      <use xlink:href="#DejaVuSans-48"/>
      <use xlink:href="#DejaVuSans-55" x="75.195312"/>
     </g>
    </g>
    <g id="line2d_44">
     <path d="M 398.160937 38.576563 
L 408.160937 38.576563 
L 418.160937 38.576563 
" style="fill: none; stroke: #bcb7ff; stroke-width: 1.5; stroke-linecap: square"/>
    </g>
    <g id="text_28">
     <!-- IE -->
     <g transform="translate(426.160937 42.076563)scale(0.1 -0.1)">
      <use xlink:href="#DejaVuSans-49"/>
      <use xlink:href="#DejaVuSans-45" x="29.492188"/>
     </g>
    </g>
    <g id="line2d_45">
     <path d="M 398.160937 53.254688 
L 408.160937 53.254688 
L 418.160937 53.254688 
" style="fill: none; stroke: #95b578; stroke-width: 1.5; stroke-linecap: square"/>
    </g>
    <g id="text_29">
     <!-- IT -->
     <g transform="translate(426.160937 56.754688)scale(0.1 -0.1)">
      <use xlink:href="#DejaVuSans-49"/>
      <use xlink:href="#DejaVuSans-54" x="29.492188"/>
     </g>
    </g>
    <g id="line2d_46">
     <path d="M 398.160937 67.932813 
L 408.160937 67.932813 
L 418.160937 67.932813 
" style="fill: none; stroke: #c004b9; stroke-width: 1.5; stroke-linecap: square"/>
    </g>
    <g id="text_30">
     <!-- LT -->
     <g transform="translate(426.160937 71.432813)scale(0.1 -0.1)">
      <use xlink:href="#DejaVuSans-4c"/>
      <use xlink:href="#DejaVuSans-54" x="41.962891"/>
     </g>
    </g>
    <g id="line2d_47">
     <path d="M 398.160937 82.610938 
L 408.160937 82.610938 
L 418.160937 82.610938 
" style="fill: none; stroke: #0774d8; stroke-width: 1.5; stroke-linecap: square"/>
    </g>
    <g id="text_31">
     <!-- MT -->
     <g transform="translate(426.160937 86.110938)scale(0.1 -0.1)">
      <defs>
       <path id="DejaVuSans-4d" d="M 628 4666 
L 1569 4666 
L 2759 1491 
L 3956 4666 
L 4897 4666 
L 4897 0 
L 4281 0 
L 4281 4097 
L 3078 897 
L 2444 897 
L 1241 4097 
L 1241 0 
L 628 0 
L 628 4666 
z
" transform="scale(0.015625)"/>
      </defs>
      <use xlink:href="#DejaVuSans-4d"/>
      <use xlink:href="#DejaVuSans-54" x="86.279297"/>
     </g>
    </g>
    <g id="line2d_48">
     <path d="M 398.160937 97.289063 
L 408.160937 97.289063 
L 418.160937 97.289063 
" style="fill: none; stroke: #8f7a00; stroke-width: 1.5; stroke-linecap: square"/>
    </g>
    <g id="text_32">
     <!-- PT -->
     <g transform="translate(426.160937 100.789063)scale(0.1 -0.1)">
      <use xlink:href="#DejaVuSans-50"/>
      <use xlink:href="#DejaVuSans-54" x="60.302734"/>
     </g>
    </g>
    <g id="line2d_49">
     <path d="M 398.160937 111.967188 
L 408.160937 111.967188 
L 418.160937 111.967188 
" style="fill: none; stroke: #ff7266; stroke-width: 1.5; stroke-linecap: square"/>
    </g>
    <g id="text_33">
     <!-- RO -->
     <g transform="translate(426.160937 115.467188)scale(0.1 -0.1)">
      <defs>
       <path id="DejaVuSans-52" d="M 2841 2188 
Q 3044 2119 3236 1894 
Q 3428 1669 3622 1275 
L 4263 0 
L 3584 0 
L 2988 1197 
Q 2756 1666 2539 1819 
Q 2322 1972 1947 1972 
L 1259 1972 
L 1259 0 
L 628 0 
L 628 4666 
L 2053 4666 
Q 2853 4666 3247 4331 
Q 3641 3997 3641 3322 
Q 3641 2881 3436 2590 
Q 3231 2300 2841 2188 
z
M 1259 4147 
L 1259 2491 
L 2053 2491 
Q 2509 2491 2742 2702 
Q 2975 2913 2975 3322 
Q 2975 3731 2742 3939 
Q 2509 4147 2053 4147 
L 1259 4147 
z
" transform="scale(0.015625)"/>
       <path id="DejaVuSans-4f" d="M 2522 4238 
Q 1834 4238 1429 3725 
Q 1025 3213 1025 2328 
Q 1025 1447 1429 934 
Q 1834 422 2522 422 
Q 3209 422 3611 934 
Q 4013 1447 4013 2328 
Q 4013 3213 3611 3725 
Q 3209 4238 2522 4238 
z
M 2522 4750 
Q 3503 4750 4090 4092 
Q 4678 3434 4678 2328 
Q 4678 1225 4090 567 
Q 3503 -91 2522 -91 
Q 1538 -91 948 565 
Q 359 1222 359 2328 
Q 359 3434 948 4092 
Q 1538 4750 2522 4750 
z
" transform="scale(0.015625)"/>
      </defs>
      <use xlink:href="#DejaVuSans-52"/>
      <use xlink:href="#DejaVuSans-4f" x="69.482422"/>
     </g>
    </g>
    <g id="line2d_50">
     <path d="M 398.160937 126.645313 
L 408.160937 126.645313 
L 418.160937 126.645313 
" style="fill: none; stroke: #5e7e66; stroke-width: 1.5; stroke-linecap: square"/>
    </g>
    <g id="text_34">
     <!-- SI -->
     <g transform="translate(426.160937 130.145313)scale(0.1 -0.1)">
      <use xlink:href="#DejaVuSans-53"/>
      <use xlink:href="#DejaVuSans-49" x="63.476562"/>
     </g>
    </g>
    <g id="line2d_51">
     <path d="M 398.160937 141.323438 
L 408.160937 141.323438 
L 418.160937 141.323438 
" style="fill: none; stroke: #9be4ff; stroke-width: 1.5; stroke-linecap: square"/>
    </g>
    <g id="text_35">
     <!-- SK -->
     <g transform="translate(426.160937 144.823438)scale(0.1 -0.1)">
      <use xlink:href="#DejaVuSans-53"/>
      <use xlink:href="#DejaVuSans-4b" x="63.476562"/>
     </g>
    </g>
   </g>
  </g>
 </g>
 <defs>
  <clipPath id="p8af53b835c">
   <rect x="50.87" y="10.8" width="399.13" height="292.84"/>
  </clipPath>
 </defs>
</svg>
