<?xml version="1.0" encoding="utf-8" standalone="no"?>
<!DOCTYPE svg PUBLIC "-//W3C//DTD SVG 1.1//EN"
  "http://www.w3.org/Graphics/SVG/1.1/DTD/svg11.dtd">
<svg xmlns:xlink="http://www.w3.org/1999/xlink" width="360pt" height="288pt" viewBox="0 0 360 288" xmlns="http://www.w3.org/2000/svg" version="1.1">
 <metadata>
  <rdf:RDF xmlns:dc="http://purl.org/dc/elements/1.1/" xmlns:cc="http://creativecommons.org/ns#" xmlns:rdf="http://www.w3.org/1999/02/22-rdf-syntax-ns#">
   <cc:Work>
    <dc:type rdf:resource="http://purl.org/dc/dcmitype/StillImage"/>
    <dc:date>2024-01-29T16:48:02.978475</dc:date>
    <dc:format>image/svg+xml</dc:format>
    <dc:creator>
     <cc:Agent>
      <dc:title>Matplotlib v3.5.1, https://matplotlib.org/</dc:title>
     </cc:Agent>
    </dc:creator>
   </cc:Work>
  </rdf:RDF>
 </metadata>
 <defs>
  <style type="text/css">*{stroke-linejoin: round; stroke-linecap: butt}</style>
 </defs>
 <g id="figure_1">
  <g id="patch_1">
   <path d="M 0 288 
L 360 288 
L 360 0 
L 0 0 
L 0 288 
z
" style="fill: none"/>
  </g>
  <g id="axes_1">
   <g id="patch_2">
    <path d="M 57.17 246.04 
L 349.2 246.04 
L 349.2 14.76 
L 57.17 14.76 
L 57.17 246.04 
z
" style="fill: none"/>
   </g>
   <g id="matplotlib.axis_1">
    <g id="xtick_1">
     <g id="line2d_1">
      <defs>
       <path id="m0929f8b7cb" d="M 0 0 
L 0 3.5 
" style="stroke: #000000; stroke-width: 0.8"/>
      </defs>
      <g>
       <use xlink:href="#m0929f8b7cb" x="119.339989" y="246.04" style="stroke: #000000; stroke-width: 0.8"/>
      </g>
     </g>
     <g id="text_1">
      <!-- 50 -->
      <g transform="translate(112.977489 260.638438)scale(0.1 -0.1)">
       <defs>
        <path id="DejaVuSans-35" d="M 691 4666 
L 3169 4666 
L 3169 4134 
L 1269 4134 
L 1269 2991 
Q 1406 3038 1543 3061 
Q 1681 3084 1819 3084 
Q 2600 3084 3056 2656 
Q 3513 2228 3513 1497 
Q 3513 744 3044 326 
Q 2575 -91 1722 -91 
Q 1428 -91 1123 -41 
Q 819 9 494 109 
L 494 744 
Q 775 591 1075 516 
Q 1375 441 1709 441 
Q 2250 441 2565 725 
Q 2881 1009 2881 1497 
Q 2881 1984 2565 2268 
Q 2250 2553 1709 2553 
Q 1456 2553 1204 2497 
Q 953 2441 691 2322 
L 691 4666 
z
" transform="scale(0.015625)"/>
        <path id="DejaVuSans-30" d="M 2034 4250 
Q 1547 4250 1301 3770 
Q 1056 3291 1056 2328 
Q 1056 1369 1301 889 
Q 1547 409 2034 409 
Q 2525 409 2770 889 
Q 3016 1369 3016 2328 
Q 3016 3291 2770 3770 
Q 2525 4250 2034 4250 
z
M 2034 4750 
Q 2819 4750 3233 4129 
Q 3647 3509 3647 2328 
Q 3647 1150 3233 529 
Q 2819 -91 2034 -91 
Q 1250 -91 836 529 
Q 422 1150 422 2328 
Q 422 3509 836 4129 
Q 1250 4750 2034 4750 
z
" transform="scale(0.015625)"/>
       </defs>
       <use xlink:href="#DejaVuSans-35"/>
       <use xlink:href="#DejaVuSans-30" x="63.623047"/>
      </g>
     </g>
    </g>
    <g id="xtick_2">
     <g id="line2d_2">
      <g>
       <use xlink:href="#m0929f8b7cb" x="182.006295" y="246.04" style="stroke: #000000; stroke-width: 0.8"/>
      </g>
     </g>
     <g id="text_2">
      <!-- 100 -->
      <g transform="translate(172.462545 260.638438)scale(0.1 -0.1)">
       <defs>
        <path id="DejaVuSans-31" d="M 794 531 
L 1825 531 
L 1825 4091 
L 703 3866 
L 703 4441 
L 1819 4666 
L 2450 4666 
L 2450 531 
L 3481 531 
L 3481 0 
L 794 0 
L 794 531 
z
" transform="scale(0.015625)"/>
       </defs>
       <use xlink:href="#DejaVuSans-31"/>
       <use xlink:href="#DejaVuSans-30" x="63.623047"/>
       <use xlink:href="#DejaVuSans-30" x="127.246094"/>
      </g>
     </g>
    </g>
    <g id="xtick_3">
     <g id="line2d_3">
      <g>
       <use xlink:href="#m0929f8b7cb" x="244.672601" y="246.04" style="stroke: #000000; stroke-width: 0.8"/>
      </g>
     </g>
     <g id="text_3">
      <!-- 150 -->
      <g transform="translate(235.128851 260.638438)scale(0.1 -0.1)">
       <use xlink:href="#DejaVuSans-31"/>
       <use xlink:href="#DejaVuSans-35" x="63.623047"/>
       <use xlink:href="#DejaVuSans-30" x="127.246094"/>
      </g>
     </g>
    </g>
    <g id="xtick_4">
     <g id="line2d_4">
      <g>
       <use xlink:href="#m0929f8b7cb" x="307.338907" y="246.04" style="stroke: #000000; stroke-width: 0.8"/>
      </g>
     </g>
     <g id="text_4">
      <!-- 200 -->
      <g transform="translate(297.795157 260.638438)scale(0.1 -0.1)">
       <defs>
        <path id="DejaVuSans-32" d="M 1228 531 
L 3431 531 
L 3431 0 
L 469 0 
L 469 531 
Q 828 903 1448 1529 
Q 2069 2156 2228 2338 
Q 2531 2678 2651 2914 
Q 2772 3150 2772 3378 
Q 2772 3750 2511 3984 
Q 2250 4219 1831 4219 
Q 1534 4219 1204 4116 
Q 875 4013 500 3803 
L 500 4441 
Q 881 4594 1212 4672 
Q 1544 4750 1819 4750 
Q 2544 4750 2975 4387 
Q 3406 4025 3406 3419 
Q 3406 3131 3298 2873 
Q 3191 2616 2906 2266 
Q 2828 2175 2409 1742 
Q 1991 1309 1228 531 
z
" transform="scale(0.015625)"/>
       </defs>
       <use xlink:href="#DejaVuSans-32"/>
       <use xlink:href="#DejaVuSans-30" x="63.623047"/>
       <use xlink:href="#DejaVuSans-30" x="127.246094"/>
      </g>
     </g>
    </g>
    <g id="text_5">
     <!-- Unemployment Rate (per 1000 citizens) -->
     <g transform="translate(103.038906 274.316562)scale(0.1 -0.1)">
      <defs>
       <path id="DejaVuSans-55" d="M 556 4666 
L 1191 4666 
L 1191 1831 
Q 1191 1081 1462 751 
Q 1734 422 2344 422 
Q 2950 422 3222 751 
Q 3494 1081 3494 1831 
L 3494 4666 
L 4128 4666 
L 4128 1753 
Q 4128 841 3676 375 
Q 3225 -91 2344 -91 
Q 1459 -91 1007 375 
Q 556 841 556 1753 
L 556 4666 
z
" transform="scale(0.015625)"/>
       <path id="DejaVuSans-6e" d="M 3513 2113 
L 3513 0 
L 2938 0 
L 2938 2094 
Q 2938 2591 2744 2837 
Q 2550 3084 2163 3084 
Q 1697 3084 1428 2787 
Q 1159 2491 1159 1978 
L 1159 0 
L 581 0 
L 581 3500 
L 1159 3500 
L 1159 2956 
Q 1366 3272 1645 3428 
Q 1925 3584 2291 3584 
Q 2894 3584 3203 3211 
Q 3513 2838 3513 2113 
z
" transform="scale(0.015625)"/>
       <path id="DejaVuSans-65" d="M 3597 1894 
L 3597 1613 
L 953 1613 
Q 991 1019 1311 708 
Q 1631 397 2203 397 
Q 2534 397 2845 478 
Q 3156 559 3463 722 
L 3463 178 
Q 3153 47 2828 -22 
Q 2503 -91 2169 -91 
Q 1331 -91 842 396 
Q 353 884 353 1716 
Q 353 2575 817 3079 
Q 1281 3584 2069 3584 
Q 2775 3584 3186 3129 
Q 3597 2675 3597 1894 
z
M 3022 2063 
Q 3016 2534 2758 2815 
Q 2500 3097 2075 3097 
Q 1594 3097 1305 2825 
Q 1016 2553 972 2059 
L 3022 2063 
z
" transform="scale(0.015625)"/>
       <path id="DejaVuSans-6d" d="M 3328 2828 
Q 3544 3216 3844 3400 
Q 4144 3584 4550 3584 
Q 5097 3584 5394 3201 
Q 5691 2819 5691 2113 
L 5691 0 
L 5113 0 
L 5113 2094 
Q 5113 2597 4934 2840 
Q 4756 3084 4391 3084 
Q 3944 3084 3684 2787 
Q 3425 2491 3425 1978 
L 3425 0 
L 2847 0 
L 2847 2094 
Q 2847 2600 2669 2842 
Q 2491 3084 2119 3084 
Q 1678 3084 1418 2786 
Q 1159 2488 1159 1978 
L 1159 0 
L 581 0 
L 581 3500 
L 1159 3500 
L 1159 2956 
Q 1356 3278 1631 3431 
Q 1906 3584 2284 3584 
Q 2666 3584 2933 3390 
Q 3200 3197 3328 2828 
z
" transform="scale(0.015625)"/>
       <path id="DejaVuSans-70" d="M 1159 525 
L 1159 -1331 
L 581 -1331 
L 581 3500 
L 1159 3500 
L 1159 2969 
Q 1341 3281 1617 3432 
Q 1894 3584 2278 3584 
Q 2916 3584 3314 3078 
Q 3713 2572 3713 1747 
Q 3713 922 3314 415 
Q 2916 -91 2278 -91 
Q 1894 -91 1617 61 
Q 1341 213 1159 525 
z
M 3116 1747 
Q 3116 2381 2855 2742 
Q 2594 3103 2138 3103 
Q 1681 3103 1420 2742 
Q 1159 2381 1159 1747 
Q 1159 1113 1420 752 
Q 1681 391 2138 391 
Q 2594 391 2855 752 
Q 3116 1113 3116 1747 
z
" transform="scale(0.015625)"/>
       <path id="DejaVuSans-6c" d="M 603 4863 
L 1178 4863 
L 1178 0 
L 603 0 
L 603 4863 
z
" transform="scale(0.015625)"/>
       <path id="DejaVuSans-6f" d="M 1959 3097 
Q 1497 3097 1228 2736 
Q 959 2375 959 1747 
Q 959 1119 1226 758 
Q 1494 397 1959 397 
Q 2419 397 2687 759 
Q 2956 1122 2956 1747 
Q 2956 2369 2687 2733 
Q 2419 3097 1959 3097 
z
M 1959 3584 
Q 2709 3584 3137 3096 
Q 3566 2609 3566 1747 
Q 3566 888 3137 398 
Q 2709 -91 1959 -91 
Q 1206 -91 779 398 
Q 353 888 353 1747 
Q 353 2609 779 3096 
Q 1206 3584 1959 3584 
z
" transform="scale(0.015625)"/>
       <path id="DejaVuSans-79" d="M 2059 -325 
Q 1816 -950 1584 -1140 
Q 1353 -1331 966 -1331 
L 506 -1331 
L 506 -850 
L 844 -850 
Q 1081 -850 1212 -737 
Q 1344 -625 1503 -206 
L 1606 56 
L 191 3500 
L 800 3500 
L 1894 763 
L 2988 3500 
L 3597 3500 
L 2059 -325 
z
" transform="scale(0.015625)"/>
       <path id="DejaVuSans-74" d="M 1172 4494 
L 1172 3500 
L 2356 3500 
L 2356 3053 
L 1172 3053 
L 1172 1153 
Q 1172 725 1289 603 
Q 1406 481 1766 481 
L 2356 481 
L 2356 0 
L 1766 0 
Q 1100 0 847 248 
Q 594 497 594 1153 
L 594 3053 
L 172 3053 
L 172 3500 
L 594 3500 
L 594 4494 
L 1172 4494 
z
" transform="scale(0.015625)"/>
       <path id="DejaVuSans-20" transform="scale(0.015625)"/>
       <path id="DejaVuSans-52" d="M 2841 2188 
Q 3044 2119 3236 1894 
Q 3428 1669 3622 1275 
L 4263 0 
L 3584 0 
L 2988 1197 
Q 2756 1666 2539 1819 
Q 2322 1972 1947 1972 
L 1259 1972 
L 1259 0 
L 628 0 
L 628 4666 
L 2053 4666 
Q 2853 4666 3247 4331 
Q 3641 3997 3641 3322 
Q 3641 2881 3436 2590 
Q 3231 2300 2841 2188 
z
M 1259 4147 
L 1259 2491 
L 2053 2491 
Q 2509 2491 2742 2702 
Q 2975 2913 2975 3322 
Q 2975 3731 2742 3939 
Q 2509 4147 2053 4147 
L 1259 4147 
z
" transform="scale(0.015625)"/>
       <path id="DejaVuSans-61" d="M 2194 1759 
Q 1497 1759 1228 1600 
Q 959 1441 959 1056 
Q 959 750 1161 570 
Q 1363 391 1709 391 
Q 2188 391 2477 730 
Q 2766 1069 2766 1631 
L 2766 1759 
L 2194 1759 
z
M 3341 1997 
L 3341 0 
L 2766 0 
L 2766 531 
Q 2569 213 2275 61 
Q 1981 -91 1556 -91 
Q 1019 -91 701 211 
Q 384 513 384 1019 
Q 384 1609 779 1909 
Q 1175 2209 1959 2209 
L 2766 2209 
L 2766 2266 
Q 2766 2663 2505 2880 
Q 2244 3097 1772 3097 
Q 1472 3097 1187 3025 
Q 903 2953 641 2809 
L 641 3341 
Q 956 3463 1253 3523 
Q 1550 3584 1831 3584 
Q 2591 3584 2966 3190 
Q 3341 2797 3341 1997 
z
" transform="scale(0.015625)"/>
       <path id="DejaVuSans-28" d="M 1984 4856 
Q 1566 4138 1362 3434 
Q 1159 2731 1159 2009 
Q 1159 1288 1364 580 
Q 1569 -128 1984 -844 
L 1484 -844 
Q 1016 -109 783 600 
Q 550 1309 550 2009 
Q 550 2706 781 3412 
Q 1013 4119 1484 4856 
L 1984 4856 
z
" transform="scale(0.015625)"/>
       <path id="DejaVuSans-72" d="M 2631 2963 
Q 2534 3019 2420 3045 
Q 2306 3072 2169 3072 
Q 1681 3072 1420 2755 
Q 1159 2438 1159 1844 
L 1159 0 
L 581 0 
L 581 3500 
L 1159 3500 
L 1159 2956 
Q 1341 3275 1631 3429 
Q 1922 3584 2338 3584 
Q 2397 3584 2469 3576 
Q 2541 3569 2628 3553 
L 2631 2963 
z
" transform="scale(0.015625)"/>
       <path id="DejaVuSans-63" d="M 3122 3366 
L 3122 2828 
Q 2878 2963 2633 3030 
Q 2388 3097 2138 3097 
Q 1578 3097 1268 2742 
Q 959 2388 959 1747 
Q 959 1106 1268 751 
Q 1578 397 2138 397 
Q 2388 397 2633 464 
Q 2878 531 3122 666 
L 3122 134 
Q 2881 22 2623 -34 
Q 2366 -91 2075 -91 
Q 1284 -91 818 406 
Q 353 903 353 1747 
Q 353 2603 823 3093 
Q 1294 3584 2113 3584 
Q 2378 3584 2631 3529 
Q 2884 3475 3122 3366 
z
" transform="scale(0.015625)"/>
       <path id="DejaVuSans-69" d="M 603 3500 
L 1178 3500 
L 1178 0 
L 603 0 
L 603 3500 
z
M 603 4863 
L 1178 4863 
L 1178 4134 
L 603 4134 
L 603 4863 
z
" transform="scale(0.015625)"/>
       <path id="DejaVuSans-7a" d="M 353 3500 
L 3084 3500 
L 3084 2975 
L 922 459 
L 3084 459 
L 3084 0 
L 275 0 
L 275 525 
L 2438 3041 
L 353 3041 
L 353 3500 
z
" transform="scale(0.015625)"/>
       <path id="DejaVuSans-73" d="M 2834 3397 
L 2834 2853 
Q 2591 2978 2328 3040 
Q 2066 3103 1784 3103 
Q 1356 3103 1142 2972 
Q 928 2841 928 2578 
Q 928 2378 1081 2264 
Q 1234 2150 1697 2047 
L 1894 2003 
Q 2506 1872 2764 1633 
Q 3022 1394 3022 966 
Q 3022 478 2636 193 
Q 2250 -91 1575 -91 
Q 1294 -91 989 -36 
Q 684 19 347 128 
L 347 722 
Q 666 556 975 473 
Q 1284 391 1588 391 
Q 1994 391 2212 530 
Q 2431 669 2431 922 
Q 2431 1156 2273 1281 
Q 2116 1406 1581 1522 
L 1381 1569 
Q 847 1681 609 1914 
Q 372 2147 372 2553 
Q 372 3047 722 3315 
Q 1072 3584 1716 3584 
Q 2034 3584 2315 3537 
Q 2597 3491 2834 3397 
z
" transform="scale(0.015625)"/>
       <path id="DejaVuSans-29" d="M 513 4856 
L 1013 4856 
Q 1481 4119 1714 3412 
Q 1947 2706 1947 2009 
Q 1947 1309 1714 600 
Q 1481 -109 1013 -844 
L 513 -844 
Q 928 -128 1133 580 
Q 1338 1288 1338 2009 
Q 1338 2731 1133 3434 
Q 928 4138 513 4856 
z
" transform="scale(0.015625)"/>
      </defs>
      <use xlink:href="#DejaVuSans-55"/>
      <use xlink:href="#DejaVuSans-6e" x="73.193359"/>
      <use xlink:href="#DejaVuSans-65" x="136.572266"/>
      <use xlink:href="#DejaVuSans-6d" x="198.095703"/>
      <use xlink:href="#DejaVuSans-70" x="295.507812"/>
      <use xlink:href="#DejaVuSans-6c" x="358.984375"/>
      <use xlink:href="#DejaVuSans-6f" x="386.767578"/>
      <use xlink:href="#DejaVuSans-79" x="447.949219"/>
      <use xlink:href="#DejaVuSans-6d" x="507.128906"/>
      <use xlink:href="#DejaVuSans-65" x="604.541016"/>
      <use xlink:href="#DejaVuSans-6e" x="666.064453"/>
      <use xlink:href="#DejaVuSans-74" x="729.443359"/>
      <use xlink:href="#DejaVuSans-20" x="768.652344"/>
      <use xlink:href="#DejaVuSans-52" x="800.439453"/>
      <use xlink:href="#DejaVuSans-61" x="867.671875"/>
      <use xlink:href="#DejaVuSans-74" x="928.951172"/>
      <use xlink:href="#DejaVuSans-65" x="968.160156"/>
      <use xlink:href="#DejaVuSans-20" x="1029.683594"/>
      <use xlink:href="#DejaVuSans-28" x="1061.470703"/>
      <use xlink:href="#DejaVuSans-70" x="1100.484375"/>
      <use xlink:href="#DejaVuSans-65" x="1163.960938"/>
      <use xlink:href="#DejaVuSans-72" x="1225.484375"/>
      <use xlink:href="#DejaVuSans-20" x="1266.597656"/>
      <use xlink:href="#DejaVuSans-31" x="1298.384766"/>
      <use xlink:href="#DejaVuSans-30" x="1362.007812"/>
      <use xlink:href="#DejaVuSans-30" x="1425.630859"/>
      <use xlink:href="#DejaVuSans-30" x="1489.253906"/>
      <use xlink:href="#DejaVuSans-20" x="1552.876953"/>
      <use xlink:href="#DejaVuSans-63" x="1584.664062"/>
      <use xlink:href="#DejaVuSans-69" x="1639.644531"/>
      <use xlink:href="#DejaVuSans-74" x="1667.427734"/>
      <use xlink:href="#DejaVuSans-69" x="1706.636719"/>
      <use xlink:href="#DejaVuSans-7a" x="1734.419922"/>
      <use xlink:href="#DejaVuSans-65" x="1786.910156"/>
      <use xlink:href="#DejaVuSans-6e" x="1848.433594"/>
      <use xlink:href="#DejaVuSans-73" x="1911.8125"/>
      <use xlink:href="#DejaVuSans-29" x="1963.912109"/>
     </g>
    </g>
   </g>
   <g id="matplotlib.axis_2">
    <g id="ytick_1">
     <g id="line2d_5">
      <defs>
       <path id="m9c1821e9d9" d="M 0 0 
L -3.5 0 
" style="stroke: #000000; stroke-width: 0.8"/>
      </defs>
      <g>
       <use xlink:href="#m9c1821e9d9" x="57.17" y="246.04" style="stroke: #000000; stroke-width: 0.8"/>
      </g>
     </g>
     <g id="text_6">
      <!-- 0 -->
      <g transform="translate(43.8075 249.839219)scale(0.1 -0.1)">
       <use xlink:href="#DejaVuSans-30"/>
      </g>
     </g>
    </g>
    <g id="ytick_2">
     <g id="line2d_6">
      <g>
       <use xlink:href="#m9c1821e9d9" x="57.17" y="199.784" style="stroke: #000000; stroke-width: 0.8"/>
      </g>
     </g>
     <g id="text_7">
      <!-- 500 -->
      <g transform="translate(31.0825 203.583219)scale(0.1 -0.1)">
       <use xlink:href="#DejaVuSans-35"/>
       <use xlink:href="#DejaVuSans-30" x="63.623047"/>
       <use xlink:href="#DejaVuSans-30" x="127.246094"/>
      </g>
     </g>
    </g>
    <g id="ytick_3">
     <g id="line2d_7">
      <g>
       <use xlink:href="#m9c1821e9d9" x="57.17" y="153.528" style="stroke: #000000; stroke-width: 0.8"/>
      </g>
     </g>
     <g id="text_8">
      <!-- 1000 -->
      <g transform="translate(24.72 157.327219)scale(0.1 -0.1)">
       <use xlink:href="#DejaVuSans-31"/>
       <use xlink:href="#DejaVuSans-30" x="63.623047"/>
       <use xlink:href="#DejaVuSans-30" x="127.246094"/>
       <use xlink:href="#DejaVuSans-30" x="190.869141"/>
      </g>
     </g>
    </g>
    <g id="ytick_4">
     <g id="line2d_8">
      <g>
       <use xlink:href="#m9c1821e9d9" x="57.17" y="107.272" style="stroke: #000000; stroke-width: 0.8"/>
      </g>
     </g>
     <g id="text_9">
      <!-- 1500 -->
      <g transform="translate(24.72 111.071219)scale(0.1 -0.1)">
       <use xlink:href="#DejaVuSans-31"/>
       <use xlink:href="#DejaVuSans-35" x="63.623047"/>
       <use xlink:href="#DejaVuSans-30" x="127.246094"/>
       <use xlink:href="#DejaVuSans-30" x="190.869141"/>
      </g>
     </g>
    </g>
    <g id="ytick_5">
     <g id="line2d_9">
      <g>
       <use xlink:href="#m9c1821e9d9" x="57.17" y="61.016" style="stroke: #000000; stroke-width: 0.8"/>
      </g>
     </g>
     <g id="text_10">
      <!-- 2000 -->
      <g transform="translate(24.72 64.815219)scale(0.1 -0.1)">
       <use xlink:href="#DejaVuSans-32"/>
       <use xlink:href="#DejaVuSans-30" x="63.623047"/>
       <use xlink:href="#DejaVuSans-30" x="127.246094"/>
       <use xlink:href="#DejaVuSans-30" x="190.869141"/>
      </g>
     </g>
    </g>
    <g id="ytick_6">
     <g id="line2d_10">
      <g>
       <use xlink:href="#m9c1821e9d9" x="57.17" y="14.76" style="stroke: #000000; stroke-width: 0.8"/>
      </g>
     </g>
     <g id="text_11">
      <!-- 2500 -->
      <g transform="translate(24.72 18.559219)scale(0.1 -0.1)">
       <use xlink:href="#DejaVuSans-32"/>
       <use xlink:href="#DejaVuSans-35" x="63.623047"/>
       <use xlink:href="#DejaVuSans-30" x="127.246094"/>
       <use xlink:href="#DejaVuSans-30" x="190.869141"/>
      </g>
     </g>
    </g>
    <g id="text_12">
     <!-- Number of Robberies -->
     <g transform="translate(18.640312 183.342969)rotate(-90)scale(0.1 -0.1)">
      <defs>
       <path id="DejaVuSans-4e" d="M 628 4666 
L 1478 4666 
L 3547 763 
L 3547 4666 
L 4159 4666 
L 4159 0 
L 3309 0 
L 1241 3903 
L 1241 0 
L 628 0 
L 628 4666 
z
" transform="scale(0.015625)"/>
       <path id="DejaVuSans-75" d="M 544 1381 
L 544 3500 
L 1119 3500 
L 1119 1403 
Q 1119 906 1312 657 
Q 1506 409 1894 409 
Q 2359 409 2629 706 
Q 2900 1003 2900 1516 
L 2900 3500 
L 3475 3500 
L 3475 0 
L 2900 0 
L 2900 538 
Q 2691 219 2414 64 
Q 2138 -91 1772 -91 
Q 1169 -91 856 284 
Q 544 659 544 1381 
z
M 1991 3584 
L 1991 3584 
z
" transform="scale(0.015625)"/>
       <path id="DejaVuSans-62" d="M 3116 1747 
Q 3116 2381 2855 2742 
Q 2594 3103 2138 3103 
Q 1681 3103 1420 2742 
Q 1159 2381 1159 1747 
Q 1159 1113 1420 752 
Q 1681 391 2138 391 
Q 2594 391 2855 752 
Q 3116 1113 3116 1747 
z
M 1159 2969 
Q 1341 3281 1617 3432 
Q 1894 3584 2278 3584 
Q 2916 3584 3314 3078 
Q 3713 2572 3713 1747 
Q 3713 922 3314 415 
Q 2916 -91 2278 -91 
Q 1894 -91 1617 61 
Q 1341 213 1159 525 
L 1159 0 
L 581 0 
L 581 4863 
L 1159 4863 
L 1159 2969 
z
" transform="scale(0.015625)"/>
       <path id="DejaVuSans-66" d="M 2375 4863 
L 2375 4384 
L 1825 4384 
Q 1516 4384 1395 4259 
Q 1275 4134 1275 3809 
L 1275 3500 
L 2222 3500 
L 2222 3053 
L 1275 3053 
L 1275 0 
L 697 0 
L 697 3053 
L 147 3053 
L 147 3500 
L 697 3500 
L 697 3744 
Q 697 4328 969 4595 
Q 1241 4863 1831 4863 
L 2375 4863 
z
" transform="scale(0.015625)"/>
      </defs>
      <use xlink:href="#DejaVuSans-4e"/>
      <use xlink:href="#DejaVuSans-75" x="74.804688"/>
      <use xlink:href="#DejaVuSans-6d" x="138.183594"/>
      <use xlink:href="#DejaVuSans-62" x="235.595703"/>
      <use xlink:href="#DejaVuSans-65" x="299.072266"/>
      <use xlink:href="#DejaVuSans-72" x="360.595703"/>
      <use xlink:href="#DejaVuSans-20" x="401.708984"/>
      <use xlink:href="#DejaVuSans-6f" x="433.496094"/>
      <use xlink:href="#DejaVuSans-66" x="494.677734"/>
      <use xlink:href="#DejaVuSans-20" x="529.882812"/>
      <use xlink:href="#DejaVuSans-52" x="561.669922"/>
      <use xlink:href="#DejaVuSans-6f" x="626.652344"/>
      <use xlink:href="#DejaVuSans-62" x="687.833984"/>
      <use xlink:href="#DejaVuSans-62" x="751.310547"/>
      <use xlink:href="#DejaVuSans-65" x="814.787109"/>
      <use xlink:href="#DejaVuSans-72" x="876.310547"/>
      <use xlink:href="#DejaVuSans-69" x="917.423828"/>
      <use xlink:href="#DejaVuSans-65" x="945.207031"/>
      <use xlink:href="#DejaVuSans-73" x="1006.730469"/>
     </g>
    </g>
   </g>
   <g id="line2d_11">
    <path d="M 57.17 260.171666 
L 63.129796 260.199698 
L 69.089592 260.227731 
L 75.049388 260.255763 
L 81.009184 260.283795 
L 86.96898 260.311828 
L 92.928776 260.33986 
L 98.888571 260.367893 
L 104.848367 260.395925 
L 110.808163 260.423958 
L 116.767959 260.45199 
L 122.727755 260.480023 
L 128.687551 260.508055 
L 134.647347 260.536088 
L 140.607143 260.56412 
L 146.566939 260.592152 
L 152.526735 260.620185 
L 158.486531 260.648217 
L 164.446327 260.67625 
L 170.406122 260.704282 
L 176.365918 260.732315 
L 182.325714 260.760347 
L 188.28551 260.78838 
L 194.245306 260.816412 
L 200.205102 260.844444 
L 206.164898 260.872477 
L 212.124694 260.900509 
L 218.08449 260.928542 
L 224.044286 260.956574 
L 230.004082 260.984607 
L 235.963878 261.012639 
L 241.923673 261.040672 
L 247.883469 261.068704 
L 253.843265 261.096737 
L 259.803061 261.124769 
L 265.762857 261.152801 
L 271.722653 261.180834 
L 277.682449 261.208866 
L 283.642245 261.236899 
L 289.602041 261.264931 
L 295.561837 261.292964 
L 301.521633 261.320996 
L 307.481429 261.349029 
L 313.441224 261.377061 
L 319.40102 261.405094 
L 325.360816 261.433126 
L 331.320612 261.461158 
L 337.280408 261.489191 
L 343.240204 261.517223 
L 349.2 261.545256 
" clip-path="url(#pccc894cba4)" style="fill: none; stroke: #d70000; stroke-width: 1.5; stroke-linecap: square"/>
   </g>
   <g id="line2d_12">
    <path d="M 57.17 207.203147 
L 63.129796 207.005618 
L 69.089592 206.808088 
L 75.049388 206.610558 
L 81.009184 206.413029 
L 86.96898 206.215499 
L 92.928776 206.01797 
L 98.888571 205.82044 
L 104.848367 205.622911 
L 110.808163 205.425381 
L 116.767959 205.227852 
L 122.727755 205.030322 
L 128.687551 204.832792 
L 134.647347 204.635263 
L 140.607143 204.437733 
L 146.566939 204.240204 
L 152.526735 204.042674 
L 158.486531 203.845145 
L 164.446327 203.647615 
L 170.406122 203.450086 
L 176.365918 203.252556 
L 182.325714 203.055026 
L 188.28551 202.857497 
L 194.245306 202.659967 
L 200.205102 202.462438 
L 206.164898 202.264908 
L 212.124694 202.067379 
L 218.08449 201.869849 
L 224.044286 201.67232 
L 230.004082 201.47479 
L 235.963878 201.27726 
L 241.923673 201.079731 
L 247.883469 200.882201 
L 253.843265 200.684672 
L 259.803061 200.487142 
L 265.762857 200.289613 
L 271.722653 200.092083 
L 277.682449 199.894554 
L 283.642245 199.697024 
L 289.602041 199.499495 
L 295.561837 199.301965 
L 301.521633 199.104435 
L 307.481429 198.906906 
L 313.441224 198.709376 
L 319.40102 198.511847 
L 325.360816 198.314317 
L 331.320612 198.116788 
L 337.280408 197.919258 
L 343.240204 197.721729 
L 349.2 197.524199 
" clip-path="url(#pccc894cba4)" style="fill: none; stroke: #8c3cff; stroke-width: 1.5; stroke-linecap: square"/>
   </g>
   <g id="line2d_13">
    <path d="M 57.17 222.372879 
L 63.129796 222.300319 
L 69.089592 222.227759 
L 75.049388 222.155199 
L 81.009184 222.082639 
L 86.96898 222.010079 
L 92.928776 221.937519 
L 98.888571 221.864959 
L 104.848367 221.792399 
L 110.808163 221.719839 
L 116.767959 221.647279 
L 122.727755 221.574719 
L 128.687551 221.502159 
L 134.647347 221.429599 
L 140.607143 221.357039 
L 146.566939 221.284479 
L 152.526735 221.211919 
L 158.486531 221.139359 
L 164.446327 221.066799 
L 170.406122 220.994239 
L 176.365918 220.921679 
L 182.325714 220.849119 
L 188.28551 220.776559 
L 194.245306 220.703999 
L 200.205102 220.631439 
L 206.164898 220.558879 
L 212.124694 220.486319 
L 218.08449 220.413759 
L 224.044286 220.341199 
L 230.004082 220.26864 
L 235.963878 220.19608 
L 241.923673 220.12352 
L 247.883469 220.05096 
L 253.843265 219.9784 
L 259.803061 219.90584 
L 265.762857 219.83328 
L 271.722653 219.76072 
L 277.682449 219.68816 
L 283.642245 219.6156 
L 289.602041 219.54304 
L 295.561837 219.47048 
L 301.521633 219.39792 
L 307.481429 219.32536 
L 313.441224 219.2528 
L 319.40102 219.18024 
L 325.360816 219.10768 
L 331.320612 219.03512 
L 337.280408 218.96256 
L 343.240204 218.89 
L 349.2 218.81744 
" clip-path="url(#pccc894cba4)" style="fill: none; stroke: #028800; stroke-width: 1.5; stroke-linecap: square"/>
   </g>
   <g id="line2d_14">
    <path d="M 57.17 235.811084 
L 63.129796 235.760724 
L 69.089592 235.710365 
L 75.049388 235.660006 
L 81.009184 235.609647 
L 86.96898 235.559288 
L 92.928776 235.508928 
L 98.888571 235.458569 
L 104.848367 235.40821 
L 110.808163 235.357851 
L 116.767959 235.307492 
L 122.727755 235.257132 
L 128.687551 235.206773 
L 134.647347 235.156414 
L 140.607143 235.106055 
L 146.566939 235.055696 
L 152.526735 235.005336 
L 158.486531 234.954977 
L 164.446327 234.904618 
L 170.406122 234.854259 
L 176.365918 234.8039 
L 182.325714 234.75354 
L 188.28551 234.703181 
L 194.245306 234.652822 
L 200.205102 234.602463 
L 206.164898 234.552104 
L 212.124694 234.501744 
L 218.08449 234.451385 
L 224.044286 234.401026 
L 230.004082 234.350667 
L 235.963878 234.300308 
L 241.923673 234.249948 
L 247.883469 234.199589 
L 253.843265 234.14923 
L 259.803061 234.098871 
L 265.762857 234.048512 
L 271.722653 233.998152 
L 277.682449 233.947793 
L 283.642245 233.897434 
L 289.602041 233.847075 
L 295.561837 233.796716 
L 301.521633 233.746356 
L 307.481429 233.695997 
L 313.441224 233.645638 
L 319.40102 233.595279 
L 325.360816 233.54492 
L 331.320612 233.49456 
L 337.280408 233.444201 
L 343.240204 233.393842 
L 349.2 233.343483 
" clip-path="url(#pccc894cba4)" style="fill: none; stroke: #00acc7; stroke-width: 1.5; stroke-linecap: square"/>
   </g>
   <g id="line2d_15">
    <path d="M 57.17 235.139913 
L 63.129796 235.086505 
L 69.089592 235.033096 
L 75.049388 234.979688 
L 81.009184 234.926279 
L 86.96898 234.872871 
L 92.928776 234.819462 
L 98.888571 234.766053 
L 104.848367 234.712645 
L 110.808163 234.659236 
L 116.767959 234.605828 
L 122.727755 234.552419 
L 128.687551 234.499011 
L 134.647347 234.445602 
L 140.607143 234.392194 
L 146.566939 234.338785 
L 152.526735 234.285377 
L 158.486531 234.231968 
L 164.446327 234.178559 
L 170.406122 234.125151 
L 176.365918 234.071742 
L 182.325714 234.018334 
L 188.28551 233.964925 
L 194.245306 233.911517 
L 200.205102 233.858108 
L 206.164898 233.8047 
L 212.124694 233.751291 
L 218.08449 233.697883 
L 224.044286 233.644474 
L 230.004082 233.591066 
L 235.963878 233.537657 
L 241.923673 233.484248 
L 247.883469 233.43084 
L 253.843265 233.377431 
L 259.803061 233.324023 
L 265.762857 233.270614 
L 271.722653 233.217206 
L 277.682449 233.163797 
L 283.642245 233.110389 
L 289.602041 233.05698 
L 295.561837 233.003572 
L 301.521633 232.950163 
L 307.481429 232.896754 
L 313.441224 232.843346 
L 319.40102 232.789937 
L 325.360816 232.736529 
L 331.320612 232.68312 
L 337.280408 232.629712 
L 343.240204 232.576303 
L 349.2 232.522895 
" clip-path="url(#pccc894cba4)" style="fill: none; stroke: #98ff00; stroke-width: 1.5; stroke-linecap: square"/>
   </g>
   <g id="line2d_16">
    <path d="M 57.17 205.509593 
L 63.129796 204.77672 
L 69.089592 204.043847 
L 75.049388 203.310975 
L 81.009184 202.578102 
L 86.96898 201.84523 
L 92.928776 201.112357 
L 98.888571 200.379485 
L 104.848367 199.646612 
L 110.808163 198.913739 
L 116.767959 198.180867 
L 122.727755 197.447994 
L 128.687551 196.715122 
L 134.647347 195.982249 
L 140.607143 195.249377 
L 146.566939 194.516504 
L 152.526735 193.783631 
L 158.486531 193.050759 
L 164.446327 192.317886 
L 170.406122 191.585014 
L 176.365918 190.852141 
L 182.325714 190.119269 
L 188.28551 189.386396 
L 194.245306 188.653523 
L 200.205102 187.920651 
L 206.164898 187.187778 
L 212.124694 186.454906 
L 218.08449 185.722033 
L 224.044286 184.989161 
L 230.004082 184.256288 
L 235.963878 183.523416 
L 241.923673 182.790543 
L 247.883469 182.05767 
L 253.843265 181.324798 
L 259.803061 180.591925 
L 265.762857 179.859053 
L 271.722653 179.12618 
L 277.682449 178.393308 
L 283.642245 177.660435 
L 289.602041 176.927562 
L 295.561837 176.19469 
L 301.521633 175.461817 
L 307.481429 174.728945 
L 313.441224 173.996072 
L 319.40102 173.2632 
L 325.360816 172.530327 
L 331.320612 171.797454 
L 337.280408 171.064582 
L 343.240204 170.331709 
L 349.2 169.598837 
" clip-path="url(#pccc894cba4)" style="fill: none; stroke: #ff7fd1; stroke-width: 1.5; stroke-linecap: square"/>
   </g>
   <g id="line2d_17">
    <path d="M 57.17 220.893161 
L 63.129796 220.825062 
L 69.089592 220.756963 
L 75.049388 220.688865 
L 81.009184 220.620766 
L 86.96898 220.552667 
L 92.928776 220.484568 
L 98.888571 220.41647 
L 104.848367 220.348371 
L 110.808163 220.280272 
L 116.767959 220.212173 
L 122.727755 220.144075 
L 128.687551 220.075976 
L 134.647347 220.007877 
L 140.607143 219.939779 
L 146.566939 219.87168 
L 152.526735 219.803581 
L 158.486531 219.735482 
L 164.446327 219.667384 
L 170.406122 219.599285 
L 176.365918 219.531186 
L 182.325714 219.463087 
L 188.28551 219.394989 
L 194.245306 219.32689 
L 200.205102 219.258791 
L 206.164898 219.190693 
L 212.124694 219.122594 
L 218.08449 219.054495 
L 224.044286 218.986396 
L 230.004082 218.918298 
L 235.963878 218.850199 
L 241.923673 218.7821 
L 247.883469 218.714001 
L 253.843265 218.645903 
L 259.803061 218.577804 
L 265.762857 218.509705 
L 271.722653 218.441607 
L 277.682449 218.373508 
L 283.642245 218.305409 
L 289.602041 218.23731 
L 295.561837 218.169212 
L 301.521633 218.101113 
L 307.481429 218.033014 
L 313.441224 217.964915 
L 319.40102 217.896817 
L 325.360816 217.828718 
L 331.320612 217.760619 
L 337.280408 217.692521 
L 343.240204 217.624422 
L 349.2 217.556323 
" clip-path="url(#pccc894cba4)" style="fill: none; stroke: #6c004f; stroke-width: 1.5; stroke-linecap: square"/>
   </g>
   <g id="line2d_18">
    <path d="M 57.17 222.157858 
L 63.129796 222.031783 
L 69.089592 221.905708 
L 75.049388 221.779632 
L 81.009184 221.653557 
L 86.96898 221.527482 
L 92.928776 221.401407 
L 98.888571 221.275332 
L 104.848367 221.149257 
L 110.808163 221.023182 
L 116.767959 220.897107 
L 122.727755 220.771032 
L 128.687551 220.644957 
L 134.647347 220.518882 
L 140.607143 220.392807 
L 146.566939 220.266732 
L 152.526735 220.140657 
L 158.486531 220.014582 
L 164.446327 219.888507 
L 170.406122 219.762432 
L 176.365918 219.636357 
L 182.325714 219.510282 
L 188.28551 219.384207 
L 194.245306 219.258132 
L 200.205102 219.132057 
L 206.164898 219.005982 
L 212.124694 218.879907 
L 218.08449 218.753832 
L 224.044286 218.627756 
L 230.004082 218.501681 
L 235.963878 218.375606 
L 241.923673 218.249531 
L 247.883469 218.123456 
L 253.843265 217.997381 
L 259.803061 217.871306 
L 265.762857 217.745231 
L 271.722653 217.619156 
L 277.682449 217.493081 
L 283.642245 217.367006 
L 289.602041 217.240931 
L 295.561837 217.114856 
L 301.521633 216.988781 
L 307.481429 216.862706 
L 313.441224 216.736631 
L 319.40102 216.610556 
L 325.360816 216.484481 
L 331.320612 216.358406 
L 337.280408 216.232331 
L 343.240204 216.106256 
L 349.2 215.980181 
" clip-path="url(#pccc894cba4)" style="fill: none; stroke: #583b00; stroke-width: 1.5; stroke-linecap: square"/>
   </g>
   <g id="line2d_19">
    <path d="M 57.17 196.078765 
L 63.129796 195.423801 
L 69.089592 194.768838 
L 75.049388 194.113874 
L 81.009184 193.458911 
L 86.96898 192.803947 
L 92.928776 192.148983 
L 98.888571 191.49402 
L 104.848367 190.839056 
L 110.808163 190.184093 
L 116.767959 189.529129 
L 122.727755 188.874166 
L 128.687551 188.219202 
L 134.647347 187.564239 
L 140.607143 186.909275 
L 146.566939 186.254312 
L 152.526735 185.599348 
L 158.486531 184.944384 
L 164.446327 184.289421 
L 170.406122 183.634457 
L 176.365918 182.979494 
L 182.325714 182.32453 
L 188.28551 181.669567 
L 194.245306 181.014603 
L 200.205102 180.35964 
L 206.164898 179.704676 
L 212.124694 179.049713 
L 218.08449 178.394749 
L 224.044286 177.739785 
L 230.004082 177.084822 
L 235.963878 176.429858 
L 241.923673 175.774895 
L 247.883469 175.119931 
L 253.843265 174.464968 
L 259.803061 173.810004 
L 265.762857 173.155041 
L 271.722653 172.500077 
L 277.682449 171.845114 
L 283.642245 171.19015 
L 289.602041 170.535186 
L 295.561837 169.880223 
L 301.521633 169.225259 
L 307.481429 168.570296 
L 313.441224 167.915332 
L 319.40102 167.260369 
L 325.360816 166.605405 
L 331.320612 165.950442 
L 337.280408 165.295478 
L 343.240204 164.640515 
L 349.2 163.985551 
" clip-path="url(#pccc894cba4)" style="fill: none; stroke: #005759; stroke-width: 1.5; stroke-linecap: square"/>
   </g>
   <g id="line2d_20">
    <path d="M 57.17 218.803872 
L 63.129796 218.666663 
L 69.089592 218.529453 
L 75.049388 218.392244 
L 81.009184 218.255034 
L 86.96898 218.117825 
L 92.928776 217.980615 
L 98.888571 217.843406 
L 104.848367 217.706197 
L 110.808163 217.568987 
L 116.767959 217.431778 
L 122.727755 217.294568 
L 128.687551 217.157359 
L 134.647347 217.020149 
L 140.607143 216.88294 
L 146.566939 216.74573 
L 152.526735 216.608521 
L 158.486531 216.471312 
L 164.446327 216.334102 
L 170.406122 216.196893 
L 176.365918 216.059683 
L 182.325714 215.922474 
L 188.28551 215.785264 
L 194.245306 215.648055 
L 200.205102 215.510846 
L 206.164898 215.373636 
L 212.124694 215.236427 
L 218.08449 215.099217 
L 224.044286 214.962008 
L 230.004082 214.824798 
L 235.963878 214.687589 
L 241.923673 214.550379 
L 247.883469 214.41317 
L 253.843265 214.275961 
L 259.803061 214.138751 
L 265.762857 214.001542 
L 271.722653 213.864332 
L 277.682449 213.727123 
L 283.642245 213.589913 
L 289.602041 213.452704 
L 295.561837 213.315495 
L 301.521633 213.178285 
L 307.481429 213.041076 
L 313.441224 212.903866 
L 319.40102 212.766657 
L 325.360816 212.629447 
L 331.320612 212.492238 
L 337.280408 212.355029 
L 343.240204 212.217819 
L 349.2 212.08061 
" clip-path="url(#pccc894cba4)" style="fill: none; stroke: #0000dd; stroke-width: 1.5; stroke-linecap: square"/>
   </g>
   <g id="line2d_21">
    <path d="M 57.17 234.744419 
L 63.129796 234.712007 
L 69.089592 234.679595 
L 75.049388 234.647182 
L 81.009184 234.61477 
L 86.96898 234.582358 
L 92.928776 234.549946 
L 98.888571 234.517534 
L 104.848367 234.485122 
L 110.808163 234.452709 
L 116.767959 234.420297 
L 122.727755 234.387885 
L 128.687551 234.355473 
L 134.647347 234.323061 
L 140.607143 234.290649 
L 146.566939 234.258236 
L 152.526735 234.225824 
L 158.486531 234.193412 
L 164.446327 234.161 
L 170.406122 234.128588 
L 176.365918 234.096176 
L 182.325714 234.063763 
L 188.28551 234.031351 
L 194.245306 233.998939 
L 200.205102 233.966527 
L 206.164898 233.934115 
L 212.124694 233.901703 
L 218.08449 233.86929 
L 224.044286 233.836878 
L 230.004082 233.804466 
L 235.963878 233.772054 
L 241.923673 233.739642 
L 247.883469 233.70723 
L 253.843265 233.674817 
L 259.803061 233.642405 
L 265.762857 233.609993 
L 271.722653 233.577581 
L 277.682449 233.545169 
L 283.642245 233.512757 
L 289.602041 233.480344 
L 295.561837 233.447932 
L 301.521633 233.41552 
L 307.481429 233.383108 
L 313.441224 233.350696 
L 319.40102 233.318284 
L 325.360816 233.285871 
L 331.320612 233.253459 
L 337.280408 233.221047 
L 343.240204 233.188635 
L 349.2 233.156223 
" clip-path="url(#pccc894cba4)" style="fill: none; stroke: #a1756a; stroke-width: 1.5; stroke-linecap: square"/>
   </g>
   <g id="line2d_22">
    <path d="M 57.17 230.604464 
L 63.129796 230.566092 
L 69.089592 230.527719 
L 75.049388 230.489347 
L 81.009184 230.450974 
L 86.96898 230.412602 
L 92.928776 230.37423 
L 98.888571 230.335857 
L 104.848367 230.297485 
L 110.808163 230.259113 
L 116.767959 230.22074 
L 122.727755 230.182368 
L 128.687551 230.143996 
L 134.647347 230.105623 
L 140.607143 230.067251 
L 146.566939 230.028878 
L 152.526735 229.990506 
L 158.486531 229.952134 
L 164.446327 229.913761 
L 170.406122 229.875389 
L 176.365918 229.837017 
L 182.325714 229.798644 
L 188.28551 229.760272 
L 194.245306 229.7219 
L 200.205102 229.683527 
L 206.164898 229.645155 
L 212.124694 229.606782 
L 218.08449 229.56841 
L 224.044286 229.530038 
L 230.004082 229.491665 
L 235.963878 229.453293 
L 241.923673 229.414921 
L 247.883469 229.376548 
L 253.843265 229.338176 
L 259.803061 229.299804 
L 265.762857 229.261431 
L 271.722653 229.223059 
L 277.682449 229.184686 
L 283.642245 229.146314 
L 289.602041 229.107942 
L 295.561837 229.069569 
L 301.521633 229.031197 
L 307.481429 228.992825 
L 313.441224 228.954452 
L 319.40102 228.91608 
L 325.360816 228.877708 
L 331.320612 228.839335 
L 337.280408 228.800963 
L 343.240204 228.76259 
L 349.2 228.724218 
" clip-path="url(#pccc894cba4)" style="fill: none; stroke: #bcb7ff; stroke-width: 1.5; stroke-linecap: square"/>
   </g>
   <g id="line2d_23">
    <path d="M 57.17 202.112384 
L 63.129796 201.707994 
L 69.089592 201.303605 
L 75.049388 200.899215 
L 81.009184 200.494825 
L 86.96898 200.090435 
L 92.928776 199.686045 
L 98.888571 199.281655 
L 104.848367 198.877265 
L 110.808163 198.472875 
L 116.767959 198.068485 
L 122.727755 197.664096 
L 128.687551 197.259706 
L 134.647347 196.855316 
L 140.607143 196.450926 
L 146.566939 196.046536 
L 152.526735 195.642146 
L 158.486531 195.237756 
L 164.446327 194.833366 
L 170.406122 194.428976 
L 176.365918 194.024587 
L 182.325714 193.620197 
L 188.28551 193.215807 
L 194.245306 192.811417 
L 200.205102 192.407027 
L 206.164898 192.002637 
L 212.124694 191.598247 
L 218.08449 191.193857 
L 224.044286 190.789467 
L 230.004082 190.385078 
L 235.963878 189.980688 
L 241.923673 189.576298 
L 247.883469 189.171908 
L 253.843265 188.767518 
L 259.803061 188.363128 
L 265.762857 187.958738 
L 271.722653 187.554348 
L 277.682449 187.149958 
L 283.642245 186.745569 
L 289.602041 186.341179 
L 295.561837 185.936789 
L 301.521633 185.532399 
L 307.481429 185.128009 
L 313.441224 184.723619 
L 319.40102 184.319229 
L 325.360816 183.914839 
L 331.320612 183.510449 
L 337.280408 183.10606 
L 343.240204 182.70167 
L 349.2 182.29728 
" clip-path="url(#pccc894cba4)" style="fill: none; stroke: #95b578; stroke-width: 1.5; stroke-linecap: square"/>
   </g>
   <g id="line2d_24">
    <path d="M 57.17 215.004027 
L 63.129796 214.839455 
L 69.089592 214.674883 
L 75.049388 214.510312 
L 81.009184 214.34574 
L 86.96898 214.181169 
L 92.928776 214.016597 
L 98.888571 213.852025 
L 104.848367 213.687454 
L 110.808163 213.522882 
L 116.767959 213.358311 
L 122.727755 213.193739 
L 128.687551 213.029167 
L 134.647347 212.864596 
L 140.607143 212.700024 
L 146.566939 212.535453 
L 152.526735 212.370881 
L 158.486531 212.206309 
L 164.446327 212.041738 
L 170.406122 211.877166 
L 176.365918 211.712595 
L 182.325714 211.548023 
L 188.28551 211.383451 
L 194.245306 211.21888 
L 200.205102 211.054308 
L 206.164898 210.889737 
L 212.124694 210.725165 
L 218.08449 210.560593 
L 224.044286 210.396022 
L 230.004082 210.23145 
L 235.963878 210.066879 
L 241.923673 209.902307 
L 247.883469 209.737735 
L 253.843265 209.573164 
L 259.803061 209.408592 
L 265.762857 209.244021 
L 271.722653 209.079449 
L 277.682449 208.914877 
L 283.642245 208.750306 
L 289.602041 208.585734 
L 295.561837 208.421163 
L 301.521633 208.256591 
L 307.481429 208.092019 
L 313.441224 207.927448 
L 319.40102 207.762876 
L 325.360816 207.598305 
L 331.320612 207.433733 
L 337.280408 207.269161 
L 343.240204 207.10459 
L 349.2 206.940018 
" clip-path="url(#pccc894cba4)" style="fill: none; stroke: #c004b9; stroke-width: 1.5; stroke-linecap: square"/>
   </g>
   <g id="line2d_25">
    <path d="M 57.17 222.165605 
L 63.129796 221.999 
L 69.089592 221.832395 
L 75.049388 221.66579 
L 81.009184 221.499185 
L 86.96898 221.33258 
L 92.928776 221.165976 
L 98.888571 220.999371 
L 104.848367 220.832766 
L 110.808163 220.666161 
L 116.767959 220.499556 
L 122.727755 220.332951 
L 128.687551 220.166346 
L 134.647347 219.999741 
L 140.607143 219.833136 
L 146.566939 219.666532 
L 152.526735 219.499927 
L 158.486531 219.333322 
L 164.446327 219.166717 
L 170.406122 219.000112 
L 176.365918 218.833507 
L 182.325714 218.666902 
L 188.28551 218.500297 
L 194.245306 218.333693 
L 200.205102 218.167088 
L 206.164898 218.000483 
L 212.124694 217.833878 
L 218.08449 217.667273 
L 224.044286 217.500668 
L 230.004082 217.334063 
L 235.963878 217.167458 
L 241.923673 217.000854 
L 247.883469 216.834249 
L 253.843265 216.667644 
L 259.803061 216.501039 
L 265.762857 216.334434 
L 271.722653 216.167829 
L 277.682449 216.001224 
L 283.642245 215.834619 
L 289.602041 215.668014 
L 295.561837 215.50141 
L 301.521633 215.334805 
L 307.481429 215.1682 
L 313.441224 215.001595 
L 319.40102 214.83499 
L 325.360816 214.668385 
L 331.320612 214.50178 
L 337.280408 214.335175 
L 343.240204 214.168571 
L 349.2 214.001966 
" clip-path="url(#pccc894cba4)" style="fill: none; stroke: #790000; stroke-width: 1.5; stroke-linecap: square"/>
   </g>
   <g id="line2d_26">
    <path d="M 57.17 226.449474 
L 63.129796 226.381863 
L 69.089592 226.314253 
L 75.049388 226.246642 
L 81.009184 226.179032 
L 86.96898 226.111421 
L 92.928776 226.043811 
L 98.888571 225.9762 
L 104.848367 225.90859 
L 110.808163 225.840979 
L 116.767959 225.773369 
L 122.727755 225.705758 
L 128.687551 225.638147 
L 134.647347 225.570537 
L 140.607143 225.502926 
L 146.566939 225.435316 
L 152.526735 225.367705 
L 158.486531 225.300095 
L 164.446327 225.232484 
L 170.406122 225.164874 
L 176.365918 225.097263 
L 182.325714 225.029653 
L 188.28551 224.962042 
L 194.245306 224.894432 
L 200.205102 224.826821 
L 206.164898 224.75921 
L 212.124694 224.6916 
L 218.08449 224.623989 
L 224.044286 224.556379 
L 230.004082 224.488768 
L 235.963878 224.421158 
L 241.923673 224.353547 
L 247.883469 224.285937 
L 253.843265 224.218326 
L 259.803061 224.150716 
L 265.762857 224.083105 
L 271.722653 224.015494 
L 277.682449 223.947884 
L 283.642245 223.880273 
L 289.602041 223.812663 
L 295.561837 223.745052 
L 301.521633 223.677442 
L 307.481429 223.609831 
L 313.441224 223.542221 
L 319.40102 223.47461 
L 325.360816 223.407 
L 331.320612 223.339389 
L 337.280408 223.271778 
L 343.240204 223.204168 
L 349.2 223.136557 
" clip-path="url(#pccc894cba4)" style="fill: none; stroke: #0774d8; stroke-width: 1.5; stroke-linecap: square"/>
   </g>
   <g id="line2d_27">
    <path d="M 57.17 213.11813 
L 63.129796 212.67117 
L 69.089592 212.224211 
L 75.049388 211.777252 
L 81.009184 211.330293 
L 86.96898 210.883334 
L 92.928776 210.436375 
L 98.888571 209.989416 
L 104.848367 209.542456 
L 110.808163 209.095497 
L 116.767959 208.648538 
L 122.727755 208.201579 
L 128.687551 207.75462 
L 134.647347 207.307661 
L 140.607143 206.860701 
L 146.566939 206.413742 
L 152.526735 205.966783 
L 158.486531 205.519824 
L 164.446327 205.072865 
L 170.406122 204.625906 
L 176.365918 204.178947 
L 182.325714 203.731987 
L 188.28551 203.285028 
L 194.245306 202.838069 
L 200.205102 202.39111 
L 206.164898 201.944151 
L 212.124694 201.497192 
L 218.08449 201.050232 
L 224.044286 200.603273 
L 230.004082 200.156314 
L 235.963878 199.709355 
L 241.923673 199.262396 
L 247.883469 198.815437 
L 253.843265 198.368478 
L 259.803061 197.921518 
L 265.762857 197.474559 
L 271.722653 197.0276 
L 277.682449 196.580641 
L 283.642245 196.133682 
L 289.602041 195.686723 
L 295.561837 195.239763 
L 301.521633 194.792804 
L 307.481429 194.345845 
L 313.441224 193.898886 
L 319.40102 193.451927 
L 325.360816 193.004968 
L 331.320612 192.558008 
L 337.280408 192.111049 
L 343.240204 191.66409 
L 349.2 191.217131 
" clip-path="url(#pccc894cba4)" style="fill: none; stroke: #fef590; stroke-width: 1.5; stroke-linecap: square"/>
   </g>
   <g id="line2d_28">
    <path d="M 57.17 194.13343 
L 63.129796 193.804164 
L 69.089592 193.474897 
L 75.049388 193.14563 
L 81.009184 192.816364 
L 86.96898 192.487097 
L 92.928776 192.157831 
L 98.888571 191.828564 
L 104.848367 191.499298 
L 110.808163 191.170031 
L 116.767959 190.840764 
L 122.727755 190.511498 
L 128.687551 190.182231 
L 134.647347 189.852965 
L 140.607143 189.523698 
L 146.566939 189.194432 
L 152.526735 188.865165 
L 158.486531 188.535898 
L 164.446327 188.206632 
L 170.406122 187.877365 
L 176.365918 187.548099 
L 182.325714 187.218832 
L 188.28551 186.889565 
L 194.245306 186.560299 
L 200.205102 186.231032 
L 206.164898 185.901766 
L 212.124694 185.572499 
L 218.08449 185.243233 
L 224.044286 184.913966 
L 230.004082 184.584699 
L 235.963878 184.255433 
L 241.923673 183.926166 
L 247.883469 183.5969 
L 253.843265 183.267633 
L 259.803061 182.938367 
L 265.762857 182.6091 
L 271.722653 182.279833 
L 277.682449 181.950567 
L 283.642245 181.6213 
L 289.602041 181.292034 
L 295.561837 180.962767 
L 301.521633 180.6335 
L 307.481429 180.304234 
L 313.441224 179.974967 
L 319.40102 179.645701 
L 325.360816 179.316434 
L 331.320612 178.987168 
L 337.280408 178.657901 
L 343.240204 178.328634 
L 349.2 177.999368 
" clip-path="url(#pccc894cba4)" style="fill: none; stroke: #8f7a00; stroke-width: 1.5; stroke-linecap: square"/>
   </g>
   <g id="line2d_29">
    <path d="M 57.17 205.93315 
L 63.129796 205.708815 
L 69.089592 205.48448 
L 75.049388 205.260146 
L 81.009184 205.035811 
L 86.96898 204.811477 
L 92.928776 204.587142 
L 98.888571 204.362808 
L 104.848367 204.138473 
L 110.808163 203.914139 
L 116.767959 203.689804 
L 122.727755 203.46547 
L 128.687551 203.241135 
L 134.647347 203.0168 
L 140.607143 202.792466 
L 146.566939 202.568131 
L 152.526735 202.343797 
L 158.486531 202.119462 
L 164.446327 201.895128 
L 170.406122 201.670793 
L 176.365918 201.446459 
L 182.325714 201.222124 
L 188.28551 200.997789 
L 194.245306 200.773455 
L 200.205102 200.54912 
L 206.164898 200.324786 
L 212.124694 200.100451 
L 218.08449 199.876117 
L 224.044286 199.651782 
L 230.004082 199.427448 
L 235.963878 199.203113 
L 241.923673 198.978779 
L 247.883469 198.754444 
L 253.843265 198.530109 
L 259.803061 198.305775 
L 265.762857 198.08144 
L 271.722653 197.857106 
L 277.682449 197.632771 
L 283.642245 197.408437 
L 289.602041 197.184102 
L 295.561837 196.959768 
L 301.521633 196.735433 
L 307.481429 196.511099 
L 313.441224 196.286764 
L 319.40102 196.062429 
L 325.360816 195.838095 
L 331.320612 195.61376 
L 337.280408 195.389426 
L 343.240204 195.165091 
L 349.2 194.940757 
" clip-path="url(#pccc894cba4)" style="fill: none; stroke: #ff7266; stroke-width: 1.5; stroke-linecap: square"/>
   </g>
   <g id="line2d_30">
    <path d="M 57.17 171.64081 
L 63.129796 171.653584 
L 69.089592 171.666359 
L 75.049388 171.679133 
L 81.009184 171.691908 
L 86.96898 171.704683 
L 92.928776 171.717457 
L 98.888571 171.730232 
L 104.848367 171.743006 
L 110.808163 171.755781 
L 116.767959 171.768555 
L 122.727755 171.78133 
L 128.687551 171.794104 
L 134.647347 171.806879 
L 140.607143 171.819654 
L 146.566939 171.832428 
L 152.526735 171.845203 
L 158.486531 171.857977 
L 164.446327 171.870752 
L 170.406122 171.883526 
L 176.365918 171.896301 
L 182.325714 171.909075 
L 188.28551 171.92185 
L 194.245306 171.934625 
L 200.205102 171.947399 
L 206.164898 171.960174 
L 212.124694 171.972948 
L 218.08449 171.985723 
L 224.044286 171.998497 
L 230.004082 172.011272 
L 235.963878 172.024046 
L 241.923673 172.036821 
L 247.883469 172.049595 
L 253.843265 172.06237 
L 259.803061 172.075145 
L 265.762857 172.087919 
L 271.722653 172.100694 
L 277.682449 172.113468 
L 283.642245 172.126243 
L 289.602041 172.139017 
L 295.561837 172.151792 
L 301.521633 172.164566 
L 307.481429 172.177341 
L 313.441224 172.190116 
L 319.40102 172.20289 
L 325.360816 172.215665 
L 331.320612 172.228439 
L 337.280408 172.241214 
L 343.240204 172.253988 
L 349.2 172.266763 
" clip-path="url(#pccc894cba4)" style="fill: none; stroke: #eeb9b9; stroke-width: 1.5; stroke-linecap: square"/>
   </g>
   <g id="line2d_31">
    <path d="M 57.17 233.938267 
L 63.129796 233.875267 
L 69.089592 233.812267 
L 75.049388 233.749267 
L 81.009184 233.686268 
L 86.96898 233.623268 
L 92.928776 233.560268 
L 98.888571 233.497268 
L 104.848367 233.434269 
L 110.808163 233.371269 
L 116.767959 233.308269 
L 122.727755 233.245269 
L 128.687551 233.182269 
L 134.647347 233.11927 
L 140.607143 233.05627 
L 146.566939 232.99327 
L 152.526735 232.93027 
L 158.486531 232.86727 
L 164.446327 232.804271 
L 170.406122 232.741271 
L 176.365918 232.678271 
L 182.325714 232.615271 
L 188.28551 232.552272 
L 194.245306 232.489272 
L 200.205102 232.426272 
L 206.164898 232.363272 
L 212.124694 232.300272 
L 218.08449 232.237273 
L 224.044286 232.174273 
L 230.004082 232.111273 
L 235.963878 232.048273 
L 241.923673 231.985274 
L 247.883469 231.922274 
L 253.843265 231.859274 
L 259.803061 231.796274 
L 265.762857 231.733274 
L 271.722653 231.670275 
L 277.682449 231.607275 
L 283.642245 231.544275 
L 289.602041 231.481275 
L 295.561837 231.418276 
L 301.521633 231.355276 
L 307.481429 231.292276 
L 313.441224 231.229276 
L 319.40102 231.166276 
L 325.360816 231.103277 
L 331.320612 231.040277 
L 337.280408 230.977277 
L 343.240204 230.914277 
L 349.2 230.851278 
" clip-path="url(#pccc894cba4)" style="fill: none; stroke: #5e7e66; stroke-width: 1.5; stroke-linecap: square"/>
   </g>
   <g id="line2d_32">
    <path d="M 57.17 231.894518 
L 63.129796 231.900513 
L 69.089592 231.906509 
L 75.049388 231.912504 
L 81.009184 231.9185 
L 86.96898 231.924495 
L 92.928776 231.930491 
L 98.888571 231.936486 
L 104.848367 231.942482 
L 110.808163 231.948478 
L 116.767959 231.954473 
L 122.727755 231.960469 
L 128.687551 231.966464 
L 134.647347 231.97246 
L 140.607143 231.978455 
L 146.566939 231.984451 
L 152.526735 231.990446 
L 158.486531 231.996442 
L 164.446327 232.002437 
L 170.406122 232.008433 
L 176.365918 232.014428 
L 182.325714 232.020424 
L 188.28551 232.026419 
L 194.245306 232.032415 
L 200.205102 232.038411 
L 206.164898 232.044406 
L 212.124694 232.050402 
L 218.08449 232.056397 
L 224.044286 232.062393 
L 230.004082 232.068388 
L 235.963878 232.074384 
L 241.923673 232.080379 
L 247.883469 232.086375 
L 253.843265 232.09237 
L 259.803061 232.098366 
L 265.762857 232.104361 
L 271.722653 232.110357 
L 277.682449 232.116352 
L 283.642245 232.122348 
L 289.602041 232.128344 
L 295.561837 232.134339 
L 301.521633 232.140335 
L 307.481429 232.14633 
L 313.441224 232.152326 
L 319.40102 232.158321 
L 325.360816 232.164317 
L 331.320612 232.170312 
L 337.280408 232.176308 
L 343.240204 232.182303 
L 349.2 232.188299 
" clip-path="url(#pccc894cba4)" style="fill: none; stroke: #9be4ff; stroke-width: 1.5; stroke-linecap: square"/>
   </g>
   <g id="patch_3">
    <path d="M 57.17 246.04 
L 57.17 14.76 
" style="fill: none; stroke: #000000; stroke-width: 0.8; stroke-linejoin: miter; stroke-linecap: square"/>
   </g>
   <g id="patch_4">
    <path d="M 349.2 246.04 
L 349.2 14.76 
" style="fill: none; stroke: #000000; stroke-width: 0.8; stroke-linejoin: miter; stroke-linecap: square"/>
   </g>
   <g id="patch_5">
    <path d="M 57.17 246.04 
L 349.2 246.04 
" style="fill: none; stroke: #000000; stroke-width: 0.8; stroke-linejoin: miter; stroke-linecap: square"/>
   </g>
   <g id="patch_6">
    <path d="M 57.17 14.76 
L 349.2 14.76 
" style="fill: none; stroke: #000000; stroke-width: 0.8; stroke-linejoin: miter; stroke-linecap: square"/>
   </g>
   <g id="legend_1">
    <g id="patch_7">
     <path d="M 64.17 184.219375 
L 173.829375 184.219375 
Q 175.829375 184.219375 175.829375 182.219375 
L 175.829375 21.76 
Q 175.829375 19.76 173.829375 19.76 
L 64.17 19.76 
Q 62.17 19.76 62.17 21.76 
L 62.17 182.219375 
Q 62.17 184.219375 64.17 184.219375 
z
" style="fill: #ffffff; opacity: 0.8; stroke: #cccccc; stroke-linejoin: miter"/>
    </g>
    <g id="line2d_33">
     <path d="M 66.17 27.858437 
L 76.17 27.858437 
L 86.17 27.858437 
" style="fill: none; stroke: #d70000; stroke-width: 1.5; stroke-linecap: square"/>
    </g>
    <g id="text_13">
     <!-- AT -->
     <g transform="translate(94.17 31.358437)scale(0.1 -0.1)">
      <defs>
       <path id="DejaVuSans-41" d="M 2188 4044 
L 1331 1722 
L 3047 1722 
L 2188 4044 
z
M 1831 4666 
L 2547 4666 
L 4325 0 
L 3669 0 
L 3244 1197 
L 1141 1197 
L 716 0 
L 50 0 
L 1831 4666 
z
" transform="scale(0.015625)"/>
       <path id="DejaVuSans-54" d="M -19 4666 
L 3928 4666 
L 3928 4134 
L 2272 4134 
L 2272 0 
L 1638 0 
L 1638 4134 
L -19 4134 
L -19 4666 
z
" transform="scale(0.015625)"/>
      </defs>
      <use xlink:href="#DejaVuSans-41"/>
      <use xlink:href="#DejaVuSans-54" x="60.658203"/>
     </g>
    </g>
    <g id="line2d_34">
     <path d="M 66.17 42.536563 
L 76.17 42.536563 
L 86.17 42.536563 
" style="fill: none; stroke: #8c3cff; stroke-width: 1.5; stroke-linecap: square"/>
    </g>
    <g id="text_14">
     <!-- BE -->
     <g transform="translate(94.17 46.036563)scale(0.1 -0.1)">
      <defs>
       <path id="DejaVuSans-42" d="M 1259 2228 
L 1259 519 
L 2272 519 
Q 2781 519 3026 730 
Q 3272 941 3272 1375 
Q 3272 1813 3026 2020 
Q 2781 2228 2272 2228 
L 1259 2228 
z
M 1259 4147 
L 1259 2741 
L 2194 2741 
Q 2656 2741 2882 2914 
Q 3109 3088 3109 3444 
Q 3109 3797 2882 3972 
Q 2656 4147 2194 4147 
L 1259 4147 
z
M 628 4666 
L 2241 4666 
Q 2963 4666 3353 4366 
Q 3744 4066 3744 3513 
Q 3744 3084 3544 2831 
Q 3344 2578 2956 2516 
Q 3422 2416 3680 2098 
Q 3938 1781 3938 1306 
Q 3938 681 3513 340 
Q 3088 0 2303 0 
L 628 0 
L 628 4666 
z
" transform="scale(0.015625)"/>
       <path id="DejaVuSans-45" d="M 628 4666 
L 3578 4666 
L 3578 4134 
L 1259 4134 
L 1259 2753 
L 3481 2753 
L 3481 2222 
L 1259 2222 
L 1259 531 
L 3634 531 
L 3634 0 
L 628 0 
L 628 4666 
z
" transform="scale(0.015625)"/>
      </defs>
      <use xlink:href="#DejaVuSans-42"/>
      <use xlink:href="#DejaVuSans-45" x="68.603516"/>
     </g>
    </g>
    <g id="line2d_35">
     <path d="M 66.17 57.214687 
L 76.17 57.214687 
L 86.17 57.214687 
" style="fill: none; stroke: #028800; stroke-width: 1.5; stroke-linecap: square"/>
    </g>
    <g id="text_15">
     <!-- BG -->
     <g transform="translate(94.17 60.714687)scale(0.1 -0.1)">
      <defs>
       <path id="DejaVuSans-47" d="M 3809 666 
L 3809 1919 
L 2778 1919 
L 2778 2438 
L 4434 2438 
L 4434 434 
Q 4069 175 3628 42 
Q 3188 -91 2688 -91 
Q 1594 -91 976 548 
Q 359 1188 359 2328 
Q 359 3472 976 4111 
Q 1594 4750 2688 4750 
Q 3144 4750 3555 4637 
Q 3966 4525 4313 4306 
L 4313 3634 
Q 3963 3931 3569 4081 
Q 3175 4231 2741 4231 
Q 1884 4231 1454 3753 
Q 1025 3275 1025 2328 
Q 1025 1384 1454 906 
Q 1884 428 2741 428 
Q 3075 428 3337 486 
Q 3600 544 3809 666 
z
" transform="scale(0.015625)"/>
      </defs>
      <use xlink:href="#DejaVuSans-42"/>
      <use xlink:href="#DejaVuSans-47" x="66.853516"/>
     </g>
    </g>
    <g id="line2d_36">
     <path d="M 66.17 71.892812 
L 76.17 71.892812 
L 86.17 71.892812 
" style="fill: none; stroke: #00acc7; stroke-width: 1.5; stroke-linecap: square"/>
    </g>
    <g id="text_16">
     <!-- CY -->
     <g transform="translate(94.17 75.392812)scale(0.1 -0.1)">
      <defs>
       <path id="DejaVuSans-43" d="M 4122 4306 
L 4122 3641 
Q 3803 3938 3442 4084 
Q 3081 4231 2675 4231 
Q 1875 4231 1450 3742 
Q 1025 3253 1025 2328 
Q 1025 1406 1450 917 
Q 1875 428 2675 428 
Q 3081 428 3442 575 
Q 3803 722 4122 1019 
L 4122 359 
Q 3791 134 3420 21 
Q 3050 -91 2638 -91 
Q 1578 -91 968 557 
Q 359 1206 359 2328 
Q 359 3453 968 4101 
Q 1578 4750 2638 4750 
Q 3056 4750 3426 4639 
Q 3797 4528 4122 4306 
z
" transform="scale(0.015625)"/>
       <path id="DejaVuSans-59" d="M -13 4666 
L 666 4666 
L 1959 2747 
L 3244 4666 
L 3922 4666 
L 2272 2222 
L 2272 0 
L 1638 0 
L 1638 2222 
L -13 4666 
z
" transform="scale(0.015625)"/>
      </defs>
      <use xlink:href="#DejaVuSans-43"/>
      <use xlink:href="#DejaVuSans-59" x="68.074219"/>
     </g>
    </g>
    <g id="line2d_37">
     <path d="M 66.17 86.570938 
L 76.17 86.570938 
L 86.17 86.570938 
" style="fill: none; stroke: #98ff00; stroke-width: 1.5; stroke-linecap: square"/>
    </g>
    <g id="text_17">
     <!-- CZ -->
     <g transform="translate(94.17 90.070938)scale(0.1 -0.1)">
      <defs>
       <path id="DejaVuSans-5a" d="M 359 4666 
L 4025 4666 
L 4025 4184 
L 1075 531 
L 4097 531 
L 4097 0 
L 288 0 
L 288 481 
L 3238 4134 
L 359 4134 
L 359 4666 
z
" transform="scale(0.015625)"/>
      </defs>
      <use xlink:href="#DejaVuSans-43"/>
      <use xlink:href="#DejaVuSans-5a" x="69.824219"/>
     </g>
    </g>
    <g id="line2d_38">
     <path d="M 66.17 101.249062 
L 76.17 101.249062 
L 86.17 101.249062 
" style="fill: none; stroke: #ff7fd1; stroke-width: 1.5; stroke-linecap: square"/>
    </g>
    <g id="text_18">
     <!-- DE -->
     <g transform="translate(94.17 104.749062)scale(0.1 -0.1)">
      <defs>
       <path id="DejaVuSans-44" d="M 1259 4147 
L 1259 519 
L 2022 519 
Q 2988 519 3436 956 
Q 3884 1394 3884 2338 
Q 3884 3275 3436 3711 
Q 2988 4147 2022 4147 
L 1259 4147 
z
M 628 4666 
L 1925 4666 
Q 3281 4666 3915 4102 
Q 4550 3538 4550 2338 
Q 4550 1131 3912 565 
Q 3275 0 1925 0 
L 628 0 
L 628 4666 
z
" transform="scale(0.015625)"/>
      </defs>
      <use xlink:href="#DejaVuSans-44"/>
      <use xlink:href="#DejaVuSans-45" x="77.001953"/>
     </g>
    </g>
    <g id="line2d_39">
     <path d="M 66.17 115.927188 
L 76.17 115.927188 
L 86.17 115.927188 
" style="fill: none; stroke: #6c004f; stroke-width: 1.5; stroke-linecap: square"/>
    </g>
    <g id="text_19">
     <!-- DK -->
     <g transform="translate(94.17 119.427188)scale(0.1 -0.1)">
      <defs>
       <path id="DejaVuSans-4b" d="M 628 4666 
L 1259 4666 
L 1259 2694 
L 3353 4666 
L 4166 4666 
L 1850 2491 
L 4331 0 
L 3500 0 
L 1259 2247 
L 1259 0 
L 628 0 
L 628 4666 
z
" transform="scale(0.015625)"/>
      </defs>
      <use xlink:href="#DejaVuSans-44"/>
      <use xlink:href="#DejaVuSans-4b" x="77.001953"/>
     </g>
    </g>
    <g id="line2d_40">
     <path d="M 66.17 130.605312 
L 76.17 130.605312 
L 86.17 130.605312 
" style="fill: none; stroke: #583b00; stroke-width: 1.5; stroke-linecap: square"/>
    </g>
    <g id="text_20">
     <!-- EL -->
     <g transform="translate(94.17 134.105312)scale(0.1 -0.1)">
      <defs>
       <path id="DejaVuSans-4c" d="M 628 4666 
L 1259 4666 
L 1259 531 
L 3531 531 
L 3531 0 
L 628 0 
L 628 4666 
z
" transform="scale(0.015625)"/>
      </defs>
      <use xlink:href="#DejaVuSans-45"/>
      <use xlink:href="#DejaVuSans-4c" x="63.183594"/>
     </g>
    </g>
    <g id="line2d_41">
     <path d="M 66.17 145.283437 
L 76.17 145.283437 
L 86.17 145.283437 
" style="fill: none; stroke: #005759; stroke-width: 1.5; stroke-linecap: square"/>
    </g>
    <g id="text_21">
     <!-- ES -->
     <g transform="translate(94.17 148.783437)scale(0.1 -0.1)">
      <defs>
       <path id="DejaVuSans-53" d="M 3425 4513 
L 3425 3897 
Q 3066 4069 2747 4153 
Q 2428 4238 2131 4238 
Q 1616 4238 1336 4038 
Q 1056 3838 1056 3469 
Q 1056 3159 1242 3001 
Q 1428 2844 1947 2747 
L 2328 2669 
Q 3034 2534 3370 2195 
Q 3706 1856 3706 1288 
Q 3706 609 3251 259 
Q 2797 -91 1919 -91 
Q 1588 -91 1214 -16 
Q 841 59 441 206 
L 441 856 
Q 825 641 1194 531 
Q 1563 422 1919 422 
Q 2459 422 2753 634 
Q 3047 847 3047 1241 
Q 3047 1584 2836 1778 
Q 2625 1972 2144 2069 
L 1759 2144 
Q 1053 2284 737 2584 
Q 422 2884 422 3419 
Q 422 4038 858 4394 
Q 1294 4750 2059 4750 
Q 2388 4750 2728 4690 
Q 3069 4631 3425 4513 
z
" transform="scale(0.015625)"/>
      </defs>
      <use xlink:href="#DejaVuSans-45"/>
      <use xlink:href="#DejaVuSans-53" x="63.183594"/>
     </g>
    </g>
    <g id="line2d_42">
     <path d="M 66.17 159.961562 
L 76.17 159.961562 
L 86.17 159.961562 
" style="fill: none; stroke: #0000dd; stroke-width: 1.5; stroke-linecap: square"/>
    </g>
    <g id="text_22">
     <!-- FI -->
     <g transform="translate(94.17 163.461562)scale(0.1 -0.1)">
      <defs>
       <path id="DejaVuSans-46" d="M 628 4666 
L 3309 4666 
L 3309 4134 
L 1259 4134 
L 1259 2759 
L 3109 2759 
L 3109 2228 
L 1259 2228 
L 1259 0 
L 628 0 
L 628 4666 
z
" transform="scale(0.015625)"/>
       <path id="DejaVuSans-49" d="M 628 4666 
L 1259 4666 
L 1259 0 
L 628 0 
L 628 4666 
z
" transform="scale(0.015625)"/>
      </defs>
      <use xlink:href="#DejaVuSans-46"/>
      <use xlink:href="#DejaVuSans-49" x="57.519531"/>
     </g>
    </g>
    <g id="line2d_43">
     <path d="M 66.17 174.639687 
L 76.17 174.639687 
L 86.17 174.639687 
" style="fill: none; stroke: #a1756a; stroke-width: 1.5; stroke-linecap: square"/>
    </g>
    <g id="text_23">
     <!-- HU -->
     <g transform="translate(94.17 178.139687)scale(0.1 -0.1)">
      <defs>
       <path id="DejaVuSans-48" d="M 628 4666 
L 1259 4666 
L 1259 2753 
L 3553 2753 
L 3553 4666 
L 4184 4666 
L 4184 0 
L 3553 0 
L 3553 2222 
L 1259 2222 
L 1259 0 
L 628 0 
L 628 4666 
z
" transform="scale(0.015625)"/>
      </defs>
      <use xlink:href="#DejaVuSans-48"/>
      <use xlink:href="#DejaVuSans-55" x="75.195312"/>
     </g>
    </g>
    <g id="line2d_44">
     <path d="M 129.009062 27.858437 
L 139.009062 27.858437 
L 149.009062 27.858437 
" style="fill: none; stroke: #bcb7ff; stroke-width: 1.5; stroke-linecap: square"/>
    </g>
    <g id="text_24">
     <!-- IE -->
     <g transform="translate(157.009062 31.358437)scale(0.1 -0.1)">
      <use xlink:href="#DejaVuSans-49"/>
      <use xlink:href="#DejaVuSans-45" x="29.492188"/>
     </g>
    </g>
    <g id="line2d_45">
     <path d="M 129.009062 42.536563 
L 139.009062 42.536563 
L 149.009062 42.536563 
" style="fill: none; stroke: #95b578; stroke-width: 1.5; stroke-linecap: square"/>
    </g>
    <g id="text_25">
     <!-- IT -->
     <g transform="translate(157.009062 46.036563)scale(0.1 -0.1)">
      <use xlink:href="#DejaVuSans-49"/>
      <use xlink:href="#DejaVuSans-54" x="29.492188"/>
     </g>
    </g>
    <g id="line2d_46">
     <path d="M 129.009062 57.214687 
L 139.009062 57.214687 
L 149.009062 57.214687 
" style="fill: none; stroke: #c004b9; stroke-width: 1.5; stroke-linecap: square"/>
    </g>
    <g id="text_26">
     <!-- LT -->
     <g transform="translate(157.009062 60.714687)scale(0.1 -0.1)">
      <use xlink:href="#DejaVuSans-4c"/>
      <use xlink:href="#DejaVuSans-54" x="41.962891"/>
     </g>
    </g>
    <g id="line2d_47">
     <path d="M 129.009062 71.892812 
L 139.009062 71.892812 
L 149.009062 71.892812 
" style="fill: none; stroke: #790000; stroke-width: 1.5; stroke-linecap: square"/>
    </g>
    <g id="text_27">
     <!-- LV -->
     <g transform="translate(157.009062 75.392812)scale(0.1 -0.1)">
      <defs>
       <path id="DejaVuSans-56" d="M 1831 0 
L 50 4666 
L 709 4666 
L 2188 738 
L 3669 4666 
L 4325 4666 
L 2547 0 
L 1831 0 
z
" transform="scale(0.015625)"/>
      </defs>
      <use xlink:href="#DejaVuSans-4c"/>
      <use xlink:href="#DejaVuSans-56" x="44.712891"/>
     </g>
    </g>
    <g id="line2d_48">
     <path d="M 129.009062 86.570938 
L 139.009062 86.570938 
L 149.009062 86.570938 
" style="fill: none; stroke: #0774d8; stroke-width: 1.5; stroke-linecap: square"/>
    </g>
    <g id="text_28">
     <!-- MT -->
     <g transform="translate(157.009062 90.070938)scale(0.1 -0.1)">
      <defs>
       <path id="DejaVuSans-4d" d="M 628 4666 
L 1569 4666 
L 2759 1491 
L 3956 4666 
L 4897 4666 
L 4897 0 
L 4281 0 
L 4281 4097 
L 3078 897 
L 2444 897 
L 1241 4097 
L 1241 0 
L 628 0 
L 628 4666 
z
" transform="scale(0.015625)"/>
      </defs>
      <use xlink:href="#DejaVuSans-4d"/>
      <use xlink:href="#DejaVuSans-54" x="86.279297"/>
     </g>
    </g>
    <g id="line2d_49">
     <path d="M 129.009062 101.249062 
L 139.009062 101.249062 
L 149.009062 101.249062 
" style="fill: none; stroke: #fef590; stroke-width: 1.5; stroke-linecap: square"/>
    </g>
    <g id="text_29">
     <!-- NL -->
     <g transform="translate(157.009062 104.749062)scale(0.1 -0.1)">
      <use xlink:href="#DejaVuSans-4e"/>
      <use xlink:href="#DejaVuSans-4c" x="74.804688"/>
     </g>
    </g>
    <g id="line2d_50">
     <path d="M 129.009062 115.927188 
L 139.009062 115.927188 
L 149.009062 115.927188 
" style="fill: none; stroke: #8f7a00; stroke-width: 1.5; stroke-linecap: square"/>
    </g>
    <g id="text_30">
     <!-- PT -->
     <g transform="translate(157.009062 119.427188)scale(0.1 -0.1)">
      <defs>
       <path id="DejaVuSans-50" d="M 1259 4147 
L 1259 2394 
L 2053 2394 
Q 2494 2394 2734 2622 
Q 2975 2850 2975 3272 
Q 2975 3691 2734 3919 
Q 2494 4147 2053 4147 
L 1259 4147 
z
M 628 4666 
L 2053 4666 
Q 2838 4666 3239 4311 
Q 3641 3956 3641 3272 
Q 3641 2581 3239 2228 
Q 2838 1875 2053 1875 
L 1259 1875 
L 1259 0 
L 628 0 
L 628 4666 
z
" transform="scale(0.015625)"/>
      </defs>
      <use xlink:href="#DejaVuSans-50"/>
      <use xlink:href="#DejaVuSans-54" x="60.302734"/>
     </g>
    </g>
    <g id="line2d_51">
     <path d="M 129.009062 130.605312 
L 139.009062 130.605312 
L 149.009062 130.605312 
" style="fill: none; stroke: #ff7266; stroke-width: 1.5; stroke-linecap: square"/>
    </g>
    <g id="text_31">
     <!-- RO -->
     <g transform="translate(157.009062 134.105312)scale(0.1 -0.1)">
      <defs>
       <path id="DejaVuSans-4f" d="M 2522 4238 
Q 1834 4238 1429 3725 
Q 1025 3213 1025 2328 
Q 1025 1447 1429 934 
Q 1834 422 2522 422 
Q 3209 422 3611 934 
Q 4013 1447 4013 2328 
Q 4013 3213 3611 3725 
Q 3209 4238 2522 4238 
z
M 2522 4750 
Q 3503 4750 4090 4092 
Q 4678 3434 4678 2328 
Q 4678 1225 4090 567 
Q 3503 -91 2522 -91 
Q 1538 -91 948 565 
Q 359 1222 359 2328 
Q 359 3434 948 4092 
Q 1538 4750 2522 4750 
z
" transform="scale(0.015625)"/>
      </defs>
      <use xlink:href="#DejaVuSans-52"/>
      <use xlink:href="#DejaVuSans-4f" x="69.482422"/>
     </g>
    </g>
    <g id="line2d_52">
     <path d="M 129.009062 145.283437 
L 139.009062 145.283437 
L 149.009062 145.283437 
" style="fill: none; stroke: #eeb9b9; stroke-width: 1.5; stroke-linecap: square"/>
    </g>
    <g id="text_32">
     <!-- SE -->
     <g transform="translate(157.009062 148.783437)scale(0.1 -0.1)">
      <use xlink:href="#DejaVuSans-53"/>
      <use xlink:href="#DejaVuSans-45" x="63.476562"/>
     </g>
    </g>
    <g id="line2d_53">
     <path d="M 129.009062 159.961562 
L 139.009062 159.961562 
L 149.009062 159.961562 
" style="fill: none; stroke: #5e7e66; stroke-width: 1.5; stroke-linecap: square"/>
    </g>
    <g id="text_33">
     <!-- SI -->
     <g transform="translate(157.009062 163.461562)scale(0.1 -0.1)">
      <use xlink:href="#DejaVuSans-53"/>
      <use xlink:href="#DejaVuSans-49" x="63.476562"/>
     </g>
    </g>
    <g id="line2d_54">
     <path d="M 129.009062 174.639687 
L 139.009062 174.639687 
L 149.009062 174.639687 
" style="fill: none; stroke: #9be4ff; stroke-width: 1.5; stroke-linecap: square"/>
    </g>
    <g id="text_34">
     <!-- SK -->
     <g transform="translate(157.009062 178.139687)scale(0.1 -0.1)">
      <use xlink:href="#DejaVuSans-53"/>
      <use xlink:href="#DejaVuSans-4b" x="63.476562"/>
     </g>
    </g>
   </g>
  </g>
 </g>
 <defs>
  <clipPath id="pccc894cba4">
   <rect x="57.17" y="14.76" width="292.03" height="231.28"/>
  </clipPath>
 </defs>
</svg>
