<?xml version="1.0" encoding="utf-8" standalone="no"?>
<!DOCTYPE svg PUBLIC "-//W3C//DTD SVG 1.1//EN"
  "http://www.w3.org/Graphics/SVG/1.1/DTD/svg11.dtd">
<svg xmlns:xlink="http://www.w3.org/1999/xlink" width="460.8pt" height="345.6pt" viewBox="0 0 460.8 345.6" xmlns="http://www.w3.org/2000/svg" version="1.1">
 <metadata>
  <rdf:RDF xmlns:dc="http://purl.org/dc/elements/1.1/" xmlns:cc="http://creativecommons.org/ns#" xmlns:rdf="http://www.w3.org/1999/02/22-rdf-syntax-ns#">
   <cc:Work>
    <dc:type rdf:resource="http://purl.org/dc/dcmitype/StillImage"/>
    <dc:date>2024-01-29T18:47:06.134333</dc:date>
    <dc:format>image/svg+xml</dc:format>
    <dc:creator>
     <cc:Agent>
      <dc:title>Matplotlib v3.5.1, https://matplotlib.org/</dc:title>
     </cc:Agent>
    </dc:creator>
   </cc:Work>
  </rdf:RDF>
 </metadata>
 <defs>
  <style type="text/css">*{stroke-linejoin: round; stroke-linecap: butt}</style>
 </defs>
 <g id="figure_1">
  <g id="patch_1">
   <path d="M 0 345.6 
L 460.8 345.6 
L 460.8 0 
L 0 0 
L 0 345.6 
z
" style="fill: none"/>
  </g>
  <g id="axes_1">
   <g id="patch_2">
    <path d="M 50.87 303.64 
L 450 303.64 
L 450 10.8 
L 50.87 10.8 
L 50.87 303.64 
z
" style="fill: none"/>
   </g>
   <g id="matplotlib.axis_1">
    <g id="xtick_1">
     <g id="line2d_1">
      <defs>
       <path id="m9e18534146" d="M 0 0 
L 0 3.5 
" style="stroke: #000000; stroke-width: 0.8"/>
      </defs>
      <g>
       <use xlink:href="#m9e18534146" x="90.326408" y="303.64" style="stroke: #000000; stroke-width: 0.8"/>
      </g>
     </g>
     <g id="text_1">
      <!-- 50 -->
      <g transform="translate(83.963908 318.238437)scale(0.1 -0.1)">
       <defs>
        <path id="DejaVuSans-35" d="M 691 4666 
L 3169 4666 
L 3169 4134 
L 1269 4134 
L 1269 2991 
Q 1406 3038 1543 3061 
Q 1681 3084 1819 3084 
Q 2600 3084 3056 2656 
Q 3513 2228 3513 1497 
Q 3513 744 3044 326 
Q 2575 -91 1722 -91 
Q 1428 -91 1123 -41 
Q 819 9 494 109 
L 494 744 
Q 775 591 1075 516 
Q 1375 441 1709 441 
Q 2250 441 2565 725 
Q 2881 1009 2881 1497 
Q 2881 1984 2565 2268 
Q 2250 2553 1709 2553 
Q 1456 2553 1204 2497 
Q 953 2441 691 2322 
L 691 4666 
z
" transform="scale(0.015625)"/>
        <path id="DejaVuSans-30" d="M 2034 4250 
Q 1547 4250 1301 3770 
Q 1056 3291 1056 2328 
Q 1056 1369 1301 889 
Q 1547 409 2034 409 
Q 2525 409 2770 889 
Q 3016 1369 3016 2328 
Q 3016 3291 2770 3770 
Q 2525 4250 2034 4250 
z
M 2034 4750 
Q 2819 4750 3233 4129 
Q 3647 3509 3647 2328 
Q 3647 1150 3233 529 
Q 2819 -91 2034 -91 
Q 1250 -91 836 529 
Q 422 1150 422 2328 
Q 422 3509 836 4129 
Q 1250 4750 2034 4750 
z
" transform="scale(0.015625)"/>
       </defs>
       <use xlink:href="#DejaVuSans-35"/>
       <use xlink:href="#DejaVuSans-30" x="63.623047"/>
      </g>
     </g>
    </g>
    <g id="xtick_2">
     <g id="line2d_2">
      <g>
       <use xlink:href="#m9e18534146" x="144.16976" y="303.64" style="stroke: #000000; stroke-width: 0.8"/>
      </g>
     </g>
     <g id="text_2">
      <!-- 75 -->
      <g transform="translate(137.80726 318.238437)scale(0.1 -0.1)">
       <defs>
        <path id="DejaVuSans-37" d="M 525 4666 
L 3525 4666 
L 3525 4397 
L 1831 0 
L 1172 0 
L 2766 4134 
L 525 4134 
L 525 4666 
z
" transform="scale(0.015625)"/>
       </defs>
       <use xlink:href="#DejaVuSans-37"/>
       <use xlink:href="#DejaVuSans-35" x="63.623047"/>
      </g>
     </g>
    </g>
    <g id="xtick_3">
     <g id="line2d_3">
      <g>
       <use xlink:href="#m9e18534146" x="198.013112" y="303.64" style="stroke: #000000; stroke-width: 0.8"/>
      </g>
     </g>
     <g id="text_3">
      <!-- 100 -->
      <g transform="translate(188.469362 318.238437)scale(0.1 -0.1)">
       <defs>
        <path id="DejaVuSans-31" d="M 794 531 
L 1825 531 
L 1825 4091 
L 703 3866 
L 703 4441 
L 1819 4666 
L 2450 4666 
L 2450 531 
L 3481 531 
L 3481 0 
L 794 0 
L 794 531 
z
" transform="scale(0.015625)"/>
       </defs>
       <use xlink:href="#DejaVuSans-31"/>
       <use xlink:href="#DejaVuSans-30" x="63.623047"/>
       <use xlink:href="#DejaVuSans-30" x="127.246094"/>
      </g>
     </g>
    </g>
    <g id="xtick_4">
     <g id="line2d_4">
      <g>
       <use xlink:href="#m9e18534146" x="251.856464" y="303.64" style="stroke: #000000; stroke-width: 0.8"/>
      </g>
     </g>
     <g id="text_4">
      <!-- 125 -->
      <g transform="translate(242.312714 318.238437)scale(0.1 -0.1)">
       <defs>
        <path id="DejaVuSans-32" d="M 1228 531 
L 3431 531 
L 3431 0 
L 469 0 
L 469 531 
Q 828 903 1448 1529 
Q 2069 2156 2228 2338 
Q 2531 2678 2651 2914 
Q 2772 3150 2772 3378 
Q 2772 3750 2511 3984 
Q 2250 4219 1831 4219 
Q 1534 4219 1204 4116 
Q 875 4013 500 3803 
L 500 4441 
Q 881 4594 1212 4672 
Q 1544 4750 1819 4750 
Q 2544 4750 2975 4387 
Q 3406 4025 3406 3419 
Q 3406 3131 3298 2873 
Q 3191 2616 2906 2266 
Q 2828 2175 2409 1742 
Q 1991 1309 1228 531 
z
" transform="scale(0.015625)"/>
       </defs>
       <use xlink:href="#DejaVuSans-31"/>
       <use xlink:href="#DejaVuSans-32" x="63.623047"/>
       <use xlink:href="#DejaVuSans-35" x="127.246094"/>
      </g>
     </g>
    </g>
    <g id="xtick_5">
     <g id="line2d_5">
      <g>
       <use xlink:href="#m9e18534146" x="305.699817" y="303.64" style="stroke: #000000; stroke-width: 0.8"/>
      </g>
     </g>
     <g id="text_5">
      <!-- 150 -->
      <g transform="translate(296.156067 318.238437)scale(0.1 -0.1)">
       <use xlink:href="#DejaVuSans-31"/>
       <use xlink:href="#DejaVuSans-35" x="63.623047"/>
       <use xlink:href="#DejaVuSans-30" x="127.246094"/>
      </g>
     </g>
    </g>
    <g id="xtick_6">
     <g id="line2d_6">
      <g>
       <use xlink:href="#m9e18534146" x="359.543169" y="303.64" style="stroke: #000000; stroke-width: 0.8"/>
      </g>
     </g>
     <g id="text_6">
      <!-- 175 -->
      <g transform="translate(349.999419 318.238437)scale(0.1 -0.1)">
       <use xlink:href="#DejaVuSans-31"/>
       <use xlink:href="#DejaVuSans-37" x="63.623047"/>
       <use xlink:href="#DejaVuSans-35" x="127.246094"/>
      </g>
     </g>
    </g>
    <g id="xtick_7">
     <g id="line2d_7">
      <g>
       <use xlink:href="#m9e18534146" x="413.386521" y="303.64" style="stroke: #000000; stroke-width: 0.8"/>
      </g>
     </g>
     <g id="text_7">
      <!-- 200 -->
      <g transform="translate(403.842771 318.238437)scale(0.1 -0.1)">
       <use xlink:href="#DejaVuSans-32"/>
       <use xlink:href="#DejaVuSans-30" x="63.623047"/>
       <use xlink:href="#DejaVuSans-30" x="127.246094"/>
      </g>
     </g>
    </g>
    <g id="text_8">
     <!-- GDP (Purchasing Power Standard, % EU average) -->
     <g transform="translate(127.411562 331.916562)scale(0.1 -0.1)">
      <defs>
       <path id="DejaVuSans-47" d="M 3809 666 
L 3809 1919 
L 2778 1919 
L 2778 2438 
L 4434 2438 
L 4434 434 
Q 4069 175 3628 42 
Q 3188 -91 2688 -91 
Q 1594 -91 976 548 
Q 359 1188 359 2328 
Q 359 3472 976 4111 
Q 1594 4750 2688 4750 
Q 3144 4750 3555 4637 
Q 3966 4525 4313 4306 
L 4313 3634 
Q 3963 3931 3569 4081 
Q 3175 4231 2741 4231 
Q 1884 4231 1454 3753 
Q 1025 3275 1025 2328 
Q 1025 1384 1454 906 
Q 1884 428 2741 428 
Q 3075 428 3337 486 
Q 3600 544 3809 666 
z
" transform="scale(0.015625)"/>
       <path id="DejaVuSans-44" d="M 1259 4147 
L 1259 519 
L 2022 519 
Q 2988 519 3436 956 
Q 3884 1394 3884 2338 
Q 3884 3275 3436 3711 
Q 2988 4147 2022 4147 
L 1259 4147 
z
M 628 4666 
L 1925 4666 
Q 3281 4666 3915 4102 
Q 4550 3538 4550 2338 
Q 4550 1131 3912 565 
Q 3275 0 1925 0 
L 628 0 
L 628 4666 
z
" transform="scale(0.015625)"/>
       <path id="DejaVuSans-50" d="M 1259 4147 
L 1259 2394 
L 2053 2394 
Q 2494 2394 2734 2622 
Q 2975 2850 2975 3272 
Q 2975 3691 2734 3919 
Q 2494 4147 2053 4147 
L 1259 4147 
z
M 628 4666 
L 2053 4666 
Q 2838 4666 3239 4311 
Q 3641 3956 3641 3272 
Q 3641 2581 3239 2228 
Q 2838 1875 2053 1875 
L 1259 1875 
L 1259 0 
L 628 0 
L 628 4666 
z
" transform="scale(0.015625)"/>
       <path id="DejaVuSans-20" transform="scale(0.015625)"/>
       <path id="DejaVuSans-28" d="M 1984 4856 
Q 1566 4138 1362 3434 
Q 1159 2731 1159 2009 
Q 1159 1288 1364 580 
Q 1569 -128 1984 -844 
L 1484 -844 
Q 1016 -109 783 600 
Q 550 1309 550 2009 
Q 550 2706 781 3412 
Q 1013 4119 1484 4856 
L 1984 4856 
z
" transform="scale(0.015625)"/>
       <path id="DejaVuSans-75" d="M 544 1381 
L 544 3500 
L 1119 3500 
L 1119 1403 
Q 1119 906 1312 657 
Q 1506 409 1894 409 
Q 2359 409 2629 706 
Q 2900 1003 2900 1516 
L 2900 3500 
L 3475 3500 
L 3475 0 
L 2900 0 
L 2900 538 
Q 2691 219 2414 64 
Q 2138 -91 1772 -91 
Q 1169 -91 856 284 
Q 544 659 544 1381 
z
M 1991 3584 
L 1991 3584 
z
" transform="scale(0.015625)"/>
       <path id="DejaVuSans-72" d="M 2631 2963 
Q 2534 3019 2420 3045 
Q 2306 3072 2169 3072 
Q 1681 3072 1420 2755 
Q 1159 2438 1159 1844 
L 1159 0 
L 581 0 
L 581 3500 
L 1159 3500 
L 1159 2956 
Q 1341 3275 1631 3429 
Q 1922 3584 2338 3584 
Q 2397 3584 2469 3576 
Q 2541 3569 2628 3553 
L 2631 2963 
z
" transform="scale(0.015625)"/>
       <path id="DejaVuSans-63" d="M 3122 3366 
L 3122 2828 
Q 2878 2963 2633 3030 
Q 2388 3097 2138 3097 
Q 1578 3097 1268 2742 
Q 959 2388 959 1747 
Q 959 1106 1268 751 
Q 1578 397 2138 397 
Q 2388 397 2633 464 
Q 2878 531 3122 666 
L 3122 134 
Q 2881 22 2623 -34 
Q 2366 -91 2075 -91 
Q 1284 -91 818 406 
Q 353 903 353 1747 
Q 353 2603 823 3093 
Q 1294 3584 2113 3584 
Q 2378 3584 2631 3529 
Q 2884 3475 3122 3366 
z
" transform="scale(0.015625)"/>
       <path id="DejaVuSans-68" d="M 3513 2113 
L 3513 0 
L 2938 0 
L 2938 2094 
Q 2938 2591 2744 2837 
Q 2550 3084 2163 3084 
Q 1697 3084 1428 2787 
Q 1159 2491 1159 1978 
L 1159 0 
L 581 0 
L 581 4863 
L 1159 4863 
L 1159 2956 
Q 1366 3272 1645 3428 
Q 1925 3584 2291 3584 
Q 2894 3584 3203 3211 
Q 3513 2838 3513 2113 
z
" transform="scale(0.015625)"/>
       <path id="DejaVuSans-61" d="M 2194 1759 
Q 1497 1759 1228 1600 
Q 959 1441 959 1056 
Q 959 750 1161 570 
Q 1363 391 1709 391 
Q 2188 391 2477 730 
Q 2766 1069 2766 1631 
L 2766 1759 
L 2194 1759 
z
M 3341 1997 
L 3341 0 
L 2766 0 
L 2766 531 
Q 2569 213 2275 61 
Q 1981 -91 1556 -91 
Q 1019 -91 701 211 
Q 384 513 384 1019 
Q 384 1609 779 1909 
Q 1175 2209 1959 2209 
L 2766 2209 
L 2766 2266 
Q 2766 2663 2505 2880 
Q 2244 3097 1772 3097 
Q 1472 3097 1187 3025 
Q 903 2953 641 2809 
L 641 3341 
Q 956 3463 1253 3523 
Q 1550 3584 1831 3584 
Q 2591 3584 2966 3190 
Q 3341 2797 3341 1997 
z
" transform="scale(0.015625)"/>
       <path id="DejaVuSans-73" d="M 2834 3397 
L 2834 2853 
Q 2591 2978 2328 3040 
Q 2066 3103 1784 3103 
Q 1356 3103 1142 2972 
Q 928 2841 928 2578 
Q 928 2378 1081 2264 
Q 1234 2150 1697 2047 
L 1894 2003 
Q 2506 1872 2764 1633 
Q 3022 1394 3022 966 
Q 3022 478 2636 193 
Q 2250 -91 1575 -91 
Q 1294 -91 989 -36 
Q 684 19 347 128 
L 347 722 
Q 666 556 975 473 
Q 1284 391 1588 391 
Q 1994 391 2212 530 
Q 2431 669 2431 922 
Q 2431 1156 2273 1281 
Q 2116 1406 1581 1522 
L 1381 1569 
Q 847 1681 609 1914 
Q 372 2147 372 2553 
Q 372 3047 722 3315 
Q 1072 3584 1716 3584 
Q 2034 3584 2315 3537 
Q 2597 3491 2834 3397 
z
" transform="scale(0.015625)"/>
       <path id="DejaVuSans-69" d="M 603 3500 
L 1178 3500 
L 1178 0 
L 603 0 
L 603 3500 
z
M 603 4863 
L 1178 4863 
L 1178 4134 
L 603 4134 
L 603 4863 
z
" transform="scale(0.015625)"/>
       <path id="DejaVuSans-6e" d="M 3513 2113 
L 3513 0 
L 2938 0 
L 2938 2094 
Q 2938 2591 2744 2837 
Q 2550 3084 2163 3084 
Q 1697 3084 1428 2787 
Q 1159 2491 1159 1978 
L 1159 0 
L 581 0 
L 581 3500 
L 1159 3500 
L 1159 2956 
Q 1366 3272 1645 3428 
Q 1925 3584 2291 3584 
Q 2894 3584 3203 3211 
Q 3513 2838 3513 2113 
z
" transform="scale(0.015625)"/>
       <path id="DejaVuSans-67" d="M 2906 1791 
Q 2906 2416 2648 2759 
Q 2391 3103 1925 3103 
Q 1463 3103 1205 2759 
Q 947 2416 947 1791 
Q 947 1169 1205 825 
Q 1463 481 1925 481 
Q 2391 481 2648 825 
Q 2906 1169 2906 1791 
z
M 3481 434 
Q 3481 -459 3084 -895 
Q 2688 -1331 1869 -1331 
Q 1566 -1331 1297 -1286 
Q 1028 -1241 775 -1147 
L 775 -588 
Q 1028 -725 1275 -790 
Q 1522 -856 1778 -856 
Q 2344 -856 2625 -561 
Q 2906 -266 2906 331 
L 2906 616 
Q 2728 306 2450 153 
Q 2172 0 1784 0 
Q 1141 0 747 490 
Q 353 981 353 1791 
Q 353 2603 747 3093 
Q 1141 3584 1784 3584 
Q 2172 3584 2450 3431 
Q 2728 3278 2906 2969 
L 2906 3500 
L 3481 3500 
L 3481 434 
z
" transform="scale(0.015625)"/>
       <path id="DejaVuSans-6f" d="M 1959 3097 
Q 1497 3097 1228 2736 
Q 959 2375 959 1747 
Q 959 1119 1226 758 
Q 1494 397 1959 397 
Q 2419 397 2687 759 
Q 2956 1122 2956 1747 
Q 2956 2369 2687 2733 
Q 2419 3097 1959 3097 
z
M 1959 3584 
Q 2709 3584 3137 3096 
Q 3566 2609 3566 1747 
Q 3566 888 3137 398 
Q 2709 -91 1959 -91 
Q 1206 -91 779 398 
Q 353 888 353 1747 
Q 353 2609 779 3096 
Q 1206 3584 1959 3584 
z
" transform="scale(0.015625)"/>
       <path id="DejaVuSans-77" d="M 269 3500 
L 844 3500 
L 1563 769 
L 2278 3500 
L 2956 3500 
L 3675 769 
L 4391 3500 
L 4966 3500 
L 4050 0 
L 3372 0 
L 2619 2869 
L 1863 0 
L 1184 0 
L 269 3500 
z
" transform="scale(0.015625)"/>
       <path id="DejaVuSans-65" d="M 3597 1894 
L 3597 1613 
L 953 1613 
Q 991 1019 1311 708 
Q 1631 397 2203 397 
Q 2534 397 2845 478 
Q 3156 559 3463 722 
L 3463 178 
Q 3153 47 2828 -22 
Q 2503 -91 2169 -91 
Q 1331 -91 842 396 
Q 353 884 353 1716 
Q 353 2575 817 3079 
Q 1281 3584 2069 3584 
Q 2775 3584 3186 3129 
Q 3597 2675 3597 1894 
z
M 3022 2063 
Q 3016 2534 2758 2815 
Q 2500 3097 2075 3097 
Q 1594 3097 1305 2825 
Q 1016 2553 972 2059 
L 3022 2063 
z
" transform="scale(0.015625)"/>
       <path id="DejaVuSans-53" d="M 3425 4513 
L 3425 3897 
Q 3066 4069 2747 4153 
Q 2428 4238 2131 4238 
Q 1616 4238 1336 4038 
Q 1056 3838 1056 3469 
Q 1056 3159 1242 3001 
Q 1428 2844 1947 2747 
L 2328 2669 
Q 3034 2534 3370 2195 
Q 3706 1856 3706 1288 
Q 3706 609 3251 259 
Q 2797 -91 1919 -91 
Q 1588 -91 1214 -16 
Q 841 59 441 206 
L 441 856 
Q 825 641 1194 531 
Q 1563 422 1919 422 
Q 2459 422 2753 634 
Q 3047 847 3047 1241 
Q 3047 1584 2836 1778 
Q 2625 1972 2144 2069 
L 1759 2144 
Q 1053 2284 737 2584 
Q 422 2884 422 3419 
Q 422 4038 858 4394 
Q 1294 4750 2059 4750 
Q 2388 4750 2728 4690 
Q 3069 4631 3425 4513 
z
" transform="scale(0.015625)"/>
       <path id="DejaVuSans-74" d="M 1172 4494 
L 1172 3500 
L 2356 3500 
L 2356 3053 
L 1172 3053 
L 1172 1153 
Q 1172 725 1289 603 
Q 1406 481 1766 481 
L 2356 481 
L 2356 0 
L 1766 0 
Q 1100 0 847 248 
Q 594 497 594 1153 
L 594 3053 
L 172 3053 
L 172 3500 
L 594 3500 
L 594 4494 
L 1172 4494 
z
" transform="scale(0.015625)"/>
       <path id="DejaVuSans-64" d="M 2906 2969 
L 2906 4863 
L 3481 4863 
L 3481 0 
L 2906 0 
L 2906 525 
Q 2725 213 2448 61 
Q 2172 -91 1784 -91 
Q 1150 -91 751 415 
Q 353 922 353 1747 
Q 353 2572 751 3078 
Q 1150 3584 1784 3584 
Q 2172 3584 2448 3432 
Q 2725 3281 2906 2969 
z
M 947 1747 
Q 947 1113 1208 752 
Q 1469 391 1925 391 
Q 2381 391 2643 752 
Q 2906 1113 2906 1747 
Q 2906 2381 2643 2742 
Q 2381 3103 1925 3103 
Q 1469 3103 1208 2742 
Q 947 2381 947 1747 
z
" transform="scale(0.015625)"/>
       <path id="DejaVuSans-2c" d="M 750 794 
L 1409 794 
L 1409 256 
L 897 -744 
L 494 -744 
L 750 256 
L 750 794 
z
" transform="scale(0.015625)"/>
       <path id="DejaVuSans-25" d="M 4653 2053 
Q 4381 2053 4226 1822 
Q 4072 1591 4072 1178 
Q 4072 772 4226 539 
Q 4381 306 4653 306 
Q 4919 306 5073 539 
Q 5228 772 5228 1178 
Q 5228 1588 5073 1820 
Q 4919 2053 4653 2053 
z
M 4653 2450 
Q 5147 2450 5437 2106 
Q 5728 1763 5728 1178 
Q 5728 594 5436 251 
Q 5144 -91 4653 -91 
Q 4153 -91 3862 251 
Q 3572 594 3572 1178 
Q 3572 1766 3864 2108 
Q 4156 2450 4653 2450 
z
M 1428 4353 
Q 1159 4353 1004 4120 
Q 850 3888 850 3481 
Q 850 3069 1003 2837 
Q 1156 2606 1428 2606 
Q 1700 2606 1854 2837 
Q 2009 3069 2009 3481 
Q 2009 3884 1853 4118 
Q 1697 4353 1428 4353 
z
M 4250 4750 
L 4750 4750 
L 1831 -91 
L 1331 -91 
L 4250 4750 
z
M 1428 4750 
Q 1922 4750 2215 4408 
Q 2509 4066 2509 3481 
Q 2509 2891 2217 2550 
Q 1925 2209 1428 2209 
Q 931 2209 642 2551 
Q 353 2894 353 3481 
Q 353 4063 643 4406 
Q 934 4750 1428 4750 
z
" transform="scale(0.015625)"/>
       <path id="DejaVuSans-45" d="M 628 4666 
L 3578 4666 
L 3578 4134 
L 1259 4134 
L 1259 2753 
L 3481 2753 
L 3481 2222 
L 1259 2222 
L 1259 531 
L 3634 531 
L 3634 0 
L 628 0 
L 628 4666 
z
" transform="scale(0.015625)"/>
       <path id="DejaVuSans-55" d="M 556 4666 
L 1191 4666 
L 1191 1831 
Q 1191 1081 1462 751 
Q 1734 422 2344 422 
Q 2950 422 3222 751 
Q 3494 1081 3494 1831 
L 3494 4666 
L 4128 4666 
L 4128 1753 
Q 4128 841 3676 375 
Q 3225 -91 2344 -91 
Q 1459 -91 1007 375 
Q 556 841 556 1753 
L 556 4666 
z
" transform="scale(0.015625)"/>
       <path id="DejaVuSans-76" d="M 191 3500 
L 800 3500 
L 1894 563 
L 2988 3500 
L 3597 3500 
L 2284 0 
L 1503 0 
L 191 3500 
z
" transform="scale(0.015625)"/>
       <path id="DejaVuSans-29" d="M 513 4856 
L 1013 4856 
Q 1481 4119 1714 3412 
Q 1947 2706 1947 2009 
Q 1947 1309 1714 600 
Q 1481 -109 1013 -844 
L 513 -844 
Q 928 -128 1133 580 
Q 1338 1288 1338 2009 
Q 1338 2731 1133 3434 
Q 928 4138 513 4856 
z
" transform="scale(0.015625)"/>
      </defs>
      <use xlink:href="#DejaVuSans-47"/>
      <use xlink:href="#DejaVuSans-44" x="77.490234"/>
      <use xlink:href="#DejaVuSans-50" x="154.492188"/>
      <use xlink:href="#DejaVuSans-20" x="214.794922"/>
      <use xlink:href="#DejaVuSans-28" x="246.582031"/>
      <use xlink:href="#DejaVuSans-50" x="285.595703"/>
      <use xlink:href="#DejaVuSans-75" x="344.148438"/>
      <use xlink:href="#DejaVuSans-72" x="407.527344"/>
      <use xlink:href="#DejaVuSans-63" x="446.390625"/>
      <use xlink:href="#DejaVuSans-68" x="501.371094"/>
      <use xlink:href="#DejaVuSans-61" x="564.75"/>
      <use xlink:href="#DejaVuSans-73" x="626.029297"/>
      <use xlink:href="#DejaVuSans-69" x="678.128906"/>
      <use xlink:href="#DejaVuSans-6e" x="705.912109"/>
      <use xlink:href="#DejaVuSans-67" x="769.291016"/>
      <use xlink:href="#DejaVuSans-20" x="832.767578"/>
      <use xlink:href="#DejaVuSans-50" x="864.554688"/>
      <use xlink:href="#DejaVuSans-6f" x="921.232422"/>
      <use xlink:href="#DejaVuSans-77" x="982.414062"/>
      <use xlink:href="#DejaVuSans-65" x="1064.201172"/>
      <use xlink:href="#DejaVuSans-72" x="1125.724609"/>
      <use xlink:href="#DejaVuSans-20" x="1166.837891"/>
      <use xlink:href="#DejaVuSans-53" x="1198.625"/>
      <use xlink:href="#DejaVuSans-74" x="1262.101562"/>
      <use xlink:href="#DejaVuSans-61" x="1301.310547"/>
      <use xlink:href="#DejaVuSans-6e" x="1362.589844"/>
      <use xlink:href="#DejaVuSans-64" x="1425.96875"/>
      <use xlink:href="#DejaVuSans-61" x="1489.445312"/>
      <use xlink:href="#DejaVuSans-72" x="1550.724609"/>
      <use xlink:href="#DejaVuSans-64" x="1590.087891"/>
      <use xlink:href="#DejaVuSans-2c" x="1653.564453"/>
      <use xlink:href="#DejaVuSans-20" x="1685.351562"/>
      <use xlink:href="#DejaVuSans-25" x="1717.138672"/>
      <use xlink:href="#DejaVuSans-20" x="1812.158203"/>
      <use xlink:href="#DejaVuSans-45" x="1843.945312"/>
      <use xlink:href="#DejaVuSans-55" x="1907.128906"/>
      <use xlink:href="#DejaVuSans-20" x="1980.322266"/>
      <use xlink:href="#DejaVuSans-61" x="2012.109375"/>
      <use xlink:href="#DejaVuSans-76" x="2073.388672"/>
      <use xlink:href="#DejaVuSans-65" x="2132.568359"/>
      <use xlink:href="#DejaVuSans-72" x="2194.091797"/>
      <use xlink:href="#DejaVuSans-61" x="2235.205078"/>
      <use xlink:href="#DejaVuSans-67" x="2296.484375"/>
      <use xlink:href="#DejaVuSans-65" x="2359.960938"/>
      <use xlink:href="#DejaVuSans-29" x="2421.484375"/>
     </g>
    </g>
   </g>
   <g id="matplotlib.axis_2">
    <g id="ytick_1">
     <g id="line2d_8">
      <defs>
       <path id="m868b00cfb5" d="M 0 0 
L -3.5 0 
" style="stroke: #000000; stroke-width: 0.8"/>
      </defs>
      <g>
       <use xlink:href="#m868b00cfb5" x="50.87" y="303.64" style="stroke: #000000; stroke-width: 0.8"/>
      </g>
     </g>
     <g id="text_9">
      <!-- 0 -->
      <g transform="translate(37.5075 307.439219)scale(0.1 -0.1)">
       <use xlink:href="#DejaVuSans-30"/>
      </g>
     </g>
    </g>
    <g id="ytick_2">
     <g id="line2d_9">
      <g>
       <use xlink:href="#m868b00cfb5" x="50.87" y="265.703384" style="stroke: #000000; stroke-width: 0.8"/>
      </g>
     </g>
     <g id="text_10">
      <!-- 20 -->
      <g transform="translate(31.145 269.502602)scale(0.1 -0.1)">
       <use xlink:href="#DejaVuSans-32"/>
       <use xlink:href="#DejaVuSans-30" x="63.623047"/>
      </g>
     </g>
    </g>
    <g id="ytick_3">
     <g id="line2d_10">
      <g>
       <use xlink:href="#m868b00cfb5" x="50.87" y="227.766767" style="stroke: #000000; stroke-width: 0.8"/>
      </g>
     </g>
     <g id="text_11">
      <!-- 40 -->
      <g transform="translate(31.145 231.565986)scale(0.1 -0.1)">
       <defs>
        <path id="DejaVuSans-34" d="M 2419 4116 
L 825 1625 
L 2419 1625 
L 2419 4116 
z
M 2253 4666 
L 3047 4666 
L 3047 1625 
L 3713 1625 
L 3713 1100 
L 3047 1100 
L 3047 0 
L 2419 0 
L 2419 1100 
L 313 1100 
L 313 1709 
L 2253 4666 
z
" transform="scale(0.015625)"/>
       </defs>
       <use xlink:href="#DejaVuSans-34"/>
       <use xlink:href="#DejaVuSans-30" x="63.623047"/>
      </g>
     </g>
    </g>
    <g id="ytick_4">
     <g id="line2d_11">
      <g>
       <use xlink:href="#m868b00cfb5" x="50.87" y="189.830151" style="stroke: #000000; stroke-width: 0.8"/>
      </g>
     </g>
     <g id="text_12">
      <!-- 60 -->
      <g transform="translate(31.145 193.62937)scale(0.1 -0.1)">
       <defs>
        <path id="DejaVuSans-36" d="M 2113 2584 
Q 1688 2584 1439 2293 
Q 1191 2003 1191 1497 
Q 1191 994 1439 701 
Q 1688 409 2113 409 
Q 2538 409 2786 701 
Q 3034 994 3034 1497 
Q 3034 2003 2786 2293 
Q 2538 2584 2113 2584 
z
M 3366 4563 
L 3366 3988 
Q 3128 4100 2886 4159 
Q 2644 4219 2406 4219 
Q 1781 4219 1451 3797 
Q 1122 3375 1075 2522 
Q 1259 2794 1537 2939 
Q 1816 3084 2150 3084 
Q 2853 3084 3261 2657 
Q 3669 2231 3669 1497 
Q 3669 778 3244 343 
Q 2819 -91 2113 -91 
Q 1303 -91 875 529 
Q 447 1150 447 2328 
Q 447 3434 972 4092 
Q 1497 4750 2381 4750 
Q 2619 4750 2861 4703 
Q 3103 4656 3366 4563 
z
" transform="scale(0.015625)"/>
       </defs>
       <use xlink:href="#DejaVuSans-36"/>
       <use xlink:href="#DejaVuSans-30" x="63.623047"/>
      </g>
     </g>
    </g>
    <g id="ytick_5">
     <g id="line2d_12">
      <g>
       <use xlink:href="#m868b00cfb5" x="50.87" y="151.893535" style="stroke: #000000; stroke-width: 0.8"/>
      </g>
     </g>
     <g id="text_13">
      <!-- 80 -->
      <g transform="translate(31.145 155.692753)scale(0.1 -0.1)">
       <defs>
        <path id="DejaVuSans-38" d="M 2034 2216 
Q 1584 2216 1326 1975 
Q 1069 1734 1069 1313 
Q 1069 891 1326 650 
Q 1584 409 2034 409 
Q 2484 409 2743 651 
Q 3003 894 3003 1313 
Q 3003 1734 2745 1975 
Q 2488 2216 2034 2216 
z
M 1403 2484 
Q 997 2584 770 2862 
Q 544 3141 544 3541 
Q 544 4100 942 4425 
Q 1341 4750 2034 4750 
Q 2731 4750 3128 4425 
Q 3525 4100 3525 3541 
Q 3525 3141 3298 2862 
Q 3072 2584 2669 2484 
Q 3125 2378 3379 2068 
Q 3634 1759 3634 1313 
Q 3634 634 3220 271 
Q 2806 -91 2034 -91 
Q 1263 -91 848 271 
Q 434 634 434 1313 
Q 434 1759 690 2068 
Q 947 2378 1403 2484 
z
M 1172 3481 
Q 1172 3119 1398 2916 
Q 1625 2713 2034 2713 
Q 2441 2713 2670 2916 
Q 2900 3119 2900 3481 
Q 2900 3844 2670 4047 
Q 2441 4250 2034 4250 
Q 1625 4250 1398 4047 
Q 1172 3844 1172 3481 
z
" transform="scale(0.015625)"/>
       </defs>
       <use xlink:href="#DejaVuSans-38"/>
       <use xlink:href="#DejaVuSans-30" x="63.623047"/>
      </g>
     </g>
    </g>
    <g id="ytick_6">
     <g id="line2d_13">
      <g>
       <use xlink:href="#m868b00cfb5" x="50.87" y="113.956918" style="stroke: #000000; stroke-width: 0.8"/>
      </g>
     </g>
     <g id="text_14">
      <!-- 100 -->
      <g transform="translate(24.7825 117.756137)scale(0.1 -0.1)">
       <use xlink:href="#DejaVuSans-31"/>
       <use xlink:href="#DejaVuSans-30" x="63.623047"/>
       <use xlink:href="#DejaVuSans-30" x="127.246094"/>
      </g>
     </g>
    </g>
    <g id="ytick_7">
     <g id="line2d_14">
      <g>
       <use xlink:href="#m868b00cfb5" x="50.87" y="76.020302" style="stroke: #000000; stroke-width: 0.8"/>
      </g>
     </g>
     <g id="text_15">
      <!-- 120 -->
      <g transform="translate(24.7825 79.819521)scale(0.1 -0.1)">
       <use xlink:href="#DejaVuSans-31"/>
       <use xlink:href="#DejaVuSans-32" x="63.623047"/>
       <use xlink:href="#DejaVuSans-30" x="127.246094"/>
      </g>
     </g>
    </g>
    <g id="ytick_8">
     <g id="line2d_15">
      <g>
       <use xlink:href="#m868b00cfb5" x="50.87" y="38.083686" style="stroke: #000000; stroke-width: 0.8"/>
      </g>
     </g>
     <g id="text_16">
      <!-- 140 -->
      <g transform="translate(24.7825 41.882904)scale(0.1 -0.1)">
       <use xlink:href="#DejaVuSans-31"/>
       <use xlink:href="#DejaVuSans-34" x="63.623047"/>
       <use xlink:href="#DejaVuSans-30" x="127.246094"/>
      </g>
     </g>
    </g>
    <g id="text_17">
     <!-- Number of Homicides -->
     <g transform="translate(18.702813 211.37625)rotate(-90)scale(0.1 -0.1)">
      <defs>
       <path id="DejaVuSans-4e" d="M 628 4666 
L 1478 4666 
L 3547 763 
L 3547 4666 
L 4159 4666 
L 4159 0 
L 3309 0 
L 1241 3903 
L 1241 0 
L 628 0 
L 628 4666 
z
" transform="scale(0.015625)"/>
       <path id="DejaVuSans-6d" d="M 3328 2828 
Q 3544 3216 3844 3400 
Q 4144 3584 4550 3584 
Q 5097 3584 5394 3201 
Q 5691 2819 5691 2113 
L 5691 0 
L 5113 0 
L 5113 2094 
Q 5113 2597 4934 2840 
Q 4756 3084 4391 3084 
Q 3944 3084 3684 2787 
Q 3425 2491 3425 1978 
L 3425 0 
L 2847 0 
L 2847 2094 
Q 2847 2600 2669 2842 
Q 2491 3084 2119 3084 
Q 1678 3084 1418 2786 
Q 1159 2488 1159 1978 
L 1159 0 
L 581 0 
L 581 3500 
L 1159 3500 
L 1159 2956 
Q 1356 3278 1631 3431 
Q 1906 3584 2284 3584 
Q 2666 3584 2933 3390 
Q 3200 3197 3328 2828 
z
" transform="scale(0.015625)"/>
       <path id="DejaVuSans-62" d="M 3116 1747 
Q 3116 2381 2855 2742 
Q 2594 3103 2138 3103 
Q 1681 3103 1420 2742 
Q 1159 2381 1159 1747 
Q 1159 1113 1420 752 
Q 1681 391 2138 391 
Q 2594 391 2855 752 
Q 3116 1113 3116 1747 
z
M 1159 2969 
Q 1341 3281 1617 3432 
Q 1894 3584 2278 3584 
Q 2916 3584 3314 3078 
Q 3713 2572 3713 1747 
Q 3713 922 3314 415 
Q 2916 -91 2278 -91 
Q 1894 -91 1617 61 
Q 1341 213 1159 525 
L 1159 0 
L 581 0 
L 581 4863 
L 1159 4863 
L 1159 2969 
z
" transform="scale(0.015625)"/>
       <path id="DejaVuSans-66" d="M 2375 4863 
L 2375 4384 
L 1825 4384 
Q 1516 4384 1395 4259 
Q 1275 4134 1275 3809 
L 1275 3500 
L 2222 3500 
L 2222 3053 
L 1275 3053 
L 1275 0 
L 697 0 
L 697 3053 
L 147 3053 
L 147 3500 
L 697 3500 
L 697 3744 
Q 697 4328 969 4595 
Q 1241 4863 1831 4863 
L 2375 4863 
z
" transform="scale(0.015625)"/>
       <path id="DejaVuSans-48" d="M 628 4666 
L 1259 4666 
L 1259 2753 
L 3553 2753 
L 3553 4666 
L 4184 4666 
L 4184 0 
L 3553 0 
L 3553 2222 
L 1259 2222 
L 1259 0 
L 628 0 
L 628 4666 
z
" transform="scale(0.015625)"/>
      </defs>
      <use xlink:href="#DejaVuSans-4e"/>
      <use xlink:href="#DejaVuSans-75" x="74.804688"/>
      <use xlink:href="#DejaVuSans-6d" x="138.183594"/>
      <use xlink:href="#DejaVuSans-62" x="235.595703"/>
      <use xlink:href="#DejaVuSans-65" x="299.072266"/>
      <use xlink:href="#DejaVuSans-72" x="360.595703"/>
      <use xlink:href="#DejaVuSans-20" x="401.708984"/>
      <use xlink:href="#DejaVuSans-6f" x="433.496094"/>
      <use xlink:href="#DejaVuSans-66" x="494.677734"/>
      <use xlink:href="#DejaVuSans-20" x="529.882812"/>
      <use xlink:href="#DejaVuSans-48" x="561.669922"/>
      <use xlink:href="#DejaVuSans-6f" x="636.865234"/>
      <use xlink:href="#DejaVuSans-6d" x="698.046875"/>
      <use xlink:href="#DejaVuSans-69" x="795.458984"/>
      <use xlink:href="#DejaVuSans-63" x="823.242188"/>
      <use xlink:href="#DejaVuSans-69" x="878.222656"/>
      <use xlink:href="#DejaVuSans-64" x="906.005859"/>
      <use xlink:href="#DejaVuSans-65" x="969.482422"/>
      <use xlink:href="#DejaVuSans-73" x="1031.005859"/>
     </g>
    </g>
   </g>
   <g id="line2d_16">
    <path d="M 50.87 232.368897 
L 59.01551 232.490856 
L 67.16102 232.612814 
L 75.306531 232.734773 
L 83.452041 232.856731 
L 91.597551 232.978689 
L 99.743061 233.100648 
L 107.888571 233.222606 
L 116.034082 233.344565 
L 124.179592 233.466523 
L 132.325102 233.588481 
L 140.470612 233.71044 
L 148.616122 233.832398 
L 156.761633 233.954357 
L 164.907143 234.076315 
L 173.052653 234.198274 
L 181.198163 234.320232 
L 189.343673 234.44219 
L 197.489184 234.564149 
L 205.634694 234.686107 
L 213.780204 234.808066 
L 221.925714 234.930024 
L 230.071224 235.051982 
L 238.216735 235.173941 
L 246.362245 235.295899 
L 254.507755 235.417858 
L 262.653265 235.539816 
L 270.798776 235.661775 
L 278.944286 235.783733 
L 287.089796 235.905691 
L 295.235306 236.02765 
L 303.380816 236.149608 
L 311.526327 236.271567 
L 319.671837 236.393525 
L 327.817347 236.515483 
L 335.962857 236.637442 
L 344.108367 236.7594 
L 352.253878 236.881359 
L 360.399388 237.003317 
L 368.544898 237.125275 
L 376.690408 237.247234 
L 384.835918 237.369192 
L 392.981429 237.491151 
L 401.126939 237.613109 
L 409.272449 237.735068 
L 417.417959 237.857026 
L 425.563469 237.978984 
L 433.70898 238.100943 
L 441.85449 238.222901 
L 450 238.34486 
" clip-path="url(#peeb0244e5a)" style="fill: none; stroke: #d70000; stroke-width: 1.5; stroke-linecap: square"/>
   </g>
   <g id="line2d_17">
    <path d="M 50.87 56.399828 
L 59.01551 57.903193 
L 67.16102 59.406558 
L 75.306531 60.909924 
L 83.452041 62.413289 
L 91.597551 63.916654 
L 99.743061 65.420019 
L 107.888571 66.923384 
L 116.034082 68.42675 
L 124.179592 69.930115 
L 132.325102 71.43348 
L 140.470612 72.936845 
L 148.616122 74.440211 
L 156.761633 75.943576 
L 164.907143 77.446941 
L 173.052653 78.950306 
L 181.198163 80.453672 
L 189.343673 81.957037 
L 197.489184 83.460402 
L 205.634694 84.963767 
L 213.780204 86.467133 
L 221.925714 87.970498 
L 230.071224 89.473863 
L 238.216735 90.977228 
L 246.362245 92.480594 
L 254.507755 93.983959 
L 262.653265 95.487324 
L 270.798776 96.990689 
L 278.944286 98.494055 
L 287.089796 99.99742 
L 295.235306 101.500785 
L 303.380816 103.00415 
L 311.526327 104.507516 
L 319.671837 106.010881 
L 327.817347 107.514246 
L 335.962857 109.017611 
L 344.108367 110.520977 
L 352.253878 112.024342 
L 360.399388 113.527707 
L 368.544898 115.031072 
L 376.690408 116.534437 
L 384.835918 118.037803 
L 392.981429 119.541168 
L 401.126939 121.044533 
L 409.272449 122.547898 
L 417.417959 124.051264 
L 425.563469 125.554629 
L 433.70898 127.057994 
L 441.85449 128.561359 
L 450 130.064725 
" clip-path="url(#peeb0244e5a)" style="fill: none; stroke: #8c3cff; stroke-width: 1.5; stroke-linecap: square"/>
   </g>
   <g id="line2d_18">
    <path d="M 50.87 205.522315 
L 59.01551 205.61784 
L 67.16102 205.713365 
L 75.306531 205.80889 
L 83.452041 205.904416 
L 91.597551 205.999941 
L 99.743061 206.095466 
L 107.888571 206.190991 
L 116.034082 206.286517 
L 124.179592 206.382042 
L 132.325102 206.477567 
L 140.470612 206.573092 
L 148.616122 206.668618 
L 156.761633 206.764143 
L 164.907143 206.859668 
L 173.052653 206.955193 
L 181.198163 207.050719 
L 189.343673 207.146244 
L 197.489184 207.241769 
L 205.634694 207.337294 
L 213.780204 207.43282 
L 221.925714 207.528345 
L 230.071224 207.62387 
L 238.216735 207.719395 
L 246.362245 207.81492 
L 254.507755 207.910446 
L 262.653265 208.005971 
L 270.798776 208.101496 
L 278.944286 208.197021 
L 287.089796 208.292547 
L 295.235306 208.388072 
L 303.380816 208.483597 
L 311.526327 208.579122 
L 319.671837 208.674648 
L 327.817347 208.770173 
L 335.962857 208.865698 
L 344.108367 208.961223 
L 352.253878 209.056749 
L 360.399388 209.152274 
L 368.544898 209.247799 
L 376.690408 209.343324 
L 384.835918 209.43885 
L 392.981429 209.534375 
L 401.126939 209.6299 
L 409.272449 209.725425 
L 417.417959 209.820951 
L 425.563469 209.916476 
L 433.70898 210.012001 
L 441.85449 210.107526 
L 450 210.203052 
" clip-path="url(#peeb0244e5a)" style="fill: none; stroke: #028800; stroke-width: 1.5; stroke-linecap: square"/>
   </g>
   <g id="line2d_19">
    <path d="M 50.87 214.023944 
L 59.01551 214.090005 
L 67.16102 214.156065 
L 75.306531 214.222125 
L 83.452041 214.288186 
L 91.597551 214.354246 
L 99.743061 214.420306 
L 107.888571 214.486367 
L 116.034082 214.552427 
L 124.179592 214.618487 
L 132.325102 214.684548 
L 140.470612 214.750608 
L 148.616122 214.816668 
L 156.761633 214.882729 
L 164.907143 214.948789 
L 173.052653 215.014849 
L 181.198163 215.08091 
L 189.343673 215.14697 
L 197.489184 215.21303 
L 205.634694 215.279091 
L 213.780204 215.345151 
L 221.925714 215.411211 
L 230.071224 215.477272 
L 238.216735 215.543332 
L 246.362245 215.609392 
L 254.507755 215.675453 
L 262.653265 215.741513 
L 270.798776 215.807573 
L 278.944286 215.873634 
L 287.089796 215.939694 
L 295.235306 216.005754 
L 303.380816 216.071815 
L 311.526327 216.137875 
L 319.671837 216.203935 
L 327.817347 216.269996 
L 335.962857 216.336056 
L 344.108367 216.402116 
L 352.253878 216.468177 
L 360.399388 216.534237 
L 368.544898 216.600297 
L 376.690408 216.666358 
L 384.835918 216.732418 
L 392.981429 216.798478 
L 401.126939 216.864539 
L 409.272449 216.930599 
L 417.417959 216.996659 
L 425.563469 217.06272 
L 433.70898 217.12878 
L 441.85449 217.19484 
L 450 217.260901 
" clip-path="url(#peeb0244e5a)" style="fill: none; stroke: #00acc7; stroke-width: 1.5; stroke-linecap: square"/>
   </g>
   <g id="line2d_20">
    <path d="M 50.87 143.762363 
L 59.01551 143.877038 
L 67.16102 143.991713 
L 75.306531 144.106389 
L 83.452041 144.221064 
L 91.597551 144.335739 
L 99.743061 144.450415 
L 107.888571 144.56509 
L 116.034082 144.679765 
L 124.179592 144.794441 
L 132.325102 144.909116 
L 140.470612 145.023791 
L 148.616122 145.138467 
L 156.761633 145.253142 
L 164.907143 145.367818 
L 173.052653 145.482493 
L 181.198163 145.597168 
L 189.343673 145.711844 
L 197.489184 145.826519 
L 205.634694 145.941194 
L 213.780204 146.05587 
L 221.925714 146.170545 
L 230.071224 146.28522 
L 238.216735 146.399896 
L 246.362245 146.514571 
L 254.507755 146.629246 
L 262.653265 146.743922 
L 270.798776 146.858597 
L 278.944286 146.973272 
L 287.089796 147.087948 
L 295.235306 147.202623 
L 303.380816 147.317298 
L 311.526327 147.431974 
L 319.671837 147.546649 
L 327.817347 147.661324 
L 335.962857 147.776 
L 344.108367 147.890675 
L 352.253878 148.005351 
L 360.399388 148.120026 
L 368.544898 148.234701 
L 376.690408 148.349377 
L 384.835918 148.464052 
L 392.981429 148.578727 
L 401.126939 148.693403 
L 409.272449 148.808078 
L 417.417959 148.922753 
L 425.563469 149.037429 
L 433.70898 149.152104 
L 441.85449 149.266779 
L 450 149.381455 
" clip-path="url(#peeb0244e5a)" style="fill: none; stroke: #ff7fd1; stroke-width: 1.5; stroke-linecap: square"/>
   </g>
   <g id="line2d_21">
    <path d="M 50.87 202.376687 
L 59.01551 202.189894 
L 67.16102 202.003101 
L 75.306531 201.816308 
L 83.452041 201.629515 
L 91.597551 201.442722 
L 99.743061 201.25593 
L 107.888571 201.069137 
L 116.034082 200.882344 
L 124.179592 200.695551 
L 132.325102 200.508758 
L 140.470612 200.321965 
L 148.616122 200.135172 
L 156.761633 199.948379 
L 164.907143 199.761586 
L 173.052653 199.574793 
L 181.198163 199.388 
L 189.343673 199.201207 
L 197.489184 199.014414 
L 205.634694 198.827621 
L 213.780204 198.640828 
L 221.925714 198.454035 
L 230.071224 198.267242 
L 238.216735 198.080449 
L 246.362245 197.893656 
L 254.507755 197.706864 
L 262.653265 197.520071 
L 270.798776 197.333278 
L 278.944286 197.146485 
L 287.089796 196.959692 
L 295.235306 196.772899 
L 303.380816 196.586106 
L 311.526327 196.399313 
L 319.671837 196.21252 
L 327.817347 196.025727 
L 335.962857 195.838934 
L 344.108367 195.652141 
L 352.253878 195.465348 
L 360.399388 195.278555 
L 368.544898 195.091762 
L 376.690408 194.904969 
L 384.835918 194.718176 
L 392.981429 194.531383 
L 401.126939 194.344591 
L 409.272449 194.157798 
L 417.417959 193.971005 
L 425.563469 193.784212 
L 433.70898 193.597419 
L 441.85449 193.410626 
L 450 193.223833 
" clip-path="url(#peeb0244e5a)" style="fill: none; stroke: #6c004f; stroke-width: 1.5; stroke-linecap: square"/>
   </g>
   <g id="line2d_22">
    <path d="M 50.87 166.68838 
L 59.01551 166.926496 
L 67.16102 167.164611 
L 75.306531 167.402727 
L 83.452041 167.640842 
L 91.597551 167.878958 
L 99.743061 168.117073 
L 107.888571 168.355189 
L 116.034082 168.593304 
L 124.179592 168.83142 
L 132.325102 169.069535 
L 140.470612 169.307651 
L 148.616122 169.545766 
L 156.761633 169.783882 
L 164.907143 170.021997 
L 173.052653 170.260113 
L 181.198163 170.498228 
L 189.343673 170.736344 
L 197.489184 170.974459 
L 205.634694 171.212575 
L 213.780204 171.45069 
L 221.925714 171.688806 
L 230.071224 171.926921 
L 238.216735 172.165037 
L 246.362245 172.403152 
L 254.507755 172.641268 
L 262.653265 172.879383 
L 270.798776 173.117498 
L 278.944286 173.355614 
L 287.089796 173.593729 
L 295.235306 173.831845 
L 303.380816 174.06996 
L 311.526327 174.308076 
L 319.671837 174.546191 
L 327.817347 174.784307 
L 335.962857 175.022422 
L 344.108367 175.260538 
L 352.253878 175.498653 
L 360.399388 175.736769 
L 368.544898 175.974884 
L 376.690408 176.213 
L 384.835918 176.451115 
L 392.981429 176.689231 
L 401.126939 176.927346 
L 409.272449 177.165462 
L 417.417959 177.403577 
L 425.563469 177.641693 
L 433.70898 177.879808 
L 441.85449 178.117924 
L 450 178.356039 
" clip-path="url(#peeb0244e5a)" style="fill: none; stroke: #583b00; stroke-width: 1.5; stroke-linecap: square"/>
   </g>
   <g id="line2d_23">
    <path d="M 50.87 155.501844 
L 59.01551 155.935178 
L 67.16102 156.368511 
L 75.306531 156.801844 
L 83.452041 157.235178 
L 91.597551 157.668511 
L 99.743061 158.101845 
L 107.888571 158.535178 
L 116.034082 158.968512 
L 124.179592 159.401845 
L 132.325102 159.835178 
L 140.470612 160.268512 
L 148.616122 160.701845 
L 156.761633 161.135179 
L 164.907143 161.568512 
L 173.052653 162.001845 
L 181.198163 162.435179 
L 189.343673 162.868512 
L 197.489184 163.301846 
L 205.634694 163.735179 
L 213.780204 164.168513 
L 221.925714 164.601846 
L 230.071224 165.035179 
L 238.216735 165.468513 
L 246.362245 165.901846 
L 254.507755 166.33518 
L 262.653265 166.768513 
L 270.798776 167.201847 
L 278.944286 167.63518 
L 287.089796 168.068513 
L 295.235306 168.501847 
L 303.380816 168.93518 
L 311.526327 169.368514 
L 319.671837 169.801847 
L 327.817347 170.23518 
L 335.962857 170.668514 
L 344.108367 171.101847 
L 352.253878 171.535181 
L 360.399388 171.968514 
L 368.544898 172.401848 
L 376.690408 172.835181 
L 384.835918 173.268514 
L 392.981429 173.701848 
L 401.126939 174.135181 
L 409.272449 174.568515 
L 417.417959 175.001848 
L 425.563469 175.435182 
L 433.70898 175.868515 
L 441.85449 176.301848 
L 450 176.735182 
" clip-path="url(#peeb0244e5a)" style="fill: none; stroke: #005759; stroke-width: 1.5; stroke-linecap: square"/>
   </g>
   <g id="line2d_24">
    <path d="M 50.87 154.789326 
L 59.01551 155.56524 
L 67.16102 156.341154 
L 75.306531 157.117067 
L 83.452041 157.892981 
L 91.597551 158.668895 
L 99.743061 159.444809 
L 107.888571 160.220723 
L 116.034082 160.996637 
L 124.179592 161.77255 
L 132.325102 162.548464 
L 140.470612 163.324378 
L 148.616122 164.100292 
L 156.761633 164.876206 
L 164.907143 165.65212 
L 173.052653 166.428033 
L 181.198163 167.203947 
L 189.343673 167.979861 
L 197.489184 168.755775 
L 205.634694 169.531689 
L 213.780204 170.307603 
L 221.925714 171.083516 
L 230.071224 171.85943 
L 238.216735 172.635344 
L 246.362245 173.411258 
L 254.507755 174.187172 
L 262.653265 174.963086 
L 270.798776 175.738999 
L 278.944286 176.514913 
L 287.089796 177.290827 
L 295.235306 178.066741 
L 303.380816 178.842655 
L 311.526327 179.618569 
L 319.671837 180.394483 
L 327.817347 181.170396 
L 335.962857 181.94631 
L 344.108367 182.722224 
L 352.253878 183.498138 
L 360.399388 184.274052 
L 368.544898 185.049966 
L 376.690408 185.825879 
L 384.835918 186.601793 
L 392.981429 187.377707 
L 401.126939 188.153621 
L 409.272449 188.929535 
L 417.417959 189.705449 
L 425.563469 190.481362 
L 433.70898 191.257276 
L 441.85449 192.03319 
L 450 192.809104 
" clip-path="url(#peeb0244e5a)" style="fill: none; stroke: #0000dd; stroke-width: 1.5; stroke-linecap: square"/>
   </g>
   <g id="line2d_25">
    <path d="M 50.87 227.062628 
L 59.01551 227.285976 
L 67.16102 227.509324 
L 75.306531 227.732671 
L 83.452041 227.956019 
L 91.597551 228.179366 
L 99.743061 228.402714 
L 107.888571 228.626062 
L 116.034082 228.849409 
L 124.179592 229.072757 
L 132.325102 229.296104 
L 140.470612 229.519452 
L 148.616122 229.7428 
L 156.761633 229.966147 
L 164.907143 230.189495 
L 173.052653 230.412842 
L 181.198163 230.63619 
L 189.343673 230.859538 
L 197.489184 231.082885 
L 205.634694 231.306233 
L 213.780204 231.52958 
L 221.925714 231.752928 
L 230.071224 231.976276 
L 238.216735 232.199623 
L 246.362245 232.422971 
L 254.507755 232.646318 
L 262.653265 232.869666 
L 270.798776 233.093014 
L 278.944286 233.316361 
L 287.089796 233.539709 
L 295.235306 233.763056 
L 303.380816 233.986404 
L 311.526327 234.209752 
L 319.671837 234.433099 
L 327.817347 234.656447 
L 335.962857 234.879794 
L 344.108367 235.103142 
L 352.253878 235.32649 
L 360.399388 235.549837 
L 368.544898 235.773185 
L 376.690408 235.996532 
L 384.835918 236.21988 
L 392.981429 236.443228 
L 401.126939 236.666575 
L 409.272449 236.889923 
L 417.417959 237.11327 
L 425.563469 237.336618 
L 433.70898 237.559966 
L 441.85449 237.783313 
L 450 238.006661 
" clip-path="url(#peeb0244e5a)" style="fill: none; stroke: #a1756a; stroke-width: 1.5; stroke-linecap: square"/>
   </g>
   <g id="line2d_26">
    <path d="M 50.87 209.218783 
L 59.01551 208.873956 
L 67.16102 208.529128 
L 75.306531 208.1843 
L 83.452041 207.839472 
L 91.597551 207.494645 
L 99.743061 207.149817 
L 107.888571 206.804989 
L 116.034082 206.460161 
L 124.179592 206.115334 
L 132.325102 205.770506 
L 140.470612 205.425678 
L 148.616122 205.08085 
L 156.761633 204.736023 
L 164.907143 204.391195 
L 173.052653 204.046367 
L 181.198163 203.701539 
L 189.343673 203.356712 
L 197.489184 203.011884 
L 205.634694 202.667056 
L 213.780204 202.322228 
L 221.925714 201.977401 
L 230.071224 201.632573 
L 238.216735 201.287745 
L 246.362245 200.942917 
L 254.507755 200.59809 
L 262.653265 200.253262 
L 270.798776 199.908434 
L 278.944286 199.563606 
L 287.089796 199.218779 
L 295.235306 198.873951 
L 303.380816 198.529123 
L 311.526327 198.184295 
L 319.671837 197.839468 
L 327.817347 197.49464 
L 335.962857 197.149812 
L 344.108367 196.804984 
L 352.253878 196.460157 
L 360.399388 196.115329 
L 368.544898 195.770501 
L 376.690408 195.425673 
L 384.835918 195.080846 
L 392.981429 194.736018 
L 401.126939 194.39119 
L 409.272449 194.046362 
L 417.417959 193.701535 
L 425.563469 193.356707 
L 433.70898 193.011879 
L 441.85449 192.667051 
L 450 192.322224 
" clip-path="url(#peeb0244e5a)" style="fill: none; stroke: #bcb7ff; stroke-width: 1.5; stroke-linecap: square"/>
   </g>
   <g id="line2d_27">
    <path d="M 50.87 186.806809 
L 59.01551 187.000432 
L 67.16102 187.194055 
L 75.306531 187.387678 
L 83.452041 187.581302 
L 91.597551 187.774925 
L 99.743061 187.968548 
L 107.888571 188.162171 
L 116.034082 188.355794 
L 124.179592 188.549417 
L 132.325102 188.74304 
L 140.470612 188.936663 
L 148.616122 189.130286 
L 156.761633 189.323909 
L 164.907143 189.517532 
L 173.052653 189.711155 
L 181.198163 189.904778 
L 189.343673 190.098402 
L 197.489184 190.292025 
L 205.634694 190.485648 
L 213.780204 190.679271 
L 221.925714 190.872894 
L 230.071224 191.066517 
L 238.216735 191.26014 
L 246.362245 191.453763 
L 254.507755 191.647386 
L 262.653265 191.841009 
L 270.798776 192.034632 
L 278.944286 192.228255 
L 287.089796 192.421878 
L 295.235306 192.615502 
L 303.380816 192.809125 
L 311.526327 193.002748 
L 319.671837 193.196371 
L 327.817347 193.389994 
L 335.962857 193.583617 
L 344.108367 193.77724 
L 352.253878 193.970863 
L 360.399388 194.164486 
L 368.544898 194.358109 
L 376.690408 194.551732 
L 384.835918 194.745355 
L 392.981429 194.938978 
L 401.126939 195.132602 
L 409.272449 195.326225 
L 417.417959 195.519848 
L 425.563469 195.713471 
L 433.70898 195.907094 
L 441.85449 196.100717 
L 450 196.29434 
" clip-path="url(#peeb0244e5a)" style="fill: none; stroke: #95b578; stroke-width: 1.5; stroke-linecap: square"/>
   </g>
   <g id="line2d_28">
    <path d="M 50.87 127.754806 
L 59.01551 128.086564 
L 67.16102 128.418323 
L 75.306531 128.750081 
L 83.452041 129.08184 
L 91.597551 129.413599 
L 99.743061 129.745357 
L 107.888571 130.077116 
L 116.034082 130.408874 
L 124.179592 130.740633 
L 132.325102 131.072392 
L 140.470612 131.40415 
L 148.616122 131.735909 
L 156.761633 132.067667 
L 164.907143 132.399426 
L 173.052653 132.731185 
L 181.198163 133.062943 
L 189.343673 133.394702 
L 197.489184 133.726461 
L 205.634694 134.058219 
L 213.780204 134.389978 
L 221.925714 134.721736 
L 230.071224 135.053495 
L 238.216735 135.385254 
L 246.362245 135.717012 
L 254.507755 136.048771 
L 262.653265 136.380529 
L 270.798776 136.712288 
L 278.944286 137.044047 
L 287.089796 137.375805 
L 295.235306 137.707564 
L 303.380816 138.039322 
L 311.526327 138.371081 
L 319.671837 138.70284 
L 327.817347 139.034598 
L 335.962857 139.366357 
L 344.108367 139.698115 
L 352.253878 140.029874 
L 360.399388 140.361633 
L 368.544898 140.693391 
L 376.690408 141.02515 
L 384.835918 141.356908 
L 392.981429 141.688667 
L 401.126939 142.020426 
L 409.272449 142.352184 
L 417.417959 142.683943 
L 425.563469 143.015701 
L 433.70898 143.34746 
L 441.85449 143.679219 
L 450 144.010977 
" clip-path="url(#peeb0244e5a)" style="fill: none; stroke: #c004b9; stroke-width: 1.5; stroke-linecap: square"/>
   </g>
   <g id="line2d_29">
    <path d="M 50.87 216.106744 
L 59.01551 216.341746 
L 67.16102 216.576747 
L 75.306531 216.811748 
L 83.452041 217.046749 
L 91.597551 217.28175 
L 99.743061 217.516751 
L 107.888571 217.751752 
L 116.034082 217.986753 
L 124.179592 218.221754 
L 132.325102 218.456755 
L 140.470612 218.691757 
L 148.616122 218.926758 
L 156.761633 219.161759 
L 164.907143 219.39676 
L 173.052653 219.631761 
L 181.198163 219.866762 
L 189.343673 220.101763 
L 197.489184 220.336764 
L 205.634694 220.571765 
L 213.780204 220.806766 
L 221.925714 221.041768 
L 230.071224 221.276769 
L 238.216735 221.51177 
L 246.362245 221.746771 
L 254.507755 221.981772 
L 262.653265 222.216773 
L 270.798776 222.451774 
L 278.944286 222.686775 
L 287.089796 222.921776 
L 295.235306 223.156777 
L 303.380816 223.391779 
L 311.526327 223.62678 
L 319.671837 223.861781 
L 327.817347 224.096782 
L 335.962857 224.331783 
L 344.108367 224.566784 
L 352.253878 224.801785 
L 360.399388 225.036786 
L 368.544898 225.271787 
L 376.690408 225.506788 
L 384.835918 225.74179 
L 392.981429 225.976791 
L 401.126939 226.211792 
L 409.272449 226.446793 
L 417.417959 226.681794 
L 425.563469 226.916795 
L 433.70898 227.151796 
L 441.85449 227.386797 
L 450 227.621798 
" clip-path="url(#peeb0244e5a)" style="fill: none; stroke: #0774d8; stroke-width: 1.5; stroke-linecap: square"/>
   </g>
   <g id="line2d_30">
    <path d="M 50.87 53.581486 
L 59.01551 52.958485 
L 67.16102 52.335484 
L 75.306531 51.712484 
L 83.452041 51.089483 
L 91.597551 50.466482 
L 99.743061 49.843482 
L 107.888571 49.220481 
L 116.034082 48.59748 
L 124.179592 47.97448 
L 132.325102 47.351479 
L 140.470612 46.728478 
L 148.616122 46.105478 
L 156.761633 45.482477 
L 164.907143 44.859476 
L 173.052653 44.236475 
L 181.198163 43.613475 
L 189.343673 42.990474 
L 197.489184 42.367473 
L 205.634694 41.744473 
L 213.780204 41.121472 
L 221.925714 40.498471 
L 230.071224 39.875471 
L 238.216735 39.25247 
L 246.362245 38.629469 
L 254.507755 38.006469 
L 262.653265 37.383468 
L 270.798776 36.760467 
L 278.944286 36.137467 
L 287.089796 35.514466 
L 295.235306 34.891465 
L 303.380816 34.268465 
L 311.526327 33.645464 
L 319.671837 33.022463 
L 327.817347 32.399463 
L 335.962857 31.776462 
L 344.108367 31.153461 
L 352.253878 30.530461 
L 360.399388 29.90746 
L 368.544898 29.284459 
L 376.690408 28.661458 
L 384.835918 28.038458 
L 392.981429 27.415457 
L 401.126939 26.792456 
L 409.272449 26.169456 
L 417.417959 25.546455 
L 425.563469 24.923454 
L 433.70898 24.300454 
L 441.85449 23.677453 
L 450 23.054452 
" clip-path="url(#peeb0244e5a)" style="fill: none; stroke: #8f7a00; stroke-width: 1.5; stroke-linecap: square"/>
   </g>
   <g id="line2d_31">
    <path d="M 50.87 165.604049 
L 59.01551 166.540118 
L 67.16102 167.476187 
L 75.306531 168.412255 
L 83.452041 169.348324 
L 91.597551 170.284392 
L 99.743061 171.220461 
L 107.888571 172.15653 
L 116.034082 173.092598 
L 124.179592 174.028667 
L 132.325102 174.964736 
L 140.470612 175.900804 
L 148.616122 176.836873 
L 156.761633 177.772942 
L 164.907143 178.70901 
L 173.052653 179.645079 
L 181.198163 180.581148 
L 189.343673 181.517216 
L 197.489184 182.453285 
L 205.634694 183.389354 
L 213.780204 184.325422 
L 221.925714 185.261491 
L 230.071224 186.197559 
L 238.216735 187.133628 
L 246.362245 188.069697 
L 254.507755 189.005765 
L 262.653265 189.941834 
L 270.798776 190.877903 
L 278.944286 191.813971 
L 287.089796 192.75004 
L 295.235306 193.686109 
L 303.380816 194.622177 
L 311.526327 195.558246 
L 319.671837 196.494315 
L 327.817347 197.430383 
L 335.962857 198.366452 
L 344.108367 199.30252 
L 352.253878 200.238589 
L 360.399388 201.174658 
L 368.544898 202.110726 
L 376.690408 203.046795 
L 384.835918 203.982864 
L 392.981429 204.918932 
L 401.126939 205.855001 
L 409.272449 206.79107 
L 417.417959 207.727138 
L 425.563469 208.663207 
L 433.70898 209.599276 
L 441.85449 210.535344 
L 450 211.471413 
" clip-path="url(#peeb0244e5a)" style="fill: none; stroke: #ff7266; stroke-width: 1.5; stroke-linecap: square"/>
   </g>
   <g id="line2d_32">
    <path d="M 50.87 261.155838 
L 59.01551 261.298443 
L 67.16102 261.441049 
L 75.306531 261.583654 
L 83.452041 261.726259 
L 91.597551 261.868865 
L 99.743061 262.01147 
L 107.888571 262.154075 
L 116.034082 262.296681 
L 124.179592 262.439286 
L 132.325102 262.581891 
L 140.470612 262.724497 
L 148.616122 262.867102 
L 156.761633 263.009707 
L 164.907143 263.152313 
L 173.052653 263.294918 
L 181.198163 263.437523 
L 189.343673 263.580129 
L 197.489184 263.722734 
L 205.634694 263.865339 
L 213.780204 264.007945 
L 221.925714 264.15055 
L 230.071224 264.293155 
L 238.216735 264.435761 
L 246.362245 264.578366 
L 254.507755 264.720971 
L 262.653265 264.863577 
L 270.798776 265.006182 
L 278.944286 265.148787 
L 287.089796 265.291393 
L 295.235306 265.433998 
L 303.380816 265.576603 
L 311.526327 265.719209 
L 319.671837 265.861814 
L 327.817347 266.00442 
L 335.962857 266.147025 
L 344.108367 266.28963 
L 352.253878 266.432236 
L 360.399388 266.574841 
L 368.544898 266.717446 
L 376.690408 266.860052 
L 384.835918 267.002657 
L 392.981429 267.145262 
L 401.126939 267.287868 
L 409.272449 267.430473 
L 417.417959 267.573078 
L 425.563469 267.715684 
L 433.70898 267.858289 
L 441.85449 268.000894 
L 450 268.1435 
" clip-path="url(#peeb0244e5a)" style="fill: none; stroke: #5e7e66; stroke-width: 1.5; stroke-linecap: square"/>
   </g>
   <g id="line2d_33">
    <path d="M 50.87 184.974435 
L 59.01551 184.395466 
L 67.16102 183.816497 
L 75.306531 183.237528 
L 83.452041 182.658559 
L 91.597551 182.07959 
L 99.743061 181.500621 
L 107.888571 180.921652 
L 116.034082 180.342683 
L 124.179592 179.763714 
L 132.325102 179.184745 
L 140.470612 178.605776 
L 148.616122 178.026807 
L 156.761633 177.447838 
L 164.907143 176.868869 
L 173.052653 176.2899 
L 181.198163 175.710931 
L 189.343673 175.131962 
L 197.489184 174.552993 
L 205.634694 173.974024 
L 213.780204 173.395055 
L 221.925714 172.816086 
L 230.071224 172.237117 
L 238.216735 171.658148 
L 246.362245 171.079179 
L 254.507755 170.50021 
L 262.653265 169.921241 
L 270.798776 169.342272 
L 278.944286 168.763303 
L 287.089796 168.184334 
L 295.235306 167.605365 
L 303.380816 167.026396 
L 311.526327 166.447427 
L 319.671837 165.868457 
L 327.817347 165.289488 
L 335.962857 164.710519 
L 344.108367 164.13155 
L 352.253878 163.552581 
L 360.399388 162.973612 
L 368.544898 162.394643 
L 376.690408 161.815674 
L 384.835918 161.236705 
L 392.981429 160.657736 
L 401.126939 160.078767 
L 409.272449 159.499798 
L 417.417959 158.920829 
L 425.563469 158.34186 
L 433.70898 157.762891 
L 441.85449 157.183922 
L 450 156.604953 
" clip-path="url(#peeb0244e5a)" style="fill: none; stroke: #9be4ff; stroke-width: 1.5; stroke-linecap: square"/>
   </g>
   <g id="patch_3">
    <path d="M 50.87 303.64 
L 50.87 10.8 
" style="fill: none; stroke: #000000; stroke-width: 0.8; stroke-linejoin: miter; stroke-linecap: square"/>
   </g>
   <g id="patch_4">
    <path d="M 450 303.64 
L 450 10.8 
" style="fill: none; stroke: #000000; stroke-width: 0.8; stroke-linejoin: miter; stroke-linecap: square"/>
   </g>
   <g id="patch_5">
    <path d="M 50.87 303.64 
L 450 303.64 
" style="fill: none; stroke: #000000; stroke-width: 0.8; stroke-linejoin: miter; stroke-linecap: square"/>
   </g>
   <g id="patch_6">
    <path d="M 50.87 10.8 
L 450 10.8 
" style="fill: none; stroke: #000000; stroke-width: 0.8; stroke-linejoin: miter; stroke-linecap: square"/>
   </g>
   <g id="legend_1">
    <g id="patch_7">
     <path d="M 333.726562 150.903125 
L 443 150.903125 
Q 445 150.903125 445 148.903125 
L 445 17.8 
Q 445 15.8 443 15.8 
L 333.726562 15.8 
Q 331.726562 15.8 331.726562 17.8 
L 331.726562 148.903125 
Q 331.726562 150.903125 333.726562 150.903125 
z
" style="fill: #ffffff; opacity: 0.8; stroke: #cccccc; stroke-linejoin: miter"/>
    </g>
    <g id="line2d_34">
     <path d="M 335.726562 23.898438 
L 345.726562 23.898438 
L 355.726562 23.898438 
" style="fill: none; stroke: #d70000; stroke-width: 1.5; stroke-linecap: square"/>
    </g>
    <g id="text_18">
     <!-- AT -->
     <g transform="translate(363.726562 27.398438)scale(0.1 -0.1)">
      <defs>
       <path id="DejaVuSans-41" d="M 2188 4044 
L 1331 1722 
L 3047 1722 
L 2188 4044 
z
M 1831 4666 
L 2547 4666 
L 4325 0 
L 3669 0 
L 3244 1197 
L 1141 1197 
L 716 0 
L 50 0 
L 1831 4666 
z
" transform="scale(0.015625)"/>
       <path id="DejaVuSans-54" d="M -19 4666 
L 3928 4666 
L 3928 4134 
L 2272 4134 
L 2272 0 
L 1638 0 
L 1638 4134 
L -19 4134 
L -19 4666 
z
" transform="scale(0.015625)"/>
      </defs>
      <use xlink:href="#DejaVuSans-41"/>
      <use xlink:href="#DejaVuSans-54" x="60.658203"/>
     </g>
    </g>
    <g id="line2d_35">
     <path d="M 335.726562 38.576563 
L 345.726562 38.576563 
L 355.726562 38.576563 
" style="fill: none; stroke: #8c3cff; stroke-width: 1.5; stroke-linecap: square"/>
    </g>
    <g id="text_19">
     <!-- BE -->
     <g transform="translate(363.726562 42.076563)scale(0.1 -0.1)">
      <defs>
       <path id="DejaVuSans-42" d="M 1259 2228 
L 1259 519 
L 2272 519 
Q 2781 519 3026 730 
Q 3272 941 3272 1375 
Q 3272 1813 3026 2020 
Q 2781 2228 2272 2228 
L 1259 2228 
z
M 1259 4147 
L 1259 2741 
L 2194 2741 
Q 2656 2741 2882 2914 
Q 3109 3088 3109 3444 
Q 3109 3797 2882 3972 
Q 2656 4147 2194 4147 
L 1259 4147 
z
M 628 4666 
L 2241 4666 
Q 2963 4666 3353 4366 
Q 3744 4066 3744 3513 
Q 3744 3084 3544 2831 
Q 3344 2578 2956 2516 
Q 3422 2416 3680 2098 
Q 3938 1781 3938 1306 
Q 3938 681 3513 340 
Q 3088 0 2303 0 
L 628 0 
L 628 4666 
z
" transform="scale(0.015625)"/>
      </defs>
      <use xlink:href="#DejaVuSans-42"/>
      <use xlink:href="#DejaVuSans-45" x="68.603516"/>
     </g>
    </g>
    <g id="line2d_36">
     <path d="M 335.726562 53.254688 
L 345.726562 53.254688 
L 355.726562 53.254688 
" style="fill: none; stroke: #028800; stroke-width: 1.5; stroke-linecap: square"/>
    </g>
    <g id="text_20">
     <!-- BG -->
     <g transform="translate(363.726562 56.754688)scale(0.1 -0.1)">
      <use xlink:href="#DejaVuSans-42"/>
      <use xlink:href="#DejaVuSans-47" x="66.853516"/>
     </g>
    </g>
    <g id="line2d_37">
     <path d="M 335.726562 67.932813 
L 345.726562 67.932813 
L 355.726562 67.932813 
" style="fill: none; stroke: #00acc7; stroke-width: 1.5; stroke-linecap: square"/>
    </g>
    <g id="text_21">
     <!-- CY -->
     <g transform="translate(363.726562 71.432813)scale(0.1 -0.1)">
      <defs>
       <path id="DejaVuSans-43" d="M 4122 4306 
L 4122 3641 
Q 3803 3938 3442 4084 
Q 3081 4231 2675 4231 
Q 1875 4231 1450 3742 
Q 1025 3253 1025 2328 
Q 1025 1406 1450 917 
Q 1875 428 2675 428 
Q 3081 428 3442 575 
Q 3803 722 4122 1019 
L 4122 359 
Q 3791 134 3420 21 
Q 3050 -91 2638 -91 
Q 1578 -91 968 557 
Q 359 1206 359 2328 
Q 359 3453 968 4101 
Q 1578 4750 2638 4750 
Q 3056 4750 3426 4639 
Q 3797 4528 4122 4306 
z
" transform="scale(0.015625)"/>
       <path id="DejaVuSans-59" d="M -13 4666 
L 666 4666 
L 1959 2747 
L 3244 4666 
L 3922 4666 
L 2272 2222 
L 2272 0 
L 1638 0 
L 1638 2222 
L -13 4666 
z
" transform="scale(0.015625)"/>
      </defs>
      <use xlink:href="#DejaVuSans-43"/>
      <use xlink:href="#DejaVuSans-59" x="68.074219"/>
     </g>
    </g>
    <g id="line2d_38">
     <path d="M 335.726562 82.610938 
L 345.726562 82.610938 
L 355.726562 82.610938 
" style="fill: none; stroke: #ff7fd1; stroke-width: 1.5; stroke-linecap: square"/>
    </g>
    <g id="text_22">
     <!-- DE -->
     <g transform="translate(363.726562 86.110938)scale(0.1 -0.1)">
      <use xlink:href="#DejaVuSans-44"/>
      <use xlink:href="#DejaVuSans-45" x="77.001953"/>
     </g>
    </g>
    <g id="line2d_39">
     <path d="M 335.726562 97.289063 
L 345.726562 97.289063 
L 355.726562 97.289063 
" style="fill: none; stroke: #6c004f; stroke-width: 1.5; stroke-linecap: square"/>
    </g>
    <g id="text_23">
     <!-- DK -->
     <g transform="translate(363.726562 100.789063)scale(0.1 -0.1)">
      <defs>
       <path id="DejaVuSans-4b" d="M 628 4666 
L 1259 4666 
L 1259 2694 
L 3353 4666 
L 4166 4666 
L 1850 2491 
L 4331 0 
L 3500 0 
L 1259 2247 
L 1259 0 
L 628 0 
L 628 4666 
z
" transform="scale(0.015625)"/>
      </defs>
      <use xlink:href="#DejaVuSans-44"/>
      <use xlink:href="#DejaVuSans-4b" x="77.001953"/>
     </g>
    </g>
    <g id="line2d_40">
     <path d="M 335.726562 111.967188 
L 345.726562 111.967188 
L 355.726562 111.967188 
" style="fill: none; stroke: #583b00; stroke-width: 1.5; stroke-linecap: square"/>
    </g>
    <g id="text_24">
     <!-- EL -->
     <g transform="translate(363.726562 115.467188)scale(0.1 -0.1)">
      <defs>
       <path id="DejaVuSans-4c" d="M 628 4666 
L 1259 4666 
L 1259 531 
L 3531 531 
L 3531 0 
L 628 0 
L 628 4666 
z
" transform="scale(0.015625)"/>
      </defs>
      <use xlink:href="#DejaVuSans-45"/>
      <use xlink:href="#DejaVuSans-4c" x="63.183594"/>
     </g>
    </g>
    <g id="line2d_41">
     <path d="M 335.726562 126.645313 
L 345.726562 126.645313 
L 355.726562 126.645313 
" style="fill: none; stroke: #005759; stroke-width: 1.5; stroke-linecap: square"/>
    </g>
    <g id="text_25">
     <!-- ES -->
     <g transform="translate(363.726562 130.145313)scale(0.1 -0.1)">
      <use xlink:href="#DejaVuSans-45"/>
      <use xlink:href="#DejaVuSans-53" x="63.183594"/>
     </g>
    </g>
    <g id="line2d_42">
     <path d="M 335.726562 141.323438 
L 345.726562 141.323438 
L 355.726562 141.323438 
" style="fill: none; stroke: #0000dd; stroke-width: 1.5; stroke-linecap: square"/>
    </g>
    <g id="text_26">
     <!-- FI -->
     <g transform="translate(363.726562 144.823438)scale(0.1 -0.1)">
      <defs>
       <path id="DejaVuSans-46" d="M 628 4666 
L 3309 4666 
L 3309 4134 
L 1259 4134 
L 1259 2759 
L 3109 2759 
L 3109 2228 
L 1259 2228 
L 1259 0 
L 628 0 
L 628 4666 
z
" transform="scale(0.015625)"/>
       <path id="DejaVuSans-49" d="M 628 4666 
L 1259 4666 
L 1259 0 
L 628 0 
L 628 4666 
z
" transform="scale(0.015625)"/>
      </defs>
      <use xlink:href="#DejaVuSans-46"/>
      <use xlink:href="#DejaVuSans-49" x="57.519531"/>
     </g>
    </g>
    <g id="line2d_43">
     <path d="M 398.160937 23.898438 
L 408.160937 23.898438 
L 418.160937 23.898438 
" style="fill: none; stroke: #a1756a; stroke-width: 1.5; stroke-linecap: square"/>
    </g>
    <g id="text_27">
     <!-- HU -->
     <g transform="translate(426.160937 27.398438)scale(0.1 -0.1)">
      <use xlink:href="#DejaVuSans-48"/>
      <use xlink:href="#DejaVuSans-55" x="75.195312"/>
     </g>
    </g>
    <g id="line2d_44">
     <path d="M 398.160937 38.576563 
L 408.160937 38.576563 
L 418.160937 38.576563 
" style="fill: none; stroke: #bcb7ff; stroke-width: 1.5; stroke-linecap: square"/>
    </g>
    <g id="text_28">
     <!-- IE -->
     <g transform="translate(426.160937 42.076563)scale(0.1 -0.1)">
      <use xlink:href="#DejaVuSans-49"/>
      <use xlink:href="#DejaVuSans-45" x="29.492188"/>
     </g>
    </g>
    <g id="line2d_45">
     <path d="M 398.160937 53.254688 
L 408.160937 53.254688 
L 418.160937 53.254688 
" style="fill: none; stroke: #95b578; stroke-width: 1.5; stroke-linecap: square"/>
    </g>
    <g id="text_29">
     <!-- IT -->
     <g transform="translate(426.160937 56.754688)scale(0.1 -0.1)">
      <use xlink:href="#DejaVuSans-49"/>
      <use xlink:href="#DejaVuSans-54" x="29.492188"/>
     </g>
    </g>
    <g id="line2d_46">
     <path d="M 398.160937 67.932813 
L 408.160937 67.932813 
L 418.160937 67.932813 
" style="fill: none; stroke: #c004b9; stroke-width: 1.5; stroke-linecap: square"/>
    </g>
    <g id="text_30">
     <!-- LT -->
     <g transform="translate(426.160937 71.432813)scale(0.1 -0.1)">
      <use xlink:href="#DejaVuSans-4c"/>
      <use xlink:href="#DejaVuSans-54" x="41.962891"/>
     </g>
    </g>
    <g id="line2d_47">
     <path d="M 398.160937 82.610938 
L 408.160937 82.610938 
L 418.160937 82.610938 
" style="fill: none; stroke: #0774d8; stroke-width: 1.5; stroke-linecap: square"/>
    </g>
    <g id="text_31">
     <!-- MT -->
     <g transform="translate(426.160937 86.110938)scale(0.1 -0.1)">
      <defs>
       <path id="DejaVuSans-4d" d="M 628 4666 
L 1569 4666 
L 2759 1491 
L 3956 4666 
L 4897 4666 
L 4897 0 
L 4281 0 
L 4281 4097 
L 3078 897 
L 2444 897 
L 1241 4097 
L 1241 0 
L 628 0 
L 628 4666 
z
" transform="scale(0.015625)"/>
      </defs>
      <use xlink:href="#DejaVuSans-4d"/>
      <use xlink:href="#DejaVuSans-54" x="86.279297"/>
     </g>
    </g>
    <g id="line2d_48">
     <path d="M 398.160937 97.289063 
L 408.160937 97.289063 
L 418.160937 97.289063 
" style="fill: none; stroke: #8f7a00; stroke-width: 1.5; stroke-linecap: square"/>
    </g>
    <g id="text_32">
     <!-- PT -->
     <g transform="translate(426.160937 100.789063)scale(0.1 -0.1)">
      <use xlink:href="#DejaVuSans-50"/>
      <use xlink:href="#DejaVuSans-54" x="60.302734"/>
     </g>
    </g>
    <g id="line2d_49">
     <path d="M 398.160937 111.967188 
L 408.160937 111.967188 
L 418.160937 111.967188 
" style="fill: none; stroke: #ff7266; stroke-width: 1.5; stroke-linecap: square"/>
    </g>
    <g id="text_33">
     <!-- RO -->
     <g transform="translate(426.160937 115.467188)scale(0.1 -0.1)">
      <defs>
       <path id="DejaVuSans-52" d="M 2841 2188 
Q 3044 2119 3236 1894 
Q 3428 1669 3622 1275 
L 4263 0 
L 3584 0 
L 2988 1197 
Q 2756 1666 2539 1819 
Q 2322 1972 1947 1972 
L 1259 1972 
L 1259 0 
L 628 0 
L 628 4666 
L 2053 4666 
Q 2853 4666 3247 4331 
Q 3641 3997 3641 3322 
Q 3641 2881 3436 2590 
Q 3231 2300 2841 2188 
z
M 1259 4147 
L 1259 2491 
L 2053 2491 
Q 2509 2491 2742 2702 
Q 2975 2913 2975 3322 
Q 2975 3731 2742 3939 
Q 2509 4147 2053 4147 
L 1259 4147 
z
" transform="scale(0.015625)"/>
       <path id="DejaVuSans-4f" d="M 2522 4238 
Q 1834 4238 1429 3725 
Q 1025 3213 1025 2328 
Q 1025 1447 1429 934 
Q 1834 422 2522 422 
Q 3209 422 3611 934 
Q 4013 1447 4013 2328 
Q 4013 3213 3611 3725 
Q 3209 4238 2522 4238 
z
M 2522 4750 
Q 3503 4750 4090 4092 
Q 4678 3434 4678 2328 
Q 4678 1225 4090 567 
Q 3503 -91 2522 -91 
Q 1538 -91 948 565 
Q 359 1222 359 2328 
Q 359 3434 948 4092 
Q 1538 4750 2522 4750 
z
" transform="scale(0.015625)"/>
      </defs>
      <use xlink:href="#DejaVuSans-52"/>
      <use xlink:href="#DejaVuSans-4f" x="69.482422"/>
     </g>
    </g>
    <g id="line2d_50">
     <path d="M 398.160937 126.645313 
L 408.160937 126.645313 
L 418.160937 126.645313 
" style="fill: none; stroke: #5e7e66; stroke-width: 1.5; stroke-linecap: square"/>
    </g>
    <g id="text_34">
     <!-- SI -->
     <g transform="translate(426.160937 130.145313)scale(0.1 -0.1)">
      <use xlink:href="#DejaVuSans-53"/>
      <use xlink:href="#DejaVuSans-49" x="63.476562"/>
     </g>
    </g>
    <g id="line2d_51">
     <path d="M 398.160937 141.323438 
L 408.160937 141.323438 
L 418.160937 141.323438 
" style="fill: none; stroke: #9be4ff; stroke-width: 1.5; stroke-linecap: square"/>
    </g>
    <g id="text_35">
     <!-- SK -->
     <g transform="translate(426.160937 144.823438)scale(0.1 -0.1)">
      <use xlink:href="#DejaVuSans-53"/>
      <use xlink:href="#DejaVuSans-4b" x="63.476562"/>
     </g>
    </g>
   </g>
  </g>
 </g>
 <defs>
  <clipPath id="peeb0244e5a">
   <rect x="50.87" y="10.8" width="399.13" height="292.84"/>
  </clipPath>
 </defs>
</svg>
